<svg width="626" height="498" viewBox="0 0 626 498" fill="none" xmlns="http://www.w3.org/2000/svg">
<g clip-path="url(#clip0)">
<path opacity="0.1" d="M367.127 84.1595C327.517 82.7816 289.786 69.988 253.762 55.9879C217.739 41.9879 182.058 26.4752 143.397 19.0587C118.53 14.2879 90.0896 13.6142 70.0581 26.9528C50.7733 39.8138 44.543 61.953 41.1952 82.5182C38.6737 97.9881 37.1926 114.266 44.1023 128.75C48.8944 138.806 57.4077 147.258 63.2892 156.922C83.7735 190.434 69.2992 231.76 47.1012 264.482C36.6968 279.836 24.6094 294.491 16.5797 310.818C8.54999 327.146 4.8289 345.88 11.8549 362.55C18.8258 379.085 35.43 391.481 53.4112 400.208C89.9427 417.938 132.974 423.009 174.965 425.881C267.888 432.244 361.301 429.488 454.469 426.732C488.95 425.709 523.578 424.674 557.496 419.34C576.334 416.376 595.778 411.679 609.457 400.324C626.814 385.914 631.117 361.509 619.488 343.442C599.971 313.133 546.046 305.606 532.385 273.074C524.882 255.173 532.593 235.233 543.5 218.624C566.903 183.005 606.128 151.753 608.196 111.039C609.616 83.0694 590.754 55.0693 561.597 41.8348C531.039 27.9144 488.65 29.6781 466.116 52.638C442.895 76.296 402.098 85.3721 367.127 84.1595Z" fill="#6C63FF"/>
<path d="M266.505 422.88L57.0219 421.857L36.207 373.004L109.809 367.657L96.9808 314.095L242.556 295.214L103.156 246.722L115.47 243.794L339.623 280.387L327.278 363.977L309.634 409.915L266.505 422.88Z" fill="#6C63FF"/>
<path d="M60.2354 401.396C60.2354 401.396 73.0878 399.338 80.7993 408.427C80.7993 408.427 75.1442 412.885 62.9772 406.712L60.2354 401.396Z" fill="#6C63FF"/>
<path d="M58.8886 401.194C58.8886 401.194 50.6875 411.293 54.7268 422.537C54.7268 422.537 61.4101 419.861 62.1384 406.228L58.8886 401.194Z" fill="#6C63FF"/>
<path d="M51.5205 384.591C51.5205 384.591 56.6615 375.154 77.2254 388.364C77.2254 388.364 74.4836 394.708 65.4012 394.194C56.3188 393.679 53.9196 389.564 51.5205 384.591Z" fill="#6C63FF"/>
<path d="M50.1921 383.911C50.1921 383.911 39.5246 382.686 38.4902 407.122C38.4902 407.122 45.2531 408.525 50.0574 400.796C54.8618 393.067 52.8911 388.731 50.1921 383.911Z" fill="#6C63FF"/>
<path d="M43.9795 364.418C43.9795 364.418 49.9773 347.784 71.7408 359.616C71.7408 359.616 66.7712 374.878 46.2073 370.077L43.9795 364.418Z" fill="#6C63FF"/>
<path d="M37.2969 339.553C37.2969 339.553 48.607 322.748 68.6569 338.328C68.6569 338.328 61.6309 354.105 39.0105 345.531L37.2969 339.553Z" fill="#6C63FF"/>
<path d="M34.8975 315.889C34.8975 315.889 48.0926 300.45 67.9466 315.889C67.9466 315.889 55.4369 329.436 34.8975 319.833V315.889Z" fill="#6C63FF"/>
<path d="M32.8408 292.905C32.8408 292.905 46.2074 276.786 65.229 292.047C65.229 292.047 50.1488 306.28 32.8408 296.677V292.905Z" fill="#6C63FF"/>
<path d="M34.041 272.499C34.041 272.499 48.1175 251.75 65.9151 265.811C65.9151 265.811 50.8349 283.645 34.041 276.443V272.499Z" fill="#6C63FF"/>
<path d="M37.2969 248.663C37.2969 248.663 52.2057 228.086 69.5137 243.862C69.5137 243.862 51.863 261.696 37.2969 252.436V248.663Z" fill="#6C63FF"/>
<path d="M42.2663 227.357C42.2663 227.357 59.917 208.016 75.3154 215.721C75.3154 215.721 56.9242 236.262 41.4951 232.489L42.2663 227.357Z" fill="#6C63FF"/>
<path d="M48.4356 207.159C48.4356 207.159 68.8037 183.47 80.6524 191.383C80.6524 191.383 65.6456 209.756 46.9912 211.593L48.4356 207.159Z" fill="#6C63FF"/>
<path d="M57.3403 183.734C57.3403 183.734 75.1685 164.393 88.1923 169.195C88.1923 169.195 72.9407 189.258 54.9473 189.772L57.3403 183.734Z" fill="#6C63FF"/>
<path d="M65.4008 161.821C65.4008 161.821 85.1079 143.301 93.6762 146.56C93.6762 146.56 79.4528 167.137 64.5439 165.937L65.4008 161.821Z" fill="#6C63FF"/>
<path d="M73.2832 141.587C73.2832 141.587 90.2484 119.46 99.5083 121.175C99.5083 121.175 89.2202 140.901 73.2832 143.834V141.587Z" fill="#6C63FF"/>
<path d="M81.8398 114.303C81.8398 114.303 96.8344 97.3451 104.938 97.3818C104.938 97.3818 93.101 120.042 81.2217 119.833L81.8398 114.303Z" fill="#6C63FF"/>
<path d="M86.9066 96.1386L101.393 60.8139C101.393 60.8139 102.115 92.7457 85.0645 102.692L86.9066 96.1386Z" fill="#6C63FF"/>
<path d="M92.7884 57.1822C92.7884 57.1822 95.1875 27.6816 93.6452 25.2809C93.6452 25.2809 104.001 49.8086 92.6904 70.2146L92.7884 57.1822Z" fill="#6C63FF"/>
<path d="M43.4169 364.026C43.4169 364.026 28.3979 354.711 18.6729 377.499C18.6729 377.499 32.0394 386.379 45.1856 369.838L43.4169 364.026Z" fill="#6C63FF"/>
<path d="M36.8134 338.604C36.8134 338.604 18.3916 330.195 9.45605 353.988C9.45605 353.988 23.6856 363.787 38.4903 344.618L36.8134 338.604Z" fill="#6C63FF"/>
<path d="M34.0404 317.304C34.0404 317.304 20.8452 301.865 0.991211 317.304C0.991211 317.304 13.5009 330.851 34.0404 321.248V317.304Z" fill="#6C63FF"/>
<path d="M32.3882 292.905C32.3882 292.905 19.0216 276.786 0 292.047C0 292.047 15.0802 306.28 32.3882 296.677V292.905Z" fill="#6C63FF"/>
<path d="M34.0407 273.087C34.0407 273.087 24.6645 249.845 4.28418 259.84C4.28418 259.84 15.3006 280.448 33.2083 276.945L34.0407 273.087Z" fill="#6C63FF"/>
<path d="M38.4773 248.547C38.4773 248.547 29.1562 224.901 8.48828 235.863C8.48828 235.863 21.1449 257.537 37.5593 252.197L38.4773 248.547Z" fill="#6C63FF"/>
<path d="M44.255 227.473C44.255 227.473 40.5829 201.549 23.4463 199.228C23.4463 199.228 27.0817 226.567 41.9477 232.146L44.255 227.473Z" fill="#6C63FF"/>
<path d="M48.8699 207.208C48.8699 207.208 47.4378 175.974 33.2695 174.884C33.2695 174.884 33.7469 198.591 47.2726 211.63L48.8699 207.208Z" fill="#6C63FF"/>
<path d="M58.8092 182.858C58.8092 182.858 54.5862 156.885 41.0605 153.713C41.0605 153.713 42.7375 178.865 57.4688 189.233L58.8092 182.858Z" fill="#6C63FF"/>
<path d="M67.0044 162.036C67.0044 162.036 66.8636 134.979 58.6013 131.004C58.6013 131.004 53.4787 155.501 64.6114 165.49L67.0044 162.036Z" fill="#6C63FF"/>
<path d="M73.9142 141.28C73.9142 141.28 72.7575 113.421 64.2014 109.496C64.2014 109.496 61.2759 131.543 72.6351 143.105L73.9142 141.28Z" fill="#6C63FF"/>
<path d="M83.0329 116.526C83.0329 116.526 82.9839 93.8665 76.8759 88.5506C76.8759 88.5506 70.8047 113.372 79.8442 121.083L83.0329 116.526Z" fill="#6C63FF"/>
<path d="M86.1909 95.024L80.2482 57.3108C80.2482 57.3108 72.1756 88.2138 86.4725 101.834L86.1909 95.024Z" fill="#6C63FF"/>
<path d="M87.3475 57.5374C87.3475 57.5374 72.0959 32.183 72.408 29.3658C72.408 29.3658 74.0299 55.939 93.2168 69.1735L87.3475 57.5374Z" fill="#6C63FF"/>
<path d="M89.1342 50.0474C89.1342 50.0474 74.7394 14.0368 68.2275 11.1216C68.2275 11.1216 88.7915 21.5819 90.3337 49.0185L89.1342 50.0474Z" fill="#6C63FF"/>
<path d="M81.1475 120.048L80.1621 119.748C92.3107 80.1053 95.3402 54.8305 88.6998 48.4919L89.4036 47.7447C96.448 54.4324 93.5898 79.4316 81.1475 120.048Z" fill="#444053"/>
<path d="M47.6949 212.867L46.2383 212.346C47.5296 208.715 48.9189 205.028 50.3755 201.396C63.0566 169.771 73.8527 140.35 80.7746 117.763L82.0415 117.151C75.1073 139.78 64.501 170.328 51.8077 201.996C50.3572 205.561 48.974 209.229 47.6949 212.867Z" fill="#444053"/>
<path d="M78.345 431.062C78.1492 430.848 58.4604 408.659 44.7328 370.781C36.6892 348.604 32.2127 325.292 31.4703 301.711C30.5278 272.235 36.7092 239.324 47.2972 209.425L48.4478 210.772C24.6769 277.876 34.1204 335.377 46.6484 370.003C60.2292 407.539 79.6976 429.482 79.8873 429.702L78.345 431.062Z" fill="#444053"/>
<path d="M386.02 383.954C386.02 383.954 372.146 400.9 383.162 426.518L272.386 474.593L261.756 476.822L256.859 455.387L260.134 428.337V413.553L386.02 383.954Z" fill="#D5D6DB"/>
<path d="M36.207 373.004L189.531 345.034L392.691 377.42L266.505 422.88L36.207 373.004Z" fill="#6C63FF"/>
<path d="M36.207 373.004L189.531 345.034L392.691 377.42L266.505 422.88L36.207 373.004Z" fill="#6C63FF"/>
<path d="M36.2075 372.998C36.2075 372.998 21.8679 400.183 38.3924 425.293L265.758 474.593C265.758 474.593 251.645 452.938 266.487 422.88L36.2075 372.998Z" fill="#6C63FF"/>
<path opacity="0.1" d="M36.2075 372.998C36.2075 372.998 21.8679 400.183 38.3924 425.293L265.758 474.593C265.758 474.593 251.645 452.938 266.487 422.88L36.2075 372.998Z" fill="black"/>
<path opacity="0.1" d="M42.982 382.423C42.982 382.423 34.7871 402.315 42.982 415.188V382.423Z" fill="black"/>
<path d="M265.758 474.593L392.691 420.393C392.691 420.393 399.79 421.925 395.2 427.13C390.61 432.336 268.206 479.799 268.206 479.799L38.3916 425.293L265.758 474.593Z" fill="#6C63FF"/>
<path opacity="0.1" d="M265.758 474.593L392.691 420.393C392.691 420.393 399.79 421.925 395.2 427.13C390.61 432.336 268.206 479.799 268.206 479.799L38.3916 425.293L265.758 474.593Z" fill="black"/>
<path opacity="0.1" d="M255.353 428.355C255.353 428.355 243.113 443.053 255.353 465.101V428.355Z" fill="black"/>
<path opacity="0.1" d="M314.614 428.106L259.71 446.436L259.904 447.017L314.808 428.687L314.614 428.106Z" fill="black"/>
<path opacity="0.1" d="M325.612 426.282L259.693 451.365L259.911 451.938L325.829 426.855L325.612 426.282Z" fill="black"/>
<path opacity="0.1" d="M335.71 426.195L260.061 457.18L260.292 457.746L335.942 426.761L335.71 426.195Z" fill="black"/>
<path opacity="0.1" d="M346.693 423.541L260.943 462.302L261.195 462.86L346.944 424.099L346.693 423.541Z" fill="black"/>
<path opacity="0.1" d="M355.919 423.554L261.622 464.798L261.867 465.359L356.164 424.115L355.919 423.554Z" fill="black"/>
<path opacity="0.1" d="M376.101 420.124L263.045 468.987L263.288 469.549L376.344 420.686L376.101 420.124Z" fill="black"/>
<path opacity="0.3" d="M93.168 375.993L200.884 353.333L266.505 365.888L178.239 394.365L93.168 375.993Z" fill="white"/>
<path d="M392.691 377.42C392.691 377.42 398.261 379.667 394.992 383.14C391.724 386.612 266.486 422.88 266.486 422.88L392.691 377.42Z" fill="#6C63FF"/>
<path d="M446.788 325.051C446.788 325.051 432.919 341.991 443.936 367.615L333.16 415.69L322.529 417.932L317.633 396.497L320.956 369.452V354.65L446.788 325.051Z" fill="#D5D6DB"/>
<path d="M96.9814 314.095L250.299 286.131L453.466 318.516L327.279 363.977L96.9814 314.095Z" fill="#3A3768"/>
<path d="M96.9559 314.095C96.9559 314.095 82.6102 341.28 99.1347 366.39L326.501 415.69C326.501 415.69 312.394 394.016 327.253 363.971L96.9559 314.095Z" fill="#3A3768"/>
<path opacity="0.1" d="M96.9559 314.095C96.9559 314.095 82.6102 341.28 99.1347 366.39L326.501 415.69C326.501 415.69 312.394 394.016 327.253 363.971L255.353 348.397L96.9559 314.095Z" fill="black"/>
<path opacity="0.1" d="M103.75 323.52C103.75 323.52 95.561 343.405 103.75 356.285V323.52Z" fill="black"/>
<path d="M326.526 415.69L453.466 361.49C453.466 361.49 460.559 363.021 455.969 368.227C451.379 373.433 328.974 420.896 328.974 420.896L99.1602 366.39L326.526 415.69Z" fill="#3A3768"/>
<path opacity="0.1" d="M326.526 415.69L453.466 361.49C453.466 361.49 460.559 363.021 455.969 368.227C451.379 373.433 328.974 420.896 328.974 420.896L99.1602 366.39L326.526 415.69Z" fill="black"/>
<path opacity="0.1" d="M316.122 369.452C316.122 369.452 303.881 384.15 316.122 406.197V369.452Z" fill="black"/>
<path opacity="0.1" d="M375.386 369.21L320.482 387.539L320.676 388.12L375.58 369.791L375.386 369.21Z" fill="black"/>
<path opacity="0.1" d="M386.391 367.383L320.473 392.466L320.69 393.038L386.608 367.955L386.391 367.383Z" fill="black"/>
<path opacity="0.1" d="M396.482 367.287L320.832 398.272L321.064 398.838L396.714 367.853L396.482 367.287Z" fill="black"/>
<path opacity="0.1" d="M407.471 364.634L321.722 403.395L321.974 403.953L407.723 365.193L407.471 364.634Z" fill="black"/>
<path opacity="0.1" d="M416.689 364.639L322.392 405.884L322.637 406.445L416.934 365.201L416.689 364.639Z" fill="black"/>
<path opacity="0.1" d="M436.875 361.21L323.818 410.072L324.061 410.634L437.118 361.772L436.875 361.21Z" fill="black"/>
<path opacity="0.45" d="M153.941 317.09L261.657 294.43L327.278 306.984L239.012 335.462L153.941 317.09Z" fill="white"/>
<path d="M453.465 318.516C453.465 318.516 459.028 320.764 455.766 324.23C452.504 327.697 327.278 363.971 327.278 363.971L453.465 318.516Z" fill="#3A3768"/>
<path d="M452.541 257.666C452.541 257.666 438.666 288.085 449.683 313.703L338.907 348.305L328.3 350.552L323.404 329.118L326.679 302.067V287.264L452.541 257.666Z" fill="#D5D6DB"/>
<path d="M102.752 246.716L256.076 218.746L459.242 251.131L333.049 296.592L102.752 246.716Z" fill="#6C63FF"/>
<path d="M102.752 246.71C102.752 246.71 88.3878 273.895 104.912 299.005L332.278 348.305C332.278 348.305 318.165 326.631 333.025 296.592L102.752 246.71Z" fill="#6C63FF"/>
<path opacity="0.1" d="M102.752 246.71C102.752 246.71 88.3878 273.895 104.912 299.005L332.278 348.305C332.278 348.305 318.165 326.631 333.025 296.592L102.752 246.71Z" fill="black"/>
<path opacity="0.1" d="M109.527 256.135C109.527 256.135 101.332 276.026 109.527 288.9V256.135Z" fill="black"/>
<path d="M332.303 348.305L459.237 307.579C459.237 307.579 466.336 309.11 461.746 314.315C457.156 319.521 334.752 353.51 334.752 353.51L104.938 299.005L332.303 348.305Z" fill="#6C63FF"/>
<path opacity="0.1" d="M332.303 348.305L459.237 307.579C459.237 307.579 466.336 309.11 461.746 314.315C457.156 319.521 334.752 353.51 334.752 353.51L104.938 299.005L332.303 348.305Z" fill="black"/>
<path opacity="0.1" d="M321.898 302.067C321.898 302.067 309.658 316.765 321.898 338.812V302.067Z" fill="black"/>
<path opacity="0.1" d="M381.166 301.823L326.262 320.153L326.455 320.734L381.359 302.404L381.166 301.823Z" fill="black"/>
<path opacity="0.1" d="M392.166 300L326.248 325.082L326.466 325.655L392.384 300.572L392.166 300Z" fill="black"/>
<path opacity="0.1" d="M402.25 299.906L326.601 330.891L326.832 331.458L402.482 300.473L402.25 299.906Z" fill="black"/>
<path opacity="0.1" d="M413.249 297.249L327.5 336.01L327.752 336.568L413.501 297.807L413.249 297.249Z" fill="black"/>
<path opacity="0.1" d="M422.47 297.259L328.173 338.504L328.418 339.065L422.715 297.821L422.47 297.259Z" fill="black"/>
<path opacity="0.1" d="M442.654 293.834L329.598 342.696L329.84 343.259L442.897 294.396L442.654 293.834Z" fill="black"/>
<path opacity="0.3" d="M159.713 249.704L267.429 227.045L333.05 239.599L244.784 268.077L159.713 249.704Z" fill="white"/>
<path d="M459.236 251.131C459.236 251.131 464.806 253.379 461.538 256.851C458.269 260.324 333.05 296.592 333.05 296.592L459.236 251.131Z" fill="#6C63FF"/>
<path d="M189.984 65.2233C189.984 65.2233 166.727 63.8209 169.444 80.1481C169.444 80.1481 168.9 83.0327 171.513 84.3432C171.513 84.3432 171.556 83.1184 173.9 83.541C174.736 83.6848 175.587 83.7259 176.434 83.6635C177.575 83.5853 178.659 83.1382 179.524 82.3896C179.524 82.3896 186.067 79.6827 188.613 68.9775C188.613 68.9775 190.498 66.6441 190.449 66.044L186.508 67.722C186.508 67.722 187.848 70.5575 186.795 72.9154C186.795 72.9154 186.667 67.8261 185.908 67.9425C185.755 67.9425 183.87 68.9285 183.87 68.9285C183.87 68.9285 186.177 73.8708 184.433 77.4596C184.433 77.4596 185.094 71.3721 183.148 69.2837L180.381 70.9005C180.381 70.9005 183.08 76.002 181.25 80.1665C181.25 80.1665 181.722 73.7789 179.8 71.2925L177.291 73.2522C177.291 73.2522 179.83 78.2802 178.282 81.7343C178.282 81.7343 178.08 74.2995 176.752 73.736C176.752 73.736 174.555 75.6713 174.224 76.4675C174.224 76.4675 175.963 80.142 174.879 82.0466C174.879 82.0466 174.224 77.0921 173.655 77.0676C173.655 77.0676 171.47 80.3502 171.244 82.5795C171.35 80.5012 171.997 78.4869 173.123 76.7369C171.863 76.9753 170.702 77.5779 169.781 78.4701C169.781 78.4701 170.118 76.149 173.667 75.9469C173.667 75.9469 175.473 73.4543 175.956 73.3073C175.956 73.3073 172.425 73.0072 170.289 73.9565C170.289 73.9565 172.174 71.7701 176.599 72.7316L179.047 70.7107C179.047 70.7107 174.408 70.0982 172.437 70.778C172.437 70.778 174.708 68.8428 179.714 70.2513L182.413 68.6406C182.413 68.6406 178.453 67.7894 176.097 68.0956C176.097 68.0956 178.582 66.7544 183.203 68.2058L185.124 67.3423C185.124 67.3423 182.23 66.7728 181.379 66.6809C180.528 66.589 180.485 66.3563 180.485 66.3563C182.323 66.0543 184.208 66.2663 185.932 66.9687C185.932 66.9687 190.063 65.4805 189.984 65.2233Z" fill="#6C63FF"/>
<path opacity="0.1" d="M517.17 132.333C517.17 132.333 493.914 130.93 496.631 147.258C496.631 147.258 496.086 150.142 498.7 151.453C498.7 151.453 498.742 150.228 501.087 150.651C501.923 150.791 502.774 150.832 503.62 150.773C504.751 150.69 505.824 150.243 506.68 149.499C506.68 149.499 513.229 146.792 515.769 136.087C515.769 136.087 517.654 133.754 517.605 133.154L513.676 134.832C513.676 134.832 515.016 137.667 513.963 140.025C513.963 140.025 513.835 134.936 513.082 135.052C512.929 135.052 511.038 136.038 511.038 136.038C511.038 136.038 513.345 140.98 511.607 144.569C511.607 144.569 512.268 138.482 510.316 136.393L507.549 138.01C507.549 138.01 510.248 143.112 508.419 147.276C508.419 147.276 508.89 140.889 506.968 138.402L504.465 140.362C504.465 140.362 506.999 145.39 505.45 148.844C505.45 148.844 505.248 141.409 503.92 140.846C503.92 140.846 501.729 142.781 501.393 143.577C501.393 143.577 503.131 147.252 502.054 149.156C502.054 149.156 501.393 144.202 500.829 144.177C500.829 144.177 498.645 147.46 498.418 149.689C498.524 147.61 499.174 145.595 500.303 143.847C499.042 144.086 497.879 144.688 496.955 145.58C496.955 145.58 497.298 143.259 500.842 143.057C500.842 143.057 502.647 140.564 503.131 140.411C503.131 140.411 499.605 140.117 497.463 141.066C497.463 141.066 499.348 138.88 503.773 139.841L506.221 137.82C506.221 137.82 501.576 137.208 499.612 137.888C499.612 137.888 501.876 135.952 506.888 137.361L509.581 135.75C509.581 135.75 505.622 134.899 503.265 135.205C503.265 135.205 505.75 133.864 510.371 135.315L512.299 134.452C512.299 134.452 509.398 133.882 508.547 133.79C507.696 133.699 507.653 133.466 507.653 133.466C509.491 133.16 511.377 133.372 513.1 134.078C513.1 134.078 517.244 132.59 517.17 132.333Z" fill="#6C63FF"/>
<path opacity="0.1" d="M229.153 166.09C229.153 166.09 219.018 145.065 206.117 155.428C206.117 155.428 203.332 156.358 203.467 159.28C203.467 159.28 204.538 158.722 205.303 160.976C205.588 161.773 205.966 162.533 206.429 163.242C207.055 164.203 207.977 164.934 209.054 165.324C209.054 165.324 214.605 169.722 225.187 166.721C225.187 166.721 228.143 167.229 228.627 166.874L225.248 164.259C225.248 164.259 223.412 166.813 220.854 167.039C220.854 167.039 225.236 164.449 224.765 163.848C224.667 163.726 222.929 162.544 222.929 162.544C222.929 162.544 219.74 166.972 215.762 167.198C215.762 167.198 221.393 164.81 222.262 162.085L219.508 160.456C219.508 160.456 216.368 165.306 211.845 165.735C211.845 165.735 217.647 163.034 218.877 160.143L215.952 158.918C215.952 158.918 212.8 163.585 209.03 163.922C209.03 163.922 215.419 160.119 215.26 158.68C215.26 158.68 212.5 157.712 211.643 157.804C211.643 157.804 209.305 161.105 207.102 161.105C207.102 161.105 211.099 158.11 210.854 157.626C210.854 157.626 206.925 157.32 204.856 158.239C206.72 157.311 208.794 156.889 210.872 157.014C210.048 156.03 208.954 155.309 207.726 154.938C207.726 154.938 209.917 154.105 211.821 157.099C211.821 157.099 214.881 157.461 215.242 157.81C215.242 157.81 213.779 154.588 211.913 153.186C211.913 153.186 214.74 153.756 216.031 158.085L219 159.261C219 159.261 217.292 154.901 215.719 153.523C215.719 153.523 218.51 154.558 219.728 159.647L222.445 161.215C222.445 161.215 221.264 157.338 219.844 155.434C219.844 155.434 222.225 156.952 223.21 161.693L224.906 162.954C224.906 162.954 223.988 160.143 223.682 159.359C223.376 158.575 223.529 158.416 223.529 158.416C224.693 159.87 225.43 161.62 225.659 163.469C225.659 163.469 228.933 166.274 229.153 166.09Z" fill="#6C63FF"/>
<path opacity="0.1" d="M464.035 102.63C464.035 102.63 453.906 81.6057 440.998 91.968C440.998 91.968 438.22 92.8989 438.348 95.8201C438.348 95.8201 439.425 95.2689 440.184 97.5165C440.469 98.3165 440.85 99.0793 441.316 99.7886C441.94 100.748 442.86 101.477 443.936 101.865C443.936 101.865 449.493 106.262 460.069 103.267C460.069 103.267 463.025 103.769 463.514 103.414L460.154 100.793C460.154 100.793 458.318 103.353 455.766 103.58C455.766 103.58 460.142 100.983 459.671 100.383C459.573 100.26 457.835 99.0782 457.835 99.0782C457.835 99.0782 454.652 103.506 450.668 103.733C450.668 103.733 456.305 101.344 457.174 98.625L454.377 97.0082C454.377 97.0082 451.243 101.853 446.714 102.287C446.714 102.287 452.516 99.5804 453.753 96.6898L450.821 95.4649C450.821 95.4649 447.669 100.138 443.905 100.468C443.905 100.468 450.289 96.6653 450.129 95.2322C450.129 95.2322 447.375 94.2584 446.519 94.3564C446.519 94.3564 444.181 97.6513 441.971 97.6513C441.971 97.6513 445.974 94.6565 445.729 94.1727C445.729 94.1727 441.8 93.8665 439.725 94.7851C441.589 93.8578 443.663 93.4354 445.741 93.5603C444.92 92.576 443.828 91.8542 442.602 91.4842C442.602 91.4842 444.793 90.6513 446.696 93.646C446.696 93.646 449.756 94.0135 450.117 94.3626C450.117 94.3626 448.655 91.1351 446.782 89.7326C446.782 89.7326 449.609 90.3083 450.901 94.6626L453.875 95.8385C453.875 95.8385 452.168 91.4719 450.595 90.0939C450.595 90.0939 453.385 91.1289 454.597 96.2182L457.321 97.786C457.321 97.786 456.133 93.9155 454.714 92.0047C454.714 92.0047 457.1 93.5235 458.08 98.2637L459.775 99.5253C459.775 99.5253 458.863 96.7143 458.551 95.9304C458.239 95.1465 458.398 94.9934 458.398 94.9934C459.559 96.4487 460.294 98.1977 460.522 100.046C460.522 100.046 463.845 102.826 464.035 102.63Z" fill="#6C63FF"/>
<path opacity="0.1" d="M496.405 206.626C496.405 206.626 486.276 185.596 473.35 195.958C473.35 195.958 470.571 196.889 470.7 199.81C470.7 199.81 471.777 199.259 472.536 201.506C472.819 202.306 473.197 203.069 473.662 203.778C474.286 204.737 475.206 205.466 476.281 205.855C476.281 205.855 481.838 210.258 492.42 207.257C492.42 207.257 495.37 207.765 495.86 207.404L492.482 204.789C492.482 204.789 490.645 207.349 488.087 207.576C488.087 207.576 492.463 204.979 491.992 204.379C491.894 204.256 490.156 203.074 490.156 203.074C490.156 203.074 486.973 207.502 482.989 207.735C482.989 207.735 488.626 205.34 489.495 202.621L486.735 200.992C486.735 200.992 483.601 205.842 479.072 206.271C479.072 206.271 484.874 203.564 486.11 200.673L483.179 199.449C483.179 199.449 480.027 204.115 476.263 204.452C476.263 204.452 482.652 200.649 482.493 199.21C482.493 199.21 479.733 198.236 478.876 198.334C478.876 198.334 476.538 201.629 474.329 201.629C474.329 201.629 478.332 198.634 478.087 198.15C478.087 198.15 474.158 197.844 472.083 198.763C473.949 197.836 476.025 197.414 478.105 197.538C477.283 196.552 476.189 195.83 474.959 195.462C474.959 195.462 477.15 194.623 479.054 197.624C479.054 197.624 482.114 197.985 482.475 198.334C482.475 198.334 481.012 195.113 479.146 193.704C479.146 193.704 481.973 194.28 483.264 198.634L486.233 199.81C486.233 199.81 484.525 195.443 482.952 194.072C482.952 194.072 485.743 195.1 486.955 200.196L489.678 201.757C489.678 201.757 488.491 197.887 487.071 195.976C487.071 195.976 489.458 197.495 490.444 202.241L492.139 203.466C492.139 203.466 491.221 200.655 490.915 199.871C490.609 199.087 490.762 198.934 490.762 198.934C491.926 200.388 492.661 202.138 492.885 203.987C492.885 203.987 496.215 206.81 496.405 206.626Z" fill="#6C63FF"/>
<path opacity="0.1" d="M123.598 480.24C131.369 480.24 137.668 479.535 137.668 478.666C137.668 477.797 131.369 477.092 123.598 477.092C115.827 477.092 109.527 477.797 109.527 478.666C109.527 479.535 115.827 480.24 123.598 480.24Z" fill="#6C63FF"/>
<path opacity="0.1" d="M31.3604 453.489C39.1313 453.489 45.4308 452.784 45.4308 451.915C45.4308 451.046 39.1313 450.341 31.3604 450.341C23.5896 450.341 17.29 451.046 17.29 451.915C17.29 452.784 23.5896 453.489 31.3604 453.489Z" fill="#6C63FF"/>
<path opacity="0.1" d="M193.906 498.006C201.677 498.006 207.977 497.301 207.977 496.432C207.977 495.563 201.677 494.858 193.906 494.858C186.135 494.858 179.836 495.563 179.836 496.432C179.836 497.301 186.135 498.006 193.906 498.006Z" fill="#6C63FF"/>
<path opacity="0.1" d="M554.204 459.307C561.975 459.307 568.275 458.602 568.275 457.733C568.275 456.864 561.975 456.159 554.204 456.159C546.433 456.159 540.134 456.864 540.134 457.733C540.134 458.602 546.433 459.307 554.204 459.307Z" fill="#6C63FF"/>
<path opacity="0.1" d="M437.118 451.67C444.889 451.67 451.189 450.965 451.189 450.096C451.189 449.227 444.889 448.522 437.118 448.522C429.347 448.522 423.048 449.227 423.048 450.096C423.048 450.965 429.347 451.67 437.118 451.67Z" fill="#6C63FF"/>
<path opacity="0.1" d="M361.374 488.918C370.565 488.918 378.015 487.637 378.015 486.058C378.015 484.478 370.565 483.198 361.374 483.198C352.184 483.198 344.733 484.478 344.733 486.058C344.733 487.637 352.184 488.918 361.374 488.918Z" fill="#6C63FF"/>
<path d="M368.798 457.31C368.798 457.31 345.627 469.29 357.598 483.4C357.598 483.4 358.724 486.462 361.98 486.248C361.98 486.248 361.331 485.06 363.816 484.11C364.7 483.768 365.541 483.322 366.319 482.781C367.372 482.053 368.158 481.002 368.559 479.787C368.559 479.787 373.296 473.442 369.624 461.702C369.624 461.702 370.102 458.382 369.686 457.843L366.87 461.708C366.87 461.708 369.777 463.661 370.114 466.534C370.114 466.534 367.054 461.714 366.442 462.247C366.307 462.357 365.046 464.36 365.046 464.36C365.046 464.36 370.09 467.783 370.463 472.229C370.463 472.229 367.623 466.001 364.557 465.113L362.8 468.248C362.8 468.248 368.309 471.604 368.921 476.651C368.921 476.651 365.72 470.251 362.451 468.959L361.16 472.272C361.16 472.272 366.472 475.653 366.962 479.854C366.962 479.854 362.519 472.829 360.921 473.05C360.921 473.05 359.918 476.161 360.052 477.122C360.052 477.122 363.804 479.633 363.871 482.101C363.871 482.101 360.407 477.723 359.875 478.01C359.875 478.01 359.655 482.414 360.719 484.704C360.719 484.704 358.883 481.434 359.183 478.01C358.11 478.96 357.338 480.204 356.962 481.587C356.962 481.587 355.964 479.168 359.251 476.939C359.251 476.939 359.563 473.515 359.942 473.093C359.942 473.093 356.386 474.832 354.875 476.963C354.875 476.963 355.432 473.785 360.254 472.205L361.478 468.849C361.478 468.849 356.656 470.894 355.168 472.695C355.168 472.695 356.239 469.541 361.858 468.028L363.522 464.966C363.522 464.966 359.238 466.411 357.145 468.028C357.145 468.028 358.767 465.315 364.037 464.066L365.389 462.136C365.389 462.136 362.28 463.245 361.411 463.643C360.542 464.041 360.371 463.845 360.371 463.845C361.959 462.5 363.889 461.623 365.946 461.31C365.946 461.31 369.012 457.519 368.798 457.31Z" fill="#6C63FF"/>
<path d="M437.571 231.062C433.568 220.179 411.536 219.157 401.976 221.931C395.182 223.909 380.861 226.138 373.211 227.259L372.715 226.787C373.707 226.493 373.731 225.771 373.609 224.699C373.537 223.286 373.558 221.871 373.67 220.461C378.358 221.919 382.532 218.471 382.532 218.471C388.04 216.021 386.559 205.536 387.612 202.67C388.401 200.527 389.252 187.898 389.631 181.603H389.711L389.754 179.49C389.809 178.577 389.833 178.044 389.833 178.044C389.833 178.044 390.372 162.648 391.425 159.531C392.404 156.665 393.199 142.224 393.322 139.933C393.322 139.737 393.322 139.633 393.322 139.633L393.242 138.298C393.297 137.324 393.322 136.24 393.316 135.101C393.316 129.865 392.771 123.269 392.704 122.203C392.704 122.05 392.704 121.867 392.704 121.646C392.746 119.411 392.465 108.216 382.948 103.984C379.441 102.416 375.224 100.548 371.142 98.7291C370.089 89.6346 367.684 80.5891 367.892 71.4272C367.892 70.0492 368.015 68.6713 368.149 67.2995C368.149 67.6975 368.107 68.1017 368.1 68.5243C368.1 69.4123 368.1 70.3065 368.1 71.1945C368.462 59.736 372.788 48.2163 372.385 37.0028C372.348 38.099 372.268 39.2014 372.164 40.3037C372.376 36.5109 371.979 32.7086 370.989 29.0412C370.622 27.749 370.126 26.4139 369.067 25.5504C368.067 24.8549 366.919 24.4001 365.714 24.2214C362.817 23.4796 359.875 22.9313 356.907 22.5801C356.455 21.1983 355.786 19.8978 354.924 18.728C348.718 10.203 339.525 2.19248 328.656 0.3552C323.203 -0.563439 316.929 0.202093 313.22 4.10324C312.833 4.44595 312.469 4.81423 312.131 5.20561C310.136 7.58795 309.279 10.7174 307.235 13.0937C307.1 13.2529 306.947 13.3999 306.8 13.553C302.798 17.1357 296.561 17.8828 292.112 21.0981C291.328 21.6752 290.593 22.3164 289.915 23.0149C288.122 24.7928 286.514 26.7483 285.116 28.8514C283.115 31.6685 281.059 34.602 280.422 37.9643C279.143 44.7009 283.727 51.0885 284.578 57.8681C286.475 73.0379 269.7 86.499 272.876 101.467C273.724 105.144 275.595 108.505 278.274 111.161C271.731 117.09 266.162 122.84 266.162 122.84V123.183H265.128L265.232 124.408H265.128L265.697 131.053L265.128 140.729C265.128 140.729 265.128 140.833 265.128 141.029V141.078V141.342C265.128 141.342 265.128 141.446 265.128 141.642H265.165C265.354 145.188 266.107 157.938 267.001 160.627C268.053 163.744 268.586 179.141 268.586 179.141C268.586 179.141 269.749 200.9 270.813 203.779C271.878 206.657 270.367 217.111 275.893 219.579C277.51 220.82 279.424 221.614 281.444 221.882C281.163 224.172 281.34 225.832 282.252 226.353C282.642 226.582 283.085 226.709 283.537 226.72C283.162 227.276 282.829 227.86 282.54 228.465C280.346 228.236 278.191 227.728 276.126 226.953C270.189 224.503 250.488 218.991 244.766 222.868C239.043 226.744 225.273 230.26 231.632 245.864C237.991 261.469 240.953 261.861 240.953 261.861C242.91 263.283 244.627 265.009 246.039 266.975C247.948 269.847 265.74 276.418 270.189 276.418C272.08 276.389 273.971 276.483 275.85 276.7C275.85 276.7 271.022 280.938 271.664 283.4C272.307 285.862 270.195 305.57 270.195 305.57C270.195 305.57 275.091 310.506 277.185 304.033L277.258 304.131C277.65 304.663 279.767 307.07 283.752 304.033C285.382 302.795 287.114 301.697 288.929 300.75L308.22 298.019C310.231 297.893 312.248 297.878 314.261 297.976C317.321 298.227 320.326 296.414 322.217 295.012C326.214 296.53 330.706 298.19 332.842 298.796C337.175 300.021 357.09 305.368 361.748 303.696C362.716 303.311 363.577 302.697 364.257 301.907L368.7 302.048L366.619 302.465C366.619 302.465 370.671 302.532 376.179 302.606L375.946 302.74L382.856 302.679C392.967 302.771 404.326 302.802 405.819 302.465C408.157 301.944 420.306 302.312 423.886 302.465H424.884C424.884 302.465 438.232 299.801 432.724 286.248C428.489 275.837 415.471 272.811 409.693 271.978C411.321 271.654 412.723 271.403 413.653 271.256C417.686 270.643 425.52 266.969 426.157 265.713C426.793 264.458 433.36 260.814 435.056 258.738C436.751 256.661 441.592 241.945 437.571 231.062ZM327.009 261.518L326.354 261.732L325.914 261.879L325.069 262.712C324.396 262.259 323.674 261.781 322.921 261.291C324.249 261.371 325.614 261.451 327.009 261.518Z" fill="url(#paint0_linear)"/>
<path d="M366.031 196.944C366.031 196.944 375.395 221.441 380.72 218.991C386.044 216.541 384.6 206.13 385.616 203.276C386.632 200.422 387.758 178.779 387.758 178.779C387.758 178.779 388.272 163.469 389.288 160.37C390.231 157.522 390.996 143.161 391.124 140.901C391.124 140.705 391.124 140.601 391.124 140.601L390.114 122.84L384.398 121.413L371.142 126.313L369.306 136.804L368.589 140.901L368.283 142.646L366.031 196.944Z" fill="#BE6F72"/>
<path opacity="0.1" d="M369.116 192.841C369.116 192.841 378.052 200.159 380.745 200.802C383.437 201.445 385.09 207.153 385.09 207.153" fill="black"/>
<path d="M292.804 198.016C292.804 198.016 283.44 222.513 278.115 220.063C272.791 217.613 274.235 207.202 273.219 204.348C272.203 201.494 271.077 179.851 271.077 179.851C271.077 179.851 270.563 164.54 269.547 161.442C268.604 158.594 267.839 144.232 267.711 141.973C267.711 141.777 267.711 141.672 267.711 141.672L268.727 123.912L274.443 122.485L287.7 127.385L289.536 137.875L290.252 141.973L290.558 143.718L292.804 198.016Z" fill="#BE6F72"/>
<path d="M353.778 66.9197H332.878V99.5192H353.778V66.9197Z" fill="#3E373A"/>
<path opacity="0.1" d="M353.778 66.9197H332.878V99.5192H353.778V66.9197Z" fill="black"/>
<path d="M289.132 222.415C289.132 222.415 281.989 230.272 284.639 231.699C287.289 233.126 304.432 259.871 304.432 259.871C304.432 259.871 360.738 266.809 371.357 256.398C381.975 245.987 381.761 227.387 381.761 227.387C381.761 227.387 373.23 229.225 372.299 228.227C371.369 227.228 366.259 222.415 366.259 222.415C366.259 222.415 294.028 218.03 289.132 222.415Z" fill="#4B4B5B"/>
<path opacity="0.02" d="M289.132 222.415C289.132 222.415 281.989 230.272 284.639 231.699C287.289 233.126 304.432 259.871 304.432 259.871C304.432 259.871 360.738 266.809 371.357 256.398C381.975 245.987 381.761 227.387 381.761 227.387C381.761 227.387 373.23 229.225 372.299 228.227C371.369 227.228 366.259 222.415 366.259 222.415C366.259 222.415 294.028 218.03 289.132 222.415Z" fill="black"/>
<path d="M390.494 123.098L372.134 137.796L366.583 138.2L364.545 138.347L330.314 140.858L294.817 138.261L289.535 137.875L282.803 137.385L268.727 123.912C268.727 123.912 278.69 113.231 287.418 106.023C290.857 103.175 294.107 100.873 296.476 99.9662L296.88 99.8254C298.369 99.244 299.699 98.3162 300.76 97.1185C307.651 90.0082 314.022 72.4622 314.022 72.4622C314.022 72.4622 344.421 56.7474 340.749 77.3616C337.077 97.9759 354.416 92.8805 354.416 92.8805L360.132 95.4894L362.39 96.5244L368.149 99.164L381.143 105.129C391.339 109.826 390.494 123.098 390.494 123.098Z" fill="#BE6F72"/>
<path opacity="0.1" d="M328.888 89.2488C343.987 89.2488 356.227 77.0006 356.227 61.8917C356.227 46.7828 343.987 34.5347 328.888 34.5347C313.789 34.5347 301.549 46.7828 301.549 61.8917C301.549 77.0006 313.789 89.2488 328.888 89.2488Z" fill="black"/>
<path opacity="0.1" d="M390.538 142.585H267.711C267.711 142.389 267.711 142.285 267.711 142.285L268.727 124.525C268.727 124.525 278.691 113.844 287.418 106.636L364.533 103.573L368.119 99.7886L381.112 105.754C391.315 110.445 390.495 123.716 390.495 123.716C390.495 123.716 391.89 139.094 390.538 142.585Z" fill="black"/>
<path d="M390.538 141.973H267.711C267.711 141.777 267.711 141.672 267.711 141.672L268.727 123.912C268.727 123.912 278.691 113.231 287.418 106.023L364.533 102.961L368.119 99.1762L381.112 105.141C391.315 109.832 390.495 123.104 390.495 123.104C390.495 123.104 391.89 138.482 390.538 141.973Z" fill="#E7C7CA"/>
<path opacity="0.1" d="M309.199 92.1701C309.199 92.1701 328.576 116.875 354.385 91.6617C380.194 66.4482 357.243 147.901 357.243 147.901L301.549 154.515L309.199 92.1701Z" fill="black"/>
<path d="M309.199 93.3949C309.199 93.3949 328.576 118.1 354.385 92.8866C380.194 67.673 357.243 149.126 357.243 149.126L301.549 155.74L309.199 93.3949Z" fill="#E7C7CA"/>
<path opacity="0.1" d="M362.359 97.7309L364.41 129.02L366.607 139.431L368.284 147.392C368.284 147.392 372.568 208.635 371.344 211.697C370.12 214.759 371.956 217.209 372.213 218.838C372.47 220.467 371.956 224.558 372.158 226.395C372.36 228.233 372.158 229.047 367.47 228.392C362.782 227.737 356.245 226.598 356.245 226.598C356.245 226.598 339.721 227.822 334.01 225.783C328.3 223.744 317.486 223.737 317.486 223.737C317.486 223.737 301.163 224.148 295.863 223.535C290.563 222.923 287.699 230.07 284.235 228.024C280.771 225.979 288.311 206.185 290.759 200.465C293.207 194.745 287.497 180.255 287.497 180.255L294.841 139.486L296.475 130.245V101.191L296.879 101.05C298.369 100.469 299.699 99.541 300.759 98.3433L302.595 127.581L360.125 129.626V96.7204" fill="black"/>
<path d="M362.359 96.506L364.41 127.795L366.607 138.206L368.284 146.168C368.284 146.168 372.568 207.41 371.344 210.472C370.12 213.534 371.956 215.984 372.213 217.613C372.47 219.242 371.956 223.333 372.158 225.171C372.36 227.008 372.158 227.822 367.47 227.167C362.782 226.512 356.245 225.373 356.245 225.373C356.245 225.373 339.721 226.597 334.01 224.558C328.3 222.519 317.486 222.513 317.486 222.513C317.486 222.513 301.163 222.923 295.863 222.31C290.563 221.698 287.699 228.845 284.235 226.8C280.771 224.754 288.311 204.96 290.759 199.24C293.207 193.52 287.497 179.03 287.497 179.03L294.841 138.261L296.475 129.02V99.9662L296.879 99.8254C298.369 99.244 299.699 98.3161 300.759 97.1184L302.595 126.356L360.125 128.401V95.4955" fill="#E7C7CA"/>
<path opacity="0.1" d="M368.975 31.2092C368.626 29.9292 368.143 28.6003 367.139 27.7429C366.181 27.0542 365.074 26.601 363.908 26.42C361.116 25.6855 358.278 25.1412 355.413 24.791C355.004 23.4311 354.384 22.1437 353.577 20.9756C347.579 12.4996 338.705 4.50744 328.264 2.70079C322.798 1.75153 316.464 2.6028 312.963 6.91427C311.041 9.28436 310.215 12.4261 308.275 14.7533C304.536 19.273 297.785 19.8303 293.072 23.3273C290.557 25.1646 288.733 27.8286 286.952 30.413C285.024 33.2118 283.041 36.127 282.429 39.4708C281.205 46.1524 285.618 52.5216 286.432 59.2644C288.268 74.3484 272.111 87.73 275.165 102.612C276.946 111.29 284.957 117.402 293.244 120.501C296.163 121.597 299.499 122.687 300.863 125.492C301.475 126.717 301.58 128.132 302.155 129.369C304.089 133.497 310.448 133.656 313.863 130.649C317.278 127.642 318.355 122.779 318.759 118.241C320.399 98.4229 312.467 78.8437 313.392 58.9766C313.667 52.9687 315.356 46.1524 320.736 43.4332C327.976 39.7587 336.685 45.8829 344.654 44.7132C348.424 53.8943 349.225 64.0271 346.943 73.687C345.676 78.9723 343.485 84.0983 343.326 89.5489C343.087 97.8472 347.561 105.429 351.429 112.766C352.259 114.138 352.814 115.658 353.063 117.243C353.124 118.85 352.825 120.451 352.188 121.928C350.003 127.813 346.233 133.276 345.804 139.541C345.679 140.272 345.843 141.024 346.263 141.636C346.694 142.044 347.251 142.294 347.842 142.346C354.452 143.479 360.168 137.618 363.394 131.733C366.99 125.232 369.085 118.009 369.526 110.592C370.193 98.1228 365.725 85.8559 366.001 73.3747C366.319 59.1848 372.727 44.8969 368.975 31.2092Z" fill="black"/>
<path d="M369.588 30.5968C369.239 29.3168 368.755 27.9878 367.752 27.1304C366.793 26.4418 365.686 25.9886 364.52 25.8076C361.728 25.0731 358.89 24.5288 356.025 24.1786C355.616 22.8187 354.996 21.5313 354.189 20.3631C348.191 11.8872 339.317 3.89502 328.876 2.08836C323.411 1.1391 317.076 1.99037 313.575 6.30185C311.654 8.67194 310.827 11.8137 308.887 14.1409C305.148 18.6606 298.397 19.2179 293.685 22.7149C291.169 24.5521 289.345 27.2162 287.564 29.8006C285.637 32.5994 283.654 35.5145 283.042 38.8584C281.818 45.54 286.23 51.9092 287.044 58.652C288.88 73.736 272.723 87.1175 275.777 101.999C277.558 110.678 285.569 116.79 293.856 119.888C296.775 120.985 300.111 122.075 301.476 124.88C302.088 126.105 302.192 127.519 302.767 128.756C304.701 132.884 311.06 133.043 314.475 130.036C317.89 127.029 318.967 122.167 319.371 117.629C321.011 97.8105 313.08 78.2312 314.004 58.3641C314.279 52.3562 315.968 45.5399 321.348 42.8208C328.588 39.1462 337.297 45.2705 345.266 44.1007C349.037 53.2819 349.837 63.4147 347.555 73.0746C346.288 78.3598 344.097 83.4858 343.938 88.9364C343.699 97.2348 348.173 104.817 352.041 112.153C352.871 113.525 353.426 115.046 353.675 116.63C353.736 118.238 353.437 119.838 352.8 121.315C350.615 127.201 346.845 132.664 346.416 138.929C346.291 139.66 346.456 140.412 346.875 141.023C347.307 141.431 347.863 141.682 348.454 141.734C355.064 142.867 360.781 137.006 364.006 131.12C367.602 124.62 369.697 117.396 370.138 109.979C370.805 97.5104 366.338 85.2435 366.613 72.7623C366.931 58.5724 373.339 44.2845 369.588 30.5968Z" fill="#3E373A"/>
<path d="M356.068 301.76L380.347 302.538L376.865 284.521L358.266 286.291L356.068 301.76Z" fill="#C3C7D9"/>
<path d="M431.297 259.056C429.663 261.095 423.341 264.77 422.729 265.995C422.117 267.22 414.571 270.894 410.691 271.507C406.81 272.119 394.576 274.777 392.33 276.204C390.72 277.233 377.801 280.491 369.312 282.298C367.013 282.842 364.685 283.261 362.341 283.553C358.669 283.755 318.483 270.08 318.483 270.08L326.232 262.118L326.66 261.971C328.851 261.23 338.974 257.807 344.592 256.178C350.921 254.34 358.265 246.789 358.265 246.789C358.265 246.789 369.073 243.115 370.505 242.704C371.937 242.294 366.833 228.416 366.833 228.416C366.833 228.416 390.292 225.158 399.472 222.396C408.653 219.634 429.871 220.657 433.745 231.479C437.619 242.3 432.956 257.017 431.297 259.056Z" fill="#4B4B5B"/>
<path d="M324.396 293.554C324.396 293.554 319.708 298.453 315.013 298.049C310.319 297.645 293.905 299.274 293.905 299.274C290.93 300.461 288.145 302.077 285.636 304.069C281.799 307.095 279.761 304.682 279.382 304.167L279.314 304.069C277.27 310.506 272.582 305.6 272.582 305.6C272.582 305.6 274.62 286.003 273.996 283.553C273.372 281.103 278.029 276.896 278.029 276.896L283.537 275.494L297.491 271.917L317.486 278.856L324.396 293.554Z" fill="#E7C7CA"/>
<path opacity="0.1" d="M283.513 275.494L279.382 304.167L279.314 304.069C277.27 310.506 272.582 305.6 272.582 305.6C272.582 305.6 274.62 286.003 273.996 283.553C273.372 281.103 278.029 276.896 278.029 276.896L283.513 275.494Z" fill="black"/>
<path opacity="0.1" d="M312.388 193.931C312.388 193.931 323.196 197.605 332.584 193.931H312.388Z" fill="black"/>
<path opacity="0.1" d="M349.287 200.876C349.287 200.876 353.773 203.117 357.243 200.876H349.287Z" fill="black"/>
<path opacity="0.1" d="M349.287 206.191C349.287 206.191 356.833 207.202 358.266 205.163L349.287 206.191Z" fill="black"/>
<path opacity="0.1" d="M346.839 217.613C346.839 217.613 361.013 215.776 364.532 213.326L346.839 217.613Z" fill="black"/>
<path opacity="0.1" d="M303.587 213.326C303.587 213.326 311.543 217.815 317.461 217.613L303.587 213.326Z" fill="black"/>
<path opacity="0.1" d="M369.306 282.298C367.007 282.842 364.68 283.261 362.335 283.553C358.663 283.755 318.478 270.08 318.478 270.08L326.226 262.118L326.654 261.971C327.878 262.835 328.882 263.576 329.598 264.139C332.97 266.797 336.226 263.325 337.45 263.325C338.674 263.325 349.281 272.101 349.281 272.101C349.281 272.101 359.073 274.348 360.707 276.388C362.341 278.427 368.051 278.023 369.067 279.45C369.373 279.891 369.41 280.975 369.306 282.298Z" fill="black"/>
<path d="M293.904 229.249C293.904 229.249 284.002 229.819 278.292 227.412C272.582 225.005 253.609 219.45 248.101 223.352C242.593 227.253 229.33 230.701 235.45 246.22C241.571 261.738 244.429 262.143 244.429 262.143C246.322 263.564 247.975 265.28 249.325 267.226C251.161 270.086 268.298 276.614 272.582 276.614C276.866 276.614 284.412 276.614 295.018 283.963C305.625 291.312 315.215 292.133 315.215 292.133C315.215 292.133 328.68 297.645 332.872 298.87C337.064 300.095 356.221 305.398 360.713 303.769C365.205 302.14 368.057 291.925 368.057 291.925C368.057 291.925 370.095 282.739 369.073 281.312C368.051 279.885 362.341 280.289 360.713 278.249C359.085 276.21 349.286 273.962 349.286 273.962C349.286 273.962 338.704 265.18 337.48 265.18C336.256 265.18 333 268.647 329.628 265.995C322.911 261.016 315.853 256.514 308.507 252.521C300.759 248.437 293.904 229.249 293.904 229.249Z" fill="#4B4B5B"/>
<path opacity="0.1" d="M273.996 235.171C275.759 234.811 277.582 234.863 279.322 235.323C281.062 235.783 282.672 236.638 284.027 237.823C288.923 241.908 305.399 250.108 305.399 250.108" fill="black"/>
<path opacity="0.1" d="M396.413 234.914C396.413 234.914 374.582 238.221 370.506 242.71L396.413 234.914Z" fill="black"/>
<path d="M421.505 302.538H420.544C417.093 302.416 405.397 302.048 403.145 302.538C400.495 303.151 365.401 302.538 365.401 302.538L372.262 301.111C372.262 301.111 369.716 292.182 371.332 291.441C371.332 291.441 362.152 285.39 369.073 281.305C375.995 277.221 383.456 278.941 383.456 278.941L400.831 273.05L404.167 271.917C404.167 271.917 423.751 272.94 429.052 286.413C434.352 299.886 421.505 302.538 421.505 302.538Z" fill="#E7C7CA"/>
<path opacity="0.1" d="M421.505 302.538H420.544C426.242 297.835 439.131 283.516 400.831 273.081L404.167 271.948C404.167 271.948 423.751 272.97 429.051 286.444C434.351 299.917 421.505 302.538 421.505 302.538Z" fill="black"/>
<path d="M385.5 286.664C386.091 286.664 386.571 286.184 386.571 285.592C386.571 285.001 386.091 284.521 385.5 284.521C384.908 284.521 384.429 285.001 384.429 285.592C384.429 286.184 384.908 286.664 385.5 286.664Z" fill="#4B4B5B"/>
<path d="M379.276 288.434C379.868 288.434 380.347 287.954 380.347 287.362C380.347 286.77 379.868 286.291 379.276 286.291C378.685 286.291 378.205 286.77 378.205 287.362C378.205 287.954 378.685 288.434 379.276 288.434Z" fill="#4B4B5B"/>
<g opacity="0.1">
<path opacity="0.1" d="M348.95 60.8812C349.188 54.145 347.99 47.4354 345.437 41.1979C337.481 42.386 328.766 36.2433 321.519 39.9179C316.158 42.6371 314.475 49.4534 314.175 55.4613C314.102 57.0474 314.09 58.6336 314.12 60.2198C314.12 59.6564 314.12 59.0868 314.175 58.5234C314.457 52.5155 316.14 45.6992 321.519 42.98C328.766 39.3055 337.469 45.4297 345.437 44.26C347.599 49.5434 348.789 55.1743 348.95 60.8812Z" fill="black"/>
<path opacity="0.1" d="M287.295 59.7605C287.4 58.426 287.374 57.0845 287.216 55.7552C286.567 50.3659 283.623 45.2154 283.091 39.9608C282.405 46.2994 286.439 52.3869 287.216 58.8174C287.295 59.1481 287.295 59.442 287.295 59.7605Z" fill="black"/>
<path opacity="0.1" d="M319.543 114.72C319.163 119.264 318.092 124.12 314.647 127.133C311.201 130.147 304.854 129.981 302.939 125.853C302.327 124.629 302.235 123.202 301.641 121.977C300.282 119.172 296.941 118.082 294.021 116.986C285.729 113.881 277.729 107.799 275.948 99.0966C275.789 98.3082 275.681 97.5104 275.624 96.7081C275.474 98.5312 275.583 100.366 275.948 102.159C277.729 110.837 285.741 116.943 294.021 120.048C296.941 121.144 300.282 122.234 301.641 125.039C302.253 126.264 302.357 127.678 302.939 128.916C304.866 133.043 311.225 133.203 314.647 130.196C318.068 127.189 319.133 122.326 319.543 117.782C319.729 115.39 319.792 112.99 319.732 110.592C319.732 111.982 319.653 113.354 319.543 114.72Z" fill="black"/>
<path opacity="0.1" d="M366.815 69.8594C366.815 70.7474 366.815 71.6293 366.815 72.5112C367.158 61.1201 371.332 49.6677 370.922 38.5154C370.604 48.8287 367.048 59.3747 366.815 69.8594Z" fill="black"/>
<path opacity="0.1" d="M353.681 115.938C353.832 115.212 353.879 114.467 353.822 113.727C353.575 112.142 353.02 110.621 352.188 109.251C348.65 102.514 344.617 95.618 344.14 88.1403C344.14 88.4587 344.097 88.7527 344.091 89.0957C343.846 97.3879 348.32 104.976 352.188 112.313C352.845 113.449 353.347 114.668 353.681 115.938Z" fill="black"/>
<path opacity="0.1" d="M370.334 107.077C369.877 114.496 367.767 121.72 364.159 128.217C360.927 134.103 355.217 139.964 348.601 138.831C348.008 138.78 347.451 138.527 347.022 138.114C346.898 137.974 346.8 137.812 346.734 137.637C346.661 138.114 346.6 138.598 346.563 139.088C346.437 139.817 346.601 140.567 347.022 141.176C347.451 141.589 348.008 141.842 348.601 141.893C355.217 143.026 360.927 137.165 364.159 131.28C367.767 124.782 369.877 117.558 370.334 110.139C370.407 108.706 370.414 107.279 370.371 105.852C370.358 106.262 370.358 106.666 370.334 107.077Z" fill="black"/>
</g>
<path opacity="0.1" d="M371.332 291.441C371.332 291.441 386.822 297.945 397.037 283.553" stroke="black" stroke-miterlimit="10"/>
<path opacity="0.1" d="M374.38 302.808C374.38 302.808 387.03 294.577 403.145 302.538" stroke="black" stroke-miterlimit="10"/>
<path opacity="0.1" d="M289.7 300.94C289.7 300.94 295.013 288.948 309.199 298.092" stroke="black" stroke-miterlimit="10"/>
<path opacity="0.1" d="M272.479 123.606L283.311 113.807C283.311 113.807 325.314 111.051 327.052 125.339C327.052 125.339 341.943 108.399 373.26 112.172L386.51 122.73L349.887 138.812L314.298 151.165L288.085 139.425L272.479 123.606Z" fill="black"/>
<path d="M272.479 124.218L283.311 114.419C283.311 114.419 325.314 111.664 327.052 125.951C327.052 125.951 341.943 109.012 373.26 112.784L386.51 123.343L349.887 139.425L314.298 151.777L288.085 140.037L272.479 124.218Z" fill="#D5D6DB"/>
<path opacity="0.1" d="M267.686 125.443L272.478 182.809L323.275 185.363L321.072 128.242L321.029 127.28L267.686 125.443Z" fill="black"/>
<path d="M267.686 124.218L272.478 181.584L323.275 184.138L321.072 127.017L321.029 126.056L267.686 124.218Z" fill="#6C63FF"/>
<path opacity="0.1" d="M388.836 124.218L336.435 132.082V189.705L387.642 182.301L388.836 124.218Z" fill="black"/>
<path d="M388.836 122.993L336.435 130.857V188.48L387.642 181.076L388.836 122.993Z" fill="#6C63FF"/>
<path opacity="0.3" d="M376.479 137.055L348.173 140.203L348.791 149.854L376.461 146.829L376.479 137.055Z" fill="white"/>
<path d="M275.232 212.303L278.115 220.063C278.115 220.063 282.399 223.737 287.087 221.9C291.775 220.063 295.863 219.15 297.901 217.362C299.939 215.574 302.797 206.59 302.797 206.59C302.797 206.59 305.656 196.791 308.508 194.341C311.36 191.891 318.912 158.141 308.508 161.442C298.103 164.743 290.147 195.364 290.147 195.364C290.147 195.364 288.311 197.605 285.661 197.813C283.011 198.022 277.705 197.403 276.682 199.651C275.66 201.898 272.172 207.814 275.232 212.303Z" fill="#BE6F72"/>
<path opacity="0.1" d="M336.434 132.076C333.751 132.681 330.964 132.649 328.296 131.983C325.627 131.318 323.152 130.036 321.066 128.242L323.276 185.357C323.276 185.357 328.478 190.991 336.434 189.705V132.076Z" fill="black"/>
<path d="M336.434 130.851C333.751 131.456 330.964 131.424 328.296 130.758C325.627 130.093 323.152 128.811 321.066 127.017L323.276 184.132C323.276 184.132 328.478 189.766 336.434 188.48V130.851Z" fill="#6C63FF"/>
<path opacity="0.1" d="M336.434 130.851C333.751 131.456 330.964 131.424 328.296 130.758C325.627 130.093 323.152 128.811 321.066 127.017L323.276 184.132C323.276 184.132 328.478 189.766 336.434 188.48V130.851Z" fill="black"/>
<path opacity="0.1" d="M337.658 124.414C337.658 124.414 358.975 117.892 364.532 118.811L337.658 124.414Z" fill="black"/>
<path opacity="0.1" d="M313.814 121.566C313.814 121.566 293.152 116.667 289.7 118.057L313.814 121.566Z" fill="black"/>
<path opacity="0.1" d="M351.099 125.229C351.099 125.229 365.353 119.999 370.506 122.485L351.099 125.229Z" fill="black"/>
<path opacity="0.1" d="M343.919 256.429C346.128 254.769 348.479 253.308 350.945 252.062C354.617 250.292 361.349 245.699 361.349 245.699" fill="black"/>
<path opacity="0.1" d="M289.7 193.931C289.7 193.931 280.759 201.249 278.072 201.892C275.385 202.535 273.727 208.243 273.727 208.243" fill="black"/>
<path d="M383.578 211.213L380.726 218.991C380.726 218.991 376.442 222.666 371.748 220.828C367.054 218.991 362.978 218.079 360.933 216.29C358.889 214.502 356.037 205.518 356.037 205.518C356.037 205.518 353.185 195.719 350.327 193.269C347.469 190.82 339.923 157.069 350.327 160.37C360.731 163.671 368.688 194.292 368.688 194.292C368.688 194.292 370.524 196.534 373.174 196.742C375.824 196.95 381.13 196.331 382.152 198.579C383.174 200.827 386.638 206.743 383.578 211.213Z" fill="#BE6F72"/>
<path opacity="0.1" d="M378.578 196.907C378.578 196.907 384.423 200.667 384.398 205.163L378.578 196.907Z" fill="black"/>
<path d="M328.985 87.9076C344.084 87.9076 356.324 75.6594 356.324 60.5505C356.324 45.4416 344.084 33.1935 328.985 33.1935C313.887 33.1935 301.646 45.4416 301.646 60.5505C301.646 75.6594 313.887 87.9076 328.985 87.9076Z" fill="#BE6F72"/>
<path d="M311.819 53.2075C315.136 52.687 318.043 50.7578 321.213 49.6493C328.306 47.1568 336.153 48.8654 343.332 51.113C346.086 51.9766 348.883 52.9503 351.771 52.9503C354.66 52.9503 357.726 51.7683 359.201 49.2758C360.56 46.9853 360.297 44.0089 359.152 41.6021C358.008 39.1952 356.092 37.26 354.158 35.4349C347.793 29.4209 339.898 23.7989 331.165 24.4113C327.652 24.6624 324.292 25.9179 321.06 27.3081C316.991 29.0627 313.03 31.0586 309.199 33.2853C306.255 34.994 300.802 37.2783 299.107 40.4017C295.251 47.4385 305.821 54.1507 311.819 53.2075Z" fill="#3E373A"/>
<path opacity="0.1" d="M359.202 46.7036C357.727 49.1962 354.661 50.3781 351.772 50.3781C348.883 50.3781 346.086 49.4411 343.326 48.5776C336.147 46.33 328.307 44.6152 321.207 47.1139C318.043 48.2224 315.13 50.176 311.813 50.666C306.978 51.4254 299.193 47.2119 298.348 41.8532C297.4 48.0448 306.427 53.3484 311.813 52.5033C315.13 51.9827 318.043 50.0536 321.207 48.9512C328.307 46.4525 336.147 48.1673 343.326 50.4149C346.086 51.2784 348.877 52.2522 351.772 52.2154C354.667 52.1787 357.727 51.0396 359.202 48.5409C359.966 47.1815 360.267 45.6098 360.059 44.064C359.963 44.9947 359.671 45.8944 359.202 46.7036Z" fill="black"/>
<path d="M581.065 378.608C581.065 378.608 584.695 383.354 579.389 390.526C574.082 397.697 569.713 403.748 571.475 408.218C571.475 408.218 579.48 394.904 585.992 394.714C592.504 394.525 588.22 386.612 581.065 378.608Z" fill="#6C63FF"/>
<path opacity="0.1" d="M581.065 378.608C581.381 379.066 581.631 379.567 581.806 380.096C588.159 387.567 591.549 394.543 585.435 394.714C579.743 394.88 572.919 405.064 571.285 407.631C571.337 407.838 571.401 408.042 571.475 408.243C571.475 408.243 579.48 394.929 585.992 394.739C592.504 394.549 588.22 386.612 581.065 378.608Z" fill="black"/>
<path d="M587.797 384.658C587.797 386.33 587.608 387.684 587.381 387.684C587.155 387.684 586.959 386.33 586.959 384.658C586.959 382.986 587.192 383.777 587.424 383.777C587.657 383.777 587.797 382.986 587.797 384.658Z" fill="#FFD037"/>
<path d="M590.117 386.655C588.655 387.451 587.376 387.935 587.265 387.733C587.155 387.531 588.251 386.716 589.714 385.896C591.176 385.075 590.601 385.675 590.711 385.896C590.821 386.116 591.586 385.853 590.117 386.655Z" fill="#FFD037"/>
<path d="M561.885 378.608C561.885 378.608 558.256 383.354 563.562 390.526C568.868 397.697 573.238 403.748 571.469 408.218C571.469 408.218 563.47 394.904 556.952 394.714C550.434 394.525 554.749 386.612 561.885 378.608Z" fill="#6C63FF"/>
<path opacity="0.1" d="M561.885 378.608C561.569 379.066 561.32 379.567 561.145 380.096C554.792 387.567 551.401 394.543 557.515 394.714C563.201 394.88 570.031 405.064 571.665 407.631C571.614 407.839 571.548 408.043 571.469 408.243C571.469 408.243 563.47 394.929 556.952 394.739C550.434 394.549 554.749 386.612 561.885 378.608Z" fill="black"/>
<path d="M555.14 384.658C555.14 386.33 555.323 387.684 555.556 387.684C555.788 387.684 555.978 386.33 555.978 384.658C555.978 382.986 555.739 383.777 555.513 383.777C555.287 383.777 555.14 382.986 555.14 384.658Z" fill="#FFD037"/>
<path d="M552.827 386.655C554.29 387.451 555.569 387.935 555.679 387.733C555.789 387.531 554.694 386.716 553.231 385.896C551.768 385.075 552.344 385.675 552.234 385.896C552.123 386.116 551.358 385.853 552.827 386.655Z" fill="#FFD037"/>
<path opacity="0.1" d="M571.475 444.548C592.431 444.548 609.42 441.94 609.42 438.723C609.42 435.507 592.431 432.899 571.475 432.899C550.518 432.899 533.529 435.507 533.529 438.723C533.529 441.94 550.518 444.548 571.475 444.548Z" fill="#6C63FF"/>
<path d="M591.004 401.819L590.821 403.301L590.564 405.395L590.46 406.271L590.203 408.365L590.093 409.241L589.842 411.33L586.934 435.153C586.677 437.278 583.207 438.938 579.015 438.938H563.929C559.736 438.938 556.272 437.278 556.009 435.153L553.102 411.33L552.845 409.241L552.741 408.365L552.484 406.271L552.374 405.395L552.123 403.301L551.939 401.819C551.798 400.594 553.671 399.602 556.046 399.602H586.904C589.272 399.602 591.151 400.612 591.004 401.819Z" fill="#65617D"/>
<path d="M590.821 403.301L590.57 405.395H552.38L552.123 403.301H590.821Z" fill="#9D9CB5"/>
<path d="M590.459 406.271L590.208 408.365H552.74L552.483 406.271H590.459Z" fill="#9D9CB5"/>
<path d="M590.099 409.241L589.842 411.336H553.102L552.852 409.241H590.099Z" fill="#9D9CB5"/>
</g>
<defs>
<linearGradient id="paint0_linear" x1="334.555" y1="307.389" x2="334.555" y2="-8.93765e-06" gradientUnits="userSpaceOnUse">
<stop stop-color="#808080" stop-opacity="0.25"/>
<stop offset="0.54" stop-color="#808080" stop-opacity="0.12"/>
<stop offset="1" stop-color="#808080" stop-opacity="0.1"/>
</linearGradient>
<clipPath id="clip0">
<rect width="626" height="498" fill="white"/>
</clipPath>
</defs>
</svg>
