<svg width="563" height="456" viewBox="0 0 563 456" fill="none" xmlns="http://www.w3.org/2000/svg">
<path d="M89.4054 0L52.1776 72.5989H59.6926V131.801H21.8191L0 174.35L270.355 312.935L359.761 138.586L89.4054 0Z" fill="#F2F2F2"/>
<path d="M496.033 47.2266H81.5449V255.137H496.033V47.2266Z" fill="#3F3D56"/>
<path opacity="0.3" d="M445.632 121.933H139.7V122.638H445.632V121.933Z" fill="#6C63FF"/>
<path opacity="0.3" d="M445.984 139.553H140.053V140.258H445.984V139.553Z" fill="#6C63FF"/>
<path opacity="0.3" d="M445.984 174.792H140.053V175.497H445.984V174.792Z" fill="#6C63FF"/>
<path opacity="0.3" d="M445.984 190.297H140.053V191.002H445.984V190.297Z" fill="#6C63FF"/>
<path opacity="0.3" d="M445.984 157.172H140.053V157.877H445.984V157.172Z" fill="#6C63FF"/>
<path d="M399.46 456C471.872 456 530.574 450.636 530.574 444.019C530.574 437.402 471.872 432.037 399.46 432.037C327.048 432.037 268.347 437.402 268.347 444.019C268.347 450.636 327.048 456 399.46 456Z" fill="#3F3D56"/>
<path d="M148.54 190.808L147.567 189.787L193.105 146.392L233.247 175.261L265.709 139.278L279.944 151.374L318.664 128.146L361.673 157.049L429.176 118.66L429.873 119.885L361.611 158.706L318.621 129.816L279.801 153.103L265.839 141.238L233.449 177.142L193.231 148.219L148.54 190.808Z" fill="#6C63FF"/>
<path d="M279.679 419.942C282.992 432.187 294.34 439.77 294.34 439.77C294.34 439.77 300.317 427.501 297.004 415.256C293.691 403.011 282.343 395.428 282.343 395.428C282.343 395.428 276.366 407.697 279.679 419.942Z" fill="#3F3D56"/>
<path d="M284.546 417.31C293.637 426.159 294.748 439.76 294.748 439.76C294.748 439.76 281.119 439.016 272.028 430.168C262.937 421.32 261.826 407.718 261.826 407.718C261.826 407.718 275.455 408.462 284.546 417.31Z" fill="#6C63FF"/>
<path opacity="0.4" d="M539.385 61.3221C552.427 61.3221 563 50.7514 563 37.7119C563 24.6723 552.427 14.1017 539.385 14.1017C526.343 14.1017 515.771 24.6723 515.771 37.7119C515.771 50.7514 526.343 61.3221 539.385 61.3221Z" fill="#6C63FF"/>
<path opacity="0.4" d="M495.681 65.5508C504.83 65.5508 512.246 58.1355 512.246 48.9884C512.246 39.8413 504.83 32.426 495.681 32.426C486.532 32.426 479.115 39.8413 479.115 48.9884C479.115 58.1355 486.532 65.5508 495.681 65.5508Z" fill="#6C63FF"/>
<path opacity="0.4" d="M475.239 361.559C480.106 361.559 484.051 357.615 484.051 352.749C484.051 347.884 480.106 343.94 475.239 343.94C470.373 343.94 466.428 347.884 466.428 352.749C466.428 357.615 470.373 361.559 475.239 361.559Z" fill="#6C63FF"/>
<path opacity="0.4" d="M325.092 405.256C328.791 405.256 331.789 402.258 331.789 398.56C331.789 394.863 328.791 391.865 325.092 391.865C321.394 391.865 318.396 394.863 318.396 398.56C318.396 402.258 321.394 405.256 325.092 405.256Z" fill="#6C63FF"/>
<path opacity="0.4" d="M302.535 318.568C307.401 318.568 311.346 314.623 311.346 309.758C311.346 304.892 307.401 300.948 302.535 300.948C297.669 300.948 293.724 304.892 293.724 309.758C293.724 314.623 297.669 318.568 302.535 318.568Z" fill="#6C63FF"/>
<path d="M428.715 131.448C433.776 131.448 437.878 127.346 437.878 122.286C437.878 117.226 433.776 113.124 428.715 113.124C423.654 113.124 419.551 117.226 419.551 122.286C419.551 127.346 423.654 131.448 428.715 131.448Z" fill="#6C63FF"/>
<path d="M369.172 288.238L361.404 289.101C361.404 289.101 357.951 304.635 361.404 325.347C364.856 346.059 369.172 366.771 369.172 366.771C369.172 366.771 372.625 434.086 374.351 434.949C376.077 435.812 391.614 440.99 392.478 435.812C393.341 430.634 393.341 312.402 393.341 312.402L405.425 369.36C405.425 369.36 407.151 440.99 410.604 440.99C414.057 440.99 425.278 440.127 425.278 434.086C425.278 428.045 427.867 348.648 427.867 348.648C427.867 348.648 427.004 289.964 423.552 288.238C420.099 286.512 369.172 288.238 369.172 288.238Z" fill="#2F2E41"/>
<path d="M376.077 432.36C376.077 432.36 368.309 431.497 366.583 432.36C364.856 433.223 362.267 439.264 366.583 442.716C370.898 446.168 382.12 451.346 385.572 451.346C387.967 451.24 390.315 450.653 392.478 449.62L390.751 434.949L376.077 432.36Z" fill="#2F2E41"/>
<path d="M410.604 436.675L411.468 448.757C411.468 448.757 422.689 450.483 423.552 448.757C424.415 447.031 433.047 442.716 433.91 441.853C434.773 440.99 435.636 431.497 430.457 430.634C425.278 429.771 423.552 432.36 423.552 432.36L410.604 436.675Z" fill="#2F2E41"/>
<path d="M338.099 215.745C338.099 215.745 317.383 235.594 319.972 245.95C322.562 256.307 343.277 286.512 343.277 286.512C343.277 286.512 363.13 296.868 365.72 286.512C368.309 276.156 351.909 278.745 351.909 278.745L338.962 247.676L353.635 226.964L338.099 215.745Z" fill="#FFB8B8"/>
<path d="M430.663 185.547C430.663 185.547 449.534 173.414 449.097 165.078C448.661 156.743 437.284 130.46 437.284 130.46C437.284 130.46 428.384 111.96 424.846 119.52C421.308 127.081 429.496 135.129 429.496 135.129L434.781 160.911L420.418 174.611L430.663 185.547Z" fill="#FFB8B8"/>
<path d="M383.847 168.28C392.427 168.28 399.384 161.325 399.384 152.746C399.384 144.167 392.427 137.212 383.847 137.212C375.266 137.212 368.31 144.167 368.31 152.746C368.31 161.325 375.266 168.28 383.847 168.28Z" fill="#FFB8B8"/>
<path d="M376.077 162.239L378.667 178.636L397.656 175.184C397.656 175.184 396.793 158.787 396.793 157.061C396.793 155.335 376.077 162.239 376.077 162.239Z" fill="#FFB8B8"/>
<path d="M375.215 178.636C375.215 178.636 396.794 173.458 399.383 175.184C401.973 176.91 414.92 178.636 414.92 178.636L429.594 201.074L425.278 229.553C425.278 229.553 424.415 275.293 426.141 283.06C427.868 290.827 437.363 291.69 417.51 293.416C397.657 295.142 394.204 292.553 380.394 296.005C366.583 299.457 355.362 294.279 358.815 290.827C362.267 287.375 368.309 232.142 361.404 226.964C354.499 221.786 351.909 195.033 351.909 195.033C351.909 195.033 375.215 182.951 375.215 178.636Z" fill="#D0CDE1"/>
<path d="M412.33 181.225L414.92 178.636L420.099 173.458C420.099 173.458 436.93 180.794 436.067 183.383C435.204 185.972 429.593 201.074 429.593 201.074L421.825 203.663L412.33 181.225Z" fill="#D0CDE1"/>
<path d="M362.267 196.759L351.909 195.033C351.909 195.033 344.14 203.663 341.551 207.115C338.961 210.567 333.782 219.197 333.782 219.197L351.909 232.142L365.719 217.471L362.267 196.759Z" fill="#D0CDE1"/>
<path d="M389.268 133.926L389.109 132.682C388.053 132.676 387.003 132.841 386 133.17C385.897 132.42 385.962 131.656 386.192 130.934C385.172 131.196 384.201 131.618 383.313 132.185L382.686 129.914L374.057 134.166C370.959 135.692 367.694 137.369 365.923 140.333C363.949 143.638 364.293 147.885 365.642 151.49C366.991 155.095 369.234 158.285 371.031 161.689C371.714 163.152 372.534 164.548 373.48 165.856C376.737 169.916 383.077 170.736 387.67 168.286C389.417 167.444 390.81 166.011 391.601 164.24C391.936 163.142 392.199 162.023 392.387 160.89C392.955 158.57 393.614 153.782 395.499 152.314C396.328 151.668 397.972 153.809 398.66 153.014C400.426 150.97 400.055 147.819 398.958 145.351C397.905 142.872 396.675 140.472 395.276 138.17C394.684 137.245 389.249 133.777 389.268 133.926Z" fill="#2F2E41"/>
<path d="M54.0538 81.056H8.93945V126.162H54.0538V81.056Z" fill="#3F3D56"/>
</svg>
