 <svg width="208" height="220" viewBox="0 0 208 220" fill="none" xmlns="http://www.w3.org/2000/svg">
                    <path d="M154.496 203.632L60.7475 195.175C58.1686 194.948 56.2724 192.672 56.5 190.055L67.7255 65.5125C67.953 62.9336 70.2285 61.0376 72.8453 61.2651L166.594 69.7221C169.173 69.9497 171.069 72.2251 170.841 74.8419L159.616 199.385C159.388 201.964 157.113 203.86 154.496 203.632Z" fill="#BDBDBD"/>
                    <path d="M130.718 194.037L40.1927 219.75C37.6897 220.471 35.1109 219.029 34.3904 216.526L0.182765 96.231C-0.537794 93.728 0.941248 91.1492 3.40632 90.4287L93.9313 64.716C96.4343 63.9954 99.0131 65.4745 99.7337 67.9395L133.941 188.235C134.662 190.738 133.221 193.317 130.718 194.037Z" fill="#E0E0E0"/>
                    <path d="M182.105 134.496C192.762 130.363 197.995 118.265 193.824 107.495C189.652 96.7241 177.592 91.3388 166.935 95.4725C156.279 99.6063 151.045 111.704 155.217 122.475C159.388 133.283 171.448 138.668 182.105 134.496Z" fill="#FF5856"/>
                    <path d="M204.822 107.836L183.433 116.179C181.233 117.014 178.73 115.914 177.858 113.714L177.82 113.676C176.986 111.477 178.085 108.974 180.285 108.102L201.712 99.7582C203.912 98.9239 206.415 100.024 207.287 102.223L207.325 102.261C208.121 104.499 207.022 107.002 204.822 107.836Z" fill="#FF5856"/>
                    <path d="M180.171 129.566C188.135 126.457 192.041 117.431 188.893 109.391C185.746 101.351 176.796 97.3308 168.831 100.403C160.867 103.512 156.961 112.538 160.109 120.578C163.257 128.656 172.207 132.676 180.171 129.566Z" fill="#D4BFA9"/>
                    <path d="M167.542 120.692C166.821 120.009 166.29 119.061 166.594 118.037C166.897 117.013 167.845 116.71 168.831 116.672C170.803 116.634 173.268 117.127 174.52 115.117C175.658 113.335 174.672 111.287 173.837 109.618C173.382 108.784 172.851 107.798 173.117 106.812C173.382 105.788 174.558 105.598 175.468 105.674C176.644 105.788 176.644 103.93 175.43 103.816C173.041 103.588 170.993 105.219 171.183 107.684C171.296 109.049 172.017 110.187 172.624 111.363C173.041 112.197 173.534 113.6 172.7 114.359C171.827 115.155 170.234 114.814 169.173 114.814C167.921 114.776 166.632 115.003 165.721 115.914C163.939 117.696 164.546 120.427 166.214 122.019C167.125 122.854 168.414 121.526 167.542 120.692Z" fill="#EBDBCD"/>
                    <path d="M173.875 125.091C172.548 123.309 175.62 122.133 176.795 121.716C178.388 121.147 180.664 120.692 181.65 119.137C182.522 117.734 182.067 115.99 181.498 114.586C180.815 112.88 180.436 111.249 181.839 109.808C182.674 108.974 181.346 107.684 180.474 108.519C179.147 109.808 178.654 111.704 179.109 113.525C179.488 114.966 181.308 117.583 179.45 118.72C178.54 119.251 177.402 119.517 176.416 119.896C175.43 120.275 174.368 120.616 173.496 121.223C171.979 122.285 171.031 124.447 172.245 126.078C172.965 126.988 174.558 126.04 173.875 125.091Z" fill="#EBDBCD"/>
                    <g filter="url(#filter0_d)">
                    <path d="M146.684 177.616L53.3904 190.207C50.8116 190.586 48.4603 188.766 48.1189 186.187L31.3944 62.2509C31.0531 59.6721 32.8355 57.3208 35.4143 56.9795L128.67 44.3888C131.249 44.0475 133.6 45.8298 133.941 48.4086L150.666 172.345C151.045 174.886 149.263 177.275 146.684 177.616Z" fill="#F2F2F2"/>
                    </g>
                    <path d="M60.5963 98.9997C65.8298 98.9997 70.0773 94.7522 70.0773 89.5186C70.0773 84.2851 65.8298 80.0376 60.5963 80.0376C55.3627 80.0376 51.1152 84.2851 51.1152 89.5186C51.1152 94.7522 55.3627 98.9997 60.5963 98.9997Z" fill="white"/>
                    <path d="M64.8053 130.287C70.0388 130.287 74.2863 126.04 74.2863 120.806C74.2863 115.572 70.0388 111.325 64.8053 111.325C59.5717 111.325 55.3242 115.572 55.3242 120.806C55.3621 126.04 59.5717 130.287 64.8053 130.287Z" fill="white"/>
                    <path d="M69.0533 161.574C74.2868 161.574 78.5343 157.327 78.5343 152.093C78.5343 146.86 74.2868 142.612 69.0533 142.612C63.8198 142.612 59.5723 146.86 59.5723 152.093C59.5723 157.365 63.8198 161.574 69.0533 161.574Z" fill="white"/>
                    <path d="M119.833 79.7341L81.4162 84.9298C80.0888 85.0815 78.9132 84.1713 78.7235 82.8819C78.5718 81.5546 79.482 80.3789 80.7715 80.1892L119.189 74.9936C120.478 74.8419 121.692 75.752 121.881 77.0414C122.071 78.3688 121.123 79.5824 119.833 79.7341Z" fill="#BDBDBD"/>
                    <path d="M107.622 89.7839L82.5158 93.1591C81.2263 93.3108 80.0128 92.4007 79.8232 91.1112C79.6715 89.7839 80.5816 88.6082 81.871 88.4186L106.977 85.0434C108.266 84.8917 109.48 85.8018 109.669 87.0912C109.859 88.3807 108.911 89.5943 107.622 89.7839Z" fill="#BDBDBD"/>
                    <path d="M128.29 142.347L89.8732 147.543C88.5838 147.694 87.3702 146.784 87.1806 145.495C87.0289 144.205 87.9391 142.992 89.2285 142.802L127.646 137.606C128.935 137.455 130.149 138.365 130.338 139.654C130.528 140.982 129.618 142.157 128.29 142.347Z" fill="#BDBDBD"/>
                    <path d="M116.079 152.359L90.9728 155.734C89.6834 155.886 88.4698 154.976 88.2802 153.686C88.1285 152.397 89.0387 151.145 90.3281 150.994L115.434 147.618C116.723 147.467 117.937 148.377 118.126 149.666C118.316 150.956 117.406 152.207 116.079 152.359Z" fill="#BDBDBD"/>
                    <path d="M124.081 111.06L85.6642 116.255C84.3748 116.407 83.1612 115.497 82.9716 114.207C82.8199 112.918 83.7301 111.704 85.0195 111.515L123.437 106.319C124.726 106.167 125.94 107.077 126.129 108.367C126.281 109.656 125.371 110.87 124.081 111.06Z" fill="#BDBDBD"/>
                    <path d="M111.87 121.071L86.7638 124.447C85.4744 124.598 84.2608 123.688 84.0712 122.399C83.9195 121.109 84.8297 119.896 86.1191 119.706L111.225 116.331C112.514 116.179 113.728 117.089 113.917 118.379C114.069 119.668 113.159 120.882 111.87 121.071Z" fill="#BDBDBD"/>
                    <path d="M65.6023 69.8357C63.5165 74.1591 61.6961 78.5964 60.1033 83.0714C58.8139 81.4027 57.1831 80.1891 55.1732 80.1132C54.1492 80.0753 52.8219 80.3029 52.253 81.3269C52.1392 81.4786 52.0634 81.6681 51.9496 81.8578C51.3049 82.9576 51.1153 84.74 52.4426 85.4985C53.4666 86.1053 54.4526 86.4466 55.249 87.3568C56.4247 88.6841 57.259 90.3528 57.9795 91.9077C59.2689 94.6761 63.1751 94.0314 63.744 91.1492C65.0334 84.3987 66.74 77.724 68.7879 71.1631C69.3947 69.0393 66.5883 67.8258 65.6023 69.8357Z" fill="#4E53BA"/>
                    <path d="M129.656 3.46857L126.508 0.662218C125.447 -0.285886 123.778 -0.210038 122.83 0.851839L77.207 51.5185L84.1851 57.814L129.884 7.14728C130.832 6.08541 130.756 4.41667 129.656 3.46857Z" fill="#2F80ED"/>
                    <path d="M84.1473 57.814L77.1313 51.5186L71.291 63.5784L72.7321 64.9057L84.1473 57.814Z" fill="#EBDBCD"/>
                    <path d="M75.0455 58.686L75.6902 60.165L76.7142 60.6202L77.4726 61.9475L72.7321 64.8678L71.291 63.5782L73.6423 58.724L75.0455 58.686Z" fill="#2F80ED"/>
                    <defs>
                    <filter id="filter0_d" x="27.3525" y="44.3469" width="127.364" height="153.91" filterUnits="userSpaceOnUse" color-interpolation-filters="sRGB">
                    <feFlood flood-opacity="0" result="BackgroundImageFix"/>
                    <feColorMatrix in="SourceAlpha" type="matrix" values="0 0 0 0 0 0 0 0 0 0 0 0 0 0 0 0 0 0 127 0"/>
                    <feOffset dy="4"/>
                    <feGaussianBlur stdDeviation="2"/>
                    <feColorMatrix type="matrix" values="0 0 0 0 0 0 0 0 0 0 0 0 0 0 0 0 0 0 0.25 0"/>
                    <feBlend mode="normal" in2="BackgroundImageFix" result="effect1_dropShadow"/>
                    <feBlend mode="normal" in="SourceGraphic" in2="effect1_dropShadow" result="shape"/>
                    </filter>
                    </defs>
                    </svg>