<svg width="516" height="439" viewBox="0 0 516 439" fill="none" xmlns="http://www.w3.org/2000/svg">
<g clip-path="url(#clip0)">
<path opacity="0.18" d="M2.19922 331.372C-0.644228 297.116 -3.19604 261.049 11.3493 229.889C19.521 212.937 30.0513 197.226 42.6272 183.222C53.8551 170.811 71.4991 167.641 85.8256 160.149C109.035 148.005 124.577 125.212 137.348 102.358C150.119 79.5038 161.408 55.229 179.878 36.6251C200.365 15.9083 228.727 3.72834 257.708 0.765324C286.689 -2.19769 316.266 3.67977 342.987 15.3375C355.236 20.6928 367.108 27.3596 376.707 36.6737C396.855 56.2369 404.656 84.7741 415.167 110.81C420.933 125.092 427.723 138.939 435.484 152.243C442.374 164.047 452.618 174.988 458.475 187.156C464.332 199.324 467.892 211.382 475.39 223.016C482.462 234.006 490.287 244.534 496.618 255.998C511.104 282.414 517.046 312.665 513.63 342.593C511.844 357.857 507.397 373.231 497.931 385.338C487.59 398.562 472.218 406.784 456.786 413.402C393.264 440.435 322.701 446.224 255.618 429.905C231.716 424.015 208.227 415.333 183.706 413.705C158.941 412.078 134.359 417.761 109.703 420.579C85.8135 423.311 50.477 423.784 29.4307 409.989C6.79247 395.138 4.17991 355.295 2.19922 331.372Z" fill="#FDBC68"/>
<path d="M216.151 299.277C216.856 310.509 214.936 321.815 215.981 333.024C216.345 336.667 217.014 340.48 215.798 343.953C214.675 346.932 212.459 349.372 209.601 350.777C202.954 354.178 194.315 351.992 189.126 346.588C183.937 341.184 181.835 333.4 182.26 325.944C182.686 318.488 185.286 311.372 188.397 304.571C191.192 298.5 195.906 286.514 202.821 283.927C211.752 280.673 215.762 292.914 216.151 299.277Z" fill="#3E3E54"/>
<path d="M204.352 278.936C201.569 273.909 193.877 271.808 188.324 274.565C186.677 275.598 184.959 276.515 183.184 277.309C181.094 278.013 178.821 277.831 176.634 278.05C169.598 278.778 163.365 284.255 162.308 290.618C161.712 294.261 162.636 297.904 162.052 301.548C160.679 310.145 151.286 316.63 150.338 325.264C150.035 328.069 150.666 330.862 150.91 333.655C151.336 338.901 150.424 344.169 148.26 348.968C146.717 352.405 144.542 355.683 143.971 359.338C142.841 366.625 148.953 373.619 156.609 375.854C164.264 378.088 172.867 376.327 180.122 372.891C188.117 369.102 195.238 362.897 197.644 355.04C201.411 342.787 193.136 329.757 196.854 317.492C197.885 314.642 199.102 311.863 200.5 309.174C204.145 301.208 208.848 287.085 204.352 278.936Z" fill="#3E3E54"/>
<path d="M173.34 325.677C173.425 322.361 172.903 318.391 175.43 316.29C175.644 316.087 175.916 315.955 176.208 315.913C176.493 315.927 176.77 316.015 177.01 316.168C179.773 317.681 182.242 319.676 184.301 322.058C186.829 324.984 188.797 328.53 192.054 330.558C193.366 331.396 194.836 331.955 196.197 332.683C199.01 334.203 201.374 336.435 203.051 339.156C203.296 339.48 203.473 339.851 203.571 340.245C203.669 340.64 203.687 341.05 203.622 341.451C203.318 342.483 202.127 342.933 201.07 343.139C198.029 343.653 194.938 343.816 191.859 343.625C187.663 343.511 183.471 343.341 179.282 343.115C176.582 343.062 173.896 342.708 171.275 342.058C170.157 341.743 168.103 340.965 167.824 339.63C167.544 338.294 169.379 336.934 170.12 335.804C172.099 332.786 173.213 329.283 173.34 325.677Z" fill="url(#paint0_linear)"/>
<path d="M516.001 385.313H0.244141V404.221H516.001V385.313Z" fill="#FDBC68"/>
<path d="M516.001 385.313H0.244141V395.295H516.001V385.313Z" fill="url(#paint1_linear)"/>
<path d="M217.609 356.291L221.534 388.799C193.28 390.244 164.965 390.001 136.741 388.07C136.109 382.229 138.26 376.473 140.508 371.069C146.097 357.614 153.947 343.212 167.836 338.804C178.457 335.428 187.777 339.642 198.215 340.686C203.392 341.209 209.066 339.472 213.161 343.589C216.296 346.746 217.086 352.016 217.609 356.291Z" fill="#FDBC68"/>
<path d="M217.609 356.291L221.534 388.799C193.28 390.244 164.965 390.001 136.741 388.07C136.109 382.229 138.26 376.473 140.508 371.069C146.097 357.614 153.947 343.212 167.836 338.804C178.457 335.428 187.777 339.642 198.215 340.686C203.392 341.209 209.066 339.472 213.161 343.589C216.296 346.746 217.086 352.016 217.609 356.291Z" fill="url(#paint2_linear)"/>
<path d="M92.9228 337.079C96.228 337.869 99.6183 338.828 102.279 340.941C104.33 342.717 106.042 344.848 107.334 347.231C113.832 358.098 117.972 370.208 119.486 382.775C119.7 383.794 119.615 384.852 119.243 385.823C118.332 387.669 115.828 387.9 113.763 387.876L17.8875 386.844L7.06055 387.524C9.49084 376.74 16.563 340.965 31.7888 336.326C37.8904 334.798 44.1027 333.75 50.3684 333.193C56.8896 332.924 63.4208 333.013 69.9323 333.461C77.6795 334.057 85.3672 335.267 92.9228 337.079Z" fill="#FDBC68"/>
<path d="M92.9228 337.079C96.228 337.869 99.6183 338.828 102.279 340.941C104.33 342.717 106.042 344.848 107.334 347.231C113.832 358.098 117.972 370.208 119.486 382.775C119.7 383.794 119.615 384.852 119.243 385.823C118.332 387.669 115.828 387.9 113.763 387.876L17.8875 386.844L7.06055 387.524C9.49084 376.74 16.563 340.965 31.7888 336.326C37.8904 334.798 44.1027 333.75 50.3684 333.193C56.8896 332.924 63.4208 333.013 69.9323 333.461C77.6795 334.057 85.3672 335.267 92.9228 337.079Z" fill="url(#paint3_linear)"/>
<path d="M77.9285 333.971C77.9589 335.559 77.7541 337.142 77.321 338.67C75.9843 342.641 71.3667 344.948 67.2231 344.341C65.1564 343.948 63.2102 343.078 61.5393 341.8C59.8685 340.523 58.5193 338.873 57.5991 336.982C55.7995 333.197 54.9647 329.025 55.1688 324.839C55.0434 322.938 55.5241 321.046 56.5419 319.435C57.2307 318.671 58.0722 318.06 59.012 317.642C59.9519 317.224 60.9691 317.007 61.998 317.006C65.6935 316.781 69.3319 318 72.1444 320.407C73.5176 321.621 76.1909 322.617 77.005 323.928C78.0015 325.737 78.0136 331.761 77.9285 333.971Z" fill="url(#paint4_linear)"/>
<path d="M56.4688 321.572C56.4688 321.572 69.2278 341.646 73.8696 335.938C75.2297 334.271 76.2085 332.327 76.7374 330.241C77.2664 328.156 77.3327 325.981 76.9318 323.867L56.4688 321.572Z" fill="url(#paint5_linear)"/>
<path d="M102.898 335.489L95.3276 340.662C94.741 341.016 94.2089 341.454 93.748 341.961C93.096 342.906 92.6794 343.993 92.5328 345.131C90.1514 356.715 89.023 368.522 89.1669 380.347C89.0965 381.586 89.2826 382.826 89.7137 383.99C90.4064 385.343 91.5494 386.412 92.946 387.014C95.7286 388.362 98.9245 388.471 102.011 388.556L114.272 388.884C115.501 388.993 116.739 388.861 117.917 388.495C120.749 387.402 121.854 383.893 121.636 380.869C121.225 377.685 120.289 374.591 118.865 371.713L110.529 352.186C108.512 347.341 106.762 339.144 102.898 335.489Z" fill="#FDBC68"/>
<path d="M184.241 379.788C186.698 379.746 189.149 380.028 191.532 380.626C192.717 380.937 193.81 381.53 194.715 382.355C195.621 383.18 196.313 384.212 196.733 385.362C197.644 388.617 195.263 392.053 192.213 393.498C189.163 394.943 185.651 394.895 182.273 394.822L155.053 394.178C151.886 394.252 148.724 393.88 145.66 393.073C144.13 392.657 142.704 391.926 141.474 390.926C140.243 389.926 139.235 388.681 138.515 387.269C136.547 382.873 138.916 377.384 142.975 374.773C149.136 370.826 155.697 372.806 161.895 375.137C169.052 377.853 176.594 379.423 184.241 379.788Z" fill="#FDBC68"/>
<path d="M393.016 388.179C398.423 374.287 409.687 354.845 415.095 340.953C417.622 334.468 420.49 327.595 426.384 323.831C430.357 321.305 435.181 320.625 439.86 319.993L463.13 316.8C469.375 315.962 474.394 318.014 479.473 321.742C484.553 325.47 488.344 330.704 491.625 336.096C499.236 348.561 504.638 362.245 507.592 376.546C508.236 379.703 508.613 383.455 506.316 385.726C504.651 387.39 502.075 387.693 499.718 387.815C466.046 389.721 426.797 386.418 393.016 388.179Z" fill="#FDBC68"/>
<path d="M393.016 388.179C398.423 374.287 409.687 354.845 415.095 340.953C417.622 334.468 420.49 327.595 426.384 323.831C430.357 321.305 435.181 320.625 439.86 319.993L463.13 316.8C469.375 315.962 474.394 318.014 479.473 321.742C484.553 325.47 488.344 330.704 491.625 336.096C499.236 348.561 504.638 362.245 507.592 376.546C508.236 379.703 508.613 383.455 506.316 385.726C504.651 387.39 502.075 387.693 499.718 387.815C466.046 389.721 426.797 386.418 393.016 388.179Z" fill="url(#paint6_linear)"/>
<path d="M456.519 324.244C455.249 325.919 453.502 327.172 451.508 327.84C449.513 328.507 447.363 328.557 445.34 327.984C444.715 327.822 444.134 327.523 443.639 327.11C443.179 326.635 442.82 326.074 442.581 325.458C440.747 321.208 440.661 316.448 440.589 311.821C440.426 309.942 440.683 308.051 441.342 306.283C443.614 301.329 454.344 296.35 457.795 302.398C460.699 307.498 459.921 319.593 456.519 324.244Z" fill="url(#paint7_linear)"/>
<path d="M110.675 250.168C109.701 249.579 108.556 249.336 107.427 249.479C106.297 249.622 105.249 250.143 104.454 250.958C102.907 252.651 102.087 254.884 102.169 257.175C102.09 258.511 102.38 259.843 103.008 261.025C103.332 261.608 103.805 262.094 104.38 262.433C104.954 262.773 105.609 262.953 106.276 262.956C107.288 262.831 108.224 262.359 108.925 261.62C109.679 260.822 110.266 259.882 110.65 258.854C111.035 257.827 111.211 256.733 111.167 255.637C111.123 254.54 110.86 253.464 110.393 252.471C109.927 251.477 109.267 250.587 108.451 249.853" fill="white"/>
<path d="M130.603 235.56C129.133 237.758 129.388 241.207 131.697 242.591C132.814 243.188 134.08 243.449 135.342 243.344C136.828 243.294 138.3 243.04 139.717 242.591C140.151 242.396 140.631 242.328 141.102 242.397C141.515 242.574 141.881 242.844 142.171 243.186C143.267 244.122 144.69 244.584 146.127 244.471C147.564 244.358 148.897 243.68 149.833 242.585C150.769 241.49 151.232 240.068 151.119 238.632C151.006 237.196 150.327 235.864 149.231 234.928C148.928 234.685 148.551 234.394 148.6 234.005C148.636 233.802 148.728 233.613 148.867 233.459C149.552 232.404 149.807 231.128 149.581 229.891C149.356 228.653 148.665 227.549 147.652 226.804C143.277 223.768 142.402 228.079 140.507 230.447C138.052 233.544 133.155 231.795 130.603 235.56Z" fill="white"/>
<path d="M183.767 213.228C185.553 213.106 187.522 212.621 188.457 211.103C188.904 210.262 189.134 209.323 189.126 208.37C189.207 206.846 189.142 205.317 188.931 203.804C188.214 198.704 180.996 196.227 178.347 201.181C175.698 206.136 176.901 213.714 183.767 213.228Z" fill="white"/>
<path d="M228.74 233.447C228.302 233.107 227.731 233.677 227.525 234.175C226.892 235.679 226.619 237.31 226.729 238.938C226.838 240.565 227.327 242.145 228.156 243.55C228.335 243.883 228.589 244.17 228.898 244.388C229.21 244.559 229.562 244.643 229.918 244.631C230.827 244.565 231.691 244.206 232.379 243.608C233.066 243.011 233.542 242.206 233.734 241.316C233.897 240.42 233.874 239.5 233.665 238.614C233.455 237.728 233.065 236.895 232.519 236.167C231.539 234.7 230.105 233.595 228.436 233.022" fill="white"/>
<path d="M325.271 248.177C325.948 248.159 326.592 247.884 327.073 247.408C327.554 246.932 327.835 246.29 327.859 245.615C328.807 240.247 322.27 231.042 316.619 236.215C310.969 241.389 319.681 249.027 325.271 248.177Z" fill="white"/>
<path d="M379.769 203.537C380.399 202.412 380.607 201.1 380.355 199.836C380.104 198.571 379.409 197.438 378.396 196.64C377.769 196.138 377.002 195.844 376.201 195.799C375.4 195.753 374.604 195.958 373.924 196.385C372.442 197.49 372.345 199.627 372.381 201.473C370.971 200.793 369.197 202.153 369.039 203.707C369.031 204.493 369.213 205.27 369.571 205.97C369.928 206.67 370.451 207.273 371.093 207.727C371.736 208.293 372.488 208.723 373.303 208.99C374.118 209.257 374.978 209.356 375.832 209.281C376.682 209.186 377.479 208.823 378.109 208.244C378.738 207.666 379.166 206.902 379.332 206.063C379.477 204.909 379.016 203.719 379.247 202.578" fill="white"/>
<path d="M399.796 223.902C398.396 223.222 396.805 223.042 395.288 223.392C394.694 223.492 394.148 223.782 393.733 224.218C393.328 224.809 393.14 225.52 393.198 226.234C393.197 227.299 393.332 228.36 393.599 229.391C393.722 230.099 394.066 230.75 394.583 231.249C395.713 232.184 397.402 231.613 398.739 231.006C399.772 230.532 400.938 229.913 401.169 228.796C401.266 228.094 401.138 227.381 400.805 226.756C400.193 225.304 399.41 223.93 398.472 222.663" fill="white"/>
<path d="M430.564 228.152C430.002 228.97 429.733 229.954 429.801 230.944C429.87 231.934 430.271 232.872 430.941 233.605C431.239 233.946 431.616 234.209 432.04 234.37C432.464 234.531 432.921 234.585 433.371 234.528C433.907 234.358 434.383 234.039 434.744 233.609C435.106 233.179 435.338 232.655 435.413 232.099C435.647 230.695 435.349 229.254 434.575 228.059C433.802 226.864 432.61 226.001 431.232 225.639" fill="white"/>
<path d="M238.266 40.7901C233.368 44.3753 229.513 49.1998 227.099 54.7673C226.605 56.0311 225.856 57.18 224.9 58.1432C222.7 60.0619 219.383 59.4426 216.491 59.0782C211.245 58.4023 205.914 58.9311 200.904 60.6243C195.893 62.3176 191.335 65.1306 187.576 68.8495C183.817 72.5683 180.957 77.095 179.212 82.0851C177.468 87.0751 176.885 92.3971 177.509 97.646C167.241 98.0225 159.44 107.725 156.937 117.683C155.578 122.998 155.366 128.542 156.315 133.946C157.264 139.349 159.353 144.49 162.441 149.025C165.597 153.503 169.783 157.159 174.646 159.684C179.51 162.209 184.909 163.531 190.39 163.537C189.697 171.272 193.209 178.728 197.146 185.395C199.807 189.912 202.772 194.369 206.867 197.684C210.962 200.999 216.284 203.076 221.449 202.165C222.227 213.738 232.896 223.101 244.379 224.716C255.862 226.331 267.539 221.388 276.349 213.847C281.1 218.413 288.561 219.239 294.892 217.405C301.223 215.572 306.631 211.455 311.564 207.096C320.799 209.743 330.399 205.213 338.941 200.817C344.373 198.012 350.06 194.988 353.304 189.815C356.549 184.642 356.816 178.23 355.467 172.377C354.119 166.524 351.251 161.132 348.419 155.826C353.341 152.96 358.408 149.96 361.713 145.321C365.018 140.683 366.051 133.919 362.588 129.413C361.701 128.26 360.547 127.228 360.243 125.77C359.89 124.155 360.778 122.565 361.458 121.071C364.812 113.785 363.815 105.054 360.377 97.816C356.938 90.5785 351.312 84.616 345.357 79.2486C340.886 75.2291 336.098 71.416 330.52 69.1938C324.943 66.9715 318.369 66.5222 313.022 69.1938C311.528 64.5185 309.936 59.6733 306.57 56.1031C303.204 52.5329 297.517 50.6142 293.203 53.0551C294.71 52.1929 284.758 42.4173 283.749 41.7009C279.425 38.6571 274.417 36.726 269.168 36.0784C260.334 35.0705 245.8 35.6291 238.266 40.7901Z" fill="white"/>
<path d="M304.089 338.962C298.135 345.349 294.684 353.619 291.342 361.682L281.84 384.755C281.528 385.281 281.336 385.87 281.28 386.479C281.223 387.088 281.302 387.702 281.512 388.277C281.876 388.731 282.333 389.102 282.853 389.363C283.373 389.625 283.944 389.772 284.525 389.795C289.391 390.529 294.29 391.015 299.204 391.252C323.937 392.798 348.693 393.365 373.474 392.952C376.439 392.952 379.55 392.806 382.175 391.47C389.004 388.009 389.551 378.525 388.336 370.972C386.936 362.202 384.463 353.638 380.972 345.471C379.75 342.223 377.956 339.221 375.674 336.606C370.011 330.68 361.007 329.733 352.817 329.502C337.129 329.016 315.828 326.345 304.089 338.962Z" fill="#FDBC68"/>
<path d="M285.899 333.679C285.625 332.758 285.068 331.947 284.307 331.36C283.646 331.021 282.91 330.854 282.168 330.874C280.01 330.781 277.849 330.858 275.703 331.105C274.329 331.148 273.007 331.648 271.949 332.526C271.178 333.449 270.704 334.583 270.588 335.78C268.85 345.191 270.843 354.821 271.621 364.354C272.143 370.851 272.204 377.712 275.716 383.249C277.297 385.669 279.46 387.654 282.008 389.023C284.555 390.391 287.405 391.099 290.297 391.082C292.728 391.082 295.523 390.183 296.458 387.936C296.827 386.801 296.931 385.597 296.762 384.415C295.632 367.305 293.165 349.417 285.899 333.679Z" fill="#FDBC68"/>
<path d="M284.672 325.3C285.826 322.811 287.382 320.54 288.755 318.16C289.148 317.573 289.401 316.904 289.496 316.205C289.539 315.852 289.472 315.495 289.305 315.183C289.138 314.87 288.878 314.616 288.56 314.456C287.187 313.934 286.13 315.828 284.66 316.12C283.19 316.411 282.23 315.282 281.282 314.322C277.222 310.272 272.419 307.04 267.137 304.802C266.871 304.639 266.573 304.534 266.264 304.492C265.954 304.45 265.639 304.473 265.339 304.559C264.756 304.802 264.598 305.773 265.193 305.992C264.628 306.032 264.065 305.887 263.589 305.579C263.067 305.361 262.313 305.348 262.082 305.858C261.852 306.368 262.532 307.073 262.362 307.753C261.726 307.779 261.091 307.684 260.491 307.474C259.871 307.352 259.057 307.559 258.935 308.19C258.918 308.427 258.942 308.666 259.008 308.894C259.093 309.848 259.093 310.807 259.008 311.76C259.008 314.298 260.551 316.618 262.058 318.621C265.266 322.981 268.79 327.122 271.281 331.979C271.946 333.501 272.813 334.926 273.857 336.217C275.364 337.808 280.929 340.103 282.363 337.31C283.056 335.999 282.485 333.121 282.728 331.578C283.087 329.407 283.741 327.295 284.672 325.3Z" fill="url(#paint8_linear)"/>
<path d="M360.061 363.88C360.547 366.236 360.62 368.932 359.089 370.802C357.558 372.672 354.714 373.121 352.211 373.231C340.059 373.862 327.592 371.773 315.757 374.542C314.049 374.767 312.472 375.578 311.297 376.837C310.082 378.477 310.24 380.735 310.483 382.775L311.504 391.494L299.632 389.333C299.32 389.321 299.013 389.246 298.731 389.112C298.449 388.978 298.197 388.789 297.99 388.555C297.783 388.321 297.626 388.048 297.528 387.752C297.43 387.455 297.393 387.142 297.42 386.831C296.472 382.289 296.064 377.65 296.205 373.012C296.361 368.37 298.176 363.937 301.321 360.516C304.176 357.699 308.053 356.205 311.905 355.1C321.079 352.49 330.666 351.712 340.169 350.947C344.288 350.619 351.105 349.733 354.665 352.502C357.558 354.736 359.332 360.383 360.061 363.88Z" fill="url(#paint9_linear)"/>
<path d="M472.436 358.829C471.221 360.759 468.438 360.929 466.117 360.929C455.939 360.975 445.794 362.086 435.848 364.245C432.181 364.878 428.642 366.109 425.373 367.888C423.746 368.781 422.317 369.995 421.172 371.456C420.028 372.917 419.192 374.595 418.714 376.388C417.949 380.031 419.516 384.233 422.846 385.872C424.91 386.687 427.136 387.011 429.347 386.819L495.512 386.103C497.026 386.191 498.543 385.972 499.971 385.459C503.252 384.014 504.662 379.91 504.467 376.327C502.207 333.424 480.65 321.208 477.066 321.754C474.198 322.179 473.724 344.317 472.922 347.487C472.011 351.081 474.721 355.319 472.436 358.829Z" fill="#FDBC68"/>
<path d="M415.251 377.178C412.559 376.794 409.818 376.943 407.183 377.615C401.856 378.876 396.969 381.553 393.039 385.362C392.578 385.755 392.216 386.25 391.981 386.807C391.845 387.462 391.945 388.145 392.266 388.732C392.587 389.319 393.106 389.774 393.731 390.013C394.997 390.458 396.354 390.583 397.68 390.378L410.111 389.503C411.948 389.48 413.766 389.135 415.482 388.483C417.536 387.572 419.286 385.763 421.558 385.666C422.217 385.726 422.882 385.681 423.527 385.532C425.507 384.792 424.997 381.61 423.867 380.432C422.141 378.635 417.597 377.518 415.251 377.178Z" fill="url(#paint10_linear)"/>
<path d="M92.8376 296.265C92.8376 307.279 88.937 319.629 78.9606 324.317C71.7913 327.68 62.9571 326.09 56.4682 321.572C49.9794 317.055 45.617 309.987 42.9437 302.543C39.8693 293.97 38.8365 284.462 41.4247 275.73C44.013 266.999 50.5748 259.227 59.2509 256.459C83.4202 248.796 92.8619 278.062 92.8376 296.265Z" fill="url(#paint11_linear)"/>
<path d="M57.3791 272.391C58.2222 272.178 59.0377 271.869 59.8094 271.468C61.219 270.582 61.9481 268.918 63.2361 267.825C64.664 266.902 66.278 266.305 67.9631 266.077C72.3833 265.033 76.5674 263.166 80.2968 260.575C83.9422 258.038 87.3447 253.775 85.9108 249.646C85.3311 248.175 84.3605 246.891 83.1038 245.93C81.2079 244.391 78.9742 243.322 76.5854 242.811C74.1966 242.3 71.7207 242.362 69.3605 242.992C62.8959 244.813 58.4242 250.569 53.0168 254.504C46.6251 259.13 38.0218 262.008 35.1419 269.355C33.5866 273.338 34.0969 277.953 32.2742 281.827C31.3993 283.685 29.9533 285.591 30.5244 287.571C31.0469 289.331 33.064 290.497 33.1369 292.331C33.0772 293.206 32.8329 294.058 32.42 294.832C30.8282 298.815 31.6666 303.454 33.6352 307.255C35.8106 310.966 38.5349 314.328 41.7159 317.225C45.3613 320.868 50.0518 324.888 55.1919 323.952C55.4954 323.912 55.786 323.804 56.0425 323.637C57.0875 322.847 56.0425 321.208 55.1311 320.334C51.6463 316.981 49.0635 312.804 47.6215 308.19C47.3971 307.644 47.3504 307.04 47.4878 306.466C47.6933 306.041 48.0437 305.704 48.4759 305.515C48.9081 305.326 49.3937 305.297 49.8452 305.434C50.7427 305.73 51.5555 306.238 52.2148 306.915C52.7109 306.427 53.0258 305.785 53.1075 305.094C53.1893 304.403 53.033 303.704 52.6644 303.114C51.0482 300.09 48.2898 298.257 46.8681 294.929C45.6067 292.416 45.1567 289.573 45.5801 286.793C46.6372 280.369 51.0118 274.395 57.3791 272.391Z" fill="#3E3E54"/>
<path d="M90.6743 313.91C87.4519 313.684 84.2606 314.662 81.7186 316.654C80.5764 317.468 79.3855 318.755 79.8108 320.103C80.0815 320.653 80.5111 321.109 81.0441 321.412C81.577 321.715 82.1888 321.851 82.8001 321.803C84.0198 321.683 85.2507 321.761 86.4455 322.034C84.236 324.966 82.7874 328.4 82.229 332.028C81.6943 335.561 82.229 339.69 85.2061 341.742C87.3139 342.984 89.7892 343.453 92.2053 343.066C94.1391 342.958 96.0334 342.476 97.7829 341.645C99.6454 340.578 101.175 339.015 102.203 337.13C103.23 335.246 103.715 333.114 103.603 330.971C103.458 326.83 101.38 323.309 98.6699 320.309C96.2761 317.674 94.5992 314.371 90.6743 313.91Z" fill="url(#paint12_linear)"/>
<path d="M320.47 296.824C319.053 299.463 318.026 302.293 317.42 305.227C317.049 307.872 317.316 310.568 318.197 313.09C319.078 315.612 320.549 317.887 322.488 319.726C325.319 322.41 329.207 324.389 330.435 328.093C331.553 331.481 330.046 335.379 331.492 338.682C332.938 341.985 336.887 343.345 340.289 342.629C343.674 341.72 346.58 339.546 348.407 336.557C350.176 333.562 351.661 330.407 352.842 327.134C354.628 322.857 356.711 318.71 359.076 314.723C360.839 312.007 362.403 309.166 363.754 306.223C365.129 302.721 365.846 298.995 365.868 295.233C366.038 286.538 362.867 277.37 355.855 272.221C352.636 269.906 348.762 268.677 344.796 268.711C340.83 268.746 336.979 270.044 333.801 272.415C330.556 274.844 329.45 278.086 327.725 281.681C325.303 286.7 322.884 291.748 320.47 296.824Z" fill="url(#paint13_linear)"/>
<path d="M335.698 252.536C334.482 251.407 332.83 250.108 331.445 250.982C330.936 251.351 330.554 251.869 330.351 252.464C329.466 254.604 329.342 256.983 329.999 259.203C328.64 258.536 327.084 258.389 325.624 258.79C323.425 259.725 323.084 262.773 323.789 265.056C324.494 267.339 325.855 269.477 325.867 271.857C325.867 273.071 325.503 274.285 325.478 275.573C325.419 276.195 325.538 276.821 325.823 277.378C326.107 277.935 326.544 278.4 327.082 278.718C328.577 279.386 330.181 278.208 331.542 277.285C338.76 272.428 349.769 274.674 354.52 281.997C359.271 289.319 357.485 298.755 355.602 307.194C356.076 307.923 356.975 306.818 357.546 306.162C358.761 304.766 361.386 305.907 361.75 307.729C361.838 308.655 361.666 309.587 361.254 310.421C360.842 311.256 360.206 311.959 359.417 312.453C357.911 313.545 356.112 314.165 354.557 315.161C354.343 315.265 354.152 315.411 353.995 315.591C353.839 315.77 353.72 315.979 353.645 316.205C353.601 316.604 353.682 317.007 353.876 317.359C354.377 318.504 354.945 319.619 355.577 320.698C355.782 321.161 356.082 321.576 356.456 321.917C356.831 322.258 357.272 322.517 357.753 322.677C358.46 322.736 359.169 322.575 359.782 322.216C364.752 319.787 368.13 315.039 370.913 310.255C373.695 305.47 375.919 299.75 373.209 295.136C372.675 294.225 371.994 293.424 371.472 292.501C370.707 290.73 370.255 288.84 370.135 286.915C368.756 278.107 364.44 270.023 357.886 263.976C354.788 261.11 351.495 258.608 347.302 257.904C342.551 257.139 339.282 256.082 335.698 252.536Z" fill="#B7A451"/>
<path d="M426.735 293.618C426.371 298.123 427.148 303.333 430.879 305.834C433.564 307.656 437.064 307.595 440.321 307.461C444.89 307.279 449.617 307.048 453.687 305.033C459.921 301.997 463.639 295.5 466.471 289.161C468.623 284.838 470.008 280.175 470.566 275.378C470.93 270.521 469.727 265.469 466.422 261.947C464.31 259.823 461.699 258.261 458.827 257.406C438.619 250.763 427.963 277.94 426.735 293.618Z" fill="url(#paint14_linear)"/>
<path d="M440.101 250.606C440.175 248.972 440.633 247.379 441.437 245.955C442.431 244.539 443.881 243.506 445.545 243.028C450.624 241.425 456.007 243.817 460.783 246.161L473.177 252.233C475.505 252.994 477.619 254.293 479.349 256.026C481.078 257.758 482.374 259.875 483.129 262.203C483.87 263.716 484.358 265.341 484.575 267.011C484.611 269.255 484.072 271.471 483.008 273.448C482.343 275.195 481.207 276.725 479.727 277.868C481.003 278.451 481.367 280.114 481.209 281.511C480.851 283.97 479.709 286.249 477.953 288.008C476.199 289.75 474.264 291.301 472.181 292.634L468.171 295.403C467.466 295.889 466.579 296.399 465.74 296.047C465.45 295.885 465.212 295.643 465.055 295.351C464.897 295.058 464.828 294.726 464.853 294.395C464.914 293.734 465.091 293.088 465.376 292.489C467.457 287.234 468.386 281.593 468.098 275.949C468.103 274.97 467.913 274 467.539 273.095C467.104 272.329 466.551 271.636 465.898 271.043L460.114 265.251C458.68 263.677 457.046 262.297 455.254 261.146C453.554 260.174 451.651 259.611 449.696 259.502C447.741 259.392 445.787 259.739 443.989 260.515C443.187 260.867 441.753 261.802 440.842 261.559C439.627 261.231 439.955 260.077 439.882 258.887C439.715 256.126 439.788 253.355 440.101 250.606Z" fill="#3E3E54"/>
<path d="M471.038 291.784C471.132 292.534 471.073 293.295 470.864 294.022C470.655 294.748 470.301 295.425 469.823 296.01C468.836 297.329 467.515 298.36 465.995 298.997C465.312 299.356 464.519 299.447 463.771 299.253C463.267 298.992 462.847 298.593 462.56 298.103C462.274 297.613 462.134 297.051 462.155 296.484C462.12 295.208 462.399 293.944 462.97 292.802C463.54 291.66 464.383 290.677 465.424 289.938C467.49 288.59 470.528 288.943 471.038 291.784Z" fill="url(#paint15_linear)"/>
<path d="M426.297 285.142C427.463 284.776 428.665 284.536 429.882 284.425C430.689 284.318 431.506 284.318 432.312 284.425C433.32 284.653 434.295 285.004 435.217 285.47C437.647 286.587 440.284 287.898 441.463 290.327C441.772 291.156 442.129 291.967 442.532 292.756C443.577 294.036 444.996 294.957 446.59 295.391C447.891 295.889 448.036 297.637 449.13 298.487C450.442 299.507 452.35 299.095 453.821 298.354C455.476 297.538 456.938 296.379 458.11 294.954C458.819 293.872 459.721 292.929 460.771 292.173C461.311 291.825 461.968 291.705 462.596 291.839C463.225 291.973 463.774 292.351 464.125 292.889C464.24 293.323 464.262 293.777 464.191 294.22C464.12 294.663 463.957 295.087 463.712 295.464C461.935 299.063 459.518 302.309 456.579 305.045C455.62 305.995 454.537 306.812 453.359 307.474C451.563 308.3 449.64 308.818 447.672 309.004C443.75 309.562 439.797 309.866 435.836 309.914C433.544 310.064 431.245 309.746 429.08 308.979C428.417 308.707 427.801 308.33 427.257 307.862C425.951 306.485 425.102 304.737 424.827 302.859C423.357 296.472 424.183 291.226 426.297 285.142Z" fill="#3E3E54"/>
<path d="M438.887 298.67C438.971 299.425 438.822 300.187 438.462 300.855C437.672 302.07 435.959 302.252 434.512 302.07C433.173 301.886 431.874 301.475 430.673 300.855C430.201 300.631 429.785 300.303 429.457 299.896C429.02 299.166 428.832 298.314 428.923 297.467C428.937 296.278 429.018 295.09 429.166 293.909C429.242 293.028 429.455 292.163 429.798 291.347C430.357 290.133 431.28 289.234 432.593 289.768C433.766 290.267 434.835 290.984 435.74 291.881C437.588 293.681 438.708 296.097 438.887 298.67Z" fill="url(#paint16_linear)"/>
<path d="M209.953 337.735C210.923 334.478 212.413 331.398 214.364 328.615L220.78 318.354C220.948 318 221.231 317.714 221.582 317.541C221.794 317.5 222.012 317.505 222.221 317.556C222.431 317.606 222.627 317.7 222.798 317.832C225.787 319.69 226.516 323.746 226.151 327.243C225.787 330.741 224.62 334.201 224.936 337.699C225.327 339.588 225.611 341.497 225.787 343.418C225.724 344.844 225.356 346.239 224.708 347.51C224.061 348.782 223.148 349.9 222.032 350.789C219.298 353.085 213.137 356.23 210.828 352.101C208.896 348.543 209.103 341.475 209.953 337.735Z" fill="url(#paint17_linear)"/>
<path d="M216.746 348.373C213.599 349.223 210.306 350.741 208.957 353.704C208.397 355.178 208.112 356.742 208.119 358.319C207.657 366.544 207.479 374.777 207.584 383.019C207.434 384.692 207.826 386.369 208.702 387.803C209.917 389.37 212.116 389.758 214.109 389.819C217.855 389.93 221.582 389.247 225.046 387.815C226.147 387.486 227.092 386.77 227.707 385.799C228.037 384.967 228.146 384.063 228.023 383.176C227.597 375.004 225.69 366.758 225.592 358.622C225.471 352.866 224.547 346.26 216.746 348.373Z" fill="#FDBC68"/>
<path d="M194.594 384.913C194.115 384.908 193.645 385.034 193.233 385.277C192.803 385.703 192.537 386.266 192.479 386.868C192.042 389.102 191.823 391.81 193.585 393.243C194.472 393.85 195.494 394.229 196.562 394.348C199.138 394.834 201.727 395.283 204.303 395.72C205.133 395.933 206.007 395.899 206.818 395.623C207.417 395.254 207.994 394.848 208.544 394.409C209.563 393.947 210.703 393.819 211.8 394.045C214.595 394.324 217.39 394.712 220.16 395.259C221.094 395.49 222.062 395.548 223.016 395.429C223.491 395.361 223.938 395.161 224.306 394.852C224.673 394.543 224.946 394.137 225.094 393.68C225.434 392.284 224.122 391.057 222.907 390.268C214.255 384.548 204.558 384.233 194.594 384.913Z" fill="url(#paint18_linear)"/>
<path d="M184.873 346.017C186.756 348.142 193.1 350.11 195.627 348.81C197.304 347.948 197.45 343.297 198.203 341.524C198.783 340.133 199.227 338.69 199.528 337.213C200.126 335.175 200.251 333.028 199.892 330.935C199.699 329.893 199.213 328.927 198.493 328.149C197.773 327.371 196.846 326.813 195.822 326.539C193.829 326.175 181.726 324.815 182.88 326.478C187.656 333.412 180.365 340.953 184.873 346.017Z" fill="url(#paint19_linear)"/>
<path d="M188.773 338.549C189.32 340.208 190.067 341.794 190.997 343.273C191.471 344.01 192.098 344.635 192.836 345.107C193.575 345.578 194.406 345.885 195.274 346.005C195.688 346.047 196.106 345.984 196.489 345.823C197.583 345.313 197.875 343.929 198.033 342.738L198.895 336.302C199 335.819 198.974 335.316 198.822 334.845C198.609 334.447 198.295 334.113 197.911 333.874C196.991 333.185 196.034 332.549 195.043 331.967C192.99 330.753 190.304 329.417 187.825 329.891C187.417 329.948 187.031 330.116 186.712 330.377C186.393 330.639 186.151 330.983 186.015 331.372C185.711 332.429 186.537 333.509 186.963 334.408C187.619 335.732 188.214 337.128 188.773 338.549Z" fill="url(#paint20_linear)"/>
<path d="M211.156 300.382C211.156 300.382 217.001 324.001 210.366 332.222C203.732 340.443 193.099 340.188 188.858 335.671C184.617 331.153 168.845 311.384 174.69 299.495C180.534 287.607 203.367 273.314 211.156 300.382Z" fill="url(#paint21_linear)"/>
<path d="M186.806 293.727C186.356 296.472 186.733 299.362 185.761 301.961C184.059 306.478 178.761 308.834 177.012 313.327C176.586 314.42 176.392 315.598 175.882 316.654C175.672 317.203 175.325 317.688 174.874 318.064C174.423 318.441 173.883 318.695 173.305 318.804C172.723 318.814 172.15 318.659 171.651 318.359C171.153 318.058 170.749 317.623 170.486 317.104C169.97 316.059 169.684 314.916 169.648 313.752C168.894 305.98 169.794 297.71 174.132 291.226C175.794 288.692 178.011 286.568 180.615 285.015C183.219 283.463 186.142 282.522 189.163 282.264C192.808 282.069 194.024 282.834 191.472 285.53C189.187 287.935 187.365 290.291 186.806 293.727Z" fill="#3E3E54"/>
<path d="M176.293 321.548C176.006 321.561 175.728 321.653 175.491 321.815C175.343 321.948 175.224 322.109 175.139 322.289C174.653 323.028 174.431 323.909 174.507 324.79C174.701 325.453 175.079 326.046 175.597 326.502C176.116 326.958 176.753 327.257 177.435 327.365C178.909 327.75 180.461 327.721 181.919 327.28C182.062 327.248 182.193 327.177 182.296 327.073C182.367 326.947 182.405 326.805 182.405 326.66C182.405 326.516 182.367 326.373 182.296 326.248C181.737 324.946 180.969 323.744 180.023 322.689C179.556 322.19 178.965 321.821 178.311 321.621C177.656 321.421 176.96 321.395 176.293 321.548Z" fill="url(#paint22_linear)"/>
<path d="M285.474 388.046C284.818 388.847 284.259 390.074 284.964 390.79C285.21 390.973 285.492 391.101 285.791 391.168C286.09 391.235 286.4 391.239 286.701 391.179L308.501 389.892C308.862 389.89 309.22 389.824 309.558 389.697C310.64 389.212 310.773 387.73 310.64 386.54C310.518 384.658 310.396 382.788 310.263 380.918C310.129 379.048 310.554 378.258 308.586 377.991C305.864 377.615 302.437 378.501 299.837 379.205C294.256 380.612 289.242 383.698 285.474 388.046Z" fill="url(#paint23_linear)"/>
<path opacity="0.43" d="M243.952 120.949C236.661 109.777 235.714 93.6021 244.706 83.7051C248.972 79.2326 254.536 76.2124 260.612 75.0711C271.184 72.8609 283.287 75.9575 289.776 84.5673C293.609 89.8946 295.419 96.4127 294.879 102.953C294.331 109.455 292.249 115.735 288.803 121.277C286.871 124.544 284.55 127.689 283.7 131.393C283.153 133.821 283.25 136.25 282.788 138.679C282.063 142.039 280.296 145.085 277.74 147.385C275.183 149.684 271.967 151.121 268.547 151.49C262.471 152.012 253.965 148.017 252.75 141.484C252.094 137.95 252.75 135.23 251.049 131.684C249.202 127.798 246.298 124.519 243.952 120.949Z" fill="#FDBC68"/>
<path d="M256.699 143.439C258.072 136.736 256.699 129.838 255.86 123.05C255.438 120.807 255.538 118.497 256.152 116.298C256.93 114.161 258.971 112.315 261.231 112.485C263.807 112.692 265.521 115.242 266.359 117.683C267.382 120.687 267.694 123.888 267.271 127.033C267.04 128.697 266.42 130.579 264.84 131.211C263.388 129.068 262.789 126.462 263.16 123.901C263.531 121.34 264.845 119.01 266.845 117.367C267.676 116.646 268.747 116.265 269.847 116.298C271.621 116.493 272.763 118.314 273.188 120.051C273.687 122.053 273.624 124.154 273.006 126.123C272.869 126.702 272.554 127.224 272.107 127.616C271.872 127.791 271.581 127.876 271.288 127.853C270.996 127.831 270.721 127.704 270.515 127.495C270.356 127.21 270.28 126.886 270.296 126.56C270.102 122.771 270.296 118.557 272.933 115.813C273.324 115.329 273.876 115.002 274.488 114.89C274.993 114.846 275.498 114.961 275.934 115.218C278.426 116.675 279.24 119.978 278.79 122.82C278.34 125.661 276.907 128.236 275.849 130.907C274.145 135.226 273.386 139.859 273.626 144.496" stroke="white" stroke-width="0.78" stroke-miterlimit="10"/>
<path d="M249.967 147.495C249.688 147.944 249.299 148.309 249.032 148.71C248.145 150.179 248.655 152.061 249.202 153.701C250.271 156.919 251.474 160.343 254.184 162.395C256.1 163.683 258.303 164.48 260.6 164.715C265.077 165.405 269.639 165.323 274.088 164.472C276.119 164.164 278.073 163.476 279.848 162.444C280.731 161.923 281.5 161.23 282.11 160.406C282.72 159.582 283.157 158.644 283.396 157.647C283.46 157.032 283.574 156.423 283.736 155.826C283.919 155.303 284.247 154.842 284.478 154.344C284.726 153.769 284.854 153.149 284.854 152.523C284.854 151.896 284.726 151.276 284.478 150.701C284.08 150.016 283.754 149.292 283.506 148.54C283.425 147.799 283.479 147.051 283.663 146.329C284.078 143.533 283.488 140.681 281.999 138.278C278.367 141.324 273.98 143.333 269.3 144.095C264.867 144.771 260.337 143.877 256.493 141.569C254.877 140.537 253.224 138.691 251.754 140.926C250.417 142.893 251.158 145.577 249.967 147.495Z" fill="#3E3E54"/>
</g>
<defs>
<linearGradient id="paint0_linear" x1="181.725" y1="354.858" x2="193.534" y2="311.999" gradientUnits="userSpaceOnUse">
<stop stop-opacity="0"/>
<stop offset="0.99"/>
</linearGradient>
<linearGradient id="paint1_linear" x1="103.396" y1="3593.62" x2="219011" y2="3593.62" gradientUnits="userSpaceOnUse">
<stop stop-opacity="0"/>
<stop offset="0.99"/>
</linearGradient>
<linearGradient id="paint2_linear" x1="173.487" y1="359.302" x2="198.95" y2="438.573" gradientUnits="userSpaceOnUse">
<stop stop-opacity="0"/>
<stop offset="0.8"/>
</linearGradient>
<linearGradient id="paint3_linear" x1="7120.76" y1="16618.7" x2="7746.02" y2="20777.3" gradientUnits="userSpaceOnUse">
<stop stop-opacity="0"/>
<stop offset="0.8"/>
</linearGradient>
<linearGradient id="paint4_linear" x1="55.1445" y1="330.68" x2="77.965" y2="330.68" gradientUnits="userSpaceOnUse">
<stop stop-color="#E5C5D5"/>
<stop offset="0.42" stop-color="#EAD4D1"/>
<stop offset="1" stop-color="#F0E9CB"/>
</linearGradient>
<linearGradient id="paint5_linear" x1="1558.15" y1="4793.72" x2="1596.91" y2="4201.57" gradientUnits="userSpaceOnUse">
<stop stop-opacity="0"/>
<stop offset="0.99"/>
</linearGradient>
<linearGradient id="paint6_linear" x1="46267.2" y1="21408.2" x2="45306.5" y2="26663" gradientUnits="userSpaceOnUse">
<stop stop-opacity="0"/>
<stop offset="0.99"/>
</linearGradient>
<linearGradient id="paint7_linear" x1="440.589" y1="314.007" x2="459.581" y2="314.007" gradientUnits="userSpaceOnUse">
<stop stop-color="#867580"/>
<stop offset="0.57" stop-color="#9B8F8E"/>
</linearGradient>
<linearGradient id="paint8_linear" x1="7353.3" y1="9590.6" x2="8122.98" y2="9590.6" gradientUnits="userSpaceOnUse">
<stop stop-color="#E5C5D5"/>
<stop offset="0.42" stop-color="#EAD4D1"/>
<stop offset="1" stop-color="#F0E9CB"/>
</linearGradient>
<linearGradient id="paint9_linear" x1="18469.2" y1="12311.9" x2="19078.6" y2="15946.8" gradientUnits="userSpaceOnUse">
<stop stop-opacity="0"/>
<stop offset="0.99"/>
</linearGradient>
<linearGradient id="paint10_linear" x1="11639" y1="4739.84" x2="12532.1" y2="4739.84" gradientUnits="userSpaceOnUse">
<stop stop-color="#867580"/>
<stop offset="0.57" stop-color="#9B8F8E"/>
</linearGradient>
<linearGradient id="paint11_linear" x1="2779.27" y1="17732.9" x2="5080.72" y2="17732.9" gradientUnits="userSpaceOnUse">
<stop stop-color="#E5C5D5"/>
<stop offset="0.42" stop-color="#EAD4D1"/>
<stop offset="1" stop-color="#F0E9CB"/>
</linearGradient>
<linearGradient id="paint12_linear" x1="2099.69" y1="8454.39" x2="2569.5" y2="8454.39" gradientUnits="userSpaceOnUse">
<stop stop-color="#E5C5D5"/>
<stop offset="0.42" stop-color="#EAD4D1"/>
<stop offset="1" stop-color="#F0E9CB"/>
</linearGradient>
<linearGradient id="paint13_linear" x1="13929" y1="19452.1" x2="15875.7" y2="19452.1" gradientUnits="userSpaceOnUse">
<stop stop-color="#E5C5D5"/>
<stop offset="0.42" stop-color="#EAD4D1"/>
<stop offset="1" stop-color="#F0E9CB"/>
</linearGradient>
<linearGradient id="paint14_linear" x1="16698.4" y1="12494.3" x2="18291.6" y2="12494.3" gradientUnits="userSpaceOnUse">
<stop stop-color="#867580"/>
<stop offset="0.57" stop-color="#9B8F8E"/>
</linearGradient>
<linearGradient id="paint15_linear" x1="4026.65" y1="2826.73" x2="4092.82" y2="2826.73" gradientUnits="userSpaceOnUse">
<stop stop-color="#867580"/>
<stop offset="0.57" stop-color="#9B8F8E"/>
</linearGradient>
<linearGradient id="paint16_linear" x1="4151.07" y1="3428.71" x2="4233.45" y2="3428.71" gradientUnits="userSpaceOnUse">
<stop stop-color="#867580"/>
<stop offset="0.57" stop-color="#9B8F8E"/>
</linearGradient>
<linearGradient id="paint17_linear" x1="3441.2" y1="10698.5" x2="3676.86" y2="10698.5" gradientUnits="userSpaceOnUse">
<stop stop-color="#E5C5D5"/>
<stop offset="0.42" stop-color="#EAD4D1"/>
<stop offset="1" stop-color="#F0E9CB"/>
</linearGradient>
<linearGradient id="paint18_linear" x1="6031.35" y1="4064.76" x2="6926.33" y2="4064.76" gradientUnits="userSpaceOnUse">
<stop stop-color="#E5C5D5"/>
<stop offset="0.42" stop-color="#EAD4D1"/>
<stop offset="1" stop-color="#F0E9CB"/>
</linearGradient>
<linearGradient id="paint19_linear" x1="3110.96" y1="7039.89" x2="3357.34" y2="7039.89" gradientUnits="userSpaceOnUse">
<stop stop-color="#E5C5D5"/>
<stop offset="0.42" stop-color="#EAD4D1"/>
<stop offset="1" stop-color="#F0E9CB"/>
</linearGradient>
<linearGradient id="paint20_linear" x1="2420.94" y1="5085.27" x2="2700.12" y2="4739.45" gradientUnits="userSpaceOnUse">
<stop stop-opacity="0"/>
<stop offset="0.99"/>
</linearGradient>
<linearGradient id="paint21_linear" x1="6659.38" y1="14504.3" x2="7984.42" y2="14504.3" gradientUnits="userSpaceOnUse">
<stop stop-color="#E5C5D5"/>
<stop offset="0.42" stop-color="#EAD4D1"/>
<stop offset="1" stop-color="#F0E9CB"/>
</linearGradient>
<linearGradient id="paint22_linear" x1="1460.34" y1="2018.33" x2="1511.93" y2="2018.33" gradientUnits="userSpaceOnUse">
<stop stop-color="#E5C5D5"/>
<stop offset="0.42" stop-color="#EAD4D1"/>
<stop offset="1" stop-color="#F0E9CB"/>
</linearGradient>
<linearGradient id="paint23_linear" x1="6878.05" y1="4690.75" x2="7436.2" y2="4690.75" gradientUnits="userSpaceOnUse">
<stop stop-color="#E5C5D5"/>
<stop offset="0.42" stop-color="#EAD4D1"/>
<stop offset="1" stop-color="#F0E9CB"/>
</linearGradient>
<clipPath id="clip0">
<rect width="516" height="439" fill="white"/>
</clipPath>
</defs>
</svg>
