<svg width="579" height="458" viewBox="0 0 579 458" fill="none" xmlns="http://www.w3.org/2000/svg">
<g clip-path="url(#clip0)">
<path opacity="0.18" d="M243.29 456.325C329.35 463.513 416.662 437.228 488.615 389.389C521.823 367.318 552.984 339.538 569 302.989C585.016 266.439 582.728 219.778 555.183 190.91C534.566 169.307 503.254 160.195 483.521 137.706C467.998 119.988 461.74 96.2081 451.273 75.0731C413.085 -1.98716 242.695 -33.234 173.384 46.9776C106.677 124.24 -47.9991 164.004 14.6249 328.642C44.7486 407.79 165.964 449.858 243.29 456.325Z" fill="#FDBC68"/>
<path d="M530.649 314.721L548.119 384.112C548.308 384.844 548.769 385.476 549.408 385.878C550.048 386.281 550.816 386.423 551.557 386.276C552.289 386.129 552.938 385.708 553.372 385.099C553.807 384.491 553.994 383.74 553.896 382.998C552.075 369.571 544.175 311.203 543.783 310.431C543.391 309.659 537.134 310.557 533.101 311.076C532.691 311.133 532.297 311.276 531.945 311.495C531.594 311.715 531.293 312.006 531.061 312.35C530.83 312.694 530.673 313.083 530.602 313.492C530.531 313.9 530.547 314.319 530.649 314.721Z" fill="#FDBC68"/>
<path d="M510.94 314.721L493.47 384.112C493.282 384.844 492.82 385.476 492.181 385.878C491.542 386.281 490.773 386.423 490.032 386.276C489.3 386.129 488.651 385.708 488.217 385.099C487.782 384.491 487.595 383.74 487.693 382.998C489.514 369.571 497.414 311.203 497.806 310.431C498.198 309.659 504.456 310.557 508.488 311.076C508.898 311.133 509.292 311.276 509.644 311.495C509.995 311.715 510.297 312.006 510.528 312.35C510.759 312.694 510.916 313.083 510.987 313.492C511.058 313.9 511.042 314.319 510.94 314.721Z" fill="#FDBC68"/>
<path d="M530.649 314.721L548.119 384.112C548.308 384.844 548.769 385.476 549.408 385.878C550.048 386.281 550.816 386.423 551.557 386.276C552.289 386.129 552.938 385.708 553.372 385.099C553.807 384.491 553.994 383.74 553.896 382.998C552.075 369.571 544.175 311.203 543.783 310.431C543.391 309.659 537.134 310.557 533.101 311.076C532.691 311.133 532.297 311.276 531.945 311.495C531.594 311.715 531.293 312.006 531.061 312.35C530.83 312.694 530.673 313.083 530.602 313.492C530.531 313.9 530.547 314.319 530.649 314.721Z" fill="url(#paint0_linear)"/>
<path d="M510.94 314.721L493.47 384.112C493.282 384.844 492.82 385.476 492.181 385.878C491.542 386.281 490.773 386.423 490.032 386.276C489.3 386.129 488.651 385.708 488.217 385.099C487.782 384.491 487.595 383.74 487.693 382.998C489.514 369.571 497.414 311.203 497.806 310.431C498.198 309.659 504.456 310.557 508.488 311.076C508.898 311.133 509.292 311.276 509.644 311.495C509.995 311.715 510.297 312.006 510.528 312.35C510.759 312.694 510.916 313.083 510.987 313.492C511.058 313.9 511.042 314.319 510.94 314.721Z" fill="url(#paint1_linear)"/>
<path d="M570.619 232.801C569.987 235.902 568.293 238.661 567.067 241.571C558.938 260.985 572.06 286.259 559.482 303.103C554.514 309.747 546.348 313.405 538.156 314.658C529.965 315.911 521.597 315.038 513.355 314.152L501.358 312.886C497.654 312.494 493.875 312.076 490.537 310.418C487.2 308.76 484.381 305.571 484.217 301.85C484.015 297.256 487.706 293.536 491.005 290.334C504.354 277.405 515.948 262.776 525.49 246.824C530.749 237.965 537.145 226.169 548.017 223.714C555.551 221.993 573.046 220.892 570.619 232.801Z" fill="#FDBC68"/>
<path d="M565.714 229.194C565.082 232.295 563.389 235.054 562.162 237.977C554.034 257.378 567.156 282.664 554.578 299.496C549.61 306.14 541.444 309.798 533.252 311.063C525.061 312.329 516.692 311.43 508.45 310.545L496.454 309.279C492.75 308.874 488.97 308.456 485.633 306.748C482.296 305.039 479.477 301.913 479.313 298.193C479.11 293.586 482.802 289.865 486.101 286.663C499.449 273.734 511.043 259.106 520.586 243.153C525.844 234.357 532.241 222.499 543.112 220.057C550.646 218.386 568.142 217.272 565.714 229.194Z" fill="url(#paint2_linear)"/>
<path d="M464.256 264.82H457V396.983H464.256V264.82Z" fill="#FDBC68"/>
<path d="M464.256 264.82H457V396.983H464.256V264.82Z" fill="url(#paint3_linear)"/>
<path d="M423.615 354.51C422.254 357.047 421.46 359.849 421.289 362.724C421.289 368.191 425.688 372.532 429.721 376.215C432.818 368.026 437.305 360.155 443.917 354.447C448.366 350.65 480.98 310.38 485.632 306.786C490.284 303.192 522.936 301.648 523.669 295.839C524.491 289.283 496.529 290.156 491.397 285.79C484.95 280.297 454.346 288.865 450.414 294.092C441.313 306.178 429.746 340.779 423.615 354.51Z" fill="#3E3E54"/>
<path d="M423.78 354.612C422.422 357.15 421.625 359.951 421.441 362.825C421.505 368.292 425.853 372.633 429.886 376.329C432.983 368.141 437.47 360.269 444.082 354.561C448.519 350.764 481.145 310.494 485.797 306.9C490.449 303.306 523.101 301.762 523.834 295.94C524.656 289.384 496.694 290.27 491.562 285.904C485.115 280.411 454.51 288.967 450.579 294.194C441.465 306.28 429.936 340.88 423.78 354.612Z" fill="url(#paint4_linear)"/>
<path opacity="0.48" d="M426.271 33.8664H128.965C120.476 33.8664 113.594 40.7564 113.594 49.2556V214.741C113.594 223.24 120.476 230.13 128.965 230.13H426.271C434.761 230.13 441.643 223.24 441.643 214.741V49.2556C441.643 40.7564 434.761 33.8664 426.271 33.8664Z" fill="#FDBC68"/>
<path d="M502.458 212.096C502.174 207.367 503.41 202.67 505.985 198.694C508.572 194.742 512.032 191.438 516.097 189.038C518.411 187.633 521.053 186.431 523.682 186.772C525.945 187.063 529.105 183.672 530.938 185.026C536.096 188.823 539.787 197.897 544.11 202.605C545.254 208.94 545.964 215.346 546.234 221.778L548.838 270.35C549.268 278.361 549.495 287.132 544.666 293.548C532.573 289.148 520.805 283.899 509.448 277.843C508.36 277.362 507.396 276.639 506.629 275.729C505.846 274.385 505.472 272.841 505.555 271.287C505.074 259.196 505.074 247.106 505.555 235.016C505.782 228.485 502.976 218.614 502.458 212.096Z" fill="#FDBC68"/>
<path d="M524.821 259.985C525.238 257.454 526.085 254.923 525.605 252.392C524.796 247.861 520.068 244.254 520.801 239.736C521.092 237.876 522.293 236.294 523.064 234.573C524.429 231.523 524.429 228.055 524.328 224.714C524.214 220.133 523.987 215.539 523.646 210.97C521.503 212.565 519.748 214.624 518.513 216.994L508.995 232.358C507.925 233.946 507.026 235.643 506.315 237.42C505.471 240.26 505.091 243.217 505.19 246.178L504.76 268.262C504.76 270.376 504.76 272.692 506.138 274.286C507.115 275.261 508.331 275.959 509.665 276.311C514.114 277.817 522.407 280.576 524.96 275.602C527.185 271.3 523.962 265.098 524.821 259.985Z" fill="url(#paint5_linear)"/>
<path d="M511.787 270.236L477.024 274.603C471.146 275.349 465.167 276.109 459.706 278.399C454.245 280.69 449.265 284.803 447.242 290.384C442.464 303.571 443.551 317.391 447.899 330.718C451.447 341.551 454.991 352.384 458.531 363.218C459.354 366.361 460.733 369.331 462.601 371.988C464.624 374.519 467.847 376.354 471.045 375.785C471.641 375.708 472.214 375.507 472.726 375.192C473.238 374.878 473.678 374.459 474.016 373.962C474.474 372.997 474.667 371.926 474.572 370.862L474.648 312.266C474.648 308.899 474.951 304.963 477.758 303.116C479.578 301.926 481.904 302.015 484.078 302.141L522.735 304.407C528.297 304.736 547.081 297.547 545.931 289.688C544.402 279.285 522.216 268.92 511.787 270.236Z" fill="#3E3E54"/>
<path d="M466.203 372.519C465.28 374.291 465.786 376.531 465.015 378.391C464.325 379.74 463.307 380.893 462.057 381.745L453.031 389.073C451.451 390.338 449.681 392.199 450.313 394.135C450.945 396.071 453.309 396.514 455.281 396.603C460.325 396.757 465.373 396.55 470.387 395.983C473.535 395.679 476.973 395.186 479.084 392.832C480.145 391.546 480.828 389.991 481.056 388.339C482.017 382.618 479.286 376.949 476.632 371.886C476.447 371.397 476.08 370.998 475.608 370.773C475.241 370.708 474.863 370.752 474.521 370.899C472.448 371.589 470.476 372.551 468.655 373.759" fill="#3E3E54"/>
<path d="M395.085 375.253C394.463 375.726 393.942 376.32 393.556 376.999C393.16 377.994 393.099 379.09 393.382 380.123C393.665 381.155 394.276 382.067 395.123 382.72C396.852 383.984 398.876 384.781 401.001 385.036C406.065 385.998 411.228 386.326 416.373 386.01C417.648 386.161 418.938 385.915 420.069 385.306C421.2 384.697 422.116 383.754 422.693 382.606C425.035 378.945 427.146 375.141 429.014 371.216C430.442 368.166 427.56 366.584 424.88 365.951C422.479 365.382 420.532 366.495 418.395 367.457C413.503 369.672 408.219 370.127 403.087 371.494C400.181 372.156 397.451 373.438 395.085 375.253Z" fill="#3E3E54"/>
<path d="M495.227 175.509C497.237 178.04 498.059 181.444 499.942 184.127C500.415 184.948 501.082 185.641 501.884 186.144C502.686 186.647 503.599 186.945 504.544 187.013C506.882 186.924 508.513 184.722 510.561 183.583C511.002 184.281 511.612 184.856 512.335 185.254C513.058 185.652 513.869 185.861 514.694 185.861C516.346 185.845 517.971 185.451 519.447 184.71C522.009 183.561 524.376 182.019 526.463 180.141C526.754 179.922 526.981 179.629 527.121 179.293C527.215 178.932 527.215 178.553 527.121 178.192L522.848 158.323C522.447 155.492 521.424 152.786 519.852 150.4C518.587 148.869 516.975 147.663 515.149 146.882C508.728 143.92 500.562 145.186 496.188 150.982C493.154 154.969 495.53 159.841 494.924 164.359C494.62 166.422 493.761 168.308 493.369 170.32C492.775 172.636 493.912 173.826 495.227 175.509Z" fill="url(#paint6_linear)"/>
<path d="M494.14 149.096C496.391 151.628 500.196 152.033 503.609 152.007C505.348 151.89 507.096 152.009 508.804 152.362C509.656 152.549 510.453 152.93 511.133 153.477C511.813 154.024 512.357 154.721 512.723 155.513C513.292 156.981 512.963 158.639 513.127 160.195C513.154 160.892 513.428 161.556 513.899 162.069C514.141 162.311 514.466 162.453 514.809 162.465C515.151 162.476 515.486 162.357 515.744 162.132C516.338 161.474 516.313 159.993 517.173 160.145C517.313 160.184 517.443 160.253 517.554 160.346C517.665 160.44 517.755 160.557 517.817 160.689C518.338 161.547 518.605 162.535 518.587 163.539C518.569 164.542 518.267 165.52 517.716 166.359C516.996 167.422 515.845 168.763 516.667 169.738C517.147 170.295 517.931 170.282 518.664 170.535C520.927 171.408 520.914 175.053 523.114 176.116C523.629 176.325 524.187 176.405 524.739 176.35C525.292 176.295 525.823 176.106 526.287 175.8C527.207 175.174 527.997 174.374 528.613 173.446C533.018 167.517 535.712 160.491 536.4 153.134C536.728 150.895 536.507 148.61 535.755 146.477C534.787 144.412 533.313 142.627 531.47 141.288C528.815 139.149 525.212 137.365 522.09 138.757C521.117 139.187 520.093 139.921 519.094 139.554C518.647 139.341 518.25 139.035 517.931 138.656C513.519 134.264 506.301 133.492 500.512 135.795C498.337 136.669 494.052 137.567 492.927 139.795C492.301 141.316 492.083 142.975 492.296 144.607C492.509 146.239 493.145 147.787 494.14 149.096Z" fill="#B7A451"/>
<path d="M525.022 255.24H220.738V265.149H525.022V255.24Z" fill="#FDBC68"/>
<path d="M525.022 255.24H220.738V265.149H525.022V255.24Z" fill="url(#paint7_linear)"/>
<path d="M244.832 264.82H237.576V396.983H244.832V264.82Z" fill="#FDBC68"/>
<path d="M302.426 265.174H295.17V398.134H302.426V265.174Z" fill="#FDBC68"/>
<path d="M244.832 264.82H237.576V396.983H244.832V264.82Z" fill="url(#paint8_linear)"/>
<path d="M302.426 265.174H295.17V398.134H302.426V265.174Z" fill="url(#paint9_linear)"/>
<path d="M521.85 265.161H514.594V398.134H521.85V265.161Z" fill="#FDBC68"/>
<path d="M521.85 265.161H514.594V398.134H521.85V265.161Z" fill="url(#paint10_linear)"/>
<path d="M41.1342 390.946C40.6412 391.895 40.0344 392.768 39.5288 393.717C38.161 396.305 37.6729 399.268 38.1382 402.159C38.2684 403.384 38.6854 404.561 39.3553 405.595C40.0252 406.628 40.9292 407.489 41.9938 408.107C43.5713 408.732 45.2922 408.903 46.9617 408.6C49.6164 408.297 52.448 407.411 53.889 405.171C54.7114 403.61 55.145 401.873 55.1532 400.109C55.3554 397.577 55.5071 394.894 54.4073 392.515C53.5604 390.718 52.0055 389.288 51.3355 387.453C50.7541 385.846 50.7793 383.884 49.4899 382.77C47.9477 381.441 44.8633 382.251 43.6624 383.757C42.1581 385.668 42.2466 388.794 41.1342 390.946Z" fill="#FDBC68"/>
<path d="M73.7237 382.834C73.2054 384.39 72.6871 386.149 73.4203 387.618C74.3558 389.516 76.7955 389.959 78.6411 390.984C80.4867 392.009 81.6623 393.515 83.3941 394.401C85.234 395.245 87.2358 395.677 89.2596 395.667C91.8915 395.799 94.5284 395.799 97.1603 395.667C99.1124 395.7 101.05 395.325 102.849 394.565C103.297 394.371 103.691 394.072 103.999 393.692C104.998 392.325 103.873 390.44 102.647 389.301C100.555 387.365 98.0525 385.929 95.3273 385.099C92.0407 384.112 88.1598 383.833 86.0993 381.075C84.5698 379.05 84.4181 376.012 82.4081 374.519C76.7955 370.267 74.7856 379.657 73.7237 382.834Z" fill="#FDBC68"/>
<path d="M38.455 363.23L39.7191 378.885C40.0604 382.935 40.9832 387.82 44.7756 389.225C47.7715 390.338 51.2225 388.478 52.967 385.795C54.7115 383.112 55.1539 379.796 55.4952 376.62C58.883 346.689 59.1864 316.265 66.139 286.967C70.7553 313.601 73.4297 340.536 74.1408 367.558C74.0482 370.221 74.416 372.88 75.228 375.417C75.6534 376.682 76.4005 377.814 77.3957 378.702C78.391 379.589 79.6 380.202 80.9038 380.48C84.0262 380.897 86.9968 378.556 88.3368 375.696C89.6767 372.836 89.7526 369.558 89.8031 366.394L91.5855 251.949C91.6614 246.697 91.9268 240.964 95.3779 237.015C79.6271 236.927 62.511 237.724 46.7729 237.635C45.7679 237.523 44.7533 237.735 43.878 238.243C42.9793 239.115 42.4575 240.306 42.4243 241.558C36.4146 281.826 35.0826 322.655 38.455 363.23Z" fill="#3E3E54"/>
<path d="M38.2264 363.23L39.4905 378.885C39.8192 382.935 40.7546 387.82 44.547 389.225C47.5556 390.338 51.0066 388.478 52.751 385.795C54.4955 383.112 54.938 379.796 55.2793 376.62C58.6671 346.689 58.9705 316.265 65.9231 286.967C70.5352 313.601 73.2053 340.536 73.9122 367.558C73.8299 370.222 74.2019 372.879 75.012 375.417C75.4363 376.681 76.1815 377.811 77.1744 378.699C78.1673 379.586 79.3738 380.2 80.6752 380.48C83.8102 380.897 86.7809 378.556 88.1208 375.696C89.4608 372.836 89.5366 369.558 89.5872 366.394L91.357 251.949C91.4454 246.697 91.6983 240.964 95.1493 237.015C79.3985 236.927 62.2824 237.724 46.5443 237.635C45.5392 237.521 44.524 237.734 43.6495 238.243C42.7508 239.115 42.229 240.306 42.1957 241.558C36.1861 281.826 34.8541 322.655 38.2264 363.23Z" fill="url(#paint11_linear)"/>
<path d="M141.846 193.834C141.874 194.914 141.525 195.97 140.86 196.821C140.142 197.431 139.265 197.822 138.331 197.947C126.537 200.706 114.313 201.187 102.216 201.655C100.282 201.719 97.8925 201.554 97.0708 199.782C97.0708 201.896 97.0708 204.073 97.0708 206.262C97.0708 213.299 96.9191 220.601 97.0708 227.384C97.2794 230.291 97.0061 233.211 96.2618 236.028C94.5047 241.47 89.3471 245.254 83.8861 246.912C78.4252 248.57 72.585 248.393 66.8712 248.178L48.7944 247.646C47.2276 247.703 45.6645 247.454 44.1931 246.912C40.1227 245.102 39.3263 239.749 39.1366 235.307C38.5804 222.487 38.8333 209.198 39.3136 195.986C39.6549 186.557 40.11 177.179 40.464 168.042C40.6283 163.878 43.3209 160.132 46.696 157.715C50.2026 155.452 54.0728 153.813 58.1362 152.868C62.1904 151.923 66.1285 150.535 69.8798 148.729C77.0925 149.852 84.008 152.408 90.2193 156.247C96.7311 159.991 101.804 165.81 104.63 172.775C105.717 175.661 106.476 178.964 108.966 180.786C111.456 182.609 114.579 182.317 117.511 182.128C123.533 181.765 129.571 181.794 135.588 182.216C137.548 182.343 139.76 182.647 140.961 184.216C141.669 185.352 142.021 186.674 141.972 188.013C142.053 189.954 142.01 191.898 141.846 193.834Z" fill="#FDBC68"/>
<path d="M67.7055 207.148C66.4414 206.464 65.1772 205.882 64.0395 205.161C62.9018 204.439 61.8906 203.693 60.854 202.921L54.3312 197.985C53.8678 197.65 53.4438 197.264 53.0671 196.833C52.2369 195.753 51.8646 194.389 52.0305 193.037C52.2123 191.693 52.6048 190.386 53.1935 189.164C53.9267 187.456 54.7863 185.57 54.2553 183.773C53.6106 181.533 51.1077 180.406 48.8197 179.976C48.4449 179.894 48.0568 179.894 47.682 179.976C47.3308 180.105 47.0126 180.31 46.7502 180.577C46.4879 180.844 46.288 181.166 46.165 181.52C45.306 183.605 44.8141 185.823 44.7113 188.076L43.8896 195.96C43.7633 196.799 43.7633 197.652 43.8896 198.491C44.4206 200.845 46.8097 202.199 48.8323 203.554C51.9501 205.793 54.95 208.192 57.8201 210.742C60.7028 213.301 64.1316 215.167 67.8445 216.197C69.3945 216.601 71.0223 216.601 72.5723 216.197C73.5886 215.905 74.5034 215.335 75.2143 214.551C76.3646 213.286 75.5809 212.906 74.4179 211.944C72.3225 210.155 70.0767 208.55 67.7055 207.148Z" fill="url(#paint12_linear)"/>
<path d="M84.6064 232.459C84.6064 232.459 77.5654 235.243 71.9654 231.485C66.3653 227.726 57.8958 222.145 57.8958 222.145L44.8249 217.082V239.015C44.8249 239.015 45.1536 245.912 48.7437 247.697C47.1768 247.754 45.6138 247.505 44.1423 246.963C40.0719 245.153 39.2755 239.799 39.0859 235.357C38.5297 222.537 38.7825 209.249 39.2628 196.036L75.922 224.119L84.6064 232.459Z" fill="url(#paint13_linear)"/>
<path d="M28.4542 192.075C27.7795 193.575 27.4802 195.217 27.5819 196.859C27.9532 198.574 28.8088 200.147 30.0469 201.39C36.949 209.363 46.8469 213.957 56.4289 218.323C57.9924 219.173 59.7132 219.694 61.4853 219.854C66.0488 219.854 67.9196 216.981 68.5643 212.463C68.7104 211.759 68.6844 211.029 68.4885 210.337C67.9654 209.307 67.1288 208.469 66.0993 207.945C60.7648 204.503 53.4582 201.909 48.9706 197.403C48.3142 196.843 47.8683 196.075 47.7065 195.226C47.6054 194.176 58.0217 177.23 55.6072 171.421C53.1928 165.612 50.121 156.69 44.0533 160.246C35.3815 165.384 31.0582 184.811 28.4542 192.075Z" fill="#FDBC68"/>
<path d="M151.389 179.546C151.535 179.454 151.699 179.397 151.869 179.377C152.04 179.357 152.213 179.376 152.375 179.432C152.502 179.528 152.604 179.653 152.674 179.795C152.745 179.938 152.781 180.095 152.78 180.255C152.946 181.54 152.781 182.847 152.299 184.051L159.075 184.659C161.199 184.849 163.689 185.266 164.624 187.19C165.56 189.113 164.106 191.759 162.21 193.075C158.847 195.403 154.524 195.72 150.441 195.796C148.01 195.957 145.569 195.726 143.21 195.112C139.658 194.011 135.461 189.923 138.28 186.253C140.758 182.912 147.812 181.204 151.389 179.546Z" fill="url(#paint14_linear)"/>
<path d="M80.2574 213.476C81.0253 213.5 81.7775 213.699 82.457 214.058C82.7907 214.248 83.0508 214.544 83.1953 214.9C83.3398 215.256 83.3603 215.65 83.2534 216.019C82.6719 217.475 79.8782 217.121 79.638 218.677C79.6437 219.012 79.7224 219.342 79.8687 219.644C80.015 219.946 80.2253 220.212 80.485 220.424L84.4922 224.714C85.5345 225.698 86.3685 226.881 86.9446 228.194C87.2139 228.861 87.2759 229.593 87.1226 230.295C86.9692 230.998 86.6075 231.637 86.085 232.13C85.5206 232.469 84.8931 232.688 84.241 232.775C83.5889 232.862 82.9259 232.815 82.2926 232.636C78.3581 231.937 74.6259 230.378 71.3617 228.07C68.0975 225.762 65.3814 222.763 63.4068 219.285C57.6046 208.844 75.5802 212.995 80.2574 213.476Z" fill="url(#paint15_linear)"/>
<path d="M93.9735 122.026C93.6448 125.43 93.2908 128.847 92.9495 132.252C92.9337 132.643 92.8657 133.03 92.7473 133.403C92.5956 133.796 92.3301 134.137 92.1658 134.542C91.9182 135.336 91.8534 136.175 91.9762 136.998C92.229 140.794 91.9762 145.021 89.448 147.945C89.0077 148.474 88.4873 148.931 87.9057 149.299C86.2367 150.147 84.3314 150.41 82.4954 150.046C82.0006 149.976 81.4985 149.976 81.0037 150.046C80.6744 150.073 80.3655 150.217 80.1315 150.451C79.8955 150.718 79.7189 151.033 79.6132 151.374C79.3586 152.065 79.1475 152.771 78.9811 153.488C78.8693 154.345 78.5238 155.155 77.9825 155.829C77.3734 156.329 76.5927 156.57 75.8082 156.5C75.4457 156.488 75.0854 156.437 74.7337 156.348C73.047 155.844 71.4751 155.014 70.1071 153.906C69.1912 153.418 68.4426 152.666 67.958 151.748C67.4735 150.83 67.2754 149.787 67.3893 148.755C67.1954 145.144 67.0016 141.541 66.8078 137.947C66.5297 132.884 66.3021 127.658 68.35 123.051C69.9057 119.546 72.6722 116.72 76.1414 115.093C79.6107 113.465 83.5499 113.146 87.2358 114.192C88.285 114.459 89.287 114.886 90.2064 115.458C91.4467 116.32 92.5287 117.39 93.4046 118.622C94.3274 119.824 94.1125 120.558 93.9735 122.026Z" fill="url(#paint16_linear)"/>
<path d="M89.5881 119.47C87.633 119.653 85.665 119.653 83.71 119.47C81.5343 119.403 79.3723 119.836 77.3894 120.735C75.8674 121.51 74.5661 122.658 73.6068 124.072C72.6475 125.486 72.0614 127.12 71.9032 128.822C71.8021 129.986 71.6757 131.505 70.538 131.784C69.4003 132.062 68.7429 131.075 67.7696 130.974C67.2106 130.967 66.6688 131.167 66.2486 131.536C65.8285 131.906 65.5597 132.417 65.4942 132.973C65.4086 134.098 65.7073 135.218 66.3411 136.15C66.9779 137.067 67.5441 138.032 68.035 139.035C68.4288 140.089 68.5191 141.233 68.2957 142.336C68.0722 143.439 67.5439 144.457 66.7709 145.275C64.3221 142.358 62.7448 138.81 62.2201 135.036C61.7019 131.281 61.7274 127.47 62.296 123.722C62.4062 122.403 62.7575 121.117 63.3325 119.925C63.6612 119.343 64.1036 118.812 64.4323 118.229C64.9632 117.268 65.2161 116.166 65.6964 115.154C66.9683 112.497 69.2415 110.453 72.017 109.472C74.7637 108.501 77.6843 108.121 80.5876 108.358C82.4242 108.587 84.2859 108.514 86.0991 108.143C89.1456 107.27 96.0224 104.055 97.4761 109.105C98.8666 113.876 93.8861 118.723 89.5881 119.47Z" fill="#3E3E54"/>
<path d="M78.2736 131.125C77.9255 131.066 77.5675 131.131 77.2624 131.309C76.9573 131.487 76.7246 131.767 76.605 132.1C76.2595 132.799 76.0943 133.573 76.1246 134.353C76.153 134.738 76.2692 135.112 76.4642 135.445C76.6592 135.779 76.9279 136.063 77.2497 136.276C77.7383 136.511 78.2752 136.628 78.8172 136.618C79.9079 136.669 81.001 136.605 82.0786 136.428C82.2292 136.418 82.3739 136.365 82.4957 136.276C82.6138 136.13 82.6724 135.945 82.6601 135.757L82.7991 133.467C82.8552 133.021 82.8208 132.569 82.698 132.138C82.1038 130.556 79.5377 131.024 78.2736 131.125Z" stroke="white" stroke-width="0.77" stroke-miterlimit="10"/>
<path d="M87.8307 131.125C87.3498 131.11 86.8791 131.267 86.5034 131.568C86.3635 131.725 86.2522 131.905 86.1747 132.1C85.8235 132.797 85.658 133.573 85.6944 134.352C85.7133 134.743 85.8267 135.124 86.0249 135.461C86.2231 135.798 86.5001 136.082 86.8321 136.289C87.3167 136.522 87.8491 136.639 88.3869 136.63C89.4819 136.682 90.5792 136.618 91.661 136.441C91.8082 136.433 91.9493 136.38 92.0655 136.289C92.1263 136.218 92.1722 136.135 92.2004 136.046C92.2287 135.957 92.2387 135.863 92.2298 135.77L92.3689 133.479C92.4378 133.034 92.4032 132.58 92.2677 132.15C91.6736 130.556 89.1075 131.024 87.8307 131.125Z" stroke="white" stroke-width="0.77" stroke-miterlimit="10"/>
<path d="M67.4535 129.949C67.2375 129.879 67.0097 129.853 66.7835 129.873C65.9672 129.926 65.1885 130.236 64.5587 130.758C64.3014 130.969 64.0868 131.226 63.9267 131.518C63.7118 132.038 63.6461 132.608 63.737 133.163C63.8028 134.241 64.1854 135.276 64.8368 136.137C65.2413 136.631 67.4535 138.744 68.0856 138.782C68.7176 138.82 70.0197 137.808 70.4621 137.276C71.0815 136.504 69.6784 133.707 69.6152 132.695C69.2868 131.529 68.5093 130.541 67.4535 129.949Z" fill="url(#paint17_linear)"/>
<path d="M67.6804 134.049C67.7056 133.894 67.7056 133.735 67.6804 133.58C67.649 133.433 67.5841 133.294 67.4908 133.175C67.2816 132.905 67.0025 132.698 66.6839 132.575C66.3653 132.452 66.0192 132.419 65.6831 132.479C65.4793 132.507 65.2865 132.589 65.1244 132.715C64.9623 132.842 64.8367 133.009 64.7603 133.201C64.6701 133.563 64.7151 133.945 64.8867 134.276C65.0501 134.72 65.2621 135.145 65.5188 135.542C65.7654 135.932 66.0931 136.265 66.4795 136.517C66.6746 136.641 66.8949 136.72 67.1246 136.749C67.3542 136.777 67.5873 136.754 67.8068 136.681C68.2113 136.529 68.7043 135.96 68.3756 135.542C68.2113 135.34 67.9585 135.276 67.8194 135.023C67.6716 134.721 67.6229 134.38 67.6804 134.049Z" fill="url(#paint18_linear)"/>
<path d="M81.0418 150.02C80.7125 150.048 80.4036 150.192 80.1696 150.425C79.9337 150.693 79.757 151.008 79.6513 151.349C79.3968 152.04 79.1857 152.746 79.0193 153.463C78.9075 154.32 78.562 155.13 78.0206 155.804C77.4115 156.304 76.6309 156.545 75.8464 156.475C75.4838 156.463 75.1236 156.412 74.7719 156.323C74.4106 155.478 74.2756 154.553 74.38 153.64C74.4254 152.845 74.5226 152.055 74.6707 151.273C74.6885 150.89 74.8356 150.524 75.0879 150.235C75.4883 149.942 75.9866 149.815 76.4784 149.881H80.0938C80.4132 149.9 80.7303 149.947 81.0418 150.02Z" fill="url(#paint19_linear)"/>
<path d="M96.5273 206.249L97.1215 199.782C97.1215 201.896 97.1215 204.072 97.1215 206.262L96.5273 206.249Z" fill="#FDBC68"/>
<path d="M141.847 193.834C141.875 194.914 141.527 195.97 140.861 196.821C140.144 197.432 139.266 197.823 138.333 197.947C126.539 200.706 114.315 201.187 102.217 201.655C100.283 201.719 97.8939 201.554 97.0723 199.782V182.659C97.0723 182.659 100.41 193.138 105.921 192.784C111.433 192.429 138.952 191.151 138.952 191.151L141.847 193.834Z" fill="url(#paint20_linear)"/>
<path d="M384.845 46.9779H173.385V60.5954H384.845V46.9779Z" fill="url(#paint21_linear)"/>
<path d="M384.883 146.401C381.586 152.807 376.645 158.218 370.567 162.079C364.489 165.94 357.494 168.112 350.3 168.37C343.106 168.628 335.974 166.965 329.635 163.549C323.296 160.134 317.98 155.091 314.233 148.938C310.486 142.785 308.442 135.744 308.313 128.539C308.184 121.333 309.973 114.223 313.497 107.939C317.021 101.656 322.153 96.4244 328.365 92.7835C334.577 89.1426 341.645 87.2233 348.844 87.2228H349.122V127.797L384.883 146.401Z" fill="url(#paint22_linear)"/>
<path d="M389.383 127.847C389.389 134.32 387.846 140.699 384.883 146.451L349.121 127.847V87.2734C359.824 87.3436 370.064 91.6493 377.607 99.2508C385.15 106.852 389.383 117.132 389.383 127.847Z" fill="url(#paint23_linear)"/>
<path d="M182.461 107.143H173.385V165.043H182.461V107.143Z" fill="url(#paint24_linear)"/>
<path d="M196.873 124.253H187.797V165.03H196.873V124.253Z" fill="url(#paint25_linear)"/>
<path d="M211.283 107.143H202.207V165.043H211.283V107.143Z" fill="url(#paint26_linear)"/>
<path d="M225.695 96.2843H216.619V165.043H225.695V96.2843Z" fill="url(#paint27_linear)"/>
<path d="M508.311 238.37L494.646 250.532C491.574 253.278 487.972 256.201 483.863 255.822C482.452 255.615 481.102 255.107 479.905 254.332C478.707 253.557 477.69 252.533 476.923 251.329C475.406 248.909 474.328 246.24 473.738 243.444C470.927 232.324 470.292 220.763 471.867 209.401C471.893 208.92 472.05 208.456 472.322 208.059C472.599 207.818 472.923 207.637 473.273 207.526C473.623 207.415 473.992 207.377 474.357 207.414L480.792 207.224C481.189 207.12 481.604 207.096 482.011 207.154C482.418 207.212 482.809 207.35 483.162 207.561C483.515 207.772 483.822 208.051 484.067 208.382C484.311 208.713 484.487 209.09 484.584 209.489L490.614 223.221C495.152 218.462 502.332 202.655 506.857 197.909C507.983 196.72 518.791 186.937 524.024 208.705C525.832 216.298 514.189 233.13 508.311 238.37Z" fill="#FDBC68"/>
<path d="M473.371 197.555C473.426 196.405 473.71 195.278 474.205 194.239C474.841 193.187 475.705 192.292 476.733 191.619C478.673 190.214 480.801 189.089 483.054 188.278C483.847 187.924 484.717 187.78 485.582 187.861C486.458 188.032 487.259 188.475 487.87 189.126C489.024 190.299 489.811 191.783 490.135 193.398C490.458 195.012 490.304 196.685 489.69 198.213C488.275 201.554 484.773 203.781 483.825 207.287C483.42 208.793 483.496 210.54 482.498 211.742C481.439 212.75 480.028 213.305 478.566 213.286C474.951 213.628 473.99 212.527 473.712 209.35C473.221 205.438 473.107 201.488 473.371 197.555Z" fill="url(#paint28_linear)"/>
<path d="M511.534 192.379C511.534 191.113 511.534 188.822 511.534 187.569C511.524 187.262 511.594 186.956 511.736 186.684C511.938 186.436 512.205 186.252 512.508 186.152C514.72 185.228 517.134 184.798 519.296 183.76C522.026 182.494 524.491 180.166 527.512 180.204C527.817 180.173 528.121 180.264 528.359 180.457C528.521 180.63 528.63 180.845 528.675 181.077C529.042 182.267 529.358 183.469 529.624 184.697C529.694 184.88 529.694 185.083 529.624 185.266C529.508 185.43 529.338 185.547 529.143 185.595L526.021 186.759C521.028 188.595 515.895 189.354 511.534 192.379Z" fill="#FDBC68"/>
<path d="M195.04 345.854C197.189 338.931 200.527 332.211 205.773 327.212C211.019 322.213 218.414 319.138 225.543 320.188C228.135 320.568 230.853 321.631 232.155 323.909C232.751 325.153 232.998 326.535 232.869 327.909C232.74 329.283 232.239 330.595 231.421 331.705C229.759 333.904 227.712 335.782 225.379 337.248C220.254 340.664 215.515 344.627 211.246 349.069C208.149 352.41 205.793 356.369 204.332 360.686C203.371 363.711 204.256 368.647 201.803 370.887C200.839 371.649 199.674 372.114 198.451 372.224C197.227 372.334 195.998 372.085 194.914 371.507C191.741 369.723 192.272 365.28 192.31 362.142C192.438 356.61 193.357 351.125 195.04 345.854Z" fill="#FDBC68"/>
<path d="M195.04 345.854C197.189 338.931 200.527 332.211 205.773 327.212C211.019 322.213 218.414 319.138 225.543 320.188C228.135 320.568 230.853 321.631 232.155 323.909C232.751 325.153 232.998 326.535 232.869 327.909C232.74 329.283 232.239 330.595 231.421 331.705C229.759 333.904 227.712 335.782 225.379 337.248C220.254 340.664 215.515 344.627 211.246 349.069C208.149 352.41 205.793 356.369 204.332 360.686C203.371 363.711 204.256 368.647 201.803 370.887C200.839 371.649 199.674 372.114 198.451 372.224C197.227 372.334 195.998 372.085 194.914 371.507C191.741 369.723 192.272 365.28 192.31 362.142C192.438 356.61 193.357 351.125 195.04 345.854Z" fill="url(#paint29_linear)"/>
<path d="M196.077 355.498C195.789 354.344 195.607 353.166 195.533 351.979C195.53 350.898 195.77 349.829 196.233 348.853C196.697 347.876 197.374 347.016 198.213 346.335C199.024 345.743 199.868 345.198 200.741 344.702C201.672 344.211 202.473 343.504 203.077 342.642C203.682 341.779 204.073 340.785 204.218 339.741C204.218 338.944 204.041 338.147 204.079 337.362C204.069 336.962 204.176 336.568 204.387 336.229C204.598 335.889 204.904 335.619 205.267 335.451C205.717 335.39 206.176 335.463 206.585 335.661C206.994 335.859 207.336 336.173 207.568 336.565C208.57 337.971 209.129 339.646 209.173 341.374C209.201 343.092 208.945 344.802 208.414 346.436C207.695 349.405 205.943 352.021 203.472 353.814C202.393 354.367 201.347 354.979 200.337 355.649C198.956 356.961 197.949 358.616 197.417 360.446C197.341 360.636 196.481 368.292 196.317 368.419C195.23 369.254 196.431 359.775 196.469 359.396C196.497 358.085 196.365 356.776 196.077 355.498Z" fill="url(#paint30_linear)"/>
<path d="M176.129 361.648C174.222 359.911 172.022 358.527 169.631 357.561C164.962 355.272 160.444 352.684 156.105 349.815C154.083 348.474 151.972 346.892 151.264 344.563C150.556 342.235 151.34 340.007 152.085 337.818C152.831 335.628 154.095 332.692 156.56 332.186C157.898 332.032 159.251 332.288 160.441 332.92C168.019 336.194 174.26 341.952 178.139 349.246C179.079 351.056 179.923 352.915 180.667 354.814C182.422 359.311 183.879 363.92 185.028 368.609C185.837 371.95 183.334 377.999 180.553 373.013C178.379 369.318 179.314 365.015 176.129 361.648Z" fill="#FDBC68"/>
<path d="M176.129 361.648C174.222 359.911 172.022 358.527 169.631 357.561C164.962 355.272 160.444 352.684 156.105 349.815C154.083 348.474 151.972 346.892 151.264 344.563C150.556 342.235 151.34 340.007 152.085 337.818C152.831 335.628 154.095 332.692 156.56 332.186C157.898 332.032 159.251 332.288 160.441 332.92C168.019 336.194 174.26 341.952 178.139 349.246C179.079 351.056 179.923 352.915 180.667 354.814C182.422 359.311 183.879 363.92 185.028 368.609C185.837 371.95 183.334 377.999 180.553 373.013C178.379 369.318 179.314 365.015 176.129 361.648Z" fill="url(#paint31_linear)"/>
<path d="M179.529 355.725C179.524 354.659 179.422 353.596 179.226 352.549C178.992 351.605 178.549 350.726 177.93 349.976C177.311 349.227 176.531 348.627 175.648 348.22C174.821 347.89 173.977 347.603 173.12 347.36C172.2 347.142 171.346 346.706 170.629 346.09C169.912 345.473 169.353 344.694 168.999 343.816C168.797 343.12 168.797 342.386 168.582 341.703C168.506 341.352 168.327 341.032 168.068 340.784C167.809 340.536 167.482 340.371 167.128 340.311C166.319 340.311 165.7 341.032 165.384 341.791C164.817 343.233 164.698 344.812 165.042 346.322C165.39 347.825 165.988 349.258 166.812 350.562C168.092 352.987 170.194 354.876 172.741 355.89C173.802 356.134 174.849 356.438 175.876 356.801C177.374 357.63 178.619 358.85 179.479 360.332C179.58 360.484 183.397 370.456 183.574 370.456C184.699 370.95 180.186 359.509 180.073 359.18C179.748 358.056 179.565 356.895 179.529 355.725Z" fill="url(#paint32_linear)"/>
<path d="M181.538 360.952C179.363 357.749 177.473 354.361 175.888 350.828C174.644 347.519 174.158 343.973 174.464 340.451C174.77 336.929 175.862 333.521 177.658 330.477C179.499 327.744 181.486 325.112 183.612 322.593C187.771 317.126 190.804 309.937 188.668 303.457C187.834 300.926 186.317 298.788 185.546 296.307C184.775 293.827 184.964 290.713 187.012 289.119C189.351 287.309 192.802 288.334 195.305 289.929C199.969 293.074 203.577 297.555 205.658 302.787C207.721 307.999 208.887 313.523 209.109 319.125C209.728 328.984 208.35 339.475 202.358 347.335C199.957 350.473 196.885 353.118 194.85 356.51C191.677 361.825 191.386 368.318 191.373 374.506C191.43 375.185 191.304 375.867 191.007 376.481C188.63 380.277 187.594 373.583 187.214 372.393C186.089 368.432 183.65 364.445 181.538 360.952Z" fill="#FDBC68"/>
<path d="M181.538 360.952C179.363 357.749 177.473 354.361 175.888 350.828C174.644 347.519 174.158 343.973 174.464 340.451C174.77 336.929 175.862 333.521 177.658 330.477C179.499 327.744 181.486 325.112 183.612 322.593C187.771 317.126 190.804 309.937 188.668 303.457C187.834 300.926 186.317 298.788 185.546 296.307C184.775 293.827 184.964 290.713 187.012 289.119C189.351 287.309 192.802 288.334 195.305 289.929C199.969 293.074 203.577 297.555 205.658 302.787C207.721 307.999 208.887 313.523 209.109 319.125C209.728 328.984 208.35 339.475 202.358 347.335C199.957 350.473 196.885 353.118 194.85 356.51C191.677 361.825 191.386 368.318 191.373 374.506C191.43 375.185 191.304 375.867 191.007 376.481C188.63 380.277 187.594 373.583 187.214 372.393C186.089 368.432 183.65 364.445 181.538 360.952Z" fill="url(#paint33_linear)"/>
<path d="M185.723 360.737C185.06 359.749 184.481 358.708 183.991 357.624C183.611 356.611 183.463 355.526 183.557 354.449C183.651 353.371 183.985 352.329 184.534 351.397C185.098 350.556 185.71 349.749 186.367 348.98C187.631 347.309 188.567 345.107 187.897 343.12C187.644 342.361 187.176 341.69 186.936 340.931C186.788 340.56 186.752 340.153 186.833 339.761C186.914 339.37 187.108 339.011 187.391 338.729C187.79 338.516 188.242 338.425 188.692 338.468C189.141 338.511 189.568 338.685 189.919 338.969C191.348 339.938 192.453 341.314 193.092 342.918C193.731 344.533 194.09 346.245 194.154 347.98C194.506 351.016 193.772 354.079 192.081 356.624C191.262 357.517 190.494 358.455 189.78 359.434C188.939 361.14 188.572 363.041 188.719 364.939C188.731 365.148 188.692 365.356 188.605 365.546C187.872 366.723 187.556 364.66 187.454 364.281C187.032 363.03 186.45 361.838 185.723 360.737Z" fill="url(#paint34_linear)"/>
<path d="M173.512 368.748H207.175L199.224 394.49H180.414L173.512 368.748Z" fill="#FDBC68"/>
<path d="M173.512 368.748H207.175L199.224 394.49H180.414L173.512 368.748Z" fill="url(#paint35_linear)"/>
<path d="M208.377 368.786H171.92V375.987H208.377V368.786Z" fill="#FDBC68"/>
<path d="M208.377 368.786H171.92V375.987H208.377V368.786Z" fill="url(#paint36_linear)"/>
</g>
<defs>
<linearGradient id="paint0_linear" x1="543.05" y1="347.752" x2="563.999" y2="322.895" gradientUnits="userSpaceOnUse">
<stop stop-opacity="0"/>
<stop offset="0.99"/>
</linearGradient>
<linearGradient id="paint1_linear" x1="9573.36" y1="21547" x2="10756.7" y2="21229.9" gradientUnits="userSpaceOnUse">
<stop stop-opacity="0"/>
<stop offset="0.99"/>
</linearGradient>
<linearGradient id="paint2_linear" x1="36060.1" y1="19137" x2="40047.3" y2="25690.1" gradientUnits="userSpaceOnUse">
<stop stop-opacity="0"/>
<stop offset="0.99"/>
</linearGradient>
<linearGradient id="paint3_linear" x1="3090.5" y1="45813.5" x2="11573.5" y2="19172" gradientUnits="userSpaceOnUse">
<stop stop-opacity="0"/>
<stop offset="0.99"/>
</linearGradient>
<linearGradient id="paint4_linear" x1="31646.4" y1="24462.7" x2="39938.6" y2="24462.7" gradientUnits="userSpaceOnUse">
<stop stop-opacity="0"/>
<stop offset="0.99"/>
</linearGradient>
<linearGradient id="paint5_linear" x1="8854.94" y1="15271.8" x2="13321.8" y2="12622.9" gradientUnits="userSpaceOnUse">
<stop stop-opacity="0"/>
<stop offset="0.99"/>
</linearGradient>
<linearGradient id="paint6_linear" x1="493.129" y1="166.207" x2="527.184" y2="166.207" gradientUnits="userSpaceOnUse">
<stop stop-color="#E5C5D5"/>
<stop offset="0.42" stop-color="#EAD4D1"/>
<stop offset="1" stop-color="#F0E9CB"/>
</linearGradient>
<linearGradient id="paint7_linear" x1="89978.3" y1="2130.69" x2="89978.3" y2="2718.61" gradientUnits="userSpaceOnUse">
<stop stop-opacity="0"/>
<stop offset="0.99"/>
</linearGradient>
<linearGradient id="paint8_linear" x1="1627.16" y1="37974.9" x2="-4202.82" y2="27059.5" gradientUnits="userSpaceOnUse">
<stop stop-opacity="0"/>
<stop offset="0.99"/>
</linearGradient>
<linearGradient id="paint9_linear" x1="2014.91" y1="38025.9" x2="-3859.3" y2="27058.3" gradientUnits="userSpaceOnUse">
<stop stop-opacity="0"/>
<stop offset="0.99"/>
</linearGradient>
<linearGradient id="paint10_linear" x1="3478.74" y1="46199.4" x2="12056.1" y2="19424.8" gradientUnits="userSpaceOnUse">
<stop stop-opacity="0"/>
<stop offset="0.99"/>
</linearGradient>
<linearGradient id="paint11_linear" x1="2610.86" y1="48149.9" x2="8058.83" y2="29608.8" gradientUnits="userSpaceOnUse">
<stop stop-opacity="0"/>
<stop offset="0.99"/>
</linearGradient>
<linearGradient id="paint12_linear" x1="1876.43" y1="5744.61" x2="-317.709" y2="6855.53" gradientUnits="userSpaceOnUse">
<stop stop-opacity="0"/>
<stop offset="0.99"/>
</linearGradient>
<linearGradient id="paint13_linear" x1="2596.47" y1="10731.8" x2="573.69" y2="6596.33" gradientUnits="userSpaceOnUse">
<stop stop-opacity="0"/>
<stop offset="0.99"/>
</linearGradient>
<linearGradient id="paint14_linear" x1="3129.03" y1="2643.22" x2="3730.67" y2="2643.22" gradientUnits="userSpaceOnUse">
<stop stop-color="#E5C5D5"/>
<stop offset="0.42" stop-color="#EAD4D1"/>
<stop offset="1" stop-color="#F0E9CB"/>
</linearGradient>
<linearGradient id="paint15_linear" x1="1288.28" y1="3854.1" x2="1779.58" y2="3854.1" gradientUnits="userSpaceOnUse">
<stop stop-color="#E5C5D5"/>
<stop offset="0.42" stop-color="#EAD4D1"/>
<stop offset="1" stop-color="#F0E9CB"/>
</linearGradient>
<linearGradient id="paint16_linear" x1="1511.56" y1="4750.69" x2="2108.49" y2="4750.69" gradientUnits="userSpaceOnUse">
<stop stop-color="#E5C5D5"/>
<stop offset="0.42" stop-color="#EAD4D1"/>
<stop offset="1" stop-color="#F0E9CB"/>
</linearGradient>
<linearGradient id="paint17_linear" x1="426.151" y1="1084.16" x2="561.558" y2="1127.31" gradientUnits="userSpaceOnUse">
<stop stop-color="#E5C5D5"/>
<stop offset="0.42" stop-color="#EAD4D1"/>
<stop offset="1" stop-color="#F0E9CB"/>
</linearGradient>
<linearGradient id="paint18_linear" x1="274.607" y1="594.595" x2="254.197" y2="597.177" gradientUnits="userSpaceOnUse">
<stop stop-color="#E5C5D5"/>
<stop offset="0.42" stop-color="#EAD4D1"/>
<stop offset="1" stop-color="#F0E9CB"/>
</linearGradient>
<linearGradient id="paint19_linear" x1="481.671" y1="1000.8" x2="492.676" y2="842.306" gradientUnits="userSpaceOnUse">
<stop stop-opacity="0"/>
<stop offset="0.99"/>
</linearGradient>
<linearGradient id="paint20_linear" x1="4412.17" y1="2938.86" x2="4264.72" y2="3904.81" gradientUnits="userSpaceOnUse">
<stop stop-opacity="0"/>
<stop offset="0.99"/>
</linearGradient>
<linearGradient id="paint21_linear" x1="173.385" y1="53.7867" x2="384.845" y2="53.7867" gradientUnits="userSpaceOnUse">
<stop offset="0.02" stop-color="white" stop-opacity="0"/>
<stop offset="0.32" stop-color="white" stop-opacity="0.39"/>
<stop offset="0.68" stop-color="white" stop-opacity="0.68"/>
<stop offset="1" stop-color="white"/>
</linearGradient>
<linearGradient id="paint22_linear" x1="16914" y1="10324" x2="22707.9" y2="8122.99" gradientUnits="userSpaceOnUse">
<stop offset="0.02" stop-color="white" stop-opacity="0"/>
<stop offset="0.32" stop-color="white" stop-opacity="0.39"/>
<stop offset="0.68" stop-color="white" stop-opacity="0.68"/>
<stop offset="1" stop-color="white"/>
</linearGradient>
<linearGradient id="paint23_linear" x1="11255.3" y1="5964.82" x2="13089.5" y2="5599.85" gradientUnits="userSpaceOnUse">
<stop offset="0.02" stop-color="white" stop-opacity="0"/>
<stop offset="0.32" stop-color="white" stop-opacity="0.39"/>
<stop offset="0.68" stop-color="white" stop-opacity="0.68"/>
<stop offset="1" stop-color="white"/>
</linearGradient>
<linearGradient id="paint24_linear" x1="1420.19" y1="3551.59" x2="3338.38" y2="7822.78" gradientUnits="userSpaceOnUse">
<stop offset="0.02" stop-color="white" stop-opacity="0"/>
<stop offset="0.32" stop-color="white" stop-opacity="0.39"/>
<stop offset="0.68" stop-color="white" stop-opacity="0.68"/>
<stop offset="1" stop-color="white"/>
</linearGradient>
<linearGradient id="paint25_linear" x1="187.392" y1="74.3268" x2="195.26" y2="185.961" gradientUnits="userSpaceOnUse">
<stop offset="0.02" stop-color="white" stop-opacity="0"/>
<stop offset="0.32" stop-color="white" stop-opacity="0.39"/>
<stop offset="0.67" stop-color="white" stop-opacity="0.68"/>
<stop offset="1" stop-color="white"/>
</linearGradient>
<linearGradient id="paint26_linear" x1="1654.96" y1="3458.95" x2="3573.14" y2="7730.14" gradientUnits="userSpaceOnUse">
<stop offset="0.02" stop-color="white" stop-opacity="0"/>
<stop offset="0.32" stop-color="white" stop-opacity="0.39"/>
<stop offset="0.68" stop-color="white" stop-opacity="0.68"/>
<stop offset="1" stop-color="white"/>
</linearGradient>
<linearGradient id="paint27_linear" x1="1775.02" y1="4020.31" x2="4306" y2="8766.54" gradientUnits="userSpaceOnUse">
<stop offset="0.02" stop-color="white" stop-opacity="0"/>
<stop offset="0.32" stop-color="white" stop-opacity="0.39"/>
<stop offset="0.68" stop-color="white" stop-opacity="0.68"/>
<stop offset="1" stop-color="white"/>
</linearGradient>
<linearGradient id="paint28_linear" x1="6860.15" y1="4264.31" x2="7091.07" y2="4264.31" gradientUnits="userSpaceOnUse">
<stop stop-color="#E5C5D5"/>
<stop offset="0.42" stop-color="#EAD4D1"/>
<stop offset="1" stop-color="#F0E9CB"/>
</linearGradient>
<linearGradient id="paint29_linear" x1="7291.13" y1="14499.9" x2="6164.54" y2="14826.4" gradientUnits="userSpaceOnUse">
<stop stop-opacity="0"/>
<stop offset="0.99"/>
</linearGradient>
<linearGradient id="paint30_linear" x1="-17876.4" y1="-15766.6" x2="-18204.1" y2="-15167.6" gradientUnits="userSpaceOnUse">
<stop stop-opacity="0"/>
<stop offset="0.99"/>
</linearGradient>
<linearGradient id="paint31_linear" x1="4546.89" y1="11491.2" x2="4980.81" y2="13274.3" gradientUnits="userSpaceOnUse">
<stop stop-opacity="0"/>
<stop offset="0.99"/>
</linearGradient>
<linearGradient id="paint32_linear" x1="152284" y1="-11764.1" x2="152690" y2="-11285.8" gradientUnits="userSpaceOnUse">
<stop stop-opacity="0"/>
<stop offset="0.99"/>
</linearGradient>
<linearGradient id="paint33_linear" x1="5506.23" y1="22059.1" x2="4768.14" y2="26822.7" gradientUnits="userSpaceOnUse">
<stop stop-opacity="0"/>
<stop offset="0.99"/>
</linearGradient>
<linearGradient id="paint34_linear" x1="1786.85" y1="7834.82" x2="1717.9" y2="8282.57" gradientUnits="userSpaceOnUse">
<stop stop-opacity="0"/>
<stop offset="0.99"/>
</linearGradient>
<linearGradient id="paint35_linear" x1="4794.13" y1="8130.86" x2="5690.59" y2="8130.86" gradientUnits="userSpaceOnUse">
<stop stop-opacity="0"/>
<stop offset="0.99"/>
</linearGradient>
<linearGradient id="paint36_linear" x1="5639.73" y1="2473.01" x2="5642.42" y2="2536.27" gradientUnits="userSpaceOnUse">
<stop stop-opacity="0"/>
<stop offset="0.99"/>
</linearGradient>
<clipPath id="clip0">
<rect width="579" height="457.502" fill="white"/>
</clipPath>
</defs>
</svg>
