<svg width="539" height="440" viewBox="0 0 539 440" fill="none" xmlns="http://www.w3.org/2000/svg">
<g clip-path="url(#clip0)">
<path opacity="0.18" d="M528.491 353.26C528.133 363.545 525.777 374.015 520.02 382.54C512.766 393.275 500.986 399.92 489.577 406.167L457.228 423.971C443.052 431.78 428.108 439.775 411.947 440C400.511 440.172 389.446 436.4 378.446 433.236C327.077 418.411 272.968 416.333 219.865 420.079C192.665 421.998 165.597 425.374 138.648 429.437C117.087 432.641 91.2101 443.296 71.7663 430.682C50.5886 416.915 37.5907 394.625 25.6253 372.983C15.2085 354.2 4.64611 334.954 1.20472 313.762C-4.08971 281.015 8.59046 247.38 28.4314 220.774C34.3982 212.829 40.913 205.31 47.9281 198.272V318.501C47.9281 321.649 49.174 324.669 51.3938 326.901C53.6135 329.133 56.6265 330.396 59.7744 330.414H526.333C527.994 337.911 528.719 345.585 528.491 353.26Z" fill="#FDBC68"/>
<path opacity="0.18" d="M354.172 16.3077H229.422C234.117 12.7374 239.217 9.73395 244.617 7.35968C254.478 3.05776 265.225 1.13844 275.947 0.370716C302.922 -1.57507 329.976 4.38143 354.172 16.3077Z" fill="#FDBC68"/>
<path opacity="0.18" d="M538.179 28.1545V86.131H47.9277V28.1545C47.9277 25.0064 49.1737 21.9862 51.3934 19.754C53.6131 17.5218 56.6261 16.2589 59.774 16.2415H526.333C529.481 16.2589 532.494 17.5218 534.714 19.754C536.933 21.9862 538.179 25.0064 538.179 28.1545Z" fill="#FDBC68"/>
<path d="M468.108 90.7372H333.881V99.9102H468.108V90.7372Z" fill="white"/>
<path d="M323.648 90.7372H235.363V99.9102H323.648V90.7372Z" fill="white"/>
<path d="M466.917 71.7429H332.689V80.9159H466.917V71.7429Z" fill="white"/>
<path d="M322.459 54.5088H234.174V63.6818H322.459V54.5088Z" fill="white"/>
<path d="M322.459 38.7832H234.174V47.9562H322.459V38.7832Z" fill="white"/>
<path opacity="0.48" d="M526.346 16.2944H59.774C53.2315 16.2944 47.9277 21.5984 47.9277 28.1412V318.488C47.9277 325.03 53.2315 330.334 59.774 330.334H526.346C532.889 330.334 538.192 325.03 538.192 318.488V28.1412C538.192 21.5984 532.889 16.2944 526.346 16.2944Z" fill="#FDBC68"/>
<path d="M240.022 290.81C241.238 292.421 242.698 293.832 244.35 294.992C246.807 296.317 249.511 297.119 252.292 297.348L294.542 303.715C294.962 303.744 295.368 303.881 295.72 304.112C295.954 304.367 296.131 304.669 296.239 304.998C296.346 305.327 296.381 305.675 296.342 306.019C296.538 313.929 295.47 321.82 293.178 329.394C293.058 330.014 292.759 330.584 292.318 331.036C291.748 331.422 291.074 331.625 290.386 331.618C276.17 332.823 261.888 332.439 247.633 332.055C245.236 332.089 242.845 331.826 240.512 331.274C236.541 330.162 233.298 327.449 230.307 324.656C223.887 318.686 197.905 294.688 196.33 291.432C194.241 286.767 192.558 281.931 191.3 276.977C189.977 272.212 199.652 271.616 199.454 266.666C199.314 263.243 199.725 259.819 200.671 256.527C201.376 253.59 202.836 250.888 204.907 248.691C206.363 247.367 204.113 238.392 206.125 238.286C208.454 246.228 218.99 262.112 223.57 268.916C228.66 276.502 234.152 283.81 240.022 290.81Z" fill="#FDBC68"/>
<path d="M240.022 290.81C241.238 292.421 242.698 293.832 244.35 294.992C246.807 296.317 249.511 297.119 252.292 297.348L294.542 303.715C294.962 303.744 295.368 303.881 295.72 304.112C295.954 304.367 296.131 304.669 296.239 304.998C296.346 305.327 296.381 305.675 296.342 306.019C296.538 313.929 295.47 321.82 293.178 329.394C293.058 330.014 292.759 330.584 292.318 331.036C291.748 331.422 291.074 331.625 290.386 331.618C276.17 332.823 261.888 332.439 247.633 332.055C245.236 332.089 242.845 331.826 240.512 331.274C236.541 330.162 233.298 327.449 230.307 324.656C223.887 318.686 197.905 294.688 196.33 291.432C194.241 286.767 192.558 281.931 191.3 276.977C189.977 272.212 199.652 271.616 199.454 266.666C199.314 263.243 199.725 259.819 200.671 256.527C201.376 253.59 202.836 250.888 204.907 248.691C206.363 247.367 204.113 238.392 206.125 238.286C208.454 246.228 218.99 262.112 223.57 268.916C228.66 276.502 234.152 283.81 240.022 290.81Z" fill="url(#paint0_linear)"/>
<path d="M133.115 223.752C130.27 226.289 127.615 229.032 125.174 231.959C119.323 239.147 115.432 247.698 111.805 256.222C102.156 278.91 93.7512 303.172 96.2528 327.7C96.3001 329.176 96.6995 330.619 97.4176 331.909C98.5568 333.369 100.157 334.401 101.958 334.835C106.603 336.317 111.567 336.383 116.517 336.423C135.59 336.595 154.69 336.767 173.75 335.841C176.702 335.695 179.825 335.47 182.274 333.802C184.063 332.433 185.49 330.647 186.43 328.6C191.553 318.964 193.048 307.818 197.019 297.679C202.314 284.443 216.873 272.41 213.802 258.459C200.672 199.225 139.124 218.286 133.115 223.752Z" fill="#FDBC68"/>
<path d="M133.115 223.752C130.27 226.289 127.615 229.032 125.174 231.959C119.323 239.147 115.432 247.698 111.805 256.222C102.156 278.91 93.7512 303.172 96.2528 327.7C96.3001 329.176 96.6995 330.619 97.4176 331.909C98.5568 333.369 100.157 334.401 101.958 334.835C106.603 336.317 111.567 336.383 116.517 336.423C135.59 336.595 154.69 336.767 173.75 335.841C176.702 335.695 179.825 335.47 182.274 333.802C184.063 332.433 185.49 330.647 186.43 328.6C191.553 318.964 193.048 307.818 197.019 297.679C202.314 284.443 216.873 272.41 213.802 258.459C200.672 199.225 139.124 218.286 133.115 223.752Z" fill="url(#paint1_linear)"/>
<path d="M219.308 174.684C217.071 185.551 214.728 196.71 208.719 206.068C206.528 209.847 203.359 212.966 199.546 215.096C195.668 217.042 190.744 217.306 187.118 214.924C185.304 213.746 183.319 211.892 181.347 212.766C179.917 213.415 179.454 215.188 179.255 216.737C178.759 220.542 178.812 224.398 179.414 228.187C179.66 229.254 179.722 230.355 179.599 231.443C179.343 232.45 178.8 233.361 178.037 234.066C177.273 234.771 176.322 235.239 175.298 235.414C173.25 235.713 171.16 235.385 169.302 234.474C166.411 233.181 163.882 231.2 161.934 228.703C159.987 226.206 158.681 223.27 158.131 220.152C157.853 218.046 157.72 215.923 157.733 213.799C157.482 204.374 155.986 194.989 156.291 185.578C156.595 176.167 158.938 166.372 165.331 159.422C169.023 155.638 173.409 152.6 178.249 150.474C185.463 147.033 193.511 144.61 201.399 145.868C204.538 146.364 207.533 147.534 210.177 149.298C212.82 151.062 215.05 153.378 216.713 156.087C220.843 162.427 220.856 167.153 219.308 174.684Z" fill="#FFDAD2"/>
<path d="M239.018 150.739C239.556 146.322 238.736 141.846 236.667 137.907C234.598 133.967 231.378 130.751 227.437 128.687C223.929 126.94 220.025 126.198 216.239 125.192C207.371 122.81 198.86 118.865 189.767 118.018C180.674 117.171 170.217 120.361 166.167 128.607C165.426 130.116 164.698 131.943 163.07 132.34C162.18 132.436 161.281 132.355 160.422 132.102C154.347 131.03 148.881 136.218 146.141 141.738C141.72 150.673 141.495 161.09 142.461 171.004C143.348 180.177 145.691 190.092 153.05 195.678C153.778 196.233 154.85 196.736 155.552 196.141C155.873 195.805 156.073 195.372 156.121 194.91C156.861 191.432 157.137 187.871 156.941 184.32C156.796 181.673 156.372 178.867 157.061 176.259C157.749 173.652 159.959 171.176 162.659 171.256C165.161 171.256 167.173 173.586 167.795 176.021C168.238 178.501 168.143 181.047 167.517 183.487C167.914 184.479 169.304 183.288 169.542 182.256C171.369 173.943 171.779 164.638 177.55 158.43C178.724 159.645 179.579 161.132 180.038 162.758C180.901 161.864 181.998 161.231 183.203 160.932C184.409 160.632 185.674 160.678 186.855 161.064C188.53 161.793 190.069 162.8 191.408 164.042C205.465 175.015 236.067 171.759 239.018 150.739Z" fill="#3F3D56"/>
<path d="M137.165 237.307C132.717 240.537 130.547 246.215 130.414 251.695C130.282 257.175 136.079 291.948 141.546 301.823C145.781 309.5 154.61 329.54 168.018 335.073C171.989 336.714 230.691 336.026 257.931 333.074C257.759 326.628 257.441 320.182 257.018 313.736C257.057 312.885 256.8 312.047 256.29 311.366C255.601 310.651 254.622 305.979 253.642 305.979C237.759 306.045 221.743 310.903 205.86 311.273C203.553 311.422 201.237 311.285 198.964 310.863C197.104 310.399 195.32 309.668 193.67 308.692C181.413 301.756 174.636 288.136 169.845 274.886C166.178 264.667 163.227 254.091 157.932 244.547C156.053 241.146 154.372 237.836 150.666 236.341C146.311 234.58 141.202 234.382 137.165 237.307Z" fill="#FDBC68"/>
<path d="M137.165 237.307C132.717 240.537 130.547 246.215 130.414 251.695C130.282 257.175 136.079 291.948 141.546 301.823C145.781 309.5 154.61 329.54 168.018 335.073C171.989 336.714 230.691 336.026 257.931 333.074C257.759 326.628 257.441 320.182 257.018 313.736C257.057 312.885 256.8 312.047 256.29 311.366C255.601 310.651 254.622 305.979 253.642 305.979C237.759 306.045 221.743 310.903 205.86 311.273C203.553 311.422 201.237 311.285 198.964 310.863C197.104 310.399 195.32 309.668 193.67 308.692C181.413 301.756 174.636 288.136 169.845 274.886C166.178 264.667 163.227 254.091 157.932 244.547C156.053 241.146 154.372 237.836 150.666 236.341C146.311 234.58 141.202 234.382 137.165 237.307Z" fill="url(#paint2_linear)"/>
<path d="M255.603 304.735C263.849 303.954 273.009 305.794 278.237 312.213C278.787 312.799 279.147 313.537 279.269 314.331C279.264 315.046 279.042 315.743 278.634 316.33C275.55 321.453 268.853 322.67 263.227 324.695C260.301 325.744 257.507 327.13 254.902 328.825C253.435 329.989 251.739 330.828 249.925 331.287C245.954 331.883 242.658 328.336 240.858 324.788C238.793 320.817 235.564 312.663 239.535 308.904C242.777 305.926 251.526 305.105 255.603 304.735Z" fill="#FFDAD2"/>
<path d="M323.888 302.696C325.355 303.531 326.617 304.684 327.58 306.072C328.051 306.773 328.33 307.586 328.39 308.428C328.45 309.271 328.29 310.115 327.925 310.876C327.3 311.815 326.449 312.579 325.449 313.1C318.13 317.455 309.156 318.236 301.744 322.366C300.223 323.471 298.479 324.23 296.634 324.59C295.55 324.614 294.475 324.387 293.493 323.928C292.51 323.469 291.647 322.789 290.969 321.942C289.62 320.257 288.584 318.342 287.912 316.29C279.242 293.523 311.419 294.754 323.888 302.696Z" fill="#FFDAD2"/>
<path d="M114.135 292.53H148.429V320.698C148.429 323.331 147.384 325.856 145.522 327.718C143.66 329.579 141.135 330.625 138.502 330.625H124.062C121.429 330.625 118.904 329.579 117.042 327.718C115.181 325.856 114.135 323.331 114.135 320.698V292.53Z" fill="white"/>
<path d="M146.113 299.361H156.504C158.698 299.361 160.802 300.232 162.353 301.784C163.905 303.335 164.776 305.439 164.776 307.633V311.062C164.776 313.256 163.905 315.36 162.353 316.912C160.802 318.463 158.698 319.335 156.504 319.335H146.113V299.361Z" stroke="white" stroke-width="3.3" stroke-miterlimit="10"/>
<path d="M531.64 330.016H67.08C63.0156 330.016 59.7207 333.308 59.7207 337.369C59.7207 341.43 63.0156 344.722 67.08 344.722H531.64C535.705 344.722 539 341.43 539 337.369C539 333.308 535.705 330.016 531.64 330.016Z" fill="#FDBC68"/>
<path d="M446.241 344.948H183.65V436.029H446.241V344.948Z" fill="#FDBC68"/>
<path d="M185.438 344.948H82.2891V436.029H185.438V344.948Z" fill="#FDBC68"/>
<path d="M446.255 344.948H185.385V436.029H446.255V344.948Z" fill="url(#paint3_linear)"/>
<path d="M185.438 344.948H82.2891V436.029H185.438V344.948Z" fill="url(#paint4_linear)"/>
<path d="M259.534 329.765H429.538C434.304 329.765 438.168 325.901 438.168 321.135C438.168 316.368 434.304 312.504 429.538 312.504H259.534C254.768 312.504 250.904 316.368 250.904 321.135C250.904 325.901 254.768 329.765 259.534 329.765Z" fill="#FDBC68"/>
<path d="M259.534 329.765H429.538C434.304 329.765 438.168 325.901 438.168 321.135C438.168 316.368 434.304 312.504 429.538 312.504H259.534C254.768 312.504 250.904 316.368 250.904 321.135C250.904 325.901 254.768 329.765 259.534 329.765Z" fill="url(#paint5_linear)"/>
<path d="M318.486 329.791H448.954L483.368 242.522C483.825 241.359 483.991 240.102 483.852 238.86C483.712 237.618 483.272 236.429 482.569 235.396C481.866 234.363 480.922 233.518 479.818 232.932C478.714 232.347 477.484 232.04 476.234 232.039H373.853C368.9 232.048 364.065 233.544 359.973 236.334C355.88 239.123 352.72 243.078 350.902 247.684L318.486 329.791Z" fill="#FDBC68"/>
<path d="M325.117 329.884H449.033L481.713 246.983C482.149 245.878 482.309 244.684 482.177 243.504C482.046 242.323 481.628 241.193 480.96 240.212C480.292 239.23 479.393 238.427 478.343 237.872C477.294 237.317 476.124 237.028 474.936 237.029H377.704C372.994 237.027 368.392 238.442 364.497 241.091C360.602 243.739 357.594 247.499 355.865 251.88L325.117 329.884Z" fill="#FDBC68"/>
<path d="M325.117 329.884H449.033L481.713 246.983C482.149 245.878 482.309 244.684 482.177 243.504C482.046 242.323 481.628 241.193 480.96 240.212C480.292 239.23 479.393 238.427 478.343 237.872C477.294 237.317 476.124 237.028 474.936 237.029H377.704C372.994 237.027 368.392 238.442 364.497 241.091C360.602 243.739 357.594 247.499 355.865 251.88L325.117 329.884Z" fill="url(#paint6_linear)"/>
<path opacity="0.51" d="M465.407 204.652H281.955V214.977H465.407V204.652Z" fill="white"/>
<path d="M412.37 186.981H281.955V197.306H412.37V186.981Z" fill="white"/>
<path d="M517.504 186.981H430.199V197.306H517.504V186.981Z" fill="white"/>
<path d="M517.2 121.618H382.973V130.791H517.2V121.618Z" fill="white"/>
<path opacity="0.51" d="M498.458 137.913H354.859V147.086H498.458V137.913Z" fill="white"/>
<path d="M372.728 121.618H284.443V130.791H372.728V121.618Z" fill="white"/>
<path d="M517.2 153.717H323.172V162.89H517.2V153.717Z" fill="white"/>
<path opacity="0.51" d="M312.927 153.717H284.443V162.89H312.927V153.717Z" fill="white"/>
<path opacity="0.51" d="M517.199 170.012H389.127V179.185H517.199V170.012Z" fill="white"/>
<path d="M372.728 170.012H284.443V179.185H372.728V170.012Z" fill="white"/>
<path d="M341.213 137.529H284.443V146.702H341.213V137.529Z" fill="white"/>
<path opacity="0.51" d="M449.366 107.031H305.768V116.205H449.366V107.031Z" fill="white"/>
<path d="M292.133 106.648H235.363V115.821H292.133V106.648Z" fill="white"/>
</g>
<defs>
<linearGradient id="paint0_linear" x1="197.945" y1="275.124" x2="264.457" y2="300.47" gradientUnits="userSpaceOnUse">
<stop offset="0.01"/>
<stop offset="0.12" stop-opacity="0.75"/>
<stop offset="1" stop-opacity="0"/>
</linearGradient>
<linearGradient id="paint1_linear" x1="15362.1" y1="33369.7" x2="13506.1" y2="22333.1" gradientUnits="userSpaceOnUse">
<stop offset="0.01"/>
<stop offset="0.12" stop-opacity="0.75"/>
<stop offset="1" stop-opacity="0"/>
</linearGradient>
<linearGradient id="paint2_linear" x1="17263.8" y1="27569.8" x2="19400.7" y2="21491.6" gradientUnits="userSpaceOnUse">
<stop offset="0.01"/>
<stop offset="0.12" stop-opacity="0.75"/>
<stop offset="1" stop-opacity="0"/>
</linearGradient>
<linearGradient id="paint3_linear" x1="68789" y1="19754.4" x2="67314.3" y2="33946.1" gradientUnits="userSpaceOnUse">
<stop offset="0.01"/>
<stop offset="0.12" stop-opacity="0.75"/>
<stop offset="1" stop-opacity="0"/>
</linearGradient>
<linearGradient id="paint4_linear" x1="8881.92" y1="20379.2" x2="12269" y2="38570.3" gradientUnits="userSpaceOnUse">
<stop offset="0.01"/>
<stop offset="0.12" stop-opacity="0.75"/>
<stop offset="1" stop-opacity="0"/>
</linearGradient>
<linearGradient id="paint5_linear" x1="49860.9" y1="4939.39" x2="49861.9" y2="4469.33" gradientUnits="userSpaceOnUse">
<stop offset="0.01"/>
<stop offset="0.12" stop-opacity="0.75"/>
<stop offset="1" stop-opacity="0"/>
</linearGradient>
<linearGradient id="paint6_linear" x1="48664.7" y1="26688.7" x2="48886.7" y2="17180.9" gradientUnits="userSpaceOnUse">
<stop offset="0.01"/>
<stop offset="0.12" stop-opacity="0.75"/>
<stop offset="1" stop-opacity="0"/>
</linearGradient>
<clipPath id="clip0">
<rect width="539" height="440" fill="white"/>
</clipPath>
</defs>
</svg>
