 <svg width="185" height="245" viewBox="0 0 185 245" fill="none" xmlns="http://www.w3.org/2000/svg">
                        <path d="M158.32 237.105H133.053C132.229 237.105 131.528 236.446 131.528 235.58V234.385C131.528 233.56 132.188 232.86 133.053 232.86H158.32C159.145 232.86 159.845 233.519 159.845 234.385V235.58C159.804 236.446 159.103 237.105 158.32 237.105Z" fill="#735639"/>
                        <path d="M149.54 165.962H141.75V232.942H149.54V165.962Z" fill="#735639"/>
                        <path d="M152.467 51.9937L159.268 51.3342L160.628 64.689C160.628 64.689 158.732 65.3485 156.712 65.4309C154.693 65.5545 152.796 65.4309 152.796 65.4309L152.467 51.9937Z" fill="#0C0454"/>
                        <path d="M126.747 32.2088C124.521 36.8253 119.575 56.8986 119.575 56.8986C119.41 57.3108 119.575 57.8055 119.987 58.094C121.265 59.0008 124.315 61.8036 130.25 63.6997C133.136 64.6065 140.184 65.8018 143.399 65.5545C143.976 65.5133 144.429 64.9774 144.429 64.9774L147.727 18.9777C133.836 18.277 128.066 29.4884 126.747 32.2088Z" fill="#333333"/>
                        <path d="M132.146 58.0939C129.879 58.0939 128.065 54.9201 128.065 50.8807C128.065 46.8413 129.838 43.6675 132.146 43.6675C134.413 43.6675 136.227 46.8413 136.227 50.8807C136.227 54.9613 134.413 58.0939 132.146 58.0939ZM132.146 44.6567C130.456 44.6567 129.096 47.5008 129.096 50.9219C129.096 54.3018 130.497 57.1871 132.146 57.1871C133.795 57.1871 135.196 54.343 135.196 50.9219C135.238 47.5008 133.836 44.6567 132.146 44.6567Z" fill="white"/>
                        <path d="M147.809 59.4955C159.35 59.4955 168.748 50.6748 168.748 39.7519C168.748 28.8703 159.392 20.0083 147.809 20.0083C136.227 20.0083 126.87 28.829 126.87 39.7519C126.87 50.6748 136.227 59.4955 147.809 59.4955Z" fill="#FDD6C2"/>
                        <path d="M157.042 57.4345C156.712 49.6443 156.299 39.6695 156.299 39.3809C156.299 39.3809 151.889 38.1856 149.334 35.8362C148.55 35.0942 147.974 34.3111 147.603 33.6104C147.891 34.7232 148.427 35.9186 149.457 37.1551C151.724 39.7519 155.145 41.6067 155.145 41.6067C155.104 41.8953 155.434 50.6747 154.981 58.2589C155.764 58.0116 156.382 57.7643 157.042 57.4345Z" fill="#F8AE86"/>
                        <path d="M122.089 86.6171C119.904 94.6547 117.761 102.898 114.051 110.359C113.062 112.337 111.248 117.407 108.404 117.242C105.643 117.036 103.293 115.264 102.057 112.873C100.861 110.524 97.5224 109.823 95.3378 111.101C92.906 112.543 92.3702 115.47 93.5655 117.819C95.7913 122.271 100.078 125.321 104.818 126.558C111.166 128.206 116.153 125.61 119.698 120.375C125.881 111.183 128.725 99.8482 131.61 89.2551C133.259 83.0723 123.737 80.4756 122.089 86.6171Z" fill="#F8AE86"/>
                        <path d="M123.985 196.217C124.645 200.05 125.428 203.842 126.376 207.593C128.066 214.229 138.906 211.426 137.216 204.749C136.227 200.998 135.485 197.165 134.826 193.373C134.331 190.528 130.58 188.962 127.901 189.663C124.727 190.487 123.532 193.373 123.985 196.217Z" fill="#F8AE86"/>
                        <path d="M162.441 118.025C162.441 118.025 165.656 126.063 165.656 126.764C165.656 127.506 150.694 129.608 144.594 129.237C139.895 128.948 129.178 127.258 129.796 126.228C130.414 125.197 133.629 117.201 133.629 117.201C133.629 117.201 141.42 119.179 147.726 118.973C154.033 118.85 162.441 118.025 162.441 118.025Z" fill="#EC9393"/>
                        <path d="M129.755 126.269C129.755 126.269 134.083 127.712 136.597 128.041C147.273 129.567 154.197 128.701 154.197 128.701C154.197 128.701 122.459 146.054 121.429 148.321C120.398 150.588 130.414 158.419 133.341 167.24C135.938 175.072 137.71 194.568 138.04 198.772C138.081 199.267 137.792 199.761 137.339 199.967C136.308 200.462 134.165 201.286 130.95 201.864C126.21 202.729 123.16 203.595 123.078 202.523C122.995 201.451 105.395 168.765 104.735 167.694C104.076 166.622 93.9773 150.876 93.5652 146.837C92.2874 134.801 129.755 126.269 129.755 126.269Z" fill="#FF8A91"/>
                        <path d="M140.802 68.2336C140.802 68.2336 132.228 69.9648 128.436 73.1386C125.056 75.9827 118.832 88.0597 117.554 90.6564C117.39 90.945 117.472 91.3159 117.678 91.5632C118.503 92.3876 120.564 94.3249 122.46 95.2729C124.891 96.5506 129.714 97.4987 129.714 97.4987L130.827 90.1618C130.827 90.1618 128.148 95.0256 129.92 100.219C130.95 103.269 131.734 107.309 131.899 109.328C131.981 110.441 131.734 116.871 131.734 116.871C131.734 116.871 138.246 118.561 145.295 119.056C152.302 119.55 164.214 117.283 164.214 117.283C164.214 117.283 163.637 102.404 164.008 99.7245C164.75 94.3249 163.183 90.4091 163.183 90.4091L165.244 98.6116C165.244 98.6116 172.292 99.5184 173.653 98.8176C174.93 98.1582 177.197 96.2209 178.145 95.3966C178.434 95.1492 178.558 94.7371 178.475 94.3661C177.816 91.6045 174.724 80.3106 169.655 74.6637C167.058 71.7784 157.454 68.8107 155.228 68.8107C152.92 68.7283 140.802 68.2336 140.802 68.2336Z" fill="#FFF5E5"/>
                        <path d="M162.318 20.4616C166.811 20.4616 170.438 17.0405 170.438 12.795C170.438 8.59075 166.811 5.12842 162.318 5.12842C157.825 5.12842 154.198 8.54953 154.198 12.795C154.198 17.0405 157.825 20.4616 162.318 20.4616Z" fill="#333333"/>
                        <path d="M126.376 208.294C126.376 208.294 130.456 209.036 132.228 208.459C134.99 207.552 137.711 205.408 137.711 205.408C137.711 205.408 141.173 209.118 142.08 209.984C143.028 210.891 144.223 211.468 145.171 213.116C146.119 214.806 146.202 219.464 139.772 223.792C137.463 225.399 134.537 235.539 128.849 237.559C125.015 238.919 121.965 239.331 119.409 238.136C116.772 236.941 116.112 234.055 121.388 230.098C126.705 226.183 125.469 221.607 126.046 218.722C126.623 215.919 126.376 208.294 126.376 208.294Z" fill="#AB534D"/>
                        <path d="M83.1781 204.996C82.6423 209.242 82.0652 213.487 81.5294 217.774C81.1584 220.618 84.3735 223.091 87.1764 223.091C90.515 223.091 92.411 220.659 92.8232 217.774C93.359 213.528 93.936 209.283 94.4719 204.996C94.8429 202.152 91.6279 199.679 88.8251 199.679C85.4452 199.679 83.5491 202.152 83.1781 204.996Z" fill="#FDD6C2"/>
                        <path d="M108.198 108.586C111.413 109.246 113.927 111.348 116.235 113.574C117.925 115.181 120.234 112.543 118.544 110.894C115.741 108.215 112.691 105.825 108.857 105.083C106.631 104.629 105.931 108.133 108.198 108.586Z" fill="#FDD6C2"/>
                        <path d="M153.909 57.2695L140.802 57.187C140.802 57.187 141.791 69.6762 141.791 69.7586C141.791 71.9844 144.717 73.7568 148.345 73.7568C151.972 73.7568 154.898 71.9844 154.898 69.7586C154.898 69.7174 153.909 57.2695 153.909 57.2695Z" fill="#FDD6C2"/>
                        <path d="M147.809 59.4542C145.377 59.4542 143.027 59.042 140.884 58.3413L141.049 60.8556C142.532 61.5563 144.882 62.051 147.231 62.2158C149.292 62.3395 152.26 62.4219 154.238 61.8449L154.032 58.5886C152.013 59.1657 149.952 59.4542 147.809 59.4542Z" fill="#F8AE86"/>
                        <path d="M165.862 126.722C165.862 126.722 171.592 133.029 172.622 137.439C173.653 141.85 174.312 148.568 172.828 152.484C171.344 156.4 166.687 162.047 158.196 162.541C144.181 163.365 114.999 158.296 113.721 158.296C112.443 158.296 112.938 166.828 108.569 178.781C104.653 189.374 97.6459 207.016 96.1621 210.725C95.9972 211.138 95.585 211.426 95.1316 211.467C93.6065 211.55 89.9793 211.632 86.2697 211.055C83.6729 210.643 81.7769 209.571 80.7464 208.912C80.2518 208.582 80.0045 208.005 80.0869 207.469C80.5403 203.389 82.5189 186.365 83.7142 179.399C84.992 172.063 85.94 143.704 90.6388 137.975C94.7195 132.946 96.2034 132.411 100.82 130.968C104.983 129.69 149.251 129.278 149.251 129.278L165.862 126.722Z" fill="#FFADB2"/>
                        <path d="M80.4989 219.794C79.1387 222.308 76.5008 225.77 74.3162 227.213C69.1639 230.675 62.6103 235.333 61.6623 236.281C60.673 237.27 58.4885 241.433 61.8684 243.659C64.3003 245.267 71.3073 245.885 80.128 241.516C86.7642 238.218 90.1029 237.518 92.5348 236.611C96.5742 235.127 95.6674 230.717 94.8431 228.573C94.1836 226.883 94.0187 226.554 93.5652 222.184C93.4416 221.236 93.0705 217.403 93.0705 217.403C93.0705 217.403 89.6495 218.557 85.8986 218.104C83.137 217.733 81.6119 215.919 81.6119 215.919C81.6119 215.919 80.9524 218.928 80.4989 219.794Z" fill="#C7645D"/>
                        <path d="M170.52 167.652H120.852C120.028 167.652 119.327 166.993 119.327 166.127V161.181C119.327 160.357 119.987 159.656 120.852 159.656H170.52C171.345 159.656 172.045 160.315 172.045 161.181V166.127C172.004 166.993 171.345 167.652 170.52 167.652Z" fill="#AB8868"/>
                        <path d="M70.1531 89.5849L96.6979 92.2229C97.3162 92.2641 97.8933 92.6351 98.3467 93.1709L126.622 128.248C126.952 128.66 126.664 129.319 126.251 129.278L98.4702 126.228C97.9756 126.187 97.4809 125.898 97.1512 125.445L69.906 90.3681C69.6175 90.0383 69.8234 89.5025 70.1531 89.5849Z" fill="#E0E0E0"/>
                        <path d="M167.099 96.5507C167.223 97.0454 167.305 97.5812 167.429 98.0759C167.47 98.2819 167.676 99.436 167.594 98.9826C167.552 98.5705 167.717 99.8482 167.717 100.137C167.758 100.673 167.799 101.208 167.841 101.744C167.882 102.733 167.841 103.723 167.8 104.753C167.758 105.042 167.758 105.371 167.717 105.66C167.717 105.578 167.841 104.918 167.758 105.495C167.635 106.072 167.552 106.69 167.387 107.309C167.264 107.762 167.099 108.216 166.975 108.628C166.687 109.617 167.058 108.669 166.687 109.37C166.481 109.782 166.274 110.194 166.027 110.565C165.903 110.771 164.997 112.09 165.45 111.472C163.925 113.368 162.812 114.192 160.504 115.223C151.395 119.386 139.4 116.088 129.961 113.862C125.798 112.873 121.594 111.802 117.513 110.483C111.454 108.587 108.857 118.067 114.916 120.004C125.097 123.219 135.814 125.733 146.448 126.723C158.649 127.836 172.169 123.837 176.455 111.224C178.352 105.66 177.898 99.5185 176.662 93.9128C175.26 87.73 165.739 90.368 167.099 96.5507Z" fill="#FDD6C2"/>
                        <path d="M164.049 93.5417C164.956 92.9646 174.807 85.9163 174.807 85.9163L178.31 95.1079C178.31 95.1079 177.321 96.8391 173.364 98.8588C169.366 100.837 165.615 100.384 165.615 100.384L164.049 93.5417Z" fill="#FFF5E5"/>
                        <path d="M158.031 129.113C158.32 131.586 158.526 134.101 158.814 136.574C159.062 138.799 159.392 141.066 159.474 143.333C159.515 145.229 159.268 147.249 157.867 148.651C156.63 149.887 154.858 150.341 153.168 150.464C151.148 150.629 149.128 150.464 147.109 150.382C144.677 150.258 142.204 150.176 139.772 150.052C134.826 149.846 129.879 149.64 124.933 149.434C122.542 149.31 120.152 149.228 117.761 149.145C115.824 149.063 113.845 149.022 111.908 149.228C108.157 149.599 104.448 150.835 102.057 153.927C99.5838 157.142 98.8418 161.263 98.0174 165.097C96.987 169.961 95.9152 174.824 94.8848 179.688C93.8543 184.552 92.7828 189.416 91.7523 194.279C90.8455 198.36 90.0623 202.482 88.9906 206.48C88.8258 207.098 88.6608 207.758 88.4959 208.376C88.2074 209.283 89.609 209.654 89.8975 208.747C90.928 205.285 91.6285 201.74 92.4117 198.236C93.4421 193.373 94.5139 188.509 95.5443 183.645C96.5748 178.74 97.6877 173.835 98.7182 168.93C99.2128 166.663 99.6663 164.396 100.202 162.17C100.656 160.233 101.191 158.337 102.139 156.523C103.046 154.833 104.283 153.391 105.931 152.443C107.539 151.453 109.394 151 111.249 150.753C115.453 150.176 119.822 150.67 124.068 150.876C129.014 151.083 133.96 151.289 138.906 151.495C141.42 151.618 143.893 151.701 146.408 151.824C148.469 151.907 150.612 152.113 152.673 151.989C154.404 151.907 156.259 151.618 157.784 150.67C159.392 149.722 160.422 148.156 160.793 146.342C161.205 144.323 160.999 142.262 160.752 140.242C160.463 137.769 160.257 135.255 159.969 132.782C159.845 131.586 159.721 130.391 159.598 129.154C159.392 128.206 157.908 128.165 158.031 129.113Z" fill="white"/>
                        <path d="M7.95504 243.412C6.59483 242.917 5.89416 241.474 6.34756 240.114L38.8276 133.647C39.281 132.287 40.8061 131.504 42.1663 131.998L45.5463 133.194C46.9065 133.688 47.6071 135.214 47.1125 136.574L11.2938 241.845C10.7991 243.206 9.31525 243.906 7.95504 243.412Z" fill="#8A6645"/>
                        <path d="M176.332 243.412C177.693 242.917 178.393 241.474 177.94 240.114L145.501 133.647C145.048 132.287 143.523 131.504 142.162 131.998L138.782 133.194C137.422 133.688 136.722 135.214 137.216 136.574L173.076 241.804C173.488 243.206 174.972 243.906 176.332 243.412Z" fill="#8A6645"/>
                        <path d="M181.649 137.357H2.63793C1.19529 137.357 0 136.161 0 134.719V128.948C0 127.506 1.19529 126.31 2.63793 126.31H181.649C183.092 126.31 184.287 127.506 184.287 128.948V134.719C184.246 136.161 183.092 137.357 181.649 137.357Z" fill="#C49C77"/>
                        <path d="M98.141 28.4168C96.0389 22.234 90.6392 17.2466 84.2091 15.2269C77.779 13.2072 70.4834 14.114 64.5891 17.3703C61.7038 18.9778 59.1072 21.1623 57.4997 23.9652C55.8922 26.768 55.3562 30.2304 56.5515 33.2393C57.9942 36.8665 61.5802 39.2572 65.2074 40.9884C69.1231 42.802 74.4405 44.0385 79.3867 42.802C83.4673 45.3163 87.5891 47.8306 91.6697 50.3449C90.9277 47.5421 88.6607 41.9776 88.5783 41.9776L89.1141 41.9364C92.0818 40.9059 94.7611 39.0511 96.6984 36.6605C97.6464 35.5064 98.4295 34.1461 98.6768 32.6623C98.9241 31.1784 98.5944 29.777 98.141 28.4168Z" fill="#FCFAF8"/>
                        <path d="M69.0409 11.3111C67.4334 6.48854 62.4047 3.72687 57.4997 2.20179C46.3708 -1.30177 34.0053 -0.601029 23.3297 4.13908C18.3423 6.36487 13.5197 9.70355 11.3352 14.691C9.43912 19.0601 9.85118 24.2124 12.0358 28.4579C14.2203 32.7034 18.0124 35.9597 22.3403 37.9381C20.8153 41.7714 18.5483 46.5115 17.0645 50.3449C20.1146 48.5312 23.1649 46.7176 26.215 44.9453C27.7813 44.0385 29.3476 43.0904 31.12 42.5546C33.5106 41.8126 36.0249 41.8951 38.498 41.7302C45.4639 41.318 52.3474 39.2571 58.0355 35.2589C63.6824 31.2195 68.0105 25.1192 69.2882 18.2769C69.7004 15.9275 69.7828 13.4957 69.0409 11.3111Z" fill="#F2F2F2"/>
                        <path d="M131.816 86.6582C131.816 86.6582 130.209 91.3571 129.838 93.0058C129.426 94.9431 129.426 97.4162 129.426 97.4162L127.818 97.0865C127.818 97.0865 128.231 94.5721 129.261 91.9342C129.756 90.5327 131.816 86.6582 131.816 86.6582Z" fill="#FFD899"/>
                        <path d="M163.184 89.626C163.184 89.626 163.802 94.16 163.925 95.1492C164.173 97.1689 164.09 100.26 164.09 100.26L165.698 100.384C165.698 100.384 165.327 96.5506 164.626 94.0363C164.255 92.7998 163.184 89.626 163.184 89.626Z" fill="#FFD899"/>
                        <path d="M158.444 60.5671C156.177 60.5671 154.363 57.3932 154.363 53.3538C154.363 49.3144 156.136 46.1406 158.444 46.1406C160.711 46.1406 162.524 49.3144 162.524 53.3538C162.524 57.3932 160.711 60.5671 158.444 60.5671ZM158.444 47.1298C156.754 47.1298 155.394 49.9739 155.394 53.395C155.394 56.775 156.795 59.6602 158.444 59.6602C160.093 59.6602 161.494 56.8162 161.494 53.395C161.494 49.9739 160.093 47.1298 158.444 47.1298Z" fill="white"/>
                        <path d="M176.044 62.0096C177.817 61.1852 177.693 60.3196 177.239 58.7945L168.501 34.1459C165.904 25.4076 157.372 19.0188 147.274 19.0188C140.72 19.0188 136.928 21.7804 136.928 21.7804C136.969 21.7804 141.173 22.8109 144.306 25.7374C147.439 28.7051 145.584 32.2911 149.335 35.8359C151.849 38.1854 156.3 39.3807 156.3 39.3807C156.3 39.7516 157.001 56.5275 157.29 63.6171C157.413 66.1314 158.815 65.8841 163.843 65.1834C170.521 64.2766 173.118 63.411 176.044 62.0096Z" fill="#333333"/>
                        <path d="M144.636 33.3629C142.039 33.3629 139.813 34.8055 138.7 36.9901C137.752 36.4955 136.722 36.2482 135.65 36.2482C135.32 36.2482 134.949 36.2894 134.62 36.3306C133.795 33.569 131.24 31.5493 128.189 31.5493C124.48 31.5493 121.471 34.5582 121.471 38.2679C121.471 41.9775 124.48 44.9865 128.189 44.9865C131.899 44.9865 134.908 41.9775 134.908 38.2679C134.908 37.9794 134.867 37.6496 134.826 37.3611C136.021 37.1962 137.257 37.4023 138.288 37.9382C138.041 38.5977 137.917 39.3396 137.917 40.0815C137.917 43.7911 140.926 46.8001 144.636 46.8001C148.345 46.8001 151.354 43.7911 151.354 40.0815C151.395 36.4131 148.386 33.3629 144.636 33.3629ZM128.189 43.956C125.057 43.956 122.501 41.4005 122.501 38.2679C122.501 35.1353 125.057 32.5798 128.189 32.5798C131.322 32.5798 133.877 35.1353 133.877 38.2679C133.877 41.4005 131.281 43.956 128.189 43.956ZM144.636 45.8109C141.503 45.8109 138.947 43.2553 138.947 40.1227C138.947 36.9901 141.503 34.4346 144.636 34.4346C147.768 34.4346 150.324 36.9901 150.324 40.1227C150.365 43.2141 147.809 45.8109 144.636 45.8109Z" fill="#F2F2F2"/>
                        <path d="M111.413 119.88L106.054 119.344C102.675 119.015 100.078 116.5 100.284 113.739L100.366 112.791C100.573 110.07 103.499 108.092 106.879 108.463L112.237 108.999C115.617 109.37 118.214 111.843 118.008 114.604L117.926 115.552C117.719 118.314 114.793 120.251 111.413 119.88Z" fill="#FDD6C2"/>
                        <path d="M77.4081 34.6407C77.3669 34.9705 77.2844 35.3002 77.4081 35.63C77.4905 35.9185 77.6142 36.1658 77.8203 36.3719C77.9851 36.5367 78.1501 36.6604 78.3562 36.7016C78.5623 36.8253 78.7682 36.8665 79.0156 36.8252C79.3041 36.8252 79.5926 36.7428 79.8399 36.6192C79.8399 36.6192 79.8812 36.6192 79.8812 36.5779C79.7575 36.6192 79.5927 36.7016 79.469 36.7428H79.5103C79.3454 36.784 79.2217 36.784 79.0568 36.784C79.0568 36.784 79.0569 36.784 79.0981 36.784C79.2629 36.7428 79.3866 36.7428 79.5515 36.7428C79.6752 36.7016 79.84 36.6192 79.9637 36.5779C80.0874 36.4955 80.211 36.3719 80.3346 36.2894C80.4171 36.1658 80.5408 36.0421 80.6232 35.9185C80.6645 35.7948 80.7469 35.6299 80.7881 35.5063C80.8293 35.3414 80.8293 35.2178 80.8293 35.0529C80.7881 34.888 80.7881 34.7644 80.7881 34.5995C80.7469 34.3934 80.6231 34.1873 80.4582 34.0224C80.3758 33.8988 80.2522 33.7751 80.1285 33.6927C80.0049 33.569 79.8813 33.4866 79.7576 33.4866C79.634 33.4041 79.4691 33.3629 79.3454 33.3629C79.1806 33.3217 79.0569 33.3217 78.892 33.3629C78.7271 33.3629 78.6035 33.4041 78.4798 33.4866C78.3561 33.5278 78.1913 33.6102 78.1089 33.6927C77.9852 33.7751 77.8614 33.8988 77.779 34.0224C77.5729 34.2285 77.4493 34.4346 77.4081 34.6407Z" fill="#E0E0E0"/>
                        <path d="M73.4924 24.7483C74.1519 23.7178 75.9244 23.1408 77.1197 23.2645C77.6968 23.3057 78.8509 23.6354 79.1807 24.1712C79.428 24.5422 79.4691 24.13 79.0569 24.5422C78.8096 24.7895 78.3562 24.9544 78.0677 25.1193C76.1716 26.397 74.1519 29.983 77.0372 31.4257C78.1501 32.0027 79.6339 31.302 79.6339 29.9418C79.6339 29.3235 79.4279 28.9113 79.7577 28.3755C79.9638 28.0457 80.4996 27.7572 80.8294 27.5511C81.7362 26.8916 82.5604 26.2321 82.7665 25.078C83.0963 23.0171 81.2415 21.4096 79.4691 20.7501C77.5318 20.0082 75.3472 20.2555 73.6572 21.4508C72.7504 22.1103 70.9368 24.1712 72.6268 24.9956C72.9153 25.1605 73.2863 25.0781 73.4924 24.7483Z" fill="#E0E0E0"/>
                        <path d="M56.3043 15.5978H23.4119C22.67 15.5978 22.0518 14.9796 22.0518 14.2377C22.0518 13.4957 22.67 12.8774 23.4119 12.8774H56.3043C57.0462 12.8774 57.6644 13.4957 57.6644 14.2377C57.6644 14.9384 57.0462 15.5978 56.3043 15.5978Z" fill="#E0E0E0"/>
                        <path d="M45.5462 28.8289H23.4119C22.67 28.8289 22.0518 28.2106 22.0518 27.4686C22.0518 26.7267 22.67 26.1084 23.4119 26.1084H45.5462C46.2882 26.1084 46.9063 26.7267 46.9063 27.4686C46.9063 28.2106 46.2882 28.8289 45.5462 28.8289Z" fill="#E0E0E0"/>
                        <path d="M37.8386 22.0278H23.3709C22.6289 22.0278 22.0107 21.4095 22.0107 20.6676C22.0107 19.9257 22.6289 19.3074 23.3709 19.3074H37.8386C38.5805 19.3074 39.1989 19.9257 39.1989 20.6676C39.2401 21.4507 38.6217 22.0278 37.8386 22.0278Z" fill="#E0E0E0"/>
                        <path d="M53.5836 22.0278H44.5156C43.7737 22.0278 43.1553 21.4095 43.1553 20.6676C43.1553 19.9257 43.7737 19.3074 44.5156 19.3074H53.5836C54.3256 19.3074 54.9438 19.9257 54.9438 20.6676C54.9438 21.4507 54.3256 22.0278 53.5836 22.0278Z" fill="#E0E0E0"/>
                        <g clip-path="url(#clip0)">
                        <path fill-rule="evenodd" clip-rule="evenodd" d="M87.6299 68.4918C87.6299 63.4401 92.7822 59.3545 99.1622 59.3545C105.542 59.3545 110.674 63.4401 110.674 68.4918C110.674 73.5434 105.522 77.629 99.142 77.629C97.7332 77.629 96.3646 77.4278 95.1168 77.0655C92.7218 79.8228 89.884 79.058 89.884 79.058C91.3935 78.1724 92.0375 76.8844 92.3193 75.8579C89.4815 74.1875 87.6299 71.5107 87.6299 68.4918ZM95.5998 70.8264H92.3797V65.8351H93.386V70.0415H95.5998V70.8264ZM96.3244 70.8264H97.3307V65.8351H96.3244V70.8264ZM100.591 70.8264H99.5647L97.8741 65.8351H98.9207L100.007 69.4578L100.068 69.7396H100.088L100.148 69.4779L101.235 65.8351H102.282L100.591 70.8264ZM105.965 70.8264H102.765V65.8351H105.945V66.5999H103.751V67.8477H105.603V68.6125H103.751V70.0415H105.945L105.965 70.8264Z" fill="#ED2124"/>
                        </g>
                        <defs>
                        <clipPath id="clip0">
                        <rect width="23.0444" height="19.8009" fill="white" transform="translate(87.6299 59.3545)"/>
                        </clipPath>
                        </defs>
                        </svg>