<svg width="616" height="643" viewBox="0 0 616 643" fill="none" xmlns="http://www.w3.org/2000/svg">
<path d="M583.764 599.166C583.764 623.374 453.086 643 291.882 643C130.678 643 0 623.374 0 599.166C0 582.029 65.504 567.182 160.968 559.98C200.335 557.001 244.814 555.333 291.882 555.333C311.231 555.333 330.138 555.615 348.423 556.153C482.566 560.112 583.764 577.862 583.764 599.166Z" fill="#3F3D56"/>
<path opacity="0.1" d="M254.22 608.122C316.101 608.122 366.265 602.002 366.265 594.453C366.265 586.904 316.101 580.784 254.22 580.784C192.339 580.784 142.175 586.904 142.175 594.453C142.175 602.002 192.339 608.122 254.22 608.122Z" fill="black"/>
<path d="M253.749 604.351C312.25 604.351 359.674 553.706 359.674 491.232C359.674 428.758 312.25 378.113 253.749 378.113C195.248 378.113 147.824 428.758 147.824 491.232C147.824 553.706 195.248 604.351 253.749 604.351Z" fill="#3F3D56"/>
<path d="M287.174 558.161H221.266V618.491H287.174V558.161Z" fill="#6C63FF"/>
<path d="M373.327 572.772L369.561 593.511L394.041 597.282L410.047 587.855L409.106 572.772H373.327Z" fill="#575A89"/>
<path d="M249.983 183.454C249.983 183.454 248.1 205.135 243.392 206.078C238.684 207.021 253.749 244.727 253.749 244.727H276.346L294.236 240.014L285.762 219.275C285.762 219.275 274.463 204.193 282.937 191.938C291.411 179.683 249.983 183.454 249.983 183.454Z" fill="#A0616A"/>
<path opacity="0.1" d="M249.983 183.454C249.983 183.454 248.1 205.135 243.392 206.078C238.684 207.021 253.749 244.727 253.749 244.727H276.346L294.236 240.014L285.762 219.275C285.762 219.275 274.463 204.193 282.937 191.938C291.411 179.683 249.983 183.454 249.983 183.454Z" fill="black"/>
<path d="M202.904 349.362C202.904 349.362 178.424 396.495 198.196 405.921C217.969 415.348 222.677 414.405 222.677 417.233C222.677 420.061 218.911 419.119 220.794 423.832C222.677 428.545 217.027 447.398 222.677 458.71C228.326 470.022 226.443 478.506 226.443 478.506C226.443 478.506 226.443 479.449 228.326 483.219C230.209 486.99 231.151 489.818 230.209 491.703C229.268 493.589 223.618 505.843 229.268 508.671C234.917 511.499 264.105 513.384 266.93 508.671C269.755 503.958 264.105 501.13 266.93 498.302C269.755 495.474 271.638 494.531 269.755 492.646C267.871 490.761 265.988 467.194 265.988 467.194C265.988 467.194 270.696 439.857 268.813 436.086C266.93 432.316 264.105 428.545 265.988 425.717C267.871 422.889 269.755 423.832 270.696 420.061C271.638 416.291 273.521 407.807 273.521 407.807L283.878 406.864L308.358 411.577C308.358 411.577 335.663 441.742 365.793 451.169C365.793 451.169 374.267 459.653 377.092 459.653C379.917 459.653 379.917 459.653 378.975 461.538C378.033 463.423 375.209 463.423 377.092 465.309C378.975 467.194 381.8 464.366 379.917 467.194C378.033 470.022 376.15 470.022 378.033 471.907C379.917 473.793 377.092 484.162 377.092 485.105C377.092 486.047 368.618 574.657 371.443 576.542C374.267 578.428 413.813 584.084 416.637 576.542C419.462 569.001 414.754 559.575 414.754 559.575C414.754 559.575 428.877 446.456 425.111 438.914C421.345 431.373 408.163 397.437 337.547 375.756C337.547 375.756 317.774 371.986 317.774 369.158C317.774 366.33 315.891 348.419 312.125 347.477C308.358 346.534 286.703 345.591 286.703 345.591L259.397 354.075L221.735 347.477L202.904 349.362Z" fill="#2F2E41"/>
<path d="M235.859 507.728L231.151 524.696C231.151 524.696 227.385 552.033 232.092 558.632C235.79 563.815 242.393 570.161 254.637 571.275C258.069 571.59 261.505 570.723 264.378 568.818C267.251 566.912 269.388 564.082 270.435 560.795C270.576 560.402 270.664 559.991 270.696 559.575C270.696 557.689 267.872 535.066 267.872 535.066L263.164 511.499L262.222 504.9L235.859 507.728Z" fill="#2F2E41"/>
<path d="M373.328 588.797C373.328 588.797 368.62 584.084 367.678 588.797C366.737 593.511 362.971 613.306 369.561 614.249C376.152 615.192 439.237 624.618 445.827 620.848C452.418 617.077 464.659 611.421 457.126 608.593C449.594 605.765 427.938 597.281 427.938 597.281C427.938 597.281 415.698 581.256 413.815 580.313C411.931 579.371 401.574 581.256 396.867 585.027C392.159 588.797 373.328 588.797 373.328 588.797Z" fill="#2F2E41"/>
<path d="M272.581 203.25C288.701 203.25 301.769 190.167 301.769 174.028C301.769 157.888 288.701 144.805 272.581 144.805C256.461 144.805 243.393 157.888 243.393 174.028C243.393 190.167 256.461 203.25 272.581 203.25Z" fill="#A0616A"/>
<path d="M269.755 240.014L258.457 227.759L245.933 203.25C245.933 203.25 236.801 200.422 234.918 205.135C233.035 209.849 199.139 224.931 199.139 224.931C199.139 224.931 207.613 304.114 203.846 311.656C200.08 319.197 193.489 349.362 199.139 352.19C204.788 355.018 231.152 352.19 239.626 355.961C248.1 359.731 272.58 359.731 279.171 355.018C285.762 350.305 287.645 346.534 294.236 349.362C299.847 351.77 312.964 269.461 316.741 244.933C317.059 242.873 316.795 240.765 315.978 238.848C315.161 236.93 313.825 235.28 312.119 234.084C303.671 228.151 288.455 217.927 285.762 219.275C281.996 221.16 269.755 240.014 269.755 240.014Z" fill="#575A89"/>
<path d="M310.243 236.243C312.454 236.796 314.443 238.014 315.943 239.732C317.442 241.45 318.381 243.586 318.633 245.854L326.249 314.483C326.249 314.483 307.418 355.018 298.003 327.681C288.587 300.344 310.243 236.243 310.243 236.243Z" fill="#575A89"/>
<path d="M308.36 321.082L329.074 315.426C329.074 315.426 332.84 341.821 336.606 341.821C340.372 341.821 323.424 356.903 314.95 355.018C306.476 353.132 294.236 346.534 293.295 341.821C292.353 337.107 301.769 317.311 301.769 317.311L308.36 321.082Z" fill="#575A89"/>
<path d="M250.546 186.634C252.531 182.252 252.186 177.141 253.827 172.62C254.706 170.198 256.132 168.013 257.993 166.235C259.855 164.457 262.102 163.133 264.559 162.369C267.016 161.604 269.617 161.418 272.157 161.826C274.698 162.234 277.11 163.224 279.205 164.719C281.316 166.226 283.432 168.343 286.008 168.056C288.783 167.746 291.258 164.647 293.808 165.783C296.636 167.041 295.872 172.114 298.737 173.286C300.244 173.903 302.026 172.953 302.895 171.574C303.656 170.125 304.07 168.52 304.106 166.883C304.501 162.863 304.859 158.608 303.117 154.964C302.384 153.728 301.746 152.44 301.207 151.108C300.902 149.865 300.78 148.584 300.844 147.305C300.828 142.58 300.484 137.65 298.108 133.567C295.472 129.035 290.6 126.138 285.517 124.873C280.433 123.609 275.108 123.803 269.889 124.245C261.261 124.976 252.263 126.544 245.466 131.914C244.542 132.589 243.747 133.426 243.118 134.383C242.522 135.52 242.1 136.741 241.868 138.004C240.398 143.996 238.195 149.783 235.307 155.233C233.919 157.544 232.784 159.998 231.922 162.553C231.201 165.15 231.25 168.109 232.759 170.341C233.987 172.158 235.951 173.126 237.494 174.611C239.023 176.083 239.739 178.914 241.432 180.028C242.911 181.001 244.682 180.315 246.19 181.346C248.126 182.67 248.266 185.573 250.546 186.634Z" fill="#2F2E41"/>
<path d="M274.463 254.153L277.288 248.497C277.288 248.497 318.716 260.752 327.19 272.064C327.19 272.064 347.904 258.867 359.203 260.752L370.502 262.637L335.664 293.745L291.411 289.974L274.463 254.153Z" fill="#F2F2F2"/>
<path d="M272.58 248.497L233.977 302.229L289.528 329.566C289.528 329.566 294.722 332.394 298.716 329.566L335.665 312.598L370.502 262.637L335.665 280.548C335.665 280.548 331.898 273.006 324.366 276.777L272.58 248.497Z" fill="#6C63FF"/>
<path d="M331.897 343.706L339.43 323.91C339.43 323.91 356.378 302.229 346.962 291.86C337.547 281.491 327.189 322.025 327.189 322.025L331.897 343.706Z" fill="#A0616A"/>
<path d="M244.99 340.547L261.426 327.206C261.426 327.206 286.952 316.964 284.003 303.265C281.055 289.566 251.783 319.427 251.783 319.427L244.99 340.547Z" fill="#A0616A"/>
<path opacity="0.1" d="M204.318 245.198H203.377C203.377 245.198 188.783 227.759 185.958 251.325C183.133 274.892 173.718 353.132 198.198 355.96C222.679 358.788 240.097 344.177 240.097 344.177C240.097 344.177 257.987 316.84 251.396 316.84C248.207 316.84 239.534 315.406 231.623 315.897C223.185 316.422 215.602 318.802 216.088 316.369C217.029 311.656 230.682 251.797 204.318 245.198Z" fill="black"/>
<path d="M202.905 226.816L199.139 224.931C199.139 224.931 184.074 227.759 181.249 251.325C178.424 274.892 169.009 353.132 193.489 355.96C217.97 358.788 250.924 352.19 250.924 352.19C250.924 352.19 257.515 316.369 250.924 316.369C244.333 316.369 210.437 321.082 211.379 316.369C212.32 311.655 229.268 233.415 202.905 226.816Z" fill="#575A89"/>
<path d="M318.246 332.866L328.629 316.934L335.194 343.235L318.246 350.776V332.866Z" fill="#575A89"/>
<path d="M104.958 105.685C118.998 105.685 130.38 94.2897 130.38 80.2331C130.38 66.1764 118.998 54.7813 104.958 54.7813C90.918 54.7813 79.5361 66.1764 79.5361 80.2331C79.5361 94.2897 90.918 105.685 104.958 105.685Z" fill="#F2F2F2"/>
<path d="M135.088 269.707H74.8281V330.037H135.088V269.707Z" fill="#F2F2F2"/>
<path d="M350.259 0L365.512 26.4482L380.763 52.8963H350.259H319.756L335.007 26.4482L350.259 0Z" fill="#F2F2F2"/>
<path d="M615.999 158.583C615.634 169.866 612.89 178.911 607.765 185.716C602.639 192.521 596.55 195.924 589.497 195.925C583.753 195.925 578.718 192.595 574.393 185.934C570.066 179.274 567.903 169.028 567.903 155.198C567.903 152.14 567.976 149.229 568.121 146.463C568.266 143.697 568.448 141.077 568.667 138.601L572.484 102.678H547.291C542.929 148.1 539.348 175.124 536.549 183.75C533.749 192.376 529.005 196.689 522.316 196.689C519.297 196.615 516.416 195.407 514.246 193.304C512.987 192.188 511.992 190.806 511.332 189.257C510.672 187.709 510.363 186.033 510.428 184.351C510.428 181.004 513.064 176.327 518.335 170.32C523.606 164.315 526.533 158.837 527.115 153.888L533.658 102.678H523.08C520.098 102.696 517.163 103.426 514.519 104.807C512.085 105.926 509.967 107.634 508.356 109.775L503.667 116.763H499.85C503.411 105.7 507.792 97.3832 512.992 91.814C518.189 86.2454 524.169 83.4611 530.932 83.4612H614.254V102.678H586.117C585.244 111.413 584.571 120.148 584.099 128.883C583.625 137.618 583.389 146.39 583.39 155.198C583.39 161.167 584.772 166.008 587.534 169.72C590.297 173.432 593.75 175.288 597.895 175.288C600.439 175.288 603.111 174.251 605.911 172.176C607.24 171.243 608.353 170.032 609.171 168.628C609.99 167.224 610.496 165.66 610.655 164.042C610.873 162.441 611.037 161.186 611.146 160.275C611.255 159.366 611.309 158.801 611.31 158.582L615.999 158.583Z" fill="#6C63FF"/>
<path opacity="0.1" d="M615.999 158.583C615.634 169.866 612.89 178.911 607.765 185.716C602.639 192.521 596.55 195.924 589.497 195.925C583.753 195.925 578.718 192.595 574.393 185.934C570.066 179.274 567.903 169.028 567.903 155.198C567.903 152.14 567.976 149.229 568.121 146.463C568.266 143.697 568.448 141.077 568.667 138.601L572.484 102.678H547.291C542.929 148.1 539.348 175.124 536.549 183.75C533.749 192.376 529.005 196.689 522.316 196.689C519.297 196.615 516.416 195.407 514.246 193.304C512.987 192.188 511.992 190.806 511.332 189.257C510.672 187.709 510.363 186.033 510.428 184.351C510.428 181.004 513.064 176.327 518.335 170.32C523.606 164.315 526.533 158.837 527.115 153.888L533.658 102.678H523.08C520.098 102.696 517.163 103.426 514.519 104.807C512.085 105.926 509.967 107.634 508.356 109.775L503.667 116.763H499.85C503.411 105.7 507.792 97.3832 512.992 91.814C518.189 86.2454 524.169 83.4611 530.932 83.4612H614.254V102.678H586.117C585.244 111.413 584.571 120.148 584.099 128.883C583.625 137.618 583.389 146.39 583.39 155.198C583.39 161.167 584.772 166.008 587.534 169.72C590.297 173.432 593.75 175.288 597.895 175.288C600.439 175.288 603.111 174.251 605.911 172.176C607.24 171.243 608.353 170.032 609.171 168.628C609.99 167.224 610.496 165.66 610.655 164.042C610.873 162.441 611.037 161.186 611.146 160.275C611.255 159.366 611.309 158.801 611.31 158.582L615.999 158.583Z" fill="black"/>
<path d="M615.999 155.171C615.634 166.455 612.89 175.499 607.765 182.304C602.639 189.11 596.55 192.513 589.497 192.513C583.753 192.513 578.718 189.183 574.393 182.522C570.066 175.862 567.903 165.617 567.903 151.786C567.903 148.729 567.976 145.817 568.121 143.051C568.266 140.286 568.448 137.665 568.667 135.19L572.484 99.2668H547.291C542.929 144.689 539.348 171.713 536.549 180.339C533.749 188.964 529.005 193.277 522.316 193.278C519.297 193.203 516.416 191.995 514.246 189.893C512.987 188.776 511.992 187.394 511.332 185.846C510.672 184.297 510.363 182.621 510.428 180.939C510.428 177.592 513.064 172.915 518.335 166.909C523.606 160.903 526.533 155.426 527.115 150.476L533.658 99.2668H523.08C520.098 99.2846 517.163 100.014 514.519 101.396C512.085 102.515 509.967 104.222 508.356 106.364L503.667 113.352H499.85C503.411 102.288 507.792 93.9716 512.992 88.4025C518.189 82.8339 524.169 80.0496 530.932 80.0496H614.254V99.2668H586.117C585.244 108.002 584.571 116.737 584.099 125.472C583.625 134.207 583.389 142.978 583.39 151.786C583.39 157.756 584.772 162.596 587.534 166.308C590.297 170.021 593.75 171.877 597.895 171.877C600.439 171.877 603.111 170.839 605.911 168.765C607.24 167.831 608.353 166.621 609.171 165.217C609.99 163.813 610.496 162.248 610.655 160.63C610.873 159.03 611.037 157.774 611.146 156.863C611.255 155.954 611.309 155.39 611.31 155.171H615.999Z" fill="#6C63FF"/>
</svg>
