<svg width="704" height="577" viewBox="0 0 704 577" fill="none" xmlns="http://www.w3.org/2000/svg">
<g clip-path="url(#clip0)">
<path opacity="0.18" d="M3.78232 416.863C7.61864 440.485 31.0668 550.328 116.721 573.7C181.472 591.385 363.392 530.831 467.009 561.323C675.568 622.666 713.77 457.973 702.118 413.491C693.997 382.478 683.976 351.376 683.707 319.001C683.438 285.137 695.305 251.829 696.596 217.713C699.877 131.385 639.231 46.6349 556.535 21.8646C521.129 11.2821 492.178 0.466338 455.231 0.161417C380.243 -0.484298 202.285 0.161429 114.623 127.744C98.9552 150.541 76.2063 167.599 58.7277 189.051C35.423 217.749 19.8984 252.421 10.5228 288.276C-0.601155 330.208 -2.89648 373.996 3.78232 416.863Z" fill="#36D1DC"/>
<path d="M446.267 444.987H309.684L333.849 376.793H425.885L446.267 444.987Z" fill="#36D1DC"/>
<path d="M446.267 444.987H309.684L333.849 376.793H425.885L446.267 444.987Z" fill="url(#paint0_linear)"/>
<path d="M560.693 129.215H206.766C193.222 129.215 182.242 140.2 182.242 153.752V377.833C182.242 391.384 193.222 402.37 206.766 402.37H560.693C574.237 402.37 585.217 391.384 585.217 377.833V153.752C585.217 140.2 574.237 129.215 560.693 129.215Z" fill="#36D1DC"/>
<path d="M585.219 153.734V350.282H182.334V153.734C182.334 147.231 184.916 140.995 189.512 136.396C194.107 131.798 200.34 129.215 206.84 129.215H560.713C567.212 129.215 573.446 131.798 578.041 136.396C582.637 140.995 585.219 147.231 585.219 153.734Z" fill="#473F47"/>
<path d="M579.158 158.415V343.718H188.355V158.415C188.393 152.139 190.92 146.135 195.381 141.722C199.842 137.309 205.871 134.849 212.144 134.883H555.369C561.642 134.849 567.671 137.309 572.132 141.722C576.593 146.135 579.12 152.139 579.158 158.415Z" fill="white"/>
<path opacity="0.18" d="M579.158 158.415V343.718H188.355V158.415C188.393 152.139 190.92 146.135 195.381 141.722C199.842 137.309 205.871 134.849 212.144 134.883H555.369C561.642 134.849 567.671 137.309 572.132 141.722C576.593 146.135 579.12 152.139 579.158 158.415Z" fill="#36D1DC"/>
<path d="M369.416 85.629H211.93V196.943H369.416V85.629Z" fill="#36D1DC"/>
<path d="M517.06 149.07C516.827 145.716 517.06 142.272 516.701 138.936C516.148 134.125 514.585 129.485 512.113 125.322C509.642 121.158 506.318 117.564 502.36 114.776C494.346 109.222 484.574 106.803 474.896 107.978C459.211 109.772 446.034 120.533 438.487 134.111C429.9 149.555 437.932 162.2 444.869 176.208C450.068 186.683 447.002 199.759 440.262 209.319C434.974 216.799 427.158 223.973 427.821 233.121C428.233 238.681 431.783 243.434 435.207 247.829C437.501 250.771 440.065 253.891 443.686 254.734C445.512 255.066 447.382 255.066 449.207 254.734C453.298 254.157 457.351 253.337 461.344 252.277C465.216 251.237 469.196 249.945 473.175 250.484C479.916 251.344 484.9 257.03 488.79 262.573C492.68 268.115 496.516 274.285 502.701 277.048C507.398 279.164 512.776 278.967 517.903 278.536C532.871 277.299 548.737 273.819 559.026 262.878C561.3 260.364 563.391 257.69 565.283 254.878C566.441 253.402 567.377 251.764 568.062 250.017C569.854 244.798 566.986 239.255 563.759 234.681C560.532 230.108 556.588 225.713 556.122 220.225C555.692 215.92 557.413 211.741 557.915 207.472C559.009 199.329 555.836 191.06 550.744 184.585C545.472 178.287 539.153 172.947 532.065 168.801C526.687 165.429 520.95 161.931 518.44 156.245C517.559 153.954 517.092 151.525 517.06 149.07Z" fill="#FC682D"/>
<path d="M508.257 165.267C509.441 168.854 510.05 172.711 512.112 175.939C514.621 180.029 518.888 182.648 523.119 184.908C525.401 185.925 527.47 187.368 529.214 189.159C530.429 190.714 531.28 192.522 531.706 194.45C532.32 196.985 532.472 199.61 532.154 202.198C531.644 204.353 531.505 206.579 531.741 208.781C532.369 211.525 534.61 213.534 536.564 215.561C540.455 219.232 543.085 224.042 544.075 229.3C544.792 234.574 542.659 240.439 537.998 243.022C536.307 243.891 534.494 244.496 532.62 244.816C529.61 245.41 526.56 245.782 523.495 245.928C521.311 246.092 519.115 245.91 516.988 245.39C514.393 244.462 511.97 243.11 509.817 241.39L481.278 221.086C477.96 219.044 475.088 216.354 472.834 213.176C471.272 210.297 470.234 207.163 469.769 203.92C468.209 196.046 467.008 187.616 470.056 180.19C472.422 174.379 477.119 169.877 481.672 165.554L493.235 154.613C496.587 151.438 499.222 150.039 502.198 153.931C504.824 157.353 506.871 161.183 508.257 165.267Z" fill="url(#paint1_linear)"/>
<path d="M528.138 269.173C537.621 279.81 541.565 292.903 548.753 305.046C549.6 306.783 550.893 308.262 552.5 309.333C555.135 310.768 558.416 309.764 561.069 308.365C582.42 296.957 584.374 264.331 605.312 252.188C610.17 249.389 615.692 247.919 620.514 245.013C622.307 243.937 624.243 242.018 623.526 240.045C623.197 239.438 622.742 238.91 622.192 238.495C621.641 238.081 621.008 237.789 620.335 237.641C614.822 235.736 608.972 235.009 603.161 235.507C600.562 235.74 596.94 235.507 596.654 232.87C596.725 232.112 596.725 231.35 596.654 230.592C596.08 228.691 592.907 229.39 592.118 231.22C591.329 233.049 591.921 235.13 591.849 237.121C591.491 240.237 590.289 243.195 588.372 245.677C583.853 252.648 578.907 259.333 573.564 265.694C558.434 283.63 554.616 255.021 542.658 249.049C541.521 248.577 540.304 248.327 539.073 248.313C528.425 247.584 517.764 247.369 507.092 247.668C510.874 250.699 524.732 265.371 528.138 269.173Z" fill="#F4DBBD"/>
<path d="M497.628 202.952C497.628 202.952 528.606 216.924 530.434 220.583C532.263 224.242 530.434 328.633 530.434 328.633H421.225L427.499 218.628L459.444 205.535L497.628 202.952Z" fill="#36D1DC"/>
<path d="M421.207 328.651H530.435C530.435 328.651 532.227 224.26 530.435 220.565C528.642 216.871 497.629 202.952 497.629 202.952L459.463 205.517L427.517 218.61L424.488 271.433L421.207 328.651Z" fill="url(#paint2_linear)"/>
<path d="M530.434 220.53L556.445 253.676C551.211 269.155 530.434 288.796 530.434 288.796V220.53Z" fill="#36D1DC"/>
<path d="M530.434 250.645L546.693 270.644L530.434 288.85V250.645Z" fill="url(#paint3_linear)"/>
<path d="M496.839 188.1C495.782 193.732 497.413 198.019 497.646 203.185C497.969 210.844 489.866 222.807 486.639 229.803C485.599 232.063 484.362 234.52 482.085 235.542C480.475 236.129 478.744 236.308 477.048 236.063C474.52 236.128 472.017 235.554 469.77 234.394C466.83 232.601 465.557 229.014 464.535 225.677C462.868 220.296 458.637 211.777 459.659 206.234C459.982 204.44 461.595 202.647 462.043 200.71C462.468 198.204 462.606 195.659 462.456 193.123C462.33 179.634 496.839 188.1 496.839 188.1Z" fill="#F4DBBD"/>
<path d="M496.838 188.1C496.838 188.1 492.464 211.561 478.534 210.198C474.734 209.968 471.109 208.514 468.202 206.054C465.294 203.594 463.259 200.26 462.4 196.548L496.838 188.1Z" fill="#E0BE99"/>
<path d="M498.058 184.047C497.213 187.797 495.746 191.38 493.72 194.647C488.019 202.988 475.076 205.553 466.507 200.028C461.894 196.71 458.323 192.143 456.217 186.863C451.206 175.805 449.53 163.525 451.395 151.528C451.888 146.844 453.676 142.391 456.558 138.667C461.631 132.802 470.29 131.277 478.07 131.69C485.115 132.067 492.411 133.824 497.7 138.326C500.553 140.848 502.67 144.095 503.828 147.724C504.987 151.352 505.142 155.226 504.279 158.936C502.289 167.294 500.335 175.688 498.058 184.047Z" fill="#F4DBBD"/>
<path d="M334.71 216.225C333.551 215.104 332.116 214.312 330.551 213.929C328.969 213.728 327.377 213.608 325.782 213.57C322.502 213.193 319.06 211.454 316.102 212.924C315.106 213.503 314.286 214.34 313.727 215.348C313.169 216.355 312.893 217.495 312.929 218.646C313.019 220.948 313.678 223.191 314.847 225.175C319.795 234.592 327.073 237.731 335.624 242.771C340.124 245.425 343.261 251.739 346.38 256.134L357.692 271.81C362.317 278.213 367.014 284.706 373.199 289.639C374.204 290.513 375.357 291.199 376.605 291.666C378.876 292.21 381.264 291.97 383.381 290.984C392.344 287.522 400.322 280.958 408.066 275.29C411.651 272.635 415.362 269.909 418.965 267.236C420.525 266.07 423.429 264.582 424.433 262.824C424.986 261.703 425.309 260.484 425.383 259.237C426.746 248.654 424.863 237.874 425.132 227.202C413.336 240.69 399.712 254.95 383.901 263.649C383.43 263.965 382.888 264.156 382.323 264.205C381.75 264.158 381.197 263.973 380.71 263.667C367.602 256.679 356.06 247.083 346.792 235.471C343.37 230.695 340.37 225.63 337.829 220.332C337.019 218.803 335.966 217.415 334.71 216.225Z" fill="#F4DBBD"/>
<path d="M504.207 161.895C504.936 161.507 505.768 161.355 506.587 161.461C507.406 161.567 508.172 161.926 508.778 162.487C509.13 162.947 509.375 163.48 509.495 164.047C510.057 167.26 509.384 170.565 507.613 173.303C507.209 174.095 506.655 174.802 505.982 175.383C504.612 176.248 503.011 176.673 501.392 176.603C501.032 176.675 500.66 176.675 500.299 176.603C500.009 176.469 499.752 176.273 499.546 176.029C499.03 175.382 498.651 174.636 498.432 173.837C498.213 173.039 498.159 172.204 498.273 171.383C498.614 167.689 500.729 163.42 504.207 161.895Z" fill="#F4DBBD"/>
<path d="M450.211 175.903C450.937 176.299 451.769 176.457 452.589 176.354C453.409 176.251 454.176 175.892 454.782 175.329C455.135 174.87 455.38 174.336 455.499 173.769C456.07 170.557 455.396 167.248 453.617 164.514C453.208 163.719 452.655 163.007 451.986 162.415C450.617 161.547 449.015 161.121 447.396 161.195C447.028 161.15 446.655 161.186 446.303 161.303C446.009 161.43 445.751 161.627 445.55 161.877C445.034 162.524 444.654 163.27 444.436 164.069C444.217 164.867 444.163 165.702 444.277 166.523C444.618 170.128 446.751 174.397 450.211 175.903Z" fill="#F4DBBD"/>
<path d="M427.5 218.628L401.811 251.022C407.027 266.501 424.434 286.141 424.434 286.141L427.5 218.628Z" fill="#36D1DC"/>
<path d="M507.056 170.074C506.604 171.209 505.87 172.209 504.923 172.98C504.507 173.323 503.991 173.524 503.453 173.553C502.914 173.582 502.38 173.437 501.929 173.141C501.762 173.03 501.636 172.866 501.571 172.675C501.505 172.365 501.549 172.041 501.696 171.76L501.911 171.186C501.964 171.019 502.042 170.862 502.144 170.72C502.539 170.2 503.345 170.289 503.937 169.966C504.529 169.644 504.762 168.819 505.084 168.173C505.197 167.906 505.383 167.676 505.621 167.511C505.859 167.345 506.139 167.252 506.429 167.24C506.702 167.298 506.95 167.442 507.134 167.653C507.318 167.863 507.429 168.127 507.451 168.406C507.48 168.988 507.344 169.567 507.056 170.074Z" fill="#E0BE99"/>
<path d="M446.644 168.926C447.092 170.063 447.827 171.064 448.777 171.832C449.196 172.177 449.713 172.38 450.254 172.412C450.795 172.444 451.332 172.304 451.789 172.011C451.957 171.892 452.082 171.722 452.147 171.527C452.203 171.222 452.159 170.908 452.022 170.63L451.807 170.056C451.759 169.888 451.679 169.729 451.574 169.59C451.179 169.07 450.373 169.141 449.781 168.819C449.189 168.496 448.956 167.671 448.634 167.025C448.518 166.76 448.331 166.533 448.093 166.368C447.856 166.203 447.578 166.108 447.289 166.092C447.014 166.14 446.764 166.28 446.579 166.488C446.393 166.697 446.283 166.962 446.267 167.24C446.226 167.827 446.357 168.413 446.644 168.926Z" fill="#E0BE99"/>
<path d="M497.628 202.952L504.906 206.324L501.32 240.009L482.031 247.434C482.031 247.434 490.116 222.754 497.628 202.952Z" fill="url(#paint4_linear)"/>
<path d="M495.153 242.394L497.609 255.308L474.232 281.442L482.031 247.524L495.153 242.394Z" fill="url(#paint5_linear)"/>
<path d="M459.193 205.732L451.915 209.086L447.756 240.009L466.973 247.434C466.973 247.434 459.444 216.314 459.193 205.732Z" fill="url(#paint6_linear)"/>
<path d="M453.868 242.394L451.395 255.308L474.771 281.442L466.973 247.524L453.868 242.394Z" fill="url(#paint7_linear)"/>
<path d="M444.422 328.238L516.523 315.378L530.434 250.645V322.696V328.633L444.422 328.238Z" fill="url(#paint8_linear)"/>
<path d="M472.135 137.627C473.031 143.008 473.927 148.999 478.051 152.765C480.387 154.728 483.121 156.16 486.064 156.962C492.8 159.177 499.81 160.45 506.895 160.747C507.931 156.11 507.919 151.301 506.86 146.669C505.801 142.038 503.721 137.701 500.773 133.976C497.825 130.252 494.083 127.233 489.82 125.14C485.557 123.047 480.881 121.932 476.133 121.879C463.781 121.538 470.826 129.573 472.135 137.627Z" fill="#FC682D"/>
<path d="M579.157 322.427H188.301V343.736H579.157V322.427Z" fill="white"/>
<path d="M483.7 451.032C481.132 453.606 479.286 456.811 478.349 460.326C477.412 463.84 477.416 467.539 478.36 471.052C479.305 474.564 481.158 477.765 483.731 480.334C486.305 482.903 489.509 484.748 493.022 485.685V490.42H243.84C238.64 490.421 233.572 488.779 229.358 485.729C225.145 482.679 222.001 478.377 220.374 473.435C219.53 470.92 219.1 468.285 219.102 465.632C219.099 462.381 219.738 459.161 220.98 456.157C222.222 453.153 224.044 450.423 226.342 448.124C228.64 445.825 231.368 444.002 234.371 442.759C237.373 441.516 240.591 440.877 243.84 440.88H493.022V445.615C489.49 446.563 486.273 448.432 483.7 451.032Z" fill="#36D1DC"/>
<path d="M493.02 485.685V490.42H243.839C238.639 490.421 233.571 488.779 229.357 485.729C225.144 482.679 222 478.377 220.373 473.434C229.838 475.103 289.767 484.663 323.129 465.632L479.396 473.973C480.64 476.825 482.511 479.359 484.87 481.387C487.229 483.415 490.015 484.884 493.02 485.685Z" fill="url(#paint9_linear)"/>
<path d="M483.698 451.032C481.13 453.606 479.285 456.812 478.347 460.326C477.41 463.84 477.414 467.539 478.359 471.052C479.304 474.564 481.156 477.765 483.73 480.334C486.303 482.903 489.508 484.748 493.02 485.685V486.385H343.834C341.065 486.466 338.308 485.991 335.725 484.987C333.143 483.983 330.789 482.471 328.801 480.54C326.813 478.609 325.233 476.298 324.154 473.746C323.075 471.193 322.52 468.449 322.52 465.677C322.52 462.905 323.075 460.161 324.154 457.608C325.233 455.056 326.813 452.745 328.801 450.814C330.789 448.883 333.143 447.371 335.725 446.367C338.308 445.363 341.065 444.888 343.834 444.969H493.02V445.651C489.492 446.589 486.276 448.445 483.698 451.032Z" fill="white"/>
<path d="M635.268 502.689C632.7 505.263 630.855 508.469 629.917 511.983C628.98 515.497 628.984 519.197 629.929 522.709C630.874 526.221 632.726 529.423 635.3 531.991C637.873 534.56 641.078 536.406 644.59 537.342V542.078H395.409C390.213 542.081 385.148 540.444 380.935 537.401C376.722 534.358 373.575 530.063 371.943 525.128C371.098 522.613 370.668 519.978 370.67 517.325C370.668 514.074 371.306 510.854 372.548 507.85C373.791 504.846 375.613 502.116 377.911 499.817C380.208 497.518 382.936 495.695 385.939 494.452C388.941 493.209 392.159 492.57 395.409 492.573H644.59V497.308C641.062 498.246 637.846 500.103 635.268 502.689Z" fill="#36D1DC"/>
<path d="M644.591 537.342V542.078H395.409C390.213 542.081 385.149 540.444 380.936 537.401C376.723 534.358 373.576 530.063 371.943 525.128C381.409 526.796 441.338 536.356 474.699 517.325L630.966 525.666C632.215 528.511 634.088 531.038 636.447 533.06C638.805 535.082 641.589 536.545 644.591 537.342Z" fill="url(#paint10_linear)"/>
<path d="M635.269 502.689C632.7 505.263 630.855 508.469 629.918 511.983C628.98 515.497 628.984 519.196 629.929 522.709C630.874 526.221 632.726 529.422 635.3 531.991C637.874 534.56 641.078 536.406 644.59 537.342V538.006H495.404C492.635 538.087 489.878 537.612 487.296 536.608C484.713 535.604 482.359 534.092 480.371 532.161C478.384 530.23 476.804 527.92 475.725 525.367C474.646 522.814 474.09 520.07 474.09 517.298C474.09 514.526 474.646 511.783 475.725 509.23C476.804 506.677 478.384 504.366 480.371 502.435C482.359 500.504 484.713 498.992 487.296 497.988C489.878 496.984 492.635 496.509 495.404 496.591H644.59V497.272C641.059 498.22 637.842 500.089 635.269 502.689Z" fill="white"/>
<path d="M321.999 212.817L292.115 141.286L325.782 213.57L321.999 212.817Z" fill="white"/>
<path d="M585.684 358.174C583.158 359.312 580.848 360.878 578.854 362.802C577.86 363.764 577.077 364.923 576.555 366.204C576.033 367.486 575.785 368.862 575.824 370.246C576.093 373.6 578.496 376.362 581.023 378.55C583.909 381.097 587.423 383.752 587.656 387.519C589.718 385.976 591.6 384.182 593.733 382.729C597.462 380.182 601.854 378.819 605.959 376.936C610.064 375.053 614.134 372.398 616.088 368.326C617.143 365.752 617.749 363.016 617.88 360.237C618.301 357.266 618.379 354.257 618.114 351.269C617.833 348.262 616.514 345.446 614.385 343.305C611.145 340.82 607.326 339.203 603.288 338.606C601.016 338.722 598.825 339.489 596.976 340.815C595.126 342.141 593.696 343.97 592.855 346.085C592.012 348.327 592.407 350.874 591.582 353.116C590.542 355.735 588.015 356.991 585.684 358.174Z" fill="#FC682D"/>
<path d="M492.77 493.793C491.96 493.777 491.154 493.898 490.385 494.151C490.001 494.284 489.663 494.523 489.409 494.841C489.155 495.158 488.997 495.541 488.951 495.945C488.983 496.34 489.113 496.72 489.329 497.052C489.545 497.384 489.84 497.657 490.188 497.846C490.851 498.277 491.622 498.528 492.286 498.976C492.845 499.441 493.445 499.855 494.078 500.214C495.214 500.555 496.43 500.51 497.538 500.088C502.703 498.829 508.05 498.495 513.332 499.102C513.844 499.165 514.361 499.165 514.873 499.102C515.625 498.884 516.31 498.479 516.862 497.923C517.414 497.368 517.815 496.681 518.028 495.927C519.086 492.715 519.399 489.305 518.943 485.954C518.936 485.58 518.844 485.212 518.674 484.878C518.46 484.618 518.191 484.409 517.885 484.268C512.883 481.793 510.141 486.743 506.466 489.165C502.377 491.867 497.658 493.461 492.77 493.793Z" fill="#FFBBAB"/>
<path d="M613.721 420.181C613.721 420.181 614.976 438.907 598.25 444.557C581.524 450.207 551.551 445.597 551.551 445.597C551.551 445.597 539.486 468.717 527.153 479.676L519.265 487.479C517.603 487.881 515.856 487.731 514.288 487.051C512.719 486.372 511.414 485.2 510.57 483.712C510.57 483.712 533.875 437.239 537.012 433.759C540.571 429.475 545.328 426.352 550.672 424.791L584.052 414.28L613.721 420.181Z" fill="#473F47"/>
<path d="M502.092 358.838L520.001 396.882L553.093 396.648L552.824 393.778L522.385 393.438L505.534 357.439L502.092 358.838Z" fill="#473F47"/>
<path d="M589.681 334.247C589.071 335.287 587.799 335.897 587.386 337.027C586.974 338.157 587.852 339.843 588.336 341.224C589.036 343.144 588.82 345.296 589.484 347.233C589.599 347.652 589.836 348.026 590.165 348.309C590.472 348.519 590.82 348.66 591.187 348.722C592.62 349.011 594.086 349.096 595.543 348.973C595.828 348.917 596.124 348.955 596.386 349.081C596.599 349.269 596.734 349.532 596.762 349.816C597.599 353.471 597.538 357.275 596.583 360.901C596.278 362.103 595.937 363.555 596.816 364.488C597.135 364.776 597.524 364.974 597.945 365.062C600.706 365.726 603.323 363.681 605.223 361.475C606.887 359.557 608.319 357.45 609.49 355.197C609.855 354.571 610.104 353.885 610.225 353.17C610.276 352.246 610.149 351.32 609.849 350.444C609.057 347.428 608.577 344.338 608.414 341.224C608.217 337.242 608.504 333.099 606.962 329.404C606.524 328.134 605.68 327.043 604.56 326.301C603.222 325.664 601.729 325.421 600.258 325.602C597.371 325.709 594.181 326.104 592.209 328.238C591.653 328.848 590.452 332.956 589.681 334.247Z" fill="#FFBBAB"/>
<path d="M609.993 353.421C609.993 353.421 598.071 359.591 594.468 364.434C590.865 369.277 584.985 372.846 587.297 382.012C589.61 391.178 586.795 405.168 586.795 405.168C586.795 405.168 591.976 421.472 604.722 425.598C617.468 429.723 613.954 428.414 613.954 428.414C613.954 428.414 620.713 398.191 623.366 389.779C626.019 381.366 621.537 352.076 609.993 353.421Z" fill="#36D1DC"/>
<path d="M593.517 327.826C593.754 329.791 594.689 331.605 596.152 332.938C597.568 334.247 599.307 335.162 600.777 336.417C601.552 336.998 602.169 337.763 602.573 338.644C602.977 339.524 603.155 340.491 603.09 341.458C603.652 341.234 604.275 341.213 604.851 341.4C605.427 341.587 605.92 341.969 606.245 342.48C606.396 342.841 606.444 343.236 606.383 343.622C606.323 344.008 606.157 344.371 605.904 344.668C605.644 344.958 605.322 345.186 604.962 345.336C604.603 345.485 604.214 345.551 603.825 345.529C605.332 346.145 606.623 347.194 607.536 348.543C608.557 350.049 609.059 351.843 609.992 353.421C611.143 355.016 612.584 356.379 614.24 357.439C614.983 357.941 615.597 358.611 616.033 359.394C616.373 360.614 616.786 361.811 617.27 362.981C618.329 364.475 619.466 365.912 620.676 367.286C622.313 369.685 623.25 372.492 623.383 375.393C623.302 374.534 623.302 373.67 623.383 372.811C623.682 372.308 623.968 371.788 624.243 371.25C624.702 370.311 625.057 369.325 625.301 368.309C625.645 365.981 625.711 363.621 625.498 361.277C625.498 356.255 630.231 346.803 626.43 342.498C624.917 341.229 623.304 340.084 621.608 339.072C618.256 336.292 617.79 331.395 615.674 327.593C614.736 325.919 613.475 324.448 611.964 323.265C610.453 322.083 608.722 321.213 606.872 320.705C601.925 319.288 592.854 320.849 593.517 327.826Z" fill="#FC682D"/>
<path d="M605.402 369.134C605.402 369.134 597.873 389.51 596.439 390.998C595.005 392.487 610.942 401.491 610.942 401.491C610.942 401.491 621.357 381.671 620.873 373.098C620.389 364.524 611.264 361.044 605.402 369.134Z" fill="#36D1DC"/>
<path d="M610.87 398.729C610.87 398.729 610.314 405.294 602.265 405.168L566.501 404.666C564.063 403.41 560.729 403.213 558.918 401.079C558.04 400.11 557.592 398.819 556.767 397.814C555.627 396.557 554.088 395.733 552.411 395.482C550.748 395.243 549.064 395.201 547.391 395.357C547.063 394.978 546.883 394.494 546.883 393.994C546.883 393.493 547.063 393.009 547.391 392.63C548.093 391.904 549 391.409 549.991 391.213C554.108 390.182 558.466 390.827 562.109 393.007C563.164 393.757 564.316 394.36 565.533 394.801C566.429 394.983 567.348 395.032 568.258 394.944C578.566 394.46 588.748 392.272 599.056 391.805C601.473 391.564 603.913 391.82 606.227 392.559C607.436 393.143 608.488 394.007 609.296 395.08C610.104 396.154 610.643 397.405 610.87 398.729Z" fill="#FFBBAB"/>
<path d="M495.87 400.917H490.797V493.792H495.87V400.917Z" fill="white"/>
<path d="M553.093 400.917H548.02V493.792H553.093V400.917Z" fill="white"/>
<path d="M555.891 396.881H484.848V404.953H555.891V396.881Z" fill="#36D1DC"/>
<path d="M555.891 396.881H484.848V404.953H555.891V396.881Z" fill="url(#paint11_linear)"/>
<path d="M615.154 443.445H568.921C567.832 443.445 566.949 444.328 566.949 445.418V453.471C566.949 454.561 567.832 455.444 568.921 455.444H615.154C616.243 455.444 617.126 454.561 617.126 453.471V445.418C617.126 444.328 616.243 443.445 615.154 443.445Z" fill="#473F47"/>
<path d="M576.792 455.444H568.313L564.082 494.707H572.561L576.792 455.444Z" fill="#473F47"/>
<path d="M619.922 494.707L614.311 455.444H605.832L612.877 494.707H619.922Z" fill="#473F47"/>
<path d="M632.419 377.6H624.818L607.645 443.75H615.246L632.419 377.6Z" fill="#473F47"/>
<path d="M186.94 455.444H233.173C234.262 455.444 235.145 454.561 235.145 453.471V445.418C235.145 444.328 234.262 443.445 233.173 443.445H186.94C185.851 443.445 184.968 444.328 184.968 445.418V453.471C184.968 454.561 185.851 455.444 186.94 455.444Z" fill="#473F47"/>
<path d="M225.303 455.444H233.782L238.013 494.707H229.533L225.303 455.444Z" fill="#473F47"/>
<path d="M182.17 494.707L187.781 455.444H196.26L189.215 494.707H182.17Z" fill="#473F47"/>
<path d="M169.676 377.6H177.277L194.451 443.75H186.85L169.676 377.6Z" fill="#473F47"/>
<path d="M398.745 502.707C396.177 505.281 394.331 508.487 393.394 512.001C392.457 515.515 392.46 519.214 393.405 522.727C394.35 526.239 396.202 529.44 398.776 532.009C401.35 534.578 404.554 536.424 408.067 537.36V542.095H158.885C153.689 542.098 148.625 540.462 144.412 537.419C140.199 534.376 137.052 530.081 135.419 525.145C134.575 522.631 134.145 519.996 134.146 517.343C134.144 514.092 134.782 510.872 136.025 507.868C137.267 504.864 139.089 502.134 141.387 499.835C143.685 497.536 146.413 495.713 149.415 494.47C152.418 493.227 155.636 492.588 158.885 492.591H408.067V497.326C404.539 498.264 401.322 500.12 398.745 502.707Z" fill="#36D1DC"/>
<path d="M408.065 537.36V542.096H158.884C153.688 542.099 148.623 540.462 144.41 537.419C140.197 534.376 137.051 530.081 135.418 525.146C144.883 526.814 204.812 536.374 238.174 517.343L394.441 525.684C395.689 528.529 397.562 531.056 399.921 533.078C402.28 535.099 405.064 536.563 408.065 537.36Z" fill="url(#paint12_linear)"/>
<path d="M398.743 502.707C396.175 505.281 394.33 508.487 393.392 512.001C392.455 515.515 392.459 519.214 393.404 522.727C394.349 526.239 396.201 529.44 398.775 532.009C401.348 534.578 404.552 536.424 408.065 537.36V538.006H258.879C256.11 538.087 253.353 537.612 250.77 536.608C248.188 535.604 245.833 534.092 243.846 532.161C241.858 530.23 240.278 527.92 239.199 525.367C238.12 522.814 237.564 520.07 237.564 517.298C237.564 514.526 238.12 511.783 239.199 509.23C240.278 506.677 241.858 504.366 243.846 502.435C245.833 500.504 248.188 498.992 250.77 497.988C253.353 496.984 256.11 496.509 258.879 496.591H408.065V497.272C404.531 498.225 401.314 500.101 398.743 502.707Z" fill="white"/>
<path d="M211.93 326.122L228.53 333.081L211.93 339.592V326.122Z" fill="#36D1DC"/>
<path d="M565.337 330.857H235.252V335.287H565.337V330.857Z" fill="#36D1DC"/>
<path d="M190.758 420.683C190.758 420.683 189.503 439.409 206.228 445.059C218.168 449.095 231.864 448.216 244.233 447.122C246.223 446.942 249.79 445.938 251.547 447.265C254.021 449.059 252.784 454.063 252.712 456.771C252.551 462.655 252.408 468.52 252.246 474.403C252.246 477.112 252.246 479.892 252.031 482.582C251.816 485.273 251.153 488.429 250.956 491.407C250.93 491.531 250.932 491.659 250.959 491.783C250.987 491.907 251.041 492.023 251.117 492.124C251.22 492.205 251.338 492.264 251.464 492.298C251.591 492.332 251.722 492.34 251.852 492.322L273.758 491.371C273.994 491.398 274.231 491.334 274.422 491.192C274.744 490.887 274.529 490.349 274.278 489.99C272.019 487.076 268.872 484.98 265.315 484.017C264.476 483.807 263.677 483.462 262.949 482.995C260.672 481.201 262.554 477.345 263.074 475.174L265.333 465.74L269.779 447.193C271.105 441.705 271.428 437.526 267.197 433.705C263.39 429.93 258.783 427.061 253.716 425.311L220.355 414.8L190.758 420.683Z" fill="#473F47"/>
<path d="M322.574 358.838L304.665 396.882L271.572 396.648L271.841 393.778L302.263 393.438L319.114 357.439L322.574 358.838Z" fill="#473F47"/>
<path d="M234.965 334.247C235.592 335.287 236.865 335.897 237.277 337.027C237.69 338.157 236.811 339.843 236.309 341.224C235.628 343.144 235.843 345.296 235.18 347.233C235.065 347.652 234.828 348.026 234.499 348.309C234.191 348.516 233.843 348.657 233.477 348.722C232.044 349.011 230.577 349.096 229.121 348.973C228.836 348.917 228.54 348.955 228.278 349.081C228.065 349.269 227.93 349.532 227.902 349.816C227.058 353.47 227.114 357.273 228.063 360.901C228.386 362.102 228.726 363.555 227.848 364.488C227.529 364.776 227.139 364.974 226.719 365.062C223.958 365.726 221.341 363.681 219.44 361.475C217.776 359.557 216.344 357.45 215.174 355.197C214.808 354.571 214.559 353.885 214.439 353.17C214.387 352.246 214.515 351.32 214.815 350.444C215.601 347.427 216.075 344.338 216.232 341.224C216.447 337.242 216.232 333.099 217.684 329.404C218.129 328.133 218.979 327.042 220.104 326.301C221.436 325.664 222.923 325.421 224.388 325.602C227.292 325.709 230.465 326.104 232.437 328.238C233.011 328.848 234.212 332.956 234.965 334.247Z" fill="#FFBBAB"/>
<path d="M214.6 353.493H214.851C220.121 354.802 227.794 359.609 229.515 364.954C231.684 371.663 233.1 380.685 231.541 387.626C230.483 392.344 227.955 396.594 226.539 401.222C225.338 405.043 224.836 409.096 223.259 412.773C221.289 417.048 217.974 420.559 213.819 422.769C209.665 424.978 204.902 425.764 200.259 425.006C197.795 424.587 195.473 423.564 193.5 422.028C191.711 420.363 190.329 418.307 189.462 416.021C188.595 413.735 188.265 411.279 188.499 408.845C189.026 403.979 190.302 399.223 192.281 394.747L200.492 373.313C202.482 368.183 207.304 352.04 214.6 353.493Z" fill="#36D1DC"/>
<path d="M210.352 406.208C210.813 406.978 211.117 407.832 211.248 408.72C211.272 409.373 211.194 410.027 211.015 410.657C210.171 414.142 209.815 417.728 209.957 421.311C209.902 421.958 210.101 422.602 210.513 423.105C210.978 423.437 211.537 423.613 212.109 423.607C214.159 423.941 216.26 423.73 218.204 422.997C220.296 421.682 221.872 419.687 222.667 417.347C225.294 410.838 227.293 404.093 228.637 397.204C228.975 396.102 229.085 394.942 228.96 393.796C228.739 392.945 228.354 392.146 227.825 391.445C227.296 390.743 226.634 390.152 225.876 389.707C224.442 388.72 222.811 388.003 221.43 386.927C218.706 384.846 216.698 381.061 212.987 380.577C211.704 380.484 210.43 380.841 209.382 381.588C208.335 382.334 207.581 383.423 207.25 384.667C204.812 391.106 207.43 400.307 210.352 406.208Z" fill="url(#paint13_linear)"/>
<path d="M219.279 369.134C219.279 369.134 226.808 389.51 228.242 390.998C229.676 392.487 213.758 401.491 213.758 401.491C213.758 401.491 203.324 381.671 203.826 373.098C204.328 364.524 213.399 361.044 219.279 369.134Z" fill="#36D1DC"/>
<path d="M213.793 398.729C213.793 398.729 214.349 405.294 222.38 405.168L258.233 404.666C260.653 403.41 263.988 403.213 265.816 401.079C266.677 400.11 267.125 398.819 267.968 397.814C269.107 396.557 270.646 395.733 272.324 395.482C273.986 395.243 275.671 395.201 277.343 395.357C277.668 394.977 277.846 394.493 277.846 393.994C277.846 393.494 277.668 393.01 277.343 392.63C276.639 391.907 275.733 391.414 274.744 391.213C270.626 390.182 266.268 390.827 262.625 393.007C261.57 393.757 260.418 394.36 259.201 394.801C258.305 394.983 257.387 395.032 256.476 394.944C246.169 394.46 235.986 392.272 225.678 391.805C223.262 391.568 220.822 391.824 218.508 392.559C217.283 393.131 216.215 393.991 215.394 395.065C214.573 396.14 214.024 397.397 213.793 398.729Z" fill="#FFBBAB"/>
<path d="M266.159 400.917H261.086V493.792H266.159V400.917Z" fill="white"/>
<path d="M323.397 400.917H318.324V493.792H323.397V400.917Z" fill="white"/>
<path d="M326.176 396.881H255.133V404.953H326.176V396.881Z" fill="#36D1DC"/>
<path d="M326.176 396.881H255.133V404.953H326.176V396.881Z" fill="url(#paint14_linear)"/>
<path d="M232.527 317.961C231.665 316.635 230.504 315.53 229.137 314.736C227.77 313.941 226.236 313.479 224.658 313.387C223.6 313.229 222.521 313.297 221.492 313.588C220.463 313.879 219.507 314.385 218.688 315.073C218.043 315.719 217.559 316.526 216.895 317.154C214.977 318.947 212.019 318.732 209.725 319.826C207.651 320.904 206.058 322.722 205.261 324.92C204.481 327.105 204.046 329.399 203.97 331.718C203.715 333.838 203.83 335.987 204.311 338.068C204.77 339.605 205.579 341.016 206.673 342.189C207.768 343.362 209.119 344.266 210.621 344.83C211.334 344.999 211.994 345.344 212.539 345.834C212.969 346.318 213.113 347.018 213.525 347.52C214.547 348.776 216.591 348.309 217.863 347.323C218.968 346.156 220.229 345.148 221.61 344.327L218.025 339.467C217.564 338.982 217.302 338.342 217.29 337.673C217.398 337.285 217.634 336.945 217.959 336.707C218.284 336.47 218.68 336.349 219.082 336.364C219.889 336.436 220.651 336.77 221.252 337.314C221.771 337.745 222.56 338.229 223.044 337.727C223.192 337.57 223.28 337.367 223.295 337.153C223.69 334.749 221.503 332.364 222.148 329.978C222.199 329.761 222.318 329.566 222.488 329.422C222.741 329.288 223.034 329.249 223.313 329.315C224.742 329.547 226.195 329.583 227.633 329.422C232.169 328.579 234.786 321.853 232.527 317.961Z" fill="#473F47"/>
<path d="M226.037 368.578C226.037 369.457 226.037 370.569 225.123 370.784C224.764 370.845 224.395 370.794 224.066 370.64C222.693 370.157 221.391 369.494 220.193 368.667C220.503 376.089 221.517 383.464 223.223 390.693C223.295 391.105 223.454 391.496 223.689 391.841C223.948 392.089 224.255 392.281 224.591 392.404C224.927 392.528 225.286 392.58 225.643 392.559C227.409 392.65 229.175 392.394 230.842 391.805C226.396 384.416 226.199 375.035 228.709 366.802C229.235 365.613 229.373 364.289 229.103 363.017C228.61 362.137 227.937 361.37 227.128 360.767C226.318 360.164 225.391 359.739 224.406 359.52C223.868 362.228 225.822 365.815 226.037 368.578Z" fill="url(#paint15_linear)"/>
</g>
<defs>
<linearGradient id="paint0_linear" x1="371.728" y1="360.739" x2="383.537" y2="519.799" gradientUnits="userSpaceOnUse">
<stop offset="0.01"/>
<stop offset="0.08" stop-opacity="0.69"/>
<stop offset="0.21" stop-opacity="0.32"/>
<stop offset="1" stop-opacity="0"/>
</linearGradient>
<linearGradient id="paint1_linear" x1="22545.7" y1="20239.5" x2="38010.3" y2="14049.4" gradientUnits="userSpaceOnUse">
<stop offset="0.01"/>
<stop offset="0.08" stop-opacity="0.69"/>
<stop offset="0.21" stop-opacity="0.32"/>
<stop offset="1" stop-opacity="0"/>
</linearGradient>
<linearGradient id="paint2_linear" x1="-270066" y1="37606" x2="-270908" y2="14160.1" gradientUnits="userSpaceOnUse">
<stop offset="0.01"/>
<stop offset="0.08" stop-opacity="0.69"/>
<stop offset="0.21" stop-opacity="0.32"/>
<stop offset="1" stop-opacity="0"/>
</linearGradient>
<linearGradient id="paint3_linear" x1="-35812.5" y1="8683.75" x2="-35180.5" y2="8593.51" gradientUnits="userSpaceOnUse">
<stop offset="0.01"/>
<stop offset="0.08" stop-opacity="0.69"/>
<stop offset="0.21" stop-opacity="0.32"/>
<stop offset="1" stop-opacity="0"/>
</linearGradient>
<linearGradient id="paint4_linear" x1="-52352" y1="9378.81" x2="-53339.2" y2="8846.09" gradientUnits="userSpaceOnUse">
<stop offset="0.01"/>
<stop offset="0.08" stop-opacity="0.69"/>
<stop offset="0.21" stop-opacity="0.32"/>
<stop offset="1" stop-opacity="0"/>
</linearGradient>
<linearGradient id="paint5_linear" x1="-53648.3" y1="8744.14" x2="-54424.2" y2="8420.98" gradientUnits="userSpaceOnUse">
<stop offset="0.01"/>
<stop offset="0.08" stop-opacity="0.69"/>
<stop offset="0.21" stop-opacity="0.32"/>
<stop offset="1" stop-opacity="0"/>
</linearGradient>
<linearGradient id="paint6_linear" x1="-10832.5" y1="8881.92" x2="-9864.67" y2="8414.06" gradientUnits="userSpaceOnUse">
<stop offset="0.01"/>
<stop offset="0.08" stop-opacity="0.69"/>
<stop offset="0.21" stop-opacity="0.32"/>
<stop offset="1" stop-opacity="0"/>
</linearGradient>
<linearGradient id="paint7_linear" x1="-13623.7" y1="8744.14" x2="-12847.5" y2="8421.03" gradientUnits="userSpaceOnUse">
<stop offset="0.01"/>
<stop offset="0.08" stop-opacity="0.69"/>
<stop offset="0.21" stop-opacity="0.32"/>
<stop offset="1" stop-opacity="0"/>
</linearGradient>
<linearGradient id="paint8_linear" x1="-208978" y1="14824" x2="-210551" y2="28056.2" gradientUnits="userSpaceOnUse">
<stop offset="0.01"/>
<stop offset="0.08" stop-opacity="0.69"/>
<stop offset="0.21" stop-opacity="0.32"/>
<stop offset="1" stop-opacity="0"/>
</linearGradient>
<linearGradient id="paint9_linear" x1="69033.8" y1="6382.1" x2="69114.9" y2="13877" gradientUnits="userSpaceOnUse">
<stop offset="0.01"/>
<stop offset="0.08" stop-opacity="0.69"/>
<stop offset="0.21" stop-opacity="0.32"/>
<stop offset="1" stop-opacity="0"/>
</linearGradient>
<linearGradient id="paint10_linear" x1="92240.5" y1="7138.11" x2="92321.3" y2="14622.2" gradientUnits="userSpaceOnUse">
<stop offset="0.01"/>
<stop offset="0.08" stop-opacity="0.69"/>
<stop offset="0.21" stop-opacity="0.32"/>
<stop offset="1" stop-opacity="0"/>
</linearGradient>
<linearGradient id="paint11_linear" x1="21091" y1="1996.8" x2="21091.6" y2="2508.16" gradientUnits="userSpaceOnUse">
<stop offset="0.01"/>
<stop offset="0.08" stop-opacity="0.69"/>
<stop offset="0.21" stop-opacity="0.32"/>
<stop offset="1" stop-opacity="0"/>
</linearGradient>
<linearGradient id="paint12_linear" x1="56030.9" y1="7138.14" x2="56111.7" y2="14622.2" gradientUnits="userSpaceOnUse">
<stop offset="0.01"/>
<stop offset="0.08" stop-opacity="0.69"/>
<stop offset="0.21" stop-opacity="0.32"/>
<stop offset="1" stop-opacity="0"/>
</linearGradient>
<linearGradient id="paint13_linear" x1="4021.23" y1="13216.6" x2="5206.7" y2="13143.6" gradientUnits="userSpaceOnUse">
<stop offset="0.01"/>
<stop offset="0.08" stop-opacity="0.69"/>
<stop offset="0.21" stop-opacity="0.32"/>
<stop offset="1" stop-opacity="0"/>
</linearGradient>
<linearGradient id="paint14_linear" x1="11767" y1="2125.62" x2="11767.3" y2="2342.68" gradientUnits="userSpaceOnUse">
<stop offset="0.01"/>
<stop offset="0.08" stop-opacity="0.69"/>
<stop offset="0.21" stop-opacity="0.32"/>
<stop offset="1" stop-opacity="0"/>
</linearGradient>
<linearGradient id="paint15_linear" x1="2551.04" y1="9921.31" x2="1695.04" y2="9837.77" gradientUnits="userSpaceOnUse">
<stop offset="0.01"/>
<stop offset="0.08" stop-opacity="0.69"/>
<stop offset="0.21" stop-opacity="0.32"/>
<stop offset="1" stop-opacity="0"/>
</linearGradient>
<clipPath id="clip0">
<rect width="704" height="577" fill="white"/>
</clipPath>
</defs>
</svg>
