<svg width="552" height="414" viewBox="0 0 552 414" fill="none" xmlns="http://www.w3.org/2000/svg">
<g clip-path="url(#clip0)">
<path opacity="0.18" d="M2.48112 209.427C-7.15118 266.069 11.4264 328.658 56.1248 364.806C97.6265 398.304 153.934 405.275 207.059 409.694C287.833 416.455 372.897 419.611 445.848 384.262C461.789 376.561 477.128 367.009 494.276 362.534C504.09 359.953 514.704 358.859 522.584 352.547C530.463 346.234 533.8 336.261 536.352 326.624C544.877 293.787 545.339 255.745 524.042 229.345C499.015 198.317 452.83 193.422 423.288 166.686C408.3 153.107 398.541 134.746 384.927 119.807C342.472 73.138 272.27 67.7376 209.274 65.5212C158.281 63.7538 105.66 47.8048 68.4071 87.0671C36.047 121.167 10.1225 162.309 2.48112 209.427Z" fill="#36D1DC"/>
<path d="M344.997 376.449C345.054 377.089 344.958 377.733 344.717 378.329C344.323 378.908 343.805 379.391 343.201 379.746C342.597 380.1 341.923 380.315 341.225 380.377L340.174 378.904C337.44 381.457 333.29 381.527 329.56 381.387C326.293 381.274 323.04 381.106 319.745 380.938C319.473 380.963 319.198 380.927 318.94 380.833C318.683 380.738 318.451 380.587 318.259 380.391C318.074 380.026 318.034 379.605 318.147 379.212C318.466 377.675 319.256 376.274 320.406 375.206C321.557 374.137 323.012 373.454 324.569 373.251C327.064 372.984 329.63 374.008 332.084 373.461C335.281 372.746 337.622 369.113 340.959 369.043C344.296 368.973 344.913 373.882 344.997 376.449Z" fill="#3E3E54"/>
<path d="M344.997 376.449C345.054 377.089 344.958 377.733 344.717 378.329C344.323 378.908 343.805 379.391 343.201 379.746C342.597 380.1 341.923 380.315 341.225 380.377L340.174 378.904C337.44 381.457 333.29 381.527 329.56 381.387C326.293 381.274 323.04 381.106 319.745 380.938C319.473 380.963 319.198 380.927 318.94 380.833C318.683 380.738 318.451 380.587 318.259 380.391C318.074 380.026 318.034 379.605 318.147 379.212C318.466 377.675 319.256 376.274 320.406 375.206C321.557 374.137 323.012 373.454 324.569 373.251C327.064 372.984 329.63 374.008 332.084 373.461C335.281 372.746 337.622 369.113 340.959 369.043C344.296 368.973 344.913 373.882 344.997 376.449Z" fill="url(#paint0_linear)"/>
<path d="M299.484 297.728C294.929 298.944 290.571 300.805 286.543 303.255C285.384 303.994 284.375 304.946 283.57 306.06C282.513 307.765 281.963 309.736 281.986 311.741C281.663 322.598 289.809 331.632 297.409 339.375L322.45 364.835C325.338 367.78 328.353 370.796 332.18 372.311C336.008 373.826 340.901 373.475 343.593 370.347C334.798 359.2 326.254 347.857 317.963 336.317C317.621 335.967 317.367 335.54 317.223 335.071C317.079 334.602 317.049 334.106 317.136 333.624C317.599 332.347 319.351 332.221 320.711 332.403C327.423 332.879 334.15 331.724 340.319 329.037C346.488 326.351 351.917 322.212 356.142 316.974C358.848 313.551 361.077 309.259 360.25 304.966C359.521 301.165 356.521 298.205 353.324 296.017C335.882 284.052 317.374 292.005 299.484 297.728Z" fill="#3E3E54"/>
<path d="M299.639 297.742C295.085 298.961 290.727 300.822 286.697 303.269C285.539 304.008 284.53 304.96 283.725 306.074C282.679 307.757 282.134 309.704 282.155 311.685C281.818 322.542 289.978 331.576 297.578 339.319L322.619 364.778C325.521 367.71 328.521 370.726 332.349 372.255C336.177 373.784 341.084 373.419 343.762 370.291C334.985 359.125 326.446 347.782 318.146 336.261C317.802 335.911 317.546 335.485 317.4 335.016C317.253 334.548 317.221 334.051 317.305 333.568C317.768 332.291 319.534 332.235 320.88 332.347C327.592 332.826 334.32 331.673 340.49 328.986C346.66 326.299 352.088 322.159 356.311 316.917C359.017 313.481 361.26 309.188 360.433 304.91C359.69 301.095 356.689 298.135 353.422 295.961C336.037 284.052 317.585 292.019 299.639 297.742Z" fill="url(#paint1_linear)"/>
<path d="M309.93 333.245C311.838 334.291 314.018 334.735 316.183 334.522H354.516C356.974 334.689 359.439 334.335 361.751 333.484C363.659 332.464 365.377 331.121 366.826 329.514C373.617 322.913 381.052 317.011 389.021 311.896C389.568 311.624 390.011 311.18 390.283 310.633C390.384 310.341 390.422 310.03 390.395 309.721C390.157 305.513 385.628 302.61 381.408 302.469C377.188 302.329 373.164 304.111 369.168 305.485C350.618 311.91 328.858 310.353 313.154 322.15C310.182 324.324 305.205 329.963 309.93 333.245Z" fill="#3E3E54"/>
<path d="M309.93 333.245C311.838 334.291 314.018 334.735 316.183 334.522H354.516C356.974 334.689 359.439 334.335 361.751 333.484C363.659 332.464 365.377 331.121 366.826 329.514C373.617 322.913 381.052 317.011 389.021 311.896C389.568 311.624 390.011 311.18 390.283 310.633C390.384 310.341 390.422 310.03 390.395 309.721C390.157 305.513 385.628 302.61 381.408 302.469C377.188 302.329 373.164 304.111 369.168 305.485C350.618 311.91 328.858 310.353 313.154 322.15C310.182 324.324 305.205 329.963 309.93 333.245Z" fill="url(#paint2_linear)"/>
<path d="M412.24 319.05C412.969 319.709 436.903 374.934 437.183 378.076C437.436 380.882 435.22 383.084 433.496 385.272C435.725 384.865 442.932 381.793 444.558 380.208C445.095 379.757 445.485 379.157 445.68 378.483C445.767 377.831 445.699 377.168 445.484 376.547C444.082 371.441 436.328 337.383 435.22 330.818C434.872 328.106 434.213 325.442 433.257 322.879C432.293 320.293 430.478 318.112 428.112 316.693C426.921 316.007 425.563 315.665 424.189 315.704C422.816 315.744 421.48 316.164 420.33 316.917C418.816 316.833 413.67 318.517 412.24 319.05Z" fill="url(#paint3_linear)"/>
<path d="M448.722 329.5C454.751 343.162 456.56 358.326 461.579 372.395C461.954 373.249 462.154 374.17 462.168 375.102C462.069 375.952 461.766 376.765 461.285 377.473C459.823 379.855 457.622 381.693 455.018 382.705C455.452 374.289 451.358 366.476 447.39 359.097L442.118 349.278C440.237 345.933 438.552 342.481 437.071 338.94C436.342 337.131 435.739 335.265 435.192 333.399C434.028 329.5 430.257 320.34 436.833 319.288C442.819 318.376 446.703 324.927 448.722 329.5Z" fill="url(#paint4_linear)"/>
<path d="M434.673 263.81C430.957 264.077 427.228 263.319 423.456 263.614C419.685 263.908 415.759 265.676 414.469 269.225C416.586 271.175 419.825 271.076 422.685 270.81C429.695 270.151 445.427 270.6 452.451 269.477C455.255 269.042 449.367 267.233 451.904 266.083C452.47 265.894 452.988 265.584 453.421 265.175C453.855 264.765 454.193 264.266 454.414 263.712C449.24 258.845 440.646 263.404 434.673 263.81Z" fill="url(#paint5_linear)"/>
<path d="M500.179 270.137L501.329 298.387C501.455 301.291 501.525 304.363 500.053 306.804C497.445 311.236 491.388 311.84 486.257 311.938L451.569 312.597C449.055 312.476 446.542 312.862 444.18 313.733C441.895 314.757 444.769 319.484 444.909 321.995C444.909 322.935 440.451 321.574 439.75 322.22C439.212 322.586 438.553 322.727 437.913 322.612L420.765 321.701C419.254 321.708 417.754 321.447 416.335 320.929C412.9 319.442 411.512 315.402 410.474 311.812C409.048 307.573 408.236 303.151 408.062 298.682C408.062 294.221 409.605 289.564 413.026 286.703C417.134 283.252 422.967 283.042 428.323 283.014L462.632 282.775C463.149 282.84 463.675 282.799 464.176 282.655C464.678 282.51 465.144 282.265 465.548 281.933C466.249 281.134 466.179 279.9 466.796 279.044C467.501 278.26 468.468 277.761 469.516 277.641L488.794 273.363C490.794 272.765 492.902 272.621 494.964 272.942C495.985 273.124 496.92 273.633 497.627 274.392C498.335 275.15 498.778 276.118 498.889 277.15" fill="#3E3E54"/>
<path d="M304.014 300.73L277.613 313.93C273.488 315.815 269.577 318.138 265.947 320.859C265.029 321.346 264.337 322.174 264.02 323.165C263.703 324.155 263.786 325.231 264.251 326.161C268.261 338.463 279.674 346.599 290.372 353.851L303.313 362.618L324.835 377.193C326.405 378.259 328.172 379.367 330.037 379.044C332.743 378.595 334.103 375.243 333.43 372.578C332.757 369.912 330.71 367.878 328.747 365.971L308.795 346.515C304.042 341.886 299.205 337.145 296.176 331.253C310.52 325.642 326.181 324.632 341.225 321.308C344.877 320.738 348.355 319.358 351.404 317.268C354.307 315.01 356.256 311.152 355.246 307.603C354.245 304.976 352.362 302.779 349.918 301.389C346.213 298.719 341.85 297.109 337.299 296.732C334.243 296.564 331.2 297.181 328.158 297.013C325.452 296.859 323.573 295.358 321.147 294.993C315.637 294.165 308.753 298.359 304.014 300.73Z" fill="#3E3E54"/>
<path d="M474.269 269.912H175.863V276.21H474.269V269.912Z" fill="#36D1DC"/>
<path d="M334.524 41.6188H82.1348V213.775H334.524V41.6188Z" fill="#36D1DC"/>
<path d="M158.464 125.347C157.188 123.945 162.039 124.842 161.268 123.159C157.244 115.051 156.066 105.723 151.804 97.7418C151.131 96.4934 150.402 95.287 149.785 94.0246C151.169 93.1727 152.433 92.1396 153.543 90.9526C155.542 88.8717 157.349 86.6134 158.941 84.2055C159.179 84.444 159.572 84.6123 159.796 84.963C173.27 105.667 158.534 122.163 158.464 125.347Z" fill="#3E3E54"/>
<path d="M135.188 156.853C143.825 156.712 153.093 157.4 159.921 162.702C164.814 166.517 167.815 172.24 170.297 177.936C174.738 188.116 177.984 198.778 179.971 209.707C180.167 210.773 183.602 212.863 182.635 213.354C182.298 213.523 177.293 213.972 176.914 213.986C147.989 214.883 120.284 214.631 91.3873 215.515C90.7637 215.609 90.1265 215.49 89.5786 215.178C89.0908 214.72 88.7825 214.103 88.7093 213.439C86.0313 202.624 83.4515 191.5 85.4425 180.587C85.745 178.549 86.4098 176.582 87.4054 174.779C89.7328 170.88 93.5886 169.744 97.3041 167.668C100.711 165.746 103.656 163.347 107.287 161.776C116.036 158.003 125.752 157.007 135.188 156.853Z" fill="white"/>
<path d="M123.608 134.83C122.304 138.252 122.57 142.04 122.865 145.687L124.533 166.728C124.465 167.675 124.719 168.617 125.253 169.401C125.788 170.185 126.572 170.766 127.478 171.048C131.46 173.208 135.764 175.256 140.293 174.99C144.822 174.723 149.49 171.609 149.911 167.106C150.178 164.133 148.621 161.313 146.813 158.943C145.004 156.572 142.859 154.384 141.653 151.663C139.676 147.16 140.545 141.998 140.167 137.102C140.114 134.744 139.373 132.452 138.035 130.509C133.955 125.319 125.543 129.78 123.608 134.83Z" fill="url(#paint6_linear)"/>
<path d="M131.026 152.406C133.864 155.214 137.287 157.36 141.051 158.69C141.464 158.914 141.931 159.02 142.4 158.998C142.87 158.976 143.324 158.826 143.714 158.564C144.57 157.722 143.953 156.292 143.35 155.239C141.792 152.498 140.671 149.531 140.027 146.444C139.862 144.933 139.322 143.486 138.457 142.236C137.943 141.7 137.347 141.25 136.69 140.904C133.886 139.276 126.329 135.293 124.226 139.866C122.487 143.555 128.628 150.035 131.026 152.406Z" fill="url(#paint7_linear)"/>
<path d="M300.648 192.804C299.779 193.899 298.405 195.063 298.938 196.339C299.232 197.027 300.003 197.363 300.606 197.812C302.116 199.157 303.037 201.041 303.172 203.058C303.314 205.058 303.788 207.021 304.574 208.866C305.499 210.633 307.631 211.98 309.495 211.264C310.603 210.829 311.627 209.721 312.762 210.086C313.631 210.367 313.996 211.376 314.501 212.134C315.197 213.007 316.126 213.666 317.181 214.033C318.235 214.4 319.372 214.462 320.46 214.21C322.627 213.672 324.669 212.719 326.475 211.405C327.27 210.995 327.928 210.361 328.367 209.581C328.627 208.841 328.627 208.035 328.367 207.295C327.736 205.008 325.97 203.241 324.498 201.361C321.767 197.864 319.933 193.751 319.156 189.382C318.623 186.338 318.483 182.929 316.352 180.741C313.421 177.767 307.084 178.412 304.055 181.106C300.662 183.967 303.354 189.326 300.648 192.804Z" fill="url(#paint8_linear)"/>
<path d="M301.042 179.913C301.185 180.446 301.493 180.919 301.921 181.267C302.349 181.614 302.875 181.818 303.425 181.849C304.519 181.989 305.626 181.765 306.72 181.849C307.985 181.934 309.196 182.396 310.196 183.176C311.196 183.956 311.939 185.019 312.328 186.226C313.184 189.031 311.95 192.313 313.114 195.049C313.506 195.582 314.389 195.147 314.698 194.558C315.006 193.969 315.133 193.239 315.665 192.847C316.549 192.201 317.811 193.029 318.315 194.011C318.86 195.172 318.939 196.498 318.538 197.716C318.136 198.934 317.284 199.952 316.156 200.561C316.38 201.445 317.558 201.698 318.442 201.487C319.293 201.148 320.191 200.94 321.105 200.87C323.195 201.052 324.26 203.97 326.349 204.068C327.751 204.068 328.859 202.806 329.686 201.628L332.084 198.163C332.375 197.822 332.555 197.402 332.603 196.956C332.575 196.552 332.445 196.161 332.224 195.82C331.011 193.448 330.607 190.743 331.074 188.119C331.663 184.921 333.528 181.947 333.374 178.693C333.064 175.945 331.769 173.404 329.728 171.539C324.947 166.7 317.39 164.988 310.744 165.774C309.657 165.866 308.603 166.197 307.658 166.742C306.713 167.288 305.9 168.035 305.276 168.93C303.481 171.301 300.621 176.954 301.042 179.913Z" fill="#3E3E54"/>
<path d="M322.871 207.814C320.687 209.023 318.584 210.372 316.576 211.853C315.949 212.284 315.427 212.85 315.047 213.509C314.847 213.869 314.742 214.275 314.742 214.687C314.742 215.099 314.847 215.505 315.047 215.865C315.748 216.861 317.066 216.342 318.076 215.865C322.717 213.438 327.89 212.751 332.854 212.274C333.204 212.293 333.552 212.214 333.859 212.045C334.166 211.877 334.42 211.626 334.592 211.32C334.679 210.968 334.688 210.6 334.618 210.244C334.548 209.888 334.4 209.551 334.186 209.258C331.073 204.166 326.909 205.429 322.871 207.814Z" fill="#36D1DC"/>
<path d="M313.969 273.433C310.446 266.271 307.859 258.686 306.271 250.863C303.884 252.957 301.823 255.397 300.158 258.101C297.704 262.113 296.527 268.061 300.256 270.922C293.588 272.956 286.542 273.435 279.66 272.325C277.695 272.186 275.838 271.373 274.402 270.024C273.505 268.867 273.013 267.448 273 265.985C272.677 261.005 275.509 256.432 278.244 252.252L297.13 223.3C297.765 222.207 298.564 221.218 299.499 220.368C300.817 219.414 302.315 218.736 303.902 218.376C315.843 214.829 327.982 211.991 340.258 209.876C342.097 209.461 343.99 209.342 345.866 209.525C351.11 210.296 354.559 215.248 357.195 219.835C371.019 243.822 380.82 271.048 379.278 298.696C379.257 300.19 379.021 301.674 378.577 303.101C377.668 305.249 376.19 307.107 374.3 308.473C368.131 313.34 360.013 315.15 352.161 315.22C340.44 315.332 324.975 311.798 316.226 303.367C311.277 298.612 316.226 295.736 318.595 291.023C321.582 285.09 316.619 278.819 313.969 273.433Z" fill="#36D1DC"/>
<path d="M355.233 320.551C350.522 296.873 357.027 280.587 367.697 258.915C371.286 251.635 376.334 244.214 384.115 241.928C387.719 240.862 391.56 241.03 395.262 240.399C402.469 239.178 409.101 234.984 416.405 234.788C416.757 234.742 417.114 234.767 417.456 234.861C417.798 234.955 418.118 235.116 418.396 235.335C418.765 235.768 418.981 236.31 419.013 236.878C419.544 240.058 419.506 243.306 418.901 246.473C417.807 252.28 414.905 257.554 412.508 262.955C406.463 276.561 403.467 291.327 403.731 306.215C403.9 308.032 403.719 309.866 403.198 311.615C402.476 313.234 401.403 314.671 400.057 315.823C390.243 325.306 377.315 330.72 364.697 335.924C363.766 336.401 362.727 336.628 361.682 336.584C361.004 336.42 360.366 336.121 359.807 335.704C359.248 335.287 358.779 334.76 358.429 334.157C355.616 330.181 354.469 325.263 355.233 320.452" fill="#3E3E54"/>
<path d="M355.233 320.551C350.522 296.873 357.027 280.587 367.697 258.915C371.286 251.635 376.334 244.214 384.115 241.928C387.719 240.862 391.56 241.03 395.262 240.399C402.469 239.178 409.101 234.984 416.405 234.788C416.757 234.742 417.114 234.767 417.456 234.861C417.798 234.955 418.118 235.116 418.396 235.335C418.765 235.768 418.981 236.31 419.013 236.878C419.544 240.058 419.506 243.306 418.901 246.473C417.807 252.28 414.905 257.554 412.508 262.955C406.463 276.561 403.467 291.327 403.731 306.215C403.9 308.032 403.719 309.866 403.198 311.615C402.476 313.234 401.403 314.671 400.057 315.823C390.243 325.306 377.315 330.72 364.697 335.924C363.766 336.401 362.727 336.628 361.682 336.584C361.004 336.42 360.366 336.121 359.807 335.704C359.248 335.287 358.779 334.76 358.429 334.157C355.616 330.181 354.469 325.263 355.233 320.452" fill="url(#paint9_linear)"/>
<path d="M309.931 333.245L290.82 390.154H296.611L316.17 334.522L309.931 333.245Z" fill="#36D1DC"/>
<path d="M351.055 334.143L367.669 389.775H375.773L358.458 334.255L351.055 334.143Z" fill="#36D1DC"/>
<path d="M390.829 323.707L410.136 386.296H403.182L383.875 327.185L390.829 323.707Z" fill="#36D1DC"/>
<path d="M160.679 118.727C161.355 122.81 161.487 126.966 161.071 131.085C160.164 137.167 156.932 142.659 152.056 146.402C149.939 148.106 147.466 149.309 144.82 149.924C142.174 150.538 139.423 150.548 136.773 149.951C129.903 148.058 125.557 141.535 122.248 135.124C118.602 128.111 115.49 120.62 114.676 112.681C113.863 104.741 115.56 96.3952 120.649 90.3214C122.814 87.7363 125.51 85.6479 128.554 84.198C131.598 82.7482 134.918 81.9709 138.289 81.919C141.659 81.8671 145.002 82.5418 148.089 83.8973C151.175 85.2527 153.934 87.2572 156.178 89.7743C161.071 95.3432 159.781 111.362 160.679 118.727Z" fill="url(#paint10_linear)"/>
<path d="M158.941 84.2055C157.332 86.6157 155.506 88.8741 153.487 90.9526C152.377 92.1396 151.113 93.1727 149.729 94.0246C144.92 97.0545 138.947 98.3169 133.9 100.8C132.333 101.469 130.959 102.52 129.904 103.858C127.675 107.07 128.866 111.979 126.146 114.785C125.6 115.244 125.128 115.783 124.744 116.384C124.496 117.086 124.442 117.842 124.59 118.572C125.504 126.413 125.541 134.331 124.702 142.18C121.449 138.757 116.626 137.327 112.981 134.311C105.634 128.265 104.694 117.478 104.568 107.982C104.304 103.256 104.806 98.5195 106.054 93.9545C107.457 89.4517 110.653 85.2576 115.112 83.6585C115.799 83.4667 116.455 83.1786 117.061 82.8028C117.791 82.098 118.339 81.2269 118.659 80.2639C123.412 69.8697 135.975 66.938 146.168 70.3326C150.374 71.7353 154.861 74.3724 156.712 78.6227C157.067 79.4541 157.34 80.3186 157.525 81.2037C158.576 80.8951 159.418 80.867 159.698 81.372C159.979 81.877 159.67 82.9852 158.941 84.2055Z" fill="#3E3E54"/>
<path d="M300.831 103.872H192.324V183.939H300.831V103.872Z" fill="white"/>
<path d="M247.623 182.522C247.59 182.809 247.492 183.085 247.337 183.328C247.181 183.571 246.972 183.775 246.726 183.925C242.926 187.002 238.564 189.308 233.883 190.714C231.695 191.374 229.788 191.724 228.681 193.772C227.811 195.781 227.112 197.86 226.592 199.986C225.185 204.253 223.387 208.381 221.222 212.316C220.955 212.807 220.675 213.298 220.366 213.719H197.639C198.003 213.038 198.476 212.422 199.041 211.895C202.468 208.269 205.465 204.259 207.972 199.944C208.28 199.425 208.575 198.906 208.869 198.373C209.837 196.676 210.734 194.937 211.589 193.169C212.445 191.402 213.37 187.306 214.884 185.973C216.735 184.318 219.834 184.907 222.063 184.963C225.582 185.076 229.1 184.712 232.522 183.883C236.981 182.761 241.37 180.474 245.926 181.176C246.655 181.344 247.581 181.737 247.623 182.522Z" fill="url(#paint11_linear)"/>
<path d="M213.496 120.831H204.494V170.964H213.496V120.831Z" fill="#36D1DC"/>
<path d="M228.511 137.13H219.51V170.964H228.511V137.13Z" fill="#36D1DC"/>
<path d="M244.187 131.323H235.186V170.964H244.187V131.323Z" fill="#36D1DC"/>
<path d="M260.38 137.13H251.379V170.964H260.38V137.13Z" fill="#36D1DC"/>
<path d="M214.335 32.3608H195.996V40.2862H214.335V32.3608Z" fill="#36D1DC"/>
<path d="M207.031 19.3716H203.807V35.1943H207.031V19.3716Z" fill="#36D1DC"/>
<path d="M207.031 19.3716H203.807V35.1943H207.031V19.3716Z" fill="url(#paint12_linear)"/>
<path d="M233.465 14.4622L198.4 0.00302124L191.887 15.812L226.952 30.2712L233.465 14.4622Z" fill="#36D1DC"/>
<path d="M225.819 28.0264L210.9 22.0508L216.186 8.94938L231.104 14.925L225.819 28.0264Z" fill="url(#paint13_linear)"/>
<path d="M222.806 22.4015C224.602 22.4015 226.058 20.9445 226.058 19.1472C226.058 17.3499 224.602 15.8929 222.806 15.8929C221.009 15.8929 219.553 17.3499 219.553 19.1472C219.553 20.9445 221.009 22.4015 222.806 22.4015Z" fill="#36D1DC"/>
<path d="M462.393 189.073C462.09 189.664 461.823 190.273 461.594 190.897C461.367 191.671 461.091 192.43 460.767 193.169C460.136 193.999 459.837 195.034 459.925 196.073C460.192 197.475 461.426 198.303 462.407 199.257C463.425 200.221 464.261 201.362 464.875 202.623C465.632 204.223 466.123 206.116 467.595 207.098C469.558 208.417 472.348 207.519 474.423 208.655C477.451 210.31 476.007 216.637 479.372 216.707C482.237 216.737 485.085 216.263 487.785 215.304C489.093 214.973 490.238 214.181 491.01 213.074C492.131 211.054 490.771 208.613 489.888 206.467C486.257 197.686 490.757 186.759 485.948 178.567C484.316 175.825 481.799 173.723 478.812 172.605C476.919 171.871 474.87 171.634 472.86 171.916C470.85 172.199 468.946 172.991 467.328 174.218C463.851 177.024 465.366 181.821 463.963 185.622C463.506 186.801 462.981 187.954 462.393 189.073Z" fill="url(#paint14_linear)"/>
<path d="M465.996 166.153C465.144 167.376 464.558 168.764 464.274 170.227C463.99 171.691 464.015 173.197 464.348 174.65C464.681 176.103 465.314 177.471 466.206 178.665C467.098 179.859 468.23 180.853 469.53 181.583C472.123 182.985 475.531 183.617 476.919 186.226C477.495 187.833 477.84 189.515 477.942 191.219C478.124 192.117 478.685 193.169 479.611 193.099C481.125 192.973 481.013 190.153 482.485 189.845C482.919 190.247 483.254 190.744 483.465 191.298C483.675 191.851 483.755 192.445 483.698 193.035C483.641 193.624 483.449 194.192 483.136 194.695C482.824 195.197 482.399 195.621 481.896 195.932C481.433 196.185 480.83 196.466 480.858 196.985C480.886 197.504 481.517 197.7 481.98 197.938C484.069 199.061 483.382 202.483 485.163 204.124C485.633 204.495 486.174 204.767 486.752 204.924C487.331 205.081 487.934 205.119 488.528 205.036C490.181 204.861 491.775 204.324 493.197 203.464C494.62 202.603 495.835 201.44 496.758 200.056C498.598 197.268 499.573 193.999 499.562 190.658C499.472 189.444 499.644 188.224 500.067 187.081C500.285 186.508 500.716 186.042 501.271 185.781C501.825 185.519 502.459 185.482 503.039 185.679C502.226 189.887 501.413 194.193 502.521 198.303C503.184 200.655 504.444 202.795 506.179 204.516C507.913 206.236 510.063 207.479 512.419 208.122C511.222 206.089 510.547 203.79 510.456 201.431C510.462 199.177 510.735 196.931 511.27 194.74L513.134 185.468C513.792 182.812 514.113 180.083 514.088 177.346C514.055 174.577 512.978 171.922 511.073 169.912C510.109 168.937 508.869 168.281 507.521 168.03C506.173 167.779 504.781 167.946 503.53 168.509C502.599 169.069 501.805 169.829 501.203 170.734C500.602 171.639 500.209 172.666 500.053 173.741C499.754 175.888 499.778 178.068 500.123 180.208C497.114 177.074 494.336 173.727 491.809 170.193C490.457 167.886 488.597 165.918 486.369 164.441C483.705 163.039 480.508 163.207 477.493 163.431C473.287 163.74 469.165 162.997 465.996 166.153Z" fill="#3E3E54"/>
<path d="M492.172 213.298C490.013 213.41 487.84 213.635 485.709 213.957C483.969 214.164 482.271 214.638 480.675 215.36C478.9 216.297 477.364 217.632 476.189 219.26C471.421 225.544 470.861 233.918 468.8 241.535C468.277 243.778 467.371 245.913 466.122 247.847C463.233 251.971 458.144 253.893 453.279 255.155C451.119 255.703 448.736 256.334 447.572 258.213C446.966 259.362 446.667 260.647 446.703 261.945C446.577 264.75 447.025 268.089 449.507 269.365C450.362 269.742 451.279 269.961 452.213 270.01C457.609 270.528 463.055 270.081 468.295 268.692C469.318 270.095 468.295 272.157 468.982 273.742C469.669 275.327 471.898 275.677 473.707 275.719C481.21 275.83 488.71 275.361 496.14 274.317C496.962 274.252 497.763 274.023 498.496 273.643C499.605 272.757 500.361 271.504 500.627 270.109C503.572 259.484 504.757 248.447 504.132 237.439C504.054 232.316 503.362 227.22 502.071 222.262C501.272 219.456 500.024 216.553 497.57 214.981C494.85 213.256 491.359 213.579 488.148 213.915" fill="#36D1DC"/>
<path d="M446.871 388.456C446.871 389.144 446.661 390.041 445.974 390.084C445.287 390.126 444.964 389.298 444.922 388.681C444.88 388.064 444.922 387.208 444.319 386.871C443.716 386.535 442.917 387.138 442.244 387.601C438.122 390.589 426.737 391.991 421.592 391.865C420.007 387.587 430.242 386.254 432.598 385.034C434.491 384.094 436.524 383.421 438.346 382.34C440.169 381.26 441.445 379.226 443.296 378.75C447.474 377.669 446.913 386.058 446.871 388.456Z" fill="#3E3E54"/>
<path d="M465.716 385.427C465.869 386.057 465.844 386.717 465.646 387.334C465.589 387.483 465.502 387.619 465.392 387.734C465.282 387.849 465.15 387.942 465.004 388.006C464.858 388.07 464.701 388.104 464.541 388.107C464.382 388.109 464.224 388.08 464.075 388.022C464.006 387.084 463.753 386.169 463.332 385.328C463.225 385.083 463.05 384.874 462.828 384.725C462.197 384.388 461.51 385.076 461.103 385.679C460.403 386.938 459.337 387.956 458.047 388.597C457.244 388.852 456.406 388.975 455.565 388.961L451.232 389.102C451.092 389.102 441.053 390.378 440.927 390.308C440.801 390.238 440.044 389.284 443.002 387.166C445.161 385.623 455.242 378.848 455.242 378.848C453.686 383.056 459.869 377.094 461.033 376.603C465.632 374.71 465.267 382.537 465.716 385.427Z" fill="#3E3E54"/>
<path d="M250.916 277.852H169.764V379.872H250.916V277.852Z" fill="#36D1DC"/>
<path d="M78.3766 300.59C77.6616 296.662 78.3766 291.29 82.2604 290.616C84.7982 290.182 87.0696 292.159 88.8502 294.025C97.1989 302.726 104.74 312.168 111.382 322.234C106.906 309.846 103.729 297.026 101.904 283.981C101.301 279.633 100.908 274.934 103.011 271.062C105.114 267.191 110.723 265.003 114.074 267.85C115.924 269.421 116.541 271.974 117.074 274.345L122.22 297.616C122.43 288.204 119.416 278.946 119.612 269.561C119.808 260.177 124.351 249.573 133.507 247.342C135.565 271.015 134.883 294.846 131.474 318.362C134.979 314.336 136.325 308.922 138.848 304.209C141.372 299.496 146.097 295.091 151.369 295.989C152.505 306.734 146.28 316.707 140.307 325.713C143.111 323.075 146.237 320.326 150.121 319.639C154.005 318.951 158.534 321.308 158.814 325.25C159.095 329.191 155.267 331.744 151.958 333.666L125.178 349.012C124.097 349.733 122.872 350.212 121.589 350.414C120.051 350.42 118.543 349.987 117.242 349.166C99.1835 339.585 82.0781 320.915 78.3766 300.59Z" fill="#36D1DC"/>
<path d="M78.3766 300.59C77.6616 296.662 78.3766 291.29 82.2604 290.616C84.7982 290.182 87.0696 292.159 88.8502 294.025C97.1989 302.726 104.74 312.168 111.382 322.234C106.906 309.846 103.729 297.026 101.904 283.981C101.301 279.633 100.908 274.934 103.011 271.062C105.114 267.191 110.723 265.003 114.074 267.85C115.924 269.421 116.541 271.974 117.074 274.345L122.22 297.616C122.43 288.204 119.416 278.946 119.612 269.561C119.808 260.177 124.351 249.573 133.507 247.342C135.565 271.015 134.883 294.846 131.474 318.362C134.979 314.336 136.325 308.922 138.848 304.209C141.372 299.496 146.097 295.091 151.369 295.989C152.505 306.734 146.28 316.707 140.307 325.713C143.111 323.075 146.237 320.326 150.121 319.639C154.005 318.951 158.534 321.308 158.814 325.25C159.095 329.191 155.267 331.744 151.958 333.666L125.178 349.012C124.097 349.733 122.872 350.212 121.589 350.414C120.051 350.42 118.543 349.987 117.242 349.166C99.1835 339.585 82.0781 320.915 78.3766 300.59Z" fill="url(#paint15_linear)"/>
<path d="M139.562 347.511H103.15V382.916H139.562V347.511Z" fill="#36D1DC"/>
<path d="M120.088 119.232C119.488 119.181 118.884 119.267 118.321 119.484C117.701 119.804 117.167 120.269 116.767 120.841C116.366 121.413 116.111 122.074 116.022 122.766C115.747 124.565 115.94 126.403 116.581 128.106C117.221 129.808 118.289 131.317 119.681 132.487C120.612 133.404 121.776 134.05 123.046 134.353C123.684 134.494 124.349 134.462 124.97 134.26C125.591 134.058 126.147 133.692 126.58 133.203C127.325 131.966 127.58 130.494 127.295 129.079C126.874 124.492 125.556 119.512 120.088 119.232Z" fill="url(#paint16_linear)"/>
<path d="M122.921 126.652C122.611 125.872 122.26 125.109 121.869 124.366C121.651 124.06 121.397 123.783 121.112 123.538C120.89 123.293 120.612 123.106 120.302 122.991C119.992 122.876 119.66 122.838 119.332 122.879C119.116 122.949 118.919 123.067 118.756 123.225C118.593 123.384 118.469 123.577 118.392 123.79C118.232 124.24 118.179 124.72 118.238 125.193C118.365 126.973 119.179 128.633 120.509 129.822C120.807 130.1 121.148 130.328 121.519 130.495C122.093 130.683 122.697 130.759 123.3 130.72C123.509 130.748 123.721 130.748 123.93 130.72C124.322 130.51 124.625 130.167 124.785 129.752C124.945 129.338 124.95 128.88 124.8 128.461C124.435 127.606 123.37 127.494 122.921 126.652Z" fill="url(#paint17_linear)"/>
<path d="M442.525 333.245C444.433 334.291 446.613 334.735 448.778 334.522H487.111C489.569 334.689 492.034 334.335 494.346 333.484C496.256 332.461 497.978 331.118 499.435 329.514C506.218 322.91 513.649 317.007 521.616 311.896C522.138 311.634 522.561 311.211 522.822 310.689C522.923 310.397 522.961 310.086 522.934 309.778C522.696 305.569 518.167 302.666 513.947 302.525C509.727 302.385 505.703 304.167 501.707 305.541C483.157 311.966 461.397 310.409 445.623 322.206C442.777 324.324 437.8 329.963 442.525 333.245Z" fill="#3E3E54"/>
<path d="M491.065 329.486C486.369 305.582 489.619 280.798 500.318 258.915C503.908 251.635 508.955 244.214 516.737 241.928C520.34 240.862 524.182 241.03 527.883 240.399C535.09 239.178 541.722 234.984 549.027 234.788C549.378 234.742 549.735 234.767 550.077 234.861C550.419 234.955 550.739 235.116 551.018 235.335C551.386 235.768 551.603 236.31 551.635 236.878C552.165 240.058 552.127 243.306 551.522 246.473C550.429 252.28 547.526 257.554 545.129 262.955C539.091 276.564 536.095 291.327 536.352 306.215C536.522 308.032 536.341 309.866 535.819 311.615C535.097 313.234 534.024 314.671 532.678 315.823C522.864 325.306 509.937 330.72 497.318 335.924C496.387 336.401 495.348 336.628 494.303 336.584C493.625 336.42 492.988 336.121 492.429 335.704C491.869 335.287 491.401 334.76 491.051 334.157C488.238 330.181 487.09 325.263 487.854 320.452" fill="#3E3E54"/>
<path d="M491.065 329.486C486.369 305.582 489.619 280.798 500.318 258.915C503.908 251.635 508.955 244.214 516.737 241.928C520.34 240.862 524.182 241.03 527.883 240.399C535.09 239.178 541.722 234.984 549.027 234.788C549.378 234.742 549.735 234.767 550.077 234.861C550.419 234.955 550.739 235.116 551.018 235.335C551.386 235.768 551.603 236.31 551.635 236.878C552.165 240.058 552.127 243.306 551.522 246.473C550.429 252.28 547.526 257.554 545.129 262.955C539.091 276.564 536.095 291.327 536.352 306.215C536.522 308.032 536.341 309.866 535.819 311.615C535.097 313.234 534.024 314.671 532.678 315.823C522.864 325.306 509.937 330.72 497.318 335.924C496.387 336.401 495.348 336.628 494.303 336.584C493.625 336.42 492.988 336.121 492.429 335.704C491.869 335.287 491.401 334.76 491.051 334.157C488.238 330.181 487.09 325.263 487.854 320.452" fill="url(#paint18_linear)"/>
<path d="M442.526 333.245L423.416 390.154H429.207L448.78 334.522L442.526 333.245Z" fill="#36D1DC"/>
<path d="M483.648 334.143L500.263 389.775H508.367L491.051 334.255L483.648 334.143Z" fill="#36D1DC"/>
<path d="M523.425 323.707L542.732 386.296H535.777L516.471 327.185L523.425 323.707Z" fill="#36D1DC"/>
<path d="M335.477 380.25C335.53 380.894 335.439 381.541 335.21 382.144C334.811 382.72 334.29 383.201 333.685 383.552C333.079 383.904 332.403 384.117 331.705 384.178L330.654 382.705C327.934 385.258 323.769 385.328 320.04 385.202C316.768 385.071 313.497 384.922 310.225 384.753C309.951 384.782 309.674 384.747 309.416 384.649C309.157 384.552 308.926 384.395 308.739 384.192C308.549 383.83 308.504 383.408 308.613 383.014C308.932 381.478 309.723 380.079 310.873 379.013C312.024 377.947 313.479 377.267 315.034 377.066C317.53 376.786 320.096 377.81 322.55 377.263C325.746 376.547 328.158 372.914 331.425 372.844C334.692 372.774 335.393 377.698 335.477 380.25Z" fill="#3E3E54"/>
</g>
<defs>
<linearGradient id="paint0_linear" x1="318.119" y1="375.229" x2="344.997" y2="375.229" gradientUnits="userSpaceOnUse">
<stop stop-opacity="0"/>
<stop offset="0.99"/>
</linearGradient>
<linearGradient id="paint1_linear" x1="18082.9" y1="23115" x2="22474.5" y2="23115" gradientUnits="userSpaceOnUse">
<stop stop-opacity="0"/>
<stop offset="0.99"/>
</linearGradient>
<linearGradient id="paint2_linear" x1="20526.4" y1="8799.07" x2="25367.9" y2="8799.07" gradientUnits="userSpaceOnUse">
<stop stop-opacity="0"/>
<stop offset="0.99"/>
</linearGradient>
<linearGradient id="paint3_linear" x1="412.24" y1="350.471" x2="445.722" y2="350.471" gradientUnits="userSpaceOnUse">
<stop stop-color="#E5C5D5"/>
<stop offset="0.42" stop-color="#EAD4D1"/>
<stop offset="1" stop-color="#F0E9CB"/>
</linearGradient>
<linearGradient id="paint4_linear" x1="10170.5" y1="18592.8" x2="10774.8" y2="18592.8" gradientUnits="userSpaceOnUse">
<stop stop-color="#E5C5D5"/>
<stop offset="0.42" stop-color="#EAD4D1"/>
<stop offset="1" stop-color="#F0E9CB"/>
</linearGradient>
<linearGradient id="paint5_linear" x1="13248.9" y1="2414.35" x2="14386.9" y2="2414.35" gradientUnits="userSpaceOnUse">
<stop stop-color="#E5C5D5"/>
<stop offset="0.42" stop-color="#EAD4D1"/>
<stop offset="1" stop-color="#F0E9CB"/>
</linearGradient>
<linearGradient id="paint6_linear" x1="3212.28" y1="6946.9" x2="3744.43" y2="6946.9" gradientUnits="userSpaceOnUse">
<stop stop-color="#E5C5D5"/>
<stop offset="0.42" stop-color="#EAD4D1"/>
<stop offset="1" stop-color="#F0E9CB"/>
</linearGradient>
<linearGradient id="paint7_linear" x1="2526.31" y1="3457.27" x2="2667.52" y2="2773.86" gradientUnits="userSpaceOnUse">
<stop stop-opacity="0"/>
<stop offset="0.99"/>
</linearGradient>
<linearGradient id="paint8_linear" x1="7400.75" y1="6498.28" x2="8031.02" y2="6498.28" gradientUnits="userSpaceOnUse">
<stop stop-color="#E5C5D5"/>
<stop offset="0.42" stop-color="#EAD4D1"/>
<stop offset="1" stop-color="#F0E9CB"/>
</linearGradient>
<linearGradient id="paint9_linear" x1="18614.9" y1="24802.8" x2="21694" y2="24802.8" gradientUnits="userSpaceOnUse">
<stop stop-opacity="0"/>
<stop offset="0.99"/>
</linearGradient>
<linearGradient id="paint10_linear" x1="5138.44" y1="8326.37" x2="6703.83" y2="8326.37" gradientUnits="userSpaceOnUse">
<stop stop-color="#E5C5D5"/>
<stop offset="0.42" stop-color="#EAD4D1"/>
<stop offset="1" stop-color="#F0E9CB"/>
</linearGradient>
<linearGradient id="paint11_linear" x1="8525.01" y1="6006.89" x2="10307" y2="6006.89" gradientUnits="userSpaceOnUse">
<stop stop-color="#E5C5D5"/>
<stop offset="0.42" stop-color="#EAD4D1"/>
<stop offset="1" stop-color="#F0E9CB"/>
</linearGradient>
<linearGradient id="paint12_linear" x1="676.69" y1="494.053" x2="659.678" y2="228.961" gradientUnits="userSpaceOnUse">
<stop stop-opacity="0"/>
<stop offset="0.99"/>
</linearGradient>
<linearGradient id="paint13_linear" x1="3485.57" y1="65.9897" x2="3290.88" y2="537.39" gradientUnits="userSpaceOnUse">
<stop stop-opacity="0"/>
<stop offset="0.99"/>
</linearGradient>
<linearGradient id="paint14_linear" x1="11607.6" y1="8079.56" x2="12318.1" y2="8079.56" gradientUnits="userSpaceOnUse">
<stop stop-color="#E5C5D5"/>
<stop offset="0.42" stop-color="#EAD4D1"/>
<stop offset="1" stop-color="#F0E9CB"/>
</linearGradient>
<linearGradient id="paint15_linear" x1="9077.55" y1="24700.2" x2="8338.19" y2="33925" gradientUnits="userSpaceOnUse">
<stop stop-opacity="0"/>
<stop offset="0.99"/>
</linearGradient>
<linearGradient id="paint16_linear" x1="1531.06" y1="2128.07" x2="1166.57" y2="2020.22" gradientUnits="userSpaceOnUse">
<stop stop-color="#E5C5D5"/>
<stop offset="0.42" stop-color="#EAD4D1"/>
<stop offset="1" stop-color="#F0E9CB"/>
</linearGradient>
<linearGradient id="paint17_linear" x1="839.333" y1="1135" x2="918.439" y2="1126.83" gradientUnits="userSpaceOnUse">
<stop stop-opacity="0"/>
<stop offset="0.99"/>
</linearGradient>
<linearGradient id="paint18_linear" x1="24529.6" y1="24802.8" x2="27486" y2="24802.8" gradientUnits="userSpaceOnUse">
<stop stop-opacity="0"/>
<stop offset="0.99"/>
</linearGradient>
<clipPath id="clip0">
<rect width="552" height="414" fill="white"/>
</clipPath>
</defs>
</svg>
