<svg width="516" height="467" viewBox="0 0 516 467" fill="none" xmlns="http://www.w3.org/2000/svg">
<g clip-path="url(#clip0)">
<path opacity="0.18" d="M515.999 326.228C515.917 343.079 509.845 359.38 501.988 374.334C485.352 405.823 458.648 432.776 427.176 448.885L430.46 448.142C378.974 486.146 290.206 454.52 226.329 458.107C189.871 460.155 153.413 465.186 116.983 462.794C80.5527 460.403 62.2276 477.391 35.7016 452.28C1.08458 419.457 -7.69331 366.156 6.49693 320.373C9.98192 308.996 14.9469 298.127 21.2641 288.045C26.1873 280.334 31.6548 272.985 37.6248 266.054C62.5298 236.806 94.3445 212.835 114.03 179.752C134.072 146.064 139.979 105.435 159.98 71.7193C171.081 53.0051 186.207 36.9982 204.259 24.8597C222.312 12.7212 242.838 4.75561 264.35 1.54075C285.862 -1.6741 307.819 -0.0575763 328.628 6.27305C349.438 12.6037 368.578 23.4896 384.661 38.1412C395.856 48.3534 405.472 60.3662 410.857 74.4682C416.64 89.5872 417.245 106.149 421.97 121.612C428.839 144.153 444.032 163.025 456.724 182.886C474.143 210.141 487.165 239.926 500.119 269.559C508.032 287.647 516.095 306.436 515.999 326.228Z" fill="#36D1DC"/>
<path d="M453.153 296.072C453.692 293.475 454.619 290.973 455.901 288.65C456.522 287.611 457.311 286.683 458.236 285.901C458.64 285.587 459.115 285.377 459.619 285.289C460.123 285.201 460.641 285.238 461.128 285.396C461.615 285.555 462.055 285.831 462.41 286.199C462.766 286.567 463.026 287.017 463.167 287.509C464.417 292.32 464.019 297.543 463.579 302.546C463.534 304.163 463.204 305.758 462.604 307.26C460.75 311.191 453.909 312.951 451.271 308.717C449.307 305.46 452.329 299.316 453.153 296.072Z" fill="#FFDAD2"/>
<path d="M453.154 296.072C453.693 293.474 454.62 290.973 455.902 288.65C456.208 288.12 456.562 287.618 456.959 287.152C457.426 286.615 458.034 286.219 458.714 286.008C459.394 285.798 460.119 285.782 460.807 285.962C461.495 286.142 462.12 286.511 462.61 287.028C463.1 287.544 463.436 288.187 463.581 288.884C464.238 293.393 464.27 297.972 463.677 302.491C463.631 304.108 463.301 305.703 462.701 307.205C460.847 311.136 454.006 312.896 451.368 308.662C449.308 305.46 452.33 299.316 453.154 296.072Z" fill="url(#paint0_linear)"/>
<path opacity="0.42" d="M405.377 121.516L382.12 190.019L364.262 188.851L371.474 150.146L202.455 272.39L147.219 220.848L6.49805 320.373C9.98305 308.996 14.948 298.127 21.2652 288.045C26.1884 280.335 31.6559 272.985 37.6259 266.054L149.335 190.019L206.192 239.939L359.358 135.48L321.06 126.423L320.304 106.081L405.377 121.516Z" fill="#36D1DC"/>
<path d="M230.699 427.003C229.504 430.508 228.405 434.508 230.177 437.751C231.363 439.559 232.958 441.061 234.834 442.136L251.73 453.613C254.972 455.812 258.406 458.093 262.307 458.382C266.209 458.671 270.618 456.197 270.948 452.293C271.333 447.785 266.621 444.72 264.423 440.775C261.524 435.594 263.118 429.189 264.629 423.471C268.42 409.025 271.174 394.327 272.871 379.488C269.409 378.114 259.327 371.722 255.796 372.767C251.675 373.977 248.103 385.302 246.304 388.986C240.218 401.276 235.003 413.98 230.699 427.003Z" fill="#FFDAD2"/>
<path d="M301.072 145.39C304.699 143.232 308.422 141.047 312.556 140.236C316.691 139.425 321.417 140.236 324.246 143.37C320.748 143.57 317.336 144.535 314.25 146.198C311.165 147.86 308.481 150.179 306.388 152.991C306.174 153.358 305.839 153.64 305.441 153.788C305.105 153.824 304.766 153.762 304.465 153.61C302.762 152.964 295.66 152.235 294.918 150.778C293.819 148.359 299.465 146.339 301.072 145.39Z" fill="black"/>
<path d="M270.852 222.69C272.225 242.977 275.55 263.539 271.566 283.482C268.887 296.924 262.912 310.449 265.879 323.823C269.135 338.557 284.341 349.621 299.342 348.178C308.848 347.257 317.351 342.103 326.445 339.189C334.093 336.738 342.163 335.882 350.155 336.674C357.312 337.389 365.06 339.299 371.296 335.725C376.489 332.757 379.154 326.558 379.428 320.606C379.703 314.655 378.055 308.772 376.255 303.041C372.697 291.289 368.947 279.29 369.387 267.016C369.744 258.206 372.285 249.657 374.085 241.025C377.327 225.549 378.206 209.069 372.615 194.294C367.024 179.518 354.194 166.804 338.506 164.811C330.429 163.822 322.2 165.664 314.151 164.523C307.049 163.519 300.414 160.235 293.422 158.805C290.987 158.167 288.426 158.191 286.004 158.874C277.569 161.801 273.558 180.054 272.102 187.586C269.863 199.09 269.973 210.993 270.852 222.69Z" fill="#FE8311"/>
<path d="M263.09 330.118C258.722 342.57 254.065 355.064 247.045 366.252C246.908 366.402 246.806 366.581 246.746 366.775C246.687 366.969 246.671 367.174 246.7 367.375C246.728 367.576 246.802 367.768 246.914 367.938C247.026 368.107 247.174 368.25 247.348 368.355C254.408 374.54 262.032 380.986 271.318 382.32C271.924 382.459 272.558 382.406 273.132 382.168C273.67 381.788 274.07 381.243 274.272 380.615C280.192 366.871 282.267 351.848 282.088 336.976C281.956 329.553 281.369 322.144 280.33 314.792C280.083 312.992 279.945 305.061 278.393 304.14C276.016 302.766 273.42 307.604 272.404 309.143C268.104 315.493 265.618 322.874 263.09 330.118Z" fill="#36D1DC"/>
<path d="M263.09 330.118C258.722 342.57 254.065 355.064 247.045 366.252C246.908 366.402 246.806 366.581 246.746 366.775C246.687 366.969 246.671 367.174 246.7 367.375C246.728 367.576 246.802 367.768 246.914 367.938C247.026 368.107 247.174 368.25 247.348 368.355C254.408 374.54 262.032 380.986 271.318 382.32C271.924 382.459 272.558 382.406 273.132 382.168C273.67 381.788 274.07 381.243 274.272 380.615C280.192 366.871 282.267 351.848 282.088 336.976C281.956 329.553 281.369 322.144 280.33 314.792C280.083 312.992 279.945 305.061 278.393 304.14C276.016 302.766 273.42 307.604 272.404 309.143C268.104 315.493 265.618 322.874 263.09 330.118Z" fill="url(#paint1_linear)"/>
<path d="M282.005 222.69C282.994 242.977 285.316 263.539 282.513 283.482C280.618 296.924 276.4 310.449 278.488 323.823C280.796 338.557 291.511 349.621 302.088 348.178C308.778 347.257 314.768 342.103 321.183 339.189C326.399 336.764 332.202 335.891 337.9 336.674C342.942 337.388 348.395 339.299 352.791 335.725C356.445 332.757 358.286 326.558 358.533 320.606C358.501 314.682 357.749 308.783 356.294 303.041C353.78 291.289 351.129 279.29 351.486 267.016C351.734 258.206 353.519 249.657 354.797 241.025C357.077 225.549 357.668 209.069 353.767 194.294C349.865 179.518 340.772 166.804 329.713 164.811C324.04 163.822 318.229 165.664 312.556 164.523C307.556 163.519 302.94 160.234 297.94 158.805C296.254 158.167 294.389 158.191 292.72 158.874C286.772 161.801 283.956 180.054 282.925 187.586C281.55 199.235 281.242 210.985 282.005 222.69Z" fill="url(#paint2_linear)"/>
<path d="M329.357 290.327C338.39 289.814 347.448 290.695 356.213 292.938C364.908 295.399 373.164 300.017 378.865 307.027C385.184 314.792 387.945 324.895 388.59 334.928C389.236 344.962 387.904 354.913 386.901 364.878C384.553 388.211 383.933 411.687 385.046 435.113C385.321 440.72 385.417 447.057 381.475 451.056C378.988 453.585 375.376 454.602 371.928 455.427C343.41 462.299 312.502 463.495 285.495 452.046C278.626 449.132 271.758 445.077 268.365 438.452C264.683 431.25 265.879 422.646 267.06 414.647C270.668 390.236 273.264 365.707 274.849 341.058C275.549 330.145 274.739 318.38 276.978 307.659C278.599 299.893 283.613 297.763 290.839 295.866C303.43 292.582 316.351 290.724 329.357 290.327Z" fill="#36D1DC"/>
<path d="M329.357 290.327C338.39 289.814 347.448 290.695 356.213 292.938C364.908 295.399 373.164 300.017 378.865 307.027C385.184 314.792 387.945 324.895 388.59 334.928C389.236 344.962 387.904 354.913 386.901 364.878C384.553 388.211 383.933 411.687 385.046 435.113C385.321 440.72 385.417 447.057 381.475 451.056C378.988 453.585 375.376 454.602 371.928 455.427C343.41 462.299 312.502 463.495 285.495 452.046C278.626 449.132 271.758 445.077 268.365 438.452C264.683 431.25 265.879 422.646 267.06 414.647C270.668 390.236 273.264 365.707 274.849 341.058C275.549 330.145 274.739 318.38 276.978 307.659C278.599 299.893 283.613 297.763 290.839 295.866C303.43 292.582 316.351 290.724 329.357 290.327Z" fill="url(#paint3_linear)"/>
<path d="M303.049 294.808C303.456 292.791 303.979 290.799 304.615 288.843C305.989 284.321 307.706 279.909 307.528 275.098C307.528 274.108 307.445 273.091 307.432 272.088C307.352 270.275 307.628 268.463 308.242 266.755C309.237 264.552 310.802 262.654 312.775 261.257C317.144 257.876 329.891 251.54 332.405 259.883C332.808 261.351 332.997 262.869 332.968 264.391V264.666C332.968 266.893 332.68 269.174 332.653 271.263C332.377 276.506 333.317 281.742 335.4 286.561C339.095 294.258 296.799 328.661 303.049 294.808Z" fill="#FFDAD2"/>
<path d="M333.094 264.446L332.97 264.748C331.665 267.731 320.937 291.468 306.376 290.863C306.376 290.863 305.263 290.959 304.617 288.87C305.991 284.348 307.708 279.936 307.529 275.126C307.529 274.136 307.447 273.119 307.433 272.116L332.97 264.474L333.094 264.446Z" fill="url(#paint4_linear)"/>
<path d="M271.799 241.314C279.386 241.314 285.536 233.726 285.536 224.367C285.536 215.007 279.386 207.42 271.799 207.42C264.213 207.42 258.062 215.007 258.062 224.367C258.062 233.726 264.213 241.314 271.799 241.314Z" fill="#36D1DC"/>
<path d="M271.799 241.314C279.386 241.314 285.536 233.726 285.536 224.367C285.536 215.007 279.386 207.42 271.799 207.42C264.213 207.42 258.062 215.007 258.062 224.367C258.062 233.726 264.213 241.314 271.799 241.314Z" fill="url(#paint5_linear)"/>
<path d="M277.059 241.314C284.646 241.314 290.796 233.726 290.796 224.367C290.796 215.007 284.646 207.42 277.059 207.42C269.472 207.42 263.322 215.007 263.322 224.367C263.322 233.726 269.472 241.314 277.059 241.314Z" fill="#36D1DC"/>
<path d="M277.059 241.314C284.646 241.314 290.796 233.726 290.796 224.367C290.796 215.007 284.646 207.42 277.059 207.42C269.472 207.42 263.322 215.007 263.322 224.367C263.322 233.726 269.472 241.314 277.059 241.314Z" fill="url(#paint6_linear)"/>
<path d="M273.488 189.923L276.923 251.773C276.923 251.773 278.461 275.538 301.992 275.771C330.263 276.046 338.876 259.594 343.203 247.073C347.53 234.551 351.445 197.798 343.203 187.627C334.961 177.456 288.97 153.582 273.488 189.923Z" fill="#FFDAD2"/>
<path d="M268.448 159.863C259.972 169.223 257.005 182.679 258.282 195.256C258.339 197.698 259.134 200.065 260.563 202.046C262.298 203.725 264.46 204.899 266.813 205.44C270.824 206.815 275.055 208.079 279.176 207.296C283.297 206.513 287.253 202.815 286.718 198.623C285.495 201.028 286.855 204.121 289.025 205.688C291.33 207.109 293.938 207.966 296.636 208.189L310.483 210.443L312.9 201.097C312.607 203.268 312.93 205.478 313.831 207.474C314.731 209.471 316.174 211.174 317.996 212.391C319.817 213.607 321.942 214.287 324.131 214.353C326.319 214.42 328.482 213.87 330.374 212.766C331.17 215.515 334.591 216.78 337.421 216.285C340.25 215.79 342.696 214.045 345.182 212.601C352.285 208.43 360.508 206.571 368.713 207.282C371.612 188.04 359.001 167.574 340.484 161.554C335.923 160.07 331.157 159.396 326.486 158.324C306.568 153.747 285.591 140.923 268.448 159.863Z" fill="#FE8311"/>
<path d="M356.157 241.314C363.744 241.314 369.894 233.726 369.894 224.367C369.894 215.007 363.744 207.42 356.157 207.42C348.57 207.42 342.42 215.007 342.42 224.367C342.42 233.726 348.57 241.314 356.157 241.314Z" fill="#36D1DC"/>
<path d="M356.157 241.314C363.744 241.314 369.894 233.726 369.894 224.367C369.894 215.007 363.744 207.42 356.157 207.42C348.57 207.42 342.42 215.007 342.42 224.367C342.42 233.726 348.57 241.314 356.157 241.314Z" fill="url(#paint7_linear)"/>
<path d="M361.419 241.314C369.005 241.314 375.155 233.726 375.155 224.367C375.155 215.007 369.005 207.42 361.419 207.42C353.832 207.42 347.682 215.007 347.682 224.367C347.682 233.726 353.832 241.314 361.419 241.314Z" fill="#36D1DC"/>
<path d="M361.419 241.314C369.005 241.314 375.155 233.726 375.155 224.367C375.155 215.007 369.005 207.42 361.419 207.42C353.832 207.42 347.682 215.007 347.682 224.367C347.682 233.726 353.832 241.314 361.419 241.314Z" fill="url(#paint8_linear)"/>
<path d="M353.602 208.492L346.472 171.381C342.351 155.891 331.705 144.277 318.628 140.91L315.605 140.14L321.196 139.741C335.236 138.738 348.148 149.101 352.942 165.21L362.696 207.571L353.602 208.492Z" fill="#36D1DC"/>
<path d="M353.602 208.492L346.472 171.381C342.351 155.891 331.705 144.277 318.628 140.91L315.605 140.14L321.196 139.741C335.236 138.738 348.148 149.101 352.942 165.21L362.696 207.571L353.602 208.492Z" fill="url(#paint9_linear)"/>
<path d="M322.103 333.375C328.793 326.31 333.711 317.775 338.588 309.336C341.541 304.182 344.577 298.807 344.989 292.842C345.086 292.167 344.981 291.478 344.687 290.863C344.388 290.445 344.004 290.093 343.56 289.832L334.37 283.537C334.206 289.186 330.153 294.038 325.524 297.282C320.592 300.759 306.622 304.566 309.589 311.782C310.317 313.707 321.32 334.241 322.103 333.375Z" fill="#36D1DC"/>
<path d="M297.227 291.537C295.331 294.276 293.983 297.356 293.257 300.608C290.949 309.748 291.389 319.328 291.883 328.743C291.883 329.32 292.034 330.021 292.57 330.2C292.871 330.274 293.189 330.235 293.463 330.09C295.562 328.97 297.283 327.253 298.408 325.156C301.778 320.023 304.864 314.71 307.653 309.24C307.982 308.692 308.18 308.076 308.23 307.439C308.06 306.415 307.546 305.48 306.774 304.786C303.711 301.075 303.518 296.54 304.095 291.853C304.274 290.396 305.703 287.729 303.807 287.042C302.241 286.465 297.955 290.547 297.227 291.537Z" fill="#36D1DC"/>
<path d="M390.582 383.405C387.092 385.687 382.271 384.395 378.411 384.285C373.438 384.134 371.336 384.56 372.435 389.577C375.182 402.098 378.136 414.317 382.944 426.275C384.705 431.066 387.113 435.593 390.101 439.731C392.419 443.017 395.733 445.47 399.552 446.727C404.483 448.101 409.841 446.356 413.989 443.359C418.138 440.363 421.27 436.226 424.333 432.13C435.323 417.437 438.07 400.133 445.048 383.034C452.205 365.276 461.959 347.766 464.885 328.977C465.599 324.455 466.066 319.163 462.81 315.933C459.555 312.703 453.4 313.445 449.719 316.524C446.037 319.603 444.114 324.221 442.26 328.647C433.922 348.549 424.553 368.011 415.184 387.446C414.949 388.156 414.46 388.753 413.811 389.123C413.459 389.216 413.09 389.227 412.733 389.156C412.376 389.084 412.04 388.932 411.75 388.711C408.302 386.498 407.244 381.371 403.192 379.777C398.851 378.086 394.098 381.11 390.582 383.405Z" fill="#FFDAD2"/>
<path d="M411.545 391.735C398.303 394.923 383.618 397.933 371.708 391.405C369.672 390.427 367.949 388.899 366.735 386.993C365.362 384.56 365.362 381.605 365.279 378.746C364.702 365.84 359.785 353.497 358.617 340.632C356.845 320.373 349.084 289.145 375.98 301.034C390.844 307.604 406.545 339.175 409.732 352.411C410.625 356.342 416.34 390.594 411.545 391.735Z" fill="#36D1DC"/>
<path d="M411.545 391.735C398.303 394.923 383.618 397.933 371.708 391.405C369.672 390.427 367.949 388.899 366.735 386.993C365.362 384.56 365.362 381.605 365.279 378.746C364.702 365.84 359.785 353.497 358.617 340.632C356.845 320.373 349.084 289.145 375.98 301.034C390.844 307.604 406.545 339.175 409.732 352.411C410.625 356.342 416.34 390.594 411.545 391.735Z" fill="url(#paint10_linear)"/>
<path d="M441.064 300.498C437.763 303.709 435.829 308.072 435.665 312.676C435.404 316.936 436.311 321.225 435.665 325.444C435.184 328.784 433.77 332.069 434.292 335.409C434.396 336.43 434.819 337.392 435.5 338.158C436.293 338.848 437.233 339.346 438.248 339.615C442.85 341.196 447.616 342.721 452.479 342.515C457.342 342.309 462.397 340.014 464.623 335.643C465.817 332.821 466.384 329.772 466.285 326.709L466.601 318.352C466.948 314.584 466.698 310.785 465.859 307.095C465.421 305.254 464.562 303.539 463.348 302.086C462.135 300.633 460.601 299.483 458.867 298.725C453.194 296.691 445.803 296.21 441.064 300.498Z" fill="#FFDAD2"/>
<path d="M329.329 268.748C323.799 268.628 318.315 267.702 313.051 265.999C312.714 265.935 312.394 265.801 312.112 265.606C311.83 265.411 311.592 265.159 311.413 264.867C311.234 264.574 311.118 264.247 311.072 263.907C311.027 263.567 311.053 263.221 311.15 262.891C311.246 262.562 311.41 262.256 311.631 261.994C311.853 261.732 312.126 261.519 312.435 261.369C312.743 261.219 313.08 261.135 313.422 261.123C313.765 261.111 314.107 261.171 314.425 261.298C327.022 265.092 336.514 264.583 342.613 259.8C350.855 253.327 350.333 240.984 350.333 240.86C350.315 240.538 350.36 240.215 350.467 239.91C350.574 239.605 350.74 239.324 350.956 239.084C351.172 238.844 351.433 238.649 351.725 238.51C352.016 238.372 352.332 238.292 352.655 238.276C353.302 238.246 353.936 238.473 354.417 238.909C354.898 239.344 355.188 239.951 355.224 240.599C355.224 241.218 355.883 255.636 345.608 263.662C341.39 267.071 335.923 268.748 329.329 268.748Z" fill="url(#paint11_linear)"/>
<path d="M314.328 257.271C315.729 257.973 316.827 259.16 317.418 260.611C317.968 262.7 316.347 264.735 314.671 266.109C313.248 267.401 311.492 268.267 309.602 268.611C306.855 268.94 304.19 267.456 301.896 265.862C300.606 265.085 299.507 264.028 298.681 262.769C296.552 259.017 299.299 254.22 302.926 252.612C306.91 250.701 311.182 255.127 314.328 257.271Z" fill="url(#paint12_linear)"/>
<path d="M362.242 444.912H164.403C158.857 444.912 154.361 449.411 154.361 454.96V454.973C154.361 460.522 158.857 465.021 164.403 465.021H362.242C367.788 465.021 372.284 460.522 372.284 454.973V454.96C372.284 449.411 367.788 444.912 362.242 444.912Z" fill="#36D1DC"/>
<path d="M362.242 444.912H164.403C158.857 444.912 154.361 449.411 154.361 454.96V454.973C154.361 460.522 158.857 465.021 164.403 465.021H362.242C367.788 465.021 372.284 460.522 372.284 454.973V454.96C372.284 449.411 367.788 444.912 362.242 444.912Z" fill="url(#paint13_linear)"/>
<path d="M293.654 465.035H141.82L101.776 363.421C101.246 362.071 101.051 360.613 101.21 359.172C101.368 357.73 101.875 356.349 102.687 355.148C103.498 353.946 104.59 352.96 105.867 352.275C107.144 351.59 108.569 351.226 110.019 351.216H229.228C234.998 351.214 240.635 352.95 245.405 356.198C250.175 359.446 253.858 364.056 255.973 369.427L293.654 465.035Z" fill="#36D1DC"/>
<path d="M285.962 465.144H141.725L103.701 368.602C103.192 367.317 103.005 365.926 103.157 364.551C103.309 363.177 103.795 361.86 104.573 360.717C105.351 359.574 106.397 358.639 107.619 357.994C108.842 357.349 110.204 357.013 111.586 357.016H224.751C230.229 357.016 235.581 358.665 240.111 361.749C244.641 364.832 248.139 369.208 250.15 374.306L285.962 465.144Z" fill="#36D1DC"/>
<path d="M285.962 465.144H141.725L103.701 368.602C103.192 367.317 103.005 365.926 103.157 364.551C103.309 363.177 103.795 361.86 104.573 360.717C105.351 359.574 106.397 358.639 107.619 357.994C108.842 357.349 110.204 357.013 111.586 357.016H224.751C230.229 357.016 235.581 358.665 240.111 361.749C244.641 364.832 248.139 369.208 250.15 374.306L285.962 465.144Z" fill="url(#paint14_linear)"/>
</g>
<defs>
<linearGradient id="paint0_linear" x1="444.596" y1="304.127" x2="467.939" y2="294.46" gradientUnits="userSpaceOnUse">
<stop offset="0.01"/>
<stop offset="0.09" stop-opacity="0.82"/>
<stop offset="1" stop-opacity="0"/>
</linearGradient>
<linearGradient id="paint1_linear" x1="234.737" y1="333.925" x2="318.592" y2="353.271" gradientUnits="userSpaceOnUse">
<stop offset="0.01"/>
<stop offset="0.12" stop-opacity="0.75"/>
<stop offset="1" stop-opacity="0"/>
</linearGradient>
<linearGradient id="paint2_linear" x1="20244.6" y1="30193.1" x2="17574" y2="51849.1" gradientUnits="userSpaceOnUse">
<stop offset="0.01"/>
<stop offset="0.09" stop-opacity="0.82"/>
<stop offset="1" stop-opacity="0"/>
</linearGradient>
<linearGradient id="paint3_linear" x1="43965.2" y1="54473.4" x2="13804.6" y2="45680.2" gradientUnits="userSpaceOnUse">
<stop offset="0.01"/>
<stop offset="0.12" stop-opacity="0.75"/>
<stop offset="1" stop-opacity="0"/>
</linearGradient>
<linearGradient id="paint4_linear" x1="7104.27" y1="5359.85" x2="7490.72" y2="6128.52" gradientUnits="userSpaceOnUse">
<stop offset="0.01"/>
<stop offset="0.09" stop-opacity="0.82"/>
<stop offset="1" stop-opacity="0"/>
</linearGradient>
<linearGradient id="paint5_linear" x1="5451.99" y1="5531.51" x2="5942.36" y2="5809.3" gradientUnits="userSpaceOnUse">
<stop offset="0.01"/>
<stop offset="0.09" stop-opacity="0.82"/>
<stop offset="1" stop-opacity="0"/>
</linearGradient>
<linearGradient id="paint6_linear" x1="6088.33" y1="5332.56" x2="5089.59" y2="6274.72" gradientUnits="userSpaceOnUse">
<stop offset="0.01"/>
<stop offset="0.09" stop-opacity="0.82"/>
<stop offset="1" stop-opacity="0"/>
</linearGradient>
<linearGradient id="paint7_linear" x1="7544.41" y1="5586.76" x2="7090.08" y2="6167.9" gradientUnits="userSpaceOnUse">
<stop offset="0.01"/>
<stop offset="0.09" stop-opacity="0.82"/>
<stop offset="1" stop-opacity="0"/>
</linearGradient>
<linearGradient id="paint8_linear" x1="7981.84" y1="5438.98" x2="5921.21" y2="6443.56" gradientUnits="userSpaceOnUse">
<stop offset="0.01"/>
<stop offset="0.09" stop-opacity="0.82"/>
<stop offset="1" stop-opacity="0"/>
</linearGradient>
<linearGradient id="paint9_linear" x1="13487.2" y1="8920.77" x2="11430.1" y2="9042.73" gradientUnits="userSpaceOnUse">
<stop offset="0.01"/>
<stop offset="0.09" stop-opacity="0.82"/>
<stop offset="1" stop-opacity="0"/>
</linearGradient>
<linearGradient id="paint10_linear" x1="17790.6" y1="24686.2" x2="14436.9" y2="25143.3" gradientUnits="userSpaceOnUse">
<stop offset="0.01"/>
<stop offset="0.12" stop-opacity="0.75"/>
<stop offset="1" stop-opacity="0"/>
</linearGradient>
<linearGradient id="paint11_linear" x1="327.338" y1="239.981" x2="339.96" y2="265.911" gradientUnits="userSpaceOnUse">
<stop offset="0.02" stop-color="white" stop-opacity="0"/>
<stop offset="0.58" stop-color="white" stop-opacity="0.39"/>
<stop offset="0.68" stop-color="white" stop-opacity="0.68"/>
<stop offset="1" stop-color="white"/>
</linearGradient>
<linearGradient id="paint12_linear" x1="313.902" y1="247.788" x2="298.681" y2="278.445" gradientUnits="userSpaceOnUse">
<stop offset="0.01"/>
<stop offset="1" stop-opacity="0"/>
</linearGradient>
<linearGradient id="paint13_linear" x1="-1.69709e+06" y1="7439.33" x2="-1.69709e+06" y2="6825.33" gradientUnits="userSpaceOnUse">
<stop offset="0.01"/>
<stop offset="0.12" stop-opacity="0.75"/>
<stop offset="1" stop-opacity="0"/>
</linearGradient>
<linearGradient id="paint14_linear" x1="-1.431e+06" y1="40026.2" x2="-1.43129e+06" y2="27612.3" gradientUnits="userSpaceOnUse">
<stop offset="0.01"/>
<stop offset="0.12" stop-opacity="0.75"/>
<stop offset="1" stop-opacity="0"/>
</linearGradient>
<clipPath id="clip0">
<rect width="516" height="467" fill="white"/>
</clipPath>
</defs>
</svg>
