  <svg width="211" height="241" viewBox="0 0 211 241" fill="none" xmlns="http://www.w3.org/2000/svg">
                    <path d="M10.24 0H200.76C206.464 0 211 4.62598 211 10.2401V124.857C211 130.561 206.374 135.098 200.76 135.098H10.24C4.5361 135.098 0 130.472 0 124.857V10.2401C0 4.58107 4.62593 0 10.24 0Z" fill="#BDBDBD"/>
                    <path d="M11.0032 5.88354H200.041C202.332 5.88354 204.263 7.72498 204.263 10.1054V109.812C204.263 112.102 202.421 113.944 200.041 113.944H11.0032C8.71269 113.944 6.87118 112.102 6.87118 109.812V10.1054C6.78135 7.8148 8.71269 5.88354 11.0032 5.88354Z" fill="#E8EAF7"/>
                    <path d="M141.385 162.944H69.5693L78.5069 135.143H132.492L141.385 162.944Z" fill="#BDBDBD"/>
                    <path d="M53.0425 155.892H158.003C159.53 155.892 160.788 157.15 160.788 158.677V160.204C160.788 161.731 159.53 162.988 158.003 162.988H53.0425C51.5155 162.988 50.2578 161.731 50.2578 160.204V158.677C50.3027 157.105 51.5155 155.892 53.0425 155.892Z" fill="#BDBDBD"/>
                    <path d="M104.556 130.202C107.657 130.202 110.171 127.689 110.171 124.588C110.171 121.487 107.657 118.974 104.556 118.974C101.456 118.974 98.9424 121.487 98.9424 124.588C98.9424 127.689 101.456 130.202 104.556 130.202Z" fill="#E8EAF7"/>
                    <path d="M34.4482 18.998H174.621V103.254C174.621 104.737 173.453 105.859 172.016 105.859H37.0983C35.6161 105.859 34.4932 104.692 34.4932 103.254C34.4483 103.299 34.4482 18.998 34.4482 18.998Z" fill="white"/>
                    <path d="M134.378 25.0613H166.985C167.883 25.0613 168.602 25.735 168.602 26.6782V98.314C168.602 99.2123 167.928 99.9309 166.985 99.9309H134.378C133.48 99.9309 132.762 99.2572 132.762 98.314V26.6782C132.807 25.735 133.48 25.0613 134.378 25.0613Z" fill="#E8E8F7"/>
                    <path d="M42.0835 25.0613H125.172C126.07 25.0613 126.789 25.735 126.789 26.6782V98.314C126.789 99.2123 126.115 99.9309 125.172 99.9309H42.0835C41.1852 99.9309 40.4668 99.2572 40.4668 98.314V26.6782C40.4668 25.735 41.2301 25.0613 42.0835 25.0613Z" fill="#EBDBCD"/>
                    <path d="M139.184 37.592H150.502C151.131 37.592 151.67 38.131 151.67 38.7598C151.67 39.3885 151.131 39.9275 150.502 39.9275H139.184C138.556 39.9275 138.017 39.3885 138.017 38.7598C138.017 38.131 138.466 37.592 139.184 37.592Z" fill="#C5C6E3"/>
                    <path d="M139.184 42.4426H162.314C162.943 42.4426 163.482 42.9816 163.482 43.6103C163.482 44.2391 162.943 44.7781 162.314 44.7781H139.184C138.556 44.7781 138.017 44.2391 138.017 43.6103C138.017 42.8917 138.466 42.4426 139.184 42.4426Z" fill="#C5C6E3"/>
                    <path d="M139.184 63.6414H162.314C162.943 63.6414 163.482 64.1803 163.482 64.8091C163.482 65.4379 162.943 65.9769 162.314 65.9769H139.184C138.556 65.9769 138.017 65.4379 138.017 64.8091C138.017 64.0905 138.466 63.6414 139.184 63.6414Z" fill="#C5C6E3"/>
                    <path d="M139.184 58.7908H156.431C157.06 58.7908 157.599 59.3297 157.599 59.9585C157.599 60.5873 157.06 61.1262 156.431 61.1262H139.184C138.556 61.1262 138.017 60.5873 138.017 59.9585C138.017 59.3297 138.466 58.7908 139.184 58.7908Z" fill="#C5C6E3"/>
                    <path d="M139.184 85.8733H162.314C162.943 85.8733 163.482 86.4122 163.482 87.041C163.482 87.6698 162.943 88.2088 162.314 88.2088H139.184C138.556 88.2088 138.017 87.6698 138.017 87.041C138.017 86.4122 138.466 85.8733 139.184 85.8733Z" fill="#C5C6E3"/>
                    <path d="M139.184 81.0227H150.502C151.131 81.0227 151.67 81.5616 151.67 82.1904C151.67 82.8192 151.131 83.3581 150.502 83.3581H139.184C138.556 83.3581 138.017 82.8192 138.017 82.1904C138.017 81.5616 138.466 81.0227 139.184 81.0227Z" fill="#C5C6E3"/>
                    <path d="M139.184 90.634H162.314C162.943 90.634 163.482 91.173 163.482 91.8018C163.482 92.4306 162.943 92.9695 162.314 92.9695H139.184C138.556 92.9695 138.017 92.4306 138.017 91.8018C138.017 91.173 138.466 90.634 139.184 90.634Z" fill="#C5C6E3"/>
                    <path d="M141.16 79.0914C142.723 79.0914 143.99 77.8245 143.99 76.2618C143.99 74.6992 142.723 73.4324 141.16 73.4324C139.598 73.4324 138.331 74.6992 138.331 76.2618C138.331 77.8245 139.598 79.0914 141.16 79.0914Z" fill="#4E53BA"/>
                    <path d="M141.16 35.6608C142.723 35.6608 143.99 34.3939 143.99 32.8312C143.99 31.2685 142.723 30.0017 141.16 30.0017C139.598 30.0017 138.331 31.2685 138.331 32.8312C138.331 34.3939 139.598 35.6608 141.16 35.6608Z" fill="#4E53BA"/>
                    <path d="M141.16 56.7699C142.723 56.7699 143.99 55.5031 143.99 53.9404C143.99 52.3777 142.723 51.1108 141.16 51.1108C139.598 51.1108 138.331 52.3777 138.331 53.9404C138.331 55.5031 139.598 56.7699 141.16 56.7699Z" fill="#FF7A82"/>
                    <path d="M59.9587 206.958L59.1054 218.411C58.9258 220.971 61.8899 223.037 64.3151 222.857C67.3243 222.678 68.9412 220.477 69.0759 217.872L69.9292 206.419C70.1538 203.859 67.1448 201.793 64.7195 201.973C61.7553 202.108 60.1384 204.308 59.9587 206.958Z" fill="#FDD6C2"/>
                    <path d="M96.5627 208.126L98.3143 219.489C98.7185 222.049 102.087 223.351 104.467 222.633C107.297 221.779 108.375 219.264 108.015 216.659L106.264 205.296C105.86 202.736 102.491 201.434 100.111 202.152C97.1915 203.006 96.2034 205.566 96.5627 208.126Z" fill="#FDD6C2"/>
                    <path d="M59.1947 85.1547C54.9729 92.6102 52.3681 100.245 52.1436 108.824C51.919 116.908 53.6705 124.903 60.7667 129.753C65.4376 132.987 70.1984 125.621 65.5275 122.387C60.9015 119.154 60.6769 112.956 60.9912 107.701C61.3955 101.233 63.3716 95.5295 66.6053 89.9603C69.345 85.0199 62.0691 80.2592 59.1947 85.1547Z" fill="#FDD6C2"/>
                    <path d="M95.4848 89.3317C99.3922 94.4069 102.267 99.7065 103.569 106.084C104.647 111.474 105.051 116.549 100.56 120.546C96.4279 124.409 102.177 131.011 106.309 127.148C109.093 124.678 111.159 121.444 112.282 117.941C113.45 113.944 113.135 110.036 112.462 105.949C110.98 97.416 107.387 90.2749 102.087 83.4931C98.6286 79.0916 91.9816 84.8404 95.4848 89.3317Z" fill="#FDD6C2"/>
                    <path d="M105.949 81.921C105.949 81.921 101.503 50.482 100.021 44.7332C97.7301 35.8854 91.3974 30.5857 82.5047 30.5857C73.4323 30.5857 67.1446 35.9752 64.6744 44.823C62.1144 53.8954 58.7459 81.2473 58.7459 81.2473C58.3416 82.5049 58.9705 83.8073 60.2281 84.1666C63.0576 85.2445 69.0757 87.1757 82.5047 86.9961C94.4964 86.8164 100.739 85.2445 103.793 84.9301C105.096 84.8403 106.084 83.6726 106.039 82.3701C106.039 82.2354 106.039 82.1006 105.949 81.921Z" fill="#333333"/>
                    <path d="M77.5645 61.5754H87.3556V78.2381C87.3556 79.6304 86.1877 80.7981 84.7954 80.7981H80.1246C78.7323 80.7981 77.5645 79.6304 77.5645 78.2381V61.5754Z" fill="#FDD6C2"/>
                    <path d="M82.5043 65.1687C91.4588 65.1687 98.7179 57.9097 98.7179 48.9552C98.7179 40.0007 91.4588 32.7417 82.5043 32.7417C73.5499 32.7417 66.291 40.0007 66.291 48.9552C66.291 57.9097 73.5499 65.1687 82.5043 65.1687Z" fill="#FDD6C2"/>
                    <path d="M65.9766 48.3263C65.9766 48.5509 65.9767 48.8652 66.0665 49.0898V49.1797C66.0665 49.4941 66.1563 49.7186 66.2462 50.033C66.336 50.3474 66.3359 50.6618 66.4258 50.9313C67.5935 46.3951 71.6357 43.1613 76.3515 43.1613C76.9803 43.1613 77.5192 43.2512 78.1031 43.341C78.5522 43.4308 78.9564 43.5207 79.4055 43.5207C82.4147 43.5207 84.8849 41.275 85.2442 38.3107C85.1543 38.6251 85.1545 38.9395 85.1545 39.209C85.1545 42.6673 87.939 45.4519 91.3973 45.4519C94.7208 46.1256 97.4604 48.5958 98.4485 51.8295C98.673 51.1558 98.8527 50.3474 98.8976 49.5839V49.494C98.9874 49.1796 98.9875 48.8653 98.9875 48.5958V48.3712C98.9875 47.967 98.9875 47.6975 98.9875 47.2933C98.9875 46.8891 98.9875 46.6645 98.9875 46.395C98.9875 46.3052 98.9875 46.2154 98.9875 46.1705C98.9875 45.9459 98.9874 45.7214 98.8976 45.5417C98.8078 45.3621 98.8977 45.3621 98.8079 45.2273C98.7181 45.0477 98.718 44.8231 98.718 44.5985L98.6283 44.2842C98.5385 44.0596 98.5383 43.8799 98.4485 43.6554C98.3586 43.4308 98.3588 43.4757 98.3588 43.4308L98.1792 42.802C98.1792 42.7122 98.0892 42.6224 98.0892 42.5775C97.9994 42.3529 97.9096 42.1284 97.8647 41.9487C97.8647 41.8589 97.8646 41.8589 97.7748 41.7691C97.6849 41.5445 97.5951 41.3199 97.5502 41.0954V41.0055C97.4604 40.781 97.3258 40.4666 97.2359 40.242C95.7538 37.2329 93.4632 34.7178 90.6337 33.0111C89.7354 32.4721 88.7923 32.023 87.8043 31.7086H87.7144C87.4 31.6188 87.0856 31.529 86.8611 31.3942H86.6814C86.0078 31.2146 85.379 31.0798 84.7053 30.99H84.4808L83.7172 30.9001H83.4027C83.0883 30.9001 82.7291 30.9001 82.4147 30.9001C73.2525 30.9001 65.8867 38.2659 65.8867 47.4281C65.8867 47.7424 65.8867 48.0568 65.8867 48.3263C65.9765 48.2814 65.9766 48.3263 65.9766 48.3263Z" fill="#333333"/>
                    <path d="M98.2693 75.8579C94.9009 74.0164 91.2181 72.7588 87.3556 72.2199C86.7268 74.9147 85.3793 76.3519 82.2803 76.3519C79.1814 76.3519 78.1484 74.8249 77.6095 72.0403C76.9807 72.0403 75.0496 72.4445 74.6004 72.5792C68.9863 73.6571 66.7407 75.1393 64.001 77.2052C59.6894 80.439 55.4676 87.131 54.5693 88.658C54.3897 88.8377 54.3897 89.1071 54.5693 89.2867C55.5574 90.9036 56.8599 92.2959 58.4318 93.3738C60.3631 94.6314 62.3393 95.5296 64.4951 96.2033C64.4951 96.2033 65.7975 93.7331 66.2466 92.8349C66.7856 91.5773 68.1778 87.4453 68.1778 87.4453C67.4143 89.1969 66.9202 91.1282 66.7854 93.0594C66.6956 95.6644 67.6389 98.5837 67.549 100.335C67.3245 103.389 66.6958 106.399 65.7975 109.318C65.7077 109.722 65.8873 109.992 66.2466 110.171C71.187 111.339 76.2622 112.013 81.3374 112.102C86.8167 112.102 92.2511 111.698 97.6406 110.845C98.0448 110.755 98.2695 110.441 98.1796 110.081C98.1796 110.081 98.1796 110.081 98.1796 109.992C97.5059 107.072 96.9219 104.153 96.6974 101.234C96.2483 97.2363 96.6974 96.4728 96.6974 93.5534C96.5177 91.4875 96.2483 89.3316 95.8441 87.2657L96.6974 95.2602C99.1676 95.1703 101.638 94.6314 103.838 93.5534C105.365 92.7001 106.668 91.7121 107.926 90.4994C108.15 90.2748 108.24 89.9604 108.105 89.6461C107.027 87.4902 102.267 78.2382 98.2693 75.8579Z" fill="#868AE0"/>
                    <path d="M82.5049 65.1686C80.7982 65.1686 79.1813 64.944 77.5645 64.4051V67.4142C79.1813 67.8633 80.888 67.9531 82.5049 67.7286C84.2115 67.5489 85.8285 67.1897 87.3556 66.4261V64.3601C85.8285 64.8541 84.1217 65.1686 82.5049 65.1686Z" fill="#F8AE86"/>
                    <path d="M68.5818 110.71C73.0281 111.473 77.5644 111.968 82.1005 112.102C88.029 112.102 95.3049 111.249 95.3049 111.249C95.3049 111.249 95.9336 115.471 96.2031 116.414C96.4726 117.357 91.3525 119.198 82.2802 118.974C70.3783 118.749 67.504 117.043 67.5938 116.594C67.5938 116.144 68.5818 110.71 68.5818 110.71Z" fill="#FDD6C2"/>
                    <path d="M99.2124 119.064C106.578 133.75 110.081 142.958 112.057 162.584C113.764 179.112 111.608 201.254 111.294 213.875C111.294 214.279 111.204 214.638 110.98 214.953C110.351 215.851 106.533 216.704 105.455 216.794C100.155 217.198 95.1702 216.39 94.6761 214.504C91.8916 203.141 89.7359 191.688 88.2987 180.055C87.0411 170.444 85.5139 159.665 84.7504 151.85C84.7504 151.536 84.5259 151.311 84.2116 151.311C83.8972 151.311 83.6725 151.536 83.6725 151.85C83.4929 153.153 83.3583 160.563 83.1337 162.764C82.5947 169.007 81.6065 175.07 80.5286 181.223C78.9118 191.014 75.1392 204.757 72.3097 214.054C72.0851 214.818 71.5462 215.447 70.7827 215.671C68.8065 215.986 66.8752 216.076 64.8541 215.986C62.4737 215.806 57.4884 215.087 57.174 213.92C53.5361 198.829 53.4013 169.95 58.701 139.814C59.9585 132.807 62.2491 126.115 65.4829 119.827C70.8724 120.816 76.3517 121.355 81.876 121.534C87.7147 121.399 93.5534 120.546 99.2124 119.064Z" fill="#FFADB2"/>
                    <path d="M67.5934 116.459C66.9647 116.639 66.4256 117.088 66.1112 117.627C65.707 118.3 65.4824 119.019 65.4375 119.782C65.4375 119.782 71.5906 121.624 83.2679 121.938C94.586 122.253 99.167 119.109 99.167 119.109C98.9425 118.345 98.4933 117.717 97.7747 117.267C96.8764 116.728 96.158 116.369 96.158 116.369C96.158 116.369 92.6098 119.513 81.8756 118.75C71.1415 117.986 67.5934 116.459 67.5934 116.459Z" fill="#FFADB2"/>
                    <path d="M63.4169 219.938C65.3481 220.028 67.1897 219.624 68.9413 218.95C69.615 220.342 70.1989 221.869 70.5582 223.396C70.7827 224.923 71.6359 229.998 70.3784 231.031C69.2106 232.02 69.3904 231.795 67.7735 232.514C65.483 233.502 64.5397 232.963 61.3958 234.579C60.2281 235.208 55.2428 239.789 50.1676 240.283C45.9458 240.688 44.7782 238.577 44.2393 237.454C43.7901 236.286 44.6435 234.13 47.6077 231.93C50.527 229.684 53.2218 227.169 55.692 224.295C56.9945 222.543 58.1621 220.522 58.9256 218.456C59.0603 218.411 59.9137 219.848 63.4169 219.938Z" fill="#C7645D"/>
                    <path d="M103.748 220.342C101.907 220.432 100.065 220.028 98.3587 219.264C97.3706 220.791 96.6521 222.498 96.3826 224.339C96.0682 225.866 95.5292 230.403 96.7868 231.346C98.0443 232.244 97.7748 232.109 99.3916 232.828C101.682 233.726 102.625 233.277 105.769 234.894C106.937 235.523 111.922 240.194 116.998 240.598C120.052 240.822 122.387 238.891 122.836 237.768C123.285 236.601 123.375 234.31 119.602 231.795C115.83 229.235 111.383 225.238 110.755 224.115C109.901 222.408 108.06 218.725 108.06 218.725C108.06 218.725 107.162 220.252 103.748 220.342Z" fill="#C7645D"/>
                    <path d="M95.9785 87.2656C95.9785 87.2656 96.6073 90.8138 96.6522 92.5654C96.6522 93.6433 96.6522 95.3499 96.6522 95.3499C96.6522 95.3499 97.4159 95.3499 97.9099 95.2601C98.359 95.1703 98.7632 95.0805 98.7632 95.0805C98.7632 95.0805 98.314 93.4636 97.775 91.9366C97.281 90.4544 95.9785 87.2656 95.9785 87.2656Z" fill="#4E53BA"/>
                    <path d="M68.3573 86.9961C68.3573 86.9961 67.504 89.4663 67.0998 91.0831C66.9202 91.9365 66.8752 92.7899 66.8752 93.6432C66.7854 94.0923 66.2465 95.5744 66.0219 96.2032C65.9321 96.4278 65.7076 96.5176 65.5728 96.5176C65.2584 96.4278 64.7193 96.3379 64.3151 96.2032C63.6863 95.9786 63.2372 95.799 63.4169 95.8888C63.5965 95.9787 64.8092 93.9576 65.7075 92.3407C66.4261 90.8586 68.3573 86.9961 68.3573 86.9961Z" fill="#4E53BA"/>
                    <path d="M96.5173 119.693C101.997 130.561 105.275 142.284 107.117 154.275C109.048 166.941 109.183 179.786 108.599 192.541C108.195 199.907 107.701 207.317 106.892 214.593C106.802 215.447 108.15 215.447 108.195 214.593C109.452 201.389 110.44 188.14 110.126 174.935C109.811 162.539 108.374 150.188 104.961 138.197C103.119 131.594 100.649 125.127 97.5951 119.064C97.1909 118.3 96.0232 118.974 96.5173 119.693Z" fill="white"/>
                    <path d="M66.7406 120.007C61.9798 131.011 59.3748 142.778 57.8927 154.59C56.5004 166.806 55.9166 179.112 56.1861 191.418C56.2759 198.694 56.6352 205.925 57.4885 213.156C57.5783 214.009 58.8808 214.009 58.7909 213.156C57.3088 200.491 57.2639 187.735 57.7131 175.025C58.1173 163.168 59.1952 151.266 61.8002 139.679C63.2823 133.121 65.3481 126.744 67.9531 120.636C68.2226 119.827 67.1448 119.243 66.7406 120.007Z" fill="white"/>
                    <path d="M82.1457 112.058C77.6095 111.878 73.0733 111.429 68.6269 110.665C68.6269 110.665 68.5371 111.294 68.4023 112.147C72.8487 113.405 77.5647 113.899 82.2356 113.674C86.682 113.495 91.0832 112.776 95.305 111.294L95.4849 111.204C95.3501 111.294 88.0293 112.058 82.1457 112.058Z" fill="#F8AE86"/>
                    <path d="M36.6934 12.9797H172.465C173.722 12.9797 174.71 13.9678 174.71 15.2254V18.998H34.4927V15.2254C34.4478 13.9678 35.4358 12.9797 36.6934 12.9797Z" fill="#868AE0"/>
                    </svg>