<svg width="648" height="510" viewBox="0 0 648 510" fill="none" xmlns="http://www.w3.org/2000/svg">
<g clip-path="url(#clip0)">
<path opacity="0.18" d="M644.965 377.017C637.637 344.925 614.585 324.637 604.204 293.746C595.54 267.928 597.353 239.84 592.315 213.087C582.583 161.374 547.279 117.155 504.534 86.436C461.788 55.717 411.657 36.8585 361.85 20.0021C342.157 13.3473 322.139 6.90223 301.739 3.20299C291.413 1.27601 280.945 0.210861 270.443 0.018584C215.98 -0.686942 166.154 27.6485 129.611 66.4334C113.142 83.9762 91.273 108.631 84.0214 132.104C75.644 159.201 83.449 190.282 75.5486 218.312C69.1558 240.965 54.5574 260.262 41.5619 279.826C12.2886 323.683 -11.3552 378.2 5.78132 428.063C20.7042 471.52 64.6904 500.446 110.146 507.749C155.602 515.053 201.992 503.764 244.853 487.175C272.866 476.344 301.014 462.977 331.05 463.111C358.95 463.225 385.265 474.971 411.848 483.418C459.008 498.329 508.796 503.079 557.928 497.357C577.507 495.05 597.544 490.817 613.669 479.471C644.583 457.6 653.4 413.953 644.965 377.017Z" fill="#68E1FD"/>
<path d="M251.227 425.585C208.712 430.623 166.812 439.918 126.157 453.329C121.539 454.855 116.349 457.009 114.898 461.643C158.969 467.253 203.498 468.352 247.792 464.923C276.875 462.673 305.785 458.478 334.868 456.38C396.143 451.956 457.915 456.876 518.999 450.24C522.034 450.127 525.003 449.325 527.682 447.895C528.991 447.154 530.027 446.014 530.639 444.641C531.25 443.268 531.405 441.735 531.079 440.267C530.078 438.112 528.279 436.43 526.06 435.577C515.793 430.485 503.847 430.39 492.378 430.543C415.016 431.591 337.215 439.733 260.559 429.246" fill="url(#paint0_linear)"/>
<path d="M371.852 219.323C339.411 204.317 305.424 189.577 269.72 190.511C256.591 190.854 243.557 193.333 230.409 193.409C208.481 193.507 187.035 186.98 168.885 174.684C159.077 208.473 149.357 242.288 139.727 276.128C137.074 285.452 133.544 295.005 131.788 304.539C128.887 320.309 164.592 328.184 176.08 329.633C189.323 331.311 202.796 330.015 216.154 330.453C227.518 330.544 238.721 333.149 248.957 338.08C258.919 343.153 270.521 345.956 281.131 349.941C307.256 359.723 334.812 368.132 362.596 365.634C390.381 363.136 418.586 347.424 428.452 321.358C430.799 315.16 432.058 308.601 434.177 302.289C439.634 286.367 456.962 265.602 438.718 252.464C419.292 238.334 393.606 229.353 371.852 219.323Z" fill="#68E1FD"/>
<path d="M347.176 222.317C333.303 216.005 319.468 209.312 304.64 205.747C269.127 197.261 230.999 207.444 195.695 198.119C194.029 201.871 190.94 204.807 187.108 206.284C183.275 207.761 179.013 207.657 175.258 205.995H175.162C173.54 212.344 173.578 220.048 172.319 226.741C170.741 235.029 168.878 243.26 166.728 251.434C162.504 267.519 157.212 283.304 150.889 298.685C154.056 298.361 156.728 301.45 157.148 304.616C157.305 307.804 156.648 310.98 155.24 313.845C155.03 314.34 165.449 317.468 166.441 317.658C170.244 318.116 174.088 318.116 177.891 317.658C186.173 316.991 194.226 314.607 202.451 313.463C233.499 309.154 263.841 322.578 294.164 330.625C304.343 333.299 314.672 335.369 325.097 336.822C332.578 337.871 340.249 338.576 347.615 336.822C354.981 335.068 362.137 330.892 368.606 326.373C380.991 317.677 392.498 307.304 400.57 294.586C407.001 284.403 419.195 257.364 407.173 247.449C399.998 241.538 386.43 239.059 377.785 235.493C367.468 231.298 357.265 226.906 347.176 222.317Z" fill="url(#paint1_linear)"/>
<path d="M337.73 227.446C303.381 217.683 267.467 208.378 232.354 214.918C219.416 217.321 206.935 221.802 193.978 223.938C172.324 227.452 150.113 224.341 130.26 215.014C125.846 249.934 121.533 284.855 117.322 319.775C116.158 329.404 114.173 339.377 113.925 349.083C113.524 365.1 150.011 367.312 161.633 366.95C174.991 366.53 188.043 363.136 201.287 361.515C212.525 359.761 224.014 360.543 234.911 363.804C245.54 367.236 257.448 368.208 268.554 370.477C295.881 376.064 324.41 380.012 351.47 373.28C378.529 366.549 403.91 346.585 409.596 319.26C410.932 312.777 411.161 306.103 412.306 299.582C415.226 282.992 429.099 259.786 409.005 249.661C387.479 238.887 360.782 234.044 337.73 227.446Z" fill="#68E1FD"/>
<path d="M313.819 234.292C299.125 230.211 284.412 225.768 269.222 224.567C232.812 221.726 196.707 237.743 160.45 234.101C159.923 236.077 159.011 237.929 157.765 239.55C156.519 241.172 154.965 242.532 153.191 243.551C151.418 244.57 149.46 245.228 147.43 245.488C145.401 245.748 143.34 245.605 141.367 245.065C140.756 251.606 141.996 259.195 141.786 266.041C141.519 274.469 140.966 282.916 140.126 291.306C138.473 307.852 135.713 324.268 131.863 340.445C134.955 339.625 138.084 342.352 138.981 345.326C139.613 348.459 139.436 351.701 138.466 354.746C138.332 355.28 149.114 356.748 150.126 356.748C153.927 356.632 157.7 356.062 161.366 355.051C169.457 353.144 177.033 349.502 184.971 347.081C214.97 337.985 247.029 346.509 278.21 349.636C288.684 350.688 299.211 351.12 309.736 350.932C317.369 350.78 325.002 350.303 331.986 347.5C339.295 344.602 345.344 339.377 351.069 333.905C361.927 323.379 371.698 311.423 377.671 297.522C382.423 286.482 390.266 257.86 376.831 249.852C368.816 245.123 355.019 244.799 345.936 242.625C335.173 240.031 324.468 237.254 313.819 234.292Z" fill="url(#paint2_linear)"/>
<path d="M203.213 344.964C202.454 341.477 201.893 337.95 201.534 334.4C201.591 330.892 201.955 327.396 202.622 323.951C204.377 311.194 202.621 298.247 201.858 285.376C201.095 272.505 201.019 259.214 205.866 247.239C207.664 242.276 210.801 237.907 214.93 234.616C219.853 231.031 226.094 229.868 232.105 229.162C239.738 228.266 247.753 227.942 255.004 230.688C253.143 231.666 251.505 233.018 250.191 234.659C248.878 236.299 247.918 238.193 247.371 240.222C246.334 244.319 245.947 248.553 246.226 252.769C246.608 266.285 248.173 279.741 250.901 292.984C253.592 306.16 257.332 320.08 252.81 332.741C250.272 339.797 245.367 345.689 241.646 352.21C239.184 356.539 236.15 361.878 231.151 361.744C229.593 361.572 228.062 361.213 226.59 360.676C222.861 359.933 219.022 359.933 215.293 360.676C212.812 361.02 207.449 362.831 205.198 361.496C201.305 359.361 203.805 348.797 203.213 344.964Z" fill="url(#paint3_linear)"/>
<path d="M471.464 229.887H250.198C233.904 229.887 220.695 243.086 220.695 259.367V416.127C220.695 432.408 233.904 445.606 250.198 445.606H471.464C487.758 445.606 500.967 432.408 500.967 416.127V259.367C500.967 243.086 487.758 229.887 471.464 229.887Z" fill="#68E1FD"/>
<path d="M471.464 229.887H250.198C233.904 229.887 220.695 243.086 220.695 259.367V416.127C220.695 432.408 233.904 445.606 250.198 445.606H471.464C487.758 445.606 500.967 432.408 500.967 416.127V259.367C500.967 243.086 487.758 229.887 471.464 229.887Z" fill="url(#paint4_linear)"/>
<path d="M500.967 278.13H220.695V402.379H500.967V278.13Z" fill="url(#paint5_linear)"/>
<path d="M495.528 325.724H386.831C375.428 325.724 366.184 334.961 366.184 346.356V362.24C366.184 373.635 375.428 382.872 386.831 382.872H495.528C506.931 382.872 516.176 373.635 516.176 362.24V346.356C516.176 334.961 506.931 325.724 495.528 325.724Z" fill="url(#paint6_linear)"/>
<path d="M498.581 309.631H389.884C378.481 309.631 369.236 318.868 369.236 330.262V346.146C369.236 357.541 378.481 366.778 389.884 366.778H498.581C509.984 366.778 519.228 357.541 519.228 346.146V330.262C519.228 318.868 509.984 309.631 498.581 309.631Z" fill="#68E1FD"/>
<path d="M397.727 356.748C408.234 356.748 416.753 348.237 416.753 337.737C416.753 327.238 408.234 318.726 397.727 318.726C387.219 318.726 378.701 327.238 378.701 337.737C378.701 348.237 387.219 356.748 397.727 356.748Z" fill="url(#paint7_linear)"/>
<path d="M161.422 448.047C184.145 448.047 202.565 429.641 202.565 406.936C202.565 384.231 184.145 365.825 161.422 365.825C138.7 365.825 120.279 384.231 120.279 406.936C120.279 429.641 138.7 448.047 161.422 448.047Z" fill="#F8C244"/>
<path d="M161.442 442.003C180.813 442.003 196.516 426.311 196.516 406.955C196.516 387.599 180.813 371.908 161.442 371.908C142.071 371.908 126.367 387.599 126.367 406.955C126.367 426.311 142.071 442.003 161.442 442.003Z" fill="#E8A825"/>
<path d="M158.216 429.017V423.392C155.208 423.377 152.263 422.532 149.705 420.951L151.041 417.138C153.41 418.678 156.172 419.506 158.998 419.521C162.987 419.521 165.639 417.252 165.639 414.087C165.639 410.921 163.483 409.129 159.361 407.451C153.636 405.22 150.163 402.665 150.163 397.917C150.163 393.169 153.445 389.794 158.579 388.955V383.349H162.033V388.726C164.564 388.752 167.05 389.408 169.265 390.633L167.891 394.446C165.778 393.177 163.354 392.517 160.888 392.539C156.594 392.539 154.991 395.114 154.991 397.326C154.991 400.224 157.052 401.654 161.88 403.675C167.605 406.002 170.505 408.9 170.505 413.839C170.487 416.233 169.578 418.535 167.956 420.297C166.334 422.059 164.114 423.155 161.727 423.373V429.093L158.216 429.017Z" fill="#F8C244"/>
<path d="M166.346 390.156C163.308 397.627 162.878 405.903 165.125 413.648C166.862 419.559 170.106 424.936 171.861 430.809C172.435 432.522 172.681 434.326 172.586 436.13C172.224 439.733 169.667 442.689 167.243 445.378C170.506 446.045 173.808 444.539 176.785 442.918C181.404 440.657 185.464 437.4 188.673 433.384C190.88 430.114 192.471 426.469 193.368 422.629C196.535 410.799 196.535 398.344 193.368 386.514C192.166 382.109 187.433 369.963 181.174 372.804C174.915 375.645 168.922 383.806 166.346 390.156Z" fill="url(#paint8_linear)"/>
<path d="M211.668 449.172C234.391 449.172 252.811 430.766 252.811 408.061C252.811 385.356 234.391 366.95 211.668 366.95C188.946 366.95 170.525 385.356 170.525 408.061C170.525 430.766 188.946 449.172 211.668 449.172Z" fill="#F8C244"/>
<path d="M211.668 443.109C231.039 443.109 246.743 427.417 246.743 408.061C246.743 388.705 231.039 373.014 211.668 373.014C192.297 373.014 176.594 388.705 176.594 408.061C176.594 427.417 192.297 443.109 211.668 443.109Z" fill="#E8A825"/>
<path d="M195.257 423.182L198.807 418.815C196.479 416.914 194.722 414.406 193.73 411.57L197.108 409.51C197.983 412.2 199.613 414.583 201.803 416.375C204.894 418.873 208.386 418.777 210.39 416.375C212.394 413.972 211.821 411.169 209.684 407.279C206.669 401.959 205.562 397.745 208.596 393.931C211.63 390.118 216.229 389.698 220.771 392.273L224.301 387.906L226.992 390.08L223.595 394.256C225.546 395.879 227.062 397.963 228.003 400.319L224.645 402.379C223.79 400.069 222.318 398.038 220.389 396.506C217.05 393.798 214.187 394.79 212.756 396.506C210.848 398.756 211.63 401.177 214.111 405.773C217.107 411.188 217.527 415.307 214.416 419.121C212.893 420.954 210.747 422.163 208.388 422.514C206.029 422.866 203.624 422.337 201.631 421.027L197.929 425.432L195.257 423.182Z" fill="#F8C244"/>
<path d="M461.33 213.946C484.053 213.946 502.473 195.54 502.473 172.835C502.473 150.13 484.053 131.724 461.33 131.724C438.608 131.724 420.188 150.13 420.188 172.835C420.188 195.54 438.608 213.946 461.33 213.946Z" fill="#F8C244"/>
<path d="M461.33 207.863C480.701 207.863 496.405 192.172 496.405 172.816C496.405 153.46 480.701 137.768 461.33 137.768C441.959 137.768 426.256 153.46 426.256 172.816C426.256 192.172 441.959 207.863 461.33 207.863Z" fill="#E8A825"/>
<path d="M463.429 195.03L462.093 189.577C459.165 190.278 456.099 190.152 453.238 189.214L453.658 185.267C456.327 186.201 459.207 186.354 461.959 185.706C465.776 184.772 467.875 181.892 467.131 178.86C466.386 175.829 463.848 174.551 459.497 173.903C453.448 173.064 449.441 171.405 448.296 166.714C447.151 162.023 449.555 158.057 454.345 156.036L453.009 150.582L456.368 149.762L457.646 154.987C460.123 154.42 462.702 154.486 465.146 155.178L464.688 159.125C462.335 158.394 459.825 158.328 457.436 158.934C453.257 159.945 452.303 162.748 452.837 164.979C453.524 167.782 455.872 168.792 461.043 169.498C467.169 170.413 470.585 172.549 471.825 177.354C472.349 179.678 471.996 182.113 470.834 184.193C469.672 186.272 467.782 187.85 465.528 188.623L466.902 194.344L463.429 195.03Z" fill="#F8C244"/>
<path d="M401.237 259.081C414.804 267.652 430.759 271.661 446.769 270.522C442.551 285.169 440.185 300.287 439.727 315.523C439.454 318.121 439.848 320.746 440.872 323.15C442.609 326.449 446.368 328.127 449.956 329.137C456.366 330.95 463.067 331.501 469.688 330.758C467.272 318.167 465.729 305.425 465.07 292.622C464.764 282.191 465.642 271.799 465.909 261.388C466.024 256.945 466.882 251.186 465.909 246.839C464.936 242.491 460.184 240.127 457.207 237.305C452.456 232.746 448.926 227.068 446.941 220.792C445.683 217.297 445.412 213.523 446.158 209.884C447.265 205.613 450.395 202.143 451.883 198.005C453.372 193.867 452.494 188.032 448.219 186.85C444.975 185.954 441.006 188.204 438.315 186.144C437.361 185.401 436.789 184.238 435.777 183.532C434.843 183.049 433.775 182.888 432.74 183.074C431.704 183.26 430.76 183.783 430.052 184.562C428.686 186.173 427.602 188.004 426.846 189.977C422.683 197.913 416.298 204.466 408.47 208.836C403.556 211.67 398.371 214.008 392.993 215.815C388.948 217.245 382.555 217.588 379.082 219.914C375.113 222.565 378.376 229.258 380.131 233.529C384.49 243.94 391.834 252.83 401.237 259.081Z" fill="url(#paint9_linear)"/>
<path d="M459.994 326.601C460.394 327.079 460.915 327.441 461.502 327.65C469.86 331.349 479.325 331.464 488.485 331.464C489.085 331.521 489.69 331.423 490.241 331.178C490.721 330.829 491.06 330.32 491.197 329.743C491.333 329.165 491.258 328.558 490.985 328.031C490.383 327.011 489.52 326.168 488.485 325.591C485.816 323.833 483.008 322.296 480.089 320.995C477.78 319.985 475.184 318.879 474.249 316.552C473.89 315.31 473.672 314.03 473.6 312.739C472.723 307.381 464.307 310.012 461.483 312.739C458.964 315.313 458.105 323.913 459.994 326.601Z" fill="#FCAB9A"/>
<path d="M379.217 201.189C379.217 201.189 373.989 227.885 397.003 239.059C412.956 246.801 432.268 248.212 449.71 248.879C452.782 248.993 456.217 248.688 459.251 249.108C465.32 249.89 463.564 253.722 462.839 258.814C461.198 271.704 459.442 284.569 457.572 297.408C456.159 304.095 456.256 311.013 457.858 317.658L476.197 315.199C478.148 296.507 481.652 278.011 486.674 259.901C488.849 252.044 491.864 242.262 487.361 234.769C482.916 228.036 476.612 222.736 469.213 219.514L423.108 198.024L379.217 201.189Z" fill="#473F47"/>
<path d="M442.287 129.645C447.439 127.548 453.317 125.603 458.45 127.738C459.751 128.218 460.844 129.135 461.542 130.332C461.966 131.512 461.99 132.799 461.611 133.994C461.232 135.19 460.47 136.228 459.442 136.948C457.323 138.318 454.935 139.222 452.439 139.599C448.012 140.609 443.623 141.849 439.291 143.279C438.547 143.489 437.835 143.796 437.173 144.194C436.445 144.731 435.801 145.374 435.264 146.101C431.271 150.868 426.701 155.121 421.658 158.762C423.032 157.771 422.536 148.675 422.899 146.788C423.02 145.63 423.42 144.518 424.065 143.549C424.709 142.579 425.579 141.78 426.601 141.22C432.23 137.635 435.932 132.238 442.287 129.645Z" fill="#FCAB9A"/>
<path d="M429.71 82.0508C430.397 83.6525 432.096 84.7585 432.496 86.4937C432.897 88.2289 431.313 90.4217 430.321 92.3858C429.004 95.0172 428.909 98.1063 427.573 100.814C427.337 101.401 426.932 101.906 426.409 102.263C425.918 102.492 425.386 102.622 424.844 102.645C422.735 102.814 420.612 102.666 418.547 102.206C418.171 102.034 417.751 101.98 417.344 102.053C416.999 102.286 416.754 102.64 416.657 103.045C414.771 108.147 414.155 113.631 414.864 119.024C415.093 120.778 415.322 122.952 413.89 124.02C413.387 124.381 412.792 124.593 412.173 124.63C408.07 125.088 404.54 121.656 402.326 118.261C400.307 115.174 398.661 111.858 397.422 108.384C397.002 107.38 396.775 106.306 396.754 105.219C396.831 103.936 397.155 102.68 397.708 101.519C399.406 97.321 400.685 92.965 401.525 88.5149C402.574 82.7944 403.032 76.807 405.761 71.773C406.661 70.0444 408.083 68.6433 409.826 67.7686C411.834 67.1311 413.978 67.0519 416.028 67.5398C420.262 67.8087 424.231 69.6927 427.115 72.8027C427.878 73.9277 428.832 80.0486 429.71 82.0508Z" fill="#FCAB9A"/>
<path d="M419.977 202.658C416.984 204.63 413.599 205.932 410.054 206.471C405.01 207.637 400.158 209.519 395.647 212.058C392.937 213.679 391.105 216.444 388.72 218.503C386.824 220.106 384.598 221.271 382.199 221.914C379.801 222.556 377.29 222.662 374.846 222.222C374.617 221.554 374.369 220.868 374.14 220.181C366.507 197.299 367.728 172.511 369.999 148.847C371.087 137.635 379.903 101.729 396.83 105.905C396.83 105.905 412.879 116.984 417.172 124.554C421.084 131.552 426.714 137.177 425.74 145.815C424.328 157.962 417.821 168.697 417.191 181.339C416.967 183.17 417.19 185.028 417.84 186.755C419.004 189.214 421.752 190.683 422.897 193.123C423.517 194.813 423.567 196.66 423.04 198.381C422.513 200.102 421.438 201.604 419.977 202.658Z" fill="white"/>
<path d="M394.349 183.208C394.714 184.922 395.358 186.565 396.257 188.07C398.694 191.157 402.214 193.202 406.104 193.791C410.506 194.857 414.966 195.665 419.462 196.213C426.103 197.052 431.427 200.026 438.354 197.433C443.108 195.402 447.341 192.326 450.739 188.433C451.808 187.308 452.648 185.172 451.312 184.466C450.94 184.326 450.545 184.262 450.148 184.276H438.602C438.374 183.361 439.041 182.483 439.499 181.663C439.957 180.844 440.148 179.585 439.309 179.127C438.469 178.67 437.763 179.261 437.114 179.718C433.863 181.923 430.128 183.315 426.226 183.776C422.324 184.237 418.368 183.755 414.692 182.369C407.898 179.795 407.383 171.347 406.391 164.883C406.381 164.078 406.181 163.287 405.806 162.574C405.431 161.862 404.892 161.248 404.234 160.784C403.695 160.586 403.122 160.497 402.549 160.523C401.976 160.55 401.413 160.69 400.895 160.936C396.951 162.17 393.615 164.838 391.544 168.411C389.846 172.015 393.3 179.223 394.349 183.208Z" fill="#FCAB9A"/>
<path d="M397.956 128.52C397.956 128.52 409.177 157.923 411.314 160.078C413.451 162.233 390.437 175.562 390.437 175.562C390.437 175.562 375.056 146.959 375.629 134.565C376.201 122.17 389.311 116.85 397.956 128.52Z" fill="white"/>
<path d="M430.933 72.8599C427.364 78.2181 424.082 74.9765 420.018 71.3916L421.201 76.4256L414.235 79.61L410.419 76.0252C411.335 80.2774 409.675 84.6059 408.301 88.7437C406.278 94.8265 404.866 101.5 406.927 107.564C408.606 112.522 412.537 116.908 412.403 122.132L404.274 114.505C402.371 112.499 400.162 110.806 397.729 109.49C396.529 108.86 395.202 108.509 393.847 108.463C392.492 108.417 391.145 108.676 389.905 109.223C388.815 109.895 387.821 110.71 386.947 111.645C382.787 115.763 378.035 119.634 375.611 125.107C373.474 129.893 373.531 135.9 369.887 140.076C364.925 145.929 355.479 144.385 348.628 140.972C343.891 138.832 339.755 135.557 336.587 131.438C334.99 129.141 333.862 126.552 333.268 123.819C332.673 121.086 332.623 118.263 333.121 115.511C333.619 112.759 334.655 110.132 336.17 107.78C337.685 105.429 339.649 103.398 341.949 101.806C343.679 100.607 345.576 99.6695 347.579 99.0215C350.918 97.9537 354.83 97.5151 356.967 94.7312C359.505 91.4133 358.112 86.7034 358.265 82.5275C358.393 79.7974 359.231 77.1479 360.697 74.8405C362.163 72.5331 364.205 70.6477 366.623 69.3704C373.36 65.8999 382.844 67.1013 387.271 60.9613C388.556 58.6925 389.691 56.3421 390.668 53.9251C394.733 46.2978 406.602 44.5435 412.747 50.6072C413.9 52.1004 415.349 53.3402 417.002 54.2492C418.289 54.6285 419.632 54.7833 420.972 54.7069C423.189 54.6665 425.379 55.1895 427.339 56.2268C429.298 57.264 430.962 58.7816 432.173 60.6371C433.948 63.7834 433.166 69.3132 431.276 72.3641L430.933 72.8599Z" fill="#FC682D"/>
<path d="M458.62 320.976C457.24 323.202 456.68 325.838 457.036 328.432C457.096 329.266 457.416 330.059 457.952 330.701C458.54 331.195 459.242 331.536 459.994 331.693C469.517 334.627 479.417 336.156 489.382 336.231C490.675 336.309 491.972 336.135 493.198 335.716C493.805 335.505 494.349 335.145 494.779 334.668C495.21 334.192 495.513 333.614 495.66 332.989C495.739 332.124 495.581 331.254 495.202 330.472C493.969 327.567 491.633 325.269 488.707 324.082C485.781 322.895 482.503 322.917 479.592 324.142L479.249 324.294C478.249 324.862 477.194 325.329 476.1 325.686C475.014 325.876 473.904 325.876 472.818 325.686C470.01 325.363 467.233 324.808 464.517 324.027C462.498 323.117 460.529 322.099 458.62 320.976Z" fill="#473F47"/>
</g>
<defs>
<linearGradient id="paint0_linear" x1="326.032" y1="295.52" x2="319.287" y2="651.43" gradientUnits="userSpaceOnUse">
<stop offset="0.01"/>
<stop offset="0.13" stop-opacity="0.69"/>
<stop offset="0.25" stop-opacity="0.32"/>
<stop offset="1" stop-opacity="0"/>
</linearGradient>
<linearGradient id="paint1_linear" x1="79016" y1="-16323" x2="40124.3" y2="-68881" gradientUnits="userSpaceOnUse">
<stop offset="0.01"/>
<stop offset="0.13" stop-opacity="0.69"/>
<stop offset="0.25" stop-opacity="0.32"/>
<stop offset="1" stop-opacity="0"/>
</linearGradient>
<linearGradient id="paint2_linear" x1="62751.4" y1="-14762.3" x2="18883.9" y2="-59269.7" gradientUnits="userSpaceOnUse">
<stop offset="0.01"/>
<stop offset="0.13" stop-opacity="0.69"/>
<stop offset="0.25" stop-opacity="0.32"/>
<stop offset="1" stop-opacity="0"/>
</linearGradient>
<linearGradient id="paint3_linear" x1="12066.1" y1="15294.8" x2="254.594" y2="18719.6" gradientUnits="userSpaceOnUse">
<stop offset="0.01"/>
<stop offset="0.13" stop-opacity="0.69"/>
<stop offset="0.25" stop-opacity="0.32"/>
<stop offset="1" stop-opacity="0"/>
</linearGradient>
<linearGradient id="paint4_linear" x1="44034.5" y1="-12843.4" x2="79100.7" y2="-62402.7" gradientUnits="userSpaceOnUse">
<stop offset="0.01"/>
<stop offset="0.13" stop-opacity="0.69"/>
<stop offset="0.25" stop-opacity="0.32"/>
<stop offset="1" stop-opacity="0"/>
</linearGradient>
<linearGradient id="paint5_linear" x1="101328" y1="-28763" x2="70850.6" y2="21400.3" gradientUnits="userSpaceOnUse">
<stop offset="0.01"/>
<stop offset="0.13" stop-opacity="0.69"/>
<stop offset="0.25" stop-opacity="0.32"/>
<stop offset="1" stop-opacity="0"/>
</linearGradient>
<linearGradient id="paint6_linear" x1="40216.9" y1="-10391.9" x2="40329" y2="-2976.76" gradientUnits="userSpaceOnUse">
<stop offset="0.01"/>
<stop offset="0.13" stop-opacity="0.69"/>
<stop offset="0.25" stop-opacity="0.32"/>
<stop offset="1" stop-opacity="0"/>
</linearGradient>
<linearGradient id="paint7_linear" x1="8909.84" y1="-6632.63" x2="10983.6" y2="-1911.01" gradientUnits="userSpaceOnUse">
<stop offset="0.01"/>
<stop offset="0.13" stop-opacity="0.69"/>
<stop offset="0.25" stop-opacity="0.32"/>
<stop offset="1" stop-opacity="0"/>
</linearGradient>
<linearGradient id="paint8_linear" x1="5299.47" y1="8165.56" x2="2291.22" y2="7877.41" gradientUnits="userSpaceOnUse">
<stop offset="0.01"/>
<stop offset="0.13" stop-opacity="0.69"/>
<stop offset="0.25" stop-opacity="0.32"/>
<stop offset="1" stop-opacity="0"/>
</linearGradient>
<linearGradient id="paint9_linear" x1="552.431" y1="91.3751" x2="202.431" y2="594.286" gradientUnits="userSpaceOnUse">
<stop offset="0.01"/>
<stop offset="0.08" stop-opacity="0.69"/>
<stop offset="0.21" stop-opacity="0.32"/>
<stop offset="1" stop-opacity="0"/>
</linearGradient>
<clipPath id="clip0">
<rect width="648" height="510" fill="white"/>
</clipPath>
</defs>
</svg>
