<svg width="582" height="449" viewBox="0 0 582 449" fill="none" xmlns="http://www.w3.org/2000/svg">
<g clip-path="url(#clip0)">
<path opacity="0.18" d="M575.116 372.381C568.999 386.241 560.184 398.746 549.183 409.165C538.183 419.584 525.217 427.71 511.043 433.068C492.404 440.056 472.25 441.873 452.387 443.387C376.419 449.147 300.18 450.481 224.056 447.381C164.259 444.947 122.227 422.925 68.9075 398.934C61.5172 395.824 54.3613 392.185 47.4956 388.045C17.5096 368.911 3.2273 332.435 0.454702 296.682C0.24501 293.98 0.116866 291.29 0.0353188 288.6C-0.232621 277.804 0.373156 266.635 4.28741 256.492C18.861 218.607 73.1596 206.041 83.5976 166.817C88.9913 146.507 80.6619 124.147 87.3604 104.244C93.5929 85.7497 111.265 73.7659 128.6 64.8218C201.037 27.4148 288.35 19.9264 366.123 44.3947C416.553 60.2449 467.124 95.1829 476.176 147.252C481.348 177.019 472.448 209.686 486.183 236.6C501.024 265.715 537.872 279.12 561.346 300.595C570.933 309.353 578.284 319.462 580.975 332.517C583.736 345.886 580.591 359.862 575.116 372.381Z" fill="#FDBC68"/>
<path d="M575.116 372.381C568.999 386.241 560.184 398.746 549.183 409.165C538.183 419.584 525.217 427.71 511.043 433.068C492.404 440.056 472.25 441.873 452.388 443.387C376.419 449.147 300.18 450.481 224.057 447.381C164.259 444.947 122.228 422.925 68.9078 398.934C61.5176 395.824 54.3617 392.185 47.496 388.045C17.51 368.911 3.22767 332.435 0.455078 296.682C1.55758 296.303 2.69824 296.045 3.85675 295.913C21.2146 293.433 38.9102 290.975 56.2797 293.759C67.0672 295.517 77.447 299.279 88.1995 301.247C118.488 306.861 148.835 297.998 179.217 299.943C204.905 301.585 230.208 307.094 256.233 307.874C283.632 308.712 311.067 307.757 338.455 306.511C393.208 304.007 448.345 300.083 503.04 306.115C510.624 306.942 518.184 307.967 525.826 307.28C531.954 306.709 537.919 305.021 543.93 303.658C549.699 302.343 555.531 301.324 561.404 300.607C570.992 309.364 578.343 319.473 581.034 332.528C583.736 345.886 580.591 359.862 575.116 372.381Z" fill="url(#paint0_linear)"/>
<path d="M109.413 307.629C110.333 306.336 111.288 304.764 110.811 303.25C110.596 302.727 110.28 302.251 109.88 301.851C109.48 301.452 109.004 301.135 108.481 300.921C102.947 298.207 95.9809 301.002 92.02 305.719C88.0592 310.436 86.37 316.596 84.7973 322.559C85.1934 307.28 85.4147 291.231 78.2852 277.71C76.9227 274.779 74.8136 272.257 72.1692 270.397C69.4316 268.696 65.7037 268.3 63.0476 270.117C60.3915 271.934 59.5527 275.172 59.5527 278.269C59.5527 283.382 61.8826 288.169 63.3505 293.048C65.9367 301.445 66.3211 310.331 67.1366 319.089C68.5928 334.811 70.2587 350.754 74.604 365.941C74.4409 365.382 80.9297 361.003 81.5937 359.675C84.1799 354.679 84.2381 347.54 86.7078 342.125C92.4161 329.535 101.491 318.832 109.413 307.629Z" fill="#FDBC68"/>
<path d="M109.413 307.629C110.333 306.336 111.288 304.764 110.811 303.25C110.596 302.727 110.28 302.251 109.88 301.851C109.48 301.452 109.004 301.135 108.481 300.921C102.947 298.207 95.9809 301.002 92.02 305.719C88.0592 310.436 86.37 316.596 84.7973 322.559C85.1934 307.28 85.4147 291.231 78.2852 277.71C76.9227 274.779 74.8136 272.257 72.1692 270.397C69.4316 268.696 65.7037 268.3 63.0476 270.117C60.3915 271.934 59.5527 275.172 59.5527 278.269C59.5527 283.382 61.8826 288.169 63.3505 293.048C65.9367 301.445 66.3211 310.331 67.1366 319.089C68.5928 334.811 70.2587 350.754 74.604 365.941C74.4409 365.382 80.9297 361.003 81.5937 359.675C84.1799 354.679 84.2381 347.54 86.7078 342.125C92.4161 329.535 101.491 318.832 109.413 307.629Z" fill="url(#paint1_linear)"/>
<path d="M297.437 1.584C305.242 -1.09458 313.991 -0.186188 321.645 2.93494C327.888 5.33286 333.296 9.49715 337.209 14.9187C339.131 17.6381 340.459 20.7321 341.106 23.9989C341.752 27.2657 341.702 30.632 340.96 33.8784C339.795 38.2223 337.244 42.4498 338.048 46.8753C338.747 50.7651 341.974 53.6999 345.34 55.7729C348.707 57.8458 352.458 59.3715 355.405 62.0151C357.95 64.3741 359.74 67.4334 360.548 70.8074C361.357 74.1814 361.148 77.7191 359.949 80.9748C358.993 83.4321 357.444 85.8894 357.875 88.4981C358.306 91.1068 360.741 93.0517 363.246 94.03C365.75 95.0082 368.476 95.3343 370.981 96.3592C373.348 97.3037 375.439 98.8302 377.059 100.797C378.679 102.764 379.776 105.108 380.249 107.612C380.721 110.116 380.554 112.698 379.763 115.12C378.972 117.542 377.582 119.726 375.722 121.468C372.309 124.682 367.626 126.126 363.094 127.291C345.518 131.706 327.32 133.112 309.273 131.449C295.375 130.156 281.454 127.035 267.579 128.642C258.924 129.643 250.559 132.473 241.95 133.603C233.341 134.733 223.847 133.906 217.032 128.467C213.613 125.534 210.853 121.91 208.936 117.834C205.534 111.138 203.402 103.521 204.649 96.1263C205.895 88.731 211.091 81.7085 218.372 79.8219C221.61 78.995 225.024 79.2163 228.367 79.0416C234.979 78.6759 241.409 76.7396 247.123 73.3933C248.847 72.3801 250.618 71.0641 251.084 69.1425C251.853 65.9515 248.835 63.3195 247.228 60.4313C244.012 54.7014 247.565 46.3745 253.926 44.7208C257.654 43.7542 262.221 44.6043 264.842 41.786C268.127 38.2922 266.461 32.7254 270.003 29.0453C273.171 25.7611 277.598 24.5266 280.138 20.4389C285.112 12.3799 287.372 5.05451 297.437 1.584Z" fill="#3F3D56"/>
<path d="M297.437 1.584C305.242 -1.09458 313.991 -0.186188 321.645 2.93494C327.888 5.33286 333.296 9.49715 337.209 14.9187C339.131 17.6381 340.459 20.7321 341.106 23.9989C341.752 27.2657 341.702 30.632 340.96 33.8784C339.795 38.2223 337.244 42.4498 338.048 46.8753C338.747 50.7651 341.974 53.6999 345.34 55.7729C348.707 57.8458 352.458 59.3715 355.405 62.0151C357.95 64.3741 359.74 67.4334 360.548 70.8074C361.357 74.1814 361.148 77.7191 359.949 80.9748C358.993 83.4321 357.444 85.8894 357.875 88.4981C358.306 91.1068 360.741 93.0517 363.246 94.03C365.75 95.0082 368.476 95.3343 370.981 96.3592C373.348 97.3037 375.439 98.8302 377.059 100.797C378.679 102.764 379.776 105.108 380.249 107.612C380.721 110.116 380.554 112.698 379.763 115.12C378.972 117.542 377.582 119.726 375.722 121.468C372.309 124.682 367.626 126.126 363.094 127.291C345.518 131.706 327.32 133.112 309.273 131.449C295.375 130.156 281.454 127.035 267.579 128.642C258.924 129.643 250.559 132.473 241.95 133.603C233.341 134.733 223.847 133.906 217.032 128.467C213.613 125.534 210.853 121.91 208.936 117.834C205.534 111.138 203.402 103.521 204.649 96.1263C205.895 88.731 211.091 81.7085 218.372 79.8219C221.61 78.995 225.024 79.2163 228.367 79.0416C234.979 78.6759 241.409 76.7396 247.123 73.3933C248.847 72.3801 250.618 71.0641 251.084 69.1425C251.853 65.9515 248.835 63.3195 247.228 60.4313C244.012 54.7014 247.565 46.3745 253.926 44.7208C257.654 43.7542 262.221 44.6043 264.842 41.786C268.127 38.2922 266.461 32.7254 270.003 29.0453C273.171 25.7611 277.598 24.5266 280.138 20.4389C285.112 12.3799 287.372 5.05451 297.437 1.584Z" fill="url(#paint2_linear)"/>
<path d="M65.8089 370.32C86.0558 397.839 122.146 408.984 156.035 413.328C501.63 457.583 549.848 373.045 551.421 371.216C557.105 364.636 473.182 290.51 226.177 307.245C208.9 308.409 54.835 355.401 65.8089 370.32Z" fill="#FDBC68"/>
<path d="M154.718 327.754C152.277 328.87 150.146 330.565 148.509 332.691C147.029 334.916 146.703 338.13 148.439 340.157C149.674 341.612 151.643 342.171 153.507 342.637C181.493 349.52 210.718 349.636 238.758 342.975C250.105 340.261 261.23 336.441 272.798 334.916C282.118 333.693 291.612 333.984 301.037 334.403C335.717 335.941 370.328 339.062 404.822 342.975C424.394 345.199 444.116 347.633 463.723 345.805C465.668 345.619 467.777 345.316 469.116 343.895C472.215 340.622 468.452 335.289 464.363 333.414C458.317 330.607 450.093 329.431 448.054 323.072C447.865 321.997 447.469 320.969 446.889 320.044C445.833 319.068 444.448 318.527 443.01 318.53C363.862 309.329 284.003 307.909 204.578 314.291C186.079 315.758 171.051 318.903 154.718 327.754Z" fill="url(#paint3_linear)"/>
<path d="M141.145 250.529C141.145 250.529 155.533 223.079 218.312 244.648C281.091 266.216 370.688 304.799 370.688 304.799L363.5 332.261C363.5 332.261 215.703 314.605 194.768 302.831C173.834 291.057 137.219 289.764 141.145 250.529Z" fill="#FDBC68"/>
<path d="M141.145 250.529C141.145 250.529 155.533 223.079 218.312 244.648C281.091 266.216 370.688 304.799 370.688 304.799L363.5 332.261C363.5 332.261 215.703 314.605 194.768 302.831C173.834 291.057 137.219 289.764 141.145 250.529Z" fill="url(#paint4_linear)"/>
<path d="M245.129 307.408C245.129 307.408 354.343 254.512 407.36 248.572C460.378 242.633 464.257 254.454 466.226 257.074C468.194 259.694 487.801 293.677 416.517 310.028C345.233 326.379 243.218 336.174 243.218 336.174C243.218 336.174 237.929 329.64 245.129 307.408Z" fill="#FDBC68"/>
<path d="M245.129 307.408C245.129 307.408 354.343 254.512 407.36 248.572C460.378 242.633 464.257 254.454 466.226 257.074C468.194 259.694 487.801 293.677 416.517 310.028C345.233 326.379 243.218 336.174 243.218 336.174C243.218 336.174 237.929 329.64 245.129 307.408Z" fill="url(#paint5_linear)"/>
<path d="M357.758 3.71498L359.261 2.21265" stroke="#3CB6D5" stroke-width="3.43" stroke-miterlimit="10"/>
<path d="M289.7 90.6292C285.174 93.4136 280.352 95.6869 275.324 97.4072C277.989 101.763 281.615 105.452 285.925 108.191C292.204 111.988 299.777 113.024 307.116 113.094C311.265 113.259 315.414 112.76 319.406 111.615C324.753 109.892 329.332 106.386 333.607 102.741C335.517 101.087 337.591 98.8862 337.102 96.4173C333.19 96.6465 329.301 95.6794 325.953 93.6447C322.604 91.6101 319.955 88.6044 318.358 85.0275C317.715 83.3949 317.193 81.7172 316.797 80.0081C316.61 79.286 315.9 74.7208 315.399 74.1851C314.789 73.5973 314.049 73.1613 313.24 72.9125C312.43 72.6636 311.574 72.6088 310.739 72.7526C306.988 73.4281 301.78 72.147 299.089 75.2099C295.944 78.7153 293.905 87.9739 289.7 90.6292Z" fill="url(#paint6_linear)"/>
<path d="M301.748 87.8343C303.698 89.1061 306.023 89.677 308.341 89.4531C310.671 89.1853 312.489 83.6301 313.607 81.5688C313.937 80.9233 314.217 80.2537 314.446 79.5657C315.44 77.12 316.05 74.5349 316.251 71.9026C316.251 72.6363 311.394 73.4049 310.764 73.4981C308.737 73.8009 306.675 73.9057 304.637 74.1153C301.806 74.4065 296.144 74.5346 297.402 78.6223C298.031 80.707 299.919 86.693 301.748 87.8343Z" fill="url(#paint7_linear)"/>
<path d="M275.336 97.4072C275.336 97.4072 259.516 99.1774 255.264 108.005C251.012 116.833 188.862 197.248 188.559 202.477C188.256 207.707 217.986 237.788 217.986 237.788L231.721 208.359L227.468 199.217L253.96 162.602L252.911 257.167L308.631 279.411L359.598 259.822L361.485 162.275C361.485 162.275 383.724 193.65 384.376 201.499C385.029 209.349 381.767 213.925 381.767 213.925L400.732 241.375C400.732 241.375 430.159 210.653 428.202 196.27C426.245 181.887 365.422 108.657 359.598 105.443C353.773 102.229 337.091 96.4639 337.091 96.4639L275.336 97.4072Z" fill="#FDBC68"/>
<path d="M243.01 253.976C238.264 254.492 233.561 255.348 228.938 256.538C227.353 256.946 225.548 257.598 225.047 259.158C224.359 261.278 226.596 263.165 228.635 264.073C241.275 269.698 256.069 265.028 269.746 267.217C281.465 269.104 291.775 275.929 303.134 279.411C303.673 279.615 304.246 279.718 304.823 279.714C306.099 279.736 307.375 279.635 308.632 279.411C314.061 277.536 318.628 275.311 324.592 274.636L347.029 272.109C356.407 271.049 364.107 266.507 373.439 265.121C377.411 264.527 381.593 264.9 385.286 263.246C386.638 262.629 388.012 261.057 387.15 259.857C386.783 259.442 386.294 259.153 385.752 259.03C381.71 257.714 377.376 257.808 373.136 257.866C329.834 258.634 286.079 249.318 243.01 253.976Z" fill="#FDBC68"/>
<path d="M243.01 253.976C238.264 254.492 233.561 255.348 228.938 256.538C227.353 256.946 225.548 257.598 225.047 259.158C224.359 261.278 226.596 263.165 228.635 264.073C241.275 269.698 256.069 265.028 269.746 267.217C281.465 269.104 291.775 275.929 303.134 279.411C303.673 279.615 304.246 279.718 304.823 279.714C306.099 279.736 307.375 279.635 308.632 279.411C314.061 277.536 318.628 275.311 324.592 274.636L347.029 272.109C356.407 271.049 364.107 266.507 373.439 265.121C377.411 264.527 381.593 264.9 385.286 263.246C386.638 262.629 388.012 261.057 387.15 259.857C386.783 259.442 386.294 259.153 385.752 259.03C381.71 257.714 377.376 257.808 373.136 257.866C329.834 258.634 286.079 249.318 243.01 253.976Z" fill="url(#paint8_linear)"/>
<path d="M360.881 145.773L361.976 161.786L381.78 192.52C383.474 195.152 384.498 198.158 384.762 201.276C385.026 204.394 384.522 207.529 383.295 210.408L381.792 213.902L392.009 222.672L402.179 200.218L360.881 145.773Z" fill="url(#paint9_linear)"/>
<path d="M255.45 224.465C257.467 225.169 259.376 226.149 261.124 227.376C265.55 230.765 267.007 236.763 267.368 242.33C267.511 243.355 267.379 244.401 266.983 245.358C266.517 246.07 265.864 246.641 265.096 247.009C264.328 247.376 263.474 247.526 262.626 247.442C258.526 247.442 254.868 244.671 250.779 244.275C248.682 244.065 246.538 244.484 244.476 244.065C239.63 243.075 236.928 238.091 233.992 234.143C231.281 230.58 227.907 227.574 224.055 225.292C216.541 220.855 220.56 212.341 228.715 213.995C237.731 215.847 246.865 220.983 255.45 224.465Z" fill="url(#paint10_linear)"/>
<path d="M359.82 222.077C357.932 222.407 356.112 223.053 354.438 223.987C352.039 225.513 350.559 228.11 348.614 230.136C346.959 231.802 344.839 233.258 344.245 235.529C343.938 236.927 344.114 238.389 344.746 239.675C345.728 241.705 347.375 243.338 349.413 244.304C351.452 245.27 353.759 245.51 355.953 244.985C357.747 244.496 359.366 243.494 361.149 242.994C366.682 241.421 373.171 244.671 378.099 241.724C379.656 240.626 381.041 239.304 382.211 237.8C384.861 234.862 387.95 232.351 391.367 230.358C392.232 229.957 392.99 229.358 393.581 228.611C394.746 226.771 393.476 224.372 392.078 222.695C387.989 217.803 385.636 216.091 379.473 217.501C372.88 218.991 366.356 220.552 359.82 222.077Z" fill="url(#paint11_linear)"/>
<path d="M230.614 313.452C219.629 314.547 208.62 310.482 197.623 311.519C193.658 311.943 189.765 312.882 186.043 314.314C184.236 314.867 182.567 315.8 181.15 317.051C178.704 319.462 178.226 323.293 178.82 326.67C179.985 333.262 184.832 338.887 190.82 341.88C194.519 343.776 198.675 344.603 202.819 344.268C204.787 344.03 206.735 343.641 208.643 343.103C212.941 342.203 217.122 340.82 221.108 338.98C223.625 337.699 225.943 336.069 228.471 334.834C232.059 333.087 236.008 332.191 239.538 330.339C239.813 330.221 240.062 330.051 240.272 329.838C240.49 329.566 240.652 329.253 240.75 328.918C242.506 323.974 243.362 318.756 243.277 313.51C243.277 312.765 243.522 311.181 242.753 310.774C242.159 310.471 239.596 311.635 238.909 311.822C236.193 312.591 233.419 313.136 230.614 313.452Z" fill="url(#paint12_linear)"/>
<path d="M383.701 328.802C388.99 330.141 393.79 332.959 399.032 334.438C403.536 335.593 408.176 336.13 412.825 336.034C419.815 336.034 427.166 335.498 433.223 331.946C434.2 331.431 435.054 330.712 435.728 329.838C437.289 327.614 436.602 324.539 435.565 322.024C433.771 317.61 430.823 313.312 426.385 311.542C421.143 309.504 415.306 311.542 409.854 312.858C396.434 316.224 382.326 315.711 368.755 318.39C368.03 318.376 367.327 318.639 366.79 319.127C366.252 319.614 365.922 320.288 365.866 321.01C365.481 322.641 364.479 325.331 365.097 327.008C365.807 328.965 367.741 328.266 369.442 328.173C374.197 327.589 379.016 327.801 383.701 328.802Z" fill="url(#paint13_linear)"/>
<path d="M394.722 322.606C394.244 323.551 393.682 324.451 393.044 325.296C392.08 326.681 391.665 328.374 391.879 330.048C392.151 331.032 392.617 331.952 393.252 332.753C393.886 333.553 394.676 334.217 395.572 334.706C400.675 338.037 407.047 338.654 413.14 338.864C416.404 339.064 419.68 338.92 422.914 338.433C425.22 337.979 427.493 337.372 429.717 336.616C431.974 336.061 434.1 335.068 435.973 333.693C437.403 332.425 438.499 330.826 439.165 329.035C440.066 326.993 440.31 324.722 439.864 322.536C439.362 320.863 438.53 319.307 437.418 317.959C436.274 316.429 435.028 314.978 433.69 313.615C432.712 312.525 431.523 311.646 430.195 311.03C428.598 310.517 426.913 310.339 425.244 310.506C415.669 310.738 406.128 311.739 396.714 313.499C395.978 313.584 395.276 313.857 394.675 314.291C393.452 315.35 394.675 316.76 394.908 317.982C395.324 319.506 395.259 321.121 394.722 322.606Z" fill="#FDBC68"/>
<path d="M225.863 326.437C226.958 327.194 228.193 327.718 229.241 328.534C229.792 328.908 230.243 329.411 230.554 330C230.864 330.589 231.026 331.245 231.023 331.911C230.872 333.518 229.369 334.624 227.994 335.405C221.673 339.226 214.829 342.11 207.678 343.965C204.557 344.901 201.298 345.295 198.043 345.129C195.386 344.813 192.791 344.103 190.343 343.021C186.044 341.251 181.874 338.864 178.985 335.23C176.096 331.597 174.698 326.53 176.34 322.187C177.727 318.506 181 315.909 184.122 313.545C185.716 312.214 187.513 311.148 189.446 310.389C191.34 309.857 193.305 309.622 195.271 309.69C200.432 309.609 205.581 309.621 210.741 309.621C214.236 309.621 221.168 309.562 221.972 314.116C222.344 316.201 221.459 318.297 221.972 320.463C222.473 322.872 223.862 325.004 225.863 326.437Z" fill="#FDBC68"/>
<path d="M394.722 322.606C394.244 323.551 393.682 324.451 393.044 325.296C392.08 326.681 391.665 328.374 391.879 330.048C392.151 331.032 392.617 331.952 393.252 332.753C393.886 333.553 394.676 334.217 395.572 334.706C400.675 338.037 407.047 338.654 413.14 338.864C416.404 339.064 419.68 338.92 422.914 338.433C425.22 337.979 427.493 337.372 429.717 336.616C431.974 336.061 434.1 335.068 435.973 333.693C437.403 332.425 438.499 330.826 439.165 329.035C440.066 326.993 440.31 324.722 439.864 322.536C439.362 320.863 438.53 319.307 437.418 317.959C436.274 316.429 435.028 314.978 433.69 313.615C432.712 312.525 431.523 311.646 430.195 311.03C428.598 310.517 426.913 310.339 425.244 310.506C415.669 310.738 406.128 311.739 396.714 313.499C395.978 313.584 395.276 313.857 394.675 314.291C393.452 315.35 394.675 316.76 394.908 317.982C395.324 319.506 395.259 321.121 394.722 322.606Z" fill="url(#paint14_linear)"/>
<path d="M225.863 326.437C226.958 327.194 228.193 327.718 229.241 328.534C229.792 328.908 230.243 329.411 230.554 330C230.864 330.589 231.026 331.245 231.023 331.911C230.872 333.518 229.369 334.624 227.994 335.405C221.673 339.226 214.829 342.11 207.678 343.965C204.557 344.901 201.298 345.295 198.043 345.129C195.386 344.813 192.791 344.103 190.343 343.021C186.044 341.251 181.874 338.864 178.985 335.23C176.096 331.597 174.698 326.53 176.34 322.187C177.727 318.506 181 315.909 184.122 313.545C185.716 312.214 187.513 311.148 189.446 310.389C191.34 309.857 193.305 309.622 195.271 309.69C200.432 309.609 205.581 309.621 210.741 309.621C214.236 309.621 221.168 309.562 221.972 314.116C222.344 316.201 221.459 318.297 221.972 320.463C222.473 322.872 223.862 325.004 225.863 326.437Z" fill="url(#paint15_linear)"/>
<path d="M285.344 40.3417C285.344 40.3417 284.366 81.5336 305.952 79.2393C327.539 76.945 328.517 39.0606 328.517 39.0606C328.517 39.0606 319.687 16.8284 301.048 20.1009C282.409 23.3734 285.344 40.3417 285.344 40.3417Z" fill="url(#paint16_linear)"/>
<path d="M296.167 22.4301C299.126 34.7981 311.941 43.9752 324.604 42.8222C326.782 42.6126 329.264 41.8906 330.103 39.8758C330.415 38.9511 330.515 37.9678 330.394 36.9992C330.115 30.6849 328.042 24.5808 324.418 19.4021C322.593 16.8444 320.255 14.6949 317.554 13.0907C314.852 11.4866 311.845 10.463 308.726 10.0853C299.686 9.23517 291.251 14.8485 285.112 21.5799C281.279 25.8074 269.688 45.0699 282.328 45.6755C286.37 45.8618 290.284 42.9271 292.23 39.5963C295.305 34.2741 292.649 27.4146 296.167 22.4301Z" fill="#3F3D56"/>
<path d="M255.055 146.588L253.96 162.602L227.481 199.205L231.721 208.359L228.646 213.995L213.734 201.057L255.055 146.588Z" fill="url(#paint17_linear)"/>
<path d="M276.549 100.854C277.423 103.183 280.347 103.836 282.781 104.43C287.441 105.594 291.845 107.923 296.539 109.088C301.447 110.156 306.465 110.633 311.486 110.509C317.823 110.614 324.172 110.718 330.498 110.264C338.979 109.67 347.471 108.11 355.929 108.96C356.5 108.541 355.836 107.69 355.218 107.341C350.815 104.849 346.201 102.764 341.646 100.563C337.872 98.7231 334.657 98.9444 330.463 99.1889C318.988 99.8411 307.49 99.1889 296.004 99.3054C289.489 99.3375 282.986 99.8552 276.549 100.854Z" fill="url(#paint18_linear)"/>
<path d="M377.806 158.269H242.217V261.29H377.806V158.269Z" fill="#FDBC68"/>
<path d="M378.411 158.269H242.822V165.478H378.411V158.269Z" fill="url(#paint19_linear)"/>
<path d="M378.411 165.618H242.822V260.637H378.411V165.618Z" fill="url(#paint20_linear)"/>
</g>
<defs>
<linearGradient id="paint0_linear" x1="283.656" y1="397.641" x2="297.114" y2="261.766" gradientUnits="userSpaceOnUse">
<stop stop-color="white" stop-opacity="0"/>
<stop offset="0.76" stop-color="white" stop-opacity="0.76"/>
<stop offset="0.99" stop-color="white"/>
</linearGradient>
<linearGradient id="paint1_linear" x1="83.5625" y1="315.828" x2="77.8576" y2="401.927" gradientUnits="userSpaceOnUse">
<stop stop-opacity="0"/>
<stop offset="0.99"/>
</linearGradient>
<linearGradient id="paint2_linear" x1="47083" y1="10432.2" x2="46060.3" y2="24013.6" gradientUnits="userSpaceOnUse">
<stop stop-opacity="0"/>
<stop offset="0.99"/>
</linearGradient>
<linearGradient id="paint3_linear" x1="87940" y1="11298.1" x2="88001.9" y2="29736.7" gradientUnits="userSpaceOnUse">
<stop stop-opacity="0"/>
<stop offset="0.99"/>
</linearGradient>
<linearGradient id="paint4_linear" x1="51283.7" y1="29883.5" x2="56488" y2="11306.8" gradientUnits="userSpaceOnUse">
<stop stop-opacity="0"/>
<stop offset="0.99"/>
</linearGradient>
<linearGradient id="paint5_linear" x1="72251" y1="28939.9" x2="71418.6" y2="10231.1" gradientUnits="userSpaceOnUse">
<stop stop-opacity="0"/>
<stop offset="0.99"/>
</linearGradient>
<linearGradient id="paint6_linear" x1="275.336" y1="92.8769" x2="337.148" y2="92.8769" gradientUnits="userSpaceOnUse">
<stop stop-color="#ECC4D7"/>
<stop offset="0.42" stop-color="#EFD4D1"/>
<stop offset="1" stop-color="#F2EAC9"/>
</linearGradient>
<linearGradient id="paint7_linear" x1="5389.32" y1="2072.63" x2="6450.37" y2="4131.64" gradientUnits="userSpaceOnUse">
<stop stop-color="#ECC4D7"/>
<stop offset="0.42" stop-color="#EFD4D1"/>
<stop offset="1" stop-color="#F2EAC9"/>
</linearGradient>
<linearGradient id="paint8_linear" x1="39151.5" y1="6221.01" x2="39824.7" y2="13708.3" gradientUnits="userSpaceOnUse">
<stop stop-opacity="0"/>
<stop offset="0.99"/>
</linearGradient>
<linearGradient id="paint9_linear" x1="-208282" y1="17382.6" x2="-219844" y2="15190.3" gradientUnits="userSpaceOnUse">
<stop stop-opacity="0"/>
<stop offset="0.99"/>
</linearGradient>
<linearGradient id="paint10_linear" x1="9557.06" y1="8750.99" x2="11482.2" y2="8750.99" gradientUnits="userSpaceOnUse">
<stop stop-color="#ECC4D7"/>
<stop offset="0.42" stop-color="#EFD4D1"/>
<stop offset="1" stop-color="#F2EAC9"/>
</linearGradient>
<linearGradient id="paint11_linear" x1="15507.8" y1="7386.49" x2="17649.3" y2="7386.49" gradientUnits="userSpaceOnUse">
<stop stop-color="#ECC4D7"/>
<stop offset="0.42" stop-color="#EFD4D1"/>
<stop offset="1" stop-color="#F2EAC9"/>
</linearGradient>
<linearGradient id="paint12_linear" x1="10640" y1="11630.1" x2="14236.8" y2="11630.1" gradientUnits="userSpaceOnUse">
<stop stop-color="#ECC4D7"/>
<stop offset="0.42" stop-color="#EFD4D1"/>
<stop offset="1" stop-color="#F2EAC9"/>
</linearGradient>
<linearGradient id="paint13_linear" x1="23434.6" y1="8759.54" x2="27853.4" y2="8759.54" gradientUnits="userSpaceOnUse">
<stop stop-color="#ECC4D7"/>
<stop offset="0.42" stop-color="#EFD4D1"/>
<stop offset="1" stop-color="#F2EAC9"/>
</linearGradient>
<linearGradient id="paint14_linear" x1="17021.2" y1="9840.41" x2="19021.9" y2="9840.41" gradientUnits="userSpaceOnUse">
<stop stop-opacity="0"/>
<stop offset="0.99"/>
</linearGradient>
<linearGradient id="paint15_linear" x1="8986.48" y1="12274.8" x2="11619.9" y2="12274.8" gradientUnits="userSpaceOnUse">
<stop stop-opacity="0"/>
<stop offset="0.99"/>
</linearGradient>
<linearGradient id="paint16_linear" x1="11255.8" y1="5856.61" x2="12868.1" y2="5856.61" gradientUnits="userSpaceOnUse">
<stop stop-color="#ECC4D7"/>
<stop offset="0.42" stop-color="#EFD4D1"/>
<stop offset="1" stop-color="#F2EAC9"/>
</linearGradient>
<linearGradient id="paint17_linear" x1="7436.22" y1="11362.5" x2="18884.9" y2="8884.75" gradientUnits="userSpaceOnUse">
<stop stop-opacity="0"/>
<stop offset="0.99"/>
</linearGradient>
<linearGradient id="paint18_linear" x1="21821.2" y1="1883.08" x2="22098.8" y2="74.0071" gradientUnits="userSpaceOnUse">
<stop stop-color="white" stop-opacity="0"/>
<stop offset="0.76" stop-color="white" stop-opacity="0.76"/>
<stop offset="0.99" stop-color="white"/>
</linearGradient>
<linearGradient id="paint19_linear" x1="36334" y1="1236.94" x2="36334.4" y2="1062.3" gradientUnits="userSpaceOnUse">
<stop stop-color="white" stop-opacity="0"/>
<stop offset="0.76" stop-color="white" stop-opacity="0.76"/>
<stop offset="0.99" stop-color="white"/>
</linearGradient>
<linearGradient id="paint20_linear" x1="32613.4" y1="22689.1" x2="37322.9" y2="9673.14" gradientUnits="userSpaceOnUse">
<stop stop-color="white" stop-opacity="0"/>
<stop offset="0.76" stop-color="white" stop-opacity="0.76"/>
<stop offset="0.99" stop-color="white"/>
</linearGradient>
<clipPath id="clip0">
<rect width="582" height="449" fill="white"/>
</clipPath>
</defs>
</svg>
