<svg width="575" height="485" viewBox="0 0 575 485" fill="none" xmlns="http://www.w3.org/2000/svg">
<g clip-path="url(#clip0)">
<path opacity="0.18" d="M562.76 431.429C547.932 449.386 514.159 457.002 492.432 462.539C466.576 469.131 439.846 471.631 413.216 469.946C389.349 468.45 365.752 463.497 342.02 460.624C331.661 459.302 321.233 458.593 310.791 458.499C302.33 458.517 293.877 459.017 285.473 459.995C268.272 462.118 251.206 465.221 234.358 469.288L222.686 471.966C214.995 473.747 207.304 475.528 199.598 477.174C190.934 479.029 182.255 480.735 173.531 482.097C160.459 484.18 147.234 485.151 133.998 485C99.8065 484.506 66.1537 475.438 43.0652 451.181C30.1816 437.639 21.7572 420.505 14.6346 403.221C9.21785 390.158 3.93576 376.511 1.37701 362.534C-1.98976 344.128 1.00293 345.67 10.5047 331.439C25.1756 309.715 33.0894 284.134 33.2491 257.92C33.8327 225.448 26.4108 193.425 23.478 161.088C22.3849 149.765 22.1149 138.377 22.67 127.015C23.8072 105.631 28.6853 84.7414 40.1473 66.9342C63.5202 30.6464 108.5 15.1885 150.877 7.30246C174.55 2.71057 198.589 0.266489 222.701 0C229.904 0 237.096 0.224459 244.278 0.673381C297.892 4.39943 349.965 23.4487 403.759 23.3439C453.452 23.2392 504.971 13.0487 533.941 63.5224C556.057 102.115 558.182 148.653 556.536 193.036C554.89 237.42 550.116 282.566 560.366 325.782C563.883 340.642 569.165 355.097 572.337 369.986C572.98 372.979 573.534 376.062 573.983 379.129C576.616 397.311 574.477 417.288 562.76 431.429Z" fill="#68E1FD"/>
<path d="M207.737 432.506C205.024 447.38 202.305 462.26 199.582 477.144C190.918 478.999 182.239 480.705 173.516 482.067C160.444 484.15 147.218 485.121 133.982 484.97C99.7909 484.476 66.1381 475.408 43.0495 451.151C30.166 437.609 21.7416 420.475 14.619 403.192C9.20223 390.128 3.92014 376.481 1.36139 362.504C-2.00539 344.099 0.987303 345.64 10.4891 331.409C25.1599 309.685 33.0737 284.104 33.2335 257.891C33.8171 225.419 26.3952 193.395 23.4624 161.058C22.3693 149.735 22.0992 138.347 22.6544 126.985C37.1689 121.134 54.9604 121.388 70.6421 124.935C79.9793 127.045 89.3913 130.202 96.5588 136.562C110.565 148.997 112.42 170.246 109.831 188.801C107.243 207.357 101.212 225.778 103.188 244.408C103.906 251.142 105.672 257.801 105.477 264.565C104.863 285.858 85.2763 306.12 93.1022 325.917C133.952 330.137 204.026 346.373 210.58 395.695C212.226 407.95 209.952 420.355 207.737 432.506Z" fill="url(#paint0_linear)"/>
<path d="M285.458 459.965C278.261 460.758 271.078 461.851 263.926 463.123C254.035 464.888 244.189 467.013 234.343 469.258L222.671 471.937C217.359 473.164 212.047 474.391 206.735 475.573C201.423 476.755 196.052 477.922 190.71 478.985C184.994 480.122 179.263 481.169 173.517 482.067C160.445 484.15 147.219 485.122 133.983 484.97C99.3129 464.963 54.677 436.951 49.7839 422.465C41.9132 399.451 54.9164 385.699 63.8047 375.134C64.2037 374.675 64.5927 374.211 64.9718 373.742C73.8302 362.983 116.237 361.083 132.681 361.083C140.163 361.083 151.745 366.275 162.234 371.962C174.863 378.815 185.817 386.372 185.817 386.372L210.297 401.336L283.169 445.869L285.458 459.965Z" fill="#68E1FD"/>
<path d="M263.926 463.123C254.035 464.888 244.189 467.013 234.343 469.258L222.672 471.936C217.36 473.163 212.048 474.391 206.736 475.573C198.82 471.936 190.83 468.435 183.094 464.35C170.742 457.839 158.942 450.332 147.81 441.904C143.65 438.746 139.475 435.334 136.902 430.785C133.191 424.246 133.265 416.15 135.031 408.833C135.54 407.55 135.54 406.121 135.031 404.838C134.44 404.026 133.623 403.406 132.682 403.057C126.511 399.973 120.683 396.246 115.294 391.939C113.239 390.541 111.67 388.537 110.805 386.207C109.518 381.434 113.978 377.124 118.287 374.67C127.265 367.951 142.573 365.258 153.152 368.789C156.145 369.792 159.242 370.854 162.369 371.991C173.547 376.077 185.174 381.06 194.645 387.255C200.465 391.267 205.737 396.02 210.327 401.396C213.544 405.002 216.597 408.773 219.619 412.529L238.967 436.561C242.513 440.811 245.072 445.54 248.23 449.954C250.803 453.576 255.307 456.075 258.809 458.843C260.529 460.145 262.295 461.581 263.926 463.123Z" fill="url(#paint1_linear)"/>
<path opacity="0.23" d="M562.76 431.429C547.931 449.386 514.158 457.002 492.431 462.539C483.246 464.873 473.94 466.701 464.555 468.016C447.55 470.386 430.35 471.033 413.215 469.946C389.348 468.45 365.751 463.497 342.019 460.624C331.66 459.302 321.233 458.593 310.79 458.499C303.178 458.5 295.571 458.899 288.001 459.696C270.045 461.506 252.164 465.218 234.357 469.258L222.686 471.936V0C229.888 0 237.08 0.224459 244.263 0.673381C297.892 4.39943 349.965 23.4487 403.758 23.3439C453.452 23.2392 504.971 13.0487 533.94 63.5224C556.056 102.115 558.181 148.653 556.535 193.036C554.889 237.42 550.116 282.566 560.365 325.783C563.882 340.642 569.164 355.097 572.336 369.986C572.98 372.979 573.533 376.062 573.982 379.129C576.616 397.311 574.476 417.288 562.76 431.429Z" fill="#68E1FD"/>
<path d="M284.979 71.7826L295.169 67.443L479.788 78.8456V370.36H460.5L284.979 71.7826Z" fill="#68E1FD"/>
<path opacity="0.23" d="M464.539 468.016C447.535 470.386 430.334 471.033 413.2 469.946C389.333 468.45 365.736 463.497 342.004 460.624C331.645 459.302 321.217 458.593 310.775 458.499C303.163 458.5 295.556 458.899 287.986 459.696C272.783 454.892 258.612 447.964 248.138 436.187C232.471 418.575 228.446 393.689 226.666 370.181C221.985 307.484 228.713 244.458 246.522 184.163C247.33 180.664 248.82 177.358 250.906 174.436C256.533 167.582 267.815 167.837 274.997 173.029C282.18 178.222 285.966 186.916 288.24 195.475C293.148 214.031 290.395 237.45 273.681 246.862C282.404 259.791 271.765 280.711 283.063 291.455C286.474 294.702 291.173 296.109 295.348 298.264C308.097 304.863 315.878 318.66 318.706 332.681C321.534 346.702 320.097 361.307 318.616 375.598C318.197 379.578 317.838 383.858 319.813 387.33C322.042 391.25 326.591 393.091 330.826 394.587C356.054 403.431 382.36 409.252 406.84 420.026C428.163 429.364 452.09 444.388 463.372 465.652C463.806 466.475 464.195 467.238 464.539 468.016Z" fill="#68E1FD"/>
<path d="M301.648 88.7667V269.084L440.12 334.028L445.043 103.671L301.648 88.7667Z" fill="white"/>
<path opacity="0.23" d="M404.343 230.581C404.39 230.206 404.294 229.826 404.073 229.519C403.938 229.398 403.779 229.306 403.606 229.249C403.434 229.193 403.251 229.172 403.071 229.19C401.857 229.177 400.662 229.49 399.609 230.095C398.557 230.701 397.686 231.576 397.085 232.631C399.06 234.128 400.766 236.327 400.407 238.752C400.048 241.176 396.696 242.882 395.02 241.101C394.108 240.113 393.958 238.467 392.806 237.794C392.481 237.661 392.133 237.594 391.782 237.598C391.431 237.602 391.085 237.675 390.763 237.815C390.441 237.954 390.15 238.156 389.907 238.41C389.664 238.663 389.475 238.963 389.349 239.29C388.925 240.655 388.889 242.111 389.244 243.495C390.712 243.545 392.152 243.906 393.47 244.553C394.788 245.2 395.954 246.12 396.891 247.251C396.021 247.829 395.015 248.17 393.973 248.239C392.92 248.314 391.937 248.797 391.235 249.586C390.636 250.439 391.025 251.965 392.072 252.025C392.402 251.607 392.821 251.27 393.299 251.038C393.777 250.807 394.302 250.686 394.833 250.686C395.365 250.686 395.889 250.807 396.367 251.038C396.845 251.27 397.265 251.607 397.594 252.025C397.205 253.895 395.409 255.017 394.212 256.514C393.015 258.01 392.716 260.779 394.556 261.392C396.033 260.378 397.149 258.921 397.744 257.232H400.377C401.14 258.818 400.377 260.674 399.943 262.35C399.509 264.026 399.36 266.211 400.796 267.198C402.233 268.186 404.013 267.453 405.51 266.734C404.783 265.411 404.49 263.893 404.672 262.395C405.031 260.898 406.782 259.746 408.053 260.539C409.325 261.332 409.161 262.993 409.116 264.4C409.071 265.807 409.684 267.632 411.091 267.587C412.498 267.542 413.021 265.567 412.587 264.22C412.153 262.874 411.091 261.677 411.091 260.24C411.979 259.913 412.931 259.801 413.871 259.913C414.81 260.026 415.709 260.359 416.495 260.886C417.28 261.413 417.93 262.119 418.39 262.946C418.85 263.773 419.107 264.697 419.141 265.642C420.033 264.725 420.579 263.529 420.688 262.255C420.797 260.981 420.462 259.709 419.74 258.654C419.29 258.153 418.916 257.588 418.633 256.978C418.499 256.251 418.655 255.5 419.065 254.886C419.476 254.271 420.11 253.841 420.832 253.686C422.298 253.448 423.8 253.602 425.187 254.135C425.83 252.638 424.453 250.992 422.897 250.678C421.309 250.52 419.71 250.838 418.303 251.591C418.303 250.094 420.039 249.256 421.371 248.508C422.703 247.76 423.945 245.874 422.792 244.872C421.64 243.869 419.904 245.396 419.231 246.817C418.558 248.239 417.376 250.019 415.894 249.481C414.398 248.658 415.311 246.264 416.613 245.096C417.914 243.929 419.605 242.328 418.797 240.757C418.139 239.919 416.762 240.517 416.029 241.295C415.296 242.074 414.458 243.076 413.395 242.882C412.333 242.687 411.899 241.146 412.303 240.083C412.851 239.069 413.558 238.15 414.398 237.36C414.811 236.957 415.098 236.443 415.226 235.88C415.353 235.317 415.315 234.729 415.116 234.188C414.785 233.924 414.401 233.733 413.99 233.629C413.579 233.525 413.151 233.509 412.734 233.583C412.317 233.656 411.92 233.817 411.569 234.056C411.219 234.294 410.923 234.604 410.702 234.966C410.36 236.073 410.095 237.203 409.909 238.348C409.52 239.455 408.038 240.353 407.245 239.5C406.662 238.886 406.826 236.612 406.782 235.938C406.258 236.612 405.42 237.21 404.971 237.749C403.759 236.133 404.343 232.901 404.343 230.581Z" fill="#68E1FD"/>
<path opacity="0.46" d="M410.703 153.905C410.731 153.643 410.668 153.378 410.523 153.157C410.411 153.079 410.284 153.024 410.151 152.996C410.017 152.967 409.879 152.966 409.745 152.993C408.904 152.99 408.078 153.21 407.349 153.631C406.621 154.051 406.018 154.657 405.6 155.387C406.328 155.83 406.927 156.458 407.334 157.207C407.741 157.956 407.943 158.799 407.919 159.652C407.68 161.342 405.331 162.54 404.163 161.298C403.52 160.609 403.43 159.457 402.667 158.993C402.44 158.9 402.196 158.853 401.95 158.856C401.704 158.859 401.461 158.912 401.236 159.011C401.011 159.11 400.809 159.254 400.641 159.434C400.472 159.613 400.342 159.825 400.258 160.056C399.969 161.032 399.969 162.072 400.258 163.048C401.28 163.085 402.283 163.337 403.201 163.788C404.12 164.239 404.932 164.88 405.585 165.667C404.974 166.072 404.267 166.309 403.535 166.355C402.804 166.413 402.123 166.751 401.635 167.298C401.216 167.897 401.485 168.944 402.218 169.004C402.446 168.712 402.738 168.475 403.071 168.313C403.404 168.15 403.77 168.066 404.141 168.066C404.512 168.066 404.878 168.15 405.211 168.313C405.544 168.475 405.836 168.712 406.064 169.004C405.795 170.306 404.568 171.129 403.715 172.161C402.862 173.194 402.697 175.154 403.954 175.558C404.979 174.854 405.754 173.843 406.169 172.67H408.009C408.334 173.855 408.228 175.117 407.71 176.232C407.366 177.414 407.291 178.91 408.293 179.614C408.822 179.845 409.401 179.937 409.975 179.879C410.549 179.822 411.099 179.617 411.57 179.284C411.076 178.37 410.877 177.324 411.002 176.292C411.241 175.274 412.498 174.451 413.351 175.005C414.204 175.558 414.114 176.711 414.099 177.683C414.084 178.656 414.488 179.943 415.476 179.913C416.463 179.883 416.808 178.506 416.478 177.564C415.976 176.705 415.617 175.77 415.416 174.795C416.034 174.554 416.7 174.466 417.36 174.537C418.019 174.609 418.651 174.84 419.202 175.209C419.753 175.577 420.207 176.074 420.525 176.656C420.842 177.238 421.015 177.888 421.027 178.551C421.649 177.914 422.031 177.081 422.107 176.194C422.184 175.308 421.95 174.422 421.446 173.688C421.133 173.338 420.871 172.945 420.668 172.521C420.574 172.02 420.677 171.502 420.956 171.075C421.235 170.648 421.668 170.346 422.164 170.231C423.172 170.058 424.208 170.167 425.157 170.545C425.606 169.528 424.648 168.346 423.571 168.121C422.464 168.022 421.352 168.246 420.369 168.765C420.369 167.702 421.566 167.134 422.509 166.625C423.451 166.116 424.304 164.784 423.496 164.081C422.688 163.378 421.491 164.44 421.012 165.428C420.533 166.415 419.711 167.672 418.693 167.298C417.675 166.924 418.289 165.054 419.187 164.305C420.085 163.557 421.252 162.375 420.683 161.313C420.219 160.729 419.187 161.148 418.753 161.687C418.319 162.225 417.661 162.929 416.912 162.794C416.164 162.659 415.85 161.597 416.149 160.849C416.55 160.144 417.054 159.503 417.646 158.948C417.871 158.794 418.056 158.585 418.182 158.342C418.308 158.099 418.372 157.829 418.368 157.555C418.364 157.281 418.293 157.013 418.16 156.773C418.028 156.534 417.838 156.331 417.608 156.182C417.378 156.034 417.115 155.944 416.842 155.922C416.569 155.9 416.295 155.946 416.044 156.055C415.793 156.164 415.573 156.334 415.403 156.549C415.233 156.764 415.12 157.018 415.072 157.287C414.833 158.062 414.648 158.852 414.518 159.652C414.249 160.415 413.216 161.043 412.663 160.445C412.109 159.846 412.378 158.439 412.334 157.961C411.974 158.424 411.391 158.843 411.077 159.233C410.313 157.781 410.703 155.521 410.703 153.905Z" fill="#68E1FD"/>
<path opacity="0.46" d="M350.116 106.2C350.142 105.942 350.079 105.683 349.936 105.467C349.838 105.382 349.724 105.318 349.6 105.28C349.477 105.241 349.347 105.228 349.218 105.242C348.377 105.239 347.551 105.46 346.822 105.88C346.094 106.301 345.491 106.907 345.073 107.636C345.803 108.077 346.403 108.705 346.811 109.454C347.219 110.204 347.419 111.048 347.392 111.901C347.153 113.577 344.804 114.774 343.636 113.532C342.993 112.859 342.903 111.707 342.14 111.228C341.911 111.139 341.667 111.096 341.422 111.102C341.176 111.108 340.935 111.163 340.711 111.263C340.487 111.364 340.285 111.507 340.116 111.686C339.948 111.865 339.817 112.075 339.731 112.305C339.425 113.276 339.399 114.313 339.656 115.298C340.678 115.332 341.68 115.581 342.598 116.03C343.516 116.478 344.329 117.116 344.983 117.902C344.382 118.317 343.678 118.561 342.948 118.605C342.219 118.657 341.537 118.989 341.048 119.533C340.629 120.131 340.898 121.194 341.631 121.239C341.861 120.949 342.153 120.715 342.486 120.554C342.819 120.393 343.184 120.309 343.554 120.309C343.924 120.309 344.289 120.393 344.622 120.554C344.955 120.715 345.247 120.949 345.477 121.239C345.208 122.556 343.981 123.364 343.128 124.411C342.275 125.459 342.11 127.404 343.367 127.808C344.39 127.095 345.164 126.08 345.582 124.905H347.422C347.747 126.095 347.641 127.362 347.123 128.481C346.779 129.649 346.704 131.16 347.707 131.848C348.234 132.079 348.812 132.172 349.386 132.117C349.959 132.062 350.509 131.861 350.984 131.534C350.493 130.618 350.294 129.573 350.415 128.541C350.654 127.524 351.911 126.701 352.764 127.254C353.617 127.808 353.527 128.975 353.512 129.948C353.497 130.92 353.901 132.192 354.889 132.177C355.877 132.162 356.221 130.681 355.892 129.813C355.384 128.957 355.025 128.021 354.829 127.045C355.447 126.807 356.113 126.722 356.771 126.795C357.428 126.869 358.059 127.099 358.609 127.467C359.159 127.836 359.612 128.331 359.931 128.911C360.25 129.491 360.425 130.139 360.44 130.801C361.062 130.164 361.444 129.331 361.52 128.444C361.597 127.557 361.363 126.671 360.859 125.937C360.546 125.592 360.284 125.204 360.081 124.785C359.987 124.282 360.089 123.762 360.368 123.333C360.647 122.904 361.08 122.599 361.578 122.481C362.586 122.324 363.617 122.432 364.57 122.795C365.019 121.777 364.062 120.595 362.984 120.386C361.876 120.271 360.76 120.496 359.782 121.029C359.782 119.967 360.979 119.398 361.922 118.874C362.864 118.351 363.717 117.049 362.909 116.345C362.101 115.642 360.904 116.705 360.425 117.692C359.947 118.68 359.124 119.937 358.106 119.548C357.089 119.159 357.702 117.303 358.6 116.555C359.498 115.807 360.665 114.625 360.096 113.562C359.632 112.979 358.6 113.398 358.166 113.936C357.732 114.475 357.059 115.178 356.325 115.044C355.592 114.909 355.263 113.832 355.562 113.083C355.963 112.383 356.468 111.747 357.059 111.198C357.341 110.913 357.539 110.554 357.629 110.163C357.719 109.772 357.697 109.363 357.567 108.983C357.337 108.797 357.069 108.663 356.782 108.589C356.495 108.515 356.196 108.503 355.904 108.554C355.612 108.605 355.335 108.717 355.09 108.884C354.845 109.051 354.639 109.269 354.485 109.522C354.246 110.296 354.061 111.086 353.931 111.886C353.662 112.649 352.629 113.278 352.076 112.694C351.522 112.111 351.792 110.674 351.747 110.195C351.388 110.674 350.804 111.093 350.49 111.467C349.727 110.076 350.116 107.816 350.116 106.2Z" fill="#68E1FD"/>
<path opacity="0.25" d="M353.078 232.422C353.402 232.164 353.621 231.797 353.692 231.389C353.678 231.184 353.621 230.983 353.526 230.8C353.431 230.617 353.299 230.456 353.138 230.327C352.185 229.382 351 228.707 349.702 228.368C348.404 228.029 347.039 228.039 345.746 228.396C346.18 231.09 345.746 234.217 343.591 235.878C341.437 237.539 337.412 236.253 337.486 233.529C337.486 232.033 338.698 230.611 338.309 229.175C337.983 228.457 337.386 227.897 336.649 227.617C335.912 227.337 335.095 227.359 334.374 227.678C332.964 228.421 331.792 229.547 330.992 230.925C332.123 232.114 332.987 233.529 333.529 235.077C334.071 236.625 334.277 238.27 334.135 239.904C332.988 239.688 331.919 239.172 331.037 238.407C330.143 237.637 328.982 237.25 327.805 237.33C326.668 237.554 325.8 239.051 326.563 239.919C327.151 239.848 327.747 239.91 328.307 240.102C328.867 240.293 329.376 240.608 329.798 241.024C330.219 241.44 330.541 241.945 330.74 242.502C330.939 243.06 331.01 243.655 330.947 244.243C329.167 245.426 326.832 244.962 324.708 245.216C322.583 245.47 320.219 247.446 321.176 249.346C323.139 249.691 325.16 249.408 326.952 248.538L329.017 250.633C328.374 252.474 326.369 253.401 324.663 254.359C322.957 255.317 321.191 256.948 321.55 258.848C321.909 260.749 323.915 261.557 325.65 262.155C326.105 260.537 327.065 259.106 328.389 258.07C329.885 257.172 332.129 257.606 332.519 259.237C332.908 260.868 331.471 262.051 330.349 263.128C329.227 264.205 328.284 266.121 329.421 267.198C330.558 268.276 332.533 267.093 333.192 265.702C333.85 264.31 334 262.5 335.092 261.362C336.068 261.777 336.929 262.423 337.601 263.244C338.272 264.065 338.735 265.036 338.948 266.075C339.161 267.114 339.119 268.19 338.826 269.209C338.532 270.228 337.995 271.161 337.262 271.927C338.693 271.908 340.074 271.391 341.166 270.466C342.258 269.54 342.994 268.263 343.247 266.854C343.28 266.109 343.421 265.373 343.666 264.669C344.129 263.987 344.839 263.512 345.647 263.344C346.454 263.177 347.295 263.33 347.991 263.771C349.342 264.723 350.412 266.02 351.088 267.527C352.734 266.884 352.974 264.535 351.986 263.038C350.845 261.674 349.324 260.679 347.617 260.18C348.799 258.953 350.819 259.671 352.465 260.18C354.111 260.689 356.565 260.18 356.43 258.399C356.295 256.619 353.737 256.559 352.091 257.157C350.445 257.756 348.11 258.25 347.362 256.664C346.764 254.808 349.412 253.671 351.357 253.746C353.303 253.82 355.847 253.865 356.475 252.01C356.61 250.828 354.979 250.229 353.856 250.274C352.734 250.319 351.223 250.453 350.535 249.481C349.846 248.508 350.684 246.907 351.851 246.398C353.08 246.035 354.356 245.859 355.637 245.874C356.268 245.863 356.883 245.675 357.412 245.331C357.942 244.987 358.363 244.501 358.63 243.929C358.578 243.459 358.426 243.006 358.184 242.6C357.942 242.195 357.615 241.846 357.226 241.577C356.838 241.309 356.395 241.128 355.93 241.045C355.465 240.963 354.987 240.982 354.53 241.101C353.288 241.49 352.42 242.597 351.253 243.166C350.086 243.735 348.26 243.286 348.26 241.984C348.26 241.041 350.19 239.38 350.684 238.796C349.741 238.931 348.619 238.796 347.826 238.796C348.29 236.402 351.253 234.262 353.078 232.422Z" fill="#68E1FD"/>
<path opacity="0.39" d="M342.617 162.121C342.617 162.121 312.481 231.479 332.981 283.778L308.74 272.406C308.74 272.406 320.112 188.607 309.773 168.391L320.322 202.284L329.3 146.229L325.649 194.637C325.649 194.637 334.537 170.426 342.617 162.121Z" fill="#68E1FD"/>
<path opacity="0.23" d="M377.154 126.79C378.785 127.688 380.82 127.808 382.286 128.975C385.982 131.968 383.229 138.447 386.102 142.188C387.314 143.685 389.274 144.493 390.801 145.735C392.383 147.063 393.432 148.917 393.756 150.956C394.081 152.996 393.658 155.084 392.566 156.837C391.474 158.59 389.786 159.89 387.812 160.497C385.838 161.105 383.711 160.98 381.823 160.145C378.216 158.484 374.67 154.279 371.228 156.24C369.852 157.033 369.104 158.649 367.742 159.457C365.662 160.729 363.028 159.741 360.679 159.113C356.764 158.118 352.655 158.189 348.777 159.317C344.898 160.446 341.393 162.592 338.623 165.532L331.905 166.31L331.291 173.044C329.49 171.606 327.296 170.745 324.997 170.574C322.699 170.403 320.402 170.93 318.408 172.087L309.818 168.39C310.24 170.509 309.918 172.708 308.907 174.616C307.895 176.524 306.257 178.025 304.267 178.865C302.223 179.598 299.994 179.637 297.926 178.977C295.857 178.317 294.063 176.995 292.82 175.214C290.7 146.149 291.005 116.958 293.733 87.9437C305.12 86.5221 320.577 84.3973 331.71 88.0634C339.356 90.5924 341.317 95.6502 346.359 101.112C353.138 108.474 359.557 105.945 366.829 110.315C372.919 114.086 370.974 123.409 377.154 126.79Z" fill="#68E1FD"/>
<path d="M342.005 460.623C331.646 459.302 321.218 458.593 310.776 458.499C284.934 458.499 259.616 463.512 234.343 469.258C230.512 467.417 226.592 465.502 222.671 463.542C206.915 455.655 191.353 447.081 183.631 440.497C164.643 424.366 173.157 399.555 173.157 399.555L222.701 402.802L269.596 405.885C269.596 405.885 308.92 412.035 319.365 423.423C325.141 429.723 335.002 446.288 342.005 460.623Z" fill="#080608"/>
<path d="M270.478 295.63L265.989 270.61C265.482 267.166 264.645 263.778 263.49 260.494C260.742 254.027 256.152 248.51 250.292 244.632C244.454 240.789 238.174 237.664 231.588 235.325C222.939 231.958 212.135 236.178 203.053 238.168C195.002 239.934 186.593 241.849 180.144 246.892C173.335 252.174 169.325 260.36 167.155 268.71C164.986 277.06 164.447 285.709 163.265 294.253C161.662 305.718 158.895 316.989 155.005 327.892C153.793 331.244 152.476 334.716 152.775 338.263C153.075 341.809 155.035 345.131 156.935 348.229L170.402 370.121C163.325 378.516 164.686 392.657 173.216 399.555C180.218 405.212 189.915 405.706 198.893 405.96L259.525 407.651C263.011 407.756 266.737 407.786 269.655 405.87C274.144 402.877 274.877 396.577 274.698 391.146C274.424 382.646 273.173 374.205 270.972 365.991C270.433 363.941 269.819 361.726 270.613 359.751C271.475 358.164 272.713 356.813 274.219 355.815C278.598 352.14 282.063 347.498 284.343 342.255C286.623 337.013 287.655 331.312 287.357 325.603C286.608 314.215 280.099 301.75 270.478 295.63Z" fill="#68E1FD"/>
<path d="M198.236 306.449C200.476 294.645 199.751 282.469 196.126 271.014C197.056 280.962 197.281 290.963 196.799 300.942C196.575 305.536 196.141 310.325 193.807 314.29C192.648 310.617 190.765 307.213 188.27 304.279C188.73 307.98 188.502 311.734 187.597 315.353C187.123 317.157 186.258 318.835 185.063 320.267C183.868 321.7 182.373 322.852 180.684 323.643C182.18 325.753 184.858 326.531 187.223 327.563C189.587 328.596 192.071 330.436 192.071 333.025C192.071 334.237 191.502 335.524 192.071 336.601C193.073 338.547 196.006 337.484 197.772 336.197C201.483 333.504 218.855 324.361 215.728 318.854C212.601 313.347 201.124 320.994 197.293 322.012C195.288 317.313 197.338 311.178 198.236 306.449Z" fill="url(#paint2_linear)"/>
<path d="M197.651 371.258L172.214 370.001C171.613 369.93 171.004 369.997 170.433 370.196C168.533 371.064 169.116 374.101 167.68 375.598C178.154 374.88 188.254 378.426 198.07 381.958C201.273 383.11 205.028 384.232 207.931 382.436C208.853 381.666 209.857 380.998 210.924 380.446C212.6 380.119 214.338 380.44 215.787 381.344C224.816 385.623 233.616 390.368 242.153 395.56C242.646 395.97 243.224 396.264 243.845 396.422C244.466 396.58 245.115 396.597 245.744 396.473C246.432 396.135 247.016 395.618 247.435 394.976L254.587 385.878C254.825 385.611 254.999 385.294 255.096 384.95C255.216 384.232 254.647 383.604 254.138 383.11C247.03 376.243 240.578 368.729 234.866 360.664C230.197 354.05 225.154 346.463 217.194 344.922C212.061 343.934 200.48 346.642 197.636 351.685C196.799 353.047 198.953 371.318 197.651 371.258Z" fill="url(#paint3_linear)"/>
<path d="M271.018 179.928C271.721 196.388 268.175 213.088 272.125 229.04L263.147 229.893C262.968 231.454 262.968 233.03 263.147 234.592C257.99 234.861 252.828 234.926 247.66 234.786C249.785 234.786 253.436 215.512 253.87 213.313C255.366 205.831 256.324 198.244 257.656 190.717C258.838 184.073 259.631 174.735 263.222 168.884C268.579 160.25 270.883 176.621 271.018 179.928Z" fill="#32406A"/>
<path d="M267.202 202.733C268.01 204.499 269.147 206.279 268.937 208.21C268.548 211.622 264.448 213.028 262.039 215.452C257.894 219.553 258.538 226.795 254.558 231.09C253.373 232.253 251.97 233.169 250.429 233.786C248.887 234.402 247.239 234.707 245.58 234.681C242.241 234.601 238.929 234.067 235.734 233.095C233.04 235.28 233.25 239.365 233.758 242.792C234.267 246.219 234.641 250.274 232.083 252.608C229.165 255.287 224.406 253.88 221.144 251.636C215.249 247.565 211.119 241.37 208.276 234.801C205.662 228.144 203.532 221.308 201.901 214.345C198.774 202.733 195.063 190.208 199.492 179.03C202.859 170.515 210.7 164.23 219.379 161.298C228.057 158.365 237.529 158.454 246.582 159.966C253.331 161.088 265.197 164.275 266.902 172.191C269.087 182.337 262.533 192.617 267.202 202.733Z" fill="#FDC0AD"/>
<path d="M235.839 186.003C234.168 185.951 232.52 186.405 231.111 187.305C230.384 188.026 229.836 188.908 229.51 189.879C223.025 205.453 221.555 222.662 225.305 239.111C221.305 237.922 217.447 236.301 213.798 234.277C214.726 236.043 211.928 237.689 210.057 237.001C208.187 236.312 206.915 234.517 205.089 233.724C203.962 233.311 202.784 233.054 201.588 232.96C196.013 232.149 190.827 229.629 186.744 225.748C185.727 215.692 179.966 206.773 177.407 196.987C176.077 191.4 175.438 185.671 175.507 179.928C175.299 175.7 175.769 171.467 176.898 167.388C178.544 162.21 181.926 157.781 185.263 153.486C187.318 150.566 189.77 147.947 192.55 145.705C195.583 143.629 198.995 142.17 202.591 141.41C214.741 138.418 227.594 140.049 239.67 143.326C247.301 145.391 254.948 148.249 260.903 153.441C266.859 158.634 270.884 166.625 269.627 174.391C268.055 170.143 264.918 166.658 260.858 164.65C255.142 162.195 256.444 167.298 254.873 171.294C253.3 175.22 250.706 178.654 247.359 181.241C244.013 183.827 240.035 185.471 235.839 186.003Z" fill="#32406A"/>
<path d="M284.979 71.7676V288.028L460.5 370.33L467.024 86.7616L284.979 71.7676ZM440.119 334.058L301.648 269.114V88.7667L445.042 103.731L440.119 334.058Z" fill="#68E1FD"/>
<path d="M284.979 71.7676V288.028L460.5 370.33L467.024 86.7616L284.979 71.7676ZM440.119 334.058L301.648 269.114V88.7667L445.042 103.731L440.119 334.058Z" fill="url(#paint4_linear)"/>
<path d="M278.41 296.318C268.505 299.929 259.082 304.743 250.353 310.654C243.151 302.902 233.474 297.902 222.985 296.513L221.653 299.76C220.699 299.49 219.832 298.974 219.139 298.264C217.417 300.354 215.913 302.616 214.65 305.012C220.152 311.211 224.16 318.587 226.367 326.576C226.722 328.37 227.358 330.097 228.252 331.693C228.715 332.485 229.391 333.131 230.204 333.557C231.016 333.983 231.931 334.172 232.846 334.102C233.693 333.912 234.495 333.562 235.21 333.07C245.894 326.755 256.777 320.77 267.86 315.113C272.349 312.824 280.519 310.624 283.901 306.943C284.588 306.303 285.042 305.452 285.191 304.525C285.34 303.598 285.176 302.648 284.724 301.825C282.884 298.503 280.744 300.837 277.991 301.72C278.065 300.014 278.245 298.144 278.41 296.318Z" fill="white"/>
<path d="M211.524 303.097C208.424 323.249 206.778 343.598 206.601 363.986C206.418 365.549 206.76 367.128 207.573 368.475C208.676 369.573 210.093 370.3 211.628 370.555C227.484 374.849 242.489 381.823 255.995 391.175C260.249 381.658 267.726 373.947 277.108 369.403C278.687 368.83 280.107 367.891 281.253 366.664C282.13 365.294 282.645 363.724 282.75 362.1C285.593 341.959 288.431 321.812 291.264 301.66C291.264 302.214 270.719 309.337 268.534 310.519C263.058 313.512 254.155 322.864 247.586 322.49C242.124 322.131 239.655 315.876 235.51 312.794C228.687 307.631 219.709 304.563 211.524 303.097Z" fill="#F05E5F"/>
<path d="M208.066 322.46C209.368 323.269 208.171 325.453 208.725 326.845C208.967 327.348 209.345 327.773 209.817 328.072C212.615 330.062 216.371 329.838 219.618 330.915C220.815 331.304 222.162 332.412 221.743 333.549C221.567 333.871 221.325 334.153 221.034 334.378C220.743 334.602 220.409 334.763 220.052 334.851L215.772 336.572H221.024C221.818 336.572 222.835 336.766 222.97 337.529C223.104 338.292 222.371 338.741 221.743 339.026C219.962 339.953 218.122 340.806 216.266 341.585C217.676 341.42 219.097 341.36 220.516 341.405C221.294 341.405 222.326 341.719 222.326 342.512C222.326 343.305 221.668 343.485 221.114 343.724L210.011 348.468C204.834 350.683 199.537 352.957 193.986 353.556C193.585 353.655 193.165 353.64 192.774 353.511C192.317 353.213 191.983 352.762 191.831 352.239C190.647 349.282 190.023 346.131 189.99 342.946C189.934 342.356 190.053 341.762 190.334 341.24C190.699 340.805 191.16 340.462 191.681 340.238C193.678 339.122 195.321 337.468 196.425 335.464C197.921 332.726 198.49 329.613 200.51 327.129C202.53 324.645 205.298 323.583 208.066 322.46Z" fill="#FDC0AD"/>
<path d="M278.545 325.917C277.707 326.127 276.675 326.74 276.929 327.563C277.079 328.042 277.618 328.281 278.082 328.446L283.947 330.616C281.739 330.442 279.517 330.701 277.408 331.379C277.079 331.484 276.705 331.663 276.69 331.992C276.675 332.322 277.019 332.576 277.333 332.726L283.214 335.599C281.469 335.491 279.729 335.869 278.186 336.691C277.857 336.871 277.498 337.14 277.498 337.514C277.498 337.888 277.797 338.113 278.082 338.307C279.234 339.114 280.48 339.777 281.792 340.283C281.107 340.188 280.409 340.281 279.772 340.552C279.621 340.628 279.485 340.734 279.375 340.862C279.264 340.991 279.18 341.14 279.127 341.301C279.074 341.463 279.053 341.633 279.067 341.802C279.08 341.972 279.126 342.137 279.204 342.288C279.352 342.487 279.547 342.647 279.772 342.752L284.635 345.744C284.881 345.95 285.172 346.094 285.484 346.167C285.795 346.24 286.12 346.239 286.431 346.163C287.119 345.894 287.284 345.011 287.359 344.278C287.449 343.141 287.523 342.003 287.568 340.866C287.56 339.924 287.666 338.985 287.883 338.068C288.242 337.104 288.651 336.16 289.11 335.24C290.157 332.666 289.947 328.341 287.778 326.261C285.608 324.181 281.059 325.289 278.545 325.917Z" fill="#FDC0AD"/>
<path d="M364.719 95.321V301.586L376.001 309.262V95.321H364.719Z" fill="#68E1FD"/>
<path d="M442.409 213.417L301.648 179.898V166.385L442.724 199.995L442.409 213.417Z" fill="#68E1FD"/>
<path d="M442.724 199.995L442.409 213.417L376.002 197.6V309.262L364.719 301.586V194.922L301.648 179.898V166.385L364.719 181.409V95.321H376.002V184.088L442.724 199.995Z" fill="url(#paint5_linear)"/>
<path d="M190.71 478.985C184.994 480.122 179.263 481.169 173.517 482.067C160.445 484.15 147.219 485.122 133.983 484.97C99.3129 464.963 54.677 436.951 49.7839 422.465C41.9132 399.451 54.9164 385.699 63.8047 375.134C64.874 387.681 70.7304 399.335 80.1597 407.681C98.8939 424.575 165.017 463.916 190.71 478.985Z" fill="url(#paint6_linear)"/>
<path opacity="0.23" d="M342.618 93.0315L301.648 166.385L322.133 171.264L363.986 104L364.719 95.321L342.618 93.0315Z" fill="#68E1FD"/>
<path opacity="0.23" d="M421.444 101.217L376 185.285L396.485 190.163L444.667 111.916L445.4 103.252L421.444 101.217Z" fill="#68E1FD"/>
<path opacity="0.23" d="M429.794 208.883L376 305.132L396.485 310.01L442.213 235.744L442.408 213.417L429.794 208.883Z" fill="#68E1FD"/>
<path opacity="0.23" d="M351.926 191.884L301.648 269.084L319.994 277.868L364.54 215.527L364.719 194.922L351.926 191.884Z" fill="#68E1FD"/>
<path opacity="0.36" d="M341.497 239.664C341.152 239.53 340.988 239.156 340.778 238.871C340.424 238.462 339.931 238.201 339.394 238.137C338.857 238.073 338.315 238.212 337.875 238.527C337.456 238.867 337.142 239.318 336.97 239.83C336.797 240.341 336.774 240.891 336.903 241.415C337.052 241.821 337.052 242.266 336.903 242.672C336.774 242.863 336.599 243.017 336.394 243.121C335.81 243.446 335.187 243.692 334.539 243.854C333.975 243.916 333.449 244.163 333.042 244.558C332.823 245.027 332.7 245.536 332.683 246.054C332.606 246.441 332.44 246.804 332.199 247.116C331.957 247.427 331.647 247.679 331.292 247.85C330.843 248.074 330.289 248.164 329.96 248.553C329.769 248.808 329.664 249.117 329.661 249.436C329.659 250.188 329.755 250.938 329.945 251.666C330.036 252.028 330.05 252.407 329.986 252.775C329.921 253.144 329.78 253.495 329.571 253.805C329.242 254.194 328.703 254.628 328.942 255.077C329.033 255.208 329.157 255.311 329.301 255.377C330.272 255.944 331.336 256.334 332.444 256.529C332.863 256.529 333.357 256.708 333.536 257.097C333.604 257.373 333.604 257.66 333.536 257.935C333.518 258.34 333.596 258.743 333.762 259.112C333.929 259.481 334.179 259.806 334.494 260.06C334.635 260.179 334.805 260.257 334.988 260.285C335.676 260.375 336.065 259.312 336.753 259.282C337.033 259.298 337.3 259.403 337.516 259.582C338.376 260.089 339.136 260.748 339.761 261.527C340.09 261.991 340.359 262.544 340.898 262.709C341.371 262.784 341.856 262.683 342.26 262.425C343.023 262.036 343.906 261.512 343.951 260.659C343.92 260.486 343.92 260.308 343.951 260.135C344.026 260.003 344.144 259.901 344.286 259.847C344.428 259.792 344.584 259.788 344.729 259.836C345.012 259.934 345.265 260.104 345.462 260.33C346.031 260.12 346.09 259.327 345.851 258.833C345.525 258.351 345.225 257.852 344.953 257.337C344.851 256.936 344.849 256.515 344.948 256.113C345.048 255.711 345.245 255.34 345.522 255.032C346.084 254.418 346.753 253.911 347.497 253.536C347.807 253.391 348.078 253.176 348.29 252.908C348.452 252.577 348.516 252.208 348.476 251.843C348.437 251.477 348.294 251.13 348.066 250.843C347.595 250.276 347.235 249.626 347.003 248.927C346.949 248.689 346.981 248.44 347.093 248.224C347.213 248.064 347.366 247.931 347.542 247.835L349.188 246.787C349.288 246.735 349.367 246.651 349.412 246.548C349.454 246.442 349.454 246.324 349.412 246.219C348.754 245.066 347.063 244.423 347.093 243.091C347.093 242.298 347.751 241.37 347.183 240.817C346.645 240.458 346.067 240.161 345.462 239.934C345.088 239.709 344.744 239.215 344.355 239.051C343.292 238.437 342.604 239.949 341.497 239.664Z" fill="#68E1FD"/>
<path opacity="0.79" d="M340.913 241.4C340.648 241.299 340.356 241.29 340.085 241.374C339.814 241.458 339.578 241.631 339.417 241.864C339.072 242.283 338.893 242.807 338.579 243.256C337.546 244.752 335.347 245.231 334.314 246.772C333.946 247.342 333.763 248.011 333.79 248.689C333.816 249.367 334.052 250.019 334.464 250.558C334.663 250.839 334.963 251.032 335.302 251.097C335.543 251.059 335.771 250.963 335.967 250.817C336.162 250.671 336.319 250.48 336.424 250.259C337.067 249.316 337.516 248.254 338.145 247.266C338.434 246.771 338.82 246.339 339.28 245.997C339.741 245.655 340.265 245.41 340.823 245.276C342.185 245.051 343.681 245.815 344.878 245.141C346.375 244.333 346.659 241.31 345.177 240.383C344.831 240.216 344.445 240.151 344.063 240.196C343.681 240.241 343.321 240.394 343.023 240.637C342.05 241.355 342.005 241.954 340.913 241.4Z" fill="#68E1FD"/>
<path opacity="0.79" d="M342.587 248.403C342.13 248.593 341.723 248.884 341.397 249.255C341.07 249.626 340.832 250.067 340.701 250.543C340.655 250.872 340.553 251.19 340.402 251.486C340.013 252.099 339.145 252.114 338.412 252.129C337.057 252.173 335.716 252.415 334.432 252.848C334.224 252.888 334.028 252.971 333.855 253.092C333.682 253.213 333.537 253.37 333.429 253.551C333.369 253.724 333.35 253.909 333.373 254.091C333.396 254.272 333.462 254.446 333.564 254.598C334.536 256.244 337.155 256.005 338.382 257.457C338.682 257.879 338.957 258.318 339.205 258.773C339.333 259.001 339.514 259.195 339.733 259.338C339.952 259.481 340.202 259.57 340.462 259.596C341.21 259.596 341.719 258.833 341.958 258.1C342.254 256.877 342.355 255.614 342.258 254.359C342.598 254.532 342.985 254.595 343.363 254.539C343.741 254.482 344.092 254.31 344.367 254.045C344.693 253.672 344.933 253.233 345.071 252.758C345.729 250.708 345.804 247.101 342.587 248.403Z" fill="#68E1FD"/>
<path opacity="0.36" d="M401.096 245.994C401.1 246.893 401.388 247.768 401.919 248.493C402.241 248.892 402.42 249.387 402.427 249.9C402.348 250.218 402.216 250.522 402.038 250.798C401.804 251.283 401.695 251.819 401.722 252.358C401.748 252.896 401.908 253.42 402.188 253.88C402.667 254.643 403.49 255.242 403.684 256.125C403.718 256.483 403.798 256.835 403.924 257.172C404.086 257.386 404.291 257.564 404.525 257.695C404.76 257.826 405.018 257.908 405.285 257.935C406.377 258.267 407.554 258.171 408.577 257.666C408.865 257.405 409.216 257.225 409.595 257.142C409.793 257.163 409.984 257.23 410.151 257.34C410.317 257.449 410.455 257.597 410.553 257.771C410.751 258.118 411.004 258.431 411.301 258.699C411.648 258.895 412.039 259.003 412.438 259.013C412.934 259.087 413.438 259.087 413.934 259.013C414.363 258.904 414.759 258.691 415.086 258.392C415.413 258.094 415.661 257.72 415.809 257.303C415.957 256.885 416 256.438 415.934 256C415.868 255.563 415.695 255.148 415.431 254.793C415.081 254.383 414.684 254.017 414.249 253.701C414.111 253.621 414.001 253.501 413.934 253.356C413.755 252.967 414.099 252.563 414.264 252.174C414.443 251.511 414.363 250.805 414.039 250.199C413.705 249.601 413.545 248.923 413.575 248.239C413.695 247.49 414.308 246.922 414.593 246.219C414.63 246.122 414.63 246.016 414.593 245.919C414.558 245.861 414.51 245.812 414.453 245.775C414.396 245.739 414.331 245.717 414.264 245.71C413.33 245.47 412.38 245.305 411.42 245.216C411.181 245.219 410.95 245.128 410.777 244.962C410.706 244.86 410.665 244.741 410.657 244.617C410.538 243.525 411.211 242.343 409.894 241.744C409.499 241.567 409.071 241.475 408.637 241.475C408.204 241.475 407.776 241.567 407.38 241.744C406.827 242.029 406.423 242.567 405.884 242.762C405.482 242.866 405.059 242.866 404.657 242.762C404.368 242.678 404.062 242.67 403.768 242.738C403.475 242.807 403.204 242.949 402.981 243.151C402.003 243.814 401.326 244.835 401.096 245.994Z" fill="#68E1FD"/>
<path opacity="0.36" d="M404.701 245.261C403.803 246.623 404.836 248.613 403.983 249.99C403.786 250.222 403.629 250.484 403.519 250.768C403.485 251.14 403.574 251.513 403.773 251.83L404.252 252.818C404.432 253.192 404.731 253.626 405.135 253.551C405.257 253.527 405.371 253.47 405.464 253.386C405.843 252.996 406.121 252.52 406.275 251.999C406.429 251.478 406.453 250.927 406.347 250.394C406.135 249.335 406.277 248.236 406.751 247.266C407.349 246.413 408.576 245.964 408.756 244.932C408.795 244.733 408.763 244.526 408.666 244.348C407.948 243.211 405.255 244.468 404.701 245.261Z" fill="#68E1FD"/>
</g>
<defs>
<linearGradient id="paint0_linear" x1="470.54" y1="381.434" x2="-454.009" y2="193.485" gradientUnits="userSpaceOnUse">
<stop offset="0.01"/>
<stop offset="0.13" stop-opacity="0.69"/>
<stop offset="0.25" stop-opacity="0.32"/>
<stop offset="1" stop-opacity="0"/>
</linearGradient>
<linearGradient id="paint1_linear" x1="333.536" y1="337.125" x2="127.261" y2="455.289" gradientUnits="userSpaceOnUse">
<stop offset="0.01"/>
<stop offset="0.13" stop-opacity="0.69"/>
<stop offset="1" stop-opacity="0"/>
</linearGradient>
<linearGradient id="paint2_linear" x1="6611.01" y1="16070.6" x2="4676.9" y2="15591" gradientUnits="userSpaceOnUse">
<stop offset="0.01"/>
<stop offset="0.13" stop-opacity="0.69"/>
<stop offset="1" stop-opacity="0"/>
</linearGradient>
<linearGradient id="paint3_linear" x1="14558.2" y1="11330" x2="14255.5" y2="15013.8" gradientUnits="userSpaceOnUse">
<stop offset="0.01"/>
<stop offset="0.13" stop-opacity="0.69"/>
<stop offset="1" stop-opacity="0"/>
</linearGradient>
<linearGradient id="paint4_linear" x1="56593.4" y1="-32468.6" x2="31618.8" y2="59996.7" gradientUnits="userSpaceOnUse">
<stop offset="0.01"/>
<stop offset="0.13" stop-opacity="0.69"/>
<stop offset="1" stop-opacity="0"/>
</linearGradient>
<linearGradient id="paint5_linear" x1="55519.9" y1="3411.41" x2="18857.1" y2="23519.6" gradientUnits="userSpaceOnUse">
<stop offset="0.01"/>
<stop offset="0.13" stop-opacity="0.69"/>
<stop offset="1" stop-opacity="0"/>
</linearGradient>
<linearGradient id="paint6_linear" x1="6326.35" y1="42213.2" x2="13025" y2="29949.7" gradientUnits="userSpaceOnUse">
<stop offset="0.01"/>
<stop offset="0.13" stop-opacity="0.69"/>
<stop offset="1" stop-opacity="0"/>
</linearGradient>
<clipPath id="clip0">
<rect width="575" height="485" fill="white"/>
</clipPath>
</defs>
</svg>
