<svg id="Capa_1" enable-background="new 0 0 509.904 509.904" height="512" viewBox="0 0 509.904 509.904" width="512" xmlns="http://www.w3.org/2000/svg"><g><g><path d="m500.191 450.588-36.47 26.63c-3.55 2.59-8.54.05-8.54-4.35v-11.31h-430.98v-30.62h430.98v-11.32c0-4.39 4.99-6.93 8.54-4.34l36.47 26.63c2.95 2.14 2.95 6.53 0 8.68z" fill="#6c7fd8"/><path d="m66.131 78.868h-11.31v382.69h-30.62v-382.69h-11.32c-4.39 0-6.93-4.99-4.34-8.54l26.63-36.47c2.14-2.95 6.53-2.95 8.68 0l26.63 36.47c2.59 3.55.05 8.54-4.35 8.54z" fill="#6c7fd8"/><path d="m70.481 70.328-26.63-36.47c-2.15-2.95-6.54-2.95-8.68 0l-3.841 5.26 22.789 31.21c3.054 4.545-1.962 9.771-7.785 8.54-4.349 0-7.875 3.526-7.875 7.875l-.486 336.847c-.006 4.057 3.281 7.349 7.338 7.349h9.509v-352.071h11.31c4.401 0 6.941-4.99 4.351-8.54z" fill="#4f66d0"/><path d="m500.191 441.912-36.47-26.63c-3.55-2.59-8.54-.05-8.54 4.34v10.809c0-3.923 4.455-6.186 7.623-3.873l21.027 15.354c2.95 2.14 2.95 6.53 0 8.68l-21.027 15.354c-3.169 2.314-7.623.051-7.623-3.873v10.799c0 4.4 4.99 6.94 8.54 4.35l36.47-26.63c2.95-2.15 2.95-6.54 0-8.68z" fill="#4f66d0"/><path d="m164.442 316.403-35.706 5.126c-3.287.314-73.915 1.593-73.915 1.593v107.818h400.341v-326.772h-.071c-58.699 103.665-178.873 190.725-290.649 212.235z" fill="#e2f1fe"/><path d="m455.091 104.172c-7.68 13.56-16.41 26.84-26.04 39.72v287.05h26.11v-326.77z" fill="#c4e3ff"/></g><g><path d="m214.749 164.072c2.098 1.646 7.044 2.511 10.504-1.473l18.157-24.08 19.107 25.177c2.38 2.163 5.205 4.561 10.508 1.44 3.299-2.504 3.944-7.208 1.44-10.508l-21.671-28.555 18.262-24.219c2.494-3.308 1.834-8.01-1.473-10.504-3.309-2.495-8.011-1.834-10.504 1.473l-15.709 20.833-15.825-20.852c-2.504-3.299-7.208-3.944-10.508-1.44-3.299 2.504-3.944 7.208-1.44 10.508l18.388 24.23-20.71 27.466c-2.492 3.308-1.833 8.011 1.474 10.504z"/><path d="m136.081 118.078h2.795v52.069c0 4.142 3.358 7.5 7.5 7.5s7.5-3.358 7.5-7.5v-52.069h6.096c4.142 0 7.5-3.358 7.5-7.5s-3.358-7.5-7.5-7.5h-6.096v-13.325c-.124-2.909 1.45-3.282 5.571-2.816 4.02.89 8.01-1.623 8.934-5.641.928-4.037-1.591-8.062-5.628-8.99-1.077-.248-10.732-2.262-17.696 3.283-2.819 2.245-6.18 6.524-6.18 14.164v13.326h-2.795c-4.142 0-7.5 3.358-7.5 7.5s3.357 7.499 7.499 7.499z"/><path d="m194.943 174.375c.64 0 1.29-.083 1.937-.255 4.002-1.067 6.382-5.177 5.315-9.179-10.759-40.356-.43-67.717-.274-68.121 1.521-3.84-.35-8.19-4.188-9.725-3.846-1.539-8.21.334-9.749 4.179-.513 1.284-12.432 31.961-.283 77.531.895 3.355 3.927 5.57 7.242 5.57z"/><path d="m286.092 162.726c-1.067 4.002 1.313 8.112 5.315 9.179 3.065.823 7.592-.685 9.179-5.315 12.149-45.57.23-76.248-.283-77.531-1.538-3.846-5.902-5.717-9.749-4.179-3.846 1.538-5.717 5.903-4.179 9.749.108.268 10.598 27.286-.283 68.097z"/><path d="m504.614 435.851s-40.011-29.612-41.952-29.935v-299.931c2.971-5.312 5.776-10.661 8.414-16.039l5.005 13.565c1.698 2.69 4.199 6.126 9.632 4.44 3.886-1.434 5.874-5.747 4.44-9.632l-10.928-29.617c-1.881-3.047-1.831-7.126-10.071-5.628l-30.805 11.366c-3.886 1.434-5.874 5.747-4.44 9.632 1.433 3.886 5.746 5.875 9.632 4.44l14.079-5.195c-24.506 49.974-65.232 98.956-116.234 139.448-55.695 44.218-119.039 74.857-178.361 86.272-4.067.783-6.73 4.714-5.947 8.782.55 2.835 4.204 6.827 8.782 5.947 107.638-20.713 219.129-99.229 281.802-193.31v292.98h-83.118c-.02 0-.038-.003-.058-.003s-.038.003-.058.003h-109.067c-.02 0-.038-.003-.058-.003s-.038.003-.058.003h-109.068c-.02 0-.038-.003-.058-.003s-.038.003-.058.003h-83.74v-92.952c21.479-.396 64.203-1.212 67.127-1.491 4.124-.394 7.175-4.057 6.782-8.181s-4.024-7.153-8.15-6.757c-2.804.208-38.412.92-65.759 1.426v-229.113h3.81c4.875 0 9.275-2.699 11.484-7.044 2.207-4.341 1.795-9.482-1.077-13.419l-26.626-36.465c-2.417-3.316-6.306-5.295-10.405-5.295-.004 0-.01 0-.014 0-4.1.005-7.984 1.989-10.379 5.29l-26.631 36.472c-2.871 3.935-3.283 9.076-1.076 13.419 2.208 4.343 6.604 7.042 11.474 7.042h3.82v375.19c0 4.142 3.358 7.5 7.5 7.5h114.417v6.613c0 4.142 3.358 7.5 7.5 7.5s7.5-3.358 7.5-7.5v-6.613h94.184v6.613c0 4.142 3.358 7.5 7.5 7.5s7.5-3.358 7.5-7.5v-6.613h94.184v6.613c0 4.142 3.358 7.5 7.5 7.5s7.5-3.358 7.5-7.5v-37.231h83.176c.26 0 .518-.013.772-.039 3.789-.377 6.748-3.574 6.748-7.462v-7.133l30.735 22.442-30.735 22.443v-7.133c0-4.142-3.358-7.5-7.5-7.5h-55.652c-4.142 0-7.5 3.358-7.5 7.5s3.358 7.5 7.5 7.5h48.151v3.81c0 4.875 2.699 9.276 7.044 11.484 1.854.942 3.852 1.407 5.841 1.407 2.67 0 5.322-.838 7.578-2.484l36.464-26.625c3.32-2.42 5.3-6.315 5.296-10.419-.005-4.1-1.989-7.986-5.29-10.38zm-472.913 18.207v-375.19c0-4.142-3.358-7.5-7.5-7.5h-7.132l22.442-30.735 22.443 30.735h-7.133c-4.142 0-7.5 3.358-7.5 7.5v244.254 107.816.001c0 4.142 3.358 7.5 7.5 7.5h83.797v15.618h-106.917zm121.917 0v-15.618h94.184v15.618zm203.368 0h-94.184v-15.618h94.184z"/><path d="m356.986 359.096c0 4.142 3.357 7.5 7.5 7.5s7.5-3.358 7.5-7.5v-.965c0-4.142-3.357-7.5-7.5-7.5s-7.5 3.358-7.5 7.5z"/><path d="m356.986 395.573c0 4.142 3.357 7.5 7.5 7.5s7.5-3.358 7.5-7.5v-.965c0-4.142-3.357-7.5-7.5-7.5s-7.5 3.358-7.5 7.5z"/><path d="m356.986 322.522c0 4.142 3.357 7.5 7.5 7.5s7.5-3.358 7.5-7.5v-.965c0-4.142-3.357-7.5-7.5-7.5s-7.5 3.358-7.5 7.5z"/><path d="m356.986 286.046c0 4.142 3.357 7.5 7.5 7.5s7.5-3.358 7.5-7.5v-.965c0-4.142-3.357-7.5-7.5-7.5s-7.5 3.358-7.5 7.5z"/><path d="m364.486 256.58c4.143 0 7.5-3.358 7.5-7.5v-.965c0-4.142-3.357-7.5-7.5-7.5s-7.5 3.358-7.5 7.5v.965c0 4.142 3.358 7.5 7.5 7.5z"/><path d="m247.802 359.096c0 4.142 3.357 7.5 7.5 7.5s7.5-3.358 7.5-7.5v-.965c0-4.142-3.357-7.5-7.5-7.5s-7.5 3.358-7.5 7.5z"/><path d="m247.802 395.573c0 4.142 3.357 7.5 7.5 7.5s7.5-3.358 7.5-7.5v-.965c0-4.142-3.357-7.5-7.5-7.5s-7.5 3.358-7.5 7.5z"/><path d="m255.302 330.022c4.143 0 7.5-3.358 7.5-7.5v-.965c0-4.142-3.357-7.5-7.5-7.5s-7.5 3.358-7.5 7.5v.965c0 4.142 3.358 7.5 7.5 7.5z"/><path d="m153.619 358.131c0-4.142-3.357-7.5-7.5-7.5s-7.5 3.358-7.5 7.5v.965c0 4.142 3.357 7.5 7.5 7.5s7.5-3.358 7.5-7.5z"/><path d="m146.119 387.107c-4.143 0-7.5 3.358-7.5 7.5v.965c0 4.142 3.357 7.5 7.5 7.5s7.5-3.358 7.5-7.5v-.965c0-4.142-3.358-7.5-7.5-7.5z"/></g></g></svg>