<svg width="472" height="385" viewBox="0 0 472 385" fill="none" xmlns="http://www.w3.org/2000/svg">
<g clip-path="url(#clip0)">
<path opacity="0.1" d="M460.523 223.183C460.523 223.475 460.523 223.768 460.523 224.055C460.472 229.099 460.173 234.13 459.625 239.148C459.628 239.178 459.628 239.209 459.625 239.239C459.582 239.656 459.534 240.068 459.486 240.486C459.404 241.19 459.318 241.89 459.222 242.595C458.102 251.174 456.25 259.641 453.685 267.904C450.249 279.071 445.391 289.75 439.23 299.681C437.335 302.718 435.317 305.657 433.175 308.498C432.032 310.003 430.865 311.475 429.66 312.923C428.814 313.936 427.953 314.934 427.076 315.915L426.529 316.519C421.913 321.578 416.938 326.299 411.642 330.643C402.998 337.796 393.691 344.019 384.236 349.792C383.698 350.122 383.155 350.448 382.613 350.751C382.575 350.778 382.535 350.802 382.493 350.822C369.642 358.58 356.316 365.579 342.587 371.184C327.556 377.335 312.035 381.808 296.111 383.764C273.916 386.488 251.451 384.273 229.39 380.466C211.042 377.318 192.917 372.995 175.126 367.521L172.196 366.605C170.679 366.123 169.163 365.631 167.649 365.129C158.502 362.108 149.458 358.752 140.516 355.061C118.059 345.826 96.6053 334.326 76.4892 320.738C73.928 319.018 71.4037 317.26 68.9162 315.464C65.4394 312.965 62.0042 310.392 58.6107 307.745L56.517 306.125C47.6361 299.182 39.3155 291.553 31.6322 283.309C21.2979 272.08 12.4667 259.414 6.66089 244.954C5.74528 242.681 4.9065 240.366 4.14456 238.007L4.07252 237.772C3.68835 236.573 3.33299 235.375 3.00644 234.128C2.52622 232.345 2.10524 230.539 1.74347 228.711C1.66664 228.361 1.59941 228.011 1.53698 227.656C0.389208 221.503 -0.117721 215.248 0.0242969 208.991C0.144402 203.509 0.787599 198.051 1.94516 192.691C3.12996 187.134 4.95576 181.733 7.38602 176.596C9.58224 171.977 12.3805 167.668 15.7082 163.781C18.0465 161.063 20.6762 158.61 23.5501 156.465C28.7605 152.591 34.5375 149.892 40.5258 147.758C43.3398 146.751 46.1923 145.869 49.0592 145.049C51.0905 144.464 53.1314 143.908 55.1628 143.362L61.1559 141.746C64.9976 140.701 68.8393 139.627 72.6234 138.467C82.9385 135.322 93.0471 131.515 102.397 125.838C103.876 124.942 105.384 123.959 106.892 122.904C108.813 121.571 110.705 120.124 112.577 118.561C114.47 116.978 116.323 115.286 118.09 113.493C118.364 113.215 118.633 112.937 118.902 112.654C120.343 111.139 121.74 109.552 123.037 107.903C123.67 107.097 124.285 106.277 124.871 105.443C125.683 104.288 126.451 103.113 127.162 101.905C130.725 95.8642 132.924 89.2 132.665 82.1763C132.627 81.0191 132.523 79.865 132.353 78.7196C131.729 74.4862 131.128 70.3535 130.686 66.3119C128.833 49.594 129.616 34.4343 142.183 20.1903C157.809 2.4848 182.334 -1.12534 204.659 0.288992C269.205 4.36418 327.964 41.156 379.602 84.9571C384.068 88.7414 388.479 92.5769 392.837 96.4635C393.935 97.4415 395.034 98.426 396.136 99.4168C404.299 106.757 412.338 114.37 419.825 122.526C420.43 123.187 421.035 123.849 421.63 124.515C421.995 124.927 422.365 125.335 422.725 125.752C425.059 128.389 427.324 131.09 429.52 133.855C435.404 141.194 440.599 149.058 445.041 157.347C451.843 170.355 456.447 184.394 458.67 198.899C459.505 204.167 460.055 209.476 460.317 214.802C460.398 216.37 460.451 217.942 460.48 219.51C460.48 220.014 460.48 220.512 460.48 221.016C460.528 221.744 460.528 222.454 460.523 223.183Z" fill="#6C63FF"/>
<path d="M189.195 215.141L181.512 351.679L189.195 351.78L195.438 213.224L189.195 215.141Z" fill="#3F3D56"/>
<path d="M160.863 284.319H65.7803V304.935H160.863V284.319Z" fill="#6C63FF"/>
<path d="M167.105 302.533V315.477H68.8865C65.4097 312.978 61.9746 310.405 58.5811 307.758V302.533H167.105Z" fill="#3F3D56"/>
<path d="M186.718 273.071C186.449 274.313 186.098 275.54 185.729 276.763C184.638 280.296 183.327 283.782 183.073 287.454C182.732 292.306 184.033 297.949 180.672 301.473C179.807 302.384 178.679 303.065 177.906 304.038C177.787 304.191 177.678 304.351 177.579 304.517C176.888 305.658 176.806 307.049 176.796 308.353C176.805 311.134 176.986 313.912 177.339 316.671C178.477 326.164 180.725 335.676 177.771 344.636C177.236 346.191 176.613 347.713 175.903 349.196C174.463 352.36 172.892 355.481 172.422 358.909C172.076 361.45 172.182 364.068 172.162 366.652C170.645 366.169 169.129 365.677 167.615 365.175C158.468 362.155 149.424 358.799 140.483 355.107C140.507 354.978 140.531 354.844 140.55 354.714C141.236 350.447 140.295 346.084 139.152 341.923C136.751 333.106 133.351 324.376 131.339 315.496C130.529 312.028 129.997 308.501 129.75 304.949C129.692 304.153 129.658 303.352 129.654 302.552C129.63 301.507 129.654 300.461 129.697 299.407C129.798 297.302 129.889 294.804 128.203 293.524C127.277 292.829 126.052 292.709 124.972 292.287C122.887 291.477 121.461 289.597 119.809 288.092C119.021 287.329 118.059 286.768 117.006 286.459C115.952 286.15 114.84 286.102 113.763 286.318C102.968 288.787 95.0348 297.93 84.9887 302.552C84.5997 302.734 84.2107 302.906 83.817 303.069C82.5175 303.545 81.2806 304.176 80.1337 304.949C79.3278 305.507 78.7433 306.33 78.4818 307.274C78.2273 308.291 78.4482 309.355 78.573 310.4C78.7751 312.099 78.7021 313.82 78.3569 315.496C78.2267 316.146 78.0551 316.786 77.8431 317.414C77.4589 318.55 76.9451 319.663 76.4553 320.77C73.8941 319.051 71.3698 317.293 68.8822 315.496C65.4055 312.997 61.9703 310.424 58.5768 307.778L56.5167 306.123C47.6358 299.181 39.3152 291.552 31.6318 283.307C32.6547 280.431 34.1338 277.755 34.8445 274.807C35.2479 273.114 35.3967 271.355 35.9538 269.71C36.5962 268.006 37.4896 266.406 38.6046 264.964C42.6881 259.279 47.6743 254.297 53.3664 250.217C59.3163 245.959 66.1882 242.546 71.5426 237.713C73.7156 235.814 75.5887 233.598 77.0987 231.14C77.19 230.991 77.2764 230.833 77.3533 230.661C77.7712 229.793 78.0608 228.869 78.2128 227.918C78.597 225.77 78.5394 223.412 78.7315 221.35C85.2542 222.477 91.9039 222.677 98.4828 221.944C106.142 221.086 113.634 218.962 121.293 218.138C121.869 218.071 122.45 218.018 123.031 217.97C125.485 217.773 127.944 217.73 130.408 217.759C132.468 217.759 134.528 217.85 136.588 217.917L159.269 218.684C161.78 218.771 164.344 218.866 166.683 219.782C169.459 220.871 171.682 223.038 173.464 225.42C173.689 225.727 173.915 226.034 174.126 226.35C175.592 228.486 176.768 230.805 177.622 233.25C177.714 233.499 177.8 233.729 177.882 234.002C178.098 234.669 178.285 235.34 178.453 236.021C178.583 236.553 178.698 237.085 178.804 237.622C179.332 240.278 179.644 242.992 180.48 245.557C180.537 245.744 180.6 245.931 180.667 246.113C181.671 248.922 183.337 251.439 184.595 254.138C185.502 256.092 186.195 258.139 186.66 260.242C187.601 264.465 187.62 268.84 186.718 273.071Z" fill="#35323E"/>
<path d="M117.778 101.496C115.751 99.8853 112.813 101.065 110.44 102.105C108.451 102.982 106.404 103.721 104.313 104.315C103.885 104.48 103.421 104.528 102.968 104.454C102.008 104.224 101.604 103.088 100.889 102.398C99.645 101.204 97.6089 101.487 96.0049 102.134C94.401 102.781 92.8163 103.716 91.0971 103.572C89.2627 103.428 87.6684 102.076 85.8147 102.033C82.5493 101.956 79.8072 105.974 76.7194 104.91C74.837 104.263 73.3579 101.817 71.5043 102.513C70.0637 103.059 69.934 105.049 69.0648 106.348C68.0419 107.863 66.049 108.29 64.3443 108.961C58.9706 111.08 55.4122 117.059 56.1134 122.783C56.5023 125.943 58.0342 128.838 59.0475 131.854C62.0536 140.623 61.0212 150.514 64.8101 158.971C65.2903 158.52 65.5592 158.352 66.025 157.906C64.827 160.387 64.596 163.224 65.3767 165.865C65.7753 167.193 66.4236 168.43 66.9134 169.729C67.4223 171.187 67.833 172.676 68.1428 174.188L72.3207 192.589C73.9534 199.78 75.5909 206.972 75.8743 214.336C76.0507 219.124 75.6834 223.917 74.7794 228.623C82.3476 227.372 89.2723 224.02 96.9414 224.064C99.7554 224.064 102.545 224.543 105.336 224.927C113.47 226.063 121.675 226.619 129.889 226.59C131.166 226.663 132.446 226.484 133.654 226.063C134.71 225.612 135.575 224.811 136.574 224.231C138.528 223.081 140.896 222.793 143.148 222.793C153.42 222.606 163.317 226.36 173.521 227.683C177.551 219.24 177.791 209.124 174.698 200.298C173.781 197.675 172.547 195.12 172.182 192.363C172.035 190.669 171.997 188.966 172.066 187.267C172.05 182.916 171.265 178.602 169.747 174.524C169.152 172.927 168.436 171.302 168.498 169.6C168.561 167.898 169.401 166.311 170.227 164.805C171.903 161.737 173.589 158.64 175.956 156.051C178.381 153.376 181.416 151.338 184.418 149.339L191.827 144.372C190.814 137.981 189.508 131.25 186.795 125.372C184.081 119.494 180.024 114.091 174.535 110.653C172.684 109.542 170.748 108.58 168.743 107.777C165.939 106.597 163.019 105.557 159.979 105.38C156.522 105.183 153.117 106.108 149.703 106.684C138.956 108.491 126.307 108.271 117.778 101.496Z" fill="#6C63FF"/>
<path d="M198.8 212.399L195.275 216.843L188.629 225.219L180.945 234.899L178.799 237.603H174.635L71.5376 237.723L6.97251 237.795H4.09121C3.70703 236.596 3.35167 235.397 3.02513 234.151C2.54491 232.367 2.12392 230.561 1.76216 228.733C1.68532 228.383 1.61809 228.033 1.55566 227.678L24.9806 212.389L33.7878 212.341L60.7279 212.188L75.7731 212.102H78.52H80.2439L90.2709 212.049L166.693 211.613L170.601 211.589H172.297L176.787 211.565L193.493 211.469L196.701 210.251L196.937 210.5L198.8 212.399Z" fill="#3F3D56"/>
<path d="M197.36 210.002L196.961 210.481L194.339 213.564L188.941 219.926L177.623 233.249L77.3536 230.694L1.74347 228.776C1.66664 228.426 1.59941 228.076 1.53698 227.722C0.389207 221.569 -0.117721 215.314 0.0242969 209.057L8.40888 204.771L10.3297 203.783L25.2789 196.113L38.3984 189.4L72.6186 193.84L80.1964 194.823L83.6252 195.264L88.6435 195.916L89.066 195.974L167.759 206.161L176.456 207.288L181.561 207.95L197.292 209.992L197.36 210.002Z" fill="#504F60"/>
<path d="M181.032 233.015L180.951 234.899L180.471 245.537L177.887 304.028L177.34 316.671L175.899 349.196L175.087 367.568L172.158 366.652C170.641 366.169 169.125 365.677 167.61 365.175L174.636 237.646L174.785 234.971L177.877 234.012L181.032 233.015Z" fill="#3F3D56"/>
<path d="M7.19335 232.876L6.97725 237.799L6.66031 244.991C5.74469 242.718 4.90592 240.403 4.14397 238.044L4.07194 237.809C3.68777 236.61 3.33241 235.412 3.00586 234.165L7.19335 232.876Z" fill="#3F3D56"/>
<path d="M132.771 160.385C144.971 160.385 154.861 147.077 154.861 130.66C154.861 114.244 144.971 100.935 132.771 100.935C120.571 100.935 110.681 114.244 110.681 130.66C110.681 147.077 120.571 160.385 132.771 160.385Z" fill="#A1616A"/>
<path opacity="0.1" d="M132.771 160.385C144.971 160.385 154.861 147.077 154.861 130.66C154.861 114.244 144.971 100.935 132.771 100.935C120.571 100.935 110.681 114.244 110.681 130.66C110.681 147.077 120.571 160.385 132.771 160.385Z" fill="black"/>
<path d="M135.891 143.365C152.865 143.365 166.625 129.628 166.625 112.681C166.625 95.7352 152.865 81.9976 135.891 81.9976C118.917 81.9976 105.157 95.7352 105.157 112.681C105.157 129.628 118.917 143.365 135.891 143.365Z" fill="#A1616A"/>
<path d="M136.501 65.39C134.625 65.5394 132.761 65.823 130.926 66.2386C126.066 67.418 121.864 70.0357 117.773 72.6055C115.938 73.7609 114.051 74.9643 112.913 76.6615C110.867 79.7059 111.659 83.5798 110.512 86.9598C109.916 88.6953 108.821 90.2535 107.895 91.8692C105.345 96.2991 104.01 101.165 102.699 105.984C102.43 106.981 102.353 108.333 103.443 108.716C104.071 108.847 104.724 108.773 105.306 108.506C108.749 107.369 113.124 107.043 115.679 109.349C118.234 111.655 118.018 115.745 121.057 117.5C124.539 119.528 129.975 117.078 133.135 119.47C134.489 120.496 134.979 122.141 136.088 123.378C138.672 126.254 143.642 126.115 147.777 125.535C150.149 125.199 153.059 124.974 154.5 126.638C155.191 127.424 155.388 128.503 156.19 129.212C157.631 130.497 160.267 129.845 161.674 128.527C163.081 127.208 163.753 125.425 164.925 123.943C167.206 121.067 171.216 119.499 173.569 116.656C175.538 114.259 176.133 111.257 176.671 108.362L178.674 97.6272C179.485 93.2739 180.225 88.5179 177.771 84.6824C176.897 83.3017 175.644 82.1127 174.89 80.684C174.385 79.7251 174.102 78.7135 173.516 77.8074C172.821 76.8634 171.991 76.0266 171.053 75.3239L166.313 71.4069C164.692 69.9908 162.959 68.7081 161.131 67.5714C154.365 63.6353 144.233 64.6709 136.501 65.39Z" fill="#464353"/>
<path d="M35.2713 144.43C34.1332 145.638 33.0815 146.942 31.8618 148.073C30.7888 149.026 29.6668 149.922 28.5003 150.758C26.6178 152.164 24.777 153.62 22.9778 155.126C21.1007 156.607 19.4022 158.302 17.9163 160.174C15.352 163.612 14.137 167.888 11.7359 171.441C9.61337 174.591 6.62162 177.079 4.46544 180.205C3.51953 181.519 2.81693 182.992 2.39091 184.553C2.07291 186.065 1.92951 187.607 1.96352 189.151C1.9203 191.683 1.88188 194.243 2.40052 196.721C2.91915 199.2 4.05726 201.636 6.00694 203.261C7.81736 204.771 10.156 205.466 12.4466 206.042C13.628 206.334 14.9053 206.607 16.0291 206.142C16.8513 205.728 17.565 205.127 18.1132 204.388L23.9574 197.675C27.8664 193.169 31.929 188.566 37.293 185.929C38.9738 185.11 40.7458 184.491 42.4314 183.695C49.577 180.258 54.6289 173.22 56.5881 165.549C57.0684 163.674 57.3757 161.761 57.6878 159.848L58.533 154.603C58.5979 154.34 58.5979 154.065 58.533 153.802C58.4007 153.507 58.1877 153.254 57.9183 153.074C53.8476 149.792 50.0362 146.201 46.518 142.334C45.6824 141.414 44.8997 140.153 43.9344 139.381C42.7243 138.422 42.8155 138.494 41.3605 139.381C39.1221 140.796 37.0756 142.493 35.2713 144.43Z" fill="#A1616A"/>
<path d="M75.2498 179.332C75.2012 179.221 75.1306 179.121 75.0422 179.037C74.9537 178.954 74.8493 178.889 74.7352 178.847C74.6211 178.805 74.4996 178.786 74.3781 178.792C74.2566 178.798 74.1375 178.828 74.0281 178.881C73.9186 178.934 73.821 179.009 73.7411 179.101C73.6613 179.192 73.6008 179.299 73.5633 179.415C73.5258 179.53 73.5121 179.652 73.523 179.773C73.5339 179.894 73.5692 180.012 73.6267 180.119L73.1465 180.354L87.4665 209.657L90.0549 208.396L75.7349 179.073L75.2498 179.332Z" fill="#3F3D56"/>
<path opacity="0.04" d="M35.2713 144.43C34.1332 145.638 33.0815 146.942 31.8618 148.073C30.7888 149.026 29.6668 149.922 28.5003 150.758C26.6178 152.164 24.777 153.62 22.9778 155.126C21.1007 156.607 19.4022 158.302 17.9163 160.174C15.352 163.612 14.137 167.888 11.7359 171.441C9.61337 174.591 6.62162 177.079 4.46544 180.205C3.51953 181.519 2.81693 182.992 2.39091 184.553C2.07291 186.065 1.92951 187.607 1.96352 189.151C1.9203 191.683 1.88188 194.243 2.40052 196.721C2.91915 199.2 4.05726 201.636 6.00694 203.261C7.81736 204.771 10.156 205.466 12.4466 206.042C13.628 206.334 14.9053 206.607 16.0291 206.142C16.8513 205.728 17.565 205.127 18.1132 204.388L23.9574 197.675C27.8664 193.169 31.929 188.566 37.293 185.929C38.9738 185.11 40.7458 184.491 42.4314 183.695C49.577 180.258 54.6289 173.22 56.5881 165.549C57.0684 163.674 57.3757 161.761 57.6878 159.848L58.533 154.603C58.5979 154.34 58.5979 154.065 58.533 153.802C58.4007 153.507 58.1877 153.254 57.9183 153.074C53.8476 149.792 50.0362 146.201 46.518 142.334C45.6824 141.414 44.8997 140.153 43.9344 139.381C42.7243 138.422 42.8155 138.494 41.3605 139.381C39.1221 140.796 37.0756 142.493 35.2713 144.43Z" fill="black"/>
<path d="M200.822 198.433C200.774 201.492 200.654 204.642 199.381 207.432C198.834 208.64 197.984 209.829 196.711 210.227C195.941 210.405 195.144 210.434 194.363 210.313C184.942 209.487 175.448 210.239 166.275 212.538C168.724 207.648 167.317 201.784 167.995 196.357C168.182 194.876 168.523 193.418 168.652 191.932C169.133 186.658 166.871 181.538 165.834 176.331C164.933 171.824 164.933 167.184 165.834 162.677C166.01 161.517 166.41 160.402 167.01 159.393C167.713 158.411 168.638 157.608 169.709 157.048C173.599 154.838 178.185 154.584 182.555 154.876C185.498 155.073 191.4 154.795 193.854 156.602C196.539 158.582 197.389 165.232 198.114 168.305C199.199 173.019 199.938 177.805 200.323 182.626C200.793 187.881 200.894 193.159 200.822 198.433Z" fill="#A1616A"/>
<path d="M28.8037 209.048L46.0915 220.554L123.887 217.677L72.5034 209.048H28.8037Z" fill="white"/>
<path d="M51.5989 117.624C48.7608 120.122 46.3549 123.066 43.6657 125.727C39.9777 129.38 35.7854 132.487 31.6123 135.579C33.1085 135.997 34.4705 136.795 35.5649 137.896C36.6592 138.997 37.4484 140.363 37.8551 141.86C38.0376 142.565 38.1288 143.298 38.3353 143.988C38.8156 145.623 39.872 147.033 41.0053 148.303C45.8747 153.783 52.689 157.839 55.5607 164.604C55.6544 164.933 55.8577 165.221 56.137 165.419C56.3706 165.522 56.6301 165.553 56.8813 165.505C59.4793 165.232 61.4674 163.142 63.1241 161.109C66.5817 156.794 69.583 152.029 71.2878 146.764C72.9925 141.5 73.2663 135.68 71.4078 130.464C70.481 127.865 69.05 125.477 67.6285 123.114C66.3832 121.046 65.141 118.981 63.9021 116.92C63.2538 115.831 62.4278 113.621 61.1552 113.084C58.4084 111.905 53.3613 115.865 51.5989 117.624Z" fill="#6C63FF"/>
<path d="M193.042 148.61L197.129 158.199C192.68 156.647 187.925 156.175 183.257 156.821C178.589 157.467 174.143 159.213 170.284 161.914C167.955 163.578 165.818 165.668 164.767 168.325C164.248 168.423 163.711 168.373 163.219 168.181C162.727 167.988 162.3 167.661 161.986 167.236C161.372 166.375 161.015 165.358 160.959 164.302C160.579 160.62 161.977 157.01 163.36 153.568C164.003 151.957 164.666 150.312 165.809 149.003C166.952 147.694 168.469 146.831 169.987 146.016C174.828 143.343 179.898 141.107 185.138 139.333C187.347 138.619 189.661 138.633 190.9 140.695C192.336 143.154 191.918 145.992 193.042 148.61Z" fill="#6C63FF"/>
<path d="M28.9044 177.381C29.9273 178.196 30.8253 179.16 31.8769 179.936C32.9892 180.707 34.1727 181.37 35.4113 181.916L40.1463 184.189C41.6136 184.95 43.1489 185.573 44.7323 186.049C46.7589 186.591 48.8862 186.644 50.9223 187.147C53.4915 187.78 55.8398 189.098 58.3705 189.861C60.9012 190.623 63.8642 190.748 65.9771 189.161C67.2977 188.168 68.2966 186.529 69.9341 186.284C70.9906 186.145 72.0086 186.653 72.9499 187.147L85.2722 193.615C86.9338 194.487 88.6914 195.456 89.5605 197.119C90.4297 198.783 89.8439 201.31 88.0143 201.741C87.3766 201.814 86.7353 201.851 86.0934 201.851C85.4595 201.928 84.768 202.302 84.6816 202.94C84.6783 203.336 84.7829 203.725 84.9841 204.066C85.5363 205.332 85.6996 206.847 85.0561 208.074C84.4126 209.302 82.8327 210.064 81.5698 209.513C81.7859 211.368 79.7641 212.667 77.9633 213.161C73.4205 214.403 68.6039 213.641 63.9602 212.854C62.1354 212.548 60.2817 212.231 58.6202 211.416C57.823 211.028 57.0835 210.529 56.2767 210.17C54.063 209.187 51.5466 209.316 49.1263 209.359C37.9325 209.556 26.8347 207.485 15.8281 205.423C13.7872 205.04 11.6886 204.632 9.94546 203.505C6.58395 201.319 5.33538 196.832 5.88763 192.862C6.43988 188.892 8.45679 185.297 10.4401 181.806L13.0092 177.285C13.3451 176.593 13.8152 175.973 14.3923 175.463C18.1716 172.582 25.6678 174.783 28.9044 177.381Z" fill="#A1616A"/>
<path opacity="0.04" d="M28.9044 177.381C29.9273 178.196 30.8253 179.16 31.8769 179.936C32.9892 180.707 34.1727 181.37 35.4113 181.916L40.1463 184.189C41.6136 184.95 43.1489 185.573 44.7323 186.049C46.7589 186.591 48.8862 186.644 50.9223 187.147C53.4915 187.78 55.8398 189.098 58.3705 189.861C60.9012 190.623 63.8642 190.748 65.9771 189.161C67.2977 188.168 68.2966 186.529 69.9341 186.284C70.9906 186.145 72.0086 186.653 72.9499 187.147L85.2722 193.615C86.9338 194.487 88.6914 195.456 89.5605 197.119C90.4297 198.783 89.8439 201.31 88.0143 201.741C87.3766 201.814 86.7353 201.851 86.0934 201.851C85.4595 201.928 84.768 202.302 84.6816 202.94C84.6783 203.336 84.7829 203.725 84.9841 204.066C85.5363 205.332 85.6996 206.847 85.0561 208.074C84.4126 209.302 82.8327 210.064 81.5698 209.513C81.7859 211.368 79.7641 212.667 77.9633 213.161C73.4205 214.403 68.6039 213.641 63.9602 212.854C62.1354 212.548 60.2817 212.231 58.6202 211.416C57.823 211.028 57.0835 210.529 56.2767 210.17C54.063 209.187 51.5466 209.316 49.1263 209.359C37.9325 209.556 26.8347 207.485 15.8281 205.423C13.7872 205.04 11.6886 204.632 9.94546 203.505C6.58395 201.319 5.33538 196.832 5.88763 192.862C6.43988 188.892 8.45679 185.297 10.4401 181.806L13.0092 177.285C13.3451 176.593 13.8152 175.973 14.3923 175.463C18.1716 172.582 25.6678 174.783 28.9044 177.381Z" fill="black"/>
<path d="M175.495 185.666C172.993 186.845 170.121 186.96 167.509 187.866C164.896 188.772 162.678 190.402 160.282 191.73C154.039 195.211 146.835 196.525 139.762 197.776C135.474 198.543 131.118 199.31 126.796 199.128C120.947 198.879 115.328 196.932 109.662 195.465C103.995 193.998 97.9494 193.011 92.3357 194.66C89.4042 195.551 86.7244 197.119 84.5134 199.237C82.3024 201.356 80.6225 203.964 79.6099 206.852C78.4334 210.299 78.2702 214.015 78.4959 217.649C79.6772 218.516 81.3291 217.313 81.9726 215.995C82.6161 214.676 82.9667 213.061 84.2152 212.293C86.381 213.027 86.9092 215.908 88.6956 217.332C89.8098 218.224 91.2984 218.459 92.7151 218.66L100.014 219.696C101.772 219.945 103.813 220.113 105.085 218.876C105.705 218.277 106.046 217.438 106.613 216.795C107.775 215.51 109.715 215.29 111.444 215.462C116.841 215.999 121.903 219.495 127.262 218.665C129.106 218.382 130.82 217.596 132.578 216.977C142.994 213.305 154.567 215.539 165.405 213.434C169.54 212.634 173.521 211.215 177.454 209.719C179.591 208.909 181.752 208.06 183.577 206.689C185.306 205.362 186.669 203.618 187.539 201.622C188.409 199.625 188.758 197.441 188.552 195.274C188.15 191.97 186.499 188.945 183.937 186.816C183.092 186.097 181.983 184.721 180.969 184.27C179.034 183.422 177.137 184.894 175.495 185.666Z" fill="#A1616A"/>
<g opacity="0.1">
<path opacity="0.1" d="M161.463 124.418C160.661 123.708 160.464 122.63 159.773 121.843C158.332 120.18 155.422 120.405 153.05 120.741C148.915 121.321 143.926 121.455 141.361 118.583C140.252 117.346 139.762 115.707 138.408 114.676C135.248 112.279 129.812 114.733 126.331 112.705C123.291 110.936 123.488 106.832 120.952 104.555C118.417 102.278 114.023 102.575 110.579 103.711C109.997 103.978 109.344 104.052 108.716 103.922C107.626 103.539 107.703 102.187 107.972 101.189C109.283 96.371 110.618 91.5048 113.168 87.0748C114.095 85.4591 115.19 83.901 115.785 82.1654C116.827 79.1258 116.294 75.6883 117.663 72.8117C116.193 73.7705 114.781 74.8157 113.874 76.1677C111.828 79.2121 112.62 83.0859 111.473 86.4659C110.877 88.2015 109.782 89.7597 108.855 91.3754C106.306 95.8053 104.971 100.672 103.66 105.49C103.391 106.487 103.314 107.839 104.404 108.223C105.032 108.353 105.685 108.279 106.267 108.012C109.71 106.875 114.085 106.549 116.64 108.856C119.195 111.162 118.978 115.251 122.018 117.006C125.5 119.034 130.936 116.584 134.096 118.976C135.45 120.002 135.94 121.647 137.049 122.884C139.633 125.76 144.603 125.621 148.737 125.041C151.11 124.706 154.02 124.48 155.46 126.144C156.152 126.93 156.349 128.009 157.151 128.718C158.591 130.003 161.228 129.351 162.635 128.033C163.537 127.095 164.309 126.04 164.93 124.897C163.682 125.276 162.352 125.219 161.463 124.418Z" fill="black"/>
<path opacity="0.1" d="M170.213 119.144C169.904 119.542 169.617 119.956 169.354 120.386C171.198 119.072 173.152 117.845 174.53 116.172C174.888 115.739 175.209 115.277 175.491 114.791C173.575 116.162 171.577 117.423 170.213 119.144Z" fill="black"/>
</g>
<path d="M267.23 214.082L268.671 351.679L275.394 350.72L273.954 214.082H267.23Z" fill="#3F3D56"/>
<path d="M307.569 239.012L309.01 376.61L315.733 375.651L314.292 239.012H307.569Z" fill="#3F3D56"/>
<path d="M433.16 308.521L433.131 305.879V304.306L432.876 280.105L432.478 242.268L432.411 239.003H425.688L425.721 242.148L425.932 262.413L426.024 271.187L426.1 278.292L426.225 290.575L426.302 297.82V298.587L426.403 308.108L426.489 316.503L427.037 315.899C427.917 314.918 428.778 313.921 429.62 312.907L433.16 308.521Z" fill="#3F3D56"/>
<path d="M300.126 261.306L296.284 267.04L300.126 293.164L332.781 302.087H385.604L417.299 304L432.397 293.682L429.784 275.962L418.259 261.306H300.126Z" fill="#6C63FF"/>
<path d="M296.283 267.04L294.362 282.967C294.362 282.967 284.278 314.192 365.435 312.279C446.591 310.367 432.665 303.995 432.665 303.995L432.185 285.517C432.185 285.517 435.013 294.262 393.767 293.078C352.521 291.894 314.051 288.068 314.051 288.068C314.051 288.068 299.645 290.614 296.283 267.04Z" fill="#3F3D56"/>
<path d="M363.898 124.284C359.269 126.388 355.763 130.468 353.415 134.98C351.067 139.491 349.746 144.444 348.445 149.363C347.071 154.55 345.693 159.752 344.982 165.069C343.715 174.524 344.665 184.462 349.016 192.953C353.367 201.444 361.406 208.295 370.818 209.93C374.453 210.567 378.189 210.438 381.863 210.059C388.503 209.357 395.044 207.918 401.365 205.768C407.968 203.539 414.84 200.106 417.778 193.782C419.483 190.115 419.627 185.934 419.546 181.897C419.319 170.895 417.655 159.969 414.595 149.396C413.706 146.328 412.674 143.236 410.791 140.652C408.909 138.067 406.335 136.174 403.708 134.419C392.476 126.868 377.714 118.013 363.898 124.284Z" fill="#FBBEBE"/>
<path opacity="0.05" d="M363.898 124.284C359.269 126.388 355.763 130.468 353.415 134.98C351.067 139.491 349.746 144.444 348.445 149.363C347.071 154.55 345.693 159.752 344.982 165.069C343.715 174.524 344.665 184.462 349.016 192.953C353.367 201.444 361.406 208.295 370.818 209.93C374.453 210.567 378.189 210.438 381.863 210.059C388.503 209.357 395.044 207.918 401.365 205.768C407.968 203.539 414.84 200.106 417.778 193.782C419.483 190.115 419.627 185.934 419.546 181.897C419.319 170.895 417.655 159.969 414.595 149.396C413.706 146.328 412.674 143.236 410.791 140.652C408.909 138.067 406.335 136.174 403.708 134.419C392.476 126.868 377.714 118.013 363.898 124.284Z" fill="black"/>
<path d="M358.697 184.63C360.037 186.469 361.658 188.087 363.499 189.424C368.071 192.579 373.939 193.006 379.491 193.178C383.947 193.313 389.056 193.059 391.851 189.587C393.11 188.024 393.676 186.03 394.185 184.088C397.327 172.165 399.558 160.022 400.86 147.762L413.576 147.805C419.08 171.331 418.628 195.787 418.148 219.945L417.452 255.174L409.259 254.306C389.806 252.249 370.323 250.193 350.764 249.838C339.304 249.628 327.84 250.005 316.419 250.969L334.259 198.011C336.574 191.126 338.912 184.151 339.455 176.916C340.238 166.421 337.289 155.341 341.376 145.633C341.702 144.851 342.115 144.041 342.86 143.634C343.604 143.226 344.545 143.327 345.4 143.437C347.014 143.653 351.945 143.437 353.117 144.468C354.846 145.964 353.703 146.189 353.093 148.601C352.003 152.916 350.971 156.909 350.985 161.406C350.999 169.571 353.535 178.191 358.697 184.63Z" fill="#6C63FF"/>
<path d="M433.16 308.521C435.302 305.682 437.32 302.743 439.216 299.704C438.255 297.652 437.199 295.648 436.358 293.553C435.071 290.341 434.332 286.937 433.602 283.557C433.352 282.406 433.104 281.255 432.857 280.105C430.168 267.587 427.642 254.891 427.119 242.201C427.071 241.146 427.04 240.091 427.028 239.036C427.028 238.883 427.028 238.734 427.028 238.557C427.028 237.401 427.028 236.246 427.028 235.095C427.085 232.219 427.268 229.318 427.599 226.432C427.662 225.866 427.734 225.3 427.81 224.735C427.81 224.61 427.839 224.49 427.858 224.366L460.513 223.177L463.26 223.076C465.147 223.009 467.145 222.903 468.701 221.834C471.318 220.041 471.625 216.364 471.582 213.204C471.423 205.219 470.516 197.265 468.874 189.448C467.635 183.571 465.868 177.563 461.901 173.047C458.645 169.336 453.929 166.637 452.234 162.02C451.605 160.304 451.447 158.419 450.63 156.78C449.814 155.14 448.465 153.937 447.192 152.671C442.713 148.24 438.998 143.102 436.195 137.463C434.25 133.551 432.142 129.236 429.602 126.532C429.477 126.393 429.352 126.264 429.222 126.139C427.061 124.006 424.588 123.071 421.659 124.523C421.132 124.787 420.631 125.099 420.161 125.454C419.117 126.25 418.162 127.156 417.313 128.158C414.354 131.554 411.758 135.25 409.567 139.185C408.027 141.955 406.704 144.84 405.61 147.814C404.747 150.164 404.033 152.566 403.473 155.006C403.06 156.813 402.733 158.64 402.474 160.471C401.514 167.356 401.514 174.375 401.648 181.346C401.792 187.751 402.076 194.171 402.657 200.552C402.801 202.096 402.961 203.638 403.137 205.179C403.489 208.225 403.924 211.261 404.443 214.288C404.65 215.443 404.861 216.599 405.096 217.749C405.154 218.056 405.216 218.363 405.279 218.665L405.307 218.795C405.942 221.469 406.434 224.175 406.782 226.902C406.82 227.244 406.849 227.584 406.868 227.923C406.949 229.49 406.936 231.061 406.83 232.626C406.719 234.477 406.546 236.323 406.46 238.173C406.46 238.499 406.46 238.821 406.426 239.132C406.402 240.067 406.426 241.002 406.426 241.937C406.524 244.174 406.79 246.4 407.224 248.596C408.033 252.682 409.433 256.629 411.377 260.314C411.56 260.659 411.747 260.999 411.934 261.335C414.369 265.678 417.443 269.663 419.695 274.107C421.637 278.106 423.089 282.326 424.017 286.673C424.337 288.108 424.641 289.546 424.929 290.988C425.376 293.289 425.774 295.609 426.182 297.93C426.221 298.16 426.264 298.409 426.307 298.62C426.85 301.698 427.421 304.762 428.156 307.768C428.584 309.518 429.064 311.244 429.626 312.941L433.16 308.521Z" fill="#464353"/>
<path d="M426.745 270.732C426.745 271.163 426.716 271.595 426.697 272.031C426.611 274.135 426.417 276.233 426.116 278.316C425.718 281.161 425.021 283.955 424.036 286.654C423.384 288.428 422.554 290.132 421.559 291.74C420.676 293.168 419.642 294.498 418.476 295.705C415.594 298.697 411.445 299.651 407.431 300.912C405.583 301.446 403.798 302.174 402.105 303.084C401.802 303.252 401.505 303.434 401.217 303.626L396.194 306.948C394.628 307.979 393.029 309.048 391.953 310.577C391.777 310.838 391.617 311.108 391.473 311.388C390.793 312.796 390.296 314.284 389.994 315.818C387.382 326.682 384.764 337.555 382.973 348.582C382.853 349.311 382.738 350.044 382.613 350.778L382.57 351.008C382.548 350.954 382.522 350.901 382.493 350.85C369.642 358.607 356.316 365.607 342.587 371.211L339.605 346.281C339.294 344.254 339.191 342.201 339.298 340.154C339.581 336.927 340.897 333.868 341.252 330.651C341.589 327.502 340.993 324.323 339.538 321.509C338.971 320.415 338.26 319.342 338.131 318.119C338.001 316.896 338.707 315.779 339.936 315.655C340.897 314.59 340.973 313.138 340.69 311.699C340.54 310.948 340.314 310.214 340.018 309.508C339.201 307.504 338.169 305.323 338.87 303.276C339.056 302.905 339.138 302.491 339.11 302.077C339.115 302.052 339.115 302.026 339.11 302C338.947 301.463 338.308 301.228 337.977 300.773C337.353 299.924 337.977 298.769 338.361 297.791C338.735 296.74 338.952 295.64 339.005 294.526C339.057 293.908 339.096 293.284 339.163 292.671C339.257 291.84 339.406 291.017 339.61 290.206C340.776 285.614 343.582 281.604 347.5 278.93C349.368 277.674 351.447 276.758 353.353 275.574C355.306 274.26 357.17 272.818 358.934 271.259C363.163 267.743 367.56 264.429 372.125 261.316C377.034 257.969 382.119 254.886 387.358 252.082C388.478 251.478 389.599 250.889 390.719 250.317C391.939 249.678 393.167 249.072 394.402 248.5C398.359 246.616 402.849 247.321 407.224 248.577C409.059 249.1 410.869 249.723 412.617 250.289C414.324 250.843 415.966 251.579 417.515 252.484C421.39 254.757 424.594 258.113 425.924 262.351C425.926 262.378 425.926 262.406 425.924 262.433C426.769 265.089 426.822 267.937 426.745 270.732Z" fill="#F86D70"/>
<path opacity="0.1" d="M426.745 270.732C426.745 271.163 426.716 271.595 426.697 272.031C426.611 274.135 426.417 276.233 426.116 278.316C425.718 281.161 425.021 283.955 424.036 286.654C423.384 288.428 422.554 290.132 421.559 291.74C420.676 293.168 419.642 294.498 418.476 295.705C415.594 298.697 411.445 299.651 407.431 300.912C405.583 301.446 403.798 302.174 402.105 303.084C401.802 303.252 401.505 303.434 401.217 303.626L396.194 306.948C394.628 307.979 393.029 309.048 391.953 310.577C391.777 310.838 391.617 311.108 391.473 311.388C390.793 312.796 390.296 314.284 389.994 315.818C387.382 326.682 384.764 337.555 382.973 348.582C382.853 349.311 382.738 350.044 382.613 350.778L382.57 351.008C382.548 350.954 382.522 350.901 382.493 350.85C369.642 358.607 356.316 365.607 342.587 371.211L339.605 346.281C339.294 344.254 339.191 342.201 339.298 340.154C339.581 336.927 340.897 333.868 341.252 330.651C341.589 327.502 340.993 324.323 339.538 321.509C338.971 320.415 338.26 319.342 338.131 318.119C338.001 316.896 338.707 315.779 339.936 315.655C340.897 314.59 340.973 313.138 340.69 311.699C340.54 310.948 340.314 310.214 340.018 309.508C339.201 307.504 338.169 305.323 338.87 303.276C339.056 302.905 339.138 302.491 339.11 302.077C339.115 302.052 339.115 302.026 339.11 302C338.947 301.463 338.308 301.228 337.977 300.773C337.353 299.924 337.977 298.769 338.361 297.791C338.735 296.74 338.952 295.64 339.005 294.526C339.057 293.908 339.096 293.284 339.163 292.671C339.257 291.84 339.406 291.017 339.61 290.206C340.776 285.614 343.582 281.604 347.5 278.93C349.368 277.674 351.447 276.758 353.353 275.574C355.306 274.26 357.17 272.818 358.934 271.259C363.163 267.743 367.56 264.429 372.125 261.316C377.034 257.969 382.119 254.886 387.358 252.082C388.478 251.478 389.599 250.889 390.719 250.317C391.939 249.678 393.167 249.072 394.402 248.5C398.359 246.616 402.849 247.321 407.224 248.577C409.059 249.1 410.869 249.723 412.617 250.289C414.324 250.843 415.966 251.579 417.515 252.484C421.39 254.757 424.594 258.113 425.924 262.351C425.926 262.378 425.926 262.406 425.924 262.433C426.769 265.089 426.822 267.937 426.745 270.732Z" fill="black"/>
<path d="M381.147 191.318C381.099 191.207 381.028 191.106 380.94 191.023C380.851 190.94 380.747 190.875 380.633 190.833C380.519 190.791 380.397 190.772 380.276 190.778C380.154 190.784 380.035 190.814 379.926 190.867C379.816 190.92 379.718 190.995 379.639 191.087C379.559 191.178 379.498 191.285 379.461 191.4C379.423 191.516 379.41 191.638 379.42 191.759C379.431 191.88 379.467 191.997 379.524 192.104L379.044 192.339L393.364 221.642L395.952 220.381L381.632 191.059L381.147 191.318Z" fill="#3F3D56"/>
<path d="M399.05 160.625C416.024 160.625 429.784 146.887 429.784 129.941C429.784 112.995 416.024 99.2572 399.05 99.2572C382.076 99.2572 368.316 112.995 368.316 129.941C368.316 146.887 382.076 160.625 399.05 160.625Z" fill="#FBBEBE"/>
<path d="M439.614 110.946C439.471 108.507 439.107 106.085 438.529 103.711C436.724 95.9587 433.424 88.3262 427.743 82.7599C427.393 81.399 426.975 80.0565 426.49 78.7375C426.481 78.7048 426.47 78.6728 426.456 78.6416C424.762 73.9949 422.312 69.6586 419.205 65.8071C417.404 63.573 415.071 61.3676 412.199 61.2813C411.392 61.2525 410.537 61.3915 409.798 61.0224C409.254 60.6713 408.796 60.2027 408.458 59.6512C407.036 57.8571 405.15 56.4849 403.003 55.6831C400.857 54.8812 398.532 54.6801 396.28 55.1014L395.982 55.1637C395.814 55.1973 395.646 55.2356 395.502 55.2788C395.358 55.3219 395.098 55.3938 394.897 55.4561C395.118 55.8205 395.334 56.1897 395.545 56.5636C396.115 57.5768 396.643 58.6124 397.13 59.6704C397.533 60.5525 397.906 61.4491 398.249 62.36C393.331 62.9209 389.326 66.4064 385.667 69.7241L377.052 77.5293C377.036 77.5424 377.022 77.5569 377.009 77.5724L376.759 77.8122C376.696 77.8745 376.634 77.9368 376.576 78.0039C376.553 78.0239 376.532 78.0464 376.514 78.0711C376.442 78.1478 376.375 78.2293 376.307 78.3108C376.188 78.4618 376.08 78.6221 375.986 78.7902C375.939 78.8622 375.897 78.9375 375.861 79.0155C375.848 79.0385 375.836 79.0626 375.827 79.0875C375.796 79.1528 375.769 79.2201 375.746 79.2888C375.744 79.2983 375.744 79.3081 375.746 79.3176C375.732 79.3569 375.721 79.3969 375.712 79.4374C375.614 79.7748 375.643 80.1364 375.794 80.4538L381.475 80.5162H382.142C382.171 81.2737 382.195 82.036 382.224 82.7935C381.322 83.4671 380.457 84.1872 379.631 84.9509C378.73 85.7835 377.884 86.6739 377.1 87.6166C371.976 93.7965 369.301 101.779 369.032 109.814C369.032 110.064 369.032 110.294 369.032 110.553C369.032 111.286 369.032 112.02 369.032 112.749C369.032 113.228 369.075 113.707 369.114 114.187C369.116 114.811 369.282 115.424 369.594 115.966C369.635 116.026 369.68 116.084 369.729 116.138C370.017 116.45 370.362 116.704 370.747 116.886L371.16 117.087C371.366 117.188 371.563 117.284 371.755 117.394C373.565 118.415 374.636 120.386 376.283 121.652C376.38 121.724 376.476 121.795 376.572 121.858L376.788 122.002L376.922 122.088L377.105 122.193C377.224 122.265 377.348 122.331 377.474 122.39L377.705 122.505H377.743C377.935 122.591 378.128 122.673 378.324 122.745L378.598 122.841L378.68 122.869C378.757 122.893 378.838 122.922 378.92 122.941C379.083 122.989 379.243 123.032 379.4 123.071L379.88 123.176C380.068 123.21 380.26 123.243 380.452 123.267L380.735 123.306L381.023 123.334C381.481 123.376 381.942 123.4 382.406 123.406C383.863 123.397 385.318 123.297 386.762 123.104L399.017 121.666C401.797 121.345 404.635 121.024 407.377 121.589C409.702 122.069 411.844 123.171 414.101 123.953C414.61 124.13 415.119 124.293 415.632 124.432C415.82 124.485 416.012 124.543 416.204 124.591L416.468 124.658L417.083 124.806C417.304 124.859 417.524 124.912 417.745 124.955C418.058 125.022 418.365 125.08 418.677 125.137C418.888 125.18 419.104 125.214 419.32 125.252H419.364L419.978 125.348H420.127L420.583 125.41C420.804 125.444 421.025 125.473 421.251 125.497C421.741 125.557 422.231 125.61 422.72 125.655C423.513 125.732 424.31 125.789 425.122 125.837L425.919 125.885L426.716 125.923L429.117 126.029H429.223H429.559C430.557 126.098 431.56 126.047 432.546 125.875C432.719 125.842 432.887 125.804 433.055 125.756C433.223 125.708 433.362 125.66 433.535 125.602C435.336 124.912 436.651 123.325 437.564 121.628C437.756 121.268 437.934 120.909 438.097 120.539C438.26 120.17 438.409 119.796 438.544 119.422C438.712 118.943 438.856 118.487 438.981 118.008C439.019 117.878 439.053 117.749 439.081 117.615C439.11 117.481 439.177 117.217 439.216 117.015C439.336 116.464 439.427 115.908 439.494 115.347C439.494 115.17 439.538 114.987 439.557 114.81C439.6 114.331 439.634 113.885 439.653 113.415C439.653 113.06 439.653 112.701 439.653 112.341C439.648 111.953 439.614 111.44 439.614 110.946ZM427.302 82.3236C426.913 81.9593 426.514 81.6093 426.111 81.2785C426.56 81.5613 426.96 81.9141 427.297 82.3236H427.302Z" fill="#464353"/>
<path d="M340.066 128.253C336.45 127.808 332.862 126.225 329.294 127.002C327.061 127.482 325.141 128.867 323.354 130.291C316.706 135.611 311.053 142.063 306.657 149.349C305.912 150.438 305.388 151.663 305.116 152.954C304.885 154.45 305.293 155.969 305.778 157.403C309.063 167.092 316.088 175.185 319.287 184.903C322.648 195.125 321.481 206.296 319.003 216.767C315.932 229.693 310.94 242.088 304.193 253.539C303.278 255.242 302.13 256.81 300.784 258.199C299.036 259.877 296.688 261.076 295.65 263.272C295.17 264.23 295.031 265.324 294.69 266.35C293.73 269.226 291.405 271.69 291.18 274.725C291.012 277.041 292.111 279.232 292.779 281.437C293.904 285.226 293.785 289.276 292.438 292.992C290.003 299.656 283.635 305.716 285.484 312.567C289.609 311.383 294.181 309.844 296.126 306.023C296.813 304.671 297.154 303.06 298.311 302.072C300.621 300.111 304.554 301.885 307.008 300.083C308.861 298.711 308.928 295.902 308.102 293.744C307.276 291.587 305.855 289.688 305.221 287.469C304.117 283.465 305.884 279.232 305.557 275.094C305.404 273.177 304.813 271.34 304.77 269.432C304.688 265.726 306.743 262.241 309.476 259.724C312.208 257.207 315.584 255.538 318.907 253.894L331.47 247.661C336.027 245.408 341.021 242.661 342.515 237.809C343.081 235.992 343.086 234.055 343.115 232.156C343.542 203.146 350.822 174.72 358.059 146.621C359.183 142.267 360.326 137.895 361.997 133.714C363.668 129.534 366.939 126.177 368.605 122.294C358.938 121.163 350.107 129.51 340.066 128.253Z" fill="#464353"/>
<path d="M409.317 310.251C410.426 316.963 411.103 323.819 411.631 330.642C402.988 337.795 393.681 344.018 384.226 349.79C383.688 350.121 383.145 350.447 382.602 350.749L382.559 350.979C382.537 350.925 382.512 350.872 382.482 350.821C381.749 349.239 380.466 347.975 378.871 347.264C375.327 339.832 371.786 332.401 368.249 324.97C366.328 320.957 364.407 316.906 363.447 312.577C363.447 312.486 363.403 312.39 363.389 312.299C362.659 308.943 362.491 305.457 362.006 302.058C361.76 300.111 361.321 298.193 360.695 296.333C360.119 294.679 359.326 293.073 358.625 291.458C357.761 289.463 357.036 287.445 357.002 285.292C357.002 284.606 357.045 283.854 356.709 283.278C356.35 282.783 355.906 282.355 355.398 282.013C354.764 281.452 354.284 280.739 354.001 279.941C353.719 279.144 353.645 278.288 353.785 277.453C350.903 277.602 349.28 280.694 348.123 283.317C347.071 285.882 345.689 288.299 344.012 290.508C342.79 292.086 341.236 293.378 339.46 294.291C339.301 294.368 339.143 294.444 338.98 294.512C334.97 296.276 330.288 295.653 325.942 294.857C322.143 294.162 318.215 293.299 315.161 290.94L314.834 290.681C313.93 289.931 313.124 289.071 312.433 288.121C309.874 284.63 308.74 280.033 308.111 275.655C308.054 275.243 307.996 274.831 307.943 274.418C307.507 271.326 307.386 268.196 307.583 265.079C307.641 264.312 307.722 263.545 307.823 262.783C307.89 262.303 307.962 261.785 308.044 261.287C308.042 261.272 308.042 261.258 308.044 261.244C308.169 260.453 308.303 259.657 308.438 258.846C308.918 256.128 309.398 253.338 310.839 250.998C311.787 249.542 312.983 248.264 314.373 247.22C314.892 246.813 315.425 246.424 315.963 246.05C316.837 245.446 317.735 244.871 318.647 244.329C320.943 242.957 323.353 241.786 325.85 240.829C326.446 240.599 327.051 240.383 327.656 240.177C330.008 239.342 332.539 239.142 334.994 239.597C337.169 239.911 339.366 240.04 341.563 239.981C347.196 239.87 352.853 238.797 358.476 238.101C366.285 237.142 374.674 237.027 381.483 240.978C381.81 241.165 382.127 241.361 382.444 241.568C385.805 243.763 388.514 246.841 390.699 250.279C391.179 251.003 391.597 251.746 392.01 252.499C392.962 254.227 393.823 256.003 394.589 257.82C395.042 258.713 395.287 259.697 395.304 260.697C395.293 260.887 395.267 261.076 395.227 261.263C395.098 261.944 394.838 262.605 394.747 263.296C394.445 265.909 396.668 268.09 397.499 270.578C398.037 272.199 397.979 273.934 398.281 275.641C398.718 278.038 399.895 280.196 400.951 282.353C402.621 285.826 404.049 289.409 405.225 293.078C406.061 295.633 406.776 298.227 407.406 300.845C407.61 301.685 407.804 302.528 407.987 303.372C408.51 305.692 408.937 307.964 409.317 310.251Z" fill="#F86D70"/>
<path d="M460.518 239.252V242.608L459.898 242.598L459.207 242.589L451.485 242.493L432.459 242.244L427.119 242.177L425.736 242.157L417.721 242.057L406.426 241.908L382.464 241.596L340.882 241.059L325.875 240.868L319.853 240.791L314.311 240.719L310.858 240.671L307.588 240.628L283.342 240.316L276.619 240.23L275.154 240.211L274.204 237.761L267.293 219.969L266.03 216.719L266.991 212.883L271.313 215.76L273.973 216.091L317.774 221.527L325.995 222.549L343.427 224.716L360.503 226.835L367.197 227.664L406.811 232.583L417.879 233.959L427.042 235.095L459.62 239.142L460.518 239.252Z" fill="#3F3D56"/>
<path d="M266.99 212.883L275.634 235.417L460.517 239.252V214.801L266.99 212.883Z" fill="#504F60"/>
<path d="M276.595 237.814L278.035 375.411L284.758 374.452L283.318 237.814H276.595Z" fill="#3F3D56"/>
<path d="M459.898 242.594H459.207C458.087 251.172 456.235 259.64 453.67 267.903L451.485 242.493L451.394 241.409L459.471 240.479L459.74 240.451L459.898 242.594Z" fill="#3F3D56"/>
<path d="M433.625 226.307L363.274 227.746L341.424 220.554L400.01 217.198L433.625 226.307Z" fill="white"/>
<path d="M345.376 198.347C344.63 198.632 343.969 199.103 343.455 199.713C343.053 200.375 342.809 201.119 342.74 201.89L341.558 208.923C341.378 209.566 341.41 210.251 341.65 210.874C341.957 211.464 342.85 211.771 343.297 211.282C343.239 212.658 343.359 214.125 344.161 215.247C344.963 216.369 346.644 216.958 347.777 216.177C347.955 216.466 348.194 216.713 348.476 216.901C348.759 217.089 349.08 217.213 349.415 217.265C349.751 217.317 350.094 217.296 350.421 217.202C350.747 217.109 351.05 216.945 351.307 216.723C350.625 216.954 350.577 217.994 351.062 218.521C351.605 219 352.297 219.276 353.021 219.303C361.46 220.49 370.063 219.41 377.945 216.172C378.689 215.865 376.73 206.703 376.533 205.764C376.052 203.553 375.812 200.854 373.944 199.368C369.478 195.811 361.545 195.111 356.104 195.532C352.387 195.813 348.752 196.767 345.376 198.347Z" fill="#FBBEBE"/>
<path opacity="0.1" d="M416.958 199.411C399.588 199.742 381.859 200.025 365.282 194.832C366.865 200.959 366.756 207.399 364.965 213.468L446.179 220.18C449.622 220.463 463.899 222.074 467.256 221.264C470.613 220.453 439.091 210.088 440.364 206.881C443.864 198.045 455.591 192.867 447.144 192.536C436.484 192.114 427.7 199.21 416.958 199.411Z" fill="black"/>
<path d="M417.437 200.37C400.068 200.701 382.338 200.984 365.761 195.791C367.345 201.918 367.235 208.358 365.444 214.427L446.659 221.139C450.102 221.422 464.379 223.057 467.735 222.223C471.092 221.388 470.304 217.28 471.577 214.072C475.078 205.236 456.071 193.826 447.624 193.495C436.963 193.073 428.18 200.169 417.437 200.37Z" fill="#464353"/>
<path d="M389.821 201.703C390.567 201.988 391.228 202.458 391.741 203.069C392.143 203.731 392.389 204.475 392.462 205.246L393.643 212.279C393.821 212.923 393.789 213.606 393.552 214.23C393.245 214.82 392.347 215.127 391.905 214.638C391.958 216.014 391.842 217.481 391.04 218.603C390.238 219.725 388.558 220.314 387.42 219.533C387.242 219.822 387.003 220.069 386.72 220.257C386.438 220.445 386.117 220.569 385.781 220.621C385.446 220.673 385.103 220.652 384.776 220.558C384.449 220.465 384.147 220.301 383.89 220.079C384.572 220.31 384.625 221.35 384.14 221.877C383.595 222.356 382.901 222.632 382.176 222.659C373.738 223.846 365.137 222.766 357.257 219.528C356.513 219.221 358.467 210.059 358.669 209.12C359.149 206.909 359.389 204.21 361.257 202.724C365.719 199.167 373.657 198.467 379.097 198.888C382.813 199.17 386.447 200.123 389.821 201.703Z" fill="#FBBEBE"/>
<path d="M275.048 186.433C273.454 188.485 271.855 190.58 270.827 192.972C268.863 197.536 269.151 202.705 269.478 207.662C269.569 209.1 269.684 210.567 270.438 211.761C271.09 212.663 271.95 213.395 272.945 213.895C277.104 216.254 281.973 216.958 286.727 217.486C294.007 218.291 301.313 218.782 308.644 218.958C326.806 219.399 345.246 217.917 362.937 222.026C360.748 218.703 360.753 214.307 361.977 210.52C363.202 206.732 365.559 203.433 367.869 200.188C359.773 197.628 351.091 201.626 342.61 201.228C333.904 200.821 325.846 195.796 317.13 195.801C315.257 195.801 313.35 196.036 311.53 195.585C309.71 195.134 307.948 193.763 307.78 191.898C310.104 192.421 312.308 190.436 313.269 188.259C314.229 186.083 314.402 183.623 315.334 181.432C317.653 175.981 323.92 173.454 327.819 168.967C328.434 168.257 329.015 167.418 328.996 166.479C328.904 165.683 328.569 164.934 328.035 164.336C324.794 160.021 319.91 157.624 315.852 154.268C314.44 153.098 311.593 148.687 310.008 148.279C307.069 147.527 304.577 151.765 302.666 153.831C293.016 164.299 283.811 175.166 275.048 186.433Z" fill="#464353"/>
<path opacity="0.07" d="M371.61 185.215C372.828 186.116 373.909 187.187 374.823 188.394C375.278 189 375.602 189.694 375.775 190.432C375.948 191.169 375.965 191.935 375.827 192.68C375.678 191.29 375.988 189.89 376.71 188.693C377.432 187.496 378.527 186.567 379.827 186.049L371.61 185.215Z" fill="black"/>
<g opacity="0.1">
<path opacity="0.1" d="M398.243 59.4882C397.679 57.9897 397.028 56.525 396.294 55.1014C395.819 55.1924 395.351 55.3125 394.892 55.4609C395.715 56.8272 396.458 58.2408 397.115 59.6943C397.485 59.5985 397.859 59.5313 398.243 59.4882Z" fill="black"/>
<path opacity="0.1" d="M426.105 78.3923C426.235 78.4977 426.36 78.6176 426.485 78.7279C426.476 78.6968 426.465 78.6663 426.451 78.6368C426.342 78.5569 426.227 78.4754 426.105 78.3923Z" fill="black"/>
<path opacity="0.1" d="M381.464 80.5018C381.714 80.3052 381.944 80.0991 382.213 79.9073L382.136 77.63L377.008 77.5772C376.177 78.3395 375.293 79.4326 375.783 80.4538L381.464 80.5018Z" fill="black"/>
<path opacity="0.1" d="M437.535 118.837C436.622 120.535 435.306 122.126 433.506 122.812C432.118 123.339 430.591 123.291 429.107 123.224C424.045 123.018 418.897 122.793 414.114 121.119C411.877 120.333 409.735 119.235 407.391 118.751C404.649 118.185 401.811 118.507 399.031 118.833L386.776 120.271C383.16 120.693 379.131 121.009 376.245 118.794C374.593 117.528 373.527 115.558 371.716 114.542C370.953 114.11 370.045 113.832 369.55 113.103C369.238 112.562 369.073 111.949 369.07 111.325C369.032 110.821 369.008 110.318 368.989 109.814C368.936 111.277 368.964 112.741 369.07 114.201C369.073 114.826 369.238 115.439 369.55 115.98C370.031 116.704 370.953 116.982 371.716 117.418C373.527 118.435 374.597 120.405 376.245 121.671C379.126 123.886 383.16 123.589 386.776 123.147L399.031 121.709C401.811 121.383 404.649 121.062 407.391 121.628C409.716 122.107 411.857 123.21 414.114 123.996C418.917 125.669 424.045 125.914 429.107 126.101C430.591 126.163 432.118 126.216 433.506 125.688C435.306 125.003 436.622 123.411 437.535 121.714C439.302 118.43 439.796 114.705 439.609 110.951C439.506 113.7 438.798 116.392 437.535 118.837Z" fill="black"/>
</g>
<path opacity="0.1" d="M398.104 62.5709L404.828 68.8036C404.828 68.8036 399.065 66.4064 398.104 62.5709Z" fill="black"/>
</g>
<defs>
<clipPath id="clip0">
<rect width="472" height="385" fill="white"/>
</clipPath>
</defs>
</svg>
