<svg width="524" height="386" viewBox="0 0 524 386" fill="none" xmlns="http://www.w3.org/2000/svg">
<g clip-path="url(#clip0)">
<path d="M524.001 142.93H303.744V149.39H524.001V142.93Z" fill="#E6E6E6"/>
<path d="M377.75 88.9041H321.951V144.692H377.75V88.9041Z" fill="#E6E6E6"/>
<path d="M366.59 100.062H333.111V133.534H366.59V100.062Z" fill="#CCCCCC"/>
<path d="M461.153 88.9041H447.057V144.692H461.153V88.9041Z" fill="#E6E6E6"/>
<path d="M461.153 97.7127H447.057V104.172H461.153V97.7127Z" fill="#CCCCCC"/>
<path d="M461.153 125.9H447.057V132.36H461.153V125.9Z" fill="#CCCCCC"/>
<path d="M439.422 88.9041H425.325V144.692H439.422V88.9041Z" fill="#E6E6E6"/>
<path d="M439.422 97.7127H425.325V104.172H439.422V97.7127Z" fill="#CCCCCC"/>
<path d="M439.422 125.9H425.325V132.36H439.422V125.9Z" fill="#CCCCCC"/>
<path d="M473.299 88.6735L460.666 94.9268L485.423 144.923L498.056 138.669L473.299 88.6735Z" fill="#E6E6E6"/>
<path d="M477.208 96.5675L464.575 102.821L467.442 108.61L480.075 102.357L477.208 96.5675Z" fill="#CCCCCC"/>
<path d="M489.717 121.829L477.084 128.082L479.951 133.871L492.584 127.618L489.717 121.829Z" fill="#CCCCCC"/>
<path d="M342.802 111.297L349.901 123.59L357 135.883H342.802H328.604L335.703 123.59L342.802 111.297Z" fill="#E6E6E6"/>
<path d="M355.137 113.646L362.235 125.939L369.334 138.232H355.137H340.939L348.038 125.939L355.137 113.646Z" fill="#E6E6E6"/>
<path d="M360.129 110.045C362.4 110.045 364.241 108.204 364.241 105.934C364.241 103.664 362.4 101.823 360.129 101.823C357.858 101.823 356.018 103.664 356.018 105.934C356.018 108.204 357.858 110.045 360.129 110.045Z" fill="#E6E6E6"/>
<path d="M303.744 60.7166L524 60.7166V54.2569L303.744 54.2569V60.7166Z" fill="#E6E6E6"/>
<path d="M449.994 56.0186L505.792 56.0186V0.230717L449.994 0.230717V56.0186Z" fill="#E6E6E6"/>
<path d="M461.154 44.861L494.633 44.861V11.3882L461.154 11.3882V44.861Z" fill="#CCCCCC"/>
<path d="M366.59 56.0186H380.687V0.230717H366.59V56.0186Z" fill="#E6E6E6"/>
<path d="M366.59 15.499L380.687 15.499V9.03932L366.59 9.03932V15.499Z" fill="#CCCCCC"/>
<path d="M366.59 43.6865H380.687V37.2269H366.59V43.6865Z" fill="#CCCCCC"/>
<path d="M388.322 56.0186H402.418V0.230717H388.322V56.0186Z" fill="#E6E6E6"/>
<path d="M388.322 15.499L402.418 15.499V9.03932L388.322 9.03932V15.499Z" fill="#CCCCCC"/>
<path d="M388.322 43.6865H402.418V37.2269H388.322V43.6865Z" fill="#CCCCCC"/>
<path d="M329.687 49.9961L342.32 56.2493L367.078 6.25333L354.445 5.32783e-05L329.687 49.9961Z" fill="#E6E6E6"/>
<path d="M347.669 13.6831L360.302 19.9364L363.168 14.1474L350.535 7.89411L347.669 13.6831Z" fill="#CCCCCC"/>
<path d="M335.16 38.9442L347.793 45.1975L350.66 39.4085L338.027 33.1552L335.16 38.9442Z" fill="#CCCCCC"/>
<path d="M484.941 22.6237L477.843 34.9167L470.744 47.2097H484.941H499.139L492.04 34.9167L484.941 22.6237Z" fill="#E6E6E6"/>
<path d="M472.606 24.9727L465.508 37.2657L458.409 49.5587H472.606H486.804L479.706 37.2657L472.606 24.9727Z" fill="#E6E6E6"/>
<path d="M467.614 21.3713C469.885 21.3713 471.726 19.5309 471.726 17.2606C471.726 14.9904 469.885 13.15 467.614 13.15C465.344 13.15 463.503 14.9904 463.503 17.2606C463.503 19.5309 465.344 21.3713 467.614 21.3713Z" fill="#E6E6E6"/>
<path d="M303.744 238.063L524 238.063V231.604L303.744 231.604V238.063Z" fill="#E6E6E6"/>
<path d="M449.994 233.365H505.792V177.577H449.994V233.365Z" fill="#E6E6E6"/>
<path d="M461.154 222.208H494.633V188.735H461.154V222.208Z" fill="#CCCCCC"/>
<path d="M366.59 233.365H380.687V177.577H366.59V233.365Z" fill="#E6E6E6"/>
<path d="M366.59 192.846H380.687V186.386H366.59V192.846Z" fill="#CCCCCC"/>
<path d="M366.59 221.033H380.687V214.574H366.59V221.033Z" fill="#CCCCCC"/>
<path d="M388.322 233.365H402.418V177.577H388.322V233.365Z" fill="#E6E6E6"/>
<path d="M388.322 192.846H402.418V186.386H388.322V192.846Z" fill="#CCCCCC"/>
<path d="M388.322 221.033H402.418V214.574H388.322V221.033Z" fill="#CCCCCC"/>
<path d="M329.687 227.343L342.32 233.596L367.078 183.6L354.445 177.347L329.687 227.343Z" fill="#E6E6E6"/>
<path d="M347.669 191.03L360.302 197.283L363.168 191.494L350.535 185.241L347.669 191.03Z" fill="#CCCCCC"/>
<path d="M335.16 216.291L347.793 222.544L350.66 216.755L338.027 210.502L335.16 216.291Z" fill="#CCCCCC"/>
<path d="M484.941 199.97L477.843 212.263L470.744 224.557H484.941H499.139L492.04 212.263L484.941 199.97Z" fill="#E6E6E6"/>
<path d="M472.606 202.319L465.508 214.612L458.409 226.906H472.606H486.804L479.706 214.612L472.606 202.319Z" fill="#E6E6E6"/>
<path d="M467.614 198.718C469.885 198.718 471.726 196.878 471.726 194.607C471.726 192.337 469.885 190.497 467.614 190.497C465.344 190.497 463.503 192.337 463.503 194.607C463.503 196.878 465.344 198.718 467.614 198.718Z" fill="#E6E6E6"/>
<path d="M259.462 386C402.759 386 518.925 377.751 518.925 367.576C518.925 357.4 402.759 349.151 259.462 349.151C116.165 349.151 0 357.4 0 367.576C0 377.751 116.165 386 259.462 386Z" fill="#E6E6E6"/>
<path d="M462.167 377.893C419.859 370.365 373.594 371.616 325.064 377.893C347.184 359.223 366.274 340.553 344.155 321.883C387.301 330.783 393.344 329.882 441.341 321.883C430.208 340.553 451.034 359.223 462.167 377.893Z" fill="#6C63FF"/>
<path opacity="0.2" d="M462.167 377.893C419.859 370.365 373.594 371.616 325.064 377.893C347.184 359.223 366.274 340.553 344.155 321.883C387.301 330.783 393.344 329.882 441.341 321.883C430.208 340.553 451.034 359.223 462.167 377.893Z" fill="black"/>
<path d="M451.848 369.928C415.909 363.919 376.609 364.918 335.385 369.928C354.174 355.025 370.391 340.123 351.601 325.22C388.252 332.324 393.386 331.605 434.157 325.22C424.701 340.123 442.391 355.025 451.848 369.928Z" fill="#6C63FF"/>
<path d="M438.16 345.916C448.735 345.916 457.309 337.345 457.309 326.771C457.309 316.197 448.735 307.625 438.16 307.625C427.584 307.625 419.011 316.197 419.011 326.771C419.011 337.345 427.584 345.916 438.16 345.916Z" fill="#2F2E41"/>
<path d="M351.232 304.564L364.5 306.776L371.134 325.937L351.969 337.729L329.855 304.564H350.495H351.232Z" fill="#A0616A"/>
<path d="M388.825 334.043C405.923 334.043 419.783 320.185 419.783 303.091C419.783 285.996 405.923 272.138 388.825 272.138C371.727 272.138 357.866 285.996 357.866 303.091C357.866 320.185 371.727 334.043 388.825 334.043Z" fill="#A0616A"/>
<path d="M217.816 190.334C217.816 190.334 142.631 198.441 129.363 196.967C116.095 195.493 110.198 194.019 110.198 194.019C110.198 194.019 101.353 205.81 105.775 210.969C108.252 213.942 111.25 216.439 114.621 218.339C114.621 218.339 122.729 216.128 128.626 218.339C134.523 220.55 194.229 230.13 204.548 221.287C214.868 212.443 217.816 190.334 217.816 190.334Z" fill="#2F2E41"/>
<path d="M222.976 354.679C222.976 354.679 173.589 340.676 164.744 278.771V272.875C164.744 272.875 154.972 290.014 151.476 293.51C147.422 297.563 133.048 334.043 133.785 337.728C134.522 341.413 133.785 342.887 133.785 342.887L112.409 340.676V334.043C112.409 334.043 123.834 299.774 124.571 291.668C125.309 283.561 152.95 227.183 152.95 227.183C152.95 227.183 163.27 205.81 180.96 227.183C198.651 248.555 200.125 263.294 200.125 263.294L222.976 307.512L222.976 354.679Z" fill="#2F2E41"/>
<path d="M112.409 191.808L88.8219 183.701C88.8219 183.701 66.7086 167.488 71.8683 183.701C77.0281 199.915 100.616 235.289 107.25 231.605C113.884 227.92 121.862 218.773 120.084 217.451C118.306 216.128 106.512 206.547 112.409 191.808Z" fill="#2F2E41"/>
<path d="M115.26 329.693L96.2191 338.99C96.2191 338.99 73.1929 342.532 86.0344 349.173C98.876 355.814 134.301 362.897 136.072 356.699C137.844 350.501 137.141 340.214 135.278 340.487C133.415 340.761 120.574 342.089 115.26 329.693Z" fill="#2F2E41"/>
<path d="M213.393 306.039C213.393 306.039 203.81 347.309 220.027 356.153C236.243 364.996 349.758 366.47 358.603 350.257C367.448 334.043 363.026 334.043 363.026 334.043L339.438 307.512L358.603 306.039C358.603 306.039 358.603 300.143 351.969 299.406C345.335 298.669 324.696 291.299 307.005 296.458C289.315 301.617 278.995 286.14 278.995 286.14L213.393 306.039Z" fill="#575A89"/>
<path d="M200.862 177.068L188.331 245.607L274.573 235.29L290.052 173.384L200.862 177.068Z" fill="#3F3D56"/>
<path d="M203.443 179.648L193.123 240.816L271.625 231.605L286.736 175.963L203.443 179.648Z" fill="white"/>
<path d="M191.28 246.344L188.331 245.607L186.857 248.555L210.445 314.145L212.663 313.297L213.393 308.987L191.28 246.344Z" fill="#B3B3B3"/>
<path d="M188.331 244.87L211.919 313.408L301.109 300.143L274.573 235.29L188.331 244.87Z" fill="#D0CDE1"/>
<path d="M200.125 242.659V246.344L265.727 238.974L264.99 235.29L200.125 242.659Z" fill="#3F3D56"/>
<path d="M201.599 250.029L211.918 278.771L278.995 270.664L267.202 243.396L201.599 250.029Z" fill="#3F3D56"/>
<path d="M285.63 290.562L283.419 284.666C283.419 284.666 266.465 255.188 257.62 261.083C248.774 266.979 276.047 295.721 276.047 295.721H284.893L285.63 290.562Z" fill="#A0616A"/>
<path d="M229.609 294.984L227.398 286.14C227.398 286.14 221.501 258.872 231.821 260.346C242.14 261.82 245.089 287.614 245.089 287.614L244.352 293.51L229.609 294.984Z" fill="#A0616A"/>
<path d="M247.3 291.299C247.3 291.299 228.135 288.351 227.398 292.773C226.661 297.195 222.975 363.522 241.403 365.733C259.831 367.944 351.232 377.525 341.65 354.679C332.068 331.833 317.325 334.78 317.325 334.78L254.671 341.413L247.3 291.299Z" fill="#575A89"/>
<path d="M305.163 299.774L285.63 286.14L272.73 296.089L288.947 313.777L305.163 299.774Z" fill="#575A89"/>
<path opacity="0.2" d="M252.829 313.04L255.777 341.045L306.638 338.097L262.411 337.36L252.829 313.04Z" fill="black"/>
<path d="M404.107 345.563C424.462 345.563 440.963 329.066 440.963 308.715C440.963 288.364 424.462 271.866 404.107 271.866C383.753 271.866 367.252 288.364 367.252 308.715C367.252 329.066 383.753 345.563 404.107 345.563Z" fill="#2F2E41"/>
<path d="M214.499 201.02L260.2 199.43L264.622 182.596L217.448 184.019L214.499 201.02Z" fill="#6C63FF"/>
<path d="M202.705 210.601L271.993 208.39L272.73 205.442L203.442 207.881L202.705 210.601Z" fill="#E6E6E6"/>
<path d="M201.231 217.971L270.52 215.76L271.257 212.812L201.968 215.251L201.231 217.971Z" fill="#E6E6E6"/>
<path d="M200.494 223.866L269.782 221.655L270.52 218.707L201.231 221.146L200.494 223.866Z" fill="#E6E6E6"/>
</g>
<defs>
<clipPath id="clip0">
<rect width="524" height="386" fill="white"/>
</clipPath>
</defs>
</svg>
