<svg width="214" height="207" viewBox="0 0 214 207" fill="none" xmlns="http://www.w3.org/2000/svg">
<path d="M117.82 194.486C114.259 194.876 110.705 195.413 107.165 196.038C102.271 196.906 97.3992 197.951 92.5272 199.054L86.7518 200.371C84.1233 200.974 81.4948 201.578 78.8662 202.159C76.2377 202.74 73.5796 203.314 70.9362 203.836C68.1078 204.395 65.272 204.91 62.4287 205.352C55.9603 206.376 49.4162 206.853 42.8666 206.779C25.7108 196.943 3.62383 183.171 1.20263 176.05C-2.69203 164.735 3.74231 157.974 8.14045 152.781C8.3379 152.555 8.53041 152.327 8.71799 152.096C13.1013 146.807 34.0851 145.873 42.2224 145.873C45.9246 145.873 51.6555 148.425 56.8459 151.221C63.0951 154.59 68.5151 158.305 68.5151 158.305L80.6285 165.662L116.687 187.556L117.82 194.486Z" fill="#68E1FD"/>
<path d="M107.401 195.806C102.49 196.682 97.601 197.735 92.7121 198.847L86.9168 200.175C84.2792 200.783 81.6415 201.392 79.0039 201.977C75.0735 200.175 71.1059 198.44 67.2646 196.415C61.1315 193.188 55.2722 189.467 49.7448 185.289C47.6793 183.724 45.6064 182.033 44.3284 179.778C42.4858 176.537 42.523 172.524 43.3997 168.897C43.6525 168.261 43.6525 167.553 43.3997 166.917C43.1063 166.514 42.7005 166.207 42.2332 166.034C39.169 164.506 36.2751 162.658 33.5996 160.523C32.5792 159.83 31.8002 158.837 31.3706 157.682C30.7317 155.316 32.9458 153.18 35.0856 151.964C39.5436 148.634 47.1444 147.298 52.3973 149.049C53.8833 149.546 55.4213 150.072 56.9742 150.636C62.5243 152.661 68.2974 155.131 73.0005 158.202C75.8903 160.19 78.5079 162.546 80.7871 165.211C82.3845 166.998 83.9002 168.867 85.4011 170.729L95.008 182.641C96.7689 184.747 98.0394 187.091 99.6071 189.279C100.885 191.074 103.121 192.313 104.86 193.685C105.715 194.33 106.591 195.042 107.401 195.806Z" fill="url(#paint0_linear)"/>
<path d="M117.82 2.14718L122.851 0L214 5.64188V149.88H204.477L117.82 2.14718Z" fill="#BDBDBD"/>
<path opacity="0.23" d="M206.787 198.365C198.358 199.538 189.832 199.858 181.339 199.32C169.509 198.579 157.813 196.128 146.05 194.707C140.915 194.053 135.747 193.702 130.571 193.655C126.798 193.656 123.027 193.853 119.275 194.247C111.739 191.87 104.715 188.442 99.5235 182.614C91.758 173.898 89.7628 161.583 88.8802 149.95C86.5604 118.924 89.8951 87.7345 98.7225 57.8963C99.1228 56.1648 99.8613 54.5292 100.896 53.083C103.684 49.6914 109.277 49.8173 112.837 52.3869C116.397 54.9565 118.273 59.2589 119.401 63.4946C121.834 72.677 120.469 84.2661 112.184 88.9239C116.508 95.322 111.235 105.674 116.835 110.991C118.526 112.598 120.855 113.294 122.924 114.361C129.243 117.626 133.1 124.454 134.502 131.392C135.903 138.331 135.191 145.559 134.457 152.63C134.249 154.6 134.071 156.718 135.05 158.436C136.156 160.376 138.41 161.287 140.509 162.028C153.014 166.404 166.053 169.285 178.187 174.616C188.756 179.237 200.616 186.672 206.208 197.195C206.423 197.602 206.616 197.98 206.787 198.365Z" fill="#68E1FD"/>
<path d="M125.835 11.2209V100.2L194.719 132.247L197.168 18.5756L125.835 11.2209Z" fill="white"/>
<path opacity="0.23" d="M176.558 80.8483C176.582 80.6607 176.535 80.471 176.428 80.3174C176.362 80.2569 176.285 80.2111 176.201 80.1827C176.118 80.1544 176.029 80.1443 175.941 80.1529C175.352 80.1469 174.773 80.3031 174.262 80.6055C173.752 80.9079 173.329 81.3455 173.038 81.8728C173.996 82.6205 174.823 83.7198 174.649 84.9312C174.475 86.1426 172.849 86.9951 172.036 86.1052C171.593 85.6117 171.52 84.7891 170.962 84.4526C170.804 84.3862 170.635 84.3529 170.465 84.3547C170.295 84.3565 170.127 84.3933 169.97 84.463C169.814 84.5326 169.673 84.6338 169.555 84.7604C169.437 84.887 169.345 85.0366 169.285 85.2004C169.079 85.8824 169.061 86.6099 169.234 87.3016C169.946 87.3265 170.645 87.5067 171.284 87.8302C171.923 88.1538 172.489 88.6133 172.943 89.1786C172.521 89.4675 172.033 89.6376 171.528 89.6721C171.017 89.7097 170.54 89.9512 170.199 90.3451C169.909 90.7713 170.098 91.5341 170.606 91.564C170.765 91.3555 170.969 91.187 171.201 91.0711C171.433 90.9553 171.687 90.8951 171.945 90.8951C172.203 90.8951 172.457 90.9553 172.689 91.0711C172.921 91.187 173.125 91.3555 173.284 91.564C173.096 92.4987 172.225 93.0595 171.644 93.8073C171.063 94.5551 170.918 95.9385 171.811 96.2451C172.527 95.7383 173.068 95.0104 173.357 94.1663H174.635C175.005 94.9589 174.635 95.8862 174.424 96.7237C174.214 97.5612 174.141 98.6529 174.838 99.1465C175.535 99.64 176.399 99.2736 177.125 98.9147C176.772 98.2534 176.63 97.495 176.718 96.7461C176.892 95.9983 177.742 95.4225 178.359 95.8189C178.976 96.2152 178.896 97.0452 178.874 97.7481C178.852 98.451 179.15 99.3633 179.832 99.3409C180.515 99.3185 180.769 98.3314 180.558 97.6584C180.348 96.9854 179.832 96.3872 179.832 95.6693C180.263 95.5059 180.725 95.45 181.181 95.5061C181.636 95.5623 182.073 95.7289 182.454 95.9923C182.835 96.2557 183.15 96.6084 183.373 97.0215C183.596 97.4346 183.721 97.8963 183.738 98.3688C184.17 97.9107 184.435 97.3127 184.488 96.6761C184.541 96.0396 184.379 95.4038 184.028 94.8767C183.81 94.6265 183.629 94.3442 183.491 94.0391C183.426 93.6758 183.502 93.3009 183.701 92.9938C183.9 92.6867 184.208 92.4716 184.558 92.394C185.269 92.275 185.998 92.3524 186.671 92.6184C186.983 91.8706 186.315 91.048 185.56 90.891C184.79 90.8122 184.014 90.9709 183.331 91.3471C183.331 90.5994 184.173 90.1806 184.819 89.8067C185.465 89.4328 186.068 88.4906 185.509 87.9896C184.95 87.4886 184.108 88.2513 183.781 88.9617C183.455 89.6721 182.881 90.562 182.163 90.2928C181.437 89.8815 181.879 88.685 182.511 88.1018C183.143 87.5185 183.963 86.7184 183.571 85.9332C183.251 85.5144 182.584 85.8136 182.228 86.2024C181.872 86.5913 181.466 87.0923 180.95 86.9951C180.435 86.8978 180.224 86.1276 180.42 85.5967C180.686 85.09 181.029 84.6305 181.437 84.2358C181.637 84.0342 181.776 83.7774 181.838 83.4961C181.9 83.2149 181.882 82.9212 181.785 82.6505C181.624 82.5186 181.438 82.4235 181.239 82.3714C181.039 82.3193 180.832 82.3114 180.629 82.3481C180.427 82.3849 180.234 82.4655 180.064 82.5846C179.894 82.7038 179.751 82.8588 179.644 83.0393C179.478 83.5929 179.349 84.1575 179.259 84.7293C179.07 85.2826 178.351 85.7313 177.967 85.3051C177.684 84.9985 177.763 83.8619 177.742 83.5254C177.488 83.8619 177.081 84.161 176.863 84.4302C176.275 83.6226 176.558 82.0074 176.558 80.8483Z" fill="#68E1FD"/>
<path opacity="0.46" d="M179.807 42.9507C179.821 42.8179 179.791 42.6841 179.721 42.5723C179.668 42.5327 179.608 42.5049 179.544 42.4906C179.48 42.4763 179.415 42.4758 179.351 42.4891C178.95 42.4877 178.556 42.599 178.209 42.8117C177.862 43.0244 177.575 43.3309 177.376 43.7C177.723 43.9241 178.008 44.2417 178.202 44.6205C178.396 44.9994 178.492 45.426 178.481 45.857C178.367 46.7122 177.247 47.3177 176.691 46.6895C176.384 46.3414 176.342 45.7586 175.978 45.524C175.87 45.4767 175.753 45.4531 175.636 45.4547C175.519 45.4563 175.403 45.4829 175.296 45.5331C175.189 45.5833 175.092 45.656 175.012 45.7467C174.932 45.8375 174.87 45.9445 174.83 46.0614C174.692 46.5553 174.692 47.0811 174.83 47.5751C175.317 47.5935 175.795 47.721 176.233 47.9492C176.67 48.1775 177.057 48.5013 177.368 48.8995C177.077 49.1043 176.74 49.2244 176.392 49.2477C176.043 49.2767 175.719 49.4475 175.486 49.7245C175.286 50.0272 175.415 50.557 175.764 50.5873C175.873 50.4395 176.012 50.3199 176.171 50.2376C176.329 50.1554 176.504 50.1126 176.68 50.1126C176.857 50.1126 177.031 50.1554 177.19 50.2376C177.349 50.3199 177.488 50.4395 177.597 50.5873C177.468 51.2457 176.884 51.662 176.477 52.1842C176.071 52.7065 175.992 53.6979 176.591 53.9023C177.08 53.5461 177.449 53.0347 177.646 52.4416H178.524C178.678 53.041 178.628 53.6793 178.381 54.2429C178.217 54.8408 178.181 55.5976 178.659 55.9533C178.911 56.0706 179.187 56.1169 179.46 56.0877C179.734 56.0585 179.996 55.9549 180.221 55.7868C179.985 55.3241 179.89 54.7953 179.95 54.2731C180.064 53.7585 180.663 53.3422 181.069 53.6222C181.476 53.9023 181.433 54.485 181.426 54.977C181.419 55.4689 181.611 56.1198 182.082 56.1047C182.552 56.0896 182.716 55.3933 182.559 54.9164C182.32 54.4822 182.149 54.0092 182.053 53.5163C182.347 53.3943 182.665 53.3496 182.979 53.386C183.293 53.4224 183.595 53.5388 183.857 53.7253C184.12 53.9119 184.336 54.1631 184.487 54.4574C184.639 54.7518 184.721 55.0806 184.727 55.416C185.023 55.0938 185.205 54.6726 185.242 54.224C185.278 53.7755 185.167 53.3274 184.927 52.9562C184.777 52.779 184.653 52.5803 184.556 52.3659C184.511 52.1125 184.56 51.8505 184.693 51.6347C184.826 51.4189 185.032 51.266 185.269 51.2079C185.749 51.1205 186.243 51.1755 186.695 51.3668C186.909 50.8522 186.453 50.2543 185.939 50.1408C185.412 50.0907 184.882 50.2037 184.413 50.4662C184.413 49.9288 184.984 49.6412 185.433 49.3839C185.882 49.1266 186.289 48.453 185.904 48.0973C185.519 47.7416 184.948 48.2789 184.72 48.7784C184.492 49.278 184.1 49.9137 183.615 49.7245C183.13 49.5353 183.422 48.5892 183.85 48.2108C184.278 47.8324 184.834 47.2345 184.563 46.6971C184.342 46.4019 183.85 46.6139 183.643 46.8863C183.436 47.1588 183.123 47.5145 182.766 47.4464C182.41 47.3783 182.26 46.8409 182.403 46.4625C182.593 46.1059 182.834 45.7819 183.116 45.5013C183.223 45.4231 183.311 45.3178 183.371 45.1949C183.431 45.0719 183.462 44.9351 183.46 44.7967C183.458 44.6582 183.424 44.5223 183.361 44.4012C183.298 44.28 183.207 44.1773 183.098 44.1022C182.988 44.0272 182.863 43.982 182.732 43.9708C182.602 43.9596 182.472 43.9826 182.352 44.038C182.233 44.0933 182.128 44.1791 182.047 44.2879C181.966 44.3966 181.912 44.5249 181.889 44.6612C181.775 45.0529 181.687 45.4524 181.625 45.857C181.497 46.243 181.005 46.5609 180.741 46.2581C180.477 45.9554 180.606 45.244 180.584 45.0018C180.413 45.2364 180.135 45.4483 179.985 45.6451C179.622 44.911 179.807 43.7681 179.807 42.9507Z" fill="#68E1FD"/>
<path opacity="0.46" d="M149.681 19.6943C149.694 19.5716 149.662 19.4483 149.59 19.3453C149.54 19.305 149.482 19.2747 149.419 19.2563C149.356 19.2379 149.29 19.2318 149.224 19.2384C148.796 19.2371 148.376 19.3419 148.005 19.5421C147.635 19.7423 147.328 20.0308 147.115 20.3781C147.487 20.5879 147.792 20.8866 147.999 21.2434C148.207 21.6002 148.309 22.0022 148.295 22.4082C148.173 23.2059 146.978 23.7758 146.384 23.1846C146.057 22.864 146.011 22.3156 145.623 22.0876C145.506 22.0453 145.382 22.025 145.257 22.0279C145.132 22.0308 145.009 22.0569 144.895 22.1046C144.781 22.1523 144.679 22.2207 144.593 22.3058C144.508 22.3909 144.441 22.4911 144.397 22.6005C144.241 23.0625 144.228 23.5563 144.359 24.0251C144.879 24.0411 145.389 24.1598 145.856 24.3734C146.323 24.587 146.737 24.8907 147.069 25.2645C146.763 25.4623 146.405 25.578 146.034 25.5992C145.663 25.6239 145.316 25.7822 145.067 26.0409C144.854 26.3258 144.991 26.8315 145.364 26.8529C145.481 26.7149 145.63 26.6035 145.799 26.5269C145.968 26.4503 146.154 26.4105 146.342 26.4105C146.53 26.4105 146.716 26.4503 146.886 26.5269C147.055 26.6035 147.204 26.7149 147.321 26.8529C147.184 27.4797 146.559 27.8643 146.125 28.3629C145.691 28.8615 145.608 29.7875 146.247 29.9798C146.767 29.6403 147.161 29.1572 147.374 28.598H148.31C148.476 29.1645 148.422 29.7674 148.158 30.3004C147.983 30.856 147.945 31.5754 148.455 31.903C148.724 32.0131 149.018 32.0571 149.31 32.0309C149.601 32.0047 149.881 31.9092 150.123 31.7535C149.873 31.3174 149.772 30.8202 149.833 30.3289C149.955 29.8445 150.595 29.4528 151.029 29.7163C151.463 29.9799 151.417 30.5354 151.409 30.9984C151.402 31.4614 151.607 32.0669 152.11 32.0597C152.612 32.0526 152.787 31.3475 152.62 30.9343C152.362 30.5267 152.179 30.0812 152.079 29.6166C152.394 29.5035 152.732 29.4627 153.067 29.4977C153.402 29.5327 153.723 29.6425 154.003 29.8177C154.282 29.993 154.513 30.2286 154.675 30.5047C154.838 30.7809 154.926 31.0894 154.934 31.4044C155.251 31.1013 155.445 30.7048 155.484 30.2827C155.523 29.8605 155.404 29.4388 155.148 29.0895C154.988 28.9253 154.855 28.7406 154.752 28.541C154.704 28.3017 154.756 28.0542 154.898 27.8499C155.039 27.6456 155.26 27.5003 155.513 27.4441C156.026 27.3695 156.551 27.4211 157.036 27.5937C157.264 27.1093 156.777 26.5466 156.229 26.4469C155.665 26.3925 155.097 26.4992 154.599 26.7532C154.599 26.2474 155.209 25.9767 155.688 25.7274C156.168 25.4781 156.602 24.8584 156.191 24.5237C155.78 24.1889 155.17 24.6946 154.927 25.1647C154.683 25.6349 154.264 26.2332 153.747 26.048C153.229 25.8628 153.541 24.9795 153.998 24.6234C154.455 24.2672 155.049 23.7045 154.759 23.1988C154.523 22.921 153.998 23.1204 153.777 23.3769C153.556 23.6333 153.214 23.9681 152.841 23.904C152.468 23.8399 152.3 23.327 152.452 22.9709C152.656 22.6375 152.913 22.3349 153.214 22.0734C153.358 21.9377 153.458 21.7671 153.504 21.5808C153.55 21.3945 153.539 21.2 153.473 21.0192C153.355 20.9307 153.219 20.8666 153.073 20.8314C152.927 20.7961 152.775 20.7904 152.626 20.8147C152.478 20.839 152.336 20.8927 152.212 20.9722C152.087 21.0516 151.982 21.1551 151.904 21.2756C151.783 21.6442 151.688 22.0202 151.622 22.401C151.485 22.7643 150.96 23.0635 150.678 22.7857C150.397 22.5079 150.534 21.8241 150.511 21.5961C150.328 21.8241 150.031 22.0235 149.871 22.2016C149.483 21.5392 149.681 20.4636 149.681 19.6943Z" fill="#68E1FD"/>
<path opacity="0.25" d="M151.171 81.8696C151.33 81.7398 151.436 81.5545 151.471 81.349C151.464 81.2452 151.437 81.1441 151.39 81.0519C151.344 80.9597 151.279 80.8785 151.2 80.8132C150.734 80.337 150.154 79.9963 149.519 79.8253C148.884 79.6544 148.216 79.6594 147.583 79.8398C147.796 81.198 147.583 82.7751 146.529 83.6127C145.474 84.4503 143.505 83.8013 143.541 82.428C143.541 81.6734 144.135 80.9566 143.944 80.2322C143.784 79.8704 143.492 79.5882 143.132 79.4469C142.771 79.3056 142.371 79.3167 142.018 79.4776C141.329 79.8524 140.755 80.4199 140.364 81.115C140.917 81.7142 141.34 82.4278 141.605 83.2083C141.87 83.9889 141.971 84.8186 141.901 85.6425C141.34 85.5338 140.817 85.2734 140.386 84.8879C139.948 84.4997 139.38 84.3045 138.804 84.3446C138.248 84.4578 137.823 85.2124 138.196 85.65C138.484 85.6143 138.775 85.6459 139.05 85.7424C139.324 85.8389 139.573 85.9978 139.779 86.2074C139.985 86.417 140.143 86.6718 140.24 86.9528C140.338 87.2339 140.372 87.534 140.342 87.8307C139.47 88.4269 138.328 88.1929 137.288 88.3212C136.249 88.4495 135.092 89.4455 135.56 90.4038C136.521 90.5777 137.51 90.4352 138.387 89.9964L139.397 91.0528C139.082 91.9809 138.101 92.4487 137.266 92.9317C136.432 93.4146 135.568 94.2371 135.743 95.1954C135.919 96.1537 136.9 96.5611 137.75 96.863C137.972 96.0469 138.442 95.3253 139.09 94.803C139.822 94.3503 140.92 94.5691 141.111 95.3916C141.301 96.214 140.598 96.8102 140.049 97.3535C139.5 97.8967 139.038 98.8626 139.595 99.4059C140.151 99.9492 141.118 99.3531 141.44 98.6513C141.762 97.9496 141.835 97.0365 142.37 96.4631C142.848 96.6723 143.269 96.9979 143.597 97.4119C143.926 97.8258 144.152 98.3158 144.257 98.8397C144.361 99.3636 144.341 99.9058 144.197 100.42C144.053 100.934 143.791 101.404 143.432 101.79C144.132 101.781 144.807 101.52 145.342 101.053C145.876 100.587 146.236 99.9428 146.36 99.2323C146.376 98.8568 146.445 98.4856 146.565 98.1307C146.792 97.7866 147.14 97.547 147.535 97.4624C147.93 97.3779 148.341 97.4552 148.682 97.6779C149.343 98.1576 149.866 98.8118 150.197 99.5719C151.003 99.2474 151.12 98.0627 150.637 97.3082C150.078 96.6201 149.334 96.1185 148.499 95.8669C149.077 95.2482 150.065 95.6104 150.871 95.8669C151.676 96.1235 152.877 95.8669 152.811 94.969C152.745 94.0711 151.493 94.0409 150.688 94.3427C149.882 94.6445 148.74 94.8935 148.374 94.0937C148.081 93.158 149.377 92.5846 150.329 92.6223C151.281 92.66 152.526 92.6826 152.833 91.747C152.899 91.1509 152.101 90.849 151.552 90.8717C151.003 90.8943 150.263 90.9622 149.926 90.4717C149.59 89.9813 150 89.1739 150.571 88.9173C151.172 88.7342 151.796 88.6452 152.423 88.6532C152.732 88.6476 153.033 88.5526 153.292 88.3792C153.551 88.2058 153.757 87.9608 153.888 87.6723C153.862 87.4354 153.788 87.2069 153.67 87.0023C153.551 86.7976 153.391 86.6217 153.201 86.4864C153.011 86.3511 152.794 86.2596 152.567 86.2181C152.339 86.1767 152.105 86.1862 151.881 86.2461C151.274 86.4423 150.849 87.0007 150.278 87.2874C149.707 87.5742 148.813 87.3478 148.813 86.6913C148.813 86.216 149.758 85.3784 150 85.0841C149.538 85.152 148.989 85.0841 148.601 85.0841C148.828 83.8768 150.278 82.7977 151.171 81.8696Z" fill="#68E1FD"/>
<path opacity="0.39" d="M145.873 47.1445C145.873 47.1445 131.613 81.4973 141.313 107.401L129.843 101.768C129.843 101.768 135.224 60.2631 130.331 50.25L135.323 67.0373L139.571 39.2734L137.844 63.2499C137.844 63.2499 142.049 51.258 145.873 47.1445Z" fill="#68E1FD"/>
<path opacity="0.23" d="M163.284 29.9028C164.088 30.3496 165.091 30.4091 165.814 30.99C167.636 32.4792 166.279 35.7036 167.695 37.5652C168.293 38.3098 169.259 38.7119 170.011 39.33C170.791 39.9907 171.308 40.9133 171.468 41.9283C171.628 42.9432 171.42 43.9824 170.881 44.8546C170.343 45.7269 169.511 46.3737 168.538 46.6762C167.565 46.9786 166.517 46.9164 165.586 46.5009C163.808 45.6744 162.06 43.5819 160.363 44.5574C159.685 44.952 159.316 45.7563 158.644 46.1584C157.619 46.7913 156.321 46.2999 155.163 45.9871C153.233 45.492 151.207 45.5272 149.295 46.0889C147.384 46.6506 145.656 47.7184 144.29 49.1816L140.978 49.5688L140.676 52.9197C139.788 52.204 138.707 51.7756 137.573 51.6906C136.44 51.6055 135.308 51.8678 134.325 52.4432L130.091 50.6039C130.299 51.658 130.14 52.7521 129.642 53.7018C129.143 54.6514 128.335 55.3983 127.355 55.8164C126.347 56.1809 125.248 56.2004 124.229 55.8721C123.209 55.5437 122.324 54.8857 121.712 53.9995C120.667 39.5361 120.817 25.0099 122.162 10.5718C127.775 9.86439 135.395 8.80699 140.883 10.6314C144.652 11.8898 145.618 14.4067 148.104 17.1247C151.445 20.7883 154.61 19.5299 158.195 21.7042C161.197 23.5807 160.238 28.2199 163.284 29.9028Z" fill="#68E1FD"/>
<path d="M145.873 194.502C140.768 193.849 135.628 193.498 130.482 193.452C117.745 193.452 105.266 195.93 92.8101 198.772C90.9221 197.861 88.9899 196.914 87.0576 195.945C79.2918 192.046 71.6218 187.806 67.8163 184.551C58.4575 176.575 62.6538 164.307 62.6538 164.307L87.0724 165.913L110.186 167.437C110.186 167.437 129.567 170.478 134.715 176.108C137.562 179.223 142.422 187.414 145.873 194.502Z" fill="#080608"/>
<path d="M110.26 112.964L108.042 100.606C107.792 98.9046 107.379 97.2314 106.808 95.6093C105.451 92.4146 103.183 89.6899 100.289 87.7745C97.4049 85.8763 94.3028 84.3327 91.0494 83.1772C86.7772 81.5141 81.4406 83.5985 76.954 84.5815C72.9775 85.4537 68.8235 86.3998 65.6378 88.8906C62.2747 91.4998 60.2938 95.5428 59.2221 99.6671C58.1503 103.791 57.8842 108.064 57.3003 112.284C56.5088 117.947 55.1417 123.514 53.2202 128.9C52.6215 130.555 51.9711 132.27 52.1189 134.022C52.2667 135.774 53.235 137.414 54.1737 138.944L60.826 149.758C57.3299 153.904 58.0025 160.889 62.2156 164.297C65.6747 167.09 70.4644 167.334 74.8992 167.46L104.849 168.295C106.571 168.347 108.412 168.362 109.853 167.416C112.071 165.937 112.433 162.826 112.344 160.143C112.209 155.944 111.591 151.775 110.504 147.718C110.238 146.705 109.934 145.611 110.326 144.636C110.752 143.852 111.364 143.184 112.108 142.692C114.271 140.876 115.983 138.584 117.109 135.994C118.235 133.405 118.744 130.589 118.597 127.769C118.228 122.144 115.012 115.987 110.26 112.964Z" fill="#FFF5E5"/>
<path d="M74.8653 118.458C75.9298 112.639 75.5853 106.636 73.8627 100.989C74.3048 105.893 74.4117 110.823 74.1827 115.743C74.0761 118.008 73.8698 120.369 72.7606 122.324C72.2099 120.513 71.3153 118.835 70.1296 117.388C70.3483 119.213 70.2398 121.064 69.8096 122.848C69.5844 123.737 69.1733 124.564 68.6056 125.271C68.0379 125.977 67.3274 126.545 66.5244 126.935C67.2355 127.975 68.5083 128.358 69.6318 128.867C70.7553 129.376 71.9357 130.284 71.9357 131.56C71.9357 132.158 71.6655 132.792 71.9357 133.323C72.4121 134.282 73.8058 133.758 74.6449 133.124C76.4084 131.796 84.664 127.289 83.1778 124.574C81.6917 121.859 76.2377 125.629 74.4174 126.13C73.4645 123.814 74.4387 120.789 74.8653 118.458Z" fill="url(#paint1_linear)"/>
<path d="M74.6742 150.187L62.3151 149.565C62.0233 149.53 61.7274 149.563 61.45 149.662C60.5267 150.091 60.8102 151.594 60.1123 152.335C65.2013 151.979 70.1086 153.734 74.8777 155.481C76.4335 156.051 78.2583 156.607 79.6687 155.718C80.1166 155.337 80.6042 155.007 81.1227 154.733C81.9371 154.572 82.7815 154.731 83.4855 155.178C87.8722 157.295 92.1479 159.643 96.2953 162.212C96.5348 162.415 96.8158 162.56 97.1176 162.638C97.4194 162.717 97.7346 162.725 98.0401 162.663C98.3743 162.496 98.6581 162.241 98.8616 161.923L102.337 157.421C102.452 157.289 102.537 157.132 102.584 156.962C102.642 156.607 102.366 156.296 102.119 156.051C98.665 152.654 95.5302 148.936 92.7548 144.945C90.4865 141.672 88.0365 137.918 84.1689 137.156C81.6752 136.667 76.0482 138.007 74.6669 140.502C74.2598 141.176 75.3067 150.217 74.6742 150.187Z" fill="url(#paint2_linear)"/>
<path d="M110.864 55.7023C111.21 63.9891 109.467 72.3963 111.408 80.4269L106.996 80.8563C106.908 81.6422 106.908 82.4359 106.996 83.2218C104.462 83.3574 101.925 83.3901 99.3857 83.3198C100.43 83.3198 102.224 73.6167 102.437 72.5093C103.173 68.7426 103.643 64.9232 104.298 61.1339C104.879 57.7891 105.268 53.0882 107.033 50.1427C109.666 45.7959 110.798 54.0374 110.864 55.7023Z" fill="#32406A"/>
<path d="M108.937 67.4565C109.335 68.3341 109.896 69.2192 109.793 70.1787C109.601 71.8745 107.579 72.5737 106.391 73.7786C104.346 75.8166 104.664 79.4165 102.701 81.5512C102.117 82.1293 101.425 82.5847 100.665 82.8912C99.9046 83.1976 99.0917 83.3489 98.2732 83.3362C96.6267 83.2962 94.9933 83.031 93.4176 82.5478C92.0893 83.6337 92.1926 85.6643 92.4435 87.3675C92.6944 89.0708 92.8789 91.0865 91.617 92.2468C90.178 93.5781 87.8314 92.879 86.2227 91.7633C83.3152 89.7402 81.2784 86.6609 79.8763 83.3957C78.5876 80.0871 77.537 76.6891 76.7327 73.2282C75.1904 67.4565 73.3603 61.231 75.5446 55.6749C77.205 51.4428 81.0718 48.3189 85.3519 46.8611C89.6319 45.4033 94.3031 45.4479 98.7677 46.1992C102.096 46.757 107.948 48.3413 108.789 52.2759C109.866 57.3187 106.634 62.4285 108.937 67.4565Z" fill="#FDC0AD"/>
<path d="M93.5657 58.804C92.7285 58.7784 91.9029 59.0018 91.197 59.4451C90.8328 59.8004 90.5581 60.2345 90.3949 60.7127C87.1464 68.383 86.4101 76.858 88.2886 84.9588C86.285 84.3733 84.3521 83.5752 82.5242 82.5784C82.989 83.448 81.5873 84.2586 80.6503 83.9196C79.7133 83.5806 79.0761 82.6963 78.1616 82.3057C77.5971 82.1025 77.007 81.9761 76.4076 81.9298C73.6149 81.5304 71.017 80.2894 68.9717 78.3777C68.462 73.4253 65.576 69.033 64.2943 64.2133C63.6278 61.4618 63.3081 58.6402 63.3423 55.8119C63.2383 53.73 63.4737 51.6451 64.0394 49.6362C64.8639 47.0863 66.558 44.9049 68.2296 42.7898C69.2589 41.3514 70.4876 40.0615 71.8801 38.9576C73.3994 37.9352 75.1084 37.2165 76.9098 36.8425C82.9965 35.3686 89.4354 36.1719 95.4846 37.7858C99.3075 38.8028 103.138 40.2104 106.121 42.7677C109.105 45.325 111.121 49.2603 110.491 53.0852C109.704 50.9931 108.132 49.2765 106.099 48.2875C103.235 47.0789 103.888 49.592 103.1 51.5596C102.313 53.4933 101.013 55.1847 99.3365 56.4584C97.66 57.7322 95.6676 58.542 93.5657 58.804Z" fill="#32406A"/>
<path d="M117.82 2.40454V109.227L204.371 149.88L207.588 9.81084L117.82 2.40454ZM194.321 131.963L126.04 99.8839V10.8013L196.749 18.1928L194.321 131.963Z" fill="#68E1FD"/>
<path d="M117.82 2.40454V109.227L204.371 149.88L207.588 9.81084L117.82 2.40454ZM194.321 131.963L126.04 99.8839V10.8013L196.749 18.1928L194.321 131.963Z" fill="#828282"/>
<path d="M114.483 113.813C109.648 115.574 105.047 117.922 100.786 120.804C97.2697 117.024 92.5452 114.585 87.4245 113.908L86.7743 115.491C86.3082 115.36 85.885 115.108 85.547 114.761C84.7062 115.781 83.9719 116.884 83.3555 118.053C86.0413 121.076 87.998 124.673 89.0755 128.569C89.2488 129.445 89.5595 130.287 89.9959 131.065C90.2219 131.452 90.5521 131.766 90.9486 131.974C91.3451 132.182 91.7921 132.274 92.2386 132.24C92.652 132.148 93.0438 131.977 93.3928 131.737C98.6088 128.657 103.922 125.738 109.333 122.979C111.524 121.863 115.513 120.79 117.164 118.994C117.499 118.682 117.721 118.267 117.794 117.815C117.867 117.363 117.786 116.9 117.566 116.498C116.667 114.878 115.623 116.017 114.278 116.447C114.315 115.615 114.403 114.703 114.483 113.813Z" fill="white"/>
<path d="M81.7943 116.925C80.2691 126.849 79.4596 136.87 79.3722 146.91C79.2824 147.68 79.4507 148.457 79.8508 149.121C80.3932 149.661 81.0906 150.02 81.8459 150.145C89.647 152.26 97.0295 155.694 103.674 160.3C105.767 155.613 109.446 151.816 114.062 149.578C114.839 149.295 115.537 148.833 116.101 148.229C116.533 147.554 116.786 146.781 116.838 145.981C118.236 136.062 119.633 126.141 121.027 116.217C121.027 116.49 110.918 119.998 109.844 120.58C107.149 122.054 102.769 126.659 99.5368 126.475C96.8497 126.298 95.6349 123.218 93.5957 121.7C90.2386 119.158 85.8214 117.647 81.7943 116.925Z" fill="#F05E5F"/>
<path d="M79.7561 126.637C80.4199 127.032 79.8095 128.099 80.0918 128.779C80.2155 129.025 80.4084 129.233 80.6488 129.379C82.0756 130.352 83.9907 130.242 85.6464 130.769C86.2568 130.959 86.9434 131.5 86.7298 132.056C86.64 132.213 86.517 132.351 86.3685 132.461C86.2201 132.57 86.0495 132.649 85.8676 132.692L83.6855 133.533H86.3636C86.768 133.533 87.2868 133.628 87.3554 134.001C87.4241 134.374 87.0503 134.593 86.7298 134.732C85.8219 135.186 84.8834 135.603 83.9373 135.983C84.6563 135.902 85.3806 135.873 86.1042 135.895C86.5009 135.895 87.0274 136.049 87.0274 136.436C87.0274 136.824 86.6917 136.912 86.4094 137.029L80.748 139.347C78.1081 140.429 75.4071 141.541 72.5764 141.833C72.3724 141.882 72.1581 141.875 71.9584 141.812C71.7257 141.666 71.5551 141.446 71.4777 141.19C70.8741 139.745 70.5559 138.205 70.5392 136.648C70.5103 136.36 70.5714 136.07 70.7147 135.815C70.9004 135.602 71.1356 135.434 71.4014 135.325C72.4195 134.779 73.2574 133.971 73.8201 132.992C74.5831 131.654 74.873 130.132 75.903 128.918C76.9331 127.704 78.3446 127.185 79.7561 126.637Z" fill="#FDC0AD"/>
<path d="M114.726 127.863C114.313 127.966 113.805 128.268 113.931 128.673C114.004 128.909 114.269 129.027 114.497 129.108L117.384 130.176C116.297 130.09 115.204 130.218 114.166 130.552C114.004 130.603 113.82 130.692 113.813 130.854C113.805 131.016 113.975 131.141 114.129 131.215L117.023 132.629C116.164 132.576 115.308 132.762 114.549 133.167C114.387 133.255 114.21 133.388 114.21 133.572C114.21 133.756 114.358 133.866 114.497 133.962C115.064 134.359 115.678 134.686 116.323 134.935C115.986 134.888 115.643 134.934 115.329 135.067C115.255 135.105 115.188 135.156 115.134 135.22C115.079 135.283 115.038 135.357 115.012 135.436C114.986 135.515 114.976 135.599 114.982 135.683C114.989 135.766 115.012 135.847 115.05 135.922C115.123 136.02 115.219 136.098 115.329 136.15L117.722 137.623C117.843 137.724 117.986 137.795 118.14 137.831C118.293 137.867 118.453 137.866 118.606 137.829C118.945 137.697 119.026 137.262 119.062 136.901C119.107 136.341 119.143 135.782 119.165 135.222C119.161 134.758 119.213 134.296 119.32 133.844C119.497 133.37 119.698 132.905 119.924 132.452C120.439 131.185 120.336 129.056 119.269 128.032C118.201 127.008 115.963 127.553 114.726 127.863Z" fill="#FDC0AD"/>
<path d="M157.094 14.427V116.429L162.704 120.225V14.427H157.094Z" fill="#68E1FD"/>
<path d="M195.41 72.1348L125.835 55.5693V48.8914L195.565 65.5012L195.41 72.1348Z" fill="#68E1FD"/>
<path d="M195.565 66.19L195.41 72.8278L162.586 65.006V120.225L157.009 116.429V63.6814L125.835 56.2518V49.5696L157.009 56.9992V14.427H162.586V58.3238L195.565 66.19Z" fill="#E0E0E0"/>
<path d="M71.3333 203.809C68.4891 204.373 65.6374 204.893 62.7782 205.339C56.2736 206.372 49.6928 206.854 43.1065 206.779C25.8548 196.853 3.64412 182.954 1.20936 175.768C-2.7071 164.349 3.76325 157.526 8.18602 152.285C8.71812 158.51 11.6322 164.292 16.3242 168.432C25.6463 176.815 58.549 196.333 71.3333 203.809Z" fill="url(#paint3_linear)"/>
<path opacity="0.23" d="M146.14 12.824L125.835 48.8969L135.987 51.2959L156.73 18.218L157.093 13.9499L146.14 12.824Z" fill="#68E1FD"/>
<path opacity="0.23" d="M185.272 16.8315L162.704 58.4962L172.877 60.9139L196.804 22.1342L197.169 17.8402L185.272 16.8315Z" fill="#68E1FD"/>
<path opacity="0.23" d="M189.323 70.5317L162.704 117.827L172.841 120.225L195.469 83.7307L195.566 72.7598L189.323 70.5317Z" fill="#68E1FD"/>
<path opacity="0.23" d="M150.753 61.7153L125.835 99.8551L134.927 104.195L157.004 73.3961L157.093 63.2161L150.753 61.7153Z" fill="#68E1FD"/>
<path opacity="0.36" d="M145.853 85.7123C145.679 85.6465 145.595 85.4637 145.489 85.3248C145.31 85.1251 145.06 84.9972 144.787 84.9661C144.515 84.935 144.241 85.003 144.018 85.1567C143.806 85.3225 143.646 85.5433 143.559 85.7931C143.472 86.0429 143.46 86.3115 143.525 86.5675C143.601 86.7657 143.601 86.9833 143.525 87.1815C143.46 87.2746 143.371 87.3501 143.267 87.4008C142.972 87.5595 142.655 87.6799 142.327 87.759C142.042 87.789 141.775 87.9099 141.569 88.1026C141.457 88.3319 141.396 88.5806 141.387 88.8336C141.348 89.0225 141.264 89.2 141.141 89.3523C141.019 89.5045 140.862 89.6272 140.682 89.7108C140.454 89.8204 140.174 89.8643 140.007 90.0543C139.91 90.1788 139.857 90.3299 139.855 90.4856C139.854 90.8531 139.903 91.2192 139.999 91.5748C140.046 91.7521 140.053 91.9368 140.02 92.1169C139.987 92.297 139.916 92.4685 139.81 92.6201C139.643 92.8101 139.37 93.0221 139.491 93.2414C139.537 93.305 139.6 93.3555 139.673 93.3876C140.165 93.6649 140.704 93.8555 141.266 93.9505C141.478 93.9505 141.728 94.0382 141.819 94.2283C141.853 94.3627 141.853 94.5032 141.819 94.6376C141.81 94.8351 141.849 95.032 141.934 95.2122C142.018 95.3925 142.145 95.5512 142.304 95.6756C142.376 95.7336 142.462 95.7716 142.555 95.7852C142.903 95.8291 143.101 95.3101 143.449 95.2955C143.591 95.3033 143.727 95.3545 143.836 95.4417C144.272 95.6896 144.657 96.0116 144.974 96.392C145.14 96.6186 145.277 96.889 145.55 96.9694C145.79 97.006 146.035 96.9566 146.24 96.8306C146.627 96.6405 147.074 96.3847 147.097 95.968C147.081 95.8834 147.081 95.7968 147.097 95.7122C147.135 95.6477 147.195 95.5979 147.267 95.5712C147.339 95.5446 147.418 95.5427 147.491 95.5659C147.635 95.6138 147.763 95.6969 147.863 95.8072C148.151 95.7048 148.181 95.3174 148.06 95.0762C147.894 94.8407 147.743 94.5967 147.605 94.3452C147.553 94.1492 147.552 93.9439 147.602 93.7475C147.653 93.5511 147.753 93.3697 147.893 93.2195C148.178 92.9193 148.517 92.6716 148.894 92.4885C149.051 92.4179 149.189 92.3127 149.296 92.1815C149.378 92.0202 149.41 91.8398 149.39 91.6612C149.37 91.4827 149.298 91.3133 149.182 91.1727C148.944 90.896 148.761 90.5786 148.644 90.2371C148.616 90.121 148.632 89.9993 148.689 89.8935C148.75 89.8153 148.828 89.7505 148.917 89.7034L149.751 89.1917C149.801 89.1664 149.842 89.1251 149.865 89.0748C149.886 89.0231 149.886 88.9657 149.865 88.914C149.531 88.3511 148.674 88.0368 148.689 87.3862C148.689 86.9988 149.023 86.5456 148.735 86.2751C148.462 86.0998 148.169 85.9551 147.863 85.8438C147.673 85.7342 147.499 85.493 147.302 85.4126C146.763 85.1128 146.414 85.8511 145.853 85.7123Z" fill="#68E1FD"/>
<path opacity="0.79" d="M145.559 86.3864C145.422 86.3346 145.271 86.33 145.13 86.3732C144.99 86.4164 144.868 86.505 144.784 86.6249C144.605 86.8402 144.512 87.1095 144.349 87.3402C143.814 88.1094 142.674 88.3555 142.138 89.1478C141.948 89.4406 141.853 89.7847 141.867 90.133C141.88 90.4813 142.002 90.8169 142.216 91.0938C142.319 91.2384 142.475 91.3376 142.65 91.3707C142.775 91.3514 142.894 91.3021 142.995 91.227C143.097 91.152 143.178 91.0534 143.232 90.94C143.566 90.4554 143.799 89.9093 144.124 89.4016C144.274 89.147 144.474 88.9251 144.713 88.7493C144.952 88.5735 145.224 88.4474 145.513 88.3786C146.219 88.2632 146.995 88.6555 147.615 88.3094C148.391 87.894 148.538 86.3403 147.77 85.8634C147.591 85.7775 147.39 85.7443 147.193 85.7674C146.995 85.7906 146.808 85.8692 146.653 85.9941C146.149 86.3633 146.126 86.671 145.559 86.3864Z" fill="#68E1FD"/>
<path opacity="0.79" d="M146.152 89.9031C145.94 89.9958 145.751 90.1384 145.599 90.3198C145.447 90.5012 145.337 90.7166 145.276 90.9498C145.254 91.1106 145.207 91.2664 145.137 91.411C144.956 91.7111 144.552 91.7184 144.212 91.7257C143.582 91.7469 142.959 91.8652 142.362 92.0771C142.265 92.0966 142.174 92.1373 142.094 92.1966C142.014 92.2559 141.946 92.3324 141.896 92.4211C141.868 92.5058 141.859 92.5961 141.87 92.6851C141.881 92.774 141.911 92.859 141.958 92.9335C142.41 93.7387 143.628 93.6215 144.198 94.3316C144.337 94.5381 144.465 94.7532 144.58 94.9757C144.64 95.0872 144.724 95.182 144.826 95.252C144.927 95.3221 145.044 95.3654 145.164 95.3783C145.512 95.3783 145.749 95.005 145.86 94.6463C145.997 94.0478 146.044 93.4303 145.999 92.8164C146.157 92.9011 146.337 92.9318 146.513 92.9043C146.688 92.8767 146.852 92.7923 146.98 92.6626C147.131 92.4805 147.243 92.2656 147.307 92.0331C147.613 91.0303 147.647 89.2662 146.152 89.9031Z" fill="#68E1FD"/>
<path opacity="0.36" d="M174.727 88.8264C174.729 89.2768 174.884 89.7151 175.17 90.0786C175.344 90.2784 175.44 90.5266 175.444 90.7835C175.402 90.9432 175.331 91.0952 175.235 91.2334C175.109 91.4767 175.05 91.7455 175.064 92.0153C175.078 92.2851 175.164 92.5473 175.315 92.7781C175.574 93.1606 176.017 93.4605 176.122 93.9029C176.14 94.0824 176.183 94.2589 176.251 94.4279C176.339 94.5349 176.449 94.6241 176.575 94.6899C176.702 94.7557 176.841 94.7967 176.985 94.8103C177.574 94.9766 178.208 94.9283 178.76 94.6753C178.915 94.5447 179.104 94.4542 179.308 94.4129C179.415 94.423 179.518 94.4569 179.608 94.5117C179.697 94.5665 179.772 94.6406 179.824 94.7278C179.931 94.9017 180.068 95.0586 180.228 95.1927C180.415 95.2911 180.626 95.3451 180.841 95.3502C181.108 95.3876 181.38 95.3876 181.647 95.3502C181.879 95.2956 182.092 95.1888 182.268 95.0393C182.444 94.8898 182.578 94.7022 182.658 94.4931C182.738 94.2841 182.761 94.0599 182.725 93.8406C182.69 93.6213 182.596 93.4134 182.454 93.2356C182.265 93.0304 182.052 92.8466 181.817 92.6882C181.743 92.6481 181.683 92.5879 181.647 92.5157C181.55 92.3207 181.736 92.1183 181.825 91.9233C181.922 91.5911 181.878 91.237 181.704 90.9335C181.524 90.634 181.437 90.2938 181.454 89.9512C181.518 89.5762 181.849 89.2913 182.002 88.9388C182.022 88.8906 182.022 88.8372 182.002 88.7889C181.983 88.7597 181.958 88.735 181.927 88.7168C181.896 88.6986 181.861 88.6873 181.825 88.6839C181.322 88.5639 180.809 88.4811 180.292 88.4364C180.163 88.4379 180.038 88.3921 179.945 88.309C179.907 88.2581 179.885 88.1984 179.881 88.1365C179.816 87.5891 180.179 86.9967 179.469 86.6967C179.256 86.6078 179.025 86.5618 178.792 86.5618C178.558 86.5618 178.327 86.6078 178.114 86.6967C177.816 86.8392 177.598 87.1092 177.308 87.2067C177.091 87.2591 176.863 87.2591 176.646 87.2067C176.49 87.1648 176.325 87.1608 176.167 87.1949C176.009 87.229 175.863 87.3002 175.743 87.4016C175.216 87.7337 174.85 88.2456 174.727 88.8264Z" fill="#68E1FD"/>
<path opacity="0.36" d="M176.874 88.0438C176.463 88.7213 176.935 89.7114 176.545 90.3963C176.455 90.5117 176.384 90.6425 176.333 90.7834C176.318 90.9687 176.359 91.1544 176.45 91.3119L176.668 91.8033C176.75 91.9894 176.887 92.2053 177.072 92.168C177.128 92.1561 177.18 92.1278 177.222 92.0862C177.396 91.8922 177.523 91.6553 177.593 91.3959C177.663 91.1366 177.675 90.8624 177.626 90.5973C177.529 90.0706 177.594 89.5239 177.811 89.0414C178.084 88.617 178.645 88.3937 178.727 87.88C178.745 87.781 178.73 87.6783 178.686 87.5897C178.358 87.0239 177.127 87.6493 176.874 88.0438Z" fill="#68E1FD"/>
<defs>
<linearGradient id="paint0_linear" x1="141.965" y1="133.354" x2="39.6309" y2="192.08" gradientUnits="userSpaceOnUse">
<stop offset="0.01"/>
<stop offset="0.13" stop-opacity="0.69"/>
<stop offset="1" stop-opacity="0"/>
</linearGradient>
<linearGradient id="paint1_linear" x1="3122.28" y1="7890.13" x2="2199.38" y2="7669.57" gradientUnits="userSpaceOnUse">
<stop offset="0.01"/>
<stop offset="0.13" stop-opacity="0.69"/>
<stop offset="1" stop-opacity="0"/>
</linearGradient>
<linearGradient id="paint2_linear" x1="7051.8" y1="5572.62" x2="6899.3" y2="7394.94" gradientUnits="userSpaceOnUse">
<stop offset="0.01"/>
<stop offset="0.13" stop-opacity="0.69"/>
<stop offset="1" stop-opacity="0"/>
</linearGradient>
<linearGradient id="paint3_linear" x1="3124.4" y1="20909.9" x2="6442.63" y2="14817.3" gradientUnits="userSpaceOnUse">
<stop offset="0.01"/>
<stop offset="0.13" stop-opacity="0.69"/>
<stop offset="1" stop-opacity="0"/>
</linearGradient>
</defs>
</svg>
