 <svg width="223" height="143" viewBox="0 0 223 143" fill="none" xmlns="http://www.w3.org/2000/svg">
                        <path d="M69.2006 108.009C69.0698 107.965 68.9825 107.878 68.8953 107.747C68.808 107.66 68.7645 107.529 68.7645 107.398V103.997H65.4069C65.3197 103.997 65.2326 103.997 65.1018 103.954C64.971 103.91 64.9273 103.867 64.8401 103.823C64.7529 103.779 64.7093 103.692 64.6657 103.605C64.6221 103.518 64.6221 103.43 64.6221 103.343C64.6221 103.256 64.6221 103.169 64.6657 103.082C64.7093 102.994 64.7529 102.907 64.8401 102.864C64.9273 102.82 65.0146 102.733 65.1018 102.733C65.189 102.733 65.2761 102.689 65.4069 102.689H70.16V107.486C70.16 107.617 70.1163 107.704 70.0727 107.791C70.0291 107.878 69.9419 107.965 69.8546 108.053C69.7674 108.096 69.6365 108.14 69.5493 108.14C69.4185 108.053 69.2878 108.053 69.2006 108.009Z" fill="#110580"/>
                        <path d="M220.379 12.689H125.495C121.701 12.689 118.038 14.215 115.335 16.9185C112.631 19.622 111.149 23.285 111.149 27.1222H111.105C111.105 23.285 109.579 19.622 106.919 16.9185C104.216 14.215 100.596 12.689 96.7592 12.689H1.87513C1.39548 12.689 0.915829 12.9069 0.56699 13.2557C0.218152 13.6046 0 14.0843 0 14.6075V134.172C0 134.652 0.218152 135.131 0.56699 135.524C0.915829 135.872 1.39548 136.047 1.87513 136.047H99.7679C100.814 138.053 102.384 139.666 104.303 140.843C106.221 141.977 108.402 142.588 110.669 142.631H111.628C113.852 142.631 116.032 142.021 117.995 140.843C119.913 139.71 121.483 138.053 122.573 136.091H220.422C220.902 136.091 221.382 135.872 221.73 135.524C222.079 135.175 222.297 134.695 222.297 134.172V14.6512C222.297 14.3896 222.254 14.1278 222.167 13.9098C222.079 13.6918 221.949 13.4738 221.774 13.2994C221.6 13.125 221.382 12.9942 221.164 12.8633C220.858 12.7761 220.597 12.689 220.379 12.689Z" fill="#4E53BA"/>
                        <path d="M213.228 17.6164H124.1C120.655 17.6164 117.341 18.9682 114.943 21.4101C112.501 23.852 111.149 27.166 111.149 30.6108H111.106C111.106 28.9102 110.757 27.2094 110.103 25.6396C109.449 24.0699 108.489 22.631 107.312 21.4101C106.091 20.1892 104.696 19.2299 103.126 18.5758C101.556 17.9217 99.8555 17.5728 98.1549 17.5728H9.02672C8.80869 17.5728 8.59067 17.6165 8.37264 17.7037C8.15462 17.7909 7.98029 17.9216 7.80587 18.0524C7.63145 18.2269 7.54411 18.4014 7.4569 18.6194C7.36969 18.8375 7.32617 19.0555 7.32617 19.2735V127.239C7.32617 127.457 7.36969 127.675 7.4569 127.893C7.54411 128.111 7.67505 128.285 7.80587 128.46C7.98029 128.634 8.15462 128.765 8.37264 128.852C8.59067 128.94 8.80869 128.983 9.02672 128.983H100.858C101.818 130.771 103.257 132.254 104.957 133.256C106.701 134.303 108.664 134.87 110.67 134.87H111.542C113.547 134.87 115.51 134.303 117.254 133.256C118.998 132.21 120.393 130.727 121.353 128.983H213.185C213.621 128.983 214.057 128.809 214.362 128.504C214.667 128.198 214.841 127.762 214.841 127.283V19.2735C214.841 19.0555 214.798 18.8375 214.711 18.6194C214.623 18.4014 214.493 18.2269 214.362 18.0524C214.187 17.878 214.013 17.7909 213.795 17.7037C213.664 17.6601 213.446 17.6164 213.228 17.6164Z" fill="#32378F"/>
                        <path d="M124.972 0H210.394C210.873 0 211.353 0.174504 211.659 0.523343C212.007 0.872181 212.182 1.30819 212.182 1.78784V124.274C212.182 124.753 212.007 125.233 211.659 125.582C211.31 125.931 210.873 126.105 210.394 126.105H118.039C117.123 126.105 116.251 125.931 115.379 125.582C114.55 125.233 113.766 124.71 113.155 124.099C112.501 123.445 112.021 122.704 111.673 121.832C111.324 121.003 111.149 120.088 111.149 119.172V13.8662C111.149 10.1598 112.588 6.62785 115.205 4.05516C117.777 1.43887 121.309 0 124.972 0Z" fill="#F5F5FA"/>
                        <path d="M104.215 126.105H11.9041C11.4244 126.105 10.9448 125.931 10.6396 125.582C10.2907 125.233 10.1162 124.753 10.1162 124.274V1.78784C10.1162 1.30819 10.2907 0.828577 10.6396 0.523343C10.9884 0.174504 11.4244 0 11.9041 0H97.3258C100.989 0 104.521 1.48248 107.137 4.05516C109.753 6.67145 111.192 10.2034 111.192 13.8662V119.172C111.192 120.088 111.018 121.003 110.669 121.832C110.32 122.704 109.797 123.445 109.186 124.099C108.532 124.753 107.791 125.233 106.963 125.626C106.003 125.931 105.131 126.149 104.215 126.105Z" fill="white"/>
                        <path d="M30.1308 60.4799C34.0116 60.4799 37.1512 57.3403 37.1512 53.4159C37.1512 49.4914 34.0116 46.3518 30.1308 46.3518C26.2499 46.3518 23.1104 49.4914 23.1104 53.4159C23.1104 57.3403 26.2499 60.4799 30.1308 60.4799Z" fill="#F2F2F2"/>
                        <path d="M93.0962 48.6631H44.8695C44.041 48.6631 43.3867 49.3171 43.3867 50.1456C43.3867 50.9741 44.041 51.6281 44.8695 51.6281H93.0962C93.9247 51.6281 94.5789 50.9741 94.5789 50.1456C94.5789 49.3171 93.8811 48.6631 93.0962 48.6631Z" fill="#F2F2F2"/>
                        <path d="M78.1403 55.4653H44.8263C43.9978 55.4653 43.3438 56.1194 43.3438 56.9479C43.3438 57.7763 43.9978 58.4304 44.8263 58.4304H78.1403C78.9688 58.4304 79.6228 57.7763 79.6228 56.9479C79.6228 56.163 78.9688 55.4653 78.1403 55.4653Z" fill="#F2F2F2"/>
                        <path d="M30.1308 108.532C34.0116 108.532 37.1512 105.393 37.1512 101.468C37.1512 97.5875 34.0116 94.4043 30.1308 94.4043C26.2499 94.4043 23.1104 97.5439 23.1104 101.468C23.1104 105.349 26.2499 108.532 30.1308 108.532Z" fill="#F2F2F2"/>
                        <path d="M93.0962 103.518H44.8695C44.041 103.518 43.3867 104.172 43.3867 105C43.3867 105.829 44.041 106.483 44.8695 106.483H93.0962C93.9247 106.483 94.5789 105.829 94.5789 105C94.5353 104.172 93.8811 103.518 93.0962 103.518Z" fill="#F2F2F2"/>
                        <path d="M78.1403 96.7153H44.8263C43.9978 96.7153 43.3438 97.3696 43.3438 98.1981C43.3438 99.0266 43.9978 99.6806 44.8263 99.6806H78.1403C78.9688 99.6806 79.6228 99.0266 79.6228 98.1981C79.6228 97.3696 78.9688 96.7153 78.1403 96.7153Z" fill="#F2F2F2"/>
                        <path d="M30.1308 84.5061C34.0116 84.5061 37.1512 81.3667 37.1512 77.4422C37.1512 73.5614 34.0116 70.3782 30.1308 70.3782C26.2499 70.3782 23.1104 73.5178 23.1104 77.4422C23.1104 81.3667 26.2499 84.5061 30.1308 84.5061Z" fill="#F2F2F2"/>
                        <path d="M93.0962 79.4917H44.8695C44.041 79.4917 43.3867 80.1459 43.3867 80.9744C43.3867 81.8029 44.041 82.457 44.8695 82.457H93.0962C93.9247 82.457 94.5789 81.8029 94.5789 80.9744C94.5789 80.1459 93.8811 79.4917 93.0962 79.4917Z" fill="#F2F2F2"/>
                        <path d="M85.5968 72.6895H44.8263C43.9978 72.6895 43.3438 73.3435 43.3438 74.172C43.3438 75.0005 43.9978 75.6545 44.8263 75.6545H85.5968C86.4253 75.6545 87.0793 75.0005 87.0793 74.172C87.0793 73.3435 86.4253 72.6895 85.5968 72.6895Z" fill="#F2F2F2"/>
                        <path d="M132.82 60.4799C136.701 60.4799 139.841 57.3403 139.841 53.4159C139.841 49.4914 136.701 46.3518 132.82 46.3518C128.939 46.3518 125.8 49.4914 125.8 53.4159C125.8 57.3403 128.939 60.4799 132.82 60.4799Z" fill="#BDBDBD"/>
                        <path d="M195.742 79.5789H147.515C146.686 79.5789 146.032 80.2329 146.032 81.0614C146.032 81.8899 146.686 82.5439 147.515 82.5439H195.742C196.57 82.5439 197.224 81.8899 197.224 81.0614C197.224 80.2329 196.57 79.5789 195.742 79.5789Z" fill="#BDBDBD"/>
                        <path d="M180.829 72.7327H147.515C146.686 72.7327 146.032 73.3869 146.032 74.2154C146.032 75.0439 146.686 75.6979 147.515 75.6979H180.829C181.657 75.6979 182.311 75.0439 182.311 74.2154C182.311 73.3869 181.657 72.7327 180.829 72.7327Z" fill="#BDBDBD"/>
                        <path d="M132.82 108.532C136.701 108.532 139.841 105.393 139.841 101.468C139.841 97.5875 136.701 94.4043 132.82 94.4043C128.939 94.4043 125.8 97.5439 125.8 101.468C125.8 105.349 128.939 108.532 132.82 108.532Z" fill="#BDBDBD"/>
                        <path d="M195.742 48.6631H147.515C146.686 48.6631 146.032 49.3171 146.032 50.1456C146.032 50.9741 146.686 51.6281 147.515 51.6281H195.742C196.57 51.6281 197.224 50.9741 197.224 50.1456C197.224 49.3171 196.57 48.6631 195.742 48.6631Z" fill="#BDBDBD"/>
                        <path d="M180.829 55.4653H147.515C146.686 55.4653 146.032 56.1194 146.032 56.9479C146.032 57.7763 146.686 58.4304 147.515 58.4304H180.829C181.657 58.4304 182.311 57.7763 182.311 56.9479C182.311 56.163 181.657 55.4653 180.829 55.4653Z" fill="#BDBDBD"/>
                        <path d="M132.82 84.5061C136.701 84.5061 139.841 81.3667 139.841 77.4422C139.841 73.5614 136.701 70.3782 132.82 70.3782C128.939 70.3782 125.8 73.5178 125.8 77.4422C125.8 81.3667 128.939 84.5061 132.82 84.5061Z" fill="#BDBDBD"/>
                        <path d="M195.742 96.8027H147.515C146.686 96.8027 146.032 97.4568 146.032 98.2853C146.032 99.1137 146.686 99.7678 147.515 99.7678H195.742C196.57 99.7678 197.224 99.1137 197.224 98.2853C197.224 97.4568 196.57 96.8027 195.742 96.8027Z" fill="#BDBDBD"/>
                        <path d="M188.285 103.649H147.515C146.686 103.649 146.032 104.303 146.032 105.131C146.032 105.96 146.686 106.614 147.515 106.614H188.285C189.114 106.614 189.768 105.96 189.768 105.131C189.768 104.303 189.114 103.649 188.285 103.649Z" fill="#BDBDBD"/>
                        <path d="M67.9359 11.9914C64.4475 16.003 61.2207 20.2327 58.2992 24.6368C56.773 22.5002 54.4619 21.0612 51.9328 20.538C50.4939 20.2764 48.6626 20.2764 47.7033 21.1921C47.5289 21.3229 47.3544 21.4973 47.1799 21.6717C46.1334 22.6747 45.6101 24.4624 47.3107 25.5525C48.6624 26.381 49.9271 26.9042 50.93 28.0379C52.2381 29.6513 53.2411 31.4391 53.9823 33.3578C55.3341 36.4973 60.8719 36.628 62.0929 33.7065C64.9708 26.9042 68.3283 20.3199 72.0783 13.9536C73.2993 11.9478 69.5929 10.1164 67.9359 11.9914Z" fill="#66A896"/>
                        <path d="M170.19 11.1631C163.475 15.3055 157.501 20.756 153.533 27.3839C152.53 29.0845 152.486 31.4392 153.053 33.2706C153.402 34.4479 154.274 36.1487 155.495 34.7533C160.422 29.2591 165.349 24.0264 171.367 19.5351C173.286 18.0961 172.414 9.76771 170.19 11.1631Z" fill="#FF5856"/>
                        <path d="M151.963 20.5815C158.33 25.4216 165.176 28.91 170.016 35.3635C171.15 36.8897 172.24 35.1455 172.545 34.0553C173.155 31.9623 173.068 29.7385 172.24 27.7326C168.751 20.189 160.902 14.6075 152.705 12.122C149.696 11.2499 150.263 19.2734 151.963 20.5815Z" fill="#FF5856"/>
                        </svg>