<svg width="509" height="319" viewBox="0 0 509 319" fill="none" xmlns="http://www.w3.org/2000/svg">
<path d="M147.951 277.066C138.181 277.412 128.437 278.281 118.76 279.671C111.723 262.959 105.065 246.102 98.7865 229.101C97.0351 224.383 95.3194 219.66 93.6396 214.932C95.0531 214.069 96.5895 213.113 98.2488 212.157C104.809 208.302 112.752 204.371 119.866 205.62C128.27 207.162 129.622 215.873 131.727 222.888L147.951 277.066Z" fill="#FDBC68"/>
<path d="M147.951 276.456C138.178 276.79 128.431 277.655 118.751 279.047C111.723 262.339 105.063 245.476 98.7726 228.458C97.0207 223.749 95.3097 219.03 93.6396 214.3C95.0535 213.421 96.5903 212.48 98.2501 211.523C104.797 207.668 112.742 203.812 119.873 204.968C128.28 206.511 129.632 215.24 131.737 222.258C137.126 240.283 142.531 258.349 147.951 276.456Z" fill="url(#paint0_linear)"/>
<path d="M106.749 281.441C98.3351 282.98 90.9435 284.813 84.7141 286.538C83.8772 285.378 83.1558 284.14 82.5602 282.842C73.0293 263.828 66.6357 243.416 63.6241 222.386C62.8028 216.226 61.935 205.555 68.1644 201.412C74.3938 197.27 84.8381 201.736 89.7193 206.032C91.148 207.217 92.2827 208.714 93.0355 210.405C93.9032 212.515 104.053 207.325 103.976 209.574V211.622C103.883 216.981 104.084 222.663 104.549 228.561C105.804 245.931 103.604 265.118 106.749 281.441Z" fill="#FDBC68"/>
<path d="M106.125 281.426C97.8302 282.966 90.5435 284.798 84.4025 286.538C83.5861 285.367 82.8755 284.125 82.2791 282.827C72.8883 263.821 66.5906 243.416 63.6269 222.395C62.802 216.236 61.9466 205.551 68.0876 201.409C74.2286 197.268 84.5247 201.748 89.3367 206.028C90.7412 207.211 91.8593 208.701 92.6058 210.386C93.4612 212.51 103.467 207.306 103.391 209.554V211.617C103.299 216.96 103.513 222.657 103.956 228.554C105.193 245.937 103.024 265.105 106.125 281.426Z" fill="url(#paint1_linear)"/>
<path d="M503.456 277.431C495.569 284.403 486.833 290.348 477.454 295.122C475.812 270.474 467.805 242.479 465.381 222.316C458.647 241.942 456.177 252.046 451.774 272.332C451.605 273.162 446.973 292.926 443.046 308.681C433.663 311.399 424.138 313.593 414.513 315.254C417.888 298.73 423.318 274.974 423.517 273.791C426.573 256.167 428.714 238.396 429.93 220.55C430.451 213.163 428.273 200.125 431.142 193.461C433.765 187.395 442.002 190.22 447.74 189.099C461.02 186.587 474.593 186.008 488.039 187.379C490.923 187.656 494.175 188.224 495.816 190.589C496.787 192.205 497.316 194.048 497.35 195.933C499.651 221.149 501.962 246.364 504.284 271.58C504.597 273.569 504.309 275.607 503.456 277.431Z" fill="#3E3E54"/>
<path d="M495.209 142.014C493.987 152.999 493.415 164.182 494.374 167.946C496.436 176.14 498.498 184.292 500.56 192.403C490.678 198.134 437.913 199.639 426.516 192.311C426.114 192.05 425.634 191.651 425.774 191.174C425.913 190.698 426.516 190.975 426.562 191.174C429.516 184.446 436.475 155.595 439.8 137.022C441.346 128.864 442.042 122.719 441.47 121.275C440.898 119.831 440.279 118.203 439.676 116.774L432.81 99.4296C431.99 97.371 431.449 96.0498 429.361 96.7872C431.372 89.7205 434.465 82.6844 439.97 77.7684C448.615 70.0872 461.388 69.1194 472.925 70.3791C478.129 70.7938 483.235 72.0279 488.049 74.0353C492.895 76.0718 496.913 79.6635 499.462 84.2361C500.458 86.2672 501.176 88.4217 501.596 90.6422C503.033 98.0031 502.816 105.588 500.962 112.856C500.467 114.9 499.879 116.943 499.199 119.001C497.792 123.195 496.261 132.52 495.209 142.014Z" fill="#FDBC68"/>
<path d="M477.272 72.4178C476.963 72.113 476.58 71.8941 476.161 71.7827C473.201 70.7449 467.697 69.1339 464.598 70.3576C461.499 71.5813 462.501 75.81 464.089 77.7927C464.83 78.8525 465.954 79.5799 467.221 79.82C468.488 80.0602 469.798 79.794 470.873 79.0783C472.214 78.2109 479.045 74.4779 477.272 72.4178Z" fill="url(#paint2_linear)"/>
<path d="M451.91 102.048C452.598 103.963 452.965 106.165 454.555 107.492C455.217 107.998 455.961 108.391 456.756 108.653C464.584 111.548 473.237 110.583 481.585 110.96C483.299 110.964 484.999 111.254 486.615 111.82C487.073 112.016 487.608 112.378 487.547 112.875C487.486 113.373 486.813 113.629 486.263 113.705L468.345 116.434C464.752 116.992 461.159 117.535 457.521 117.822C454.782 118.202 451.99 117.917 449.387 116.992C448.917 116.8 448.487 116.524 448.118 116.178C447.815 115.833 447.562 115.447 447.369 115.032C445.197 111.518 444.207 107.417 444.541 103.314V97.9608C444.541 97.1314 444.541 95.2916 445.458 94.9447C446.375 94.5979 447.583 95.925 448.179 96.4528C449.838 98.0133 451.114 99.9269 451.91 102.048Z" fill="url(#paint3_linear)"/>
<path d="M495.316 123.195C495.66 123.365 495.988 123.566 496.297 123.794C496.772 124.117 497.339 124.333 497.507 124.825C497.676 125.317 497.14 126.778 497.032 127.347C496.756 128.962 496.496 130.561 496.251 132.176C496.143 132.96 495.101 141.603 495.07 141.603C492.572 141.511 494.81 156.429 492.342 156.06C477.813 153.876 458.241 140.681 443.62 139.143C442.756 139.138 441.915 138.864 441.213 138.358C440.738 137.858 440.386 137.252 440.186 136.59C439.819 135.606 440.845 132.853 441.014 131.791C441.336 129.731 441.29 129.531 443.206 128.716C446.249 127.031 449.415 125.581 452.677 124.379C456.062 123.629 459.528 123.308 462.992 123.425C470.916 123.21 479.851 127.901 487.806 127.347C490.687 127.101 492.772 121.872 495.316 123.195Z" fill="url(#paint4_linear)"/>
<path d="M470.635 70.8786C470.881 73.5889 470.388 76.3156 469.21 78.7597C468.286 80.1736 467.057 81.355 465.618 82.2145C463.435 83.6488 460.798 84.7747 458.297 84.0498C457.974 83.968 457.681 83.7972 457.448 83.5563C457.236 83.2577 457.11 82.9054 457.084 82.5384C456.767 79.0153 457.075 75.4628 457.993 72.0507L459.782 63.4601C460.434 60.2984 461.465 56.6894 464.33 55.4556C466.032 54.7622 467.932 54.7622 469.635 55.4556C471.029 56.3347 470.59 57.476 470.59 59.2342C470.63 63.1105 470.645 66.992 470.635 70.8786Z" fill="url(#paint5_linear)"/>
<path d="M266.561 0.138376L264.957 319C257.393 317.155 250.04 315.141 242.839 312.957L244.352 0L266.561 0.138376Z" fill="#FDBC68"/>
<path d="M255.948 0.507016L253.179 315.254C245.653 313.411 250.003 314.901 242.839 312.719L244.344 0L255.948 0.507016Z" fill="url(#paint6_linear)"/>
<path d="M156.067 21.2246L429.495 21.2246V12.4849L156.067 12.4849V21.2246Z" fill="#3E3E54"/>
<path d="M415.245 234.724H150.448L159.092 19.9766H423.877L415.245 234.724Z" fill="#FDBC68"/>
<path d="M166.405 171.567C170.203 170.19 173.216 167.279 176.046 164.369C183.734 156.49 190.868 148.1 198.049 139.74C200.986 136.335 204.492 132.65 208.966 132.604C211.073 132.604 213.148 133.378 215.255 133.192C218.853 132.867 222.697 129.787 225.603 131.923C227.141 133.007 228.678 135.282 230.016 134.137C228.95 131.61 228.451 128.877 228.555 126.133C228.878 123.424 230.785 120.684 233.476 120.359C225.712 118.276 217.572 118.051 209.706 119.701C201.841 121.351 194.468 124.832 188.177 129.864C186.742 131.229 185.076 132.325 183.257 133.099C182.21 133.318 181.182 133.618 180.182 133.997C179.13 134.602 178.222 135.432 177.522 136.428L162.33 154.911C159.793 158.007 154.335 164.199 155.642 168.626C156.902 172.821 163.007 172.821 166.405 171.567Z" fill="url(#paint7_linear)"/>
<path d="M194.771 136.545L186.79 142.527L157.176 164.724C156.743 165.104 156.207 165.349 155.636 165.43C154.965 165.38 154.332 165.098 153.848 164.632C141.646 154.661 131.168 142.773 120.768 130.884C118.822 128.938 117.255 126.649 116.146 124.135C115.943 123.593 115.794 123.033 115.699 122.463C115.124 119.063 115.739 115.571 117.44 112.568C118.904 109.807 122.787 103.717 125.853 102.598C129.905 101.064 133.171 108.012 135.097 110.682C141.63 119.333 148.487 127.724 155.667 135.854C156.56 136.852 157.67 137.941 158.995 137.803C159.794 137.634 160.531 137.246 161.121 136.683L181.259 120.622C185.788 125.94 190.293 131.247 194.771 136.545Z" fill="#FDBC68"/>
<path d="M186.656 142.489L157.011 164.724C156.577 165.105 156.041 165.35 155.468 165.431C154.797 165.381 154.164 165.098 153.679 164.632C141.463 154.644 130.975 142.734 120.564 130.825C118.616 128.875 117.047 126.583 115.937 124.064C115.734 123.521 115.584 122.96 115.489 122.389C117.325 119.392 120.271 115.366 122.708 114.46C126.78 112.923 130.034 119.9 131.962 122.558C138.492 131.235 145.36 139.641 152.569 147.775C153.448 148.774 154.558 149.865 155.885 149.726C156.685 149.566 157.423 149.182 158.013 148.62L178.157 132.531C181.072 135.835 183.848 139.154 186.656 142.489Z" fill="url(#paint8_linear)"/>
<path d="M115.6 55.9753C117.948 53.3224 120.418 50.3782 120.679 46.7745C120.635 43.7033 119.644 40.7204 117.84 38.2332C117.182 37.0441 116.331 35.9716 115.324 35.059C113.949 34.0485 112.382 33.3285 110.72 32.9428C105.356 31.1389 99.6184 30.7376 94.0549 31.7774C88.5767 33.0655 83.436 36.8531 81.7787 42.2355C78.3874 39.5826 73.3848 40.4414 69.5024 42.4349C62.2901 46.2072 56.9806 54.4418 58.7607 62.3698C59.927 67.8749 64.0395 72.2145 67.9679 76.1708C64.436 76.9987 61.2236 78.8407 58.7261 81.4699C56.2286 84.0992 54.555 87.401 53.9116 90.9686C53.3747 94.5565 53.8024 98.2226 55.1507 101.591C56.4989 104.959 58.7193 107.909 61.5842 110.137C66.4483 113.641 72.2988 115.515 78.2953 115.489C84.2284 115.436 90.139 114.753 95.9271 113.449C101.958 112.33 108.203 111.072 113.083 107.315C116.873 104.228 119.564 100.001 120.756 95.2623C121.898 90.5441 122.039 85.6392 121.17 80.8632C121.016 79.0886 120.344 77.3983 119.237 76.0021C118.378 75.1645 117.374 74.4891 116.275 74.0087L110.229 70.9417C108.336 70.2493 106.759 68.8921 105.794 67.1234C104.659 64.1945 107.144 61.1123 109.799 59.4562C112.454 57.8001 115.63 56.5886 117.242 53.9051" fill="#3E3E54"/>
<path d="M134.821 202.223C134.944 202.685 134.483 203.101 134.068 203.363C122.731 210.706 110.617 216.767 97.949 221.434C96.6665 221.994 95.2778 222.268 93.8794 222.235C92.4823 222.015 91.1506 221.489 89.9787 220.695L80.5956 215.195C73.9 211.292 67.2454 207.384 60.6316 203.471C62.6741 195.291 64.7473 187.11 66.7744 178.93C68.5558 171.905 70.414 164.649 74.7293 158.81C75.2113 158.308 75.5091 157.656 75.5739 156.962C75.5269 156.398 75.313 155.862 74.9597 155.421C69.6254 147.432 65.2638 138.831 61.9677 129.802C58.6639 120.726 57.8317 110.93 59.5567 101.424C59.9683 99.1922 60.6921 97.0295 61.7066 95.0003C66.5748 85.9418 79.5053 88.8381 84.6499 88.2835C96.1215 87.0356 118.773 90.2246 127.357 97.9428C132.825 102.873 129.323 100.516 131.32 107.602C129.246 106.863 128.709 108.188 127.895 110.252C125.018 117.534 122.151 124.836 119.295 132.159C117.239 136.83 115.695 141.711 114.688 146.717C113.029 156.777 115.778 167.222 120.831 175.988C125.654 184.49 130.046 193.231 133.992 202.177C134.068 201.977 134.713 201.838 134.821 202.223Z" fill="#FDBC68"/>
<path d="M80.8457 214.18C81.0909 214.548 80.9377 214.717 80.4779 214.748C73.7956 210.862 67.1542 206.971 60.5537 203.075C62.5921 194.93 64.6612 186.785 66.6842 178.639C68.4621 171.645 70.3166 164.42 74.6233 158.607C75.1043 158.106 75.4015 157.457 75.4662 156.766C75.4193 156.205 75.2058 155.671 74.8532 155.232C69.5296 147.277 65.1766 138.714 61.8871 129.723L72.0944 127.975L86.1486 156.459C86.1486 156.459 78.3629 210.667 80.8457 214.18Z" fill="url(#paint9_linear)"/>
<path d="M101.914 75.5018C101.826 75.581 101.756 75.6791 101.709 75.7891C101.662 75.8991 101.639 76.0183 101.641 76.1384C101.451 78.8222 102.032 81.5045 103.313 83.8531C104.595 86.2017 106.52 88.1134 108.85 89.3515C110.107 90.0037 111.606 90.5782 112.136 91.9135C112.336 92.5066 112.408 93.1368 112.348 93.7611C112.348 94.8635 112.151 95.9659 112 97.0528C111.318 101.99 110.486 107.3 107.033 110.825C106.153 111.669 105.211 112.442 104.216 113.138C102.973 114.15 101.547 114.9 100.021 115.343C97.4766 115.902 94.902 114.753 92.5547 113.635C91.6122 113.232 90.722 112.71 89.9044 112.083C88.9911 111.259 88.2272 110.276 87.6479 109.179C84.6061 103.665 83.2501 97.3418 83.7558 91.0284C83.7629 90.5763 83.8663 90.1311 84.0587 89.7242C84.513 88.9323 85.4823 88.6839 86.2698 88.1715C86.9822 87.695 87.5926 87.0749 88.0639 86.3488C88.5351 85.6228 88.8573 84.806 89.0109 83.9483C89.4349 82.2559 89.5107 80.5013 89.9044 78.8089C90.2397 77.3886 90.7917 76.0314 91.54 74.7875C91.8184 74.2752 92.2068 73.8345 92.6758 73.4988C93.3027 73.1709 94.0021 73.0157 94.7052 73.0485C95.9133 73.0171 97.1222 73.0638 98.3247 73.1883C98.7255 73.1863 99.1189 73.2992 99.4605 73.5143C99.6267 73.6233 99.7489 73.7901 99.8045 73.9842C99.8602 74.1782 99.8456 74.3863 99.7634 74.5701" fill="url(#paint10_linear)"/>
<path d="M92.3906 73.6631C92.3906 73.6631 95.3784 84.6688 99.6466 85.4648C103.915 86.2607 101.907 78.7909 101.907 78.7909L92.3906 73.6631Z" fill="url(#paint11_linear)"/>
<path d="M60.034 107.998C55.4687 119.608 51.2711 131.337 47.4411 143.184C38.9165 137.295 30.9566 130.617 23.6649 123.238C23.2087 122.659 22.5718 122.251 21.8571 122.082C21.2575 122.065 20.6663 122.226 20.1567 122.544C16.5399 124.322 13.0893 126.423 9.84646 128.822C9.32129 129.118 8.92706 129.603 8.74344 130.18C8.72336 130.524 8.77578 130.867 8.89724 131.189C9.0187 131.511 9.20646 131.803 9.44815 132.046C17.6136 142.844 28.1229 151.56 38.5557 160.183C41.4052 162.543 44.9747 165.057 48.4829 163.885C49.7514 163.354 50.914 162.596 51.9145 161.648L74.1894 142.783C74.7363 142.389 75.1698 141.857 75.4456 141.24C75.6259 140.456 75.534 139.634 75.1852 138.911C71.7536 129.193 69.0573 112.919 60.0493 108.06" fill="#FDBC68"/>
<path d="M60.034 107.998C55.4687 119.608 51.2711 131.337 47.4411 143.184C38.9165 137.295 30.9566 130.617 23.6649 123.238C23.2087 122.659 22.5718 122.251 21.8571 122.082C21.2575 122.065 20.6663 122.226 20.1567 122.544C16.5399 124.322 13.0893 126.423 9.84646 128.822C9.32129 129.118 8.92706 129.603 8.74344 130.18C8.72336 130.524 8.77578 130.867 8.89724 131.189C9.0187 131.511 9.20646 131.803 9.44815 132.046C17.6136 142.844 28.1229 151.56 38.5557 160.183C41.4052 162.543 44.9747 165.057 48.4829 163.885C49.7514 163.354 50.914 162.596 51.9145 161.648L74.1894 142.783C74.7363 142.389 75.1698 141.857 75.4456 141.24C75.6259 140.456 75.534 139.634 75.1852 138.911C71.7536 129.193 69.0573 112.919 60.0493 108.06" fill="url(#paint12_linear)"/>
<path d="M192.303 117.375C193.515 116.453 194.841 115.695 196.249 115.119C197.296 114.747 198.377 114.474 199.475 114.305L212.274 111.849C212.686 111.709 213.131 111.709 213.543 111.849C213.872 112.066 214.149 112.355 214.353 112.693C215.776 114.535 218.39 114.842 220.715 114.888C223.87 114.955 227.026 114.822 230.165 114.489C231.256 114.294 232.376 114.33 233.452 114.597C233.993 114.736 234.472 115.051 234.815 115.492C235.158 115.934 235.346 116.477 235.349 117.038C235.23 117.527 235.015 117.987 234.715 118.39C234.416 118.794 234.038 119.132 233.605 119.386L230.211 122.042C229.133 122.938 227.971 123.725 226.739 124.391C225.162 125.126 223.48 125.607 221.755 125.819C215.96 126.723 210.039 126.357 204.399 124.744C203.092 124.162 201.609 124.118 200.27 124.621C198.955 125.389 198.634 127.124 197.9 128.475C196.668 130.314 194.968 131.788 192.976 132.743C190.835 134.017 188.389 135.352 185.973 134.646C183.19 133.817 179.03 129.288 180.865 126.356C183.129 122.794 188.878 119.755 192.303 117.375Z" fill="url(#paint13_linear)"/>
<path d="M210.794 104.991C210.62 104.897 210.42 104.859 210.222 104.883C209.851 104.991 209.728 105.454 209.758 105.84C209.937 107.005 210.478 108.085 211.305 108.926L222.128 122.057C225.963 126.686 229.952 131.485 235.349 134.216C233.221 130.69 230.728 127.395 227.911 124.387C227.138 123.638 226.439 122.817 225.824 121.934C224.788 120.391 224.278 118.369 222.902 117.011C221.465 115.758 220.117 114.407 218.866 112.969C216.562 109.975 214.413 106.488 210.794 104.991Z" fill="#3E3E54"/>
<path d="M42.5381 99.2059C42.1892 98.4495 41.6583 97.7901 40.9922 97.2859C40.0049 96.8064 38.8899 96.6505 37.8077 96.8404C26.5034 97.6679 15.3058 99.5763 4.37012 102.539C11.4308 125.582 21.5805 147.576 34.5459 167.928C45.7999 163.955 56.9664 159.741 68.0453 155.287C66.9013 148.635 51.6898 116.886 49.7419 112.846C47.5159 108.217 45.1146 103.671 42.5381 99.2059Z" fill="white"/>
<path d="M42.5381 99.2059C42.1892 98.4495 41.6583 97.7901 40.9922 97.2859C40.0049 96.8064 38.8899 96.6505 37.8077 96.8404C26.5034 97.6679 15.3058 99.5763 4.37012 102.539C11.4308 125.582 21.5805 147.576 34.5459 167.928C45.7999 163.955 56.9664 159.741 68.0453 155.287C66.9013 148.635 51.6898 116.886 49.7419 112.846C47.5159 108.217 45.1146 103.671 42.5381 99.2059Z" fill="#FFFBF0"/>
<path d="M147.328 242.216L420.132 242.216V232.852L147.328 232.852V242.216Z" fill="#3E3E54"/>
<path d="M190.205 175.419L393.484 175.419C396.823 175.419 399.53 172.065 399.53 167.928C399.53 163.79 396.823 160.437 393.484 160.437L190.205 160.437C186.865 160.437 184.158 163.79 184.158 167.928C184.158 172.065 186.865 175.419 190.205 175.419Z" fill="url(#paint14_linear)"/>
<path d="M190.205 199.141L393.484 199.141C396.823 199.141 399.53 195.787 399.53 191.649C399.53 187.512 396.823 184.158 393.484 184.158L190.205 184.158C186.865 184.158 184.158 187.512 184.158 191.649C184.158 195.787 186.865 199.141 190.205 199.141Z" fill="url(#paint15_linear)"/>
<path d="M272.18 143.581C294.59 143.581 312.757 125.274 312.757 102.691C312.757 80.1086 294.59 61.8018 272.18 61.8018C249.77 61.8018 231.603 80.1086 231.603 102.691C231.603 125.274 249.77 143.581 272.18 143.581Z" fill="url(#paint16_linear)"/>
<path d="M262.742 88.0224L241.621 54.4703C235.694 54.3627 199.656 53.6403 198.517 53.6403V50.5664C199.794 50.5664 240.759 51.3656 242.499 51.4117H243.314L265.313 86.2702L262.742 88.0224Z" fill="white"/>
<path d="M357.704 122.98H319.579L287.786 107.603L289.086 104.876L320.268 119.944H357.704V122.98Z" fill="white"/>
<path d="M334.471 61.1777L393.425 61.1777C395.763 61.1777 397.658 58.802 397.658 55.8715C397.658 52.9409 395.763 50.5652 393.425 50.5652L334.471 50.5652C332.133 50.5652 330.237 52.9409 330.237 55.8715C330.237 58.802 332.133 61.1777 334.471 61.1777Z" fill="url(#paint17_linear)"/>
<path d="M334.471 81.1543L393.425 81.1543C395.763 81.1543 397.658 78.7786 397.658 75.848C397.658 72.9175 395.763 70.5418 393.425 70.5418L334.471 70.5418C332.133 70.5418 330.237 72.9175 330.237 75.848C330.237 78.7786 332.133 81.1543 334.471 81.1543Z" fill="url(#paint18_linear)"/>
<path d="M104.6 155.443C102.566 151.956 100.878 148.278 99.5629 144.461L92.6256 126.364C89.9063 119.265 87.1871 112.165 84.9004 104.88C86.0592 108.561 98.2341 107.386 100.644 106.829C104.549 105.646 108.275 103.939 111.722 101.756C112.155 115.8 105.913 141.429 104.6 155.443Z" fill="white"/>
<path d="M446.989 57.7877C447.514 60.7829 448.639 63.6405 450.298 66.1875C451.115 67.4277 452.205 68.4647 453.484 69.2195C454.762 69.9742 456.195 70.4268 457.675 70.5429C459.106 70.4683 460.508 70.111 461.801 69.4917C463.094 68.8724 464.252 68.0032 465.208 66.9341C468.481 63.6532 470.428 59.2767 470.675 54.6455C470.794 52.3375 470.415 50.0307 469.563 47.883C468.71 45.7353 467.405 43.7973 465.736 42.2014C464.319 40.9338 462.682 39.9373 460.905 39.2614C457.302 37.8926 448.9 36.9126 446.415 41.0658C445.405 42.7769 445.794 45.7324 445.825 47.6612C445.898 51.0656 446.288 54.4557 446.989 57.7877Z" fill="url(#paint19_linear)"/>
<path d="M10.588 107.638C13.4879 109.128 15.7115 111.664 16.8072 114.732C17.4752 116.185 17.6513 117.817 17.309 119.379C16.8984 120.898 15.7884 122.144 15.7884 123.663C15.7884 124.118 15.9708 124.574 15.9708 125.03C15.9708 126.625 14.4503 127.703 12.9297 128.356C12.1013 128.838 11.1753 129.127 10.22 129.203C9.26463 129.28 8.30435 129.141 7.40997 128.797C6.74663 128.397 6.15968 127.883 5.67651 127.278C2.64047 123.883 0.714662 119.644 0.156796 115.126C-0.162526 111.755 -0.3602 108.398 3.41084 107.243C5.76785 106.469 8.33037 106.61 10.588 107.638Z" fill="url(#paint20_linear)"/>
<path d="M503.252 131.88C501.41 134.009 499.038 135.603 496.381 136.499C493.447 137.264 490.404 137.509 487.387 137.223L454.42 136.083C451.787 136.228 449.161 135.698 446.785 134.544C445.727 133.947 444.875 133.04 444.342 131.942C443.395 129.848 444.006 127.431 444.647 125.229C444.762 124.481 445.129 123.796 445.686 123.289C446.254 122.955 446.907 122.795 447.564 122.827C460.449 122.286 473.354 122.414 486.227 123.212C485.585 121.872 484.944 120.502 484.348 119.116C482.916 115.842 481.721 112.466 480.775 109.016C480.237 107.015 479.814 104.985 479.508 102.935C478.317 94.8975 478.592 81.9644 485.448 76.206C492.793 70.0474 499.435 87.6149 501.832 92.3879C504.978 98.6389 507.803 105.198 508.581 112.157C509.36 119.116 507.864 126.645 503.252 131.88Z" fill="#FDBC68"/>
<path d="M453.909 136.048C456.188 136.193 458.476 135.955 460.679 135.346C461.723 135.002 462.721 134.471 463.749 134.206C464.778 133.941 465.576 133.909 466.466 133.691C467.331 133.435 468.173 133.106 468.984 132.707L482.278 126.462C483.728 125.832 485.125 125.08 486.453 124.214C486.638 124.103 486.787 123.941 486.883 123.746C487.114 123.153 486.392 122.7 485.901 122.31C484.918 121.529 484.366 120.015 483.168 119.859C482.543 119.853 481.93 120.032 481.403 120.374C472.192 125.182 461.278 125.448 451.76 129.616C450.317 130.256 447.001 131.817 447.692 133.956C448.383 136.095 452.236 136.033 453.909 136.048Z" fill="url(#paint21_linear)"/>
<path d="M490.564 114.825C489.931 117.531 487.37 119.007 484.592 119.991C484.113 120.145 483.635 120.314 483.141 120.452L481.598 120.883C474.702 122.708 468.046 125.335 461.766 128.708C455.238 132.214 448.278 136.672 441.025 135.166C435.716 134.043 431.503 129.785 429.265 124.865C427.237 119.835 426.261 114.447 426.394 109.029C426.255 102.095 426.78 94.9916 429.651 88.688C429.651 88.688 436.024 80.0628 440.052 77.8334C444.08 75.6041 446.796 82.9071 446.796 82.9071C447.476 84.8136 448.34 105.708 448.679 114.102C458.464 113.241 468.238 112.652 478.002 112.334L481.659 112.211L487.508 112.088C488.604 112.088 489.931 112.181 490.472 113.149C490.704 113.678 490.737 114.274 490.564 114.825Z" fill="#FDBC68"/>
<path d="M484.43 120.156C483.943 120.15 483.458 120.215 482.986 120.349C481.729 120.656 480.212 121.108 480.212 121.108C480.212 121.108 479.027 116.765 478.507 115.005C478.247 113.988 478.144 112.929 478.204 111.873L481.628 111.744C482.437 114.505 483.448 117.411 484.401 119.913C484.419 119.993 484.428 120.074 484.43 120.156Z" fill="url(#paint22_linear)"/>
<path d="M432.551 39.9694C429.77 37.2086 429.495 32.7641 429.495 28.7595C434.598 26.8179 440.19 29.6848 445.538 30.1247C449.526 30.4433 453.483 29.4269 457.455 28.8353C461.428 28.2438 465.66 28.1224 469.19 30.064C472.719 32.0057 475.133 36.6322 473.559 40.4396C474.261 40.2822 474.996 40.3536 475.653 40.6432C476.311 40.9328 476.857 41.4253 477.211 42.0475C477.929 43.3391 478.263 44.8069 478.174 46.2796C478.129 49.101 477.401 51.8703 476.053 54.3543C474.705 56.8384 472.776 58.9645 470.427 60.5536C468.624 56.5945 472.245 51.4523 469.923 47.7359C469.376 46.9736 468.655 46.3517 467.818 45.9217C466.981 45.4917 466.053 45.266 465.11 45.2633C463.244 45.2871 461.387 45.5315 459.579 45.9914C454.996 46.8712 449.48 47.5083 444.896 46.1431C441.015 45.0055 435.423 42.8515 432.551 39.9694Z" fill="#3E3E54"/>
<path d="M445.206 106.756C444.483 106.848 443.819 107.205 443.34 107.76C442.861 108.315 442.599 109.028 442.605 109.765C442.639 110.498 442.825 111.215 443.15 111.871C443.475 112.527 443.932 113.106 444.492 113.572C444.942 114.066 445.507 114.437 446.135 114.653C446.764 114.868 447.436 114.921 448.089 114.806C448.316 114.757 448.526 114.648 448.699 114.49C449.018 114.113 449.192 113.632 449.189 113.136C449.293 111.977 449.769 109.795 449.189 108.712C448.609 107.629 446.306 106.666 445.206 106.756Z" fill="url(#paint23_linear)"/>
<path d="M481.942 109.411C482.236 109.269 482.57 109.218 482.897 109.263C483.224 109.309 483.527 109.449 483.765 109.665C484.086 110.102 484.243 110.627 484.209 111.157L484.383 116.201C484.447 117.22 484.447 118.242 484.383 119.26C484.383 119.438 484.322 119.611 484.209 119.753C483.94 120.007 483.48 119.753 483.179 119.559C481.258 118.005 479.795 116.01 478.931 113.769C478.297 112.082 480.342 110.053 481.942 109.411Z" fill="url(#paint24_linear)"/>
<path d="M110.539 68.2021C110.056 70.8257 109.003 73.3158 107.451 75.5023C106.676 76.5934 105.662 77.4996 104.483 78.1537C103.305 78.8078 101.991 79.1932 100.641 79.2814C98.0033 79.167 95.5156 78.0452 93.7072 76.1549C90.7164 73.3695 88.9119 69.5728 88.6576 65.5309C88.572 63.5122 88.9431 61.5 89.7442 59.6392C90.5452 57.7785 91.7564 56.1156 93.2902 54.7704C94.6053 53.6654 96.1117 52.8018 97.7376 52.2206C101.073 51.0368 108.825 50.1717 111.111 53.7383C112.037 55.256 111.682 57.821 111.651 59.4601C111.583 62.4036 111.21 65.3327 110.539 68.2021Z" fill="url(#paint25_linear)"/>
<defs>
<linearGradient id="paint0_linear" x1="140.098" y1="266.076" x2="67.919" y2="175.469" gradientUnits="userSpaceOnUse">
<stop stop-opacity="0"/>
<stop offset="0.99"/>
</linearGradient>
<linearGradient id="paint1_linear" x1="4679.76" y1="25089.7" x2="-653.137" y2="22958.2" gradientUnits="userSpaceOnUse">
<stop stop-opacity="0"/>
<stop offset="0.99"/>
</linearGradient>
<linearGradient id="paint2_linear" x1="6227.05" y1="1603.71" x2="6273.67" y2="1876.35" gradientUnits="userSpaceOnUse">
<stop stop-opacity="0"/>
<stop offset="0.99"/>
</linearGradient>
<linearGradient id="paint3_linear" x1="17001.8" y1="4204.69" x2="16880.6" y2="4889.64" gradientUnits="userSpaceOnUse">
<stop stop-opacity="0"/>
<stop offset="0.99"/>
</linearGradient>
<linearGradient id="paint4_linear" x1="22394.2" y1="7128.96" x2="22579.8" y2="6082.52" gradientUnits="userSpaceOnUse">
<stop stop-opacity="0"/>
<stop offset="0.99"/>
</linearGradient>
<linearGradient id="paint5_linear" x1="456.872" y1="69.6139" x2="470.696" y2="69.6139" gradientUnits="userSpaceOnUse">
<stop stop-color="#E5C5D5"/>
<stop offset="0.42" stop-color="#EAD4D1"/>
<stop offset="1" stop-color="#F0E9CB"/>
</linearGradient>
<linearGradient id="paint6_linear" x1="2792.52" y1="64397" x2="4044.26" y2="64400.5" gradientUnits="userSpaceOnUse">
<stop stop-opacity="0"/>
<stop offset="0.99"/>
</linearGradient>
<linearGradient id="paint7_linear" x1="12352" y1="12722.1" x2="10984.3" y2="5834.33" gradientUnits="userSpaceOnUse">
<stop stop-opacity="0"/>
<stop offset="0.99"/>
</linearGradient>
<linearGradient id="paint8_linear" x1="9566.38" y1="9889.96" x2="4530.64" y2="11078.8" gradientUnits="userSpaceOnUse">
<stop stop-opacity="0"/>
<stop offset="0.99"/>
</linearGradient>
<linearGradient id="paint9_linear" x1="2209.25" y1="18673.1" x2="899.761" y2="18713.4" gradientUnits="userSpaceOnUse">
<stop stop-opacity="0"/>
<stop offset="0.99"/>
</linearGradient>
<linearGradient id="paint10_linear" x1="2190.28" y1="7081.13" x2="2734.45" y2="7081.13" gradientUnits="userSpaceOnUse">
<stop stop-color="#E5C5D5"/>
<stop offset="0.42" stop-color="#EAD4D1"/>
<stop offset="1" stop-color="#F0E9CB"/>
</linearGradient>
<linearGradient id="paint11_linear" x1="908.032" y1="2049.95" x2="941.913" y2="1630.75" gradientUnits="userSpaceOnUse">
<stop stop-opacity="0"/>
<stop offset="0.99"/>
</linearGradient>
<linearGradient id="paint12_linear" x1="3009.9" y1="10329" x2="3413.68" y2="13287.9" gradientUnits="userSpaceOnUse">
<stop stop-opacity="0"/>
<stop offset="0.99"/>
</linearGradient>
<linearGradient id="paint13_linear" x1="7664.27" y1="4360.13" x2="9638.1" y2="4360.13" gradientUnits="userSpaceOnUse">
<stop stop-color="#E5C5D5"/>
<stop offset="0.42" stop-color="#EAD4D1"/>
<stop offset="1" stop-color="#F0E9CB"/>
</linearGradient>
<linearGradient id="paint14_linear" x1="50439" y1="2814.27" x2="50431.8" y2="5137.04" gradientUnits="userSpaceOnUse">
<stop stop-opacity="0"/>
<stop offset="0.99"/>
</linearGradient>
<linearGradient id="paint15_linear" x1="50583.3" y1="2838.44" x2="50576.1" y2="5161.21" gradientUnits="userSpaceOnUse">
<stop stop-opacity="0"/>
<stop offset="0.99"/>
</linearGradient>
<linearGradient id="paint16_linear" x1="16513.7" y1="1857.67" x2="15493.5" y2="18578.9" gradientUnits="userSpaceOnUse">
<stop stop-opacity="0"/>
<stop offset="0.99"/>
</linearGradient>
<linearGradient id="paint17_linear" x1="20062.3" y1="1183.98" x2="20044.9" y2="2593.61" gradientUnits="userSpaceOnUse">
<stop stop-opacity="0"/>
<stop offset="0.99"/>
</linearGradient>
<linearGradient id="paint18_linear" x1="20129.7" y1="1204.81" x2="20112.4" y2="2614.42" gradientUnits="userSpaceOnUse">
<stop stop-opacity="0"/>
<stop offset="0.99"/>
</linearGradient>
<linearGradient id="paint19_linear" x1="9701.35" y1="4813.87" x2="10102.6" y2="4813.87" gradientUnits="userSpaceOnUse">
<stop stop-color="#E5C5D5"/>
<stop offset="0.42" stop-color="#EAD4D1"/>
<stop offset="1" stop-color="#F0E9CB"/>
</linearGradient>
<linearGradient id="paint20_linear" x1="335.256" y1="4161.43" x2="535.57" y2="4161.43" gradientUnits="userSpaceOnUse">
<stop stop-color="#E5C5D5"/>
<stop offset="0.42" stop-color="#EAD4D1"/>
<stop offset="1" stop-color="#F0E9CB"/>
</linearGradient>
<linearGradient id="paint21_linear" x1="15643.1" y1="3371.72" x2="15579.4" y2="2956.59" gradientUnits="userSpaceOnUse">
<stop stop-opacity="0"/>
<stop offset="0.99"/>
</linearGradient>
<linearGradient id="paint22_linear" x1="2897.34" y1="1884.44" x2="3037.79" y2="1851.75" gradientUnits="userSpaceOnUse">
<stop stop-opacity="0"/>
<stop offset="0.99"/>
</linearGradient>
<linearGradient id="paint23_linear" x1="2972.11" y1="1598.05" x2="3003.9" y2="1598.05" gradientUnits="userSpaceOnUse">
<stop stop-color="#E5C5D5"/>
<stop offset="0.42" stop-color="#EAD4D1"/>
<stop offset="1" stop-color="#F0E9CB"/>
</linearGradient>
<linearGradient id="paint24_linear" x1="2682.23" y1="2084.77" x2="2702.18" y2="2084.77" gradientUnits="userSpaceOnUse">
<stop stop-color="#E5C5D5"/>
<stop offset="0.42" stop-color="#EAD4D1"/>
<stop offset="1" stop-color="#F0E9CB"/>
</linearGradient>
<linearGradient id="paint25_linear" x1="1859.1" y1="4156.83" x2="2203.48" y2="4156.83" gradientUnits="userSpaceOnUse">
<stop stop-color="#E5C5D5"/>
<stop offset="0.42" stop-color="#EAD4D1"/>
<stop offset="1" stop-color="#F0E9CB"/>
</linearGradient>
</defs>
</svg>
