<svg width="565" height="450" viewBox="0 0 565 450" fill="none" xmlns="http://www.w3.org/2000/svg">
<g clip-path="url(#clip0)">
<path opacity="0.1" d="M331.352 76.0479C295.602 74.8028 261.548 63.2423 229.034 50.5917C196.521 37.941 164.317 23.9235 129.423 17.2218C106.98 12.9109 81.3105 12.3022 63.231 24.3551C45.8254 35.9765 40.2021 55.9818 37.1806 74.5648C34.9048 88.5436 33.568 103.253 39.8044 116.341C44.1296 125.427 51.8132 133.064 57.1216 141.797C75.6099 172.079 62.546 209.422 42.5111 238.99C33.1206 252.864 22.211 266.106 14.9637 280.86C7.71644 295.614 4.35794 312.542 10.6993 327.605C16.991 342.547 31.9771 353.748 48.2062 361.634C81.1779 377.655 120.016 382.237 157.915 384.832C241.783 390.582 326.094 388.092 410.183 385.601C441.304 384.677 472.558 383.742 503.171 378.922C520.174 376.243 537.723 371.999 550.069 361.739C565.734 348.717 569.618 326.665 559.122 310.339C541.507 282.952 492.836 276.151 480.507 246.754C473.735 230.578 480.695 212.56 490.538 197.552C511.661 165.366 547.064 137.126 548.931 100.336C550.212 75.0629 533.188 49.7616 506.872 37.8027C479.292 25.224 441.034 26.8177 420.695 47.5646C399.738 68.9423 362.916 77.1436 331.352 76.0479Z" fill="#6C63FF"/>
<path d="M240.535 382.12L51.4653 381.196L32.6787 337.052L99.1084 332.22L87.5304 283.82L218.92 266.759L93.1039 222.941L104.218 220.296L306.528 253.361L295.387 328.894L279.462 370.405L240.535 382.12Z" fill="#6C63FF"/>
<path d="M54.3652 362.707C54.3652 362.707 65.9653 360.848 72.9253 369.06C72.9253 369.06 67.8213 373.089 56.8399 367.51L54.3652 362.707Z" fill="#6C63FF"/>
<path d="M53.1504 362.524C53.1504 362.524 45.7485 371.65 49.3942 381.81C49.3942 381.81 55.4262 379.392 56.0836 367.073L53.1504 362.524Z" fill="#6C63FF"/>
<path d="M46.5 347.522C46.5 347.522 51.14 338.994 69.7001 350.931C69.7001 350.931 67.2254 356.664 59.0281 356.199C50.8307 355.734 48.6653 352.015 46.5 347.522Z" fill="#6C63FF"/>
<path d="M45.3008 346.908C45.3008 346.908 35.6728 345.801 34.7393 367.881C34.7393 367.881 40.8431 369.149 45.1793 362.165C49.5155 355.181 47.7368 351.263 45.3008 346.908Z" fill="#6C63FF"/>
<path d="M39.6943 329.293C39.6943 329.293 45.1077 314.263 64.7505 324.955C64.7505 324.955 60.2651 338.745 41.705 334.407L39.6943 329.293Z" fill="#6C63FF"/>
<path d="M33.6621 306.826C33.6621 306.826 43.8702 291.64 61.9662 305.719C61.9662 305.719 55.6249 319.974 35.2088 312.227L33.6621 306.826Z" fill="#6C63FF"/>
<path d="M31.4971 285.442C31.4971 285.442 43.4065 271.491 61.3258 285.442C61.3258 285.442 50.0351 297.683 31.4971 289.006V285.442Z" fill="#6C63FF"/>
<path d="M29.6406 264.673C29.6406 264.673 41.7047 250.108 58.8728 263.898C58.8728 263.898 45.262 276.759 29.6406 268.082V264.673Z" fill="#6C63FF"/>
<path d="M30.7236 246.234C30.7236 246.234 43.4285 227.485 59.4918 240.191C59.4918 240.191 45.881 256.306 30.7236 249.798V246.234Z" fill="#6C63FF"/>
<path d="M33.6621 224.695C33.6621 224.695 47.1182 206.101 62.7396 220.357C62.7396 220.357 46.8088 236.472 33.6621 228.104V224.695Z" fill="#6C63FF"/>
<path d="M38.1481 205.443C38.1481 205.443 54.0789 187.967 67.9769 194.928C67.9769 194.928 51.3777 213.489 37.4521 210.08L38.1481 205.443Z" fill="#6C63FF"/>
<path d="M43.7157 187.192C43.7157 187.192 62.0991 165.786 72.7932 172.936C72.7932 172.936 59.2488 189.538 42.4121 191.198L43.7157 187.192Z" fill="#6C63FF"/>
<path d="M51.7526 166.024C51.7526 166.024 67.8435 148.548 79.5983 152.887C79.5983 152.887 65.8329 171.016 49.5928 171.481L51.7526 166.024Z" fill="#6C63FF"/>
<path d="M59.0272 146.224C59.0272 146.224 76.814 129.489 84.5474 132.433C84.5474 132.433 71.71 151.027 58.2539 149.943L59.0272 146.224Z" fill="#6C63FF"/>
<path d="M66.1426 127.94C66.1426 127.94 81.4547 107.945 89.8122 109.495C89.8122 109.495 80.5267 127.32 66.1426 129.97V127.94Z" fill="#6C63FF"/>
<path d="M73.8646 103.286C73.8646 103.286 87.3979 87.962 94.7115 87.9952C94.7115 87.9952 84.0284 108.471 73.3066 108.283L73.8646 103.286Z" fill="#6C63FF"/>
<path d="M78.4381 86.8721L91.513 54.9521C91.513 54.9521 92.1648 83.8062 76.7754 92.7934L78.4381 86.8721Z" fill="#6C63FF"/>
<path d="M83.7466 51.6702C83.7466 51.6702 85.9119 25.0131 84.5199 22.8438C84.5199 22.8438 93.8662 45.0073 83.6582 63.4465L83.7466 51.6702Z" fill="#6C63FF"/>
<path d="M39.1864 328.939C39.1864 328.939 25.6309 320.522 16.8535 341.114C16.8535 341.114 28.9176 349.138 40.7828 334.191L39.1864 328.939Z" fill="#6C63FF"/>
<path d="M33.2257 305.967C33.2257 305.967 16.599 298.369 8.53418 319.868C8.53418 319.868 21.3771 328.723 34.7393 311.401L33.2257 305.967Z" fill="#6C63FF"/>
<path d="M30.7232 286.72C30.7232 286.72 18.8139 272.769 0.894531 286.72C0.894531 286.72 12.1852 298.961 30.7232 290.284V286.72Z" fill="#6C63FF"/>
<path d="M29.2321 264.673C29.2321 264.673 17.1681 250.108 0 263.898C0 263.898 13.6107 276.759 29.2321 268.082V264.673Z" fill="#6C63FF"/>
<path d="M30.7231 246.765C30.7231 246.765 22.2606 225.764 3.86621 234.795C3.86621 234.795 13.8091 253.417 29.9719 250.251L30.7231 246.765Z" fill="#6C63FF"/>
<path d="M34.7279 224.59C34.7279 224.59 26.3151 203.224 7.66113 213.13C7.66113 213.13 19.0844 232.714 33.8994 227.889L34.7279 224.59Z" fill="#6C63FF"/>
<path d="M39.9431 205.548C39.9431 205.548 36.6288 182.123 21.1621 180.025C21.1621 180.025 24.4433 204.729 37.8607 209.77L39.9431 205.548Z" fill="#6C63FF"/>
<path d="M44.1076 187.237C44.1076 187.237 42.815 159.013 30.0273 158.028C30.0273 158.028 30.4582 179.45 42.6659 191.232L44.1076 187.237Z" fill="#6C63FF"/>
<path d="M53.0787 165.234C53.0787 165.234 49.2672 141.764 37.0596 138.897C37.0596 138.897 38.5731 161.625 51.869 170.994L53.0787 165.234Z" fill="#6C63FF"/>
<path d="M60.4752 146.418C60.4752 146.418 60.3482 121.968 52.891 118.377C52.891 118.377 48.2675 140.513 58.3154 149.539L60.4752 146.418Z" fill="#6C63FF"/>
<path d="M66.7112 127.663C66.7112 127.663 65.6671 102.489 57.9448 98.9414C57.9448 98.9414 55.3044 118.864 65.5567 129.312L66.7112 127.663Z" fill="#6C63FF"/>
<path d="M74.9416 105.295C74.9416 105.295 74.8974 84.8191 69.3846 80.0156C69.3846 80.0156 63.905 102.445 72.0637 109.412L74.9416 105.295Z" fill="#6C63FF"/>
<path d="M77.7919 85.8653L72.4283 51.7871C72.4283 51.7871 65.1423 79.7115 78.046 92.019L77.7919 85.8653Z" fill="#6C63FF"/>
<path d="M78.8356 51.9914C78.8356 51.9914 65.0702 29.0808 65.3519 26.5352C65.3519 26.5352 66.8157 50.547 84.133 62.5059L78.8356 51.9914Z" fill="#6C63FF"/>
<path d="M80.4495 45.2237C80.4495 45.2237 67.4574 12.684 61.5801 10.0498C61.5801 10.0498 80.1402 19.5018 81.5322 44.294L80.4495 45.2237Z" fill="#6C63FF"/>
<path d="M73.2409 108.477L72.3516 108.205C83.3164 72.3841 86.0507 49.5454 80.0573 43.8177L80.6925 43.1426C87.0505 49.1857 84.4708 71.7753 73.2409 108.477Z" fill="#444053"/>
<path d="M43.0471 192.35L41.7324 191.879C42.898 188.598 44.1519 185.266 45.4665 181.985C56.9119 153.407 66.656 126.822 72.9034 106.413L74.0469 105.859C67.7884 126.307 58.2155 153.911 46.7591 182.527C45.45 185.748 44.2016 189.063 43.0471 192.35Z" fill="#444053"/>
<path d="M70.7105 389.513C70.5338 389.32 52.7636 369.27 40.3736 335.043C33.1139 315.004 29.0736 293.938 28.4035 272.631C27.5528 245.996 33.1319 216.256 42.6881 189.239L43.7266 190.457C22.272 251.092 30.7953 303.051 42.1026 334.34C54.36 368.258 71.9313 388.086 72.1025 388.285L70.7105 389.513Z" fill="#444053"/>
<path d="M348.405 346.946C348.405 346.946 335.883 362.259 345.825 385.407L245.844 428.849L236.249 430.863L231.83 411.494L234.785 387.051V373.692L348.405 346.946Z" fill="#D5D6DB"/>
<path d="M32.6787 337.052L171.062 311.778L354.426 341.042L240.535 382.121L32.6787 337.052Z" fill="#6C63FF"/>
<path d="M32.6787 337.052L171.062 311.778L354.426 341.042L240.535 382.121L32.6787 337.052Z" fill="#6C63FF"/>
<path d="M32.6793 337.046C32.6793 337.046 19.7369 361.611 34.6513 384.3L239.862 428.849C239.862 428.849 227.124 409.281 240.519 382.12L32.6793 337.046Z" fill="#6C63FF"/>
<path opacity="0.1" d="M32.6793 337.046C32.6793 337.046 19.7369 361.611 34.6513 384.3L239.862 428.849C239.862 428.849 227.124 409.281 240.519 382.12L32.6793 337.046Z" fill="black"/>
<path opacity="0.1" d="M38.7941 345.563C38.7941 345.563 31.3977 363.538 38.7941 375.17V345.563Z" fill="black"/>
<path d="M239.862 428.85L354.426 379.874C354.426 379.874 360.834 381.258 356.691 385.961C352.548 390.665 242.071 433.553 242.071 433.553L34.6514 384.301L239.862 428.85Z" fill="#6C63FF"/>
<path opacity="0.1" d="M239.862 428.85L354.426 379.874C354.426 379.874 360.834 381.258 356.691 385.961C352.548 390.665 242.071 433.553 242.071 433.553L34.6514 384.301L239.862 428.85Z" fill="black"/>
<path opacity="0.1" d="M230.471 387.067C230.471 387.067 219.423 400.349 230.471 420.271V387.067Z" fill="black"/>
<path opacity="0.1" d="M283.957 386.844L234.403 403.406L234.578 403.931L284.132 387.368L283.957 386.844Z" fill="black"/>
<path opacity="0.1" d="M293.883 385.195L234.388 407.86L234.584 408.378L294.079 385.712L293.883 385.195Z" fill="black"/>
<path opacity="0.1" d="M302.998 385.116L234.72 413.114L234.929 413.626L303.207 385.628L302.998 385.116Z" fill="black"/>
<path opacity="0.1" d="M312.91 382.718L235.517 417.743L235.744 418.247L313.137 383.223L312.91 382.718Z" fill="black"/>
<path opacity="0.1" d="M321.237 382.729L236.129 419.998L236.35 420.505L321.458 383.236L321.237 382.729Z" fill="black"/>
<path opacity="0.1" d="M339.452 379.63L237.412 423.783L237.631 424.291L339.671 380.138L339.452 379.63Z" fill="black"/>
<path opacity="0.3" d="M84.0889 339.752L181.308 319.276L240.535 330.621L160.87 356.354L84.0889 339.752Z" fill="white"/>
<path d="M354.426 341.042C354.426 341.042 359.452 343.073 356.503 346.211C353.553 349.349 240.519 382.121 240.519 382.121L354.426 341.042Z" fill="#6C63FF"/>
<path d="M403.251 293.721C403.251 293.721 390.734 309.028 400.677 332.182L300.696 375.623L291.101 377.649L286.682 358.28L289.681 333.842V320.466L403.251 293.721Z" fill="#D5D6DB"/>
<path d="M87.5303 283.821L225.908 258.553L409.277 287.816L295.387 328.895L87.5303 283.821Z" fill="#3A3768"/>
<path d="M87.5083 283.82C87.5083 283.82 74.5604 308.386 89.4748 331.075L294.685 375.623C294.685 375.623 281.953 356.039 295.365 328.889L87.5083 283.82Z" fill="#3A3768"/>
<path opacity="0.1" d="M87.5083 283.82C87.5083 283.82 74.5604 308.386 89.4748 331.075L294.685 375.623C294.685 375.623 281.953 356.039 295.365 328.889L230.471 314.816L87.5083 283.82Z" fill="black"/>
<path opacity="0.1" d="M93.6403 292.337C93.6403 292.337 86.2494 310.306 93.6403 321.944V292.337Z" fill="black"/>
<path d="M294.708 375.623L409.277 326.647C409.277 326.647 415.68 328.031 411.537 332.735C407.394 337.439 296.917 380.327 296.917 380.327L89.4971 331.075L294.708 375.623Z" fill="#3A3768"/>
<path opacity="0.1" d="M294.708 375.623L409.277 326.647C409.277 326.647 415.68 328.031 411.537 332.735C407.394 337.439 296.917 380.327 296.917 380.327L89.4971 331.075L294.708 375.623Z" fill="black"/>
<path opacity="0.1" d="M285.317 333.842C285.317 333.842 274.27 347.123 285.317 367.046V333.842Z" fill="black"/>
<path opacity="0.1" d="M338.808 333.624L289.254 350.187L289.429 350.711L338.983 334.149L338.808 333.624Z" fill="black"/>
<path opacity="0.1" d="M348.74 331.972L289.245 354.638L289.441 355.155L348.936 332.49L348.74 331.972Z" fill="black"/>
<path opacity="0.1" d="M357.847 331.885L289.568 359.884L289.778 360.396L358.056 332.397L357.847 331.885Z" fill="black"/>
<path opacity="0.1" d="M367.765 329.489L290.372 364.514L290.599 365.018L367.993 329.993L367.765 329.489Z" fill="black"/>
<path opacity="0.1" d="M376.085 329.493L290.977 366.762L291.198 367.269L376.306 330L376.085 329.493Z" fill="black"/>
<path opacity="0.1" d="M394.305 326.394L292.265 370.547L292.484 371.055L394.524 326.902L394.305 326.394Z" fill="black"/>
<path opacity="0.45" d="M138.941 286.526L236.161 266.051L295.387 277.395L215.723 303.128L138.941 286.526Z" fill="white"/>
<path d="M409.277 287.816C409.277 287.816 414.298 289.847 411.354 292.98C408.41 296.112 295.387 328.889 295.387 328.889L409.277 287.816Z" fill="#3A3768"/>
<path d="M408.444 232.83C408.444 232.83 395.921 260.317 405.864 283.466L305.883 314.733L296.31 316.764L291.891 297.395L294.846 272.951V259.576L408.444 232.83Z" fill="#D5D6DB"/>
<path d="M92.7402 222.936L231.123 197.662L414.493 226.926L300.597 268.004L92.7402 222.936Z" fill="#6C63FF"/>
<path d="M92.7396 222.931C92.7396 222.931 79.7751 247.496 94.6895 270.185L299.9 314.734C299.9 314.734 287.162 295.149 300.574 268.005L92.7396 222.931Z" fill="#6C63FF"/>
<path opacity="0.1" d="M92.7396 222.931C92.7396 222.931 79.7751 247.496 94.6895 270.185L299.9 314.734C299.9 314.734 287.162 295.149 300.574 268.005L92.7396 222.931Z" fill="black"/>
<path opacity="0.1" d="M98.8547 231.447C98.8547 231.447 91.4582 249.422 98.8547 261.054V231.447Z" fill="black"/>
<path d="M299.922 314.733L414.487 277.932C414.487 277.932 420.894 279.316 416.752 284.019C412.609 288.723 302.132 319.437 302.132 319.437L94.7119 270.185L299.922 314.733Z" fill="#6C63FF"/>
<path opacity="0.1" d="M299.922 314.733L414.487 277.932C414.487 277.932 420.894 279.316 416.752 284.019C412.609 288.723 302.132 319.437 302.132 319.437L94.7119 270.185L299.922 314.733Z" fill="black"/>
<path opacity="0.1" d="M290.531 272.952C290.531 272.952 279.484 286.234 290.531 306.156V272.952Z" fill="black"/>
<path opacity="0.1" d="M344.024 272.732L294.47 289.295L294.645 289.82L344.198 273.257L344.024 272.732Z" fill="black"/>
<path opacity="0.1" d="M353.952 271.084L294.457 293.749L294.653 294.266L354.148 271.601L353.952 271.084Z" fill="black"/>
<path opacity="0.1" d="M363.054 271L294.775 298.998L294.985 299.51L363.263 271.512L363.054 271Z" fill="black"/>
<path opacity="0.1" d="M372.98 268.598L295.587 303.623L295.814 304.127L373.208 269.102L372.98 268.598Z" fill="black"/>
<path opacity="0.1" d="M381.303 268.608L296.194 305.877L296.416 306.384L381.524 269.115L381.303 268.608Z" fill="black"/>
<path opacity="0.1" d="M399.52 265.512L297.48 309.665L297.699 310.173L399.739 266.02L399.52 265.512Z" fill="black"/>
<path opacity="0.3" d="M144.15 225.637L241.37 205.161L300.596 216.506L220.932 242.239L144.15 225.637Z" fill="white"/>
<path d="M414.486 226.926C414.486 226.926 419.513 228.957 416.563 232.095C413.613 235.232 300.596 268.004 300.596 268.004L414.486 226.926Z" fill="#6C63FF"/>
<path d="M171.471 58.9364C171.471 58.9364 150.48 57.6691 152.933 72.4227C152.933 72.4227 152.441 75.0292 154.8 76.2135C154.8 76.2135 154.838 75.1067 156.954 75.4885C157.709 75.6184 158.477 75.6556 159.241 75.5992C160.271 75.5286 161.25 75.1246 162.03 74.4481C162.03 74.4481 167.935 72.0021 170.233 62.3287C170.233 62.3287 171.935 60.2203 171.891 59.678L168.333 61.1943C168.333 61.1943 169.543 63.7565 168.593 65.8871C168.593 65.8871 168.477 61.2884 167.792 61.3935C167.654 61.3935 165.952 62.2845 165.952 62.2845C165.952 62.2845 168.035 66.7504 166.461 69.9933C166.461 69.9933 167.057 64.4925 165.301 62.6054L162.804 64.0664C162.804 64.0664 165.24 68.6762 163.588 72.4393C163.588 72.4393 164.014 66.6674 162.279 64.4206L160.014 66.1915C160.014 66.1915 162.307 70.7348 160.909 73.856C160.909 73.856 160.727 67.1378 159.528 66.6286C159.528 66.6286 157.545 68.3774 157.247 69.0968C157.247 69.0968 158.816 72.4172 157.838 74.1382C157.838 74.1382 157.247 69.6612 156.733 69.6391C156.733 69.6391 154.761 72.6053 154.557 74.6197C154.652 72.7417 155.237 70.9216 156.253 69.3403C155.116 69.5557 154.067 70.1002 153.237 70.9064C153.237 70.9064 153.54 68.809 156.744 68.6264C156.744 68.6264 158.374 66.3741 158.81 66.2413C158.81 66.2413 155.623 65.9701 153.695 66.8279C153.695 66.8279 155.396 64.8522 159.39 65.7211L161.6 63.8949C161.6 63.8949 157.413 63.3415 155.634 63.9557C155.634 63.9557 157.683 62.207 162.202 63.4798L164.638 62.0244C164.638 62.0244 161.064 61.2552 158.937 61.5319C158.937 61.5319 161.18 60.3199 165.35 61.6315L167.085 60.8512C167.085 60.8512 164.472 60.3365 163.704 60.2535C162.936 60.1705 162.898 59.9602 162.898 59.9602C164.556 59.6874 166.257 59.8789 167.814 60.5136C167.814 60.5136 171.543 59.1688 171.471 58.9364Z" fill="#6C63FF"/>
<path opacity="0.1" d="M466.775 119.578C466.775 119.578 445.785 118.311 448.237 133.064C448.237 133.064 447.746 135.671 450.104 136.855C450.104 136.855 450.143 135.748 452.259 136.13C453.014 136.257 453.782 136.294 454.546 136.241C455.566 136.165 456.535 135.762 457.308 135.09C457.308 135.09 463.218 132.644 465.51 122.97C465.51 122.97 467.212 120.862 467.168 120.32L463.621 121.836C463.621 121.836 464.831 124.398 463.881 126.529C463.881 126.529 463.765 121.93 463.085 122.035C462.947 122.035 461.241 122.926 461.241 122.926C461.241 122.926 463.323 127.392 461.754 130.635C461.754 130.635 462.351 125.134 460.589 123.247L458.092 124.708C458.092 124.708 460.528 129.318 458.876 133.081C458.876 133.081 459.302 127.309 457.567 125.062L455.308 126.833C455.308 126.833 457.595 131.376 456.197 134.498C456.197 134.498 456.015 127.779 454.816 127.27C454.816 127.27 452.839 129.019 452.535 129.738C452.535 129.738 454.104 133.059 453.132 134.78C453.132 134.78 452.535 130.303 452.027 130.281C452.027 130.281 450.055 133.247 449.85 135.261C449.946 133.383 450.533 131.562 451.552 129.982C450.414 130.198 449.364 130.742 448.53 131.548C448.53 131.548 448.84 129.451 452.038 129.268C452.038 129.268 453.667 127.016 454.104 126.877C454.104 126.877 450.922 126.612 448.989 127.469C448.989 127.469 450.69 125.494 454.684 126.363L456.893 124.536C456.893 124.536 452.701 123.983 450.928 124.597C450.928 124.597 452.971 122.849 457.495 124.121L459.926 122.666C459.926 122.666 456.352 121.897 454.225 122.173C454.225 122.173 456.468 120.962 460.638 122.273L462.378 121.493C462.378 121.493 459.76 120.978 458.992 120.895C458.225 120.812 458.186 120.602 458.186 120.602C459.844 120.325 461.546 120.517 463.102 121.155C463.102 121.155 466.842 119.81 466.775 119.578Z" fill="#6C63FF"/>
<path opacity="0.1" d="M206.824 150.081C206.824 150.081 197.676 131.083 186.032 140.446C186.032 140.446 183.518 141.288 183.64 143.927C183.64 143.927 184.607 143.424 185.297 145.46C185.555 146.18 185.896 146.867 186.314 147.508C186.879 148.376 187.71 149.036 188.683 149.389C188.683 149.389 193.693 153.363 203.244 150.651C203.244 150.651 205.912 151.11 206.349 150.789L203.299 148.426C203.299 148.426 201.642 150.734 199.333 150.939C199.333 150.939 203.288 148.598 202.863 148.056C202.775 147.945 201.206 146.877 201.206 146.877C201.206 146.877 198.328 150.878 194.737 151.083C194.737 151.083 199.819 148.924 200.604 146.462L198.118 144.99C198.118 144.99 195.284 149.373 191.202 149.76C191.202 149.76 196.439 147.32 197.549 144.708L194.909 143.601C194.909 143.601 192.064 147.818 188.661 148.122C188.661 148.122 194.428 144.685 194.284 143.385C194.284 143.385 191.793 142.511 191.02 142.594C191.02 142.594 188.91 145.576 186.921 145.576C186.921 145.576 190.528 142.87 190.307 142.433C190.307 142.433 186.761 142.156 184.894 142.987C186.576 142.149 188.448 141.767 190.324 141.88C189.58 140.991 188.593 140.339 187.485 140.004C187.485 140.004 189.462 139.251 191.18 141.957C191.18 141.957 193.942 142.284 194.268 142.599C194.268 142.599 192.948 139.688 191.263 138.421C191.263 138.421 193.815 138.936 194.98 142.848L197.66 143.911C197.66 143.911 196.118 139.97 194.699 138.725C194.699 138.725 197.218 139.661 198.317 144.259L200.769 145.676C200.769 145.676 199.703 142.173 198.422 140.452C198.422 140.452 200.571 141.824 201.46 146.108L202.99 147.248C202.99 147.248 202.161 144.708 201.885 143.999C201.609 143.291 201.747 143.147 201.747 143.147C202.798 144.461 203.464 146.042 203.669 147.713C203.669 147.713 206.625 150.247 206.824 150.081Z" fill="#6C63FF"/>
<path opacity="0.1" d="M418.817 92.7383C418.817 92.7383 409.675 73.7402 398.026 83.1036C398.026 83.1036 395.518 83.9448 395.634 86.5845C395.634 86.5845 396.606 86.0864 397.291 88.1174C397.548 88.8403 397.891 89.5295 398.313 90.1705C398.876 91.0371 399.706 91.6958 400.677 92.0465C400.677 92.0465 405.693 96.0199 415.238 93.3138C415.238 93.3138 417.906 93.7676 418.348 93.4466L415.315 91.0781C415.315 91.0781 413.658 93.3913 411.355 93.596C411.355 93.596 415.304 91.2496 414.879 90.7073C414.79 90.5966 413.222 89.5286 413.222 89.5286C413.222 89.5286 410.349 93.5296 406.753 93.7344C406.753 93.7344 411.841 91.5761 412.625 89.1191L410.101 87.6581C410.101 87.6581 407.272 92.0355 403.185 92.4284C403.185 92.4284 408.421 89.9824 409.537 87.3703L406.891 86.2635C406.891 86.2635 404.047 90.4859 400.649 90.7848C400.649 90.7848 406.411 87.3482 406.267 86.0532C406.267 86.0532 403.781 85.1733 403.008 85.2619C403.008 85.2619 400.898 88.2392 398.904 88.2392C398.904 88.2392 402.516 85.533 402.296 85.0959C402.296 85.0959 398.749 84.8192 396.877 85.6493C398.559 84.8113 400.431 84.4297 402.307 84.5425C401.565 83.6531 400.58 83.0009 399.473 82.6665C399.473 82.6665 401.45 81.9138 403.168 84.6199C403.168 84.6199 405.93 84.952 406.256 85.2674C406.256 85.2674 404.936 82.351 403.246 81.0837C403.246 81.0837 405.798 81.6039 406.963 85.5386L409.648 86.6011C409.648 86.6011 408.107 82.6554 406.687 81.4102C406.687 81.4102 409.206 82.3455 410.3 86.9442L412.758 88.3609C412.758 88.3609 411.686 84.8634 410.404 83.1368C410.404 83.1368 412.559 84.5093 413.443 88.7926L414.973 89.9325C414.973 89.9325 414.15 87.3925 413.868 86.6841C413.586 85.9758 413.73 85.8374 413.73 85.8374C414.778 87.1525 415.441 88.7329 415.647 90.4029C415.647 90.4029 418.646 92.9154 418.817 92.7383Z" fill="#6C63FF"/>
<path opacity="0.1" d="M448.033 186.71C448.033 186.71 438.891 167.706 427.225 177.07C427.225 177.07 424.717 177.911 424.833 180.551C424.833 180.551 425.805 180.053 426.49 182.084C426.746 182.806 427.087 183.496 427.507 184.137C428.07 185.003 428.9 185.662 429.871 186.013C429.871 186.013 434.886 189.992 444.437 187.28C444.437 187.28 447.1 187.739 447.542 187.413L444.492 185.05C444.492 185.05 442.835 187.363 440.526 187.568C440.526 187.568 444.476 185.221 444.05 184.679C443.962 184.568 442.393 183.5 442.393 183.5C442.393 183.5 439.521 187.501 435.925 187.712C435.925 187.712 441.012 185.548 441.797 183.091L439.305 181.619C439.305 181.619 436.477 186.002 432.39 186.389C432.39 186.389 437.626 183.943 438.742 181.331L436.096 180.224C436.096 180.224 433.251 184.441 429.854 184.745C429.854 184.745 435.621 181.309 435.477 180.008C435.477 180.008 432.986 179.128 432.213 179.217C432.213 179.217 430.103 182.194 428.109 182.194C428.109 182.194 431.721 179.488 431.5 179.051C431.5 179.051 427.954 178.774 426.081 179.604C427.766 178.767 429.64 178.385 431.517 178.498C430.775 177.607 429.787 176.954 428.678 176.622C428.678 176.622 430.655 175.863 432.373 178.575C432.373 178.575 435.135 178.902 435.461 179.217C435.461 179.217 434.141 176.306 432.456 175.033C432.456 175.033 435.008 175.554 436.173 179.488L438.853 180.551C438.853 180.551 437.311 176.605 435.892 175.365C435.892 175.365 438.411 176.295 439.504 180.899L441.962 182.311C441.962 182.311 440.891 178.813 439.609 177.086C439.609 177.086 441.764 178.459 442.653 182.748L444.183 183.855C444.183 183.855 443.354 181.314 443.078 180.606C442.802 179.898 442.94 179.759 442.94 179.759C443.991 181.073 444.654 182.654 444.857 184.325C444.857 184.325 447.862 186.876 448.033 186.71Z" fill="#6C63FF"/>
<path opacity="0.1" d="M111.554 433.952C118.567 433.952 124.253 433.315 124.253 432.53C124.253 431.744 118.567 431.107 111.554 431.107C104.54 431.107 98.8545 431.744 98.8545 432.53C98.8545 433.315 104.54 433.952 111.554 433.952Z" fill="#6C63FF"/>
<path opacity="0.1" d="M28.3038 409.779C35.3174 409.779 41.0031 409.142 41.0031 408.357C41.0031 407.571 35.3174 406.935 28.3038 406.935C21.2902 406.935 15.6045 407.571 15.6045 408.357C15.6045 409.142 21.2902 409.779 28.3038 409.779Z" fill="#6C63FF"/>
<path opacity="0.1" d="M175.012 450.006C182.025 450.006 187.711 449.369 187.711 448.583C187.711 447.798 182.025 447.161 175.012 447.161C167.998 447.161 162.312 447.798 162.312 448.583C162.312 449.369 167.998 450.006 175.012 450.006Z" fill="#6C63FF"/>
<path opacity="0.1" d="M500.2 415.037C507.214 415.037 512.9 414.4 512.9 413.615C512.9 412.829 507.214 412.192 500.2 412.192C493.187 412.192 487.501 412.829 487.501 413.615C487.501 414.4 493.187 415.037 500.2 415.037Z" fill="#6C63FF"/>
<path opacity="0.1" d="M394.524 408.136C401.537 408.136 407.223 407.499 407.223 406.713C407.223 405.928 401.537 405.291 394.524 405.291C387.51 405.291 381.824 405.928 381.824 406.713C381.824 407.499 387.51 408.136 394.524 408.136Z" fill="#6C63FF"/>
<path opacity="0.1" d="M326.161 441.793C334.456 441.793 341.18 440.636 341.18 439.208C341.18 437.781 334.456 436.624 326.161 436.624C317.866 436.624 311.142 437.781 311.142 439.208C311.142 440.636 317.866 441.793 326.161 441.793Z" fill="#6C63FF"/>
<path d="M332.86 413.232C332.86 413.232 311.947 424.057 322.752 436.807C322.752 436.807 323.768 439.574 326.707 439.38C326.707 439.38 326.121 438.307 328.364 437.449C329.162 437.14 329.92 436.737 330.623 436.248C331.573 435.59 332.283 434.64 332.645 433.542C332.645 433.542 336.92 427.809 333.606 417.2C333.606 417.2 334.037 414.201 333.661 413.714L331.12 417.206C331.12 417.206 333.744 418.971 334.048 421.567C334.048 421.567 331.286 417.211 330.734 417.693C330.612 417.792 329.474 419.602 329.474 419.602C329.474 419.602 334.026 422.695 334.363 426.713C334.363 426.713 331.8 421.085 329.032 420.283L327.447 423.116C327.447 423.116 332.418 426.149 332.971 430.709C332.971 430.709 330.082 424.926 327.132 423.758L325.967 426.752C325.967 426.752 330.761 429.807 331.203 433.603C331.203 433.603 327.193 427.256 325.751 427.455C325.751 427.455 324.845 430.266 324.967 431.135C324.967 431.135 328.353 433.404 328.414 435.634C328.414 435.634 325.287 431.677 324.807 431.937C324.807 431.937 324.608 435.916 325.569 437.986C325.569 437.986 323.912 435.031 324.182 431.937C323.214 432.795 322.517 433.919 322.177 435.169C322.177 435.169 321.277 432.983 324.243 430.969C324.243 430.969 324.525 427.875 324.867 427.493C324.867 427.493 321.658 429.065 320.294 430.991C320.294 430.991 320.796 428.119 325.149 426.691L326.254 423.658C326.254 423.658 321.901 425.507 320.559 427.134C320.559 427.134 321.526 424.284 326.596 422.917L328.099 420.15C328.099 420.15 324.232 421.456 322.343 422.917C322.343 422.917 323.807 420.465 328.563 419.336L329.784 417.593C329.784 417.593 326.978 418.595 326.193 418.955C325.409 419.314 325.254 419.137 325.254 419.137C326.688 417.922 328.43 417.129 330.286 416.846C330.286 416.846 333.054 413.421 332.86 413.232Z" fill="#6C63FF"/>
<path d="M394.932 208.791C391.32 198.957 371.434 198.033 362.806 200.54C356.674 202.327 343.748 204.341 336.844 205.354L336.396 204.928C337.291 204.662 337.313 204.009 337.203 203.041C337.138 201.765 337.157 200.485 337.258 199.211C341.489 200.529 345.256 197.413 345.256 197.413C350.228 195.199 348.891 185.725 349.841 183.135C350.554 181.198 351.322 169.787 351.664 164.098H351.736L351.775 162.189C351.824 161.365 351.846 160.883 351.846 160.883C351.846 160.883 352.333 146.971 353.283 144.154C354.166 141.564 354.884 128.515 354.995 126.445C354.995 126.268 354.995 126.174 354.995 126.174L354.923 124.968C354.973 124.088 354.995 123.108 354.989 122.079C354.989 117.347 354.498 111.387 354.437 110.425C354.437 110.286 354.437 110.12 354.437 109.921C354.476 107.901 354.222 97.7849 345.632 93.961C342.467 92.5443 338.661 90.8564 334.977 89.2128C334.026 80.9949 331.856 72.8212 332.043 64.5424C332.043 63.2972 332.154 62.0521 332.275 60.8125C332.275 61.1722 332.237 61.5374 332.231 61.9193C332.231 62.7217 332.231 63.5297 332.231 64.3321C332.557 53.978 336.463 43.5686 336.098 33.436C336.065 34.4265 335.993 35.4227 335.899 36.4188C336.09 32.9915 335.732 29.5557 334.839 26.2418C334.507 25.0741 334.06 23.8677 333.104 23.0874C332.201 22.459 331.165 22.0481 330.077 21.8866C327.463 21.2163 324.808 20.7208 322.128 20.4035C321.721 19.1549 321.117 17.9797 320.338 16.9226C314.737 9.21932 306.44 1.9809 296.63 0.320706C291.708 -0.509389 286.046 0.182356 282.699 3.70749C282.349 4.01717 282.021 4.34995 281.716 4.70361C279.915 6.85632 279.142 9.68418 277.297 11.8314C277.175 11.9752 277.037 12.1081 276.904 12.2464C273.292 15.4838 267.663 16.1589 263.647 19.0643C262.94 19.5858 262.276 20.1652 261.664 20.7964C260.046 22.4028 258.595 24.1699 257.334 26.0703C255.527 28.6159 253.671 31.2666 253.097 34.3048C251.942 40.3922 256.08 46.1641 256.847 52.2902C258.56 65.9978 243.419 78.1615 246.286 91.6865C247.051 95.0092 248.74 98.0466 251.158 100.447C245.253 105.804 240.226 111 240.226 111V111.31H239.293L239.387 112.417H239.293L239.806 118.421L239.293 127.165C239.293 127.165 239.293 127.259 239.293 127.436V127.48V127.718C239.293 127.718 239.293 127.812 239.293 127.989H239.326C239.497 131.193 240.177 142.715 240.983 145.145C241.933 147.961 242.414 161.874 242.414 161.874C242.414 161.874 243.463 181.536 244.424 184.137C245.385 186.738 244.021 196.184 249.009 198.415C250.468 199.536 252.196 200.253 254.019 200.495C253.765 202.565 253.925 204.065 254.748 204.535C255.101 204.743 255.5 204.857 255.908 204.867C255.57 205.37 255.269 205.897 255.008 206.444C253.028 206.237 251.083 205.778 249.219 205.077C243.861 202.864 226.08 197.883 220.915 201.386C215.75 204.889 203.321 208.066 209.061 222.166C214.8 236.267 217.474 236.621 217.474 236.621C219.24 237.906 220.79 239.466 222.064 241.242C223.787 243.837 239.845 249.775 243.861 249.775C245.568 249.749 247.275 249.834 248.97 250.03C248.97 250.03 244.612 253.859 245.192 256.084C245.772 258.309 243.866 276.117 243.866 276.117C243.866 276.117 248.285 280.577 250.175 274.728L250.241 274.816C250.594 275.298 252.506 277.473 256.102 274.728C257.573 273.609 259.137 272.617 260.775 271.762L278.186 269.294C280.001 269.18 281.821 269.167 283.638 269.255C286.4 269.482 289.112 267.844 290.819 266.576C294.426 267.949 298.481 269.449 300.408 269.996C304.319 271.103 322.294 275.934 326.498 274.424C327.371 274.076 328.148 273.521 328.762 272.808L332.773 272.935L330.894 273.311C330.894 273.311 334.551 273.372 339.523 273.439L339.313 273.56L345.549 273.505C354.675 273.588 364.927 273.616 366.275 273.311C368.385 272.841 379.35 273.173 382.581 273.311H383.481C383.481 273.311 395.529 270.904 390.557 258.657C386.735 249.25 374.986 246.516 369.771 245.763C371.241 245.47 372.506 245.243 373.345 245.11C376.985 244.557 384.056 241.236 384.63 240.102C385.205 238.967 391.132 235.675 392.662 233.799C394.192 231.923 398.561 218.625 394.932 208.791ZM295.144 236.311L294.553 236.505L294.155 236.638L293.393 237.39C292.786 236.981 292.134 236.549 291.454 236.106C292.653 236.178 293.885 236.25 295.144 236.311Z" fill="url(#paint0_linear)"/>
<path d="M330.364 177.961C330.364 177.961 338.816 200.097 343.621 197.884C348.427 195.67 347.124 186.262 348.041 183.683C348.957 181.105 349.974 161.548 349.974 161.548C349.974 161.548 350.438 147.713 351.355 144.913C352.205 142.339 352.896 129.362 353.012 127.32C353.012 127.143 353.012 127.049 353.012 127.049L352.101 111L346.941 109.711L334.977 114.138L333.319 123.618L332.673 127.32L332.397 128.897L330.364 177.961Z" fill="#BE6F72"/>
<path opacity="0.1" d="M333.148 174.254C333.148 174.254 341.213 180.867 343.644 181.448C346.074 182.029 347.566 187.187 347.566 187.187" fill="black"/>
<path d="M264.272 178.93C264.272 178.93 255.82 201.066 251.015 198.852C246.209 196.639 247.512 187.231 246.595 184.652C245.679 182.073 244.662 162.516 244.662 162.516C244.662 162.516 244.198 148.681 243.281 145.881C242.431 143.308 241.74 130.331 241.624 128.289C241.624 128.112 241.624 128.018 241.624 128.018L242.541 111.969L247.7 110.68L259.665 115.107L261.322 124.587L261.968 128.289L262.244 129.866L264.272 178.93Z" fill="#BE6F72"/>
<path d="M319.305 60.4697H300.441V89.927H319.305V60.4697Z" fill="#3E373A"/>
<path opacity="0.1" d="M319.305 60.4697H300.441V89.927H319.305V60.4697Z" fill="black"/>
<path d="M260.957 200.977C260.957 200.977 254.51 208.077 256.902 209.366C259.294 210.656 274.766 234.823 274.766 234.823C274.766 234.823 325.586 241.093 335.169 231.685C344.753 222.277 344.56 205.47 344.56 205.47C344.56 205.47 336.86 207.131 336.02 206.229C335.181 205.327 330.568 200.977 330.568 200.977C330.568 200.977 265.376 197.015 260.957 200.977Z" fill="#4B4B5B"/>
<path opacity="0.02" d="M260.957 200.977C260.957 200.977 254.51 208.077 256.902 209.366C259.294 210.656 274.766 234.823 274.766 234.823C274.766 234.823 325.586 241.093 335.169 231.685C344.753 222.277 344.56 205.47 344.56 205.47C344.56 205.47 336.86 207.131 336.02 206.229C335.181 205.327 330.568 200.977 330.568 200.977C330.568 200.977 265.376 197.015 260.957 200.977Z" fill="black"/>
<path d="M352.442 111.233L335.871 124.514L330.861 124.879L329.021 125.012L298.126 127.281L266.088 124.935L261.321 124.586L255.245 124.143L242.54 111.969C242.54 111.969 251.533 102.317 259.41 95.8038C262.514 93.2305 265.447 91.1497 267.585 90.3307L267.95 90.2034C269.294 89.6781 270.495 88.8397 271.452 87.7574C277.672 81.3325 283.422 65.4777 283.422 65.4777C283.422 65.4777 310.859 51.2775 307.545 69.9049C304.23 88.5322 319.879 83.9279 319.879 83.9279L325.039 86.2854L327.077 87.2206L332.275 89.6058L344.002 94.9959C353.205 99.2404 352.442 111.233 352.442 111.233Z" fill="#BE6F72"/>
<path opacity="0.1" d="M296.84 80.6465C310.468 80.6465 321.515 69.5789 321.515 55.9263C321.515 42.2737 310.468 31.2061 296.84 31.2061C283.212 31.2061 272.165 42.2737 272.165 55.9263C272.165 69.5789 283.212 80.6465 296.84 80.6465Z" fill="black"/>
<path opacity="0.1" d="M352.482 128.842H241.624C241.624 128.665 241.624 128.571 241.624 128.571L242.541 112.523C242.541 112.523 251.534 102.871 259.411 96.3579L329.011 93.5909L332.248 90.1709L343.975 95.561C353.183 99.8 352.443 111.792 352.443 111.792C352.443 111.792 353.703 125.688 352.482 128.842Z" fill="black"/>
<path d="M352.482 128.289H241.624C241.624 128.111 241.624 128.017 241.624 128.017L242.541 111.969C242.541 111.969 251.534 102.318 259.411 95.8042L329.011 93.0372L332.248 89.6172L343.975 95.0073C353.183 99.2463 352.443 111.238 352.443 111.238C352.443 111.238 353.703 125.134 352.482 128.289Z" fill="#E7C7CA"/>
<path opacity="0.1" d="M279.07 83.2863C279.07 83.2863 296.558 105.61 319.852 82.827C343.146 60.0437 322.432 133.645 322.432 133.645L272.165 139.622L279.07 83.2863Z" fill="black"/>
<path d="M279.07 84.3928C279.07 84.3928 296.558 106.717 319.852 83.9335C343.146 61.1501 322.432 134.752 322.432 134.752L272.165 140.729L279.07 84.3928Z" fill="#E7C7CA"/>
<path opacity="0.1" d="M327.05 88.3106L328.9 116.584L330.883 125.991L332.397 133.185C332.397 133.185 336.264 188.525 335.159 191.292C334.054 194.059 335.711 196.273 335.943 197.745C336.175 199.217 335.711 202.913 335.894 204.574C336.076 206.234 335.894 206.97 331.662 206.378C327.431 205.786 321.532 204.756 321.532 204.756C321.532 204.756 306.617 205.863 301.464 204.02C296.31 202.177 286.549 202.172 286.549 202.172C286.549 202.172 271.817 202.543 267.033 201.989C262.25 201.436 259.665 207.894 256.538 206.046C253.412 204.197 260.217 186.312 262.427 181.143C264.636 175.974 259.482 162.881 259.482 162.881L266.111 126.041L267.586 117.69V91.4373L267.95 91.31C269.295 90.7846 270.495 89.9462 271.453 88.864L273.11 115.283L325.034 117.131V87.3975" fill="black"/>
<path d="M327.05 87.2041L328.9 115.477L330.883 124.885L332.397 132.079C332.397 132.079 336.264 187.419 335.159 190.186C334.054 192.953 335.711 195.166 335.943 196.638C336.175 198.11 335.711 201.807 335.894 203.467C336.076 205.127 335.894 205.863 331.662 205.271C327.431 204.679 321.532 203.65 321.532 203.65C321.532 203.65 306.617 204.757 301.464 202.914C296.31 201.071 286.549 201.065 286.549 201.065C286.549 201.065 271.817 201.436 267.033 200.883C262.25 200.329 259.665 206.788 256.538 204.939C253.412 203.091 260.217 185.205 262.427 180.036C264.636 174.868 259.482 161.774 259.482 161.774L266.111 124.935L267.586 116.584V90.3308L267.95 90.2035C269.295 89.6782 270.495 88.8398 271.453 87.7575L273.11 114.177L325.034 116.025V86.291" fill="#E7C7CA"/>
<path opacity="0.1" d="M333.021 28.2014C332.706 27.0448 332.27 25.8439 331.364 25.0691C330.499 24.4468 329.5 24.0373 328.447 23.8738C325.928 23.2101 323.366 22.7182 320.78 22.4018C320.411 21.173 319.852 20.0096 319.123 18.9541C313.71 11.2951 305.7 4.07327 296.277 2.44075C291.344 1.58299 285.627 2.35221 282.467 6.24812C280.732 8.38976 279.987 11.2287 278.236 13.3316C274.861 17.4157 268.768 17.9193 264.514 21.0791C262.244 22.7393 260.598 25.1466 258.991 27.4819C257.251 30.011 255.461 32.6451 254.909 35.6667C253.804 41.7042 257.786 47.4596 258.521 53.5525C260.178 67.1826 245.595 79.2743 248.352 92.7219C249.959 100.563 257.19 106.086 264.669 108.887C267.304 109.877 270.314 110.862 271.546 113.397C272.099 114.504 272.193 115.782 272.712 116.9C274.457 120.63 280.197 120.774 283.279 118.056C286.361 115.339 287.333 110.945 287.698 106.845C289.178 88.9366 282.02 71.2445 282.854 53.2924C283.102 47.8635 284.627 41.7042 289.482 39.2472C296.017 35.9268 303.877 41.4607 311.069 40.4038C314.473 48.6999 315.195 57.8561 313.135 66.5849C311.992 71.3608 310.014 75.9927 309.871 80.9179C309.655 88.4164 313.693 95.2675 317.184 101.897C317.933 103.137 318.434 104.511 318.659 105.943C318.714 107.395 318.444 108.841 317.869 110.176C315.897 115.494 312.494 120.43 312.108 126.092C311.995 126.753 312.143 127.432 312.522 127.984C312.911 128.353 313.414 128.579 313.947 128.626C319.913 129.65 325.072 124.354 327.983 119.036C331.229 113.162 333.12 106.635 333.518 99.9326C334.12 88.6655 330.088 77.5809 330.336 66.3027C330.624 53.4805 336.407 40.5698 333.021 28.2014Z" fill="black"/>
<path d="M333.574 27.6476C333.259 26.491 332.823 25.2902 331.917 24.5154C331.052 23.8931 330.052 23.4836 329 23.3201C326.48 22.6563 323.919 22.1645 321.333 21.8481C320.964 20.6192 320.404 19.4559 319.676 18.4004C314.262 10.7414 306.253 3.51956 296.829 1.88704C291.896 1.02927 286.179 1.79849 283.02 5.69441C281.285 7.83605 280.539 10.675 278.788 12.7779C275.413 16.862 269.321 17.3655 265.067 20.5254C262.797 22.1856 261.151 24.5929 259.543 26.9282C257.803 29.4573 256.014 32.0914 255.461 35.113C254.356 41.1505 258.339 46.9058 259.074 52.9987C260.731 66.6289 246.148 78.7206 248.904 92.1682C250.512 100.01 257.743 105.533 265.222 108.333C267.857 109.323 270.867 110.309 272.099 112.843C272.651 113.95 272.745 115.228 273.265 116.346C275.01 120.076 280.749 120.22 283.832 117.503C286.914 114.785 287.886 110.392 288.251 106.291C289.731 88.3829 282.572 70.6908 283.406 52.7386C283.655 47.3098 285.179 41.1505 290.035 38.6934C296.57 35.3731 304.43 40.907 311.622 39.85C315.025 48.1462 315.748 57.3024 313.688 66.0312C312.545 70.8071 310.567 75.439 310.423 80.3642C310.208 87.8627 314.246 94.7138 317.737 101.343C318.486 102.583 318.987 103.957 319.212 105.389C319.267 106.841 318.997 108.288 318.422 109.622C316.45 114.94 313.047 119.877 312.661 125.538C312.547 126.199 312.696 126.878 313.075 127.431C313.464 127.799 313.966 128.026 314.5 128.073C320.466 129.096 325.625 123.8 328.536 118.482C331.782 112.608 333.673 106.081 334.071 99.3789C334.673 88.1118 330.641 77.0272 330.889 65.749C331.176 52.9268 336.96 40.0161 333.574 27.6476Z" fill="#3E373A"/>
<path d="M321.371 272.675L343.284 273.378L340.141 257.097L323.354 258.696L321.371 272.675Z" fill="#C3C7D9"/>
<path d="M389.27 234.087C387.795 235.93 382.089 239.25 381.537 240.357C380.984 241.464 374.173 244.784 370.671 245.337C367.169 245.891 356.127 248.293 354.1 249.582C352.647 250.512 340.986 253.456 333.325 255.088C331.249 255.58 329.149 255.959 327.033 256.223C323.719 256.405 287.449 244.048 287.449 244.048L294.442 236.854L294.829 236.721C296.807 236.051 305.943 232.958 311.014 231.486C316.726 229.826 323.354 223.002 323.354 223.002C323.354 223.002 333.109 219.682 334.402 219.311C335.694 218.94 331.088 206.4 331.088 206.4C331.088 206.4 352.26 203.456 360.546 200.961C368.832 198.465 387.983 199.389 391.48 209.167C394.976 218.946 390.767 232.244 389.27 234.087Z" fill="#4B4B5B"/>
<path d="M292.785 265.26C292.785 265.26 288.554 269.687 284.317 269.321C280.08 268.956 265.266 270.428 265.266 270.428C262.581 271.501 260.067 272.961 257.803 274.761C254.339 277.495 252.5 275.315 252.157 274.85L252.097 274.761C250.252 280.578 246.021 276.145 246.021 276.145C246.021 276.145 247.86 258.436 247.297 256.223C246.733 254.009 250.937 250.207 250.937 250.207L255.908 248.94L268.502 245.708L286.549 251.978L292.785 265.26Z" fill="#E7C7CA"/>
<path opacity="0.1" d="M255.886 248.94L252.157 274.85L252.097 274.762C250.252 280.578 246.021 276.145 246.021 276.145C246.021 276.145 247.86 258.437 247.297 256.223C246.733 254.01 250.937 250.208 250.937 250.208L255.886 248.94Z" fill="black"/>
<path opacity="0.1" d="M281.947 175.238C281.947 175.238 291.702 178.559 300.176 175.238H281.947Z" fill="black"/>
<path opacity="0.1" d="M315.251 181.514C315.251 181.514 319.3 183.539 322.432 181.514H315.251Z" fill="black"/>
<path opacity="0.1" d="M315.251 186.317C315.251 186.317 322.062 187.23 323.354 185.388L315.251 186.317Z" fill="black"/>
<path opacity="0.1" d="M313.041 196.638C313.041 196.638 325.834 194.978 329.01 192.765L313.041 196.638Z" fill="black"/>
<path opacity="0.1" d="M274.004 192.765C274.004 192.765 281.185 196.821 286.526 196.638L274.004 192.765Z" fill="black"/>
<path opacity="0.1" d="M333.319 255.088C331.244 255.58 329.143 255.959 327.027 256.222C323.713 256.405 287.443 244.048 287.443 244.048L294.437 236.854L294.823 236.721C295.928 237.501 296.834 238.171 297.48 238.68C300.524 241.081 303.462 237.944 304.567 237.944C305.672 237.944 315.245 245.874 315.245 245.874C315.245 245.874 324.083 247.905 325.558 249.748C327.033 251.591 332.186 251.225 333.103 252.515C333.38 252.913 333.413 253.893 333.319 255.088Z" fill="black"/>
<path d="M265.266 207.153C265.266 207.153 256.328 207.667 251.174 205.492C246.02 203.318 228.897 198.298 223.925 201.823C218.954 205.349 206.984 208.464 212.507 222.487C218.031 236.51 220.611 236.876 220.611 236.876C222.32 238.16 223.812 239.71 225.03 241.469C226.687 244.053 242.154 249.952 246.02 249.952C249.887 249.952 256.698 249.952 266.271 256.593C275.844 263.234 284.5 263.975 284.5 263.975C284.5 263.975 296.652 268.956 300.436 270.063C304.22 271.17 321.509 275.962 325.564 274.49C329.618 273.018 332.192 263.787 332.192 263.787C332.192 263.787 334.032 255.486 333.109 254.197C332.187 252.907 327.033 253.273 325.564 251.43C324.094 249.587 315.251 247.556 315.251 247.556C315.251 247.556 305.7 239.62 304.595 239.62C303.49 239.62 300.552 242.753 297.508 240.356C291.445 235.858 285.075 231.789 278.445 228.182C271.452 224.491 265.266 207.153 265.266 207.153Z" fill="#4B4B5B"/>
<path opacity="0.1" d="M247.297 212.504C248.888 212.178 250.533 212.225 252.104 212.641C253.674 213.056 255.127 213.83 256.35 214.9C260.769 218.591 275.64 226.001 275.64 226.001" fill="black"/>
<path opacity="0.1" d="M357.785 212.271C357.785 212.271 338.081 215.26 334.402 219.316L357.785 212.271Z" fill="black"/>
<path d="M380.432 273.378H379.565C376.449 273.267 365.893 272.935 363.86 273.378C361.469 273.931 329.795 273.378 329.795 273.378L335.987 272.088C335.987 272.088 333.689 264.02 335.148 263.35C335.148 263.35 326.862 257.883 333.109 254.192C339.357 250.5 346.09 252.055 346.09 252.055L361.772 246.732L364.783 245.708C364.783 245.708 382.459 246.632 387.243 258.807C392.026 270.982 380.432 273.378 380.432 273.378Z" fill="#E7C7CA"/>
<path opacity="0.1" d="M380.432 273.377H379.565C384.707 269.127 396.341 256.189 361.772 246.759L364.783 245.735C364.783 245.735 382.459 246.66 387.243 258.834C392.026 271.009 380.432 273.377 380.432 273.377Z" fill="black"/>
<path d="M347.935 259.034C348.469 259.034 348.902 258.6 348.902 258.065C348.902 257.53 348.469 257.097 347.935 257.097C347.402 257.097 346.969 257.53 346.969 258.065C346.969 258.6 347.402 259.034 347.935 259.034Z" fill="#4B4B5B"/>
<path d="M342.317 260.633C342.851 260.633 343.284 260.2 343.284 259.665C343.284 259.13 342.851 258.696 342.317 258.696C341.783 258.696 341.351 259.13 341.351 259.665C341.351 260.2 341.783 260.633 342.317 260.633Z" fill="#4B4B5B"/>
<g opacity="0.1">
<path opacity="0.1" d="M314.947 55.0131C315.162 48.9262 314.081 42.8633 311.777 37.2269C304.596 38.3005 296.73 32.7499 290.19 36.0703C285.351 38.5274 283.832 44.6867 283.561 50.1155C283.495 51.5488 283.484 52.9821 283.511 54.4154C283.511 53.9063 283.511 53.3916 283.561 52.8825C283.815 47.4537 285.334 41.2944 290.19 38.8373C296.73 35.5169 304.585 41.0509 311.777 39.9939C313.728 44.7681 314.802 49.8562 314.947 55.0131Z" fill="black"/>
<path opacity="0.1" d="M259.3 53.9997C259.395 52.7939 259.37 51.5816 259.228 50.3805C258.643 45.5106 255.986 40.8565 255.505 36.1084C254.886 41.8361 258.527 47.3368 259.228 53.1475C259.3 53.4463 259.3 53.7119 259.3 53.9997Z" fill="black"/>
<path opacity="0.1" d="M288.405 103.662C288.063 107.768 287.096 112.157 283.986 114.879C280.876 117.602 275.148 117.453 273.419 113.723C272.867 112.616 272.784 111.327 272.248 110.22C271.022 107.685 268.006 106.7 265.371 105.71C257.886 102.904 250.666 97.4087 249.059 89.545C248.915 88.8326 248.818 88.1117 248.766 87.3867C248.63 89.0341 248.729 90.6924 249.059 92.3119C250.666 100.154 257.897 105.671 265.371 108.477C268.006 109.467 271.022 110.452 272.248 112.987C272.8 114.094 272.894 115.372 273.419 116.49C275.159 120.22 280.898 120.364 283.986 117.646C287.074 114.929 288.035 110.535 288.405 106.429C288.573 104.268 288.631 102.099 288.576 99.9322C288.576 101.188 288.505 102.428 288.405 103.662Z" fill="black"/>
<path opacity="0.1" d="M331.071 63.1256C331.071 63.928 331.071 64.7249 331.071 65.5218C331.381 55.2286 335.148 44.8801 334.778 34.8027C334.491 44.1219 331.281 53.6514 331.071 63.1256Z" fill="black"/>
<path opacity="0.1" d="M319.217 104.763C319.353 104.107 319.396 103.434 319.344 102.765C319.122 101.333 318.621 99.9588 317.87 98.7201C314.677 92.6327 311.036 86.4015 310.606 79.6445C310.606 79.9323 310.567 80.1979 310.561 80.5078C310.34 88.0008 314.378 94.8574 317.87 101.487C318.463 102.514 318.916 103.616 319.217 104.763Z" fill="black"/>
<path opacity="0.1" d="M334.248 96.7552C333.836 103.46 331.931 109.987 328.674 115.858C325.758 121.177 320.604 126.473 314.633 125.449C314.098 125.403 313.595 125.174 313.208 124.801C313.095 124.675 313.007 124.528 312.948 124.37C312.882 124.801 312.827 125.239 312.793 125.681C312.679 126.34 312.828 127.018 313.208 127.568C313.595 127.941 314.098 128.17 314.633 128.216C320.604 129.24 325.758 123.944 328.674 118.625C331.931 112.754 333.836 106.227 334.248 99.5222C334.314 98.2273 334.32 96.9379 334.281 95.6484C334.27 96.0192 334.27 96.3845 334.248 96.7552Z" fill="black"/>
</g>
<path opacity="0.1" d="M335.147 263.35C335.147 263.35 349.128 269.227 358.348 256.223" stroke="black" stroke-miterlimit="10"/>
<path opacity="0.1" d="M337.898 273.621C337.898 273.621 349.316 266.184 363.86 273.378" stroke="black" stroke-miterlimit="10"/>
<path opacity="0.1" d="M261.471 271.933C261.471 271.933 266.265 261.098 279.07 269.36" stroke="black" stroke-miterlimit="10"/>
<path opacity="0.1" d="M245.927 111.692L255.704 102.838C255.704 102.838 293.614 100.348 295.183 113.258C295.183 113.258 308.622 97.9515 336.888 101.36L348.847 110.901L315.792 125.433L283.671 136.595L260.013 125.987L245.927 111.692Z" fill="black"/>
<path d="M245.927 112.245L255.704 103.391C255.704 103.391 293.614 100.9 295.183 113.811C295.183 113.811 308.622 98.5043 336.888 101.913L348.847 111.454L315.792 125.986L283.671 137.148L260.013 126.539L245.927 112.245Z" fill="#D5D6DB"/>
<path opacity="0.1" d="M241.602 113.353L245.927 165.189L291.775 167.497L289.786 115.882L289.747 115.013L241.602 113.353Z" fill="black"/>
<path d="M241.602 112.245L245.927 164.082L291.775 166.389L289.786 114.774L289.747 113.905L241.602 112.245Z" fill="#6C63FF"/>
<path opacity="0.1" d="M350.945 112.245L303.65 119.351V171.42L349.868 164.729L350.945 112.245Z" fill="black"/>
<path d="M350.945 111.139L303.65 118.244V170.313L349.868 163.623L350.945 111.139Z" fill="#6C63FF"/>
<path opacity="0.3" d="M339.793 123.845L314.245 126.689L314.803 135.411L339.776 132.677L339.793 123.845Z" fill="white"/>
<path d="M248.413 191.84L251.015 198.852C251.015 198.852 254.881 202.172 259.113 200.512C263.344 198.852 267.034 198.027 268.873 196.412C270.713 194.796 273.292 186.677 273.292 186.677C273.292 186.677 275.872 177.823 278.446 175.609C281.02 173.396 287.837 142.898 278.446 145.881C269.055 148.864 261.874 176.534 261.874 176.534C261.874 176.534 260.217 178.559 257.826 178.747C255.434 178.935 250.645 178.376 249.722 180.407C248.8 182.438 245.651 187.784 248.413 191.84Z" fill="#BE6F72"/>
<path opacity="0.1" d="M303.651 119.345C301.229 119.892 298.714 119.863 296.305 119.262C293.897 118.66 291.662 117.502 289.78 115.881L291.774 167.491C291.774 167.491 296.47 172.582 303.651 171.42V119.345Z" fill="black"/>
<path d="M303.651 118.239C301.229 118.785 298.714 118.757 296.305 118.155C293.897 117.554 291.662 116.396 289.78 114.774L291.774 166.384C291.774 166.384 296.47 171.475 303.651 170.313V118.239Z" fill="#6C63FF"/>
<path opacity="0.1" d="M303.651 118.239C301.229 118.785 298.714 118.757 296.305 118.155C293.897 117.554 291.662 116.396 289.78 114.774L291.774 166.384C291.774 166.384 296.47 171.475 303.651 170.313V118.239Z" fill="black"/>
<path opacity="0.1" d="M304.756 112.423C304.756 112.423 323.995 106.529 329.011 107.359L304.756 112.423Z" fill="black"/>
<path opacity="0.1" d="M283.235 109.849C283.235 109.849 264.586 105.422 261.471 106.679L283.235 109.849Z" fill="black"/>
<path opacity="0.1" d="M316.886 113.158C316.886 113.158 329.751 108.432 334.402 110.679L316.886 113.158Z" fill="black"/>
<path opacity="0.1" d="M310.406 231.713C312.4 230.213 314.522 228.893 316.748 227.767C320.062 226.168 326.138 222.018 326.138 222.018" fill="black"/>
<path opacity="0.1" d="M261.471 175.238C261.471 175.238 253.401 181.851 250.976 182.432C248.551 183.014 247.054 188.171 247.054 188.171" fill="black"/>
<path d="M346.201 190.855L343.627 197.883C343.627 197.883 339.76 201.204 335.523 199.543C331.287 197.883 327.608 197.059 325.763 195.443C323.918 193.827 321.344 185.709 321.344 185.709C321.344 185.709 318.769 176.854 316.19 174.641C313.61 172.427 306.799 141.929 316.19 144.912C325.58 147.895 332.761 175.565 332.761 175.565C332.761 175.565 334.419 177.59 336.81 177.778C339.202 177.967 343.991 177.408 344.914 179.439C345.836 181.47 348.963 186.815 346.201 190.855Z" fill="#BE6F72"/>
<path opacity="0.1" d="M341.688 177.928C341.688 177.928 346.963 181.326 346.941 185.388L341.688 177.928Z" fill="black"/>
<path d="M296.928 79.4346C310.556 79.4346 321.603 68.367 321.603 54.7144C321.603 41.0618 310.556 29.9941 296.928 29.9941C283.3 29.9941 272.253 41.0618 272.253 54.7144C272.253 68.367 283.3 79.4346 296.928 79.4346Z" fill="#BE6F72"/>
<path d="M281.434 48.0787C284.428 47.6083 287.052 45.8651 289.913 44.8635C296.315 42.6112 303.397 44.1551 309.876 46.1861C312.362 46.9664 314.886 47.8463 317.494 47.8463C320.101 47.8463 322.868 46.7782 324.2 44.5259C325.426 42.4562 325.188 39.7667 324.155 37.5919C323.122 35.417 321.393 33.6683 319.648 32.0192C313.903 26.5848 306.777 21.5046 298.895 22.058C295.724 22.2849 292.692 23.4194 289.775 24.6756C286.103 26.2611 282.528 28.0647 279.07 30.0767C276.413 31.6207 271.491 33.6849 269.961 36.5072C266.481 42.8657 276.021 48.931 281.434 48.0787Z" fill="#3E373A"/>
<path opacity="0.1" d="M324.199 42.2022C322.868 44.4546 320.1 45.5226 317.493 45.5226C314.886 45.5226 312.361 44.6759 309.87 43.8956C303.391 41.8647 296.315 40.3152 289.907 42.573C287.051 43.5747 284.422 45.34 281.428 45.7827C277.064 46.4689 270.038 42.6616 269.275 37.8193C268.419 43.4142 276.567 48.2066 281.428 47.4429C284.422 46.9725 287.051 45.2293 289.907 44.2332C296.315 41.9753 303.391 43.5249 309.87 45.5558C312.361 46.3361 314.88 47.216 317.493 47.1828C320.106 47.1496 322.868 46.1203 324.199 43.8624C324.889 42.6341 325.16 41.2139 324.972 39.8171C324.886 40.6581 324.622 41.4711 324.199 42.2022Z" fill="black"/>
<path d="M524.444 342.115C524.444 342.115 527.719 346.404 522.93 352.884C518.141 359.365 514.197 364.832 515.788 368.872C515.788 368.872 523.013 356.841 528.891 356.67C534.768 356.498 530.901 349.348 524.444 342.115Z" fill="#6C63FF"/>
<path opacity="0.1" d="M524.444 342.115C524.729 342.53 524.955 342.982 525.113 343.46C530.846 350.211 533.907 356.515 528.388 356.67C523.251 356.819 517.092 366.022 515.617 368.341C515.664 368.528 515.722 368.713 515.788 368.894C515.788 368.894 523.014 356.863 528.891 356.692C534.768 356.52 530.902 349.348 524.444 342.115Z" fill="black"/>
<path d="M530.52 347.583C530.52 349.093 530.349 350.316 530.145 350.316C529.94 350.316 529.764 349.093 529.764 347.583C529.764 346.072 529.974 346.786 530.183 346.786C530.393 346.786 530.52 346.072 530.52 347.583Z" fill="#FFD037"/>
<path d="M532.614 349.387C531.294 350.106 530.14 350.544 530.04 350.361C529.941 350.178 530.929 349.442 532.25 348.701C533.57 347.959 533.051 348.502 533.15 348.701C533.249 348.9 533.94 348.662 532.614 349.387Z" fill="#FFD037"/>
<path d="M507.133 342.115C507.133 342.115 503.857 346.404 508.646 352.884C513.436 359.365 517.38 364.832 515.783 368.872C515.783 368.872 508.564 356.841 502.681 356.67C496.798 356.498 500.692 349.348 507.133 342.115Z" fill="#6C63FF"/>
<path opacity="0.1" d="M507.133 342.115C506.848 342.53 506.623 342.982 506.465 343.46C500.731 350.211 497.671 356.515 503.189 356.67C508.321 356.819 514.485 366.022 515.96 368.341C515.914 368.529 515.855 368.714 515.783 368.894C515.783 368.894 508.564 356.863 502.681 356.692C496.798 356.52 500.692 349.348 507.133 342.115Z" fill="black"/>
<path d="M501.045 347.583C501.045 349.093 501.211 350.316 501.421 350.316C501.63 350.316 501.802 349.093 501.802 347.583C501.802 346.072 501.586 346.786 501.382 346.786C501.177 346.786 501.045 346.072 501.045 347.583Z" fill="#FFD037"/>
<path d="M498.957 349.387C500.277 350.106 501.432 350.544 501.531 350.361C501.631 350.178 500.642 349.442 499.322 348.701C498.002 347.959 498.521 348.502 498.421 348.701C498.322 348.9 497.631 348.662 498.957 349.387Z" fill="#FFD037"/>
<path opacity="0.1" d="M515.788 401.699C534.702 401.699 550.036 399.343 550.036 396.437C550.036 393.53 534.702 391.174 515.788 391.174C496.873 391.174 481.54 393.53 481.54 396.437C481.54 399.343 496.873 401.699 515.788 401.699Z" fill="#6C63FF"/>
<path d="M533.415 363.089L533.249 364.428L533.017 366.321L532.923 367.112L532.691 369.005L532.592 369.796L532.365 371.684L529.741 393.211C529.509 395.131 526.377 396.631 522.594 396.631H508.977C505.194 396.631 502.067 395.131 501.829 393.211L499.206 371.684L498.974 369.796L498.88 369.005L498.648 367.112L498.548 366.321L498.322 364.428L498.156 363.089C498.029 361.982 499.719 361.086 501.863 361.086H529.714C531.852 361.086 533.547 361.999 533.415 363.089Z" fill="#65617D"/>
<path d="M533.249 364.429L533.022 366.321H498.553L498.321 364.429H533.249Z" fill="#9D9CB5"/>
<path d="M532.923 367.112L532.696 369.005H498.879L498.647 367.112H532.923Z" fill="#9D9CB5"/>
<path d="M532.597 369.796L532.365 371.689H499.205L498.979 369.796H532.597Z" fill="#9D9CB5"/>
</g>
<defs>
<linearGradient id="paint0_linear" x1="301.955" y1="277.761" x2="301.955" y2="-0.000265821" gradientUnits="userSpaceOnUse">
<stop stop-color="#808080" stop-opacity="0.25"/>
<stop offset="0.54" stop-color="#808080" stop-opacity="0.12"/>
<stop offset="1" stop-color="#808080" stop-opacity="0.1"/>
</linearGradient>
<clipPath id="clip0">
<rect width="565" height="450" fill="white"/>
</clipPath>
</defs>
</svg>
