<svg width="632" height="499" viewBox="0 0 632 499" fill="none" xmlns="http://www.w3.org/2000/svg">
<g clip-path="url(#clip0)">
<path opacity="0.18" d="M265.358 497.715C359.225 505.556 454.457 476.886 532.936 424.708C569.156 400.635 603.143 370.336 620.612 330.471C638.081 290.606 635.586 239.712 605.542 208.227C583.055 184.664 548.902 174.725 527.38 150.196C510.448 130.871 503.624 104.934 492.207 81.8822C450.555 -2.16786 264.71 -36.2489 189.112 51.2382C116.354 135.509 -52.3519 178.88 15.9524 358.451C48.8085 444.779 181.019 490.662 265.358 497.715Z" fill="#FDBC68"/>
<path d="M578.781 343.268L597.835 418.953C598.041 419.751 598.545 420.441 599.242 420.88C599.939 421.318 600.778 421.474 601.586 421.314C602.384 421.153 603.092 420.694 603.566 420.03C604.039 419.366 604.243 418.547 604.136 417.738C602.151 403.093 593.534 339.431 593.106 338.589C592.679 337.747 585.854 338.727 581.456 339.293C581.008 339.354 580.579 339.51 580.195 339.75C579.812 339.989 579.483 340.307 579.231 340.682C578.978 341.057 578.808 341.481 578.73 341.927C578.653 342.372 578.67 342.829 578.781 343.268Z" fill="#FDBC68"/>
<path d="M557.285 343.268L538.231 418.953C538.025 419.751 537.521 420.441 536.824 420.88C536.127 421.318 535.288 421.474 534.48 421.314C533.682 421.153 532.974 420.694 532.5 420.03C532.027 419.366 531.823 418.547 531.93 417.738C533.915 403.093 542.532 339.431 542.96 338.589C543.387 337.747 550.212 338.727 554.61 339.293C555.058 339.354 555.488 339.51 555.871 339.75C556.254 339.989 556.583 340.307 556.835 340.682C557.088 341.057 557.258 341.481 557.336 341.927C557.413 342.372 557.396 342.829 557.285 343.268Z" fill="#FDBC68"/>
<path d="M578.781 343.268L597.835 418.953C598.041 419.751 598.545 420.441 599.242 420.88C599.939 421.318 600.778 421.474 601.586 421.314C602.384 421.153 603.092 420.694 603.566 420.03C604.039 419.366 604.243 418.547 604.136 417.738C602.151 403.093 593.534 339.431 593.106 338.589C592.679 337.747 585.854 338.727 581.456 339.293C581.008 339.354 580.579 339.51 580.195 339.75C579.812 339.989 579.483 340.307 579.231 340.682C578.978 341.057 578.808 341.481 578.73 341.927C578.653 342.372 578.67 342.829 578.781 343.268Z" fill="url(#paint0_linear)"/>
<path d="M557.285 343.268L538.231 418.953C538.025 419.751 537.521 420.441 536.824 420.88C536.127 421.318 535.288 421.474 534.48 421.314C533.682 421.153 532.974 420.694 532.5 420.03C532.027 419.366 531.823 418.547 531.93 417.738C533.915 403.093 542.532 339.431 542.96 338.589C543.387 337.747 550.212 338.727 554.61 339.293C555.058 339.354 555.488 339.51 555.871 339.75C556.254 339.989 556.583 340.307 556.835 340.682C557.088 341.057 557.258 341.481 557.336 341.927C557.413 342.372 557.396 342.829 557.285 343.268Z" fill="url(#paint1_linear)"/>
<path d="M622.378 253.918C621.688 257.3 619.841 260.309 618.503 263.484C609.638 284.658 623.949 312.224 610.231 330.597C604.812 337.844 595.905 341.833 586.971 343.199C578.036 344.566 568.909 343.613 559.919 342.647L546.835 341.267C542.795 340.839 538.672 340.383 535.032 338.575C531.392 336.767 528.318 333.288 528.139 329.23C527.918 324.219 531.944 320.161 535.543 316.669C550.102 302.567 562.748 286.612 573.155 269.212C578.891 259.55 585.868 246.685 597.725 244.007C605.943 242.129 625.025 240.928 622.378 253.918Z" fill="#FDBC68"/>
<path d="M617.027 249.983C616.337 253.365 614.49 256.375 613.153 259.563C604.287 280.724 618.599 308.304 604.88 326.662C599.461 333.909 590.555 337.899 581.62 339.279C572.686 340.659 563.558 339.679 554.569 338.713L541.484 337.333C537.444 336.891 533.322 336.435 529.682 334.572C526.042 332.708 522.967 329.299 522.788 325.241C522.567 320.216 526.593 316.158 530.192 312.666C544.751 298.564 557.397 282.608 567.805 265.209C573.54 255.615 580.517 242.681 592.374 240.017C600.592 238.195 619.674 236.98 617.027 249.983Z" fill="url(#paint2_linear)"/>
<path d="M506.367 288.84H498.453V432.991H506.367V288.84Z" fill="#FDBC68"/>
<path d="M506.367 288.84H498.453V432.991H506.367V288.84Z" fill="url(#paint3_linear)"/>
<path d="M462.039 386.666C460.555 389.432 459.689 392.489 459.502 395.624C459.502 401.587 464.301 406.322 468.699 410.339C472.077 401.408 476.971 392.822 484.182 386.597C489.036 382.456 524.608 338.533 529.682 334.612C534.756 330.692 570.369 329.008 571.169 322.672C572.065 315.522 541.567 316.474 535.969 311.712C528.937 305.721 495.557 315.067 491.269 320.767C481.342 333.95 468.726 371.689 462.039 386.666Z" fill="#3E3E54"/>
<path d="M462.219 386.777C460.738 389.546 459.869 392.601 459.668 395.735C459.737 401.699 464.48 406.433 468.879 410.464C472.257 401.533 477.151 392.947 484.362 386.722C489.202 382.581 524.788 338.658 529.862 334.737C534.936 330.817 570.549 329.133 571.349 322.783C572.245 315.633 541.747 316.599 536.149 311.837C529.117 305.846 495.737 315.178 491.449 320.878C481.508 334.061 468.934 371.8 462.219 386.777Z" fill="url(#paint4_linear)"/>
<path opacity="0.48" d="M464.935 36.9385H140.662C131.403 36.9385 123.896 44.4535 123.896 53.7236V234.219C123.896 243.49 131.403 251.005 140.662 251.005H464.935C474.195 251.005 481.701 243.49 481.701 234.219V53.7236C481.701 44.4535 474.195 36.9385 464.935 36.9385Z" fill="#FDBC68"/>
<path d="M548.034 231.335C547.725 226.176 549.073 221.053 551.88 216.717C554.702 212.406 558.476 208.802 562.911 206.184C565.434 204.652 568.315 203.341 571.183 203.714C573.651 204.031 577.098 200.332 579.097 201.809C584.723 205.95 588.749 215.847 593.464 220.982C594.712 227.892 595.486 234.879 595.78 241.894L598.621 294.873C599.089 303.61 599.338 313.176 594.071 320.175C580.881 315.375 568.045 309.651 555.658 303.044C554.471 302.52 553.42 301.732 552.584 300.739C551.729 299.273 551.322 297.589 551.412 295.894C550.888 282.707 550.888 269.52 551.412 256.333C551.66 249.21 548.599 238.443 548.034 231.335Z" fill="#FDBC68"/>
<path d="M572.424 283.568C572.879 280.807 573.803 278.046 573.279 275.286C572.396 270.344 567.24 266.41 568.04 261.482C568.357 259.453 569.667 257.727 570.508 255.85C571.997 252.523 571.997 248.741 571.886 245.097C571.762 240.1 571.514 235.09 571.142 230.106C568.805 231.846 566.891 234.092 565.544 236.677L555.162 253.435C553.995 255.166 553.015 257.017 552.239 258.956C551.318 262.053 550.904 265.279 551.012 268.508L550.543 292.595C550.543 294.9 550.543 297.427 552.046 299.166C553.111 300.228 554.438 300.99 555.893 301.374C560.746 303.017 569.791 306.026 572.576 300.601C575.002 295.908 571.487 289.144 572.424 283.568Z" fill="url(#paint5_linear)"/>
<path d="M558.209 294.749L520.293 299.511C513.882 300.325 507.36 301.154 501.404 303.652C495.448 306.15 490.015 310.637 487.809 316.724C482.597 331.107 483.783 346.181 488.526 360.716C492.396 372.532 496.261 384.348 500.122 396.164C501.02 399.592 502.524 402.831 504.561 405.73C506.767 408.49 510.283 410.492 513.771 409.871C514.421 409.788 515.046 409.567 515.604 409.225C516.163 408.882 516.643 408.425 517.012 407.883C517.512 406.83 517.721 405.662 517.618 404.501L517.701 340.59C517.701 336.919 518.032 332.626 521.093 330.61C523.078 329.313 525.615 329.41 527.987 329.548L570.149 332.018C576.216 332.377 596.705 324.537 595.45 315.965C593.782 304.618 569.584 293.313 558.209 294.749Z" fill="#3E3E54"/>
<path d="M508.491 406.309C507.484 408.241 508.036 410.685 507.194 412.714C506.442 414.184 505.332 415.442 503.968 416.372L494.124 424.364C492.4 425.744 490.47 427.773 491.159 429.885C491.849 431.997 494.427 432.48 496.578 432.577C502.079 432.745 507.585 432.519 513.054 431.901C516.487 431.569 520.238 431.031 522.54 428.464C523.697 427.062 524.442 425.365 524.691 423.563C525.739 417.324 522.761 411.14 519.865 405.619C519.664 405.084 519.264 404.649 518.749 404.404C518.348 404.333 517.936 404.381 517.563 404.542C515.302 405.294 513.151 406.343 511.165 407.662" fill="#3E3E54"/>
<path d="M430.921 409.29C430.242 409.806 429.674 410.454 429.252 411.195C428.821 412.28 428.755 413.476 429.063 414.601C429.372 415.727 430.038 416.722 430.962 417.434C432.847 418.813 435.055 419.683 437.373 419.96C442.896 421.01 448.528 421.367 454.139 421.023C455.53 421.187 456.937 420.919 458.171 420.255C459.404 419.59 460.403 418.562 461.033 417.31C463.587 413.317 465.889 409.168 467.927 404.887C469.485 401.56 466.341 399.835 463.418 399.145C460.799 398.523 458.675 399.738 456.345 400.787C451.009 403.203 445.246 403.7 439.648 405.191C436.478 405.913 433.501 407.311 430.921 409.29Z" fill="#3E3E54"/>
<path d="M540.148 191.428C542.34 194.189 543.236 197.902 545.29 200.829C545.806 201.724 546.533 202.479 547.408 203.028C548.283 203.577 549.279 203.902 550.309 203.976C552.86 203.879 554.638 201.477 556.872 200.235C557.353 200.996 558.019 201.623 558.807 202.058C559.596 202.492 560.481 202.72 561.381 202.72C563.182 202.702 564.955 202.272 566.565 201.464C569.359 200.211 571.94 198.53 574.217 196.481C574.534 196.242 574.782 195.923 574.934 195.556C575.037 195.162 575.037 194.749 574.934 194.355L570.274 172.683C569.837 169.596 568.721 166.645 567.006 164.042C565.626 162.372 563.868 161.056 561.877 160.205C554.873 156.975 545.966 158.355 541.195 164.677C537.886 169.025 540.479 174.34 539.817 179.267C539.486 181.517 538.548 183.574 538.121 185.769C537.473 188.295 538.714 189.593 540.148 191.428Z" fill="url(#paint6_linear)"/>
<path d="M538.961 162.621C541.416 165.381 545.566 165.823 549.288 165.795C551.186 165.667 553.092 165.797 554.955 166.182C555.884 166.386 556.753 166.802 557.495 167.398C558.237 167.995 558.83 168.755 559.229 169.619C559.85 171.22 559.491 173.028 559.671 174.726C559.7 175.486 559.998 176.21 560.512 176.769C560.776 177.034 561.131 177.188 561.504 177.201C561.878 177.214 562.243 177.084 562.525 176.838C563.173 176.12 563.145 174.505 564.083 174.671C564.236 174.714 564.378 174.789 564.499 174.891C564.62 174.993 564.718 175.121 564.786 175.265C565.354 176.2 565.645 177.278 565.626 178.373C565.606 179.467 565.277 180.534 564.675 181.449C563.89 182.608 562.635 184.071 563.531 185.134C564.055 185.742 564.91 185.728 565.71 186.004C568.178 186.956 568.164 190.932 570.563 192.091C571.124 192.319 571.733 192.406 572.336 192.346C572.939 192.286 573.518 192.08 574.024 191.746C575.027 191.063 575.889 190.191 576.56 189.179C581.365 182.712 584.303 175.048 585.054 167.024C585.412 164.582 585.171 162.09 584.351 159.763C583.295 157.512 581.687 155.564 579.677 154.104C576.781 151.771 572.852 149.825 569.446 151.343C568.384 151.812 567.268 152.613 566.178 152.213C565.691 151.98 565.258 151.646 564.91 151.233C560.098 146.443 552.225 145.601 545.91 148.113C543.539 149.065 538.865 150.045 537.638 152.475C536.955 154.135 536.718 155.944 536.95 157.724C537.182 159.504 537.876 161.192 538.961 162.621Z" fill="#B7A451"/>
<path d="M572.645 278.391H240.761V289.199H572.645V278.391Z" fill="#FDBC68"/>
<path d="M572.645 278.391H240.761V289.199H572.645V278.391Z" fill="url(#paint7_linear)"/>
<path d="M267.04 288.84H259.126V432.991H267.04V288.84Z" fill="#FDBC68"/>
<path d="M329.857 289.227H321.943V434.247H329.857V289.227Z" fill="#FDBC68"/>
<path d="M267.04 288.84H259.126V432.991H267.04V288.84Z" fill="url(#paint8_linear)"/>
<path d="M329.857 289.227H321.943V434.247H329.857V289.227Z" fill="url(#paint9_linear)"/>
<path d="M569.184 289.213H561.27V434.247H569.184V289.213Z" fill="#FDBC68"/>
<path d="M569.184 289.213H561.27V434.247H569.184V289.213Z" fill="url(#paint10_linear)"/>
<path d="M44.8658 426.407C44.3281 427.442 43.6663 428.395 43.1148 429.43C41.623 432.252 41.0905 435.484 41.5981 438.637C41.7401 439.973 42.1949 441.257 42.9256 442.384C43.6563 443.512 44.6422 444.451 45.8034 445.125C47.524 445.807 49.401 445.993 51.2219 445.663C54.1174 445.332 57.2058 444.365 58.7776 441.922C59.6745 440.22 60.1475 438.326 60.1564 436.401C60.377 433.64 60.5424 430.714 59.3429 428.119C58.4191 426.159 56.7232 424.599 55.9925 422.597C55.3583 420.844 55.3858 418.705 53.9795 417.49C52.2974 416.04 48.9332 416.924 47.6234 418.567C45.9826 420.651 46.0791 424.06 44.8658 426.407Z" fill="#FDBC68"/>
<path d="M80.4102 417.559C79.8449 419.257 79.2796 421.176 80.0793 422.777C81.0996 424.847 83.7606 425.331 85.7736 426.449C87.7866 427.567 89.0689 429.209 90.9578 430.176C92.9645 431.096 95.1479 431.567 97.3553 431.556C100.226 431.701 103.102 431.701 105.973 431.556C108.102 431.593 110.215 431.184 112.177 430.355C112.666 430.143 113.096 429.817 113.432 429.403C114.521 427.912 113.294 425.855 111.956 424.613C109.675 422.502 106.946 420.935 103.973 420.03C100.389 418.953 96.1558 418.65 93.9084 415.64C92.24 413.432 92.0746 410.119 89.8824 408.49C83.7606 403.852 81.5684 414.094 80.4102 417.559Z" fill="#FDBC68"/>
<path d="M41.9428 396.177L43.3216 413.252C43.6939 417.669 44.7004 422.997 48.8367 424.529C52.1044 425.744 55.8684 423.715 57.7711 420.788C59.6738 417.862 60.1564 414.246 60.5287 410.781C64.2238 378.135 64.5547 344.952 72.1379 312.996C77.173 342.046 80.0899 371.424 80.8655 400.897C80.7645 403.802 81.1656 406.702 82.0513 409.47C82.5153 410.849 83.3301 412.083 84.4157 413.052C85.5012 414.02 86.8199 414.688 88.2419 414.991C91.6475 415.446 94.8876 412.893 96.3491 409.773C97.8106 406.654 97.8933 403.078 97.9485 399.628L99.8926 274.802C99.9753 269.073 100.265 262.82 104.029 258.513C86.8494 258.417 68.1808 259.286 51.0151 259.19C49.919 259.067 48.8124 259.299 47.8578 259.852C46.8775 260.804 46.3084 262.102 46.2722 263.469C39.7173 307.389 38.2645 351.922 41.9428 396.177Z" fill="#3E3E54"/>
<path d="M41.6937 396.177L43.0725 413.252C43.431 417.669 44.4513 422.997 48.5876 424.529C51.8691 425.744 55.6331 423.715 57.5358 420.788C59.4385 417.862 59.9211 414.246 60.2933 410.781C63.9885 378.135 64.3194 344.952 71.9026 312.996C76.9331 342.046 79.8454 371.424 80.6164 400.897C80.5267 403.802 80.9323 406.701 81.816 409.47C82.2787 410.847 83.0916 412.081 84.1745 413.049C85.2575 414.017 86.5733 414.686 87.9928 414.991C91.4122 415.446 94.6523 412.893 96.1138 409.773C97.5753 406.654 97.658 403.078 97.7132 399.628L99.6435 274.802C99.74 269.073 100.016 262.82 103.78 258.513C86.6003 258.417 67.9317 259.286 50.766 259.19C49.6698 259.065 48.5625 259.297 47.6087 259.852C46.6284 260.804 46.0593 262.102 46.0231 263.469C39.4683 307.389 38.0156 351.922 41.6937 396.177Z" fill="url(#paint11_linear)"/>
<path d="M154.712 211.416C154.743 212.594 154.363 213.746 153.637 214.673C152.854 215.339 151.897 215.766 150.879 215.902C138.015 218.911 124.682 219.436 111.487 219.946C109.378 220.015 106.772 219.836 105.876 217.903C105.876 220.209 105.876 222.583 105.876 224.971C105.876 232.646 105.71 240.61 105.876 248.009C106.103 251.179 105.805 254.365 104.993 257.437C103.077 263.372 97.4516 267.5 91.4953 269.308C85.539 271.116 79.1691 270.923 72.9371 270.688L53.2206 270.109C51.5116 270.171 49.8068 269.899 48.2019 269.308C43.7623 267.334 42.8936 261.495 42.6868 256.65C42.0802 242.667 42.3559 228.173 42.8799 213.762C43.2521 203.479 43.7485 193.25 44.1345 183.284C44.3138 178.743 47.2506 174.657 50.9319 172.02C54.7565 169.553 58.9777 167.764 63.4098 166.734C67.8316 165.703 72.127 164.19 76.2185 162.22C84.0855 163.445 91.6282 166.232 98.403 170.419C105.505 174.503 111.038 180.849 114.121 188.447C115.307 191.594 116.134 195.197 118.85 197.184C121.566 199.172 124.972 198.854 128.171 198.647C134.738 198.252 141.324 198.284 147.887 198.744C150.024 198.882 152.437 199.213 153.747 200.925C154.519 202.164 154.903 203.606 154.85 205.066C154.938 207.183 154.892 209.304 154.712 211.416Z" fill="#FDBC68"/>
<path d="M73.8469 225.937C72.4682 225.192 71.0894 224.557 69.8485 223.77C68.6076 222.983 67.5046 222.169 66.374 221.327L59.2595 215.943C58.7541 215.578 58.2916 215.157 57.8808 214.687C56.9753 213.509 56.5692 212.021 56.7502 210.546C56.9485 209.08 57.3766 207.655 58.0186 206.322C58.8183 204.459 59.7559 202.402 59.1768 200.442C58.4736 197.999 55.7437 196.77 53.2481 196.301C52.8393 196.211 52.416 196.211 52.0072 196.301C51.6242 196.441 51.2771 196.665 50.991 196.957C50.7048 197.248 50.4868 197.599 50.3527 197.985C49.4157 200.259 48.8792 202.678 48.7671 205.135L47.8709 213.735C47.7331 214.65 47.7331 215.58 47.8709 216.495C48.45 219.063 51.0559 220.54 53.2619 222.017C56.6625 224.459 59.9345 227.076 63.0649 229.857C66.2091 232.649 69.9489 234.683 73.9986 235.807C75.6892 236.248 77.4646 236.248 79.1552 235.807C80.2636 235.488 81.2615 234.867 82.0368 234.012C83.2915 232.632 82.4367 232.218 81.1682 231.169C78.8827 229.217 76.4332 227.467 73.8469 225.937Z" fill="url(#paint12_linear)"/>
<path d="M92.2807 253.544C92.2807 253.544 84.6009 256.581 78.493 252.481C72.385 248.382 63.1473 242.294 63.1473 242.294L48.8908 236.773V260.694C48.8908 260.694 49.2493 268.217 53.165 270.164C51.456 270.226 49.7512 269.954 48.1462 269.363C43.7066 267.389 42.838 261.55 42.6312 256.705C42.0245 242.722 42.3003 228.228 42.8242 213.817L82.8085 244.448L92.2807 253.544Z" fill="url(#paint13_linear)"/>
<path d="M31.036 209.497C30.3002 211.133 29.9737 212.924 30.0847 214.715C30.4896 216.586 31.4228 218.301 32.7733 219.656C40.3013 228.353 51.0971 233.363 61.5482 238.126C63.2535 239.053 65.1304 239.621 67.0633 239.796C72.0406 239.796 74.0812 236.662 74.7844 231.734C74.9438 230.966 74.9154 230.171 74.7017 229.415C74.1311 228.291 73.2186 227.378 72.0958 226.807C66.2774 223.052 58.3081 220.222 53.4135 215.308C52.6975 214.697 52.2111 213.859 52.0347 212.934C51.9244 211.788 63.2854 193.305 60.652 186.969C58.0185 180.634 54.6681 170.902 48.05 174.781C38.5917 180.385 33.8763 201.574 31.036 209.497Z" fill="#FDBC68"/>
<path d="M165.121 195.831C165.28 195.731 165.459 195.668 165.645 195.647C165.831 195.625 166.019 195.646 166.197 195.707C166.335 195.812 166.446 195.948 166.523 196.103C166.599 196.259 166.639 196.431 166.638 196.604C166.819 198.007 166.639 199.432 166.114 200.745L173.504 201.408C175.82 201.615 178.537 202.07 179.557 204.169C180.577 206.267 178.992 209.152 176.923 210.587C173.256 213.127 168.54 213.472 164.087 213.555C161.435 213.731 158.772 213.479 156.2 212.81C152.326 211.609 147.749 207.15 150.823 203.147C153.526 199.503 161.219 197.639 165.121 195.831Z" fill="url(#paint14_linear)"/>
<path d="M87.5378 232.839C88.3753 232.865 89.1958 233.083 89.9369 233.474C90.3009 233.681 90.5846 234.004 90.7422 234.393C90.8998 234.781 90.9221 235.211 90.8055 235.613C90.1713 237.201 87.1242 236.814 86.8622 238.512C86.8684 238.878 86.9543 239.238 87.1138 239.567C87.2734 239.896 87.5028 240.186 87.786 240.417L92.1567 245.097C93.2935 246.169 94.2032 247.46 94.8315 248.892C95.1253 249.619 95.193 250.418 95.0257 251.184C94.8584 251.95 94.4639 252.648 93.8939 253.185C93.2784 253.555 92.594 253.794 91.8827 253.889C91.1715 253.984 90.4483 253.932 89.7576 253.738C85.4662 252.975 81.3955 251.274 77.8352 248.757C74.2749 246.24 71.3125 242.968 69.1588 239.175C62.8302 227.787 82.4364 232.314 87.5378 232.839Z" fill="url(#paint15_linear)"/>
<path d="M102.498 133.094C102.139 136.807 101.753 140.534 101.381 144.248C101.364 144.674 101.289 145.097 101.16 145.504C100.995 145.932 100.705 146.304 100.526 146.746C100.256 147.612 100.185 148.527 100.319 149.424C100.595 153.565 100.319 158.175 97.5617 161.364C97.0815 161.941 96.5139 162.44 95.8796 162.841C94.0592 163.767 91.9811 164.053 89.9785 163.655C89.4388 163.58 88.8912 163.58 88.3515 163.655C87.9923 163.686 87.6554 163.842 87.4002 164.097C87.1428 164.389 86.9502 164.733 86.8349 165.105C86.5572 165.858 86.327 166.628 86.1455 167.41C86.0235 168.345 85.6467 169.229 85.0563 169.964C84.3919 170.509 83.5404 170.772 82.6848 170.695C82.2893 170.682 81.8964 170.627 81.5128 170.53C79.6731 169.98 77.9587 169.075 76.4665 167.866C75.4676 167.334 74.651 166.514 74.1225 165.512C73.5941 164.511 73.3779 163.373 73.5022 162.247C73.2908 158.309 73.0793 154.379 72.8679 150.459C72.5646 144.938 72.3164 139.237 74.55 134.212C76.2469 130.389 79.2643 127.307 83.0482 125.532C86.8322 123.757 91.1287 123.409 95.1489 124.55C96.2933 124.841 97.3861 125.306 98.389 125.93C99.7417 126.871 100.922 128.038 101.877 129.381C102.884 130.692 102.649 131.493 102.498 133.094Z" fill="url(#paint16_linear)"/>
<path d="M97.7135 130.306C95.5811 130.507 93.4346 130.507 91.3022 130.306C88.9292 130.234 86.5711 130.706 84.4083 131.687C82.7483 132.532 81.3289 133.784 80.2826 135.326C79.2363 136.868 78.597 138.651 78.4245 140.507C78.3142 141.777 78.1763 143.434 76.9354 143.737C75.6945 144.041 74.9776 142.964 73.9159 142.854C73.3062 142.846 72.7152 143.065 72.257 143.468C71.7987 143.87 71.5056 144.429 71.4341 145.035C71.3408 146.261 71.6666 147.483 72.3579 148.5C73.0524 149.5 73.67 150.552 74.2054 151.647C74.635 152.797 74.7335 154.044 74.4897 155.247C74.246 156.45 73.6698 157.561 72.8267 158.452C70.1558 155.271 68.4353 151.401 67.8631 147.285C67.2979 143.189 67.3257 139.033 67.9458 134.944C68.066 133.506 68.4493 132.103 69.0764 130.803C69.4349 130.168 69.9175 129.589 70.2759 128.954C70.855 127.905 71.1308 126.704 71.6547 125.599C73.042 122.701 75.5214 120.472 78.5486 119.402C81.5445 118.342 84.7299 117.929 87.8966 118.187C89.8998 118.437 91.9304 118.357 93.9081 117.952C97.2309 117 104.731 113.494 106.317 119.001C107.834 124.205 102.401 129.492 97.7135 130.306Z" fill="#3E3E54"/>
<path d="M85.3731 143.019C84.9934 142.954 84.603 143.025 84.2702 143.22C83.9375 143.414 83.6836 143.719 83.5532 144.082C83.1763 144.845 82.9962 145.689 83.0292 146.539C83.0602 146.96 83.1869 147.367 83.3997 147.731C83.6124 148.094 83.9054 148.405 84.2563 148.637C84.7892 148.894 85.3748 149.021 85.966 149.01C87.1557 149.065 88.348 148.996 89.5232 148.803C89.6875 148.792 89.8453 148.735 89.9782 148.637C90.107 148.478 90.171 148.276 90.1575 148.071L90.3091 145.573C90.3703 145.087 90.3328 144.594 90.1988 144.124C89.5508 142.398 86.7519 142.909 85.3731 143.019Z" stroke="white" stroke-width="0.77" stroke-miterlimit="10"/>
<path d="M95.7974 143.019C95.2728 143.003 94.7595 143.174 94.3497 143.502C94.1971 143.673 94.0757 143.869 93.9912 144.082C93.6081 144.842 93.4276 145.689 93.4673 146.539C93.4879 146.966 93.6117 147.38 93.8278 147.748C94.0439 148.116 94.3461 148.426 94.7082 148.651C95.2368 148.906 95.8175 149.034 96.4041 149.024C97.5984 149.08 98.7952 149.01 99.9751 148.817C100.136 148.808 100.29 148.75 100.416 148.651C100.483 148.574 100.533 148.484 100.563 148.386C100.594 148.289 100.605 148.187 100.596 148.085L100.747 145.587C100.822 145.102 100.785 144.606 100.637 144.137C99.9889 142.398 97.19 142.909 95.7974 143.019Z" stroke="white" stroke-width="0.77" stroke-miterlimit="10"/>
<path d="M73.5706 141.735C73.3349 141.659 73.0865 141.631 72.8399 141.652C71.9495 141.71 71.1001 142.049 70.4132 142.619C70.1325 142.848 69.8985 143.129 69.7238 143.447C69.4895 144.014 69.4179 144.636 69.517 145.241C69.5888 146.417 70.0061 147.546 70.7165 148.485C71.1577 149.024 73.5706 151.329 74.26 151.37C74.9494 151.412 76.3695 150.307 76.8521 149.728C77.5277 148.885 75.9972 145.835 75.9283 144.731C75.5702 143.459 74.7221 142.381 73.5706 141.735Z" fill="url(#paint17_linear)"/>
<path d="M73.8195 146.207C73.847 146.038 73.847 145.866 73.8195 145.697C73.7852 145.536 73.7145 145.384 73.6127 145.255C73.3845 144.96 73.0802 144.734 72.7326 144.6C72.3851 144.466 72.0076 144.43 71.641 144.496C71.4188 144.526 71.2085 144.615 71.0317 144.753C70.8549 144.891 70.7178 145.074 70.6345 145.283C70.5362 145.677 70.5852 146.095 70.7724 146.456C70.9507 146.94 71.1819 147.403 71.4618 147.836C71.7308 148.262 72.0882 148.624 72.5097 148.899C72.7224 149.035 72.9628 149.122 73.2133 149.153C73.4637 149.184 73.7179 149.158 73.9574 149.079C74.3986 148.913 74.9363 148.292 74.5778 147.836C74.3986 147.615 74.1228 147.546 73.9712 147.27C73.8099 146.941 73.7568 146.569 73.8195 146.207Z" fill="url(#paint18_linear)"/>
<path d="M88.3933 163.628C88.0342 163.658 87.6973 163.814 87.442 164.069C87.1847 164.361 86.992 164.705 86.8767 165.077C86.5991 165.83 86.3688 166.6 86.1873 167.382C86.0654 168.317 85.6885 169.201 85.0981 169.936C84.4337 170.481 83.5823 170.744 82.7266 170.667C82.3312 170.654 81.9382 170.599 81.5547 170.502C81.1607 169.58 81.0133 168.571 81.1272 167.575C81.1768 166.709 81.2828 165.847 81.4444 164.994C81.4638 164.576 81.6242 164.177 81.8994 163.862C82.3361 163.542 82.8796 163.404 83.416 163.476H87.3593C87.7077 163.497 88.0536 163.547 88.3933 163.628Z" fill="url(#paint19_linear)"/>
<path d="M105.283 224.957L105.931 217.903C105.931 220.209 105.931 222.583 105.931 224.971L105.283 224.957Z" fill="#FDBC68"/>
<path d="M154.712 211.416C154.743 212.594 154.363 213.746 153.637 214.674C152.854 215.34 151.897 215.766 150.879 215.902C138.015 218.911 124.682 219.436 111.488 219.947C109.378 220.016 106.772 219.836 105.876 217.904V199.228C105.876 199.228 109.516 210.657 115.527 210.27C121.539 209.884 151.555 208.49 151.555 208.49L154.712 211.416Z" fill="url(#paint20_linear)"/>
<path d="M419.753 51.2393H189.112V66.0919H419.753V51.2393Z" fill="url(#paint21_linear)"/>
<path d="M419.794 159.68C416.198 166.668 410.808 172.57 404.179 176.781C397.55 180.993 389.92 183.361 382.074 183.643C374.228 183.924 366.448 182.11 359.535 178.385C352.621 174.66 346.823 169.159 342.735 162.448C338.648 155.737 336.42 148.057 336.279 140.198C336.138 132.339 338.089 124.584 341.933 117.73C345.777 110.877 351.374 105.171 358.149 101.2C364.925 97.2287 372.634 95.1353 380.485 95.1348H380.789V139.389L419.794 159.68Z" fill="url(#paint22_linear)"/>
<path d="M424.703 139.444C424.71 146.503 423.027 153.461 419.794 159.735L380.789 139.444V95.1895C392.462 95.266 403.631 99.9623 411.859 108.253C420.086 116.544 424.703 127.757 424.703 139.444Z" fill="url(#paint23_linear)"/>
<path d="M199.012 116.861H189.112V180.013H199.012V116.861Z" fill="url(#paint24_linear)"/>
<path d="M214.73 135.523H204.83V179.999H214.73V135.523Z" fill="url(#paint25_linear)"/>
<path d="M230.447 116.861H220.548V180.013H230.447V116.861Z" fill="url(#paint26_linear)"/>
<path d="M246.166 105.018H236.267V180.012H246.166V105.018Z" fill="url(#paint27_linear)"/>
<path d="M554.418 259.991L539.514 273.256C536.163 276.252 532.234 279.44 527.753 279.026C526.214 278.801 524.741 278.247 523.435 277.401C522.129 276.556 521.02 275.439 520.183 274.126C518.529 271.486 517.352 268.575 516.709 265.526C513.643 253.397 512.95 240.788 514.668 228.394C514.696 227.87 514.868 227.364 515.164 226.931C515.467 226.669 515.82 226.471 516.202 226.35C516.583 226.229 516.986 226.187 517.384 226.227L524.402 226.02C524.836 225.907 525.288 225.881 525.732 225.944C526.176 226.007 526.603 226.158 526.988 226.388C527.373 226.618 527.708 226.922 527.974 227.283C528.241 227.645 528.432 228.055 528.539 228.491L535.115 243.468C540.065 238.278 547.896 221.037 552.832 215.861C554.06 214.563 565.848 203.893 571.556 227.635C573.528 235.917 560.829 254.276 554.418 259.991Z" fill="#FDBC68"/>
<path d="M516.308 215.474C516.368 214.22 516.678 212.991 517.218 211.858C517.912 210.71 518.854 209.734 519.976 209C522.091 207.468 524.412 206.241 526.87 205.356C527.734 204.97 528.684 204.813 529.627 204.901C530.583 205.088 531.456 205.57 532.123 206.281C533.382 207.56 534.24 209.179 534.593 210.94C534.946 212.7 534.777 214.526 534.108 216.192C532.564 219.836 528.745 222.266 527.711 226.089C527.269 227.732 527.352 229.637 526.263 230.948C525.108 232.048 523.569 232.652 521.975 232.632C518.032 233.005 516.984 231.804 516.68 228.339C516.145 224.073 516.02 219.765 516.308 215.474Z" fill="url(#paint28_linear)"/>
<path d="M557.933 209.828C557.933 208.448 557.933 205.95 557.933 204.583C557.922 204.247 557.998 203.914 558.154 203.617C558.373 203.347 558.665 203.146 558.995 203.037C561.408 202.029 564.041 201.56 566.399 200.428C569.377 199.048 572.066 196.508 575.361 196.549C575.693 196.516 576.025 196.615 576.285 196.825C576.46 197.014 576.58 197.248 576.629 197.502C577.029 198.799 577.374 200.111 577.663 201.45C577.74 201.65 577.74 201.871 577.663 202.071C577.537 202.249 577.351 202.377 577.139 202.43L573.734 203.7C568.288 205.701 562.69 206.529 557.933 209.828Z" fill="#FDBC68"/>
<path d="M212.731 377.225C215.074 369.674 218.714 362.344 224.436 356.892C230.158 351.439 238.224 348.085 246 349.231C248.827 349.645 251.791 350.804 253.211 353.289C253.862 354.645 254.132 356.154 253.991 357.652C253.85 359.15 253.304 360.581 252.412 361.792C250.598 364.19 248.365 366.239 245.821 367.838C240.231 371.563 235.063 375.886 230.406 380.731C227.029 384.375 224.459 388.694 222.865 393.402C221.817 396.701 222.782 402.085 220.107 404.528C219.056 405.36 217.785 405.867 216.45 405.987C215.116 406.107 213.775 405.835 212.593 405.204C209.132 403.258 209.711 398.413 209.752 394.99C209.892 388.956 210.895 382.973 212.731 377.225Z" fill="#FDBC68"/>
<path d="M212.731 377.225C215.074 369.674 218.714 362.344 224.436 356.892C230.158 351.439 238.224 348.085 246 349.231C248.827 349.645 251.791 350.804 253.211 353.289C253.862 354.645 254.132 356.154 253.991 357.652C253.85 359.15 253.304 360.581 252.412 361.792C250.598 364.19 248.365 366.239 245.821 367.838C240.231 371.563 235.063 375.886 230.406 380.731C227.029 384.375 224.459 388.694 222.865 393.402C221.817 396.701 222.782 402.085 220.107 404.528C219.056 405.36 217.785 405.867 216.45 405.987C215.116 406.107 213.775 405.835 212.593 405.204C209.132 403.258 209.711 398.413 209.752 394.99C209.892 388.956 210.895 382.973 212.731 377.225Z" fill="url(#paint29_linear)"/>
<path d="M213.861 387.743C213.548 386.485 213.349 385.2 213.269 383.906C213.266 382.726 213.526 381.561 214.032 380.496C214.538 379.43 215.276 378.492 216.192 377.749C217.076 377.104 217.997 376.51 218.949 375.969C219.964 375.432 220.838 374.662 221.497 373.721C222.156 372.78 222.583 371.696 222.741 370.558C222.741 369.688 222.548 368.819 222.589 367.963C222.578 367.527 222.696 367.097 222.926 366.727C223.156 366.356 223.49 366.061 223.885 365.878C224.376 365.812 224.876 365.891 225.323 366.107C225.769 366.323 226.142 366.666 226.394 367.093C227.488 368.627 228.098 370.454 228.146 372.338C228.176 374.212 227.896 376.078 227.318 377.86C226.533 381.098 224.622 383.951 221.927 385.907C220.751 386.51 219.609 387.178 218.508 387.909C217.002 389.34 215.903 391.145 215.323 393.14C215.24 393.348 214.303 401.699 214.123 401.837C212.938 402.748 214.247 392.409 214.289 391.995C214.32 390.565 214.176 389.138 213.861 387.743Z" fill="url(#paint30_linear)"/>
<path d="M192.104 394.452C190.024 392.557 187.624 391.047 185.017 389.993C179.923 387.497 174.996 384.675 170.264 381.545C168.058 380.082 165.755 378.357 164.983 375.817C164.211 373.277 165.066 370.848 165.879 368.46C166.693 366.072 168.072 362.869 170.76 362.317C172.22 362.149 173.695 362.428 174.993 363.118C183.259 366.689 190.066 372.968 194.296 380.924C195.322 382.898 196.242 384.926 197.053 386.998C198.968 391.903 200.557 396.929 201.81 402.044C202.693 405.688 199.963 412.286 196.929 406.847C194.558 402.817 195.578 398.123 192.104 394.452Z" fill="#FDBC68"/>
<path d="M192.104 394.452C190.024 392.557 187.624 391.047 185.017 389.993C179.923 387.497 174.996 384.675 170.264 381.545C168.058 380.082 165.755 378.357 164.983 375.817C164.211 373.277 165.066 370.848 165.879 368.46C166.693 366.072 168.072 362.869 170.76 362.317C172.22 362.149 173.695 362.428 174.993 363.118C183.259 366.689 190.066 372.968 194.296 380.924C195.322 382.898 196.242 384.926 197.053 386.998C198.968 391.903 200.557 396.929 201.81 402.044C202.693 405.688 199.963 412.286 196.929 406.847C194.558 402.817 195.578 398.123 192.104 394.452Z" fill="url(#paint31_linear)"/>
<path d="M195.814 387.991C195.808 386.829 195.697 385.669 195.483 384.527C195.228 383.497 194.745 382.538 194.069 381.721C193.394 380.904 192.543 380.249 191.581 379.806C190.679 379.445 189.758 379.132 188.823 378.867C187.82 378.629 186.889 378.154 186.107 377.482C185.325 376.809 184.715 375.959 184.329 375.002C184.108 374.243 184.108 373.443 183.874 372.697C183.791 372.314 183.596 371.965 183.313 371.695C183.031 371.424 182.674 371.244 182.288 371.179C181.406 371.179 180.73 371.966 180.385 372.794C179.767 374.366 179.637 376.088 180.013 377.735C180.392 379.375 181.045 380.938 181.943 382.36C183.34 385.005 185.632 387.066 188.41 388.171C189.567 388.437 190.709 388.769 191.829 389.165C193.463 390.069 194.821 391.4 195.759 393.016C195.869 393.182 200.033 404.059 200.226 404.059C201.453 404.597 196.531 392.119 196.407 391.76C196.052 390.533 195.853 389.267 195.814 387.991Z" fill="url(#paint32_linear)"/>
<path d="M198.005 393.693C195.632 390.199 193.57 386.504 191.842 382.65C190.485 379.041 189.954 375.173 190.288 371.332C190.623 367.491 191.813 363.773 193.772 360.454C195.78 357.472 197.948 354.601 200.266 351.854C204.802 345.891 208.111 338.05 205.781 330.983C204.871 328.222 203.216 325.889 202.375 323.184C201.534 320.478 201.741 317.083 203.975 315.343C206.525 313.369 210.289 314.488 213.019 316.227C218.107 319.658 222.043 324.545 224.312 330.251C226.562 335.936 227.834 341.961 228.076 348.072C228.751 358.825 227.248 370.268 220.713 378.84C218.093 382.263 214.743 385.148 212.523 388.847C209.062 394.645 208.745 401.726 208.731 408.476C208.794 409.217 208.656 409.961 208.332 410.63C205.74 414.771 204.609 407.469 204.195 406.171C202.968 401.851 200.307 397.502 198.005 393.693Z" fill="#FDBC68"/>
<path d="M198.005 393.693C195.632 390.199 193.57 386.504 191.842 382.65C190.485 379.041 189.954 375.173 190.288 371.332C190.623 367.491 191.813 363.773 193.772 360.454C195.78 357.472 197.948 354.601 200.266 351.854C204.802 345.891 208.111 338.05 205.781 330.983C204.871 328.222 203.216 325.889 202.375 323.184C201.534 320.478 201.741 317.083 203.975 315.343C206.525 313.369 210.289 314.488 213.019 316.227C218.107 319.658 222.043 324.545 224.312 330.251C226.562 335.936 227.834 341.961 228.076 348.072C228.751 358.825 227.248 370.268 220.713 378.84C218.093 382.263 214.743 385.148 212.523 388.847C209.062 394.645 208.745 401.726 208.731 408.476C208.794 409.217 208.656 409.961 208.332 410.63C205.74 414.771 204.609 407.469 204.195 406.171C202.968 401.851 200.307 397.502 198.005 393.693Z" fill="url(#paint33_linear)"/>
<path d="M202.568 393.458C201.845 392.381 201.214 391.245 200.679 390.063C200.265 388.958 200.103 387.775 200.206 386.599C200.308 385.424 200.673 384.287 201.272 383.271C201.886 382.354 202.554 381.474 203.271 380.635C204.65 378.813 205.67 376.411 204.94 374.244C204.664 373.415 204.154 372.684 203.892 371.856C203.73 371.451 203.691 371.007 203.779 370.58C203.867 370.153 204.079 369.761 204.388 369.454C204.823 369.222 205.316 369.123 205.806 369.169C206.297 369.216 206.762 369.406 207.146 369.716C208.704 370.773 209.909 372.273 210.606 374.023C211.303 375.784 211.694 377.651 211.764 379.544C212.148 382.856 211.347 386.196 209.503 388.972C208.61 389.946 207.772 390.969 206.994 392.036C206.076 393.897 205.676 395.972 205.836 398.041C205.85 398.269 205.807 398.496 205.712 398.704C204.912 399.987 204.567 397.737 204.457 397.323C203.997 395.959 203.362 394.659 202.568 393.458Z" fill="url(#paint34_linear)"/>
<path d="M189.25 402.195H225.967L217.294 430.272H196.778L189.25 402.195Z" fill="#FDBC68"/>
<path d="M189.25 402.195H225.967L217.294 430.272H196.778L189.25 402.195Z" fill="url(#paint35_linear)"/>
<path d="M227.277 402.236H187.514V410.091H227.277V402.236Z" fill="#FDBC68"/>
<path d="M227.277 402.236H187.514V410.091H227.277V402.236Z" fill="url(#paint36_linear)"/>
</g>
<defs>
<linearGradient id="paint0_linear" x1="592.307" y1="379.295" x2="615.156" y2="352.184" gradientUnits="userSpaceOnUse">
<stop stop-opacity="0"/>
<stop offset="0.99"/>
</linearGradient>
<linearGradient id="paint1_linear" x1="10441.7" y1="23501.4" x2="11732.4" y2="23155.6" gradientUnits="userSpaceOnUse">
<stop stop-opacity="0"/>
<stop offset="0.99"/>
</linearGradient>
<linearGradient id="paint2_linear" x1="39331" y1="20872.8" x2="43679.8" y2="28020.3" gradientUnits="userSpaceOnUse">
<stop stop-opacity="0"/>
<stop offset="0.99"/>
</linearGradient>
<linearGradient id="paint3_linear" x1="3370.82" y1="49969" x2="12623.2" y2="20911" gradientUnits="userSpaceOnUse">
<stop stop-opacity="0"/>
<stop offset="0.99"/>
</linearGradient>
<linearGradient id="paint4_linear" x1="34516.9" y1="26681.6" x2="43561.3" y2="26681.6" gradientUnits="userSpaceOnUse">
<stop stop-opacity="0"/>
<stop offset="0.99"/>
</linearGradient>
<linearGradient id="paint5_linear" x1="9658.12" y1="16657" x2="14530.2" y2="13767.8" gradientUnits="userSpaceOnUse">
<stop stop-opacity="0"/>
<stop offset="0.99"/>
</linearGradient>
<linearGradient id="paint6_linear" x1="537.859" y1="181.283" x2="575.003" y2="181.283" gradientUnits="userSpaceOnUse">
<stop stop-color="#E5C5D5"/>
<stop offset="0.42" stop-color="#EAD4D1"/>
<stop offset="1" stop-color="#F0E9CB"/>
</linearGradient>
<linearGradient id="paint7_linear" x1="98139.9" y1="2323.95" x2="98139.9" y2="2965.2" gradientUnits="userSpaceOnUse">
<stop stop-opacity="0"/>
<stop offset="0.99"/>
</linearGradient>
<linearGradient id="paint8_linear" x1="1774.76" y1="41419.4" x2="-4584.02" y2="29513.9" gradientUnits="userSpaceOnUse">
<stop stop-opacity="0"/>
<stop offset="0.99"/>
</linearGradient>
<linearGradient id="paint9_linear" x1="2197.67" y1="41475.1" x2="-4209.36" y2="29512.6" gradientUnits="userSpaceOnUse">
<stop stop-opacity="0"/>
<stop offset="0.99"/>
</linearGradient>
<linearGradient id="paint10_linear" x1="3794.29" y1="50389.9" x2="13149.7" y2="21186.7" gradientUnits="userSpaceOnUse">
<stop stop-opacity="0"/>
<stop offset="0.99"/>
</linearGradient>
<linearGradient id="paint11_linear" x1="2847.68" y1="52517.4" x2="8789.81" y2="32294.5" gradientUnits="userSpaceOnUse">
<stop stop-opacity="0"/>
<stop offset="0.99"/>
</linearGradient>
<linearGradient id="paint12_linear" x1="2046.63" y1="6265.67" x2="-346.527" y2="7477.37" gradientUnits="userSpaceOnUse">
<stop stop-opacity="0"/>
<stop offset="0.99"/>
</linearGradient>
<linearGradient id="paint13_linear" x1="2831.98" y1="11705.2" x2="625.726" y2="7194.65" gradientUnits="userSpaceOnUse">
<stop stop-opacity="0"/>
<stop offset="0.99"/>
</linearGradient>
<linearGradient id="paint14_linear" x1="3412.85" y1="2882.97" x2="4069.06" y2="2882.97" gradientUnits="userSpaceOnUse">
<stop stop-color="#E5C5D5"/>
<stop offset="0.42" stop-color="#EAD4D1"/>
<stop offset="1" stop-color="#F0E9CB"/>
</linearGradient>
<linearGradient id="paint15_linear" x1="1405.13" y1="4203.69" x2="1941" y2="4203.69" gradientUnits="userSpaceOnUse">
<stop stop-color="#E5C5D5"/>
<stop offset="0.42" stop-color="#EAD4D1"/>
<stop offset="1" stop-color="#F0E9CB"/>
</linearGradient>
<linearGradient id="paint16_linear" x1="1648.67" y1="5181.6" x2="2299.74" y2="5181.6" gradientUnits="userSpaceOnUse">
<stop stop-color="#E5C5D5"/>
<stop offset="0.42" stop-color="#EAD4D1"/>
<stop offset="1" stop-color="#F0E9CB"/>
</linearGradient>
<linearGradient id="paint17_linear" x1="464.804" y1="1182.5" x2="612.493" y2="1229.56" gradientUnits="userSpaceOnUse">
<stop stop-color="#E5C5D5"/>
<stop offset="0.42" stop-color="#EAD4D1"/>
<stop offset="1" stop-color="#F0E9CB"/>
</linearGradient>
<linearGradient id="paint18_linear" x1="299.515" y1="648.529" x2="277.254" y2="651.345" gradientUnits="userSpaceOnUse">
<stop stop-color="#E5C5D5"/>
<stop offset="0.42" stop-color="#EAD4D1"/>
<stop offset="1" stop-color="#F0E9CB"/>
</linearGradient>
<linearGradient id="paint19_linear" x1="525.362" y1="1091.58" x2="537.365" y2="918.71" gradientUnits="userSpaceOnUse">
<stop stop-opacity="0"/>
<stop offset="0.99"/>
</linearGradient>
<linearGradient id="paint20_linear" x1="4812.38" y1="3205.43" x2="4651.55" y2="4259" gradientUnits="userSpaceOnUse">
<stop stop-opacity="0"/>
<stop offset="0.99"/>
</linearGradient>
<linearGradient id="paint21_linear" x1="189.112" y1="58.6656" x2="419.753" y2="58.6656" gradientUnits="userSpaceOnUse">
<stop offset="0.02" stop-color="white" stop-opacity="0"/>
<stop offset="0.32" stop-color="white" stop-opacity="0.39"/>
<stop offset="0.68" stop-color="white" stop-opacity="0.68"/>
<stop offset="1" stop-color="white"/>
</linearGradient>
<linearGradient id="paint22_linear" x1="18448.2" y1="11260.4" x2="24767.6" y2="8859.79" gradientUnits="userSpaceOnUse">
<stop offset="0.02" stop-color="white" stop-opacity="0"/>
<stop offset="0.32" stop-color="white" stop-opacity="0.39"/>
<stop offset="0.68" stop-color="white" stop-opacity="0.68"/>
<stop offset="1" stop-color="white"/>
</linearGradient>
<linearGradient id="paint23_linear" x1="12276.2" y1="6505.86" x2="14276.8" y2="6107.78" gradientUnits="userSpaceOnUse">
<stop offset="0.02" stop-color="white" stop-opacity="0"/>
<stop offset="0.32" stop-color="white" stop-opacity="0.39"/>
<stop offset="0.68" stop-color="white" stop-opacity="0.68"/>
<stop offset="1" stop-color="white"/>
</linearGradient>
<linearGradient id="paint24_linear" x1="1549.01" y1="3873.74" x2="3641.19" y2="8532.35" gradientUnits="userSpaceOnUse">
<stop offset="0.02" stop-color="white" stop-opacity="0"/>
<stop offset="0.32" stop-color="white" stop-opacity="0.39"/>
<stop offset="0.68" stop-color="white" stop-opacity="0.68"/>
<stop offset="1" stop-color="white"/>
</linearGradient>
<linearGradient id="paint25_linear" x1="204.389" y1="81.0683" x2="212.971" y2="202.828" gradientUnits="userSpaceOnUse">
<stop offset="0.02" stop-color="white" stop-opacity="0"/>
<stop offset="0.32" stop-color="white" stop-opacity="0.39"/>
<stop offset="0.67" stop-color="white" stop-opacity="0.68"/>
<stop offset="1" stop-color="white"/>
</linearGradient>
<linearGradient id="paint26_linear" x1="1805.07" y1="3772.7" x2="3897.24" y2="8431.31" gradientUnits="userSpaceOnUse">
<stop offset="0.02" stop-color="white" stop-opacity="0"/>
<stop offset="0.32" stop-color="white" stop-opacity="0.39"/>
<stop offset="0.68" stop-color="white" stop-opacity="0.68"/>
<stop offset="1" stop-color="white"/>
</linearGradient>
<linearGradient id="paint27_linear" x1="1936.02" y1="4384.98" x2="4696.58" y2="9561.71" gradientUnits="userSpaceOnUse">
<stop offset="0.02" stop-color="white" stop-opacity="0"/>
<stop offset="0.32" stop-color="white" stop-opacity="0.39"/>
<stop offset="0.68" stop-color="white" stop-opacity="0.68"/>
<stop offset="1" stop-color="white"/>
</linearGradient>
<linearGradient id="paint28_linear" x1="7482.44" y1="4651.11" x2="7734.31" y2="4651.11" gradientUnits="userSpaceOnUse">
<stop stop-color="#E5C5D5"/>
<stop offset="0.42" stop-color="#EAD4D1"/>
<stop offset="1" stop-color="#F0E9CB"/>
</linearGradient>
<linearGradient id="paint29_linear" x1="7952.48" y1="15815.2" x2="6723.7" y2="16171.3" gradientUnits="userSpaceOnUse">
<stop stop-opacity="0"/>
<stop offset="0.99"/>
</linearGradient>
<linearGradient id="paint30_linear" x1="-19497.9" y1="-17196.7" x2="-19855.3" y2="-16543.4" gradientUnits="userSpaceOnUse">
<stop stop-opacity="0"/>
<stop offset="0.99"/>
</linearGradient>
<linearGradient id="paint31_linear" x1="4959.31" y1="12533.6" x2="5432.6" y2="14478.3" gradientUnits="userSpaceOnUse">
<stop stop-opacity="0"/>
<stop offset="0.99"/>
</linearGradient>
<linearGradient id="paint32_linear" x1="166097" y1="-12831.2" x2="166540" y2="-12309.5" gradientUnits="userSpaceOnUse">
<stop stop-opacity="0"/>
<stop offset="0.99"/>
</linearGradient>
<linearGradient id="paint33_linear" x1="6005.68" y1="24060" x2="5200.64" y2="29255.7" gradientUnits="userSpaceOnUse">
<stop stop-opacity="0"/>
<stop offset="0.99"/>
</linearGradient>
<linearGradient id="paint34_linear" x1="1948.93" y1="8545.48" x2="1873.72" y2="9033.84" gradientUnits="userSpaceOnUse">
<stop stop-opacity="0"/>
<stop offset="0.99"/>
</linearGradient>
<linearGradient id="paint35_linear" x1="5228.99" y1="8868.37" x2="6206.76" y2="8868.37" gradientUnits="userSpaceOnUse">
<stop stop-opacity="0"/>
<stop offset="0.99"/>
</linearGradient>
<linearGradient id="paint36_linear" x1="6151.29" y1="2697.33" x2="6154.22" y2="2766.32" gradientUnits="userSpaceOnUse">
<stop stop-opacity="0"/>
<stop offset="0.99"/>
</linearGradient>
<clipPath id="clip0">
<rect width="631.518" height="499" fill="white"/>
</clipPath>
</defs>
</svg>
