<svg width="623" height="467" viewBox="0 0 623 467" fill="none" xmlns="http://www.w3.org/2000/svg">
<g clip-path="url(#clip0)">
<path opacity="0.18" d="M2.80171 236.237C-8.06954 300.13 12.8976 370.733 63.3452 411.509C110.185 449.294 173.735 457.158 233.693 462.142C324.856 469.769 420.862 473.329 503.196 433.455C521.188 424.768 538.499 413.993 557.852 408.945C568.929 406.034 580.908 404.8 589.802 397.679C598.695 390.559 602.461 379.309 605.341 368.438C614.962 331.397 615.484 288.485 591.447 258.706C563.201 223.705 511.076 218.183 477.734 188.024C460.818 172.708 449.805 151.996 434.439 135.144C386.523 82.5009 307.292 76.4091 236.193 73.909C178.641 71.9153 119.252 53.9246 77.2072 98.2132C40.6849 136.679 11.4259 183.088 2.80171 236.237Z" fill="#36D1DC"/>
<path d="M389.371 424.642C389.435 425.363 389.327 426.09 389.054 426.762C388.61 427.415 388.025 427.961 387.344 428.36C386.663 428.76 385.901 429.003 385.114 429.072L383.927 427.411C380.841 430.29 376.157 430.369 371.948 430.211C368.261 430.085 364.59 429.895 360.871 429.705C360.563 429.734 360.253 429.693 359.963 429.586C359.672 429.48 359.41 429.309 359.194 429.088C358.985 428.677 358.94 428.202 359.067 427.759C359.427 426.024 360.318 424.444 361.617 423.239C362.916 422.034 364.558 421.263 366.315 421.034C369.132 420.733 372.027 421.888 374.797 421.271C378.405 420.464 381.047 416.366 384.813 416.287C388.58 416.208 389.276 421.746 389.371 424.642Z" fill="#3E3E54"/>
<path d="M389.371 424.642C389.435 425.363 389.327 426.09 389.054 426.762C388.61 427.415 388.025 427.961 387.344 428.36C386.663 428.76 385.901 429.003 385.114 429.072L383.927 427.411C380.841 430.29 376.157 430.369 371.948 430.211C368.261 430.085 364.59 429.895 360.871 429.705C360.563 429.734 360.253 429.693 359.963 429.586C359.672 429.48 359.41 429.309 359.194 429.088C358.985 428.677 358.94 428.202 359.067 427.759C359.427 426.024 360.318 424.444 361.617 423.239C362.916 422.034 364.558 421.263 366.315 421.034C369.132 420.733 372.027 421.888 374.797 421.271C378.405 420.464 381.047 416.366 384.813 416.287C388.58 416.208 389.276 421.746 389.371 424.642Z" fill="url(#paint0_linear)"/>
<path d="M338.005 335.843C332.865 337.215 327.946 339.314 323.399 342.078C322.092 342.911 320.953 343.985 320.045 345.242C318.851 347.165 318.231 349.388 318.257 351.65C317.893 363.897 327.086 374.087 335.663 382.822L363.925 411.541C367.185 414.863 370.587 418.265 374.907 419.974C379.227 421.683 384.75 421.287 387.788 417.759C377.861 405.185 368.219 392.389 358.862 379.372C358.475 378.977 358.188 378.495 358.026 377.967C357.863 377.438 357.83 376.878 357.928 376.334C358.45 374.894 360.428 374.752 361.963 374.958C369.538 375.494 377.13 374.191 384.093 371.161C391.055 368.13 397.182 363.461 401.951 357.552C405.005 353.692 407.521 348.85 406.587 344.008C405.765 339.72 402.378 336.381 398.77 333.913C379.085 320.416 358.197 329.387 338.005 335.843Z" fill="#3E3E54"/>
<path d="M338.18 335.859C333.04 337.234 328.122 339.333 323.574 342.094C322.266 342.927 321.128 344.001 320.219 345.258C319.039 347.156 318.424 349.352 318.447 351.587C318.067 363.834 327.277 374.024 335.854 382.759L364.116 411.477C367.391 414.784 370.778 418.186 375.098 419.911C379.418 421.636 384.956 421.224 387.979 417.696C378.073 405.101 368.436 392.305 359.068 379.309C358.679 378.915 358.391 378.433 358.225 377.905C358.06 377.377 358.024 376.817 358.118 376.271C358.64 374.831 360.634 374.768 362.153 374.895C369.729 375.435 377.322 374.134 384.285 371.103C391.249 368.072 397.375 363.401 402.141 357.489C405.195 353.613 407.727 348.771 406.794 343.945C405.955 339.641 402.569 336.302 398.881 333.85C379.259 320.416 358.435 329.403 338.18 335.859Z" fill="url(#paint1_linear)"/>
<path d="M349.795 375.907C351.949 377.086 354.408 377.588 356.852 377.347H400.116C402.89 377.536 405.672 377.137 408.281 376.176C410.435 375.026 412.373 373.511 414.009 371.698C421.673 364.252 430.065 357.594 439.059 351.824C439.676 351.518 440.176 351.018 440.483 350.4C440.597 350.07 440.64 349.72 440.61 349.372C440.341 344.625 435.23 341.35 430.467 341.191C425.704 341.033 421.162 343.043 416.652 344.593C395.717 351.84 371.157 350.084 353.434 363.391C350.079 365.844 344.462 372.204 349.795 375.907Z" fill="#3E3E54"/>
<path d="M349.795 375.907C351.949 377.086 354.408 377.588 356.852 377.347H400.116C402.89 377.536 405.672 377.137 408.281 376.176C410.435 375.026 412.373 373.511 414.009 371.698C421.673 364.252 430.065 357.594 439.059 351.824C439.676 351.518 440.176 351.018 440.483 350.4C440.597 350.07 440.64 349.72 440.61 349.372C440.341 344.625 435.23 341.35 430.467 341.191C425.704 341.033 421.162 343.043 416.652 344.593C395.717 351.84 371.157 350.084 353.434 363.391C350.079 365.844 344.462 372.204 349.795 375.907Z" fill="url(#paint2_linear)"/>
<path d="M465.264 359.894C466.087 360.638 493.099 422.933 493.415 426.477C493.7 429.642 491.2 432.126 489.253 434.595C491.769 434.136 499.903 430.671 501.739 428.883C502.344 428.374 502.785 427.696 503.004 426.936C503.102 426.201 503.026 425.453 502.783 424.753C501.201 418.993 492.45 380.575 491.2 373.17C490.806 370.11 490.063 367.105 488.984 364.214C487.895 361.297 485.848 358.837 483.177 357.236C481.833 356.462 480.3 356.076 478.75 356.121C477.199 356.165 475.692 356.639 474.394 357.489C472.685 357.394 466.878 359.293 465.264 359.894Z" fill="url(#paint3_linear)"/>
<path d="M506.439 371.682C513.243 387.094 515.285 404.199 520.95 420.069C521.372 421.033 521.598 422.071 521.614 423.123C521.502 424.082 521.16 424.999 520.618 425.797C518.968 428.484 516.483 430.557 513.544 431.699C514.035 422.205 509.414 413.392 504.936 405.069L498.986 393.993C496.863 390.219 494.961 386.325 493.289 382.331C492.466 380.29 491.786 378.186 491.169 376.081C489.855 371.682 485.599 361.35 493.02 360.163C499.777 359.135 504.16 366.524 506.439 371.682Z" fill="url(#paint4_linear)"/>
<path d="M490.583 297.583C486.39 297.883 482.18 297.029 477.924 297.361C473.667 297.694 469.236 299.687 467.78 303.69C470.17 305.89 473.825 305.779 477.053 305.478C484.965 304.735 502.72 305.241 510.648 303.975C513.813 303.485 507.167 301.444 510.031 300.146C510.669 299.934 511.254 299.584 511.743 299.122C512.232 298.66 512.615 298.097 512.863 297.472C507.024 291.981 497.324 297.124 490.583 297.583Z" fill="url(#paint5_linear)"/>
<path d="M564.513 304.72L565.811 336.587C565.953 339.863 566.032 343.328 564.371 346.081C561.427 351.081 554.591 351.761 548.8 351.872L509.65 352.616C506.813 352.479 503.977 352.915 501.311 353.898C498.732 355.053 501.976 360.385 502.134 363.217C502.134 364.277 497.102 362.743 496.311 363.471C495.704 363.884 494.96 364.043 494.238 363.914L474.885 362.885C473.179 362.893 471.486 362.599 469.884 362.015C466.007 360.338 464.441 355.781 463.27 351.73C461.66 346.948 460.743 341.961 460.548 336.92C460.548 331.888 462.289 326.635 466.15 323.407C470.786 319.514 477.369 319.277 483.414 319.245L522.136 318.976C522.72 319.05 523.313 319.004 523.879 318.84C524.445 318.677 524.972 318.4 525.427 318.027C526.218 317.125 526.139 315.733 526.836 314.767C527.631 313.883 528.723 313.32 529.905 313.185L551.664 308.359C553.92 307.685 556.299 307.522 558.626 307.884C559.779 308.09 560.834 308.664 561.633 309.519C562.432 310.375 562.932 311.467 563.057 312.631" fill="#3E3E54"/>
<path d="M343.117 339.229L313.32 354.119C308.664 356.246 304.25 358.866 300.154 361.935C299.117 362.485 298.336 363.418 297.979 364.536C297.621 365.654 297.714 366.867 298.24 367.917C302.765 381.793 315.646 390.971 327.72 399.151L342.326 409.04L366.616 425.481C368.388 426.683 370.382 427.933 372.487 427.569C375.541 427.063 377.076 423.281 376.316 420.275C375.557 417.268 373.246 414.974 371.031 412.822L348.513 390.876C343.149 385.654 337.689 380.306 334.271 373.66C350.46 367.331 368.135 366.192 385.115 362.442C389.236 361.799 393.162 360.242 396.603 357.885C399.879 355.337 402.078 350.986 400.939 346.983C399.809 344.019 397.683 341.54 394.926 339.973C390.744 336.961 385.82 335.145 380.684 334.72C377.234 334.53 373.8 335.226 370.366 335.036C367.312 334.862 365.192 333.169 362.454 332.758C356.235 331.824 348.466 336.555 343.117 339.229Z" fill="#3E3E54"/>
<path d="M535.271 304.466H198.483V311.57H535.271V304.466Z" fill="#36D1DC"/>
<path d="M377.55 46.9473H92.6982V241.143H377.55V46.9473Z" fill="#36D1DC"/>
<path d="M178.845 141.394C177.405 139.812 182.88 140.825 182.01 138.926C177.468 129.78 176.139 119.258 171.329 110.255C170.569 108.846 169.746 107.486 169.05 106.061C170.612 105.101 172.038 103.935 173.291 102.596C175.548 100.249 177.587 97.7014 179.383 94.9854C179.652 95.2543 180.095 95.4442 180.348 95.8398C195.555 119.195 178.924 137.802 178.845 141.394Z" fill="#3E3E54"/>
<path d="M152.577 176.933C162.325 176.775 172.785 177.55 180.491 183.531C186.014 187.835 189.4 194.291 192.201 200.715C197.214 212.199 200.878 224.226 203.12 236.554C203.341 237.757 207.218 240.114 206.126 240.668C205.746 240.858 200.097 241.364 199.67 241.38C167.025 242.393 135.756 242.108 103.142 243.105C102.438 243.211 101.719 243.078 101.101 242.725C100.55 242.209 100.202 241.513 100.12 240.763C97.0973 228.564 94.1857 216.016 96.4327 203.706C96.7742 201.407 97.5245 199.189 98.6481 197.155C101.275 192.756 105.627 191.474 109.82 189.133C113.665 186.965 116.988 184.259 121.087 182.487C130.961 178.231 141.927 177.107 152.577 176.933Z" fill="white"/>
<path d="M139.506 152.09C138.035 155.951 138.335 160.223 138.668 164.337L140.551 188.072C140.474 189.14 140.76 190.203 141.363 191.087C141.967 191.972 142.851 192.627 143.874 192.945C148.368 195.382 153.226 197.692 158.337 197.392C163.448 197.091 168.718 193.578 169.192 188.499C169.493 185.145 167.737 181.964 165.695 179.29C163.654 176.616 161.233 174.148 159.872 171.078C157.641 165.999 158.622 160.176 158.195 154.654C158.136 151.993 157.299 149.408 155.789 147.217C151.184 141.362 141.69 146.394 139.506 152.09Z" fill="url(#paint6_linear)"/>
<path d="M147.878 171.917C151.081 175.084 154.945 177.505 159.192 179.006C159.659 179.258 160.186 179.378 160.716 179.353C161.245 179.328 161.758 179.158 162.199 178.863C163.164 177.914 162.468 176.3 161.788 175.113C160.03 172.021 158.764 168.674 158.037 165.192C157.851 163.487 157.242 161.855 156.265 160.445C155.686 159.84 155.012 159.332 154.271 158.942C151.106 157.107 142.577 152.613 140.203 157.771C138.241 161.933 145.172 169.243 147.878 171.917Z" fill="url(#paint7_linear)"/>
<path d="M339.319 217.487C338.338 218.721 336.787 220.035 337.389 221.474C337.721 222.25 338.591 222.63 339.272 223.136C340.975 224.653 342.015 226.778 342.167 229.054C342.328 231.31 342.863 233.524 343.75 235.604C344.794 237.598 347.2 239.117 349.304 238.31C350.554 237.82 351.709 236.57 352.991 236.981C353.972 237.297 354.384 238.437 354.953 239.291C355.739 240.276 356.788 241.019 357.978 241.433C359.168 241.848 360.451 241.917 361.679 241.633C364.124 241.026 366.43 239.951 368.467 238.468C369.365 238.007 370.108 237.291 370.604 236.411C370.897 235.577 370.897 234.667 370.604 233.832C369.892 231.253 367.898 229.259 366.236 227.139C363.154 223.194 361.084 218.555 360.207 213.626C359.606 210.193 359.448 206.348 357.042 203.879C353.735 200.525 346.582 201.253 343.164 204.291C339.335 207.519 342.373 213.563 339.319 217.487Z" fill="url(#paint8_linear)"/>
<path d="M339.762 202.946C339.924 203.547 340.271 204.081 340.754 204.473C341.237 204.865 341.831 205.095 342.452 205.13C343.686 205.288 344.936 205.035 346.171 205.13C347.599 205.225 348.965 205.746 350.093 206.626C351.222 207.506 352.06 208.705 352.5 210.066C353.466 213.231 352.073 216.934 353.387 220.019C353.83 220.62 354.827 220.13 355.175 219.465C355.523 218.801 355.665 217.978 356.267 217.535C357.263 216.807 358.688 217.741 359.257 218.848C359.872 220.158 359.962 221.653 359.508 223.027C359.055 224.401 358.093 225.55 356.82 226.237C357.074 227.234 358.403 227.519 359.4 227.282C360.361 226.899 361.375 226.664 362.406 226.586C364.764 226.791 365.967 230.082 368.325 230.193C369.907 230.193 371.157 228.769 372.091 227.44L374.797 223.532C375.125 223.148 375.329 222.673 375.382 222.171C375.351 221.714 375.204 221.273 374.955 220.889C373.585 218.213 373.13 215.162 373.657 212.202C374.322 208.595 376.427 205.24 376.253 201.569C375.903 198.47 374.442 195.603 372.138 193.5C366.742 188.041 358.213 186.11 350.712 186.996C349.485 187.1 348.296 187.473 347.23 188.089C346.163 188.704 345.245 189.547 344.541 190.557C342.515 193.231 339.287 199.607 339.762 202.946Z" fill="#3E3E54"/>
<path d="M364.401 234.418C361.936 235.781 359.563 237.304 357.296 238.975C356.589 239.461 356 240.099 355.571 240.842C355.345 241.248 355.227 241.706 355.227 242.171C355.227 242.636 355.345 243.093 355.571 243.5C356.362 244.623 357.85 244.038 358.989 243.5C364.227 240.763 370.066 239.987 375.668 239.449C376.063 239.471 376.456 239.381 376.802 239.191C377.149 239.001 377.436 238.718 377.63 238.373C377.728 237.976 377.738 237.561 377.659 237.159C377.579 236.757 377.413 236.378 377.171 236.047C373.658 230.304 368.958 231.728 364.401 234.418Z" fill="#36D1DC"/>
<path d="M354.352 308.437C350.376 300.359 347.456 291.802 345.664 282.978C342.97 285.34 340.644 288.092 338.765 291.143C335.996 295.668 334.666 302.377 338.876 305.605C331.349 307.899 323.398 308.44 315.63 307.187C313.412 307.03 311.317 306.114 309.696 304.592C308.684 303.287 308.128 301.687 308.113 300.035C307.749 294.418 310.946 289.26 314.032 284.545L335.347 251.886C336.064 250.653 336.966 249.538 338.021 248.579C339.509 247.503 341.199 246.739 342.99 246.332C356.467 242.331 370.168 239.13 384.022 236.743C386.098 236.275 388.234 236.142 390.352 236.348C396.27 237.218 400.163 242.804 403.138 247.978C418.741 275.035 429.802 305.748 428.061 336.935C428.038 338.62 427.771 340.294 427.27 341.903C426.245 344.326 424.576 346.422 422.443 347.963C415.481 353.454 406.319 355.495 397.457 355.574C384.228 355.701 366.774 351.713 356.899 342.204C351.313 336.84 356.899 333.596 359.574 328.28C362.944 321.586 357.343 314.513 354.352 308.437Z" fill="#36D1DC"/>
<path d="M400.923 361.588C395.606 334.878 402.949 316.508 414.991 292.061C419.042 283.849 424.738 275.479 433.521 272.9C437.588 271.697 441.924 271.887 446.101 271.175C454.235 269.798 461.72 265.067 469.964 264.846C470.361 264.794 470.764 264.822 471.15 264.928C471.536 265.034 471.897 265.216 472.211 265.463C472.627 265.952 472.871 266.563 472.907 267.203C473.506 270.79 473.463 274.455 472.781 278.026C471.547 284.577 468.271 290.526 465.565 296.618C458.743 311.967 455.362 328.623 455.659 345.416C455.851 347.467 455.646 349.535 455.058 351.508C454.243 353.334 453.032 354.955 451.513 356.255C440.436 366.952 425.846 373.059 411.604 378.93C410.554 379.467 409.381 379.723 408.202 379.673C407.437 379.489 406.717 379.151 406.086 378.68C405.455 378.21 404.926 377.616 404.531 376.936C401.356 372.451 400.061 366.903 400.923 361.477" fill="#3E3E54"/>
<path d="M400.923 361.588C395.606 334.878 402.949 316.508 414.991 292.061C419.042 283.849 424.738 275.479 433.521 272.9C437.588 271.697 441.924 271.887 446.101 271.175C454.235 269.798 461.72 265.067 469.964 264.846C470.361 264.794 470.764 264.822 471.15 264.928C471.536 265.034 471.897 265.216 472.211 265.463C472.627 265.952 472.871 266.563 472.907 267.203C473.506 270.79 473.463 274.455 472.781 278.026C471.547 284.577 468.271 290.526 465.565 296.618C458.743 311.967 455.362 328.623 455.659 345.416C455.851 347.467 455.646 349.535 455.058 351.508C454.243 353.334 453.032 354.955 451.513 356.255C440.436 366.952 425.846 373.059 411.604 378.93C410.554 379.467 409.381 379.723 408.202 379.673C407.437 379.489 406.717 379.151 406.086 378.68C405.455 378.21 404.926 377.616 404.531 376.936C401.356 372.451 400.061 366.903 400.923 361.477" fill="url(#paint9_linear)"/>
<path d="M349.795 375.907L328.227 440.101H334.762L356.837 377.347L349.795 375.907Z" fill="#36D1DC"/>
<path d="M396.207 376.92L414.959 439.674H424.105L404.562 377.046L396.207 376.92Z" fill="#36D1DC"/>
<path d="M441.1 365.147L462.89 435.75H455.041L433.251 369.072L441.1 365.147Z" fill="#36D1DC"/>
<path d="M181.346 133.926C182.11 138.533 182.259 143.22 181.789 147.866C180.766 154.727 177.118 160.922 171.614 165.145C169.226 167.066 166.434 168.424 163.448 169.117C160.461 169.81 157.357 169.821 154.366 169.148C146.612 167.012 141.707 159.654 137.972 152.423C133.858 144.512 130.345 136.062 129.427 127.106C128.509 118.151 130.424 108.736 136.168 101.885C138.612 98.9685 141.655 96.6127 145.09 94.9773C148.525 93.3418 152.272 92.465 156.076 92.4065C159.881 92.3479 163.653 93.109 167.137 94.638C170.621 96.167 173.735 98.428 176.267 101.267C181.789 107.549 180.334 125.619 181.346 133.926Z" fill="url(#paint10_linear)"/>
<path d="M179.384 94.9854C177.568 97.7041 175.507 100.252 173.228 102.596C171.975 103.935 170.549 105.101 168.987 106.061C163.56 109.479 156.818 110.903 151.122 113.704C149.353 114.458 147.803 115.644 146.612 117.153C144.096 120.777 145.441 126.315 142.371 129.48C141.755 129.997 141.221 130.605 140.789 131.283C140.508 132.075 140.448 132.928 140.614 133.752C141.646 142.596 141.688 151.528 140.741 160.382C137.07 156.521 131.626 154.907 127.512 151.505C119.22 144.685 118.16 132.518 118.017 121.805C117.72 116.475 118.286 111.132 119.695 105.982C121.277 100.903 124.885 96.1721 129.917 94.3683C130.692 94.1519 131.433 93.827 132.117 93.4031C132.941 92.6081 133.56 91.6254 133.921 90.5391C139.285 78.8143 153.464 75.5073 164.968 79.3364C169.715 80.9187 174.779 83.8935 176.868 88.6878C177.269 89.6257 177.576 90.6009 177.786 91.5993C178.972 91.2512 179.922 91.2195 180.238 91.7891C180.555 92.3588 180.207 93.6088 179.384 94.9854Z" fill="#3E3E54"/>
<path d="M339.524 117.169H217.061V207.487H339.524V117.169Z" fill="white"/>
<path d="M279.472 205.889C279.435 206.212 279.324 206.523 279.149 206.797C278.973 207.071 278.737 207.302 278.459 207.471C274.171 210.941 269.248 213.543 263.964 215.129C261.496 215.873 259.344 216.269 258.093 218.579C257.112 220.845 256.323 223.19 255.736 225.588C254.148 230.401 252.119 235.057 249.675 239.497C249.374 240.051 249.058 240.604 248.71 241.079H223.059C223.469 240.311 224.004 239.616 224.641 239.022C228.509 234.932 231.892 230.408 234.721 225.541C235.069 224.955 235.401 224.37 235.734 223.769C236.826 221.854 237.838 219.892 238.804 217.898C239.769 215.905 240.813 211.284 242.522 209.781C244.611 207.914 248.108 208.579 250.624 208.642C254.596 208.769 258.567 208.359 262.429 207.423C267.461 206.158 272.414 203.579 277.557 204.37C278.38 204.56 279.425 205.003 279.472 205.889Z" fill="url(#paint11_linear)"/>
<path d="M240.955 136.3H230.796V192.851H240.955V136.3Z" fill="#36D1DC"/>
<path d="M257.903 154.686H247.744V192.851H257.903V154.686Z" fill="#36D1DC"/>
<path d="M275.595 148.135H265.436V192.851H275.595V148.135Z" fill="#36D1DC"/>
<path d="M293.871 154.686H283.712V192.851H293.871V154.686Z" fill="#36D1DC"/>
<path d="M241.905 36.5039H221.207V45.4439H241.905V36.5039Z" fill="#36D1DC"/>
<path d="M233.66 21.8516H230.021V39.6999H233.66V21.8516Z" fill="#36D1DC"/>
<path d="M233.66 21.8516H230.021V39.6999H233.66V21.8516Z" fill="url(#paint12_linear)"/>
<path d="M263.494 16.3132L223.919 0.00292969L216.568 17.8358L256.143 34.1461L263.494 16.3132Z" fill="#36D1DC"/>
<path d="M254.865 31.614L238.028 24.8734L243.994 10.0947L260.831 16.8353L254.865 31.614Z" fill="url(#paint13_linear)"/>
<path d="M251.463 25.2696C253.491 25.2696 255.134 23.6261 255.134 21.5987C255.134 19.5713 253.491 17.9277 251.463 17.9277C249.436 17.9277 247.792 19.5713 247.792 21.5987C247.792 23.6261 249.436 25.2696 251.463 25.2696Z" fill="#36D1DC"/>
<path d="M521.868 213.279C521.525 213.945 521.224 214.632 520.966 215.336C520.71 216.209 520.398 217.065 520.032 217.899C519.321 218.835 518.983 220.003 519.083 221.174C519.383 222.757 520.776 223.69 521.884 224.766C523.033 225.854 523.976 227.14 524.669 228.564C525.523 230.367 526.077 232.504 527.739 233.611C529.954 235.098 533.103 234.086 535.445 235.367C538.863 237.235 537.233 244.371 541.031 244.45C544.264 244.484 547.478 243.949 550.525 242.868C552.002 242.494 553.294 241.601 554.165 240.352C555.431 238.073 553.896 235.32 552.899 232.899C548.801 222.994 553.88 210.668 548.452 201.427C546.611 198.335 543.77 195.963 540.398 194.702C538.262 193.874 535.95 193.607 533.681 193.925C531.412 194.244 529.263 195.138 527.438 196.522C523.513 199.687 525.222 205.098 523.64 209.386C523.123 210.716 522.532 212.016 521.868 213.279Z" fill="url(#paint14_linear)"/>
<path d="M525.934 187.424C524.973 188.803 524.311 190.369 523.99 192.02C523.67 193.67 523.698 195.37 524.074 197.009C524.45 198.648 525.164 200.191 526.171 201.537C527.178 202.884 528.456 204.005 529.922 204.829C532.85 206.411 536.695 207.123 538.262 210.066C538.912 211.879 539.301 213.776 539.417 215.699C539.622 216.712 540.255 217.899 541.3 217.82C543.009 217.677 542.882 214.497 544.544 214.149C545.034 214.602 545.412 215.163 545.65 215.787C545.887 216.412 545.977 217.082 545.913 217.747C545.849 218.412 545.632 219.052 545.279 219.619C544.926 220.186 544.447 220.664 543.879 221.016C543.357 221.301 542.677 221.617 542.708 222.202C542.74 222.788 543.452 223.009 543.974 223.278C546.332 224.544 545.557 228.405 547.566 230.256C548.097 230.675 548.707 230.982 549.36 231.159C550.013 231.335 550.694 231.378 551.364 231.285C553.23 231.087 555.029 230.482 556.634 229.511C558.239 228.54 559.611 227.228 560.653 225.668C562.729 222.523 563.83 218.835 563.818 215.066C563.716 213.696 563.911 212.32 564.387 211.031C564.633 210.385 565.12 209.859 565.746 209.564C566.371 209.269 567.087 209.228 567.742 209.449C566.824 214.196 565.906 219.054 567.157 223.69C567.905 226.343 569.328 228.757 571.285 230.698C573.243 232.638 575.669 234.04 578.328 234.766C576.977 232.472 576.216 229.879 576.113 227.218C576.12 224.675 576.428 222.142 577.031 219.671L579.136 209.212C579.878 206.215 580.24 203.137 580.212 200.05C580.174 196.926 578.959 193.931 576.809 191.664C575.72 190.565 574.322 189.824 572.8 189.541C571.279 189.258 569.707 189.447 568.296 190.082C567.245 190.714 566.349 191.571 565.67 192.591C564.991 193.612 564.548 194.771 564.372 195.984C564.034 198.406 564.061 200.864 564.451 203.278C561.055 199.743 557.919 195.967 555.067 191.981C553.542 189.378 551.442 187.159 548.927 185.493C545.92 183.911 542.313 184.101 538.91 184.354C534.163 184.702 529.511 183.863 525.934 187.424Z" fill="#3E3E54"/>
<path d="M555.478 240.604C553.041 240.731 550.589 240.984 548.183 241.348C546.22 241.582 544.304 242.115 542.502 242.93C540.498 243.987 538.765 245.493 537.439 247.329C532.058 254.418 531.425 263.864 529.099 272.456C528.51 274.986 527.487 277.395 526.077 279.577C522.817 284.228 517.073 286.396 511.582 287.82C509.145 288.437 506.455 289.149 505.141 291.27C504.458 292.565 504.12 294.015 504.16 295.479C504.018 298.643 504.524 302.409 507.325 303.849C508.291 304.274 509.326 304.521 510.379 304.577C516.47 305.16 522.615 304.657 528.53 303.09C529.685 304.672 528.53 306.998 529.305 308.786C530.08 310.574 532.596 310.969 534.638 311.017C543.105 311.142 551.57 310.613 559.957 309.435C560.885 309.362 561.789 309.103 562.615 308.675C563.867 307.676 564.72 306.261 565.02 304.688C568.345 292.703 569.681 280.253 568.976 267.836C568.889 262.057 568.108 256.309 566.65 250.715C565.748 247.551 564.34 244.275 561.571 242.503C558.501 240.557 554.56 240.921 550.937 241.301" fill="#36D1DC"/>
<path d="M504.35 438.186C504.35 438.961 504.113 439.974 503.337 440.022C502.562 440.069 502.198 439.136 502.151 438.439C502.103 437.743 502.151 436.778 501.47 436.398C500.79 436.018 499.888 436.699 499.128 437.221C494.476 440.591 481.626 442.174 475.819 442.031C474.031 437.205 485.583 435.702 488.241 434.325C490.377 433.265 492.672 432.506 494.729 431.287C496.786 430.069 498.226 427.775 500.315 427.237C505.031 426.018 504.398 435.48 504.35 438.186Z" fill="#3E3E54"/>
<path d="M525.618 434.768C525.79 435.479 525.763 436.224 525.539 436.92C525.474 437.088 525.377 437.242 525.252 437.372C525.128 437.502 524.979 437.606 524.814 437.678C524.649 437.75 524.472 437.788 524.292 437.792C524.112 437.795 523.934 437.762 523.766 437.696C523.688 436.638 523.403 435.606 522.928 434.658C522.807 434.381 522.609 434.145 522.358 433.977C521.646 433.597 520.871 434.373 520.412 435.053C519.621 436.474 518.418 437.621 516.962 438.344C516.057 438.632 515.111 438.771 514.161 438.756L509.271 438.914C509.113 438.914 497.783 440.354 497.641 440.275C497.498 440.196 496.644 439.12 499.983 436.73C502.419 434.99 513.797 427.347 513.797 427.347C512.041 432.094 519.019 425.369 520.332 424.816C525.523 422.68 525.111 431.509 525.618 434.768Z" fill="#3E3E54"/>
<path d="M283.19 313.422H191.6V428.503H283.19V313.422Z" fill="#36D1DC"/>
<path d="M88.4571 339.071C87.65 334.64 88.4571 328.58 92.8404 327.821C95.7046 327.33 98.2681 329.561 100.278 331.666C109.7 341.481 118.212 352.131 125.707 363.486C120.656 349.512 117.071 335.051 115.01 320.336C114.33 315.431 113.887 310.131 116.26 305.763C118.634 301.396 124.964 298.928 128.746 302.14C130.834 303.912 131.531 306.792 132.132 309.466L137.939 335.716C138.177 325.099 134.775 314.656 134.996 304.07C135.218 293.485 140.345 281.523 150.678 279.007C153.002 305.71 152.232 332.592 148.383 359.119C152.34 354.577 153.859 348.47 156.707 343.153C159.555 337.837 164.888 332.868 170.838 333.881C172.12 346.001 165.094 357.252 158.353 367.41C161.518 364.435 165.046 361.334 169.43 360.559C173.813 359.783 178.924 362.441 179.241 366.888C179.557 371.334 175.237 374.214 171.503 376.382L141.278 393.692C140.058 394.505 138.676 395.045 137.227 395.274C135.492 395.281 133.79 394.792 132.322 393.866C111.94 383.059 92.6347 361.998 88.4571 339.071Z" fill="#36D1DC"/>
<path d="M88.4571 339.071C87.65 334.64 88.4571 328.58 92.8404 327.821C95.7046 327.33 98.2681 329.561 100.278 331.666C109.7 341.481 118.212 352.131 125.707 363.486C120.656 349.512 117.071 335.051 115.01 320.336C114.33 315.431 113.887 310.131 116.26 305.763C118.634 301.396 124.964 298.928 128.746 302.14C130.834 303.912 131.531 306.792 132.132 309.466L137.939 335.716C138.177 325.099 134.775 314.656 134.996 304.07C135.218 293.485 140.345 281.523 150.678 279.007C153.002 305.71 152.232 332.592 148.383 359.119C152.34 354.577 153.859 348.47 156.707 343.153C159.555 337.837 164.888 332.868 170.838 333.881C172.12 346.001 165.094 357.252 158.353 367.41C161.518 364.435 165.046 361.334 169.43 360.559C173.813 359.783 178.924 362.441 179.241 366.888C179.557 371.334 175.237 374.214 171.503 376.382L141.278 393.692C140.058 394.505 138.676 395.045 137.227 395.274C135.492 395.281 133.79 394.792 132.322 393.866C111.94 383.059 92.6347 361.998 88.4571 339.071Z" fill="url(#paint15_linear)"/>
<path d="M157.514 391.999H116.419V431.936H157.514V391.999Z" fill="#36D1DC"/>
<path d="M135.535 134.495C134.857 134.438 134.176 134.536 133.541 134.78C132.841 135.141 132.238 135.666 131.786 136.311C131.334 136.956 131.046 137.701 130.946 138.483C130.636 140.511 130.853 142.585 131.576 144.506C132.3 146.426 133.505 148.128 135.076 149.448C136.126 150.483 137.44 151.21 138.874 151.553C139.594 151.712 140.343 151.676 141.045 151.448C141.746 151.219 142.373 150.808 142.861 150.255C143.702 148.86 143.99 147.2 143.669 145.603C143.194 140.429 141.706 134.812 135.535 134.495Z" fill="url(#paint16_linear)"/>
<path d="M138.73 142.866C138.38 141.986 137.984 141.125 137.544 140.287C137.297 139.943 137.01 139.629 136.689 139.353C136.438 139.077 136.125 138.866 135.775 138.736C135.425 138.607 135.049 138.564 134.679 138.61C134.436 138.689 134.214 138.823 134.03 139.001C133.846 139.179 133.706 139.397 133.619 139.638C133.439 140.145 133.379 140.687 133.445 141.221C133.588 143.228 134.507 145.101 136.009 146.442C136.344 146.756 136.729 147.012 137.148 147.202C137.796 147.413 138.478 147.499 139.158 147.455C139.394 147.487 139.633 147.487 139.87 147.455C140.312 147.218 140.654 146.831 140.834 146.363C141.014 145.896 141.02 145.379 140.851 144.907C140.439 143.942 139.237 143.815 138.73 142.866Z" fill="url(#paint17_linear)"/>
<path d="M499.444 375.907C501.598 377.087 504.058 377.588 506.501 377.347H549.765C552.539 377.536 555.321 377.137 557.93 376.176C560.087 375.022 562.029 373.508 563.674 371.698C571.329 364.249 579.717 357.591 588.708 351.825C589.297 351.53 589.774 351.052 590.069 350.464C590.183 350.134 590.226 349.783 590.196 349.435C589.927 344.689 584.816 341.413 580.053 341.255C575.289 341.097 570.748 343.106 566.238 344.657C545.302 351.904 520.743 350.147 502.941 363.455C499.729 365.844 494.111 372.205 499.444 375.907Z" fill="#3E3E54"/>
<path d="M554.228 371.667C548.928 344.703 552.596 316.746 564.672 292.061C568.723 283.849 574.42 275.479 583.202 272.9C587.269 271.697 591.605 271.887 595.782 271.175C603.916 269.798 611.401 265.067 619.645 264.846C620.042 264.794 620.445 264.822 620.831 264.928C621.217 265.034 621.578 265.216 621.892 265.463C622.308 265.952 622.553 266.563 622.589 267.203C623.188 270.79 623.145 274.455 622.462 278.026C621.228 284.577 617.952 290.526 615.246 296.618C608.431 311.969 605.05 328.623 605.34 345.416C605.532 347.467 605.328 349.535 604.739 351.508C603.924 353.334 602.713 354.955 601.194 356.255C590.117 366.952 575.527 373.059 561.286 378.93C560.235 379.467 559.063 379.723 557.883 379.673C557.118 379.489 556.398 379.151 555.767 378.68C555.136 378.21 554.607 377.616 554.212 376.936C551.037 372.451 549.743 366.903 550.604 361.477" fill="#3E3E54"/>
<path d="M554.228 371.667C548.928 344.703 552.596 316.746 564.672 292.061C568.723 283.849 574.42 275.479 583.202 272.9C587.269 271.697 591.605 271.887 595.782 271.175C603.916 269.798 611.401 265.067 619.645 264.846C620.042 264.794 620.445 264.822 620.831 264.928C621.217 265.034 621.578 265.216 621.892 265.463C622.308 265.952 622.553 266.563 622.589 267.203C623.188 270.79 623.145 274.455 622.462 278.026C621.228 284.577 617.952 290.526 615.246 296.618C608.431 311.969 605.05 328.623 605.34 345.416C605.532 347.467 605.328 349.535 604.739 351.508C603.924 353.334 602.713 354.955 601.194 356.255C590.117 366.952 575.527 373.059 561.286 378.93C560.235 379.467 559.063 379.723 557.883 379.673C557.118 379.489 556.398 379.151 555.767 378.68C555.136 378.21 554.607 377.616 554.212 376.936C551.037 372.451 549.743 366.903 550.604 361.477" fill="url(#paint18_linear)"/>
<path d="M499.444 375.907L477.876 440.101H484.411L506.502 377.347L499.444 375.907Z" fill="#36D1DC"/>
<path d="M545.856 376.92L564.608 439.674H573.755L554.212 377.046L545.856 376.92Z" fill="#36D1DC"/>
<path d="M590.75 365.147L612.54 435.75H604.691L582.901 369.072L590.75 365.147Z" fill="#36D1DC"/>
<path d="M378.626 428.93C378.687 429.655 378.584 430.385 378.325 431.066C377.875 431.715 377.287 432.258 376.603 432.654C375.92 433.051 375.157 433.292 374.369 433.36L373.183 431.699C370.113 434.578 365.413 434.658 361.204 434.515C357.511 434.367 353.819 434.199 350.127 434.009C349.817 434.042 349.504 434.001 349.213 433.891C348.922 433.782 348.66 433.605 348.449 433.376C348.235 432.967 348.184 432.492 348.307 432.047C348.667 430.314 349.559 428.736 350.858 427.534C352.157 426.332 353.799 425.564 355.554 425.338C358.371 425.021 361.267 426.176 364.036 425.559C367.644 424.752 370.366 420.654 374.053 420.575C377.74 420.496 378.531 426.05 378.626 428.93Z" fill="#3E3E54"/>
</g>
<defs>
<linearGradient id="paint0_linear" x1="359.036" y1="423.265" x2="389.371" y2="423.265" gradientUnits="userSpaceOnUse">
<stop stop-opacity="0"/>
<stop offset="0.99"/>
</linearGradient>
<linearGradient id="paint1_linear" x1="20408.8" y1="26074.1" x2="25365.2" y2="26074.1" gradientUnits="userSpaceOnUse">
<stop stop-opacity="0"/>
<stop offset="0.99"/>
</linearGradient>
<linearGradient id="paint2_linear" x1="23166.6" y1="9925.52" x2="28630.8" y2="9925.52" gradientUnits="userSpaceOnUse">
<stop stop-opacity="0"/>
<stop offset="0.99"/>
</linearGradient>
<linearGradient id="paint3_linear" x1="465.264" y1="395.338" x2="503.052" y2="395.338" gradientUnits="userSpaceOnUse">
<stop stop-color="#E5C5D5"/>
<stop offset="0.42" stop-color="#EAD4D1"/>
<stop offset="1" stop-color="#F0E9CB"/>
</linearGradient>
<linearGradient id="paint4_linear" x1="11478.7" y1="20973.1" x2="12160.7" y2="20973.1" gradientUnits="userSpaceOnUse">
<stop stop-color="#E5C5D5"/>
<stop offset="0.42" stop-color="#EAD4D1"/>
<stop offset="1" stop-color="#F0E9CB"/>
</linearGradient>
<linearGradient id="paint5_linear" x1="14953" y1="2723.43" x2="16237.4" y2="2723.43" gradientUnits="userSpaceOnUse">
<stop stop-color="#E5C5D5"/>
<stop offset="0.42" stop-color="#EAD4D1"/>
<stop offset="1" stop-color="#F0E9CB"/>
</linearGradient>
<linearGradient id="paint6_linear" x1="3625.45" y1="7836.24" x2="4226.05" y2="7836.24" gradientUnits="userSpaceOnUse">
<stop stop-color="#E5C5D5"/>
<stop offset="0.42" stop-color="#EAD4D1"/>
<stop offset="1" stop-color="#F0E9CB"/>
</linearGradient>
<linearGradient id="paint7_linear" x1="2851.25" y1="3899.87" x2="3010.47" y2="3128.94" gradientUnits="userSpaceOnUse">
<stop stop-opacity="0"/>
<stop offset="0.99"/>
</linearGradient>
<linearGradient id="paint8_linear" x1="8352.66" y1="7330.18" x2="9063.99" y2="7330.18" gradientUnits="userSpaceOnUse">
<stop stop-color="#E5C5D5"/>
<stop offset="0.42" stop-color="#EAD4D1"/>
<stop offset="1" stop-color="#F0E9CB"/>
</linearGradient>
<linearGradient id="paint9_linear" x1="21009.2" y1="27978" x2="24484.4" y2="27978" gradientUnits="userSpaceOnUse">
<stop stop-opacity="0"/>
<stop offset="0.99"/>
</linearGradient>
<linearGradient id="paint10_linear" x1="5799.36" y1="9392.31" x2="7566.1" y2="9392.31" gradientUnits="userSpaceOnUse">
<stop stop-color="#E5C5D5"/>
<stop offset="0.42" stop-color="#EAD4D1"/>
<stop offset="1" stop-color="#F0E9CB"/>
</linearGradient>
<linearGradient id="paint11_linear" x1="9621.53" y1="6775.88" x2="11632.7" y2="6775.88" gradientUnits="userSpaceOnUse">
<stop stop-color="#E5C5D5"/>
<stop offset="0.42" stop-color="#EAD4D1"/>
<stop offset="1" stop-color="#F0E9CB"/>
</linearGradient>
<linearGradient id="paint12_linear" x1="763.73" y1="557.302" x2="744.549" y2="258.272" gradientUnits="userSpaceOnUse">
<stop stop-opacity="0"/>
<stop offset="0.99"/>
</linearGradient>
<linearGradient id="paint13_linear" x1="3933.9" y1="74.4373" x2="3714.37" y2="606.269" gradientUnits="userSpaceOnUse">
<stop stop-opacity="0"/>
<stop offset="0.99"/>
</linearGradient>
<linearGradient id="paint14_linear" x1="13100.6" y1="9113.9" x2="13902.5" y2="9113.9" gradientUnits="userSpaceOnUse">
<stop stop-color="#E5C5D5"/>
<stop offset="0.42" stop-color="#EAD4D1"/>
<stop offset="1" stop-color="#F0E9CB"/>
</linearGradient>
<linearGradient id="paint15_linear" x1="10245.1" y1="27862.3" x2="9411.56" y2="38268.1" gradientUnits="userSpaceOnUse">
<stop stop-opacity="0"/>
<stop offset="0.99"/>
</linearGradient>
<linearGradient id="paint16_linear" x1="1727.99" y1="2400.5" x2="1316.65" y2="2278.73" gradientUnits="userSpaceOnUse">
<stop stop-color="#E5C5D5"/>
<stop offset="0.42" stop-color="#EAD4D1"/>
<stop offset="1" stop-color="#F0E9CB"/>
</linearGradient>
<linearGradient id="paint17_linear" x1="947.289" y1="1280.3" x2="1036.57" y2="1271.08" gradientUnits="userSpaceOnUse">
<stop stop-opacity="0"/>
<stop offset="0.99"/>
</linearGradient>
<linearGradient id="paint18_linear" x1="27684.6" y1="27978" x2="31021.4" y2="27978" gradientUnits="userSpaceOnUse">
<stop stop-opacity="0"/>
<stop offset="0.99"/>
</linearGradient>
<clipPath id="clip0">
<rect width="623" height="467" fill="white"/>
</clipPath>
</defs>
</svg>
