<svg width="575" height="485" viewBox="0 0 575 485" fill="none" xmlns="http://www.w3.org/2000/svg">
<g clip-path="url(#clip0)">
<path opacity="0.18" d="M562.76 431.429C547.932 449.386 514.159 457.002 492.432 462.539C466.576 469.131 439.846 471.631 413.216 469.946C389.349 468.45 365.752 463.497 342.02 460.624C331.661 459.302 321.233 458.593 310.791 458.499C302.33 458.517 293.877 459.017 285.473 459.995C268.272 462.118 251.206 465.221 234.358 469.288L222.686 471.966C214.995 473.747 207.304 475.528 199.598 477.174C190.934 479.029 182.255 480.735 173.531 482.097C160.459 484.18 147.234 485.151 133.998 485C99.8065 484.506 66.1537 475.438 43.0652 451.181C30.1816 437.639 21.7572 420.505 14.6346 403.221C9.21785 390.158 3.93576 376.511 1.37701 362.534C-1.98976 344.128 1.00293 345.67 10.5047 331.439C25.1756 309.715 33.0894 284.134 33.2491 257.92C33.8327 225.448 26.4108 193.425 23.478 161.088C22.3849 149.765 22.1149 138.377 22.67 127.015C23.8072 105.631 28.6853 84.7414 40.1473 66.9342C63.5202 30.6464 108.5 15.1885 150.877 7.30246C174.55 2.71057 198.589 0.266489 222.701 0C229.904 0 237.096 0.224459 244.278 0.673381C297.892 4.39943 349.965 23.4487 403.759 23.3439C453.452 23.2392 504.971 13.0487 533.941 63.5224C556.057 102.115 558.182 148.653 556.536 193.036C554.89 237.42 550.116 282.566 560.366 325.782C563.883 340.642 569.165 355.097 572.337 369.986C572.98 372.979 573.534 376.062 573.983 379.129C576.616 397.311 574.477 417.288 562.76 431.429Z" fill="#68E1FD"/>
<path d="M207.737 432.506C205.024 447.38 202.305 462.26 199.582 477.144C190.918 478.999 182.239 480.705 173.516 482.067C160.444 484.15 147.218 485.121 133.982 484.97C99.7909 484.476 66.1381 475.408 43.0495 451.151C30.166 437.609 21.7416 420.475 14.619 403.191C9.20223 390.128 3.92014 376.481 1.36139 362.504C-2.00539 344.098 0.987303 345.64 10.4891 331.409C25.1599 309.685 33.0737 284.104 33.2335 257.89C33.8171 225.418 26.3952 193.395 23.4624 161.058C22.3693 149.735 22.0992 138.347 22.6544 126.985C37.1689 121.134 54.9604 121.388 70.6421 124.935C79.9793 127.045 89.3913 130.202 96.5588 136.562C110.565 148.997 112.42 170.246 109.831 188.801C107.243 207.357 101.212 225.778 103.188 244.408C103.906 251.142 105.672 257.801 105.477 264.564C104.863 285.858 85.2763 306.12 93.1022 325.917C133.952 330.137 204.026 346.373 210.58 395.694C212.226 407.95 209.952 420.355 207.737 432.506Z" fill="url(#paint0_linear)"/>
<path d="M285.458 459.966C278.261 460.759 271.078 461.851 263.926 463.123C254.035 464.889 244.189 467.014 234.343 469.258L222.671 471.937C217.359 473.164 212.047 474.391 206.735 475.573C201.423 476.755 196.052 477.922 190.71 478.985C184.994 480.122 179.263 481.17 173.517 482.067C160.445 484.151 147.219 485.122 133.983 484.97C99.3129 464.964 54.677 436.951 49.7839 422.466C41.9132 399.451 54.9164 385.699 63.8047 375.134C64.2037 374.675 64.5927 374.211 64.9718 373.743C73.8302 362.983 116.237 361.083 132.681 361.083C140.163 361.083 151.745 366.276 162.234 371.962C174.863 378.815 185.817 386.372 185.817 386.372L210.297 401.336L283.169 445.869L285.458 459.966Z" fill="#68E1FD"/>
<path d="M263.925 463.123C254.034 464.889 244.188 467.013 234.342 469.258L222.671 471.937C217.359 473.164 212.047 474.391 206.735 475.573C198.819 471.937 190.829 468.435 183.093 464.35C170.741 457.839 158.941 450.332 147.809 441.904C143.649 438.746 139.474 435.335 136.901 430.786C133.19 424.246 133.264 416.151 135.03 408.833C135.539 407.55 135.539 406.121 135.03 404.838C134.439 404.026 133.622 403.407 132.681 403.057C126.51 399.973 120.682 396.247 115.293 391.939C113.238 390.541 111.669 388.538 110.804 386.208C109.517 381.434 113.977 377.124 118.286 374.67C127.264 367.951 142.572 365.258 153.151 368.789C156.144 369.792 159.241 370.854 162.368 371.992C173.546 376.077 185.173 381.06 194.644 387.255C200.464 391.267 205.736 396.021 210.326 401.396C213.543 405.002 216.596 408.773 219.618 412.529L238.966 436.562C242.513 440.811 245.071 445.54 248.229 449.954C250.802 453.576 255.306 456.075 258.808 458.843C260.529 460.145 262.294 461.582 263.925 463.123Z" fill="url(#paint1_linear)"/>
<path opacity="0.23" d="M562.761 431.429C547.932 449.386 514.159 457.002 492.432 462.539C483.247 464.873 473.941 466.701 464.556 468.016C447.551 470.386 430.351 471.033 413.216 469.946C389.349 468.45 365.752 463.497 342.02 460.624C331.661 459.302 321.234 458.593 310.791 458.499C303.179 458.5 295.572 458.899 288.002 459.696C270.046 461.506 252.164 465.218 234.358 469.258L222.687 471.936V0C229.889 0 237.081 0.224459 244.264 0.673381C297.893 4.39943 349.966 23.4487 403.759 23.3439C453.453 23.2392 504.972 13.0487 533.941 63.5224C556.057 102.115 558.182 148.653 556.536 193.036C554.89 237.42 550.116 282.566 560.366 325.783C563.883 340.642 569.165 355.097 572.337 369.986C572.981 372.979 573.534 376.062 573.983 379.129C576.617 397.311 574.477 417.288 562.761 431.429Z" fill="#68E1FD"/>
<path d="M284.979 71.7829L295.169 67.4434L479.788 78.846V370.361H460.5L284.979 71.7829Z" fill="#68E1FD"/>
<path opacity="0.23" d="M464.54 468.016C447.536 470.386 430.335 471.033 413.201 469.946C389.334 468.45 365.737 463.497 342.005 460.624C331.646 459.302 321.218 458.593 310.776 458.499C303.164 458.5 295.557 458.899 287.987 459.696C272.784 454.892 258.613 447.964 248.139 436.187C232.472 418.575 228.447 393.689 226.667 370.181C221.986 307.484 228.714 244.458 246.523 184.163C247.331 180.664 248.821 177.358 250.907 174.436C256.534 167.582 267.816 167.837 274.998 173.029C282.181 178.222 285.967 186.916 288.241 195.475C293.149 214.031 290.396 237.45 273.682 246.862C282.405 259.791 271.766 280.711 283.064 291.455C286.475 294.702 291.174 296.109 295.349 298.264C308.098 304.863 315.879 318.66 318.707 332.681C321.535 346.702 320.098 361.307 318.617 375.598C318.198 379.578 317.839 383.858 319.814 387.33C322.043 391.25 326.592 393.091 330.827 394.587C356.055 403.431 382.361 409.252 406.841 420.026C428.164 429.364 452.091 444.388 463.373 465.652C463.807 466.475 464.196 467.238 464.54 468.016Z" fill="#68E1FD"/>
<path d="M301.647 88.7666V269.083L440.119 334.027L445.042 103.671L301.647 88.7666Z" fill="white"/>
<path opacity="0.23" d="M404.343 230.581C404.39 230.206 404.294 229.826 404.073 229.519C403.938 229.398 403.779 229.306 403.606 229.249C403.434 229.193 403.251 229.172 403.071 229.19C401.857 229.177 400.662 229.49 399.609 230.095C398.557 230.701 397.686 231.576 397.085 232.631C399.06 234.128 400.766 236.327 400.407 238.752C400.048 241.176 396.696 242.882 395.02 241.101C394.108 240.113 393.958 238.467 392.806 237.794C392.481 237.661 392.133 237.594 391.782 237.598C391.431 237.602 391.085 237.675 390.763 237.815C390.441 237.954 390.15 238.156 389.907 238.41C389.664 238.663 389.475 238.963 389.349 239.29C388.925 240.655 388.889 242.111 389.244 243.495C390.712 243.545 392.152 243.906 393.47 244.553C394.788 245.2 395.954 246.12 396.891 247.251C396.021 247.829 395.015 248.17 393.973 248.239C392.92 248.314 391.937 248.797 391.235 249.586C390.636 250.439 391.025 251.965 392.072 252.025C392.402 251.607 392.821 251.27 393.299 251.038C393.777 250.807 394.302 250.686 394.833 250.686C395.365 250.686 395.889 250.807 396.367 251.038C396.845 251.27 397.265 251.607 397.594 252.025C397.205 253.895 395.409 255.017 394.212 256.514C393.015 258.01 392.716 260.779 394.556 261.392C396.033 260.378 397.149 258.921 397.744 257.232H400.377C401.14 258.818 400.377 260.674 399.943 262.35C399.509 264.026 399.36 266.211 400.796 267.198C402.233 268.186 404.013 267.453 405.51 266.734C404.783 265.411 404.49 263.893 404.672 262.395C405.031 260.898 406.782 259.746 408.053 260.539C409.325 261.332 409.161 262.993 409.116 264.4C409.071 265.807 409.684 267.632 411.091 267.587C412.498 267.542 413.021 265.567 412.587 264.22C412.153 262.874 411.091 261.677 411.091 260.24C411.979 259.913 412.931 259.801 413.871 259.913C414.81 260.026 415.709 260.359 416.495 260.886C417.28 261.413 417.93 262.119 418.39 262.946C418.85 263.773 419.107 264.697 419.141 265.642C420.033 264.725 420.579 263.529 420.688 262.255C420.797 260.981 420.462 259.709 419.74 258.654C419.29 258.153 418.916 257.588 418.633 256.978C418.499 256.251 418.655 255.5 419.065 254.886C419.476 254.271 420.11 253.841 420.832 253.686C422.298 253.448 423.8 253.602 425.187 254.135C425.83 252.638 424.453 250.992 422.897 250.678C421.309 250.52 419.71 250.838 418.303 251.591C418.303 250.094 420.039 249.256 421.371 248.508C422.703 247.76 423.945 245.874 422.792 244.872C421.64 243.869 419.904 245.396 419.231 246.817C418.558 248.239 417.376 250.019 415.894 249.481C414.398 248.658 415.311 246.264 416.613 245.096C417.914 243.929 419.605 242.328 418.797 240.757C418.139 239.919 416.762 240.517 416.029 241.295C415.296 242.074 414.458 243.076 413.395 242.882C412.333 242.687 411.899 241.146 412.303 240.083C412.851 239.069 413.558 238.15 414.398 237.36C414.811 236.957 415.098 236.443 415.226 235.88C415.353 235.317 415.315 234.729 415.116 234.188C414.785 233.924 414.401 233.733 413.99 233.629C413.579 233.525 413.151 233.509 412.734 233.583C412.317 233.656 411.92 233.817 411.569 234.056C411.219 234.294 410.923 234.604 410.702 234.966C410.36 236.073 410.095 237.203 409.909 238.348C409.52 239.455 408.038 240.353 407.245 239.5C406.662 238.886 406.826 236.612 406.782 235.938C406.258 236.612 405.42 237.21 404.971 237.749C403.759 236.133 404.343 232.901 404.343 230.581Z" fill="#68E1FD"/>
<path opacity="0.46" d="M410.702 153.905C410.731 153.643 410.667 153.378 410.522 153.157C410.41 153.079 410.284 153.024 410.15 152.996C410.016 152.967 409.878 152.966 409.744 152.993C408.904 152.99 408.077 153.21 407.349 153.631C406.621 154.051 406.017 154.657 405.6 155.387C406.328 155.83 406.926 156.458 407.333 157.207C407.741 157.956 407.943 158.799 407.919 159.652C407.679 161.342 405.33 162.54 404.163 161.298C403.52 160.609 403.43 159.457 402.667 158.993C402.439 158.9 402.195 158.853 401.949 158.856C401.704 158.859 401.461 158.912 401.236 159.011C401.011 159.11 400.808 159.254 400.64 159.434C400.472 159.613 400.342 159.825 400.258 160.056C399.968 161.032 399.968 162.072 400.258 163.048C401.28 163.085 402.283 163.337 403.201 163.788C404.119 164.239 404.931 164.88 405.585 165.667C404.973 166.072 404.266 166.309 403.535 166.355C402.803 166.413 402.122 166.751 401.634 167.298C401.215 167.897 401.485 168.944 402.218 169.004C402.446 168.712 402.738 168.475 403.071 168.313C403.404 168.15 403.77 168.066 404.141 168.066C404.511 168.066 404.877 168.15 405.21 168.313C405.544 168.475 405.835 168.712 406.063 169.004C405.794 170.306 404.567 171.129 403.714 172.161C402.861 173.194 402.697 175.154 403.954 175.558C404.979 174.854 405.754 173.843 406.168 172.67H408.009C408.333 173.855 408.227 175.117 407.709 176.232C407.365 177.414 407.29 178.91 408.293 179.614C408.821 179.845 409.401 179.937 409.975 179.879C410.549 179.822 411.098 179.617 411.57 179.284C411.075 178.37 410.877 177.324 411.001 176.292C411.241 175.274 412.498 174.451 413.351 175.005C414.203 175.558 414.114 176.711 414.099 177.683C414.084 178.656 414.488 179.943 415.475 179.913C416.463 179.883 416.807 178.506 416.478 177.564C415.975 176.705 415.616 175.77 415.416 174.795C416.033 174.554 416.7 174.466 417.359 174.537C418.018 174.609 418.65 174.84 419.201 175.209C419.753 175.577 420.206 176.074 420.524 176.656C420.842 177.238 421.014 177.888 421.027 178.551C421.649 177.914 422.03 177.081 422.107 176.194C422.183 175.308 421.95 174.422 421.446 173.688C421.133 173.338 420.871 172.945 420.668 172.521C420.573 172.02 420.677 171.502 420.955 171.075C421.234 170.648 421.667 170.346 422.164 170.231C423.171 170.058 424.207 170.167 425.157 170.545C425.606 169.528 424.648 168.346 423.571 168.121C422.463 168.022 421.351 168.246 420.368 168.765C420.368 167.702 421.565 167.134 422.508 166.625C423.451 166.116 424.304 164.784 423.496 164.081C422.688 163.378 421.491 164.44 421.012 165.428C420.533 166.415 419.71 167.672 418.693 167.298C417.675 166.924 418.288 165.054 419.186 164.305C420.084 163.557 421.251 162.375 420.683 161.313C420.219 160.729 419.186 161.148 418.752 161.687C418.318 162.225 417.66 162.929 416.912 162.794C416.164 162.659 415.849 161.597 416.149 160.849C416.549 160.144 417.054 159.503 417.645 158.948C417.871 158.794 418.055 158.585 418.181 158.342C418.307 158.099 418.371 157.829 418.367 157.555C418.364 157.281 418.292 157.013 418.16 156.773C418.027 156.534 417.837 156.331 417.607 156.182C417.377 156.034 417.114 155.944 416.841 155.922C416.568 155.9 416.294 155.946 416.043 156.055C415.792 156.164 415.572 156.334 415.403 156.549C415.233 156.764 415.119 157.018 415.071 157.287C414.832 158.062 414.647 158.852 414.518 159.652C414.248 160.415 413.216 161.043 412.662 160.445C412.109 159.846 412.378 158.439 412.333 157.961C411.974 158.424 411.39 158.843 411.076 159.233C410.313 157.781 410.702 155.521 410.702 153.905Z" fill="#68E1FD"/>
<path opacity="0.46" d="M350.115 106.199C350.141 105.942 350.078 105.683 349.935 105.466C349.837 105.382 349.723 105.318 349.599 105.279C349.476 105.241 349.346 105.228 349.217 105.242C348.376 105.239 347.55 105.459 346.821 105.88C346.093 106.3 345.49 106.906 345.072 107.636C345.802 108.077 346.402 108.704 346.81 109.454C347.218 110.203 347.418 111.048 347.391 111.901C347.152 113.577 344.803 114.774 343.636 113.532C342.992 112.858 342.902 111.706 342.139 111.227C341.91 111.139 341.666 111.096 341.421 111.102C341.175 111.108 340.934 111.163 340.71 111.263C340.486 111.363 340.284 111.507 340.115 111.686C339.947 111.865 339.816 112.075 339.73 112.305C339.424 113.275 339.398 114.313 339.655 115.298C340.677 115.331 341.679 115.581 342.597 116.029C343.515 116.478 344.328 117.116 344.982 117.901C344.381 118.317 343.677 118.56 342.947 118.605C342.218 118.657 341.536 118.989 341.047 119.532C340.628 120.131 340.897 121.193 341.63 121.238C341.86 120.949 342.152 120.715 342.485 120.554C342.818 120.393 343.183 120.309 343.553 120.309C343.923 120.309 344.288 120.393 344.621 120.554C344.954 120.715 345.246 120.949 345.476 121.238C345.207 122.555 343.98 123.363 343.127 124.411C342.274 125.458 342.109 127.404 343.366 127.808C344.389 127.094 345.163 126.079 345.581 124.905H347.421C347.746 126.095 347.64 127.361 347.122 128.481C346.778 129.648 346.703 131.16 347.706 131.848C348.233 132.079 348.811 132.171 349.385 132.116C349.958 132.061 350.508 131.861 350.983 131.534C350.492 130.618 350.293 129.573 350.414 128.541C350.653 127.523 351.91 126.7 352.763 127.254C353.616 127.808 353.526 128.975 353.511 129.947C353.496 130.92 353.9 132.192 354.888 132.177C355.876 132.162 356.22 130.681 355.891 129.813C355.383 128.956 355.024 128.021 354.828 127.044C355.446 126.807 356.112 126.721 356.77 126.795C357.427 126.868 358.058 127.099 358.608 127.467C359.158 127.835 359.611 128.33 359.93 128.91C360.249 129.49 360.424 130.139 360.439 130.8C361.061 130.163 361.443 129.331 361.519 128.444C361.596 127.557 361.362 126.671 360.858 125.937C360.545 125.592 360.283 125.204 360.08 124.785C359.986 124.282 360.088 123.762 360.367 123.333C360.646 122.904 361.079 122.599 361.577 122.48C362.585 122.324 363.616 122.432 364.569 122.795C365.018 121.777 364.061 120.595 362.983 120.385C361.875 120.271 360.759 120.495 359.781 121.029C359.781 119.966 360.978 119.398 361.921 118.874C362.864 118.35 363.716 117.048 362.908 116.345C362.1 115.642 360.903 116.704 360.424 117.692C359.946 118.68 359.123 119.936 358.105 119.547C357.088 119.158 357.701 117.303 358.599 116.555C359.497 115.806 360.664 114.624 360.095 113.562C359.631 112.978 358.599 113.397 358.165 113.936C357.731 114.475 357.058 115.178 356.324 115.043C355.591 114.909 355.262 113.831 355.561 113.083C355.962 112.383 356.467 111.747 357.058 111.197C357.34 110.912 357.538 110.554 357.628 110.163C357.718 109.771 357.696 109.363 357.566 108.983C357.336 108.797 357.068 108.662 356.781 108.588C356.494 108.514 356.195 108.502 355.903 108.553C355.611 108.604 355.334 108.717 355.089 108.884C354.844 109.051 354.638 109.268 354.484 109.522C354.245 110.296 354.06 111.086 353.93 111.886C353.661 112.649 352.629 113.277 352.075 112.694C351.521 112.11 351.791 110.674 351.746 110.195C351.387 110.674 350.803 111.093 350.489 111.467C349.726 110.075 350.115 107.816 350.115 106.199Z" fill="#68E1FD"/>
<path opacity="0.25" d="M353.077 232.422C353.401 232.164 353.62 231.797 353.691 231.389C353.677 231.184 353.62 230.983 353.525 230.8C353.43 230.617 353.298 230.456 353.137 230.327C352.184 229.382 350.999 228.707 349.701 228.368C348.403 228.029 347.038 228.039 345.745 228.396C346.179 231.09 345.745 234.217 343.59 235.878C341.436 237.539 337.411 236.253 337.485 233.529C337.485 232.033 338.697 230.611 338.308 229.175C337.982 228.457 337.385 227.897 336.648 227.617C335.911 227.337 335.094 227.359 334.373 227.678C332.963 228.421 331.791 229.547 330.991 230.925C332.122 232.114 332.986 233.529 333.528 235.077C334.07 236.625 334.276 238.27 334.134 239.904C332.987 239.688 331.918 239.172 331.036 238.407C330.142 237.637 328.981 237.25 327.804 237.33C326.667 237.554 325.799 239.051 326.562 239.919C327.15 239.848 327.746 239.91 328.306 240.102C328.866 240.293 329.375 240.608 329.797 241.024C330.218 241.44 330.54 241.945 330.739 242.502C330.938 243.06 331.009 243.655 330.946 244.243C329.166 245.426 326.831 244.962 324.707 245.216C322.582 245.47 320.218 247.446 321.175 249.346C323.138 249.691 325.159 249.408 326.951 248.538L329.016 250.633C328.373 252.474 326.368 253.401 324.662 254.359C322.956 255.317 321.19 256.948 321.549 258.848C321.908 260.749 323.914 261.557 325.649 262.155C326.104 260.537 327.064 259.106 328.388 258.07C329.884 257.172 332.128 257.606 332.518 259.237C332.907 260.868 331.47 262.051 330.348 263.128C329.226 264.205 328.283 266.121 329.42 267.198C330.557 268.276 332.533 267.093 333.191 265.702C333.849 264.31 333.999 262.5 335.091 261.362C336.067 261.777 336.928 262.423 337.6 263.244C338.271 264.065 338.734 265.036 338.947 266.075C339.16 267.114 339.118 268.19 338.825 269.209C338.531 270.228 337.994 271.161 337.261 271.927C338.692 271.908 340.073 271.391 341.165 270.466C342.257 269.54 342.993 268.263 343.246 266.854C343.279 266.109 343.42 265.373 343.665 264.669C344.128 263.987 344.838 263.512 345.646 263.344C346.453 263.177 347.294 263.33 347.99 263.771C349.341 264.723 350.411 266.02 351.087 267.527C352.733 266.884 352.973 264.535 351.985 263.038C350.844 261.674 349.323 260.679 347.616 260.18C348.798 258.953 350.818 259.671 352.464 260.18C354.11 260.689 356.564 260.18 356.429 258.399C356.294 256.619 353.736 256.559 352.09 257.157C350.444 257.756 348.109 258.25 347.361 256.664C346.763 254.808 349.411 253.671 351.357 253.746C353.302 253.82 355.846 253.865 356.474 252.01C356.609 250.828 354.978 250.229 353.855 250.274C352.733 250.319 351.222 250.453 350.534 249.481C349.845 248.508 350.683 246.907 351.85 246.398C353.079 246.035 354.355 245.859 355.636 245.874C356.267 245.863 356.882 245.675 357.411 245.331C357.941 244.987 358.362 244.501 358.629 243.929C358.577 243.459 358.425 243.006 358.183 242.6C357.941 242.195 357.614 241.846 357.226 241.577C356.837 241.309 356.394 241.128 355.929 241.045C355.464 240.963 354.986 240.982 354.529 241.101C353.287 241.49 352.419 242.597 351.252 243.166C350.085 243.735 348.259 243.286 348.259 241.984C348.259 241.041 350.189 239.38 350.683 238.796C349.74 238.931 348.618 238.796 347.825 238.796C348.289 236.402 351.252 234.262 353.077 232.422Z" fill="#68E1FD"/>
<path opacity="0.39" d="M342.617 162.12C342.617 162.12 312.481 231.479 332.981 283.778L308.74 272.405C308.74 272.405 320.112 188.607 309.773 168.39L320.322 202.284L329.3 146.229L325.649 194.637C325.649 194.637 334.537 170.425 342.617 162.12Z" fill="#68E1FD"/>
<path opacity="0.23" d="M377.154 126.791C378.785 127.689 380.82 127.808 382.286 128.976C385.982 131.968 383.229 138.448 386.102 142.189C387.314 143.685 389.274 144.493 390.801 145.735C392.383 147.063 393.432 148.917 393.756 150.957C394.081 152.996 393.658 155.085 392.566 156.838C391.474 158.59 389.786 159.89 387.812 160.498C385.838 161.106 383.711 160.981 381.823 160.146C378.216 158.485 374.67 154.28 371.228 156.24C369.852 157.033 369.104 158.649 367.742 159.457C365.662 160.729 363.028 159.742 360.679 159.113C356.764 158.118 352.655 158.189 348.777 159.318C344.898 160.447 341.393 162.592 338.623 165.533L331.905 166.311L331.291 173.045C329.49 171.606 327.296 170.746 324.997 170.575C322.699 170.404 320.402 170.931 318.408 172.087L309.818 168.391C310.24 170.509 309.918 172.708 308.907 174.616C307.895 176.525 306.257 178.026 304.267 178.866C302.223 179.598 299.994 179.638 297.926 178.978C295.857 178.318 294.063 176.995 292.82 175.215C290.7 146.15 291.005 116.958 293.733 87.9442C305.12 86.5226 320.577 84.3977 331.71 88.0639C339.356 90.5929 341.317 95.6507 346.359 101.113C353.138 108.475 359.557 105.946 366.829 110.315C372.919 114.086 370.974 123.409 377.154 126.791Z" fill="#68E1FD"/>
<path d="M342.004 460.624C331.645 459.303 321.217 458.593 310.775 458.499C284.933 458.499 259.615 463.512 234.342 469.258C230.511 467.418 226.591 465.502 222.67 463.542C206.914 455.656 191.352 447.082 183.631 440.497C164.642 424.366 173.156 399.556 173.156 399.556L222.7 402.803L269.595 405.885C269.595 405.885 308.919 412.036 319.364 423.423C325.14 429.723 335.001 446.288 342.004 460.624Z" fill="#080608"/>
<path d="M270.479 295.63L265.99 270.61C265.483 267.166 264.646 263.778 263.491 260.494C260.743 254.026 256.153 248.51 250.293 244.632C244.455 240.789 238.175 237.664 231.589 235.325C222.94 231.958 212.136 236.178 203.054 238.168C195.003 239.934 186.594 241.849 180.145 246.892C173.336 252.174 169.326 260.36 167.156 268.71C164.987 277.059 164.448 285.709 163.266 294.253C161.663 305.718 158.896 316.989 155.006 327.892C153.794 331.244 152.477 334.716 152.776 338.262C153.076 341.809 155.036 345.131 156.936 348.229L170.403 370.121C163.326 378.516 164.687 392.657 173.216 399.555C180.219 405.212 189.916 405.705 198.894 405.96L259.526 407.651C263.012 407.756 266.738 407.785 269.656 405.87C274.145 402.877 274.878 396.577 274.699 391.145C274.425 382.645 273.174 374.205 270.973 365.991C270.434 363.941 269.82 361.726 270.614 359.751C271.476 358.164 272.714 356.812 274.22 355.815C278.599 352.14 282.064 347.498 284.344 342.255C286.624 337.013 287.656 331.312 287.358 325.603C286.609 314.215 280.1 301.75 270.479 295.63Z" fill="#68E1FD"/>
<path d="M198.236 306.449C200.476 294.644 199.751 282.469 196.126 271.014C197.056 280.961 197.281 290.962 196.799 300.942C196.575 305.536 196.141 310.324 193.807 314.29C192.648 310.617 190.765 307.213 188.27 304.279C188.73 307.98 188.502 311.734 187.597 315.352C187.123 317.156 186.258 318.834 185.063 320.267C183.868 321.7 182.373 322.852 180.684 323.642C182.18 325.752 184.858 326.53 187.223 327.563C189.587 328.595 192.071 330.436 192.071 333.025C192.071 334.237 191.502 335.524 192.071 336.601C193.073 338.546 196.006 337.484 197.772 336.197C201.483 333.504 218.855 324.361 215.728 318.854C212.601 313.347 201.124 320.994 197.293 322.011C195.288 317.312 197.338 311.177 198.236 306.449Z" fill="url(#paint2_linear)"/>
<path d="M197.652 371.258L172.215 370.001C171.614 369.929 171.005 369.996 170.434 370.195C168.534 371.063 169.117 374.101 167.681 375.597C178.155 374.879 188.255 378.426 198.071 381.957C201.274 383.109 205.029 384.232 207.932 382.436C208.854 381.665 209.858 380.998 210.925 380.446C212.601 380.119 214.339 380.44 215.788 381.344C224.817 385.622 233.617 390.367 242.154 395.559C242.647 395.969 243.225 396.264 243.846 396.422C244.467 396.579 245.116 396.597 245.745 396.472C246.433 396.134 247.017 395.617 247.436 394.976L254.588 385.878C254.826 385.611 255 385.294 255.097 384.95C255.217 384.232 254.648 383.603 254.139 383.109C247.031 376.243 240.579 368.728 234.867 360.663C230.198 354.049 225.155 346.462 217.195 344.921C212.062 343.933 200.481 346.642 197.637 351.685C196.8 353.047 198.954 371.318 197.652 371.258Z" fill="url(#paint3_linear)"/>
<path d="M271.018 179.927C271.721 196.388 268.175 213.088 272.125 229.04L263.147 229.892C262.968 231.454 262.968 233.03 263.147 234.591C257.99 234.861 252.828 234.925 247.66 234.786C249.785 234.786 253.436 215.512 253.87 213.312C255.366 205.83 256.324 198.243 257.656 190.717C258.838 184.073 259.631 174.735 263.222 168.884C268.579 160.25 270.883 176.62 271.018 179.927Z" fill="#32406A"/>
<path d="M267.202 202.733C268.01 204.499 269.147 206.279 268.937 208.21C268.548 211.621 264.448 213.028 262.039 215.452C257.894 219.552 258.538 226.795 254.558 231.09C253.373 232.253 251.97 233.169 250.429 233.786C248.887 234.402 247.239 234.706 245.58 234.681C242.241 234.6 238.929 234.067 235.734 233.095C233.04 235.28 233.25 239.365 233.758 242.792C234.267 246.218 234.641 250.274 232.083 252.608C229.165 255.287 224.406 253.88 221.144 251.635C215.249 247.565 211.119 241.37 208.276 234.801C205.662 228.144 203.532 221.308 201.901 214.345C198.774 202.733 195.063 190.208 199.492 179.03C202.859 170.515 210.7 164.23 219.379 161.297C228.057 158.364 237.529 158.454 246.582 159.965C253.331 161.088 265.197 164.275 266.902 172.191C269.087 182.337 262.533 192.617 267.202 202.733Z" fill="#FDC0AD"/>
<path d="M235.838 186.003C234.167 185.951 232.519 186.405 231.11 187.305C230.383 188.026 229.835 188.907 229.509 189.878C223.024 205.453 221.554 222.661 225.304 239.11C221.304 237.921 217.446 236.301 213.797 234.277C214.725 236.043 211.927 237.689 210.056 237C208.186 236.312 206.914 234.516 205.088 233.723C203.961 233.311 202.783 233.054 201.587 232.96C196.012 232.149 190.826 229.629 186.743 225.747C185.726 215.691 179.965 206.773 177.406 196.986C176.076 191.399 175.438 185.67 175.506 179.927C175.298 175.7 175.768 171.466 176.897 167.387C178.543 162.21 181.925 157.781 185.262 153.486C187.317 150.565 189.769 147.946 192.549 145.705C195.582 143.628 198.994 142.169 202.59 141.41C214.74 138.417 227.593 140.048 239.669 143.325C247.3 145.39 254.947 148.248 260.902 153.441C266.858 158.633 270.883 166.624 269.626 174.391C268.054 170.143 264.917 166.657 260.857 164.649C255.141 162.195 256.443 167.298 254.872 171.293C253.299 175.219 250.705 178.654 247.358 181.24C244.012 183.826 240.034 185.471 235.838 186.003Z" fill="#32406A"/>
<path d="M284.979 71.7676V288.028L460.5 370.33L467.024 86.7616L284.979 71.7676ZM440.119 334.058L301.648 269.114V88.7667L445.042 103.731L440.119 334.058Z" fill="#68E1FD"/>
<path d="M284.979 71.7676V288.028L460.5 370.33L467.024 86.7616L284.979 71.7676ZM440.119 334.058L301.648 269.114V88.7667L445.042 103.731L440.119 334.058Z" fill="url(#paint4_linear)"/>
<path d="M278.41 296.318C268.505 299.929 259.082 304.743 250.353 310.654C243.151 302.903 233.474 297.902 222.985 296.513L221.653 299.76C220.699 299.49 219.832 298.974 219.139 298.264C217.417 300.355 215.913 302.616 214.65 305.012C220.152 311.211 224.16 318.587 226.367 326.576C226.722 328.37 227.358 330.097 228.252 331.693C228.715 332.485 229.391 333.131 230.204 333.557C231.016 333.983 231.931 334.172 232.846 334.103C233.693 333.913 234.495 333.562 235.21 333.07C245.894 326.755 256.777 320.77 267.86 315.113C272.349 312.824 280.519 310.624 283.901 306.943C284.588 306.303 285.042 305.452 285.191 304.525C285.34 303.598 285.176 302.648 284.724 301.825C282.884 298.503 280.744 300.838 277.991 301.72C278.065 300.014 278.245 298.144 278.41 296.318Z" fill="white"/>
<path d="M211.523 303.097C208.423 323.248 206.777 343.597 206.6 363.985C206.417 365.548 206.759 367.128 207.572 368.475C208.675 369.573 210.092 370.3 211.627 370.555C227.483 374.849 242.488 381.823 255.994 391.175C260.248 381.658 267.725 373.947 277.107 369.402C278.686 368.83 280.106 367.891 281.252 366.664C282.129 365.294 282.644 363.723 282.749 362.1C285.592 341.958 288.43 321.812 291.263 301.66C291.263 302.214 270.718 309.337 268.533 310.519C263.057 313.512 254.154 322.864 247.585 322.49C242.123 322.131 239.654 315.876 235.509 312.793C228.686 307.631 219.708 304.563 211.523 303.097Z" fill="#F05E5F"/>
<path d="M208.067 322.461C209.369 323.269 208.172 325.454 208.726 326.845C208.968 327.348 209.346 327.773 209.818 328.072C212.616 330.063 216.372 329.838 219.619 330.916C220.816 331.305 222.163 332.412 221.744 333.549C221.568 333.872 221.326 334.154 221.035 334.378C220.744 334.602 220.41 334.763 220.053 334.851L215.773 336.572H221.025C221.819 336.572 222.836 336.767 222.971 337.53C223.105 338.293 222.372 338.742 221.744 339.026C219.963 339.954 218.123 340.807 216.267 341.585C217.677 341.42 219.098 341.36 220.517 341.405C221.295 341.405 222.327 341.72 222.327 342.513C222.327 343.306 221.669 343.485 221.115 343.725L210.012 348.468C204.835 350.683 199.538 352.958 193.987 353.556C193.586 353.656 193.166 353.64 192.774 353.511C192.318 353.214 191.984 352.763 191.832 352.239C190.648 349.283 190.024 346.132 189.991 342.947C189.935 342.357 190.054 341.763 190.335 341.241C190.7 340.806 191.161 340.462 191.682 340.238C193.679 339.122 195.322 337.468 196.426 335.465C197.922 332.726 198.491 329.614 200.511 327.13C202.531 324.646 205.299 323.583 208.067 322.461Z" fill="#FDC0AD"/>
<path d="M278.544 325.917C277.706 326.127 276.674 326.74 276.928 327.563C277.078 328.042 277.617 328.282 278.081 328.446L283.946 330.616C281.738 330.442 279.516 330.702 277.407 331.379C277.078 331.484 276.704 331.664 276.689 331.993C276.674 332.322 277.018 332.576 277.332 332.726L283.213 335.599C281.468 335.492 279.728 335.87 278.185 336.691C277.856 336.871 277.497 337.14 277.497 337.514C277.497 337.889 277.796 338.113 278.081 338.308C279.233 339.114 280.479 339.778 281.791 340.283C281.106 340.189 280.408 340.282 279.771 340.552C279.62 340.628 279.484 340.734 279.374 340.862C279.263 340.991 279.179 341.14 279.126 341.302C279.073 341.463 279.053 341.633 279.066 341.803C279.079 341.972 279.126 342.137 279.203 342.288C279.351 342.487 279.546 342.647 279.771 342.752L284.635 345.745C284.88 345.95 285.171 346.095 285.483 346.168C285.794 346.24 286.119 346.239 286.43 346.164C287.118 345.894 287.283 345.011 287.358 344.278C287.448 343.141 287.522 342.004 287.567 340.866C287.559 339.924 287.665 338.985 287.882 338.068C288.241 337.105 288.65 336.161 289.109 335.24C290.156 332.666 289.947 328.341 287.777 326.261C285.607 324.181 281.058 325.289 278.544 325.917Z" fill="#FDC0AD"/>
<path d="M364.719 95.3213V301.586L376.001 309.262V95.3213H364.719Z" fill="#68E1FD"/>
<path d="M442.408 213.418L301.647 179.898V166.386L442.723 199.995L442.408 213.418Z" fill="#68E1FD"/>
<path d="M442.723 199.995L442.408 213.418L376.001 197.601V309.262L364.718 301.586V194.922L301.647 179.898V166.386L364.718 181.41V95.3213H376.001V184.088L442.723 199.995Z" fill="url(#paint5_linear)"/>
<path d="M190.71 478.984C184.994 480.122 179.263 481.169 173.517 482.067C160.445 484.15 147.219 485.121 133.983 484.97C99.3129 464.963 54.677 436.95 49.7839 422.465C41.9132 399.45 54.9164 385.698 63.8047 375.134C64.874 387.681 70.7304 399.335 80.1597 407.681C98.8939 424.575 165.017 463.916 190.71 478.984Z" fill="url(#paint6_linear)"/>
<path opacity="0.23" d="M342.617 93.0312L301.647 166.385L322.132 171.263L363.985 104L364.718 95.3208L342.617 93.0312Z" fill="#68E1FD"/>
<path opacity="0.23" d="M421.445 101.217L376.001 185.285L396.486 190.163L444.668 111.916L445.401 103.252L421.445 101.217Z" fill="#68E1FD"/>
<path opacity="0.23" d="M429.795 208.883L376.001 305.132L396.486 310.01L442.214 235.743L442.409 213.417L429.795 208.883Z" fill="#68E1FD"/>
<path opacity="0.23" d="M351.925 191.884L301.647 269.083L319.993 277.867L364.539 215.527L364.718 194.921L351.925 191.884Z" fill="#68E1FD"/>
<path opacity="0.36" d="M341.496 239.665C341.151 239.53 340.987 239.156 340.777 238.872C340.423 238.463 339.93 238.201 339.393 238.137C338.856 238.074 338.314 238.213 337.875 238.527C337.455 238.867 337.141 239.319 336.969 239.83C336.796 240.341 336.773 240.891 336.902 241.415C337.051 241.821 337.051 242.267 336.902 242.672C336.773 242.863 336.598 243.018 336.393 243.121C335.809 243.446 335.186 243.693 334.538 243.855C333.974 243.916 333.448 244.163 333.041 244.558C332.822 245.027 332.699 245.536 332.682 246.054C332.605 246.441 332.439 246.804 332.198 247.116C331.956 247.428 331.646 247.679 331.291 247.85C330.842 248.074 330.288 248.164 329.959 248.553C329.768 248.808 329.663 249.117 329.66 249.436C329.658 250.188 329.754 250.938 329.944 251.666C330.035 252.029 330.049 252.407 329.985 252.776C329.92 253.144 329.779 253.495 329.57 253.806C329.241 254.195 328.702 254.629 328.941 255.078C329.032 255.208 329.156 255.311 329.3 255.377C330.271 255.944 331.335 256.335 332.443 256.529C332.862 256.529 333.356 256.709 333.535 257.098C333.603 257.373 333.603 257.661 333.535 257.936C333.518 258.34 333.595 258.743 333.761 259.112C333.928 259.481 334.178 259.806 334.493 260.061C334.634 260.179 334.804 260.257 334.987 260.285C335.675 260.375 336.064 259.312 336.752 259.282C337.032 259.298 337.299 259.403 337.515 259.582C338.375 260.089 339.135 260.748 339.76 261.527C340.089 261.991 340.358 262.545 340.897 262.709C341.371 262.784 341.855 262.683 342.259 262.425C343.022 262.036 343.905 261.512 343.95 260.659C343.919 260.486 343.919 260.309 343.95 260.135C344.025 260.003 344.143 259.901 344.285 259.847C344.427 259.792 344.583 259.789 344.728 259.836C345.011 259.934 345.264 260.104 345.461 260.33C346.03 260.12 346.089 259.327 345.85 258.834C345.524 258.352 345.224 257.852 344.952 257.337C344.85 256.936 344.848 256.516 344.947 256.114C345.047 255.712 345.244 255.34 345.521 255.033C346.083 254.418 346.752 253.911 347.496 253.536C347.806 253.392 348.078 253.176 348.289 252.908C348.451 252.578 348.515 252.208 348.476 251.843C348.436 251.477 348.293 251.131 348.065 250.843C347.594 250.276 347.234 249.627 347.002 248.927C346.948 248.69 346.98 248.441 347.092 248.224C347.212 248.064 347.365 247.931 347.541 247.835L349.187 246.787C349.287 246.736 349.366 246.651 349.411 246.548C349.453 246.442 349.453 246.325 349.411 246.219C348.753 245.067 347.062 244.423 347.092 243.091C347.092 242.298 347.75 241.371 347.182 240.817C346.644 240.458 346.066 240.162 345.461 239.934C345.087 239.71 344.743 239.216 344.354 239.051C343.291 238.438 342.603 239.949 341.496 239.665Z" fill="#68E1FD"/>
<path opacity="0.79" d="M340.912 241.4C340.647 241.299 340.355 241.29 340.084 241.374C339.813 241.458 339.577 241.63 339.416 241.864C339.071 242.283 338.892 242.806 338.578 243.255C337.545 244.752 335.346 245.231 334.313 246.772C333.945 247.342 333.762 248.011 333.789 248.689C333.815 249.366 334.051 250.019 334.463 250.558C334.662 250.839 334.962 251.032 335.301 251.096C335.542 251.059 335.77 250.963 335.966 250.817C336.161 250.671 336.318 250.479 336.423 250.259C337.066 249.316 337.515 248.253 338.144 247.266C338.433 246.77 338.819 246.339 339.279 245.997C339.74 245.655 340.265 245.409 340.822 245.275C342.184 245.051 343.68 245.814 344.877 245.141C346.374 244.333 346.658 241.31 345.177 240.382C344.83 240.215 344.444 240.151 344.062 240.196C343.68 240.241 343.32 240.394 343.022 240.637C342.049 241.355 342.004 241.953 340.912 241.4Z" fill="#68E1FD"/>
<path opacity="0.79" d="M342.588 248.403C342.131 248.593 341.724 248.884 341.398 249.255C341.071 249.626 340.833 250.067 340.702 250.543C340.656 250.872 340.554 251.191 340.403 251.486C340.014 252.1 339.146 252.115 338.413 252.129C337.058 252.173 335.717 252.415 334.433 252.848C334.225 252.888 334.029 252.971 333.856 253.092C333.683 253.213 333.538 253.37 333.43 253.551C333.37 253.724 333.351 253.909 333.374 254.091C333.397 254.272 333.463 254.446 333.565 254.599C334.537 256.245 337.156 256.005 338.383 257.457C338.683 257.879 338.958 258.319 339.206 258.774C339.334 259.001 339.515 259.195 339.734 259.338C339.953 259.482 340.203 259.57 340.463 259.597C341.211 259.597 341.72 258.833 341.959 258.1C342.255 256.877 342.356 255.614 342.258 254.359C342.599 254.532 342.986 254.595 343.364 254.539C343.742 254.483 344.093 254.31 344.368 254.045C344.694 253.673 344.934 253.233 345.072 252.758C345.73 250.708 345.805 247.102 342.588 248.403Z" fill="#68E1FD"/>
<path opacity="0.36" d="M401.095 245.994C401.099 246.893 401.387 247.767 401.918 248.493C402.24 248.891 402.42 249.387 402.427 249.899C402.347 250.218 402.216 250.521 402.038 250.797C401.804 251.283 401.695 251.819 401.721 252.358C401.747 252.896 401.908 253.419 402.188 253.88C402.666 254.643 403.489 255.242 403.684 256.124C403.717 256.483 403.798 256.835 403.923 257.172C404.086 257.386 404.291 257.564 404.525 257.695C404.759 257.826 405.018 257.908 405.285 257.935C406.377 258.267 407.554 258.171 408.577 257.666C408.864 257.405 409.215 257.224 409.594 257.142C409.793 257.162 409.983 257.23 410.15 257.339C410.317 257.449 410.455 257.597 410.552 257.77C410.751 258.117 411.003 258.431 411.3 258.698C411.648 258.894 412.038 259.002 412.437 259.012C412.933 259.087 413.438 259.087 413.934 259.012C414.363 258.903 414.758 258.69 415.085 258.392C415.412 258.094 415.661 257.719 415.809 257.302C415.957 256.885 416 256.438 415.934 256C415.868 255.562 415.695 255.148 415.43 254.793C415.081 254.383 414.684 254.016 414.248 253.7C414.111 253.62 414.001 253.5 413.934 253.356C413.754 252.967 414.098 252.563 414.263 252.174C414.443 251.511 414.363 250.804 414.039 250.199C413.705 249.601 413.544 248.922 413.575 248.238C413.694 247.49 414.308 246.922 414.592 246.218C414.629 246.122 414.629 246.015 414.592 245.919C414.558 245.861 414.51 245.811 414.453 245.775C414.395 245.739 414.33 245.716 414.263 245.709C413.33 245.47 412.379 245.305 411.42 245.216C411.18 245.219 410.949 245.127 410.777 244.961C410.706 244.86 410.664 244.741 410.657 244.617C410.537 243.525 411.21 242.343 409.894 241.744C409.498 241.566 409.07 241.475 408.637 241.475C408.203 241.475 407.775 241.566 407.38 241.744C406.826 242.028 406.422 242.567 405.884 242.762C405.481 242.866 405.059 242.866 404.657 242.762C404.367 242.678 404.061 242.67 403.768 242.738C403.475 242.806 403.204 242.948 402.981 243.151C402.003 243.813 401.325 244.835 401.095 245.994Z" fill="#68E1FD"/>
<path opacity="0.36" d="M404.701 245.261C403.804 246.622 404.836 248.612 403.983 249.989C403.787 250.221 403.63 250.484 403.519 250.767C403.485 251.14 403.575 251.513 403.774 251.83L404.252 252.817C404.432 253.191 404.731 253.625 405.135 253.551C405.258 253.527 405.372 253.47 405.465 253.386C405.843 252.996 406.122 252.52 406.275 251.999C406.429 251.477 406.454 250.926 406.347 250.393C406.136 249.335 406.277 248.236 406.751 247.266C407.35 246.413 408.577 245.964 408.756 244.931C408.796 244.732 408.764 244.526 408.667 244.348C407.948 243.21 405.255 244.467 404.701 245.261Z" fill="#68E1FD"/>
</g>
<defs>
<linearGradient id="paint0_linear" x1="470.54" y1="381.434" x2="-454.009" y2="193.485" gradientUnits="userSpaceOnUse">
<stop offset="0.01"/>
<stop offset="0.13" stop-opacity="0.69"/>
<stop offset="0.25" stop-opacity="0.32"/>
<stop offset="1" stop-opacity="0"/>
</linearGradient>
<linearGradient id="paint1_linear" x1="333.535" y1="337.125" x2="127.26" y2="455.289" gradientUnits="userSpaceOnUse">
<stop offset="0.01"/>
<stop offset="0.13" stop-opacity="0.69"/>
<stop offset="1" stop-opacity="0"/>
</linearGradient>
<linearGradient id="paint2_linear" x1="6611.01" y1="16070.6" x2="4676.9" y2="15591" gradientUnits="userSpaceOnUse">
<stop offset="0.01"/>
<stop offset="0.13" stop-opacity="0.69"/>
<stop offset="1" stop-opacity="0"/>
</linearGradient>
<linearGradient id="paint3_linear" x1="14558.2" y1="11330" x2="14255.5" y2="15013.8" gradientUnits="userSpaceOnUse">
<stop offset="0.01"/>
<stop offset="0.13" stop-opacity="0.69"/>
<stop offset="1" stop-opacity="0"/>
</linearGradient>
<linearGradient id="paint4_linear" x1="56593.4" y1="-32468.6" x2="31618.8" y2="59996.7" gradientUnits="userSpaceOnUse">
<stop offset="0.01"/>
<stop offset="0.13" stop-opacity="0.69"/>
<stop offset="1" stop-opacity="0"/>
</linearGradient>
<linearGradient id="paint5_linear" x1="55519.9" y1="3411.41" x2="18857.1" y2="23519.6" gradientUnits="userSpaceOnUse">
<stop offset="0.01"/>
<stop offset="0.13" stop-opacity="0.69"/>
<stop offset="1" stop-opacity="0"/>
</linearGradient>
<linearGradient id="paint6_linear" x1="6326.35" y1="42213.2" x2="13025" y2="29949.7" gradientUnits="userSpaceOnUse">
<stop offset="0.01"/>
<stop offset="0.13" stop-opacity="0.69"/>
<stop offset="1" stop-opacity="0"/>
</linearGradient>
<clipPath id="clip0">
<rect width="575" height="485" fill="white"/>
</clipPath>
</defs>
</svg>
