<svg width="671" height="517" viewBox="0 0 671 517" fill="none" xmlns="http://www.w3.org/2000/svg">
<path d="M208.171 234.013C208.33 239.851 211.216 245.212 214.101 250.3C227.143 273.356 241.798 296.071 262.02 313.198C291.762 338.344 330.706 349.202 368.332 359.356C364.969 357.72 360.925 340.389 359.425 336.641C356.517 329.19 353.791 321.649 350.996 314.152C346.588 302.295 337.363 292.755 328.275 284.032C307.803 264.335 282.958 249.763 255.772 241.509C240.339 236.772 224.313 234.248 208.171 234.013Z" fill="#FDBC68"/>
<path d="M208.171 234.013C208.33 239.851 211.216 245.212 214.101 250.3C227.143 273.356 241.798 296.071 262.02 313.198C291.762 338.344 330.706 349.202 368.332 359.356C364.969 357.72 360.925 340.389 359.425 336.641C356.517 329.19 353.791 321.649 350.996 314.152C346.588 302.295 337.363 292.755 328.275 284.032C307.803 264.335 282.958 249.763 255.772 241.509C240.339 236.772 224.313 234.248 208.171 234.013Z" fill="url(#paint0_linear)"/>
<path d="M355.358 246.915C352.291 225.472 349.133 203.756 340.499 183.835C331.864 163.913 316.891 145.855 296.579 138.404C295.988 169.146 295.389 199.872 294.784 230.583C294.443 248.346 294.147 266.428 299.328 283.441C308.28 313.244 339.272 348.225 369.15 358.084C373.694 343.75 366.151 322.057 364.038 307.202L355.358 246.915Z" fill="#FDBC68"/>
<path d="M355.358 246.915C352.291 225.472 349.133 203.756 340.499 183.835C331.864 163.913 316.891 145.855 296.579 138.404C295.988 169.146 295.389 199.872 294.784 230.583C294.443 248.346 294.147 266.428 299.328 283.441C308.28 313.244 339.272 348.225 369.15 358.084C373.694 343.75 366.151 322.057 364.038 307.202L355.358 246.915Z" fill="url(#paint1_linear)"/>
<path d="M517.428 445.424C390.622 461.688 262.134 449.195 134.282 449.558C125.035 449.558 112.356 453.397 113.833 462.529C188.199 480.088 265.292 481.473 341.68 482.745L480.711 485.017C512.521 485.539 544.33 486.085 576.026 484.267C587.864 483.609 599.974 482.541 610.608 477.339C640.554 462.688 625.717 443.448 599.906 440.2C572.482 436.861 544.557 441.949 517.428 445.424Z" fill="url(#paint2_linear)"/>
<path d="M332.364 91.4291V435.475C332.364 450.353 345.565 462.392 361.902 462.347L519.268 462.097C535.514 462.097 548.806 450.013 548.806 435.134V91.0884C548.806 76.2099 535.627 64.1708 519.268 64.1935L361.788 64.4434C345.565 64.4661 332.364 76.5506 332.364 91.4291ZM347.383 91.6563C347.383 82.5702 355.517 75.0514 365.56 75.0287H387.736V77.0731C387.803 78.5303 388.156 79.96 388.776 81.2807C389.396 82.6013 390.27 83.7869 391.348 84.7699C392.426 85.7528 393.687 86.5138 395.06 87.0094C396.432 87.5051 397.889 87.7256 399.346 87.6584L483.914 87.5221C486.864 87.6455 489.744 86.5968 491.923 84.605C494.103 82.6132 495.406 79.8402 495.547 76.8914V74.847H518.45C528.47 74.847 536.627 82.2522 536.627 91.4064V434.407C536.627 443.493 528.493 451.012 518.45 451.035L365.56 451.262C355.54 451.262 347.383 443.857 347.383 434.703V91.6563Z" fill="#FDBC68"/>
<path d="M324.957 98.4026V442.562C324.957 457.418 338.158 469.457 354.494 469.434L511.838 469.184C528.084 469.184 541.376 457.077 541.376 442.198V98.1527C541.376 83.2969 528.175 71.2351 511.838 71.2805L354.494 71.5077C338.158 71.5531 324.957 83.6376 324.957 98.4026ZM339.976 98.6524C339.976 89.5663 348.11 82.0476 358.153 82.0249H380.328V84.0692C380.47 87.0161 381.773 89.787 383.954 91.7751C386.134 93.7633 389.013 94.8068 391.962 94.6773L476.53 94.541C479.476 94.6582 482.35 93.6068 484.524 91.6156C486.699 89.6245 487.999 86.8549 488.14 83.9102V81.8658H511.043C521.063 81.8658 529.22 89.271 529.22 98.448V441.449C529.22 450.535 521.086 458.054 511.043 458.076L358.153 458.326C348.133 458.326 339.976 450.921 339.976 441.744V98.6524Z" fill="white"/>
<path d="M339.976 98.7434V441.744C339.976 450.83 348.11 458.326 358.152 458.326L511.043 458.076C521.063 458.076 529.22 450.626 529.22 441.449V98.4026C529.22 89.3165 521.086 81.7978 511.043 81.8205H488.14V83.8649C487.999 86.8096 486.699 89.5791 484.524 91.5703C482.35 93.5614 479.476 94.6129 476.53 94.4956L391.962 94.6319C389.013 94.7615 386.134 93.7179 383.954 91.7298C381.773 89.7416 380.47 86.9708 380.328 84.0239V81.9795H358.152C348.155 82.1385 339.976 89.5664 339.976 98.7434Z" stroke="url(#paint3_linear)" stroke-width="0.46" stroke-miterlimit="10"/>
<path d="M529.175 98.4025V441.403C529.175 450.489 521.041 458.031 510.998 458.031H488.572H443.653H440.29H396.37H358.108C348.088 458.031 339.931 450.626 339.931 441.449V98.448C339.931 89.3618 348.065 81.8204 358.108 81.8204H380.306V83.8648C380.37 85.3209 380.721 86.7502 381.338 88.0707C381.956 89.3911 382.828 90.5769 383.904 91.5602C384.98 92.5434 386.24 93.3047 387.611 93.8006C388.982 94.2965 390.437 94.5172 391.894 94.4501L476.462 94.3365C479.416 94.4598 482.299 93.408 484.479 91.4114C486.659 89.4147 487.959 86.6359 488.095 83.683V81.6614H510.998C521.041 81.8431 529.175 89.3164 529.175 98.4025Z" fill="#FDBC68"/>
<path d="M422.681 87.2042L451.764 87.1588V84.7964L422.681 84.8418V87.2042Z" fill="url(#paint4_linear)"/>
<path d="M415.075 88.5611C416.819 88.544 418.22 87.2387 418.205 85.6455C418.189 84.0523 416.763 82.7746 415.018 82.7917C413.274 82.8087 411.873 84.114 411.889 85.7072C411.904 87.3004 413.331 88.5781 415.075 88.5611Z" fill="url(#paint5_linear)"/>
<path d="M363.015 252.435H361.561C357.018 252.435 353.336 256.116 353.336 260.658V443.084C353.336 447.626 357.018 451.307 361.561 451.307H363.015C367.558 451.307 371.24 447.626 371.24 443.084V260.658C371.24 256.116 367.558 252.435 363.015 252.435Z" fill="#FDBC68"/>
<path d="M299.964 181.382H148.823C139.826 181.382 132.532 188.673 132.532 197.668V424.98C132.532 433.975 139.826 441.267 148.823 441.267H299.964C308.961 441.267 316.255 433.975 316.255 424.98V197.668C316.255 188.673 308.961 181.382 299.964 181.382Z" fill="#FDBC68"/>
<path d="M296.988 185.834H145.847C136.849 185.834 129.556 193.126 129.556 202.121V429.433C129.556 438.428 136.849 445.719 145.847 445.719H296.988C305.985 445.719 313.279 438.428 313.279 429.433V202.121C313.279 193.126 305.985 185.834 296.988 185.834Z" fill="url(#paint6_linear)"/>
<path d="M290.512 193.194H139.371C130.374 193.194 123.08 200.485 123.08 209.48V436.792C123.08 445.787 130.374 453.079 139.371 453.079H290.512C299.509 453.079 306.803 445.787 306.803 436.792V209.48C306.803 200.485 299.509 193.194 290.512 193.194Z" fill="white"/>
<path d="M306.803 304.317V436.86C306.797 441.182 305.076 445.325 302.017 448.378C298.958 451.432 294.812 453.147 290.489 453.147H139.371C135.05 453.147 130.907 451.431 127.852 448.377C124.796 445.323 123.08 441.18 123.08 436.86V367.397C246.115 394.701 306.803 304.317 306.803 304.317Z" fill="url(#paint7_linear)"/>
<path d="M266.95 267.654V479.247H247.66V267.654C247.669 266.843 247.768 266.036 247.956 265.246C248.167 264.459 248.464 263.698 248.842 262.975L249.16 262.384L257.317 246.938L265.792 262.975C266.164 263.697 266.454 264.459 266.655 265.246C266.854 266.033 266.953 266.842 266.95 267.654Z" fill="#FDBC68"/>
<path d="M266.95 267.654V479.247H247.66V267.654C247.669 266.843 247.768 266.036 247.956 265.246C248.167 264.459 248.464 263.698 248.842 262.975L249.16 262.384L257.317 246.938L265.792 262.975C266.164 263.697 266.454 264.459 266.655 265.246C266.854 266.033 266.953 266.842 266.95 267.654Z" fill="url(#paint8_linear)"/>
<path d="M257.271 312.494V265.156H266.632V479.247H257.271V319.99C257.271 317.9 257.271 315.811 257.271 313.721C257.157 313.197 257.194 312.652 257.38 312.149C257.565 311.646 257.89 311.206 258.316 310.881C259.299 309.99 260.54 309.433 261.86 309.291C262.762 309.308 263.658 309.146 264.496 308.814C264.873 308.549 265.193 308.211 265.438 307.821C265.684 307.431 265.85 306.997 265.927 306.543C266.16 305.745 266.283 304.92 266.291 304.09C266.318 303.961 266.313 303.828 266.278 303.701C266.242 303.575 266.177 303.458 266.087 303.363C265.941 303.256 265.767 303.193 265.587 303.181C264.405 303.02 263.201 303.16 262.088 303.59C261.295 304 260.456 304.313 259.588 304.521C259.003 304.592 258.41 304.497 257.876 304.248C257.342 303.999 256.889 303.606 256.566 303.113" fill="#FDBC68"/>
<path d="M266.655 265.246C263.916 267.169 260.651 268.201 257.305 268.201C253.958 268.201 250.694 267.169 247.955 265.246L249.159 262.384L257.316 246.938L265.791 262.975C266.164 263.697 266.453 264.459 266.655 265.246Z" fill="#FDBC68"/>
<path d="M123.08 216.181C118.688 215.918 114.299 216.753 110.311 218.612C114.297 220.479 118.686 221.322 123.08 221.065V226.994C113.56 226.994 103.972 224.404 103.972 218.635C103.972 212.865 113.56 210.276 123.08 210.276V216.181Z" fill="#FDBC68"/>
<path d="M142.143 218.612C142.143 224.382 132.578 226.971 123.08 226.971V221.065C130.646 221.065 135.327 219.293 136.258 218.294C136.351 217.55 136.723 216.87 137.299 216.39C137.875 215.91 138.612 215.667 139.36 215.711C140.109 215.754 140.813 216.08 141.329 216.623C141.846 217.166 142.137 217.885 142.143 218.635V218.612Z" fill="#FDBC68"/>
<path d="M123.08 250.004C118.688 249.741 114.299 250.576 110.311 252.435C114.299 254.294 118.688 255.129 123.08 254.866V260.794C113.56 260.794 103.972 258.205 103.972 252.435C103.972 246.665 113.56 244.076 123.08 244.076V250.004Z" fill="#FDBC68"/>
<path d="M142.143 252.435C142.143 258.205 132.578 260.794 123.08 260.794V254.866C130.646 254.866 135.327 253.094 136.258 252.094C136.351 251.351 136.723 250.67 137.299 250.19C137.875 249.71 138.612 249.468 139.36 249.511C140.109 249.554 140.813 249.881 141.329 250.424C141.846 250.967 142.137 251.686 142.143 252.435Z" fill="#FDBC68"/>
<path d="M123.08 283.805C118.686 283.545 114.296 284.388 110.311 286.258C114.299 288.117 118.688 288.952 123.08 288.689V294.617C113.56 294.617 103.972 292.028 103.972 286.258C103.972 280.488 113.56 277.854 123.08 277.854V283.805Z" fill="#FDBC68"/>
<path d="M142.143 286.258C142.143 292.028 132.578 294.617 123.08 294.617V288.688C130.646 288.688 135.327 286.917 136.258 285.917C136.351 285.173 136.723 284.493 137.299 284.013C137.875 283.533 138.612 283.29 139.36 283.334C140.109 283.377 140.813 283.703 141.329 284.246C141.846 284.789 142.137 285.508 142.143 286.258Z" fill="#FDBC68"/>
<path d="M123.08 317.628C118.686 317.368 114.296 318.211 110.311 320.081C114.299 321.94 118.688 322.775 123.08 322.512V328.44C113.56 328.44 103.972 325.851 103.972 320.081C103.972 314.311 113.56 311.722 123.08 311.722V317.628Z" fill="#FDBC68"/>
<path d="M142.143 320.081C142.143 325.851 132.578 328.441 123.08 328.441V322.512C130.646 322.512 135.327 320.74 136.258 319.741C136.351 318.997 136.723 318.316 137.299 317.836C137.875 317.357 138.612 317.114 139.36 317.157C140.109 317.201 140.813 317.527 141.329 318.07C141.846 318.613 142.137 319.332 142.143 320.081Z" fill="#FDBC68"/>
<path d="M123.08 351.451C118.686 351.191 114.296 352.034 110.311 353.904C114.303 355.751 118.689 356.586 123.08 356.335V362.264C113.56 362.264 103.972 359.674 103.972 353.904C103.972 348.135 113.56 345.522 123.08 345.522V351.451Z" fill="#FDBC68"/>
<path d="M142.143 353.904C142.143 359.674 132.578 362.263 123.08 362.263V356.335C130.646 356.335 135.327 354.563 136.258 353.541C136.351 352.795 136.725 352.113 137.304 351.634C137.882 351.154 138.621 350.913 139.371 350.959C140.122 351.005 140.826 351.336 141.341 351.883C141.856 352.43 142.143 353.153 142.143 353.904Z" fill="#FDBC68"/>
<path d="M123.08 385.274C118.686 385.014 114.296 385.857 110.311 387.727C114.303 389.574 118.689 390.409 123.08 390.158V396.087C113.56 396.087 103.972 393.497 103.972 387.727C103.972 381.958 113.56 379.345 123.08 379.345V385.274Z" fill="#FDBC68"/>
<path d="M142.143 387.727C142.143 393.497 132.578 396.086 123.08 396.086V390.158C130.646 390.158 135.327 388.386 136.258 387.364C136.351 386.618 136.725 385.936 137.304 385.457C137.882 384.977 138.621 384.736 139.371 384.782C140.122 384.828 140.826 385.159 141.341 385.706C141.856 386.253 142.143 386.976 142.143 387.727Z" fill="#FDBC68"/>
<path d="M123.08 419.097C118.686 418.837 114.296 419.68 110.311 421.551C114.303 423.397 118.689 424.232 123.08 423.981V429.91C113.56 429.91 103.972 427.32 103.972 421.551C103.972 415.781 113.56 413.169 123.08 413.169V419.097Z" fill="#FDBC68"/>
<path d="M142.143 421.55C142.143 427.32 132.578 429.91 123.08 429.91V423.981C130.646 423.981 135.327 422.209 136.258 421.187C136.351 420.442 136.725 419.759 137.304 419.28C137.882 418.8 138.621 418.559 139.371 418.605C140.122 418.652 140.826 418.982 141.341 419.529C141.856 420.076 142.143 420.799 142.143 421.55Z" fill="#FDBC68"/>
<path d="M206.376 432.545C203.219 437.61 199.606 442.377 195.584 446.787C189.381 453.252 182.779 459.321 175.816 464.959C172.385 467.912 169 470.888 165.683 474.045C162.956 476.635 159.48 478.407 158.866 482.405C158.457 484.676 158.866 487.629 157.071 489.219C156.393 489.739 155.578 490.049 154.725 490.109C153.873 490.17 153.022 489.979 152.277 489.56C150.811 488.685 149.585 487.459 148.71 485.994C148.324 485.464 148.032 484.873 147.846 484.245C147.676 483.558 147.676 482.841 147.846 482.155C148.574 478.838 151.141 476.34 153.368 473.796C155.37 471.522 157.186 469.091 158.798 466.527C160.145 464.555 161.666 462.707 163.342 461.007L176.475 446.219C181.178 440.927 186.018 435.407 188.154 428.66C188.725 425.964 189.697 423.368 191.039 420.96C194.402 416.053 202.241 415.326 207.399 417.643C213.67 420.574 208.898 428.524 206.376 432.545Z" fill="#FFBBAB"/>
<path d="M179.179 422.845C179.179 422.845 175.771 452.557 179.179 468.616C181.255 478.508 182.147 488.612 181.837 498.714C180.724 500.259 181.837 502.553 183.428 503.598C185.134 504.49 187.049 504.905 188.972 504.802L196.788 505.074C197.241 505.159 197.708 505.144 198.155 505.03C198.603 504.917 199.02 504.707 199.378 504.416C200.4 503.303 199.378 501.44 198.015 500.781C196.651 500.123 195.038 500.077 193.766 499.305C191.312 497.828 190.994 494.489 190.948 491.627L190.744 479.179C190.448 461.279 190.176 443.289 193.016 425.616C193.175 424.814 193.175 423.988 193.016 423.186C192.414 421.77 191.292 420.64 189.88 420.028C188.456 419.076 186.858 418.412 185.177 418.075C184.333 417.928 183.464 418.03 182.678 418.369C181.891 418.708 181.22 419.269 180.747 419.983" fill="#FFBBAB"/>
<path d="M220.918 312.744L225.303 315.152C227.416 316.31 229.847 318.446 232.119 317.605C235.914 316.129 239.799 312.358 243.139 309.995C246.479 307.633 250.364 304.771 253.954 302.091C254.9 301.492 255.725 300.722 256.385 299.819C257.453 298.047 257.476 295.435 259.339 294.526L260.384 299.069L266.133 296.026C266.808 295.589 267.601 295.367 268.405 295.39C269.95 295.662 270.677 297.548 270.473 299.115C270.018 304.362 264.633 306.043 260.362 307.361C259.207 307.636 258.087 308.04 257.022 308.564C256.202 309.044 255.44 309.616 254.75 310.268C250.844 313.403 247.321 316.987 244.252 320.944C242.867 322.916 241.349 324.79 239.708 326.555C238.428 328.454 236.705 330.014 234.687 331.098C233.15 331.59 231.508 331.653 229.938 331.28C224.235 330.212 218.964 326.328 214.488 322.807C213.988 322.421 213.443 321.807 213.761 321.262C213.947 321.027 214.201 320.852 214.488 320.763C216.242 320.138 217.806 319.075 219.032 317.673C219.707 317.054 220.229 316.286 220.556 315.431C220.884 314.575 221.007 313.656 220.918 312.744Z" fill="#FFBBAB"/>
<path d="M210.465 283.782C210.044 284.54 209.454 285.19 208.741 285.683C208.028 286.175 207.21 286.496 206.353 286.622C205.91 286.57 205.463 286.666 205.08 286.894C204.934 287.081 204.832 287.299 204.78 287.531C204.729 287.763 204.731 288.003 204.785 288.234L205.239 294.095C205.331 294.557 205.267 295.036 205.058 295.458C204.701 295.887 204.2 296.17 203.649 296.253C201.513 296.843 198.9 297.298 197.401 295.685C196.692 294.749 196.267 293.629 196.174 292.459C194.706 285.819 194.307 278.986 194.992 272.22C195.143 270.171 195.734 268.178 196.726 266.379C197.718 264.579 199.088 263.015 200.741 261.794C204.808 259.34 215.214 258.591 214.782 265.405C214.339 268.128 214.043 270.873 213.896 273.628C213.919 277.301 212.711 280.875 210.465 283.782Z" fill="#FFBBAB"/>
<path d="M214.987 259.908C215.42 261.097 215.42 262.4 214.987 263.588C214.644 264.125 214.195 264.588 213.668 264.947C213.14 265.306 212.546 265.555 211.92 265.678C208.853 266.518 205.558 266.291 202.559 267.245C202.066 267.371 201.618 267.63 201.264 267.995C200.996 268.425 200.847 268.919 200.832 269.426C200.15 275.357 200.334 281.356 201.378 287.235C195.851 288.872 189.958 288.801 184.473 287.03C183.592 286.864 182.786 286.426 182.167 285.779C181.547 285.131 181.146 284.306 181.019 283.419C179.744 279.249 179.352 274.859 179.868 270.53C180.385 266.2 181.798 262.026 184.019 258.273C185.024 256.303 186.533 254.635 188.393 253.438C190.253 252.241 192.397 251.558 194.607 251.458C202.014 250.391 213.056 251.14 214.987 259.908Z" fill="#FC682D"/>
<path d="M208.285 356.244C207.83 370.759 213.124 384.411 217.078 398.381C218.827 404.446 220.759 410.692 220.1 416.962C220.111 417.128 220.111 417.295 220.1 417.462C200.946 422.981 179.952 425.73 161.411 418.37C163.386 408.587 164.436 398.639 164.547 388.659C164.378 384.719 164.645 380.773 165.342 376.892C166.841 370.282 171.113 364.671 175.566 359.56C177.364 357.788 178.772 355.66 179.702 353.314C180.241 351.082 180.334 348.766 179.974 346.499C179.169 339.001 178.986 331.449 179.429 323.92C179.892 317.099 181.634 310.426 184.564 304.249C185.81 301.433 187.541 298.857 189.676 296.639C191.836 294.416 194.706 293.018 197.788 292.687C199.325 292.547 200.873 292.816 202.273 293.466C203.673 294.117 204.877 295.125 205.763 296.389C210.421 303.567 218.191 305.18 223.94 311.631C224.281 311.934 224.513 312.341 224.599 312.79C224.591 313.28 224.415 313.754 224.099 314.13C222.122 317.287 220.123 320.445 218.146 323.625C217.529 324.627 216.83 325.577 216.055 326.464C215.351 327.191 214.488 327.782 213.783 328.509C211.948 330.787 210.811 333.549 210.511 336.459C209.257 342.986 208.513 349.601 208.285 356.244Z" fill="#FDBC68"/>
<path d="M202.332 501.417L200.401 500.804C198.857 500.237 197.245 499.878 195.607 499.736C195.327 499.713 195.046 499.76 194.789 499.873C194.461 500.076 194.206 500.378 194.062 500.736C193.794 501.285 193.406 501.767 192.926 502.144C192.408 502.364 191.852 502.477 191.29 502.477C190.727 502.477 190.171 502.364 189.654 502.144C188.518 501.887 187.42 501.49 186.382 500.963C185.359 500.395 184.496 499.577 183.451 499.078C183.162 498.918 182.841 498.822 182.512 498.799C182.182 498.775 181.851 498.824 181.542 498.941C181.239 499.122 180.983 499.371 180.792 499.668C180.365 500.124 180.039 500.666 179.838 501.258C179.722 501.843 179.722 502.445 179.838 503.03C179.864 503.549 180.011 504.055 180.27 504.507C180.592 504.822 180.977 505.066 181.4 505.223C181.823 505.379 182.274 505.445 182.724 505.415L192.176 506.006C195.13 506.188 198.083 506.369 201.06 506.324C202.689 506.355 204.315 506.179 205.899 505.801C206.127 505.801 206.376 505.665 206.445 505.438C206.501 505.292 206.501 505.13 206.445 504.984C205.893 504.041 205.159 503.217 204.285 502.562C203.411 501.907 202.415 501.433 201.355 501.167" fill="#FDBC68"/>
<path d="M149.119 479.656C149.369 480.587 149.119 481.632 149.346 482.564C149.59 483.298 149.976 483.977 150.482 484.563L152.754 487.379C153.006 487.737 153.322 488.045 153.686 488.288C154.181 488.483 154.711 488.573 155.243 488.554C155.775 488.534 156.296 488.405 156.776 488.174C156.91 488.106 157.058 488.071 157.208 488.071C157.358 488.071 157.506 488.106 157.639 488.174C157.789 488.314 157.892 488.497 157.935 488.697L159.253 493.24C159.797 495.147 160.095 497.117 160.139 499.1C159.957 499.342 159.714 499.53 159.434 499.646C157.344 500.713 153.754 495.966 151.959 494.444C150.27 492.782 148.974 490.764 148.165 488.538C147.642 487.379 147.165 486.266 146.711 485.04C146.185 483.966 145.832 482.816 145.665 481.632C145.659 481.305 145.746 480.982 145.914 480.7C146.083 480.419 146.327 480.191 146.62 480.042C147.233 479.792 148.846 478.634 149.119 479.656Z" fill="#FDBC68"/>
<path d="M253.432 254.229H261.18L257.317 246.892L253.432 254.229Z" fill="url(#paint9_linear)"/>
<path d="M220.099 416.962C218.72 417.438 217.255 417.609 215.804 417.464C214.352 417.319 212.95 416.861 211.692 416.121C207.307 413.373 205.558 407.898 204.876 402.787C203.127 391.589 204.172 379.459 198.264 369.782C196.469 366.852 193.97 363.876 194.333 360.423C194.697 356.971 198.082 354.404 200.014 351.337C201.863 347.834 202.852 343.941 202.899 339.98C203.558 332.597 204.217 325.192 204.899 317.809C204.899 319.672 213.078 323.647 216.055 326.509C215.35 327.236 214.487 327.827 213.783 328.554C211.947 330.833 210.811 333.594 210.511 336.504C209.296 343.027 208.59 349.634 208.398 356.266C207.943 370.782 213.237 384.433 217.191 398.403C218.827 404.446 220.758 410.692 220.099 416.962Z" fill="url(#paint10_linear)"/>
<path d="M488.595 458.19H443.675H440.312L432.496 376.074L451.423 376.71L488.595 377.937C488.595 377.937 489.276 414.895 488.595 458.19Z" fill="#473F47"/>
<path d="M452.014 370.6L451.423 376.801L443.584 458.258H440.221H396.301C395.574 396.927 401.368 361.582 401.368 361.582L452.014 370.6Z" fill="#473F47"/>
<path d="M368.445 297.116C368.741 302.522 370.49 307.27 375.262 308.814C375.651 308.968 376.054 309.082 376.466 309.155C385.123 310.882 396.483 304.294 404.413 298.547C407.701 296.154 410.857 293.583 413.865 290.847V232.9L371.74 276.059C369.517 282.855 368.405 289.966 368.445 297.116Z" fill="white"/>
<path d="M404.049 298.297C404.049 301 403.709 303.749 403.709 306.475C403.709 321.444 407.185 336.89 402.709 351.565C401.709 354.836 400.3 358.379 401.459 361.582C402.76 364.275 404.985 366.412 407.73 367.602C420.931 374.825 436.177 377.028 451.082 379.118C462.284 380.686 478.166 384.025 488.526 377.982C492.934 375.416 494.434 370.623 495.843 365.852C500.387 350.679 501.637 334.346 502.818 318.627C502.977 316.56 503.113 314.47 503.25 312.403C504.113 298.062 504.401 283.722 504.113 269.381C503.909 258.977 503.091 247.733 496.297 239.851C487.209 229.379 469.759 222.451 456.49 220.02C452.186 219.145 447.777 218.9 443.402 219.293C437.196 220.279 431.203 222.315 425.68 225.313C419.091 228.561 413.229 231.31 409.98 237.829C406.451 245.394 403.997 253.414 402.686 261.657C401.494 269.372 401.356 277.212 402.277 284.963C402.663 288.757 403.663 292.527 404.027 296.321C404.004 296.98 404.049 297.661 404.049 298.297Z" fill="white"/>
<path opacity="0.1" d="M465.147 383.139C469.487 384.411 479.507 380.436 482.847 379.845C484.824 379.504 486.641 378.505 488.618 378.028C498.524 375.552 499.706 347.703 500.683 340.207C503.25 320.399 507.204 299.887 507.499 280.011C507.94 272.344 507.048 264.659 504.864 257.296C502.364 250.073 497.207 243.394 490.004 240.782C477.326 236.239 473.577 276.263 471.827 284.577L462.307 329.871C460.97 335.43 460.104 341.091 459.717 346.794C459.376 354.722 461.989 360.423 463.943 367.42C465.102 371.372 461.921 378.914 463.488 381.844C463.85 382.477 464.445 382.942 465.147 383.139Z" fill="#020202"/>
<path d="M434.655 207.686C436.25 209.419 438.423 210.51 440.767 210.752C442.724 210.934 444.694 210.934 446.652 210.752H447.742C448.025 210.698 448.318 210.755 448.56 210.911C448.672 211.025 448.76 211.16 448.819 211.308C448.877 211.457 448.905 211.615 448.901 211.775C449.329 215.69 449.405 219.635 449.128 223.564C449.128 224.268 449.015 224.972 448.946 225.676C448.792 226.436 448.855 227.223 449.128 227.948C449.694 228.756 450.548 229.317 451.514 229.515C453.23 230.087 455.022 230.393 456.831 230.424C460.701 230.058 464.423 228.748 467.669 226.608C467.41 219.888 467.768 213.159 468.737 206.505C469.986 197.918 472.236 189.332 471.304 180.7C471.304 178.658 470.86 176.639 470.003 174.785C469.146 172.931 467.897 171.285 466.341 169.961C464.785 168.637 462.961 167.666 460.993 167.116C459.025 166.566 456.962 166.45 454.945 166.776C448.752 166.657 442.655 168.321 437.381 171.569C436.593 172.191 435.952 172.98 435.504 173.88C435.056 174.779 434.813 175.766 434.791 176.77C434.109 180.155 433.564 183.585 433.201 186.992C432.769 190.922 432.542 194.852 432.474 198.781C432.127 201.914 432.9 205.068 434.655 207.686Z" fill="#FDBAAC"/>
<path d="M441.494 173.59C445.879 174.317 450.582 173.59 454.854 175.248C460.67 177.52 463.147 185.175 461.193 191.149C462.874 191.762 463.192 188.741 464.488 187.515C465.783 186.288 468.714 187.924 469.032 190.036C468.916 192.151 468.276 194.204 467.169 196.01C465.589 199.725 465.317 203.865 466.396 207.754C466.669 208.663 467.328 209.753 468.259 209.503C469.191 209.253 469.827 207.709 470.372 207.027C471.203 205.952 472.123 204.949 473.122 204.029C475.189 202.234 477.416 200.667 479.506 198.918C483.232 195.806 486.686 191.581 486.459 186.742C486.341 184.769 485.68 182.867 484.55 181.245C483.599 179.844 482.369 178.653 480.938 177.747C480.347 177.361 479.665 176.975 479.552 176.271C479.52 175.887 479.566 175.5 479.688 175.135C480.124 172.657 479.845 170.106 478.883 167.78C477.921 165.455 476.317 163.452 474.258 162.005C470.035 159.17 465.199 157.38 460.148 156.781C456.899 156.19 453.65 155.736 450.378 155.35C447.673 155.227 445.015 154.603 442.539 153.51C443.173 151.692 444.044 149.966 445.129 148.376C442.805 149.06 440.594 150.078 438.563 151.397C438.675 150.266 438.975 149.16 439.449 148.126C435.772 149.014 432.423 150.928 429.792 153.646C428.425 155.535 427.66 157.793 427.6 160.124C427.539 162.455 428.184 164.75 429.452 166.707C431.974 170.683 435.95 172.273 440.312 173.318L441.494 173.59Z" fill="#F86938"/>
<path d="M446.652 210.844H447.743C448.026 210.789 448.319 210.846 448.561 211.003C448.673 211.116 448.761 211.251 448.82 211.399C448.878 211.548 448.906 211.706 448.902 211.866C449.33 215.781 449.406 219.726 449.129 223.655C449.129 223.655 460.489 220.793 460.012 206.914C455.731 208.69 451.277 210.015 446.721 210.866L446.652 210.844Z" fill="#DEA095"/>
<path d="M360.584 258.477C359.799 268.044 360.683 277.675 363.197 286.939C365.061 293.527 368.572 299.53 373.399 304.385C374.265 305.227 375.327 305.838 376.49 306.164C377.653 306.489 378.879 306.518 380.056 306.248C384.386 305.455 388.359 303.326 391.417 300.16C399.165 291.596 393.893 278.421 393.893 278.421C393.893 278.421 377.852 253.185 374.285 252.162C372.354 251.572 368.446 253.525 365.197 255.411C362.72 256.955 360.584 258.477 360.584 258.477Z" fill="white"/>
<path opacity="0.1" d="M361.97 276.99C363.224 284.306 364.847 291.554 366.832 298.706C367.378 301.109 368.398 303.38 369.832 305.384C373.853 310.314 381.192 309.927 386.645 308.201C388.418 307.633 405.049 300.251 404.368 298.547V298.365L401.687 281.034C401.914 282.442 394.711 287.348 393.757 288.075C389.213 291.551 382.533 297.161 377.171 291.823C375.382 289.793 374.056 287.398 373.285 284.804C369.9 275.728 367.352 266.36 365.674 256.819C365.16 256.621 364.611 256.528 364.06 256.545C363.51 256.563 362.968 256.691 362.468 256.922C361.968 257.153 361.519 257.482 361.149 257.89C360.778 258.297 360.494 258.775 360.311 259.295C359.645 261.425 359.59 263.7 360.152 265.86C360.698 269.585 361.311 273.31 361.97 276.99Z" fill="#020202"/>
<path d="M521.972 301C525.721 311.177 529.038 321.967 527.493 332.688C525.653 345.704 516.996 356.585 508.657 366.761C502.114 367.738 493.525 367.602 491.208 361.4C490.623 359.403 490.468 357.305 490.753 355.244L491.685 341.82C492.456 335.847 492.148 329.784 490.776 323.92C488.799 317.355 484.255 311.949 480.665 306.111C474.807 296.624 471.33 285.862 470.531 274.741C469.782 264.292 477.666 230.583 493.071 240.669C499.455 244.848 505.113 262.18 508.476 269.153C513.505 279.496 518.003 290.112 521.972 301Z" fill="white"/>
<path d="M487.254 375.915C486.898 376.429 486.708 377.04 486.709 377.665C486.709 378.278 487.481 378.846 488.027 378.573C489.594 383.389 486.323 388.432 486.323 393.52C486.311 393.975 486.38 394.429 486.527 394.86C486.752 395.416 487.14 395.891 487.64 396.223C488.491 396.761 489.464 397.076 490.468 397.14C491.473 397.203 492.477 397.013 493.389 396.586C495.215 395.73 496.847 394.508 498.183 392.997C501.102 390.319 503.331 386.976 504.681 383.252C505.151 381.512 505.463 379.733 505.613 377.937L507.181 364.694C497.229 361.446 491.867 368.033 487.254 375.915Z" fill="#FDBAAC"/>
<path d="M377.829 240.555C378.204 239.698 378.337 238.756 378.215 237.829C378.137 237.374 377.884 236.967 377.511 236.696C377.138 236.424 376.673 236.309 376.216 236.375C375.671 236.511 375.307 236.989 374.83 237.261C374.26 237.557 373.613 237.672 372.975 237.591C372.338 237.51 371.74 237.236 371.263 236.807C370.305 235.949 369.532 234.906 368.991 233.74C367.203 230.603 365.238 227.569 363.106 224.654C362.669 223.915 362.009 223.335 361.22 222.996C360.75 222.896 360.265 222.89 359.793 222.98C359.321 223.07 358.871 223.253 358.471 223.518C356.554 224.698 354.96 226.335 353.83 228.281C352.7 230.227 352.07 232.423 351.995 234.672C351.899 239.193 353.235 243.63 355.812 247.347C358.367 251.053 361.365 254.432 364.742 257.41C365.497 258.278 366.494 258.902 367.605 259.204C373.921 260.249 376.648 244.189 377.829 240.555Z" fill="#FDBAAC"/>
<path opacity="0.41" d="M419 119.778H351.973V178.815H419V119.778Z" fill="white"/>
<defs>
<linearGradient id="paint0_linear" x1="368.241" y1="228.561" x2="134.855" y2="427.425" gradientUnits="userSpaceOnUse">
<stop offset="0.01"/>
<stop offset="0.13" stop-opacity="0.69"/>
<stop offset="0.25" stop-opacity="0.32"/>
<stop offset="1" stop-opacity="0"/>
</linearGradient>
<linearGradient id="paint1_linear" x1="7042.13" y1="45120" x2="26811.6" y2="38803.3" gradientUnits="userSpaceOnUse">
<stop offset="0.01"/>
<stop offset="0.13" stop-opacity="0.69"/>
<stop offset="0.25" stop-opacity="0.32"/>
<stop offset="1" stop-opacity="0"/>
</linearGradient>
<linearGradient id="paint2_linear" x1="353.064" y1="297.412" x2="416.446" y2="891.328" gradientUnits="userSpaceOnUse">
<stop offset="0.01"/>
<stop offset="0.08" stop-opacity="0.69"/>
<stop offset="0.21" stop-opacity="0.32"/>
<stop offset="1" stop-opacity="0"/>
</linearGradient>
<linearGradient id="paint3_linear" x1="605.705" y1="147.945" x2="321.916" y2="395.075" gradientUnits="userSpaceOnUse">
<stop stop-color="white"/>
<stop offset="1" stop-color="#CBCBCB"/>
</linearGradient>
<linearGradient id="paint4_linear" x1="-78711.8" y1="200.119" x2="-78711.8" y2="219.936" gradientUnits="userSpaceOnUse">
<stop stop-color="white"/>
<stop offset="1" stop-color="#CBCBCB"/>
</linearGradient>
<linearGradient id="paint5_linear" x1="-11964.5" y1="1665.59" x2="-11966.7" y2="1700.45" gradientUnits="userSpaceOnUse">
<stop stop-color="white"/>
<stop offset="1" stop-color="#CBCBCB"/>
</linearGradient>
<linearGradient id="paint6_linear" x1="-31955.8" y1="32837.9" x2="193380" y2="40668.7" gradientUnits="userSpaceOnUse">
<stop offset="0.01"/>
<stop offset="0.13" stop-opacity="0.69"/>
<stop offset="0.25" stop-opacity="0.32"/>
<stop offset="1" stop-opacity="0"/>
</linearGradient>
<linearGradient id="paint7_linear" x1="15423.5" y1="10198.6" x2="22259.3" y2="49057" gradientUnits="userSpaceOnUse">
<stop offset="0.01"/>
<stop offset="0.08" stop-opacity="0.69"/>
<stop offset="0.21" stop-opacity="0.32"/>
<stop offset="1" stop-opacity="0"/>
</linearGradient>
<linearGradient id="paint8_linear" x1="2254.04" y1="44032.6" x2="4208.46" y2="44026.8" gradientUnits="userSpaceOnUse">
<stop offset="0.01"/>
<stop offset="0.13" stop-opacity="0.69"/>
<stop offset="0.25" stop-opacity="0.32"/>
<stop offset="1" stop-opacity="0"/>
</linearGradient>
<linearGradient id="paint9_linear" x1="1089.43" y1="1038.78" x2="1317.67" y2="1166.39" gradientUnits="userSpaceOnUse">
<stop offset="0.01"/>
<stop offset="0.13" stop-opacity="0.69"/>
<stop offset="0.25" stop-opacity="0.32"/>
<stop offset="1" stop-opacity="0"/>
</linearGradient>
<linearGradient id="paint10_linear" x1="1747.21" y1="18148.9" x2="4986.84" y2="18335.1" gradientUnits="userSpaceOnUse">
<stop offset="0.01"/>
<stop offset="0.13" stop-opacity="0.69"/>
<stop offset="0.25" stop-opacity="0.32"/>
<stop offset="1" stop-opacity="0"/>
</linearGradient>
</defs>
</svg>
