<svg width="723" height="454" viewBox="0 0 723 454" fill="none" xmlns="http://www.w3.org/2000/svg">
<path d="M210.247 393.725C196.363 394.217 182.516 395.453 168.764 397.428C158.765 373.678 149.304 349.724 140.381 325.565C137.892 318.861 135.454 312.149 133.067 305.43C135.076 304.203 137.259 302.845 139.617 301.486C148.94 296.009 160.227 290.422 170.336 292.197C182.279 294.388 184.2 306.766 187.191 316.735L210.247 393.725Z" fill="#FDBC68"/>
<path d="M210.247 392.859C196.359 393.334 182.507 394.563 168.752 396.541C158.765 372.797 149.301 348.834 140.362 324.651C137.872 317.959 135.441 311.252 133.067 304.531C135.077 303.282 137.26 301.945 139.619 300.586C148.923 295.106 160.213 289.627 170.347 291.271C182.293 293.462 184.214 305.868 187.206 315.84C194.865 341.455 202.545 367.127 210.247 392.859Z" fill="url(#paint0_linear)"/>
<path d="M151.697 399.943C139.74 402.131 129.236 404.736 120.383 407.186C119.194 405.539 118.169 403.78 117.323 401.934C103.779 374.915 94.693 345.908 90.4133 316.023C89.2462 307.27 88.0131 292.105 96.8654 286.219C105.718 280.332 120.56 286.678 127.496 292.783C129.526 294.468 131.139 296.594 132.209 298.998C133.442 301.996 147.865 294.622 147.755 297.816V300.727C147.623 308.342 147.909 316.417 148.57 324.798C150.354 349.482 147.227 376.748 151.697 399.943Z" fill="#FDBC68"/>
<path d="M150.81 399.922C139.022 402.11 128.667 404.714 119.941 407.186C118.78 405.523 117.771 403.758 116.923 401.913C103.578 374.905 94.6289 345.909 90.4174 316.036C89.2452 307.285 88.0295 292.1 96.7562 286.215C105.483 280.329 120.114 286.696 126.952 292.778C128.948 294.459 130.537 296.577 131.598 298.97C132.814 301.99 147.032 294.594 146.924 297.789V300.721C146.794 308.313 147.098 316.408 147.727 324.788C149.485 349.49 146.403 376.73 150.81 399.922Z" fill="url(#paint1_linear)"/>
<path d="M715.438 394.245C704.231 404.153 691.815 412.6 678.488 419.384C676.155 384.359 664.776 344.577 661.332 315.923C651.762 343.813 648.252 358.172 641.996 387C641.756 388.178 635.172 416.264 629.592 438.654C616.259 442.515 602.723 445.634 589.045 447.994C593.841 424.513 601.558 390.753 601.841 389.073C606.184 364.028 609.225 338.774 610.953 313.414C611.694 302.917 608.599 284.39 612.675 274.919C616.403 266.299 628.109 270.314 636.262 268.721C655.134 265.151 674.422 264.327 693.529 266.277C697.628 266.67 702.249 267.477 704.582 270.838C705.961 273.134 706.713 275.753 706.762 278.432C710.031 314.265 713.316 350.098 716.615 385.93C717.06 388.757 716.65 391.653 715.438 394.245Z" fill="#3E3E54"/>
<path d="M703.72 201.81C701.984 217.419 701.171 233.312 702.534 238.661C705.464 250.304 708.394 261.889 711.324 273.415C697.281 281.558 622.3 283.698 606.103 273.284C605.532 272.913 604.851 272.346 605.049 271.669C605.246 270.992 606.103 271.385 606.169 271.669C610.367 262.107 620.256 221.109 624.981 194.715C627.178 183.123 628.167 174.39 627.354 172.338C626.541 170.286 625.662 167.972 624.805 165.942L615.048 141.295C613.883 138.369 613.114 136.492 610.147 137.54C613.004 127.497 617.399 117.499 625.222 110.513C637.507 99.5975 655.659 98.2222 672.053 100.012C679.449 100.602 686.704 102.355 693.545 105.208C700.431 108.102 706.142 113.206 709.764 119.704C711.179 122.59 712.199 125.652 712.796 128.807C714.838 139.268 714.531 150.046 711.895 160.375C711.192 163.278 710.357 166.182 709.39 169.107C707.39 175.067 705.215 188.318 703.72 201.81Z" fill="#FDBC68"/>
<path d="M678.23 102.909C677.79 102.476 677.247 102.165 676.652 102.007C672.445 100.532 664.623 98.2429 660.22 99.9818C655.816 101.721 657.24 107.73 659.497 110.547C660.55 112.054 662.147 113.087 663.947 113.428C665.748 113.77 667.61 113.391 669.137 112.374C671.043 111.142 680.749 105.837 678.23 102.909Z" fill="url(#paint2_linear)"/>
<path d="M642.189 145.016C643.166 147.738 643.688 150.867 645.947 152.753C646.888 153.473 647.946 154.031 649.076 154.403C660.199 158.517 672.496 157.146 684.358 157.682C686.794 157.687 689.211 158.1 691.506 158.903C692.158 159.182 692.918 159.696 692.831 160.403C692.744 161.11 691.788 161.475 691.006 161.582L665.544 165.461C660.438 166.254 655.333 167.025 650.162 167.432C646.269 167.973 642.302 167.568 638.604 166.254C637.936 165.981 637.324 165.589 636.801 165.096C636.369 164.606 636.011 164.058 635.736 163.468C632.65 158.474 631.243 152.646 631.717 146.816V139.209C631.717 138.03 631.717 135.416 633.02 134.923C634.324 134.43 636.04 136.316 636.888 137.066C639.245 139.283 641.058 142.003 642.189 145.016Z" fill="url(#paint3_linear)"/>
<path d="M703.871 175.066C704.36 175.308 704.826 175.593 705.265 175.918C705.94 176.377 706.746 176.683 706.985 177.383C707.225 178.082 706.463 180.158 706.31 180.967C705.918 183.262 705.548 185.535 705.2 187.829C705.047 188.944 703.566 201.226 703.523 201.226C699.972 201.095 703.152 222.294 699.646 221.77C678.999 218.666 651.186 199.915 630.408 197.729C629.181 197.722 627.986 197.333 626.989 196.615C626.313 195.903 625.813 195.043 625.529 194.102C625.007 192.703 626.466 188.791 626.705 187.283C627.163 184.354 627.097 184.07 629.82 182.912C634.144 180.518 638.644 178.457 643.28 176.749C648.09 175.683 653.014 175.228 657.938 175.394C669.198 175.088 681.895 181.754 693.199 180.967C697.294 180.617 700.256 173.187 703.871 175.066Z" fill="url(#paint4_linear)"/>
<path d="M668.799 100.722C669.147 104.574 668.446 108.449 666.774 111.922C665.46 113.931 663.714 115.61 661.669 116.831C658.567 118.869 654.819 120.469 651.264 119.439C650.806 119.323 650.389 119.08 650.058 118.738C649.758 118.314 649.579 117.813 649.541 117.291C649.09 112.285 649.528 107.237 650.833 102.388L653.375 90.1802C654.302 85.6872 655.766 80.5586 659.838 78.8053C662.257 77.82 664.957 77.82 667.377 78.8053C669.359 80.0545 668.734 81.6764 668.734 84.1749C668.791 89.6834 668.813 95.1991 668.799 100.722Z" fill="url(#paint5_linear)"/>
<path d="M378.798 0.19664L376.519 453.317C365.77 450.695 355.321 447.832 345.088 444.73L347.238 0L378.798 0.19664Z" fill="#FDBC68"/>
<path d="M363.717 0.720497L359.782 447.994C349.088 445.374 355.269 447.492 345.088 444.391L347.227 0L363.717 0.720497Z" fill="url(#paint6_linear)"/>
<path d="M221.779 30.162L610.336 30.162V17.7424L221.779 17.7424V30.162Z" fill="#3E3E54"/>
<path d="M590.086 333.556H213.795L226.079 28.3877H602.352L590.086 333.556Z" fill="#FDBC68"/>
<path d="M236.47 243.807C241.867 241.849 246.15 237.714 250.17 233.578C261.095 222.381 271.234 210.458 281.438 198.579C285.611 193.739 290.593 188.504 296.952 188.438C299.945 188.438 302.895 189.538 305.888 189.274C311.001 188.812 316.464 184.434 320.594 187.47C322.779 189.01 324.964 192.244 326.865 190.616C325.35 187.025 324.641 183.141 324.789 179.243C325.248 175.393 327.957 171.499 331.781 171.037C320.749 168.077 309.181 167.757 298.004 170.102C286.826 172.447 276.349 177.393 267.41 184.544C265.37 186.484 263.002 188.041 260.418 189.142C258.93 189.452 257.469 189.879 256.048 190.418C254.553 191.278 253.262 192.456 252.268 193.871L230.68 220.137C227.074 224.537 219.317 233.336 221.175 239.627C222.966 245.589 231.641 245.589 236.47 243.807Z" fill="url(#paint7_linear)"/>
<path d="M276.78 194.039L265.438 202.54L223.356 234.083C222.74 234.623 221.979 234.971 221.167 235.086C220.213 235.015 219.314 234.614 218.627 233.952C201.286 219.783 186.397 202.889 171.618 185.995C168.853 183.228 166.626 179.977 165.049 176.403C164.761 175.634 164.549 174.838 164.415 174.027C163.597 169.197 164.471 164.233 166.889 159.967C168.969 156.043 174.486 147.389 178.843 145.798C184.602 143.618 189.244 153.493 191.98 157.286C201.264 169.58 211.007 181.504 221.21 193.058C222.48 194.475 224.057 196.022 225.94 195.826C227.076 195.586 228.122 195.035 228.961 194.235L257.578 171.411C264.015 178.968 270.416 186.511 276.78 194.039Z" fill="#FDBC68"/>
<path d="M265.247 202.483L223.12 234.081C222.504 234.622 221.742 234.971 220.929 235.086C219.974 235.015 219.074 234.613 218.386 233.95C201.027 219.756 186.122 202.833 171.327 185.909C168.559 183.138 166.33 179.88 164.752 176.301C164.463 175.53 164.251 174.733 164.116 173.921C166.724 169.663 170.911 163.941 174.374 162.653C180.16 160.469 184.785 170.383 187.525 174.161C196.804 186.491 206.565 198.436 216.808 209.995C218.057 211.415 219.635 212.965 221.52 212.769C222.658 212.541 223.707 211.996 224.545 211.196L253.17 188.333C257.313 193.028 261.258 197.745 265.247 202.483Z" fill="url(#paint8_linear)"/>
<path d="M164.274 79.5445C167.611 75.7746 171.121 71.5907 171.492 66.4698C171.43 62.1054 170.021 57.8666 167.458 54.3321C166.522 52.6422 165.314 51.1182 163.882 49.8213C161.928 48.3855 159.702 47.3623 157.34 46.8141C149.717 44.2506 141.564 43.6805 133.658 45.158C125.873 46.9885 118.568 52.3709 116.212 60.0196C111.393 56.2497 104.284 57.47 98.7673 60.3029C88.5182 65.6635 80.9731 77.3654 83.5027 88.6315C85.16 96.4545 91.0041 102.621 96.5866 108.244C91.5677 109.42 87.0026 112.038 83.4535 115.774C79.9044 119.51 77.5262 124.202 76.6118 129.272C75.8489 134.371 76.4566 139.58 78.3726 144.367C80.2886 149.153 83.4439 153.345 87.5151 156.511C94.4271 161.491 102.741 164.154 111.262 164.116C119.694 164.042 128.093 163.07 136.318 161.218C144.888 159.627 153.763 157.84 160.698 152.501C166.084 148.115 169.908 142.107 171.601 135.374C173.224 128.669 173.425 121.699 172.19 114.912C171.971 112.39 171.015 109.988 169.442 108.004C168.222 106.814 166.796 105.854 165.234 105.171L156.642 100.813C153.952 99.8287 151.711 97.9 150.34 95.3867C148.726 91.2246 152.259 86.8446 156.031 84.4911C159.804 82.1377 164.318 80.4162 166.607 76.6027" fill="#3E3E54"/>
<path d="M191.588 287.372C191.763 288.029 191.108 288.62 190.519 288.992C174.407 299.427 157.193 308.039 139.191 314.671C137.369 315.468 135.395 315.856 133.408 315.81C131.423 315.497 129.53 314.749 127.865 313.621L114.531 305.805C105.016 300.259 95.5596 294.706 86.1611 289.145C89.0636 277.52 92.0097 265.896 94.8903 254.271C97.4218 244.288 100.062 233.977 106.195 225.68C106.88 224.965 107.303 224.039 107.395 223.053C107.328 222.252 107.024 221.489 106.522 220.863C98.9418 209.51 92.7436 197.288 88.0597 184.457C83.3649 171.559 82.1822 157.64 84.6335 144.131C85.2184 140.959 86.247 137.886 87.6887 135.002C94.6066 122.13 112.982 126.245 120.292 125.457C136.594 123.684 168.783 128.216 180.982 139.184C188.751 146.189 183.776 142.84 186.613 152.91C183.666 151.859 182.903 153.742 181.746 156.675C177.658 167.023 173.584 177.4 169.525 187.806C166.604 194.445 164.409 201.381 162.978 208.494C160.621 222.79 164.528 237.633 171.707 250.089C178.561 262.172 184.803 274.593 190.41 287.306C190.519 287.022 191.435 286.825 191.588 287.372Z" fill="#FDBC68"/>
<path d="M114.887 304.362C115.235 304.885 115.018 305.124 114.364 305.168C104.868 299.646 95.4305 294.117 86.0508 288.58C88.9475 277.006 91.8877 265.431 94.7626 253.856C97.289 243.917 99.9243 233.65 106.044 225.389C106.728 224.678 107.15 223.756 107.242 222.773C107.176 221.976 106.872 221.217 106.371 220.593C98.806 209.289 92.6201 197.12 87.9456 184.344L102.451 181.859L122.423 222.337C122.423 222.337 111.359 299.37 114.887 304.362Z" fill="url(#paint9_linear)"/>
<path d="M144.825 107.292C144.7 107.405 144.6 107.544 144.533 107.701C144.466 107.857 144.434 108.026 144.437 108.197C144.166 112.011 144.992 115.822 146.813 119.16C148.634 122.497 151.37 125.214 154.681 126.974C156.467 127.9 158.598 128.717 159.351 130.614C159.635 131.457 159.737 132.353 159.653 133.24C159.653 134.806 159.373 136.373 159.158 137.917C158.189 144.934 157.005 152.48 152.099 157.488C150.848 158.687 149.51 159.787 148.096 160.776C146.33 162.214 144.304 163.279 142.135 163.909C138.519 164.703 134.86 163.071 131.525 161.482C130.185 160.909 128.92 160.167 127.759 159.276C126.461 158.105 125.375 156.708 124.552 155.15C120.229 147.314 118.302 138.328 119.021 129.356C119.031 128.714 119.178 128.081 119.451 127.503C120.097 126.378 121.474 126.025 122.594 125.297C123.606 124.62 124.473 123.738 125.143 122.707C125.813 121.675 126.271 120.514 126.489 119.295C127.091 116.89 127.199 114.397 127.759 111.992C128.235 109.973 129.019 108.045 130.083 106.277C130.478 105.549 131.03 104.923 131.697 104.446C132.588 103.98 133.582 103.759 134.581 103.806C136.298 103.761 138.015 103.828 139.724 104.005C140.294 104.002 140.853 104.162 141.338 104.468C141.574 104.623 141.748 104.86 141.827 105.136C141.906 105.411 141.885 105.707 141.769 105.968" fill="url(#paint10_linear)"/>
<path d="M131.293 104.68C131.293 104.68 135.539 120.32 141.604 121.451C147.669 122.582 144.816 111.967 144.816 111.967L131.293 104.68Z" fill="url(#paint11_linear)"/>
<path d="M85.3125 153.471C78.825 169.97 72.86 186.637 67.4174 203.472C55.3035 195.103 43.992 185.615 33.63 175.129C32.9819 174.305 32.0768 173.726 31.0612 173.485C30.2091 173.461 29.3689 173.69 28.6447 174.142C23.5051 176.668 18.6016 179.654 13.9933 183.064C13.247 183.484 12.6868 184.173 12.4259 184.993C12.3973 185.481 12.4718 185.97 12.6444 186.427C12.817 186.884 13.0838 187.299 13.4273 187.645C25.0308 202.99 39.9652 215.375 54.7907 227.628C58.84 230.982 63.9124 234.555 68.8978 232.889C70.7005 232.135 72.3526 231.058 73.7743 229.711L105.428 202.902C106.205 202.343 106.821 201.587 107.213 200.71C107.47 199.596 107.339 198.428 106.843 197.4C101.967 183.59 98.1352 160.464 85.3343 153.559" fill="#FDBC68"/>
<path d="M85.3125 153.471C78.825 169.97 72.86 186.637 67.4174 203.472C55.3035 195.103 43.992 185.615 33.63 175.129C32.9819 174.305 32.0768 173.726 31.0612 173.485C30.2091 173.461 29.3689 173.69 28.6447 174.142C23.5051 176.668 18.6016 179.654 13.9933 183.064C13.247 183.484 12.6868 184.173 12.4259 184.993C12.3973 185.481 12.4718 185.97 12.6444 186.427C12.817 186.884 13.0838 187.299 13.4273 187.645C25.0308 202.99 39.9652 215.375 54.7907 227.628C58.84 230.982 63.9124 234.555 68.8978 232.889C70.7005 232.135 72.3526 231.058 73.7743 229.711L105.428 202.902C106.205 202.343 106.821 201.587 107.213 200.71C107.47 199.596 107.339 198.428 106.843 197.4C101.967 183.59 98.1352 160.464 85.3343 153.559" fill="url(#paint12_linear)"/>
<path d="M273.274 166.796C274.995 165.486 276.88 164.408 278.88 163.589C280.369 163.061 281.904 162.674 283.465 162.433L301.653 158.942C302.238 158.744 302.871 158.744 303.456 158.942C303.924 159.252 304.318 159.661 304.608 160.142C306.629 162.76 310.345 163.196 313.648 163.262C318.132 163.356 322.617 163.167 327.077 162.695C328.628 162.417 330.219 162.469 331.749 162.847C332.517 163.045 333.198 163.493 333.685 164.12C334.173 164.748 334.439 165.52 334.443 166.316C334.275 167.011 333.969 167.665 333.543 168.238C333.117 168.812 332.581 169.293 331.966 169.654L327.142 173.428C325.611 174.701 323.959 175.819 322.209 176.766C319.968 177.81 317.578 178.494 315.125 178.795C306.891 180.08 298.477 179.559 290.462 177.268C288.605 176.44 286.498 176.378 284.595 177.093C282.726 178.184 282.27 180.649 281.227 182.569C279.477 185.182 277.06 187.277 274.23 188.634C271.188 190.444 267.711 192.342 264.278 191.339C260.323 190.161 254.412 183.725 257.02 179.558C260.236 174.497 268.406 170.177 273.274 166.796Z" fill="url(#paint13_linear)"/>
<path d="M299.55 149.199C299.301 149.065 299.017 149.011 298.737 149.046C298.21 149.199 298.034 149.857 298.078 150.405C298.331 152.061 299.1 153.595 300.275 154.791L315.656 173.451C321.105 180.029 326.774 186.849 334.443 190.73C331.419 185.718 327.877 181.037 323.874 176.762C322.775 175.698 321.782 174.531 320.908 173.276C319.436 171.083 318.71 168.21 316.755 166.281C314.713 164.499 312.797 162.58 311.02 160.536C307.746 156.282 304.692 151.326 299.55 149.199Z" fill="#3E3E54"/>
<path d="M60.4488 140.976C59.953 139.902 59.1985 138.964 58.252 138.248C56.8489 137.567 55.2645 137.345 53.7266 137.615C37.6626 138.791 21.7501 141.503 6.20996 145.713C16.2436 178.458 30.6668 209.712 49.0914 238.634C65.084 232.988 80.9522 227 96.6959 220.67C95.0702 211.219 73.4538 166.1 70.6858 160.36C67.5224 153.782 64.1101 147.321 60.4488 140.976Z" fill="white"/>
<path d="M60.4488 140.976C59.953 139.902 59.1985 138.964 58.252 138.248C56.8489 137.567 55.2645 137.345 53.7266 137.615C37.6626 138.791 21.7501 141.503 6.20996 145.713C16.2436 178.458 30.6668 209.712 49.0914 238.634C65.084 232.988 80.9522 227 96.6959 220.67C95.0702 211.219 73.4538 166.1 70.6858 160.36C67.5224 153.782 64.1101 147.321 60.4488 140.976Z" fill="#FFFBF0"/>
<path d="M209.359 344.201L597.029 344.201V330.894L209.359 330.894V344.201Z" fill="#3E3E54"/>
<path d="M270.292 249.28L559.163 249.28C563.908 249.28 567.755 244.514 567.755 238.634C567.755 232.755 563.908 227.989 559.163 227.989L270.292 227.989C265.546 227.989 261.7 232.755 261.7 238.634C261.7 244.514 265.546 249.28 270.292 249.28Z" fill="url(#paint14_linear)"/>
<path d="M270.292 282.99L559.163 282.99C563.908 282.99 567.755 278.224 567.755 272.345C567.755 266.466 563.908 261.699 559.163 261.699L270.292 261.699C265.546 261.699 261.7 266.466 261.7 272.345C261.7 278.224 265.546 282.99 270.292 282.99Z" fill="url(#paint15_linear)"/>
<path d="M386.783 204.037C418.629 204.037 444.445 178.022 444.445 145.931C444.445 113.84 418.629 87.8246 386.783 87.8246C354.937 87.8246 329.12 113.84 329.12 145.931C329.12 178.022 354.937 204.037 386.783 204.037Z" fill="url(#paint16_linear)"/>
<path d="M373.372 125.083L343.357 77.4041C334.935 77.2512 283.722 76.2247 282.104 76.2247V71.8564C283.919 71.8564 342.132 72.9922 344.604 73.0577H345.764L377.025 122.594L373.372 125.083Z" fill="white"/>
<path d="M508.318 174.762H454.141L408.961 152.911L410.808 149.036L455.119 170.449H508.318V174.762Z" fill="white"/>
<path d="M475.301 86.9374L559.078 86.9374C562.401 86.9374 565.094 83.5614 565.094 79.3969C565.094 75.2324 562.401 71.8564 559.078 71.8564L475.301 71.8564C471.978 71.8564 469.285 75.2324 469.285 79.3969C469.285 83.5614 471.978 86.9374 475.301 86.9374Z" fill="url(#paint17_linear)"/>
<path d="M475.301 115.325L559.078 115.325C562.401 115.325 565.094 111.949 565.094 107.785C565.094 103.62 562.401 100.244 559.078 100.244L475.301 100.244C471.978 100.244 469.285 103.62 469.285 107.785C469.285 111.949 471.978 115.325 475.301 115.325Z" fill="url(#paint18_linear)"/>
<path d="M148.641 220.892C145.751 215.937 143.353 210.71 141.484 205.286L131.625 179.57C127.761 169.481 123.897 159.392 120.647 149.04C122.294 154.271 139.595 152.601 143.021 151.809C148.569 150.128 153.864 147.702 158.763 144.6C159.378 164.558 150.508 200.978 148.641 220.892Z" fill="white"/>
<path d="M635.197 82.1183C635.942 86.3747 637.541 90.4355 639.898 94.0549C641.061 95.8173 642.609 97.291 644.426 98.3635C646.243 99.4361 648.28 100.079 650.382 100.244C652.416 100.138 654.408 99.6305 656.245 98.7504C658.083 97.8703 659.728 96.6351 661.086 95.1159C665.737 90.4535 668.504 84.2344 668.855 77.6532C669.025 74.3733 668.486 71.0953 667.275 68.0433C666.064 64.9913 664.209 62.2372 661.837 59.9694C659.823 58.168 657.497 56.7519 654.973 55.7915C649.852 53.8463 637.912 52.4537 634.381 58.3557C632.946 60.7872 633.498 64.9871 633.542 67.7281C633.647 72.5659 634.201 77.3834 635.197 82.1183Z" fill="url(#paint19_linear)"/>
<path d="M15.0461 152.959C19.167 155.076 22.3269 158.68 23.8839 163.039C24.8332 165.105 25.0835 167.423 24.597 169.644C24.0135 171.802 22.4361 173.572 22.4361 175.731C22.4361 176.378 22.6954 177.026 22.6954 177.673C22.6954 179.94 20.5346 181.472 18.3738 182.4C17.1966 183.084 15.8807 183.496 14.5231 183.604C13.1655 183.713 11.8009 183.515 10.53 183.026C9.58733 182.458 8.75325 181.727 8.06663 180.868C3.75225 176.044 1.01557 170.02 0.222815 163.6C-0.230959 158.809 -0.511864 154.038 4.84699 152.398C8.19644 151.298 11.8379 151.498 15.0461 152.959Z" fill="url(#paint20_linear)"/>
<path d="M715.149 187.409C712.531 190.434 709.161 192.7 705.384 193.973C701.216 195.06 696.891 195.408 692.604 195.001L645.756 193.382C642.014 193.587 638.282 192.834 634.906 191.194C633.403 190.346 632.192 189.056 631.434 187.496C630.089 184.521 630.957 181.086 631.868 177.957C632.032 176.894 632.553 175.921 633.344 175.2C634.152 174.726 635.079 174.498 636.013 174.544C654.324 173.774 672.662 173.957 690.955 175.091C690.043 173.187 689.132 171.24 688.286 169.271C686.25 164.617 684.553 159.82 683.208 154.918C682.444 152.074 681.842 149.189 681.407 146.275C679.715 134.854 680.105 116.476 689.848 108.293C700.285 99.5409 709.724 124.505 713.131 131.288C717.601 140.171 721.615 149.492 722.722 159.381C723.829 169.271 721.702 179.97 715.149 187.409Z" fill="#FDBC68"/>
<path d="M645.03 193.333C648.269 193.538 651.519 193.201 654.651 192.335C656.134 191.847 657.552 191.092 659.013 190.715C660.475 190.338 661.609 190.294 662.875 189.983C664.104 189.62 665.3 189.152 666.452 188.585L685.344 179.711C687.405 178.815 689.39 177.746 691.277 176.516C691.539 176.359 691.751 176.128 691.888 175.851C692.215 175.008 691.19 174.364 690.492 173.81C689.096 172.7 688.31 170.548 686.609 170.327C685.721 170.318 684.849 170.572 684.1 171.059C671.011 177.892 655.501 178.269 641.976 184.193C639.926 185.102 635.214 187.321 636.195 190.36C637.177 193.4 642.652 193.311 645.03 193.333Z" fill="url(#paint21_linear)"/>
<path d="M697.118 163.171C696.219 167.016 692.578 169.114 688.631 170.512C687.951 170.731 687.271 170.971 686.569 171.167L684.376 171.779C674.578 174.373 665.119 178.106 656.195 182.9C646.918 187.881 637.027 194.217 626.72 192.076C619.175 190.481 613.188 184.429 610.008 177.438C607.127 170.291 605.739 162.634 605.929 154.934C605.732 145.081 606.477 134.987 610.557 126.029C610.557 126.029 619.614 113.772 625.338 110.604C631.062 107.436 634.922 117.814 634.922 117.814C635.887 120.523 637.115 150.215 637.597 162.144C651.502 160.921 665.391 160.083 679.266 159.632L684.464 159.457L692.776 159.282C694.333 159.282 696.219 159.413 696.987 160.79C697.317 161.542 697.364 162.387 697.118 163.171Z" fill="#FDBC68"/>
<path d="M688.402 170.747C687.71 170.739 687.02 170.832 686.35 171.022C684.564 171.458 682.408 172.101 682.408 172.101C682.408 172.101 680.725 165.929 679.986 163.428C679.616 161.983 679.47 160.478 679.555 158.977L684.42 158.794C685.57 162.717 687.007 166.847 688.361 170.403C688.386 170.516 688.4 170.631 688.402 170.747Z" fill="url(#paint22_linear)"/>
<path d="M614.678 56.7989C610.727 52.8758 610.336 46.5599 610.336 40.8691C617.588 38.11 625.534 42.1841 633.134 42.8092C638.8 43.2618 644.424 41.8176 650.069 40.9769C655.714 40.1362 661.728 39.9638 666.744 42.7229C671.759 45.4821 675.19 52.0567 672.954 57.4672C673.951 57.2435 674.995 57.3449 675.929 57.7565C676.864 58.1681 677.64 58.8679 678.143 59.7521C679.164 61.5875 679.638 63.6733 679.511 65.7662C679.447 69.7755 678.413 73.7108 676.498 77.2408C674.582 80.7708 671.84 83.7921 668.503 86.0504C665.941 80.4243 671.086 73.1168 667.786 67.8356C667.01 66.7524 665.984 65.8686 664.795 65.2575C663.605 64.6465 662.286 64.3258 660.947 64.322C658.295 64.3558 655.656 64.7031 653.087 65.3567C646.573 66.6069 638.735 67.5123 632.222 65.5722C626.707 63.9555 618.76 60.8946 614.678 56.7989Z" fill="#3E3E54"/>
<path d="M632.662 151.705C631.636 151.836 630.692 152.344 630.011 153.132C629.33 153.92 628.958 154.934 628.966 155.982C629.015 157.023 629.279 158.043 629.741 158.974C630.203 159.906 630.853 160.73 631.648 161.392C632.288 162.093 633.091 162.621 633.983 162.927C634.876 163.234 635.831 163.309 636.76 163.145C637.082 163.075 637.381 162.92 637.626 162.696C638.079 162.16 638.327 161.477 638.323 160.771C638.471 159.125 639.147 156.025 638.323 154.485C637.499 152.945 634.225 151.577 632.662 151.705Z" fill="url(#paint23_linear)"/>
<path d="M684.866 155.479C685.284 155.277 685.758 155.204 686.222 155.268C686.687 155.333 687.118 155.532 687.456 155.839C687.912 156.46 688.135 157.206 688.087 157.96L688.334 165.128C688.425 166.576 688.425 168.027 688.334 169.475C688.334 169.727 688.248 169.973 688.087 170.175C687.704 170.535 687.051 170.175 686.623 169.899C683.893 167.69 681.814 164.856 680.586 161.671C679.685 159.275 682.591 156.391 684.866 155.479Z" fill="url(#paint24_linear)"/>
<path d="M157.083 96.9195C156.397 100.648 154.9 104.186 152.694 107.293C151.593 108.844 150.152 110.132 148.477 111.061C146.802 111.991 144.936 112.538 143.017 112.664C139.269 112.501 135.733 110.907 133.164 108.221C128.914 104.263 126.349 98.8673 125.988 93.1236C125.866 90.2549 126.394 87.3954 127.532 84.7512C128.67 82.1069 130.391 79.7438 132.571 77.8322C134.44 76.262 136.581 75.0347 138.891 74.2088C143.631 72.5266 154.647 71.2972 157.895 76.3656C159.211 78.5223 158.707 82.1673 158.663 84.4966C158.566 88.6795 158.037 92.8418 157.083 96.9195Z" fill="url(#paint25_linear)"/>
<defs>
<linearGradient id="paint0_linear" x1="199.087" y1="378.108" x2="96.517" y2="249.35" gradientUnits="userSpaceOnUse">
<stop stop-opacity="0"/>
<stop offset="0.99"/>
</linearGradient>
<linearGradient id="paint1_linear" x1="6650.2" y1="35653.9" x2="-928.143" y2="32624.8" gradientUnits="userSpaceOnUse">
<stop stop-opacity="0"/>
<stop offset="0.99"/>
</linearGradient>
<linearGradient id="paint2_linear" x1="8848.99" y1="2278.97" x2="8915.23" y2="2666.4" gradientUnits="userSpaceOnUse">
<stop stop-opacity="0"/>
<stop offset="0.99"/>
</linearGradient>
<linearGradient id="paint3_linear" x1="24160.5" y1="5975.09" x2="23988.3" y2="6948.44" gradientUnits="userSpaceOnUse">
<stop stop-opacity="0"/>
<stop offset="0.99"/>
</linearGradient>
<linearGradient id="paint4_linear" x1="31823.5" y1="10130.6" x2="32087.1" y2="8643.6" gradientUnits="userSpaceOnUse">
<stop stop-opacity="0"/>
<stop offset="0.99"/>
</linearGradient>
<linearGradient id="paint5_linear" x1="649.239" y1="98.925" x2="668.885" y2="98.925" gradientUnits="userSpaceOnUse">
<stop stop-color="#E5C5D5"/>
<stop offset="0.42" stop-color="#EAD4D1"/>
<stop offset="1" stop-color="#F0E9CB"/>
</linearGradient>
<linearGradient id="paint6_linear" x1="3968.33" y1="91511.7" x2="5747.12" y2="91516.7" gradientUnits="userSpaceOnUse">
<stop stop-opacity="0"/>
<stop offset="0.99"/>
</linearGradient>
<linearGradient id="paint7_linear" x1="17552.9" y1="18078.9" x2="15609.3" y2="8290.91" gradientUnits="userSpaceOnUse">
<stop stop-opacity="0"/>
<stop offset="0.99"/>
</linearGradient>
<linearGradient id="paint8_linear" x1="13594.4" y1="14054.2" x2="6438.29" y2="15743.6" gradientUnits="userSpaceOnUse">
<stop stop-opacity="0"/>
<stop offset="0.99"/>
</linearGradient>
<linearGradient id="paint9_linear" x1="3139.46" y1="26535.5" x2="1278.61" y2="26592.7" gradientUnits="userSpaceOnUse">
<stop stop-opacity="0"/>
<stop offset="0.99"/>
</linearGradient>
<linearGradient id="paint10_linear" x1="3112.5" y1="10062.7" x2="3885.8" y2="10062.7" gradientUnits="userSpaceOnUse">
<stop stop-color="#E5C5D5"/>
<stop offset="0.42" stop-color="#EAD4D1"/>
<stop offset="1" stop-color="#F0E9CB"/>
</linearGradient>
<linearGradient id="paint11_linear" x1="1290.36" y1="2913.1" x2="1338.51" y2="2317.38" gradientUnits="userSpaceOnUse">
<stop stop-opacity="0"/>
<stop offset="0.99"/>
</linearGradient>
<linearGradient id="paint12_linear" x1="4277.24" y1="14678.1" x2="4851.02" y2="18882.9" gradientUnits="userSpaceOnUse">
<stop stop-opacity="0"/>
<stop offset="0.99"/>
</linearGradient>
<linearGradient id="paint13_linear" x1="10891.3" y1="6195.99" x2="13696.3" y2="6195.99" gradientUnits="userSpaceOnUse">
<stop stop-color="#E5C5D5"/>
<stop offset="0.42" stop-color="#EAD4D1"/>
<stop offset="1" stop-color="#F0E9CB"/>
</linearGradient>
<linearGradient id="paint14_linear" x1="71676.6" y1="3999.23" x2="71666.4" y2="7300.02" gradientUnits="userSpaceOnUse">
<stop stop-opacity="0"/>
<stop offset="0.99"/>
</linearGradient>
<linearGradient id="paint15_linear" x1="71881.7" y1="4033.58" x2="71871.5" y2="7334.37" gradientUnits="userSpaceOnUse">
<stop stop-opacity="0"/>
<stop offset="0.99"/>
</linearGradient>
<linearGradient id="paint16_linear" x1="23466.8" y1="2639.85" x2="22017.1" y2="26401.6" gradientUnits="userSpaceOnUse">
<stop stop-opacity="0"/>
<stop offset="0.99"/>
</linearGradient>
<linearGradient id="paint17_linear" x1="28509.6" y1="1682.51" x2="28484.9" y2="3685.66" gradientUnits="userSpaceOnUse">
<stop stop-opacity="0"/>
<stop offset="0.99"/>
</linearGradient>
<linearGradient id="paint18_linear" x1="28605.4" y1="1712.1" x2="28580.8" y2="3715.23" gradientUnits="userSpaceOnUse">
<stop stop-opacity="0"/>
<stop offset="0.99"/>
</linearGradient>
<linearGradient id="paint19_linear" x1="13786.1" y1="6840.77" x2="14356.4" y2="6840.77" gradientUnits="userSpaceOnUse">
<stop stop-color="#E5C5D5"/>
<stop offset="0.42" stop-color="#EAD4D1"/>
<stop offset="1" stop-color="#F0E9CB"/>
</linearGradient>
<linearGradient id="paint20_linear" x1="476.417" y1="5913.63" x2="761.075" y2="5913.63" gradientUnits="userSpaceOnUse">
<stop stop-color="#E5C5D5"/>
<stop offset="0.42" stop-color="#EAD4D1"/>
<stop offset="1" stop-color="#F0E9CB"/>
</linearGradient>
<linearGradient id="paint21_linear" x1="22229.6" y1="4791.41" x2="22139.1" y2="4201.49" gradientUnits="userSpaceOnUse">
<stop stop-opacity="0"/>
<stop offset="0.99"/>
</linearGradient>
<linearGradient id="paint22_linear" x1="4117.29" y1="2677.89" x2="4316.87" y2="2631.45" gradientUnits="userSpaceOnUse">
<stop stop-opacity="0"/>
<stop offset="0.99"/>
</linearGradient>
<linearGradient id="paint23_linear" x1="4223.53" y1="2270.91" x2="4268.71" y2="2270.91" gradientUnits="userSpaceOnUse">
<stop stop-color="#E5C5D5"/>
<stop offset="0.42" stop-color="#EAD4D1"/>
<stop offset="1" stop-color="#F0E9CB"/>
</linearGradient>
<linearGradient id="paint24_linear" x1="3811.6" y1="2962.57" x2="3839.95" y2="2962.57" gradientUnits="userSpaceOnUse">
<stop stop-color="#E5C5D5"/>
<stop offset="0.42" stop-color="#EAD4D1"/>
<stop offset="1" stop-color="#F0E9CB"/>
</linearGradient>
<linearGradient id="paint25_linear" x1="2641.88" y1="5907.09" x2="3131.27" y2="5907.09" gradientUnits="userSpaceOnUse">
<stop stop-color="#E5C5D5"/>
<stop offset="0.42" stop-color="#EAD4D1"/>
<stop offset="1" stop-color="#F0E9CB"/>
</linearGradient>
</defs>
</svg>
